<svg height="429pt" viewBox="-7 0 429 429.79601" width="429pt" xmlns="http://www.w3.org/2000/svg">
   <path d="m401.503906 160.765625-65.347656-40.328125c-.238281-.144531-.480469-.277344-.730469-.390625l-5.082031-2.359375c-3.507812-1.625-7.667969-.101562-9.296875 3.40625-1.625 3.503906-.101563 7.667969 3.40625 9.292969l4.699219 2.183593 65.019531 40.125c3.855469 2.371094 6.210937 6.566407 6.226563 11.09375v10.632813l-193 117.945313-193-117.945313v-10.632813c.011718-4.515624 2.359374-8.707031 6.199218-11.082031l70.429688-42.683593c3.304687-2.003907 4.363281-6.308594 2.359375-9.613282-2.003907-3.308594-6.308594-4.363281-9.617188-2.359375l-70.449219 42.699219c-8.003906 4.929688-12.890624 13.640625-12.921874 23.039062v194.558594c.027343 28.402344 23.042968 51.417969 51.445312 51.449219h311.109375c28.402344-.03125 51.417969-23.046875 51.445313-51.449219v-194.558594c-.03125-9.386718-4.90625-18.09375-12.894532-23.023437zm-1.105468 217.582031c-.019532 20.671875-16.773438 37.425782-37.445313 37.449219h-311.109375c-20.671875-.023437-37.425781-16.777344-37.445312-37.449219v-167.519531l189.347656 115.714844c2.242187 1.371093 5.0625 1.371093 7.300781 0l189.351563-115.714844zm0 0" fill="#09366B"/>
   <g fill="#000">
      <path d="m332.609375 97.859375-85.535156-95.355469c-.109375-.121094-.226563-.238281-.347657-.351562-1.316406-1.375-3.136718-2.152344-5.042968-2.152344-.261719 0-.527344.015625-.789063.046875l-.121093-.0117188c-.234376-.0234374-.464844-.0351562-.699219-.0351562h-120.960938c-21.371093.0234375-38.691406 17.34375-38.714843 38.714844v196.042968l14 8.554688v-204.597656c.011718-13.644532 11.070312-24.703125 24.714843-24.71875h115.570313v47c.023437 21.371094 17.34375 38.691406 38.714844 38.71875h42.066406l4.933594 5.5v138.097656l14-8.554688v-132.222656c0-1.726562-.636719-3.390625-1.789063-4.675781zm-59.210937-12.144531c-13.644532-.015625-24.699219-11.074219-24.714844-24.71875v-35.730469l54.222656 60.449219zm0 0"/>
      <path d="m272.898438 163.894531h-131c-3.867188 0-7 3.136719-7 7 0 3.867188 3.132812 7 7 7h131c3.867187 0 7-3.132812 7-7 0-3.863281-3.132813-7-7-7zm0 0"/>
      <path d="m207.898438 207.894531h-66c-3.867188 0-7 3.136719-7 7 0 3.867188 3.132812 7 7 7h66c3.867187 0 7-3.132812 7-7 0-3.863281-3.132813-7-7-7zm0 0"/>
   </g>
   <path d="m382.953125 395.796875h-311.109375c-20.671875-.023437-37.425781-16.777344-37.445312-37.449219v-135.300781l-20-12.21875v167.519531c.019531 20.671875 16.773437 37.425782 37.445312 37.449219h311.109375c15.066406-.015625 28.660156-9.046875 34.515625-22.929687-4.59375 1.9375-9.527344 2.933593-14.515625 2.929687zm0 0" fill="#09366B"/>
</svg>