<svg xmlns="http://www.w3.org/2000/svg" viewBox="0 0 246.32 374.53"><defs><style>.cls-1{fill:#eff9fd;}.cls-2{fill:#fff;}</style></defs><title>ADN_3</title><g id="Capa_2" data-name="Capa 2"><g id="Capa_1-2" data-name="Capa 1"><rect class="cls-1" x="-10.92" y="175.88" width="267.8" height="30.86" transform="translate(-103.77 208.77) rotate(-61.67)"/><circle class="cls-1" cx="200.79" cy="45.53" r="45.52" transform="translate(65.43 200.66) rotate(-61.67)"/><circle class="cls-1" cx="51.35" cy="322.73" r="45.53"/><path class="cls-2" d="M51.23,365.88a42.7,42.7,0,1,1,16.4-82.14L67,285.29a40.39,40.39,0,0,0-15.74-3,41,41,0,1,0,41,41h1.67A42.76,42.76,0,0,1,51.23,365.88Z"/><path class="cls-1" d="M51.23,374.53A51.17,51.17,0,0,1,7.13,297.3l1.43.84a49.53,49.53,0,1,0,92.2,25.19h1.67A51.27,51.27,0,0,1,51.23,374.53Z"/></g></g></svg>