<svg width="174" height="89" viewBox="0 0 174 89" fill="none" xmlns="http://www.w3.org/2000/svg">
<path d="M110.473 42.8191L110.556 32.5269L3.24319 33.0439L3.32001 44.5988L110.473 42.8191Z" fill="white" fill-opacity="0.7"/>
<path d="M166.1 31.9415C163.654 16.4938 149.142 5.95513 133.688 8.4028C118.234 10.8505 107.69 25.3576 110.136 40.8053C112.583 56.253 127.094 66.7915 142.548 64.3439C158.002 61.8962 168.547 47.3892 166.1 31.9415Z" fill="white" fill-opacity="0.7"/>
<path d="M163.934 32.2844C164.524 36.0922 164.263 39.9834 163.17 43.6787C162.077 47.374 160.18 50.7818 157.613 53.6574C155.047 56.533 151.876 58.8051 148.328 60.3106C144.779 61.8161 140.941 62.5177 137.09 62.365C133.238 62.2123 129.468 61.2091 126.05 59.4275C122.632 57.6458 119.652 55.1299 117.322 52.0602C114.993 48.9905 113.372 45.4433 112.576 41.6731C111.78 37.9029 111.83 34.0034 112.72 30.2542L113.717 30.4936C112.447 35.7301 112.898 41.2358 115.003 46.1958C117.107 51.1557 120.753 55.3066 125.401 58.034C130.049 60.7615 135.452 61.9207 140.81 61.34C146.169 60.7594 151.199 58.4698 155.155 54.81C159.111 51.1502 161.783 46.3148 162.777 41.0191C163.77 35.7235 163.032 30.249 160.671 25.4058C158.31 20.5627 154.452 16.6081 149.668 14.1273C144.883 11.6465 139.427 10.7713 134.106 11.6312L133.947 10.6282C137.339 10.0786 140.807 10.2032 144.15 10.9945C147.494 11.7858 150.649 13.2285 153.434 15.24C156.219 17.2514 158.58 19.7922 160.382 22.7169C162.183 25.6415 163.391 28.8927 163.934 32.2844Z" fill="white"/>
<path d="M169.019 31.479C169.883 36.9298 169.29 42.5121 167.299 47.6599C165.308 52.8078 161.991 57.3381 157.684 60.7914C153.377 64.2448 148.233 66.4983 142.774 67.3237C137.315 68.149 131.735 67.5168 126.6 65.491L126.987 64.5417C131.317 66.2432 135.98 66.9242 140.616 66.5318C145.251 66.1395 149.734 64.6844 153.716 62.2795C157.698 59.8747 161.073 56.5848 163.577 52.6653C166.081 48.7458 167.647 44.3022 168.155 39.6796C168.663 35.057 168.098 30.3797 166.504 26.011C164.91 21.6424 162.33 17.6999 158.965 14.4897C155.599 11.2794 151.539 8.8879 147.099 7.50079C142.658 6.11368 137.958 5.76831 133.362 6.4915L133.204 5.48848C141.4 4.19644 149.774 6.20731 156.489 11.0798C163.203 15.9523 167.71 23.2886 169.019 31.479Z" fill="white"/>
</svg>
