<svg width="374" height="327" viewBox="0 0 374 327" fill="none" xmlns="http://www.w3.org/2000/svg">
<path d="M89.7776 146.973L89.6359 170.862L297.026 172.021L297.167 148.132L89.7776 146.973Z" fill="white"/>
<path d="M65.6441 124.068C46.174 123.959 30.2968 139.651 30.1813 159.117C30.0659 178.582 45.756 194.451 65.2261 194.559C84.6962 194.668 100.573 178.976 100.689 159.511C100.804 140.045 85.1142 124.177 65.6441 124.068Z" fill="white"/>
<path d="M309.477 125.43C290.007 125.322 274.13 141.013 274.015 160.479C273.899 179.945 289.589 195.813 309.059 195.922C328.53 196.031 344.407 180.339 344.522 160.873C344.638 141.407 328.948 125.539 309.477 125.43Z" fill="white"/>
<path d="M338.816 145.065C341.104 149.381 342.405 154.151 342.628 159.032C342.85 163.912 341.987 168.781 340.102 173.289C338.217 177.797 335.355 181.831 331.724 185.102C328.093 188.372 323.782 190.797 319.102 192.203C314.421 193.608 309.488 193.959 304.656 193.23C299.824 192.501 295.215 190.71 291.159 187.986C287.104 185.263 283.702 181.674 281.201 177.478C278.699 173.282 277.159 168.583 276.692 163.721L277.99 163.605C278.417 167.759 279.669 171.786 281.672 175.449C284.621 180.995 289.149 185.542 294.683 188.514C300.218 191.486 306.51 192.751 312.764 192.148C319.018 191.545 324.954 189.101 329.82 185.125C334.687 181.15 338.265 175.822 340.103 169.814C341.941 163.807 341.956 157.39 340.146 151.375C338.337 145.36 334.783 140.017 329.936 136.023C325.088 132.028 319.164 129.56 312.913 128.932C306.661 128.304 300.363 129.543 294.815 132.493L294.208 131.352C301.95 127.284 310.986 126.442 319.344 129.012C327.701 131.581 334.702 137.352 338.816 145.065V145.065Z" fill="white"/>
<path d="M344.728 141.922C348.02 148.092 349.618 155.023 349.36 162.012C349.103 169.001 347 175.798 343.264 181.712C339.528 187.625 334.293 192.445 328.09 195.681C321.888 198.918 314.94 200.455 307.952 200.136L308.003 198.855C313.892 199.112 319.762 198.008 325.156 195.629C330.55 193.251 335.324 189.661 339.106 185.139C342.888 180.617 345.576 175.284 346.962 169.555C348.349 163.827 348.395 157.856 347.099 152.107C345.802 146.358 343.198 140.986 339.487 136.408C335.776 131.83 331.059 128.169 325.703 125.71C320.347 123.251 314.495 122.059 308.602 122.228C302.71 122.398 296.935 123.922 291.727 126.685L291.12 125.544C300.406 120.62 311.265 119.579 321.315 122.65C331.365 125.72 339.785 132.651 344.728 141.922Z" fill="white"/>
</svg>
