<svg width="374" height="333" viewBox="0 0 374 333" fill="none" xmlns="http://www.w3.org/2000/svg">
<path d="M284.162 179.728L284.304 155.838L76.914 154.679L76.7724 178.569L284.162 179.728Z" fill="white"/>
<path d="M308.296 202.633C327.766 202.741 343.643 187.05 343.758 167.584C343.874 148.118 328.184 132.25 308.714 132.141C289.244 132.032 273.366 147.724 273.251 167.19C273.135 186.655 288.826 202.524 308.296 202.633Z" fill="white"/>
<path d="M64.4622 201.27C83.9323 201.379 99.8095 185.687 99.925 166.221C100.04 146.756 84.3503 130.887 64.8802 130.779C45.4101 130.67 29.533 146.362 29.4175 165.827C29.3021 185.293 44.9922 201.161 64.4622 201.27Z" fill="white"/>
<path d="M35.1232 181.635C32.8359 177.319 31.5343 172.549 31.312 167.669C31.0897 162.788 31.9522 157.919 33.8376 153.411C35.7229 148.904 38.5842 144.869 42.2155 141.599C45.8467 138.328 50.1577 135.903 54.8381 134.498C59.5186 133.092 64.4521 132.741 69.2837 133.471C74.1153 134.2 78.7248 135.99 82.7805 138.714C86.8362 141.438 90.2372 145.027 92.7389 149.223C95.2405 153.419 96.7805 158.117 97.2481 162.98L95.9496 163.095C95.523 158.941 94.271 154.915 92.2672 151.251C89.3184 145.706 84.7906 141.159 79.2563 138.187C73.722 135.214 67.4299 133.95 61.1756 134.553C54.9213 135.156 48.9856 137.6 44.1194 141.575C39.2531 145.55 35.6747 150.879 33.8367 156.886C31.9986 162.894 31.9835 169.311 33.7933 175.326C35.603 181.34 39.1564 186.683 44.0039 190.678C48.8515 194.673 54.7756 197.14 61.027 197.769C67.2784 198.397 73.5764 197.158 79.1246 194.208L79.7314 195.349C71.9897 199.417 62.9536 200.258 54.596 197.689C46.2383 195.12 39.238 189.348 35.1232 181.635Z" fill="white"/>
<path d="M29.2112 184.779C25.9202 178.609 24.322 171.677 24.5793 164.688C24.8366 157.699 26.9401 150.903 30.6761 144.989C34.412 139.075 39.6471 134.255 45.8493 131.019C52.0514 127.783 58.9995 126.246 65.9872 126.564L65.9365 127.846C60.0473 127.589 54.1776 128.692 48.7834 131.071C43.3892 133.45 38.6158 137.04 34.8339 141.562C31.052 146.084 28.3635 151.416 26.9772 157.145C25.591 162.874 25.5443 168.845 26.8408 174.593C28.1373 180.342 30.7422 185.714 34.4529 190.293C38.1637 194.871 42.8804 198.532 48.2368 200.991C53.5932 203.45 59.4449 204.641 65.3374 204.472C71.2299 204.303 77.0046 202.778 82.2128 200.016L82.8196 201.157C73.5335 206.08 62.6745 207.121 52.6245 204.051C42.5746 200.98 34.1545 194.05 29.2112 184.779Z" fill="white"/>
</svg>
