<svg xmlns="http://www.w3.org/2000/svg" xmlns:xlink="http://www.w3.org/1999/xlink" viewBox="0 0 80.83 213.99"><defs><style>.cls-1{fill:url(#Degradado_sin_nombre_9);}.cls-2{fill:#90d2ef;}.cls-3{fill:#fff;}</style><linearGradient id="Degradado_sin_nombre_9" x1="1304.64" y1="869.91" x2="1304.64" y2="1043.53" gradientTransform="matrix(0, -1, -1, 0, 1014.48, 1395.76)" gradientUnits="userSpaceOnUse"><stop offset="0" stop-color="#fff"/><stop offset="0.05" stop-color="#e6f5fb"/><stop offset="0.12" stop-color="#cbeaf8"/><stop offset="0.2" stop-color="#b5e1f4"/><stop offset="0.29" stop-color="#a4daf2"/><stop offset="0.4" stop-color="#99d6f0"/><stop offset="0.56" stop-color="#92d3ef"/><stop offset="1" stop-color="#90d2ef"/></linearGradient></defs><title>ADN_1</title><g id="Capa_2" data-name="Capa 2"><g id="Capa_1-2" data-name="Capa 1"><rect class="cls-1" x="-38.13" y="81.96" width="178.62" height="14.93" transform="translate(-44.9 126.63) rotate(-81.38)"/><circle class="cls-2" cx="40.43" cy="173.59" r="36.58"/><path class="cls-3" d="M40.43,207.34a33.72,33.72,0,1,1,12.94-64.91l-.5,1.22a32.42,32.42,0,1,0,19.94,29.82h1.32a33.76,33.76,0,0,1-33.64,33.87Z"/><path class="cls-2" d="M40.43,214A40.43,40.43,0,0,1,5.61,153l1.13.69a39.09,39.09,0,1,0,72.78,19.86h1.31A40.45,40.45,0,0,1,40.43,214Z"/></g></g></svg>