<svg xmlns="http://www.w3.org/2000/svg" xmlns:xlink="http://www.w3.org/1999/xlink" viewBox="0 0 1930.87 2996.57"><defs><style>.cls-1{fill:url(#Degradado_sin_nombre_13);}.cls-2,.cls-8{fill:none;stroke:#fff;stroke-miterlimit:10;stroke-width:8px;}.cls-2{opacity:0.3;}.cls-3{fill:#5e9aca;}.cls-4{fill:#5788ca;}.cls-5{fill:#2075b6;}.cls-6{fill:#2062b6;}.cls-7{opacity:0.7;}.cls-8{opacity:0.3;}</style><linearGradient id="Degradado_sin_nombre_13" x1="964.07" y1="2960.5" x2="964.07" y2="43.37" gradientUnits="userSpaceOnUse"><stop offset="0" stop-color="#0c2f64"/><stop offset="0.03" stop-color="#0c3168"/><stop offset="0.26" stop-color="#0d4183"/><stop offset="0.5" stop-color="#0e4c96"/><stop offset="0.74" stop-color="#0e53a1"/><stop offset="1" stop-color="#0e55a5"/></linearGradient></defs><title>Bacground_ADN_SVG_1</title><g id="Capa_2" data-name="Capa 2"><g id="Capa_1-2" data-name="Capa 1"><path class="cls-1" d="M1924.07,0s-413,273.11-983,273.11S4.07,48.5,4.07,48.5V2994h1920Z"/><path class="cls-2" d="M1927.57,225.88a344.67,344.67,0,0,1-65.79,72c-146.8,121-363.92,100.14-484.95-46.66A343,343,0,0,1,1303.15,91"/><path class="cls-2" d="M3.8,275.29c117.23,22.23,219.35,105.43,260,226.59,60,178.53-36.17,371.87-214.7,431.82-16.41,5.52-29.94,9.71-46.49,12.64"/><path class="cls-2" d="M1924.53,1951.29c-117.23,22.23-219.35,105.43-260,226.59-60,178.53,36.16,371.87,214.69,431.82,16.41,5.52,30,9.71,46.49,12.64"/><rect class="cls-3" x="1269.14" y="631.78" width="138.17" height="15.92" transform="translate(659.07 1958.39) rotate(-88.3)"/><rect class="cls-3" x="1233.72" y="585.66" width="10.58" height="138.17" transform="translate(-106 261.34) rotate(-11.55)"/><rect class="cls-4" x="1140.62" y="622.91" width="7.69" height="92.01" transform="translate(-150.44 385.27) rotate(-17.95)"/><circle class="cls-3" cx="1336.04" cy="724.98" r="23.5"/><circle class="cls-3" cx="1340.87" cy="562.63" r="23.5"/><circle class="cls-3" cx="1225.9" cy="586.96" r="19.8"/><circle class="cls-3" cx="1254.1" cy="724.95" r="27.85"/><circle class="cls-4" cx="1158.07" cy="710.85" r="22.42"/><circle class="cls-5" cx="1070.97" cy="693.52" r="17.17"/><polygon class="cls-6" points="1688.67 689.83 1685.01 688.63 1701.37 644.24 1705.07 645.43 1688.67 689.83"/><circle class="cls-6" cx="1683.93" cy="698.71" r="10.76"/><rect class="cls-3" x="1368.11" y="650.47" width="138.17" height="10.58" transform="translate(651 2025.96) rotate(-84.68)"/><rect class="cls-4" x="1524.92" y="617.38" width="7.69" height="92.01" transform="translate(-34.85 86.92) rotate(-3.22)"/><circle class="cls-3" cx="1430.05" cy="724.44" r="19.8"/><circle class="cls-3" cx="1443.11" cy="584.19" r="27.85"/><circle class="cls-4" cx="1526.29" cy="619.31" r="22.42"/><circle class="cls-5" cx="1606.2" cy="657.33" r="17.17"/><rect class="cls-3" x="415.44" y="1055.84" width="138.17" height="15.92" transform="translate(-648.42 1351.7) rotate(-79.77)"/><rect class="cls-3" x="321.49" y="1023.33" width="138.17" height="10.58" transform="translate(-708.49 977.02) rotate(-66.52)"/><rect class="cls-4" x="254.92" y="991.43" width="92.01" height="7.69" transform="matrix(0.5, -0.87, 0.87, 0.5, -712.01, 760.54)"/><circle class="cls-3" cx="500" cy="979.99" r="23.5"/><circle class="cls-3" cx="471.14" cy="1139.87" r="23.5"/><circle class="cls-3" cx="363.68" cy="1092.28" r="19.8"/><circle class="cls-3" cx="419.79" cy="963.09" r="27.85"/><circle class="cls-4" cx="322.92" cy="957.07" r="22.42"/><circle class="cls-5" cx="234.16" cy="956.02" r="17.17" transform="translate(-724.11 1180.8) rotate(-89.44)"/><polygon class="cls-6" points="837.75 1087.27 833.91 1087.66 840.76 1134.47 844.61 1134.08 837.75 1087.27"/><circle class="cls-6" cx="834.92" cy="1077.58" r="10.76"/><rect class="cls-3" x="515.49" y="1063.41" width="138.17" height="10.58" transform="translate(-544.31 1526.37) rotate(-83.39)"/><rect class="cls-4" x="632.63" y="1078.63" width="92.4" height="7.73" transform="translate(-542.5 1457.92) rotate(-75)"/><circle class="cls-3" cx="591.86" cy="999.97" r="19.8" transform="translate(-490 1424.01) rotate(-80.78)"/><circle class="cls-3" cx="575.64" cy="1139.87" r="27.85"/><circle class="cls-4" cx="664.28" cy="1122.69" r="22.42"/><circle class="cls-5" cx="750.33" cy="1102.03" r="17.17"/><g class="cls-7"><rect class="cls-3" x="1396.57" y="1596.69" width="174.33" height="20.09" transform="translate(-611.02 2235.25) rotate(-63.98)"/><rect class="cls-3" x="1274.71" y="1565.75" width="174.33" height="13.35" transform="translate(-472.68 2553.07) rotate(-77.23)"/><rect class="cls-4" x="1187.76" y="1534.75" width="116.09" height="9.71" transform="translate(-422.5 2606.92) rotate(-83.63)"/><circle class="cls-3" cx="1436.93" cy="1703.6" r="29.64" transform="translate(-707.26 2311.44) rotate(-65.68)"/><circle class="cls-3" cx="1526.84" cy="1519.45" r="29.64" transform="translate(-486.57 2285.06) rotate(-65.68)"/><circle class="cls-3" cx="1382.01" cy="1487.69" r="24.98" transform="translate(-542.81 2134.4) rotate(-65.68)"/><circle class="cls-3" cx="1342.74" cy="1660.99" r="35.14" transform="translate(-723.83 2200.55) rotate(-65.68)"/><circle class="cls-4" cx="1239.65" cy="1594.88" r="28.29" transform="translate(-724.22 2067.72) rotate(-65.68)"/><circle class="cls-5" cx="1148.52" cy="1529.71" r="21.67" transform="translate(-718.43 1946.34) rotate(-65.68)"/><polygon class="cls-6" points="1860.63 1846.41 1857.04 1843.13 1898.92 1800.6 1902.56 1803.89 1860.63 1846.41"/><circle class="cls-6" cx="1850.57" cy="1854.16" r="13.58" transform="translate(-601.17 2776.93) rotate(-65.68)"/><rect class="cls-3" x="1502.03" y="1669.89" width="174.33" height="13.35" transform="translate(-653.93 2228.69) rotate(-60.36)"/><rect class="cls-4" x="1632.48" y="1728.07" width="116.09" height="9.71" transform="translate(-534.79 2686.28) rotate(-68.9)"/><circle class="cls-3" cx="1545.3" cy="1751.83" r="24.98" transform="matrix(0.41, -0.91, 0.91, 0.41, -687.47, 2438.56)"/><circle class="cls-3" cx="1633.19" cy="1597.36" r="35.14" transform="translate(-495.01 2427.79) rotate(-65.68)"/><circle class="cls-4" cx="1710.58" cy="1680.97" r="28.29" transform="translate(-525.68 2547.49) rotate(-65.68)"/><circle class="cls-5" cx="1782.7" cy="1766.19" r="21.67" transform="translate(-560.93 2663.34) rotate(-65.68)"/><rect class="cls-3" x="194.7" y="1640.67" width="174.33" height="20.09" transform="translate(-1237.58 946.72) rotate(-55.45)"/><rect class="cls-3" x="104.96" y="1554.77" width="174.33" height="13.35" transform="translate(-999.07 533.78) rotate(-42.2)"/><rect class="cls-4" x="48.33" y="1471.68" width="116.09" height="9.71" transform="translate(-843.82 341.37) rotate(-35.81)"/><circle class="cls-3" cx="343.2" cy="1562.4" r="29.64" transform="translate(-1221.89 1231.71) rotate(-65.68)"/><circle class="cls-3" cx="226.95" cy="1731.21" r="29.64" transform="translate(-1444.11 1225.07) rotate(-65.68)"/><circle class="cls-3" cx="128.13" cy="1620.67" r="24.98"/><circle class="cls-3" cx="259.77" cy="1501.29" r="35.14"/><circle class="cls-4" cx="151.52" cy="1444.03" r="28.29" transform="translate(-1226.77 987.42) rotate(-65.68)"/><circle class="cls-5" cx="50.01" cy="1396.71" r="21.67" transform="translate(-1238.1 854.43) rotate(-65.12)"/><polygon class="cls-6" points="675.79 1861.23 671.16 1859.68 654.73 1917.07 659.35 1918.62 675.79 1861.23"/><circle class="cls-6" cx="677.57" cy="1848.62" r="13.58"/><rect class="cls-3" x="307.19" y="1701.65" width="174.33" height="13.35" transform="translate(-1273.75 1168.55) rotate(-59.07)"/><rect class="cls-4" x="437.27" y="1768.29" width="116.58" height="9.75" transform="translate(-1190.15 1032.84) rotate(-50.68)"/><circle class="cls-3" cx="438.44" cy="1633.1" r="24.98" transform="translate(-1165.02 1096.3) rotate(-56.46)"/><circle class="cls-3" cx="347.1" cy="1785.51" r="35.14"/><circle class="cls-4" cx="457.94" cy="1811.83" r="28.29"/><circle class="cls-5" cx="567.61" cy="1832.78" r="21.67"/></g><g class="cls-7"><rect class="cls-3" x="497.01" y="2756.32" width="20.09" height="174.33" transform="translate(-94.55 18.49) rotate(-1.91)"/><rect class="cls-3" x="624.11" y="2729.54" width="13.35" height="174.33" transform="translate(-714.72 263.01) rotate(-15.16)"/><rect class="cls-4" x="743.86" y="2733.3" width="9.71" height="116.09" transform="translate(-973.42 470.47) rotate(-21.56)"/><circle class="cls-3" cx="503.03" cy="2735.97" r="29.64" transform="translate(-171.33 37.12) rotate(-3.61)"/><circle class="cls-3" cx="509.85" cy="2940.78" r="29.64" transform="translate(-184.22 37.95) rotate(-3.61)"/><circle class="cls-3" cx="652.69" cy="2901.01" r="24.98" transform="translate(-181.43 46.87) rotate(-3.61)"/><circle class="cls-3" cx="606.21" cy="2729.5" r="35.14" transform="translate(-170.72 43.6) rotate(-3.61)"/><circle class="cls-4" cx="728.26" cy="2739.62" r="28.29" transform="translate(-171.11 51.31) rotate(-3.61)"/><circle class="cls-5" cx="839.3" cy="2754.52" r="21.67" transform="matrix(1, -0.06, 0.06, 1, -171.83, 58.33)"/><polygon class="cls-6" points="61.79 2808.26 66.5 2809.47 49.42 2866.67 44.67 2865.47 61.79 2808.26"/><circle class="cls-6" cx="67.06" cy="2796.7" r="13.58" transform="translate(-176.02 9.78) rotate(-3.61)"/><rect class="cls-3" x="294" y="2824.5" width="174.33" height="13.35" transform="translate(-2460.11 3127.74) rotate(-88.29)"/><rect class="cls-4" x="260.39" y="2770.8" width="9.71" height="116.09" transform="translate(-334.59 51.63) rotate(-6.83)"/><circle class="cls-3" cx="384.7" cy="2744.12" r="24.98" transform="translate(-172.08 29.68) rotate(-3.61)"/><circle class="cls-3" cx="379.4" cy="2921.76" r="35.14" transform="translate(-183.28 29.7) rotate(-3.61)"/><circle class="cls-4" cx="271.86" cy="2884.15" r="28.29" transform="matrix(1, -0.06, 0.06, 1, -181.12, 22.85)"/><circle class="cls-5" cx="168.22" cy="2842.63" r="21.67" transform="translate(-178.71 16.24) rotate(-3.61)"/><rect class="cls-3" x="1461.16" y="2231.61" width="174.33" height="20.09" transform="translate(-856.86 3521.28) rotate(-83.38)"/><rect class="cls-3" x="1582.26" y="2271.82" width="174.33" height="13.35" transform="translate(-1040.82 3074.16) rotate(-70.13)"/><rect class="cls-4" x="1726.91" y="2308.5" width="116.09" height="9.71" transform="translate(-1079.38 2890.63) rotate(-63.74)"/><circle class="cls-3" cx="1535.5" cy="2348.42" r="29.64" transform="translate(-144.87 101.38) rotate(-3.61)"/><circle class="cls-3" cx="1559.14" cy="2144.81" r="29.64" transform="translate(-132 102.46) rotate(-3.61)"/><circle class="cls-3" cx="1698.23" cy="2196.19" r="24.98"/><circle class="cls-3" cx="1637.84" cy="2363.33" r="35.14"/><circle class="cls-4" cx="1760.3" cy="2363.22" r="28.29" transform="translate(-145.35 115.57) rotate(-3.61)"/><circle class="cls-5" cx="1872.15" cy="2357.48" r="21.67" transform="translate(-122.77 102.94) rotate(-3.05)"/><polygon class="cls-6" points="1101.68 2240.18 1106.49 2239.38 1094.13 2180.98 1089.32 2181.78 1101.68 2240.18"/><circle class="cls-6" cx="1106.01" cy="2252.15" r="13.58"/><rect class="cls-3" x="1334.79" y="2236.77" width="174.33" height="13.35" transform="translate(-892.81 3546.08) rotate(-87)"/><rect class="cls-4" x="1243.87" y="2228.7" width="116.58" height="9.75" transform="translate(-1144.63 3068.83) rotate(-78.61)"/><circle class="cls-3" cx="1418.24" cy="2330.56" r="24.98" transform="matrix(0.1, -1, 1, 0.1, -1039.73, 3514.34)"/><circle class="cls-3" cx="1427.55" cy="2153.12" r="35.14"/><circle class="cls-4" cx="1317.29" cy="2181.79" r="28.29"/><circle class="cls-5" cx="1210.58" cy="2214.65" r="21.67"/></g><path class="cls-8" d="M2.65,2329.81A623.65,623.65,0,0,1,417.07,2173c345.73,0,626,280.27,626,626a625.33,625.33,0,0,1-31.4,196.32"/></g></g></svg>