<svg xmlns="http://www.w3.org/2000/svg" xmlns:xlink="http://www.w3.org/1999/xlink" viewBox="0 0 1920.6 2994"><defs><style>.cls-1{fill:url(#Degradado_sin_nombre_13);}.cls-2{fill:none;stroke:#fff;stroke-linecap:round;stroke-miterlimit:10;stroke-width:8px;opacity:0.3;}.cls-3{fill:#5e9aca;}.cls-4{fill:#5788ca;}.cls-5{fill:#2075b6;}.cls-6{fill:#2062b6;}.cls-7{opacity:0.7;}</style><linearGradient id="Degradado_sin_nombre_13" x1="960" y1="2960.5" x2="960" y2="43.37" gradientUnits="userSpaceOnUse"><stop offset="0" stop-color="#0c2f64"/><stop offset="0.03" stop-color="#0c3168"/><stop offset="0.26" stop-color="#0d4183"/><stop offset="0.5" stop-color="#0e4c96"/><stop offset="0.74" stop-color="#0e53a1"/><stop offset="1" stop-color="#0e55a5"/></linearGradient></defs><title>Recurso 31</title><g id="Capa_2" data-name="Capa 2"><g id="Capa_1-2" data-name="Capa 1"><path class="cls-1" d="M1920,0S1507,273.11,937,273.11,0,48.5,0,48.5V2994H1920Z"/><path class="cls-2" d="M1915.49,232.88c-18,26.38-32.91,43.68-58.78,65-146.8,121-363.92,100.14-485-46.66A343,343,0,0,1,1298.08,91"/><path class="cls-2" d="M5.72,275.29c117.24,22.23,219.36,105.43,260,226.59,60,178.53-36.17,371.87-214.7,431.82-16.41,5.52-29.94,9.71-46.49,12.64"/><path class="cls-2" d="M1915.46,1951.29c-117.23,22.23-219.35,105.43-260,226.59-60,178.53,36.16,371.87,214.69,431.82,16.41,5.52,30,9.71,46.49,12.64"/><rect class="cls-3" x="1265.07" y="631.78" width="138.17" height="15.92" transform="translate(655.12 1954.32) rotate(-88.3)"/><rect class="cls-3" x="1229.65" y="585.66" width="10.58" height="138.17" transform="translate(-106.09 260.52) rotate(-11.55)"/><rect class="cls-4" x="1136.55" y="622.91" width="7.69" height="92.01" transform="translate(-150.64 384.01) rotate(-17.95)"/><circle class="cls-3" cx="1331.97" cy="724.98" r="23.5"/><circle class="cls-3" cx="1336.8" cy="562.63" r="23.5"/><circle class="cls-3" cx="1221.83" cy="586.96" r="19.8"/><circle class="cls-3" cx="1250.03" cy="724.95" r="27.85"/><circle class="cls-4" cx="1154" cy="710.85" r="22.42"/><circle class="cls-5" cx="1066.9" cy="693.52" r="17.17"/><polygon class="cls-6" points="1684.6 689.83 1680.93 688.63 1697.3 644.24 1701 645.43 1684.6 689.83"/><circle class="cls-6" cx="1679.86" cy="698.71" r="10.76"/><rect class="cls-3" x="1364.03" y="650.47" width="138.17" height="10.58" transform="translate(647.31 2021.9) rotate(-84.68)"/><rect class="cls-4" x="1520.85" y="617.38" width="7.69" height="92.01" transform="translate(-34.86 86.69) rotate(-3.22)"/><circle class="cls-3" cx="1425.98" cy="724.44" r="19.8"/><circle class="cls-3" cx="1439.04" cy="584.19" r="27.85"/><circle class="cls-4" cx="1522.22" cy="619.31" r="22.42"/><circle class="cls-5" cx="1602.13" cy="657.33" r="17.17"/><rect class="cls-3" x="411.37" y="1055.84" width="138.17" height="15.92" transform="translate(-651.76 1347.69) rotate(-79.77)"/><rect class="cls-3" x="317.41" y="1023.33" width="138.17" height="10.58" transform="translate(-710.94 973.28) rotate(-66.52)"/><rect class="cls-4" x="250.85" y="991.43" width="92.01" height="7.69" transform="translate(-714.05 757.01) rotate(-60.13)"/><circle class="cls-3" cx="495.93" cy="979.99" r="23.5"/><circle class="cls-3" cx="467.06" cy="1139.87" r="23.5"/><circle class="cls-3" cx="359.61" cy="1092.28" r="19.8"/><circle class="cls-3" cx="415.72" cy="963.09" r="27.85"/><circle class="cls-4" cx="318.85" cy="957.07" r="22.42"/><circle class="cls-5" cx="230.09" cy="956.02" r="17.17" transform="translate(-728.15 1176.73) rotate(-89.44)"/><polygon class="cls-6" points="833.68 1087.27 829.84 1087.66 836.69 1134.47 840.54 1134.08 833.68 1087.27"/><circle class="cls-6" cx="830.85" cy="1077.58" r="10.76"/><rect class="cls-3" x="511.42" y="1063.41" width="138.17" height="10.58" transform="translate(-547.91 1522.33) rotate(-83.39)"/><rect class="cls-4" x="628.56" y="1078.63" width="92.4" height="7.73" transform="translate(-545.51 1453.99) rotate(-75)"/><circle class="cls-3" cx="587.79" cy="999.97" r="19.8" transform="translate(-493.42 1419.99) rotate(-80.78)"/><circle class="cls-3" cx="571.57" cy="1139.87" r="27.85"/><circle class="cls-4" cx="660.21" cy="1122.69" r="22.42"/><circle class="cls-5" cx="746.26" cy="1102.03" r="17.17"/><g class="cls-7"><rect class="cls-3" x="1392.5" y="1596.69" width="174.33" height="20.09" transform="translate(-613.31 2231.59) rotate(-63.98)"/><rect class="cls-3" x="1270.64" y="1565.75" width="174.33" height="13.35" transform="translate(-475.85 2549.09) rotate(-77.23)"/><rect class="cls-4" x="1183.69" y="1534.75" width="116.09" height="9.71" transform="translate(-426.12 2602.87) rotate(-83.63)"/><circle class="cls-3" cx="1432.86" cy="1703.6" r="29.64" transform="translate(-709.65 2307.73) rotate(-65.68)"/><circle class="cls-3" cx="1522.77" cy="1519.45" r="29.64" transform="translate(-488.96 2281.35) rotate(-65.68)"/><circle class="cls-3" cx="1377.94" cy="1487.69" r="24.98" transform="translate(-545.2 2130.69) rotate(-65.68)"/><circle class="cls-3" cx="1338.67" cy="1660.99" r="35.14" transform="translate(-726.23 2196.84) rotate(-65.68)"/><circle class="cls-4" cx="1235.58" cy="1594.88" r="28.29" transform="translate(-726.61 2064.01) rotate(-65.68)"/><circle class="cls-5" cx="1144.45" cy="1529.71" r="21.67" transform="translate(-720.83 1942.63) rotate(-65.68)"/><polygon class="cls-6" points="1856.56 1846.41 1852.96 1843.13 1894.85 1800.6 1898.48 1803.89 1856.56 1846.41"/><circle class="cls-6" cx="1846.49" cy="1854.16" r="13.58" transform="translate(-603.57 2773.22) rotate(-65.68)"/><rect class="cls-3" x="1497.96" y="1669.89" width="174.33" height="13.35" transform="translate(-655.98 2225.16) rotate(-60.36)"/><rect class="cls-4" x="1628.41" y="1728.07" width="116.09" height="9.71" transform="translate(-537.4 2682.48) rotate(-68.9)"/><circle class="cls-3" cx="1541.23" cy="1751.83" r="24.98" transform="translate(-689.87 2434.85) rotate(-65.68)"/><circle class="cls-3" cx="1629.12" cy="1597.36" r="35.14" transform="translate(-497.41 2424.08) rotate(-65.68)"/><circle class="cls-4" cx="1706.51" cy="1680.97" r="28.29" transform="translate(-528.07 2543.78) rotate(-65.68)"/><circle class="cls-5" cx="1778.63" cy="1766.19" r="21.67" transform="translate(-563.32 2659.63) rotate(-65.68)"/><rect class="cls-3" x="190.63" y="1640.67" width="174.33" height="20.09" transform="translate(-1239.34 943.37) rotate(-55.45)"/><rect class="cls-3" x="100.89" y="1554.77" width="174.33" height="13.35" transform="translate(-1000.12 531.05) rotate(-42.2)"/><rect class="cls-4" x="44.26" y="1471.68" width="116.09" height="9.71" transform="translate(-844.59 338.99) rotate(-35.81)"/><circle class="cls-3" cx="339.13" cy="1562.4" r="29.64" transform="translate(-1224.29 1228) rotate(-65.68)"/><circle class="cls-3" cx="222.88" cy="1731.21" r="29.64" transform="translate(-1446.5 1221.36) rotate(-65.68)"/><circle class="cls-3" cx="124.05" cy="1620.67" r="24.98"/><circle class="cls-3" cx="255.7" cy="1501.29" r="35.14"/><circle class="cls-4" cx="147.45" cy="1444.03" r="28.29" transform="translate(-1229.16 983.71) rotate(-65.68)"/><circle class="cls-5" cx="45.94" cy="1396.71" r="21.67" transform="translate(-1240.46 850.74) rotate(-65.12)"/><polygon class="cls-6" points="671.72 1861.23 667.09 1859.68 650.65 1917.07 655.28 1918.62 671.72 1861.23"/><circle class="cls-6" cx="673.5" cy="1848.62" r="13.58"/><rect class="cls-3" x="303.12" y="1701.65" width="174.33" height="13.35" transform="translate(-1275.73 1165.06) rotate(-59.07)"/><rect class="cls-4" x="433.2" y="1768.29" width="116.58" height="9.75" transform="translate(-1191.64 1029.69) rotate(-50.68)"/><circle class="cls-3" cx="434.37" cy="1633.1" r="24.98" transform="translate(-1166.84 1092.91) rotate(-56.46)"/><circle class="cls-3" cx="343.03" cy="1785.51" r="35.14"/><circle class="cls-4" cx="453.87" cy="1811.83" r="28.29"/><circle class="cls-5" cx="563.54" cy="1832.78" r="21.67"/></g><g class="cls-7"><rect class="cls-3" x="492.94" y="2756.32" width="20.09" height="174.33" transform="translate(-94.55 18.36) rotate(-1.91)"/><rect class="cls-3" x="620.04" y="2729.54" width="13.35" height="174.33" transform="translate(-714.86 261.95) rotate(-15.16)"/><rect class="cls-4" x="739.78" y="2733.3" width="9.71" height="116.09" transform="translate(-973.7 468.97) rotate(-21.56)"/><circle class="cls-3" cx="498.96" cy="2735.97" r="29.64" transform="translate(-171.34 36.86) rotate(-3.61)"/><circle class="cls-3" cx="505.78" cy="2940.78" r="29.64" transform="translate(-184.23 37.7) rotate(-3.61)"/><circle class="cls-3" cx="648.62" cy="2901.01" r="24.98" transform="translate(-181.44 46.61) rotate(-3.61)"/><circle class="cls-3" cx="602.13" cy="2729.5" r="35.14" transform="translate(-170.72 43.35) rotate(-3.61)"/><circle class="cls-4" cx="724.18" cy="2739.62" r="28.29" transform="translate(-171.12 51.05) rotate(-3.61)"/><circle class="cls-5" cx="835.23" cy="2754.52" r="21.67" transform="translate(-171.84 58.08) rotate(-3.61)"/><polygon class="cls-6" points="57.72 2808.26 62.43 2809.47 45.35 2866.67 40.6 2865.47 57.72 2808.26"/><circle class="cls-6" cx="62.98" cy="2796.7" r="13.58" transform="translate(-176.03 9.52) rotate(-3.61)"/><rect class="cls-3" x="289.93" y="2824.5" width="174.33" height="13.35" transform="translate(-2464.06 3123.68) rotate(-88.29)"/><rect class="cls-4" x="256.32" y="2770.8" width="9.71" height="116.09" transform="translate(-334.62 51.15) rotate(-6.83)"/><circle class="cls-3" cx="380.63" cy="2744.12" r="24.98" transform="matrix(1, -0.06, 0.06, 1, -172.09, 29.42)"/><circle class="cls-3" cx="375.33" cy="2921.76" r="35.14" transform="translate(-183.29 29.44) rotate(-3.61)"/><circle class="cls-4" cx="267.79" cy="2884.15" r="28.29" transform="translate(-181.13 22.59) rotate(-3.61)"/><circle class="cls-5" cx="164.15" cy="2842.63" r="21.67" transform="translate(-178.72 15.98) rotate(-3.61)"/><rect class="cls-3" x="1457.09" y="2231.61" width="174.33" height="20.09" transform="translate(-860.46 3517.23) rotate(-83.38)"/><rect class="cls-3" x="1578.19" y="2271.82" width="174.33" height="13.35" transform="translate(-1043.51 3070.33) rotate(-70.13)"/><rect class="cls-4" x="1722.84" y="2308.5" width="116.09" height="9.71" transform="translate(-1081.65 2886.97) rotate(-63.74)"/><circle class="cls-3" cx="1531.43" cy="2348.42" r="29.64" transform="translate(-144.88 101.12) rotate(-3.61)"/><circle class="cls-3" cx="1555.07" cy="2144.81" r="29.64" transform="translate(-132.01 102.21) rotate(-3.61)"/><circle class="cls-3" cx="1694.16" cy="2196.19" r="24.98"/><circle class="cls-3" cx="1633.77" cy="2363.33" r="35.14"/><circle class="cls-4" cx="1756.22" cy="2363.22" r="28.29" transform="translate(-145.36 115.31) rotate(-3.61)"/><circle class="cls-5" cx="1868.08" cy="2357.48" r="21.67" transform="translate(-122.77 102.72) rotate(-3.05)"/><polygon class="cls-6" points="1097.61 2240.18 1102.42 2239.38 1090.06 2180.98 1085.25 2181.78 1097.61 2240.18"/><circle class="cls-6" cx="1101.94" cy="2252.15" r="13.58"/><rect class="cls-3" x="1330.72" y="2236.77" width="174.33" height="13.35" transform="translate(-896.67 3542.02) rotate(-87)"/><rect class="cls-4" x="1239.8" y="2228.7" width="116.58" height="9.75" transform="translate(-1147.9 3064.84) rotate(-78.61)"/><circle class="cls-3" cx="1414.17" cy="2330.56" r="24.98" transform="translate(-1043.4 3510.29) rotate(-84.39)"/><circle class="cls-3" cx="1423.47" cy="2153.12" r="35.14"/><circle class="cls-4" cx="1313.22" cy="2181.79" r="28.29"/><circle class="cls-5" cx="1206.51" cy="2214.65" r="21.67"/></g><path class="cls-2" d="M6.58,2320.81A623.63,623.63,0,0,1,421,2164c345.73,0,626,280.27,626,626a625.62,625.62,0,0,1-31.4,196.32"/></g></g></svg>