<svg width="512" height="353" viewBox="0 0 512 353" fill="none" xmlns="http://www.w3.org/2000/svg">
<path d="M511.182 20.611C468.079 20.97 425.408 29.2518 385.296 45.0439C383.766 45.7471 382.403 46.7681 381.298 48.0389C380.193 49.3098 379.371 50.8015 378.886 52.4149C378.098 55.2984 378.44 58.374 379.84 61.0143C361.974 54.3259 336.878 44.3616 311.647 33.7148C268.957 14.4687 241.407 20.065 210.856 44.498H115.384C115.384 40.6761 116.339 37.1272 116.612 33.7148C116.808 31.9351 116.59 30.134 115.975 28.4527C115.359 26.7714 114.363 25.2554 113.065 24.0234C99.4265 10.3737 55.6463 3.54893 22.2313 0V24.0234C46.1243 25.8039 69.687 30.667 92.3345 38.4921C86.0606 90.361 57.5555 182.77 48.8267 210.615H0V234.366H57.4192C59.9291 234.374 62.3769 233.586 64.4109 232.114C66.445 230.643 67.9603 228.564 68.7392 226.176C68.7392 226.176 69.9669 222.354 71.4671 217.576L80.1962 226.722C90.8344 237.778 101.745 249.107 109.11 255.386C153.3 292.377 206.355 332.234 216.993 339.195C229.658 347.14 244.088 351.829 259.001 352.845C268.746 353.55 278.422 350.742 286.278 344.928C295.03 348.451 304.804 348.451 313.556 344.928C324.342 340.684 333.149 332.552 338.242 322.133C348.39 324.148 358.92 322.656 368.111 317.902C376.986 313.597 384.009 306.229 387.887 297.154C397.89 297.573 407.665 294.1 415.165 287.463C420.322 283.18 424.233 277.587 426.488 271.271C428.744 264.955 429.261 258.149 427.985 251.564L446.807 238.87C448.034 242.965 449.262 246.787 449.944 249.517C450.652 252.017 452.151 254.221 454.217 255.796C456.283 257.371 458.803 258.233 461.4 258.253H511.591V234.502H470.674C459.491 197.921 426.212 102.373 407.8 62.7886C441.554 52.1302 476.621 46.2046 512 45.1805L511.182 20.611ZM399.344 268.626C397.488 270.437 395.156 271.681 392.62 272.212C390.084 272.744 387.448 272.542 385.023 271.629C376.158 264.531 348.335 237.095 325.149 212.935C324.074 211.806 322.788 210.9 321.363 210.268C319.939 209.636 318.403 209.292 316.846 209.254C315.288 209.215 313.738 209.485 312.284 210.046C310.83 210.608 309.501 211.45 308.373 212.526C307.245 213.601 306.339 214.889 305.708 216.315C305.077 217.741 304.732 219.277 304.694 220.836C304.656 222.395 304.925 223.946 305.486 225.401C306.047 226.856 306.889 228.186 307.964 229.315C313.419 235.048 348.88 271.766 365.792 286.371C365.057 288.45 363.92 290.364 362.446 292.004C360.972 293.643 359.189 294.976 357.2 295.926C354.394 297.596 351.19 298.478 347.925 298.478C344.661 298.478 341.457 297.596 338.651 295.926C325.012 284.596 271.685 227.677 263.638 219.214C261.522 216.879 258.565 215.481 255.419 215.328C252.273 215.174 249.195 216.278 246.862 218.395C244.529 220.513 243.132 223.472 242.978 226.62C242.825 229.769 243.927 232.85 246.044 235.185C246.044 235.185 295.962 289.783 318.056 309.439C316.963 312.329 315.284 314.96 313.124 317.168C310.965 319.377 308.372 321.114 305.509 322.27C303.28 323.282 300.807 323.627 298.387 323.263C295.967 322.9 293.704 321.844 291.87 320.222C277.465 307.7 263.803 294.346 250.954 280.229C248.801 277.93 245.825 276.581 242.679 276.478C239.533 276.376 236.475 277.529 234.178 279.683C231.881 281.837 230.533 284.816 230.431 287.964C230.329 291.113 231.48 294.173 233.633 296.472C241.27 304.662 252.863 316.946 266.093 328.958C264.232 329.125 262.361 329.125 260.501 328.958C250.186 327.89 240.251 324.483 231.45 318.994C223.131 313.534 170.894 274.496 125.886 237.096C119.476 231.772 108.565 220.306 98.6082 209.796C91.516 202.425 84.9697 196.146 80.6053 191.506C90.5616 158.883 104.882 108.652 112.656 67.8391H185.488C169.257 84.0823 147.435 116.842 153.163 140.729C154.328 145.792 156.828 150.451 160.402 154.22C163.976 157.988 168.494 160.73 173.485 162.158C186.092 166.62 199.835 166.688 212.486 162.352C225.136 158.016 235.952 149.531 243.18 138.271C252.115 135.998 260.833 132.938 269.23 129.126C282.868 141.82 301.144 156.426 320.375 172.259C355.29 200.514 394.843 232.455 403.708 251.018C405.111 253.92 405.442 257.225 404.644 260.348C403.845 263.471 401.967 266.21 399.344 268.08V268.626ZM417.074 229.315C392.283 201.294 364.628 175.949 334.56 153.696C313.01 136.224 292.688 119.845 280.004 106.877C278.413 105.282 276.405 104.167 274.21 103.66C272.015 103.153 269.722 103.275 267.593 104.011C253.561 108.43 239.883 113.905 226.677 120.39C209.901 145.506 192.58 143.459 180.987 139.5C177.304 138.272 176.622 136.634 176.213 135.132C173.758 124.758 186.169 100.462 202.4 84.2187C240.997 45.7265 260.91 36.0352 302.781 54.7353C344.652 73.4354 382.432 87.2216 394.707 91.5895C408.346 125.441 427.44 177.992 439.578 214.437L417.074 229.315Z" fill="#0F4C96"/>
</svg>
