<svg xmlns="http://www.w3.org/2000/svg" viewBox="0 0 1080 1080"><defs><style>.cls-1{fill:#fff;}.cls-2{fill:none;stroke:#13477f;stroke-linecap:round;stroke-linejoin:round;stroke-width:9px;}.cls-3{fill:#1b75bb;}</style></defs><title>linkedin_2</title><g id="Capa_2" data-name="Capa 2"><g id="Capa_1-2" data-name="Capa 1"><circle class="cls-1" cx="540" cy="540" r="540"/><circle class="cls-2" cx="539.56" cy="540.6" r="437.47"/><path class="cls-2" d="M467.6,1021.48A482.78,482.78,0,0,1,319,974"/><path class="cls-2" d="M539.56,1026.77q-16.37,0-32.46-1.06"/><path class="cls-2" d="M901.42,865.3q-5.67,6.32-11.55,12.43"/><path class="cls-2" d="M1013.58,432.09a487.29,487.29,0,0,1-98.91,417.82"/><path class="cls-2" d="M999.2,381.78q3.27,9.47,6.15,19.08"/><path class="cls-2" d="M335.39,99.25a488.25,488.25,0,0,1,337-26.46"/><path class="cls-2" d="M57.69,605.54q-1.61-12-2.62-24.28"/><path class="cls-2" d="M72.56,676.22a481.9,481.9,0,0,1-11.22-47.61"/><path class="cls-2" d="M319,974A487.65,487.65,0,0,1,78.18,694.27"/><rect class="cls-3" x="266.75" y="438" width="117" height="371" rx="2.68"/><rect class="cls-3" x="454.75" y="438" width="110" height="371" rx="2.68"/><circle class="cls-3" cx="324.75" cy="321" r="67"/><path class="cls-3" d="M702.81,809a4.06,4.06,0,0,1-4.06-4.06V595s2-64-63-64-65,71-65,71V805.18a3.83,3.83,0,0,1-3.83,3.82H553.81l-.06-303s32-78,127-78,134,57,134,186V804.94a4.06,4.06,0,0,1-4.06,4.06Z"/></g></g></svg>