<svg xmlns="http://www.w3.org/2000/svg" xmlns:xlink="http://www.w3.org/1999/xlink" viewBox="0 0 2618 2618"><defs><style>.cls-1{fill:url(#Degradado_sin_nombre_10);}.cls-2{fill:#fff;}.cls-3{fill:#094f9b;}.cls-4{fill:#2690cf;}.cls-5{fill:#90d2ef;}</style><linearGradient id="Degradado_sin_nombre_10" x1="1309" y1="2588.71" x2="1309" y2="37.92" gradientUnits="userSpaceOnUse"><stop offset="0" stop-color="#f2f2f2" stop-opacity="0"/><stop offset="0.02" stop-color="#e8e9ec" stop-opacity="0.04"/><stop offset="0.21" stop-color="#99a6bb" stop-opacity="0.39"/><stop offset="0.4" stop-color="#5b7295" stop-opacity="0.66"/><stop offset="0.59" stop-color="#2f4d7a" stop-opacity="0.85"/><stop offset="0.79" stop-color="#153669" stop-opacity="0.96"/><stop offset="1" stop-color="#0c2f64"/></linearGradient></defs><title>Recurso 2</title><g id="Capa_2" data-name="Capa 2"><g id="Capa_1-2" data-name="Capa 1"><circle class="cls-1" cx="1309" cy="1309" r="1309"/><circle class="cls-2" cx="1309" cy="1309" r="717"/><path class="cls-3" d="M843.54,1330.59a40.09,40.09,0,0,1-20.64-5.69l-26.26-15.76a10.87,10.87,0,0,1,5.59-20.2h17.52v10.32H802.23a.55.55,0,0,0-.29,1l26.27,15.76a29.94,29.94,0,0,0,31.88-.76l22.52-15a.47.47,0,0,0,.22-.63.46.46,0,0,0-.53-.39H841v-120.9h10.32v110.58h31a10.87,10.87,0,0,1,6,19.92l-22.52,15A40.2,40.2,0,0,1,843.54,1330.59Z"/><path class="cls-3" d="M883.53,1187.61H808.69v-13.53a18.84,18.84,0,0,1,18.82-18.82h37.18a18.85,18.85,0,0,1,18.84,18.82ZM819,1177.29h54.2v-3.21a8.52,8.52,0,0,0-8.52-8.5H827.51a8.51,8.51,0,0,0-8.5,8.5Z"/><path class="cls-3" d="M941.73,1208H808v-10.32H941.73a11.43,11.43,0,0,0,11.42-11.42v-54.83a17.17,17.17,0,0,1,17.15-17.16h33.64v10.33H970.3a6.83,6.83,0,0,0-6.83,6.83v54.83A21.76,21.76,0,0,1,941.73,1208Z"/><path class="cls-3" d="M1004.6,1421.69H889.73v-30.1h52a11.09,11.09,0,0,0,11.08-11.08V1235a11.09,11.09,0,0,0-11.08-11.09H808V1213.6H941.74a21.43,21.43,0,0,1,21.4,21.41v145.5a21.42,21.42,0,0,1-21.4,21.4H900.05v9.46H1004.6Z"/><path class="cls-3" d="M1107.62,1330.59a40.16,40.16,0,0,1-22.27-6.71l-22.52-15a10.88,10.88,0,0,1,6-19.93h31V1178.36h10.32v120.9h-41.36a.47.47,0,0,0-.53.39.47.47,0,0,0,.23.63l22.51,15a29.94,29.94,0,0,0,31.89.76l26.26-15.76a.45.45,0,0,0,.25-.62c-.11-.41-.33-.41-.53-.41h-17.53v-10.32h17.53a10.87,10.87,0,0,1,5.59,20.2l-26.26,15.76A40.1,40.1,0,0,1,1107.62,1330.59Z"/><path class="cls-3" d="M1142.48,1187.61h-74.84v-13.53a18.85,18.85,0,0,1,18.84-18.82h37.17a18.85,18.85,0,0,1,18.83,18.82ZM1078,1177.29h54.2v-3.21a8.51,8.51,0,0,0-8.51-8.5h-37.17a8.52,8.52,0,0,0-8.52,8.5Z"/><path class="cls-3" d="M1142.89,1208H1009.43a21.76,21.76,0,0,1-21.73-21.74v-54.83a6.84,6.84,0,0,0-6.84-6.83H947.23v-10.33h33.63A17.18,17.18,0,0,1,998,1131.42v54.83a11.43,11.43,0,0,0,11.41,11.42h133.46Z"/><path class="cls-3" d="M1061.44,1421.69H946.57v-10.32h104.55v-9.46h-41.7a21.42,21.42,0,0,1-21.4-21.4V1235a21.43,21.43,0,0,1,21.4-21.41h133.47v10.32H1009.42A11.09,11.09,0,0,0,998.34,1235v145.5a11.09,11.09,0,0,0,11.08,11.08h52Z"/><path class="cls-3" d="M975.58,1532c-145.6,0-264.06-118.45-264.06-264S830,1003.92,975.58,1003.92a262.55,262.55,0,0,1,101.4,20.17l-4,9.53a252.18,252.18,0,0,0-97.43-19.38c-139.91,0-253.73,113.83-253.73,253.74s113.82,253.73,253.73,253.73,253.74-113.82,253.74-253.73h10.32C1239.64,1413.58,1121.18,1532,975.58,1532Z"/><path class="cls-4" d="M975.58,1557.83c-159.82,0-289.85-130-289.85-289.85A290.57,290.57,0,0,1,833,1015.55l5.08,9A280.23,280.23,0,0,0,696.05,1268c0,154.13,125.4,279.53,279.53,279.53s279.54-125.4,279.54-279.53h10.32C1265.44,1427.8,1135.41,1557.83,975.58,1557.83Z"/><path class="cls-5" d="M975.58,1584.55C801,1584.55,659,1442.54,659,1268a316.28,316.28,0,0,1,43.93-161l8.88,5.25A306,306,0,0,0,669.32,1268c0,168.87,137.39,306.25,306.26,306.25s306.26-137.38,306.26-306.25h10.32C1292.16,1442.54,1150.15,1584.55,975.58,1584.55Z"/><path class="cls-3" d="M1446.87,1267.18V1352q0,14.09,2,17.44,3,6.72,15.43,6.71h2.35v9.39h-89.88v-9.39h8q8.37,0,10.73-4.36,3-4.35,3-31.53V1207.48q0-26.84-3-31.53-2.68-4.7-10.73-4.69h-8v-9.39h89.88v9.39h-2.35q-12.4,0-15.43,7-2,4-2,17.78v55h57.35v-55q0-14.08-2-18.11-3.69-6.71-16.1-6.71h-2.35v-9.39h90.56v9.39h-8q-8.05,0-11.07,4.69-2.68,4.71-2.68,31.53v132.81q0,26.84,2.68,31.53,3,4.37,11.07,4.36h8v9.39h-90.56v-9.39h2.35q12.75,0,16.1-6.38,2-4,2-17.77v-84.85Z"/><path class="cls-3" d="M1661.85,1340.29q0,26.84,2.68,31.53,3,4.37,11.07,4.36h7.05v9.39h-90.89v-9.39h8q8.37,0,10.73-4.36,3-4.35,3-31.53V1207.48q0-26.84-3-31.53-2.68-4.7-10.73-4.69h-8v-9.39h85.18q12.4,0,20.29.16c5.26.12,9,.29,11.24.51q17.43,1.34,30.19,8.38,26.49,14.43,26.49,44.94-.35,22.82-17.1,36.9t-43.94,16.43q21.8,3.36,32.87,12.41a59.37,59.37,0,0,1,6.87,7.38,29.25,29.25,0,0,1,4.53,8.72,48,48,0,0,1,2.18,11.57q.51,6.54.51,15.59l-.34,21.47q-.35,14.09,1.84,18.78t8.56,4.69q11.38,0,11.4-23.14V1343h10.06v4.69q0,40.59-39.91,40.58-31.53,0-37.56-22.8-2.7-10.07-2-42.26.66-32.54-6.71-41.26-7.73-9-34.55-8.72Zm0-76.8a45.31,45.31,0,0,0,5.54.33h6.2q22.8,0,31.53-9.72,8.37-9.39,8.38-36.56,0-33.87-12.07-41.92a30,30,0,0,0-16.44-4.7q-17.1,0-20.12,3.69t-3,23.48Z"/><path class="cls-3" d="M1959,1229.61h-8.39q-8.38-37.54-28.17-49.63-15.76-9.72-39.91-9.73-10.07,0-12.91,3.36t-2.85,12.07v72.78h5.37q26.47,0,35.88-14.42,6.7-9.74,6.71-28.85h9.73v98.27h-9.73q-.68-44.94-41.92-44.94h-6V1352q0,11.07,1,14.42,2,7.72,9.39,9.06a32.78,32.78,0,0,0,4,.5c1.56.12,3.46.17,5.7.17h4.36v9.39h-95.58v-9.39h8.38q8.39,0,10.73-4.36,3-4.35,3-31.53V1207.48q0-26.84-3-31.53-2.68-4.7-10.73-4.69h-8.38v-9.39H1959Z"/><path class="cls-4" d="M1398.76,1436.11h7l15.6,41h-8.2l-3.82-10.23h-14.32l-3.76,10.23h-8.2Zm9.19,25.19-5.66-16.12-5.89,16.12Z"/><path class="cls-4" d="M1457,1446.86a10,10,0,0,0-1.48-1.1,17.73,17.73,0,0,0-2.6-1.36,23.07,23.07,0,0,0-3.32-1.13,14.88,14.88,0,0,0-3.64-.46A8.17,8.17,0,0,0,1441,1444a4,4,0,0,0-1.62,3.41,3.47,3.47,0,0,0,.61,2.11,5.13,5.13,0,0,0,1.76,1.47,14.52,14.52,0,0,0,2.92,1.16c1.17.35,2.53.71,4.07,1.1q3,.81,5.46,1.73a15,15,0,0,1,4.16,2.31,9.63,9.63,0,0,1,2.63,3.33,11,11,0,0,1,.92,4.76,11.79,11.79,0,0,1-1.24,5.63,10.41,10.41,0,0,1-3.35,3.79,14.49,14.49,0,0,1-4.85,2.11,24.54,24.54,0,0,1-5.75.66,30.7,30.7,0,0,1-9.13-1.39,28.14,28.14,0,0,1-8.09-3.92l3.53-6.88a10.81,10.81,0,0,0,1.87,1.36,29.41,29.41,0,0,0,3.21,1.68,25.23,25.23,0,0,0,4.1,1.41,18.34,18.34,0,0,0,4.62.58c4.4,0,6.59-1.41,6.59-4.22a3.45,3.45,0,0,0-.75-2.25,6.25,6.25,0,0,0-2.14-1.62,20,20,0,0,0-3.35-1.27c-1.31-.39-2.77-.81-4.39-1.27a36.73,36.73,0,0,1-5.11-1.77,13.08,13.08,0,0,1-3.61-2.25,8.33,8.33,0,0,1-2.17-3,10.48,10.48,0,0,1-.72-4.08,12.73,12.73,0,0,1,1.15-5.54,11.2,11.2,0,0,1,3.21-4.05,14.46,14.46,0,0,1,4.77-2.45,19.61,19.61,0,0,1,5.83-.84,22.49,22.49,0,0,1,8,1.36,29.52,29.52,0,0,1,6.36,3.2Z"/><path class="cls-4" d="M1492,1477.42a18.72,18.72,0,0,1-8.18-1.76,20.29,20.29,0,0,1-6.3-4.68,21.8,21.8,0,0,1-5.52-14.36,20.65,20.65,0,0,1,1.54-7.86,21.62,21.62,0,0,1,4.21-6.64,20.09,20.09,0,0,1,6.39-4.6,19,19,0,0,1,8-1.7,18.07,18.07,0,0,1,8.12,1.82,20.3,20.3,0,0,1,6.27,4.77,21.8,21.8,0,0,1,4,6.7,21.14,21.14,0,0,1,1.44,7.62,20.74,20.74,0,0,1-1.5,7.83,21.25,21.25,0,0,1-4.16,6.59,20,20,0,0,1-6.35,4.57A19.08,19.08,0,0,1,1492,1477.42Zm-11.91-20.8a16.45,16.45,0,0,0,.81,5.14,13.7,13.7,0,0,0,2.34,4.39,11.84,11.84,0,0,0,3.76,3.07,10.92,10.92,0,0,0,5,1.15,10.74,10.74,0,0,0,5.12-1.18,11.65,11.65,0,0,0,3.75-3.15,14,14,0,0,0,2.31-4.42,16.37,16.37,0,0,0,0-10.14,14.17,14.17,0,0,0-2.37-4.39,11.37,11.37,0,0,0-3.76-3,11.75,11.75,0,0,0-10.14.06,11.4,11.4,0,0,0-3.75,3.12,13.9,13.9,0,0,0-2.28,4.39A16.13,16.13,0,0,0,1480.11,1456.62Z"/><path class="cls-4" d="M1522.29,1456.33a21.11,21.11,0,0,1,1.36-7.42,19.93,19.93,0,0,1,10.31-11.24,19.58,19.58,0,0,1,8.55-1.79,18.73,18.73,0,0,1,9.8,2.48,15.9,15.9,0,0,1,6.15,6.47l-6.13,4.22a10.37,10.37,0,0,0-2-2.92,9.81,9.81,0,0,0-2.48-1.87,10.78,10.78,0,0,0-2.78-1,12.6,12.6,0,0,0-2.83-.32,10.77,10.77,0,0,0-5.23,1.21,11.5,11.5,0,0,0-3.69,3.15,13.68,13.68,0,0,0-2.23,4.39,16.63,16.63,0,0,0-.75,4.88,15.86,15.86,0,0,0,.87,5.23,13.68,13.68,0,0,0,2.45,4.42,12.24,12.24,0,0,0,3.82,3.06,10.43,10.43,0,0,0,4.88,1.16,13,13,0,0,0,2.89-.35,11.06,11.06,0,0,0,2.86-1.1,10.86,10.86,0,0,0,2.51-1.93,8.88,8.88,0,0,0,1.85-2.86l6.53,3.75a12.54,12.54,0,0,1-2.8,4.08,18.42,18.42,0,0,1-4.11,3,20.76,20.76,0,0,1-4.88,1.85,21.55,21.55,0,0,1-5.08.64,17.48,17.48,0,0,1-8-1.85,20.72,20.72,0,0,1-6.27-4.83,22.28,22.28,0,0,1-4.11-6.76A21.11,21.11,0,0,1,1522.29,1456.33Z"/><path class="cls-4" d="M1571,1477.13v-41h8v41Z"/><path class="cls-4" d="M1605.78,1436.11h7l15.6,41h-8.21l-3.81-10.23h-14.33l-3.76,10.23h-8.2Zm9.18,25.19-5.66-16.12-5.89,16.12Z"/><path class="cls-4" d="M1639.52,1477.13v-41h14.91a22.27,22.27,0,0,1,8.81,1.62,17.92,17.92,0,0,1,6.32,4.39,18.12,18.12,0,0,1,3.82,6.5,24.6,24.6,0,0,1,1.27,7.94,23.93,23.93,0,0,1-1.42,8.47,18,18,0,0,1-4.07,6.47,18.42,18.42,0,0,1-6.39,4.16,22.53,22.53,0,0,1-8.34,1.47Zm27.1-20.57a17.47,17.47,0,0,0-.81-5.43,12.15,12.15,0,0,0-2.37-4.27,10.55,10.55,0,0,0-3.84-2.78,13.09,13.09,0,0,0-5.17-1h-6.94v27h6.94a12.5,12.5,0,0,0,5.22-1,10.76,10.76,0,0,0,3.82-2.86,12.75,12.75,0,0,0,2.34-4.3A17.28,17.28,0,0,0,1666.62,1456.56Z"/><path class="cls-4" d="M1705,1477.42a18.68,18.68,0,0,1-8.17-1.76,20.17,20.17,0,0,1-6.3-4.68,21.8,21.8,0,0,1-5.52-14.36,20.65,20.65,0,0,1,1.53-7.86,21.65,21.65,0,0,1,4.22-6.64,20.16,20.16,0,0,1,6.38-4.6,19.05,19.05,0,0,1,8-1.7,18,18,0,0,1,8.12,1.82,20.07,20.07,0,0,1,6.27,4.77,22,22,0,0,1,4,6.7,21.14,21.14,0,0,1,1.44,7.62,20.74,20.74,0,0,1-1.5,7.83,21.25,21.25,0,0,1-4.16,6.59,20,20,0,0,1-6.36,4.57A19,19,0,0,1,1705,1477.42Zm-11.9-20.8a16.45,16.45,0,0,0,.81,5.14,13.7,13.7,0,0,0,2.34,4.39,11.8,11.8,0,0,0,3.75,3.07,11,11,0,0,0,5.06,1.15,10.68,10.68,0,0,0,5.11-1.18,11.69,11.69,0,0,0,3.76-3.15,14,14,0,0,0,2.31-4.42,16.47,16.47,0,0,0,.78-5,15.91,15.91,0,0,0-.84-5.14,14.17,14.17,0,0,0-2.37-4.39,11.33,11.33,0,0,0-3.75-3,11.75,11.75,0,0,0-10.14.06,11.33,11.33,0,0,0-3.76,3.12,14.11,14.11,0,0,0-2.28,4.39A16.42,16.42,0,0,0,1693.08,1456.62Z"/><path class="cls-4" d="M1762.18,1446.86a9.74,9.74,0,0,0-1.47-1.1,18.26,18.26,0,0,0-2.6-1.36,22.8,22.8,0,0,0-3.33-1.13,14.8,14.8,0,0,0-3.63-.46,8.18,8.18,0,0,0-4.92,1.21,4,4,0,0,0-1.61,3.41,3.53,3.53,0,0,0,.6,2.11A5.23,5.23,0,0,0,1747,1451a15,15,0,0,0,2.92,1.16c1.18.35,2.53.71,4.08,1.1q3,.81,5.46,1.73a15.15,15.15,0,0,1,4.16,2.31,9.74,9.74,0,0,1,2.63,3.33,11.1,11.1,0,0,1,.92,4.76,11.91,11.91,0,0,1-1.24,5.63,10.5,10.5,0,0,1-3.35,3.79,14.64,14.64,0,0,1-4.86,2.11,24.48,24.48,0,0,1-5.75.66,30.63,30.63,0,0,1-9.12-1.39,28.19,28.19,0,0,1-8.1-3.92l3.53-6.88a11,11,0,0,0,1.88,1.36,27.68,27.68,0,0,0,3.21,1.68,24.9,24.9,0,0,0,4.1,1.41,18.28,18.28,0,0,0,4.62.58q6.59,0,6.59-4.22a3.45,3.45,0,0,0-.75-2.25,6.45,6.45,0,0,0-2.14-1.62,20.72,20.72,0,0,0-3.35-1.27c-1.31-.39-2.78-.81-4.4-1.27a37.2,37.2,0,0,1-5.11-1.77,13.24,13.24,0,0,1-3.61-2.25,8.58,8.58,0,0,1-2.17-3,10.48,10.48,0,0,1-.72-4.08,12.73,12.73,0,0,1,1.16-5.54,11.28,11.28,0,0,1,3.2-4.05,14.56,14.56,0,0,1,4.77-2.45,19.68,19.68,0,0,1,5.84-.84,22.57,22.57,0,0,1,8,1.36,29.75,29.75,0,0,1,6.36,3.2Z"/><path class="cls-4" d="M1824.64,1446.86a10,10,0,0,0-1.48-1.1,17.73,17.73,0,0,0-2.6-1.36,23.07,23.07,0,0,0-3.32-1.13,14.88,14.88,0,0,0-3.64-.46,8.17,8.17,0,0,0-4.91,1.21,4,4,0,0,0-1.62,3.41,3.47,3.47,0,0,0,.61,2.11,5.13,5.13,0,0,0,1.76,1.47,14.52,14.52,0,0,0,2.92,1.16c1.17.35,2.53.71,4.07,1.1,2,.54,3.83,1.12,5.46,1.73a14.87,14.87,0,0,1,4.16,2.31,9.63,9.63,0,0,1,2.63,3.33,11,11,0,0,1,.93,4.76,11.79,11.79,0,0,1-1.25,5.63,10.32,10.32,0,0,1-3.35,3.79,14.49,14.49,0,0,1-4.85,2.11,24.54,24.54,0,0,1-5.75.66,30.74,30.74,0,0,1-9.13-1.39,28.26,28.26,0,0,1-8.09-3.92l3.53-6.88a10.81,10.81,0,0,0,1.87,1.36,29.41,29.41,0,0,0,3.21,1.68,25.23,25.23,0,0,0,4.1,1.41,18.42,18.42,0,0,0,4.63.58q6.59,0,6.58-4.22a3.45,3.45,0,0,0-.75-2.25,6.25,6.25,0,0,0-2.14-1.62,20,20,0,0,0-3.35-1.27c-1.31-.39-2.77-.81-4.39-1.27a36.73,36.73,0,0,1-5.11-1.77,13.08,13.08,0,0,1-3.61-2.25,8.33,8.33,0,0,1-2.17-3,10.48,10.48,0,0,1-.72-4.08,12.73,12.73,0,0,1,1.15-5.54,11.2,11.2,0,0,1,3.21-4.05,14.56,14.56,0,0,1,4.77-2.45,19.61,19.61,0,0,1,5.83-.84,22.58,22.58,0,0,1,8,1.36,29.67,29.67,0,0,1,6.35,3.2Z"/><path class="cls-4" d="M1841.28,1477.13v-8.32h6.35v8.32Z"/><path class="cls-4" d="M1873.46,1436.11h7l15.6,41h-8.21l-3.81-10.23h-14.33l-3.76,10.23h-8.2Zm9.18,25.19-5.66-16.12-5.89,16.12Z"/><path class="cls-4" d="M1906.27,1477.13v-8.32h6.36v8.32Z"/><path class="cls-4" d="M1951.23,1446.86a10,10,0,0,0-1.48-1.1,17.73,17.73,0,0,0-2.6-1.36,23.07,23.07,0,0,0-3.32-1.13,14.94,14.94,0,0,0-3.64-.46,8.15,8.15,0,0,0-4.91,1.21,4,4,0,0,0-1.62,3.41,3.47,3.47,0,0,0,.61,2.11A5.13,5.13,0,0,0,1936,1451a14.52,14.52,0,0,0,2.92,1.16c1.17.35,2.53.71,4.07,1.1q3,.81,5.46,1.73a15,15,0,0,1,4.16,2.31,9.63,9.63,0,0,1,2.63,3.33,11,11,0,0,1,.92,4.76A11.79,11.79,0,0,1,1955,1471a10.41,10.41,0,0,1-3.35,3.79,14.58,14.58,0,0,1-4.85,2.11,24.54,24.54,0,0,1-5.75.66,30.7,30.7,0,0,1-9.13-1.39,28.14,28.14,0,0,1-8.09-3.92l3.53-6.88a10.81,10.81,0,0,0,1.87,1.36,29.41,29.41,0,0,0,3.21,1.68,25.23,25.23,0,0,0,4.1,1.41,18.28,18.28,0,0,0,4.62.58q6.59,0,6.59-4.22a3.45,3.45,0,0,0-.75-2.25,6.25,6.25,0,0,0-2.14-1.62,20,20,0,0,0-3.35-1.27c-1.31-.39-2.77-.81-4.39-1.27A36.73,36.73,0,0,1,1932,1458a13.08,13.08,0,0,1-3.61-2.25,8.33,8.33,0,0,1-2.17-3,10.48,10.48,0,0,1-.72-4.08,12.73,12.73,0,0,1,1.15-5.54,11.2,11.2,0,0,1,3.21-4.05,14.46,14.46,0,0,1,4.77-2.45,19.61,19.61,0,0,1,5.83-.84,22.49,22.49,0,0,1,8,1.36,29.52,29.52,0,0,1,6.36,3.2Z"/></g></g></svg>