<svg id="Capa_1" data-name="Capa 1" xmlns="http://www.w3.org/2000/svg" xmlns:xlink="http://www.w3.org/1999/xlink" viewBox="0 0 1920 807"><defs><style>.cls-1{opacity:0.2;fill:url(#Degradado_sin_nombre_7);}.cls-2{fill:url(#Degradado_sin_nombre_21);}.cls-3{fill:none;stroke:#fff;stroke-miterlimit:10;stroke-width:8px;opacity:0.3;}</style><linearGradient id="Degradado_sin_nombre_7" x1="3145.33" y1="585.92" x2="3335.57" y2="-51.95" gradientTransform="translate(4196 535.29) rotate(180)" gradientUnits="userSpaceOnUse"><stop offset="0" stop-color="#200c9c"/><stop offset="0.45" stop-color="#0c509c"/><stop offset="1" stop-color="#0c2f64"/></linearGradient><linearGradient id="Degradado_sin_nombre_21" x1="960" y1="29.41" x2="960" y2="786.47" gradientUnits="userSpaceOnUse"><stop offset="0" stop-color="#21149f"/><stop offset="1" stop-color="#1e97b6"/></linearGradient></defs><title>Svg Services 30</title><path class="cls-1" d="M0,335.14V202.07S182.43-1.3,952.51-1.3c688.92,0,967.49,306,967.49,306Z"/><path class="cls-2" d="M1920,807.42S1581.53,706.63,973.48,706.63,0,807.42,0,807.42V304.72S155.51.49,952.51.49c844.87,0,967.49,306,967.49,306Z"/><path class="cls-3" d="M294.62,49C408.9,113.88,486,236.69,486,377.5,486,586,317,755,108.5,755A377.68,377.68,0,0,1,0,739.18"/><path class="cls-3" d="M1849.91,800.67A241.45,241.45,0,0,1,1722,587.5c0-124.48,94.18-227,215.18-240.08"/><path class="cls-3" d="M1890,235.72A241.42,241.42,0,0,1,1680.5,357C1547.12,357,1439,248.88,1439,115.5A240.62,240.62,0,0,1,1463.33,9.73"/></svg>