<svg id="Capa_1" data-name="Capa 1" xmlns="http://www.w3.org/2000/svg" xmlns:xlink="http://www.w3.org/1999/xlink" viewBox="0 0 1920 1787"><defs><style>.cls-1{fill:url(#Degradado_sin_nombre_15);}.cls-2{fill:none;stroke:#fff;stroke-miterlimit:10;stroke-width:8px;opacity:0.3;}</style><linearGradient id="Degradado_sin_nombre_15" x1="960" y1="10.41" x2="960" y2="1723.3" gradientUnits="userSpaceOnUse"><stop offset="0" stop-color="#0e51a5"/><stop offset="0.27" stop-color="#1147a4"/><stop offset="0.72" stop-color="#1a2ba1"/><stop offset="1" stop-color="#20179f"/></linearGradient></defs><title>svg_contact_30</title><path class="cls-1" d="M0-.17S178.94,415.89,948.47,415.89,1920-.17,1920-.17V1787H0Z"/><path class="cls-2" d="M1927.88,1169a390.29,390.29,0,0,1-87.88,10c-214.84,0-389-174.16-389-389s174.16-389,389-389a390.21,390.21,0,0,1,88.61,10.14"/><path class="cls-2" d="M-7.9,804.82A597.29,597.29,0,0,1,129,789c328.61,0,595,266.39,595,595,0,160.08-63.22,305.4-166,412.35"/></svg>