<svg id="Capa_1" data-name="Capa 1" xmlns="http://www.w3.org/2000/svg" xmlns:xlink="http://www.w3.org/1999/xlink" viewBox="0 0 1920 767"><defs><style>.cls-1{fill:url(#Degradado_sin_nombre_23);}.cls-2{fill:#094f9b;}.cls-3{fill:#2690cf;}.cls-4{fill:#90d2ef;}</style><linearGradient id="Degradado_sin_nombre_23" x1="710.9" y1="1219.87" x2="946.6" y2="429.59" gradientUnits="userSpaceOnUse"><stop offset="0" stop-color="#0c509c"/><stop offset="0.98" stop-color="#0c2f64"/></linearGradient></defs><title>Svg Home 10</title><path class="cls-1" d="M.5,767.16V.5S719.8,911.35,1920,463.05V767.16Z"/><path class="cls-2" d="M247.47,232.46C153.42,265.58,85.82,355.33,85.82,460.56c0,133.29,108.44,241.73,241.73,241.73S569.28,593.85,569.28,460.56h9.84c0,138.72-112.85,251.57-251.57,251.57S76,599.28,76,460.56c0-107.28,67.51-199.1,162.28-235.19Z"/><path class="cls-3" d="M327.55,736.7c-152.26,0-276.14-123.87-276.14-276.14A276.82,276.82,0,0,1,191.74,220.08l4.84,8.55A267,267,0,0,0,61.24,460.56c0,146.85,119.47,266.31,266.31,266.31S593.86,607.41,593.86,460.56h9.84C603.7,612.83,479.82,736.7,327.55,736.7Z"/><path class="cls-4" d="M327.55,762.16c-166.3,0-301.6-135.3-301.6-301.6A301.32,301.32,0,0,1,67.8,307.2l8.46,5A291.49,291.49,0,0,0,35.78,460.56c0,160.88,130.89,291.77,291.77,291.77S619.32,621.44,619.32,460.56h9.84C629.16,626.86,493.86,762.16,327.55,762.16Z"/></svg>