<svg id="Capa_1" data-name="Capa 1" xmlns="http://www.w3.org/2000/svg" xmlns:xlink="http://www.w3.org/1999/xlink" viewBox="0 0 600 400"><defs><style>.cls-1,.cls-3{fill:none;stroke-miterlimit:10;stroke-width:3px;}.cls-1{stroke:#cfdced;}.cls-2{fill:url(#Degradado_sin_nombre_8);}.cls-3{stroke:#fff;opacity:0.3;}.cls-4{fill:#fff;}</style><linearGradient id="Degradado_sin_nombre_8" x1="300" y1="402.51" x2="300" y2="5.1" gradientUnits="userSpaceOnUse"><stop offset="0" stop-color="#22119d"/><stop offset="1" stop-color="#0e51a5"/></linearGradient></defs><title>Modal 0</title><path class="cls-1" d="M188.05-.5c0,34.74-13.35,68.35-35.21,92"/><path class="cls-2" d="M0,19.5s49,81.21,306,81.21S600,19.5,600,19.5v381H0Z"/><path class="cls-3" d="M0,31.79A167,167,0,0,1,53.5,154.5,167,167,0,0,1,0,277.21"/><rect class="cls-4" x="52.5" y="133" width="487" height="228.5" rx="23.06"/><path class="cls-3" d="M320.56,401.5A189,189,0,0,1,601,351.76"/><path class="cls-3" d="M601,214.37A200.75,200.75,0,0,1,523.14,71.18"/><path class="cls-1" d="M572.28-.5A110.44,110.44,0,0,1,477,54,110.44,110.44,0,0,1,381.72-.5"/></svg>