<svg xmlns="http://www.w3.org/2000/svg" viewBox="0 0 1080 1080.74"><defs><style>.cls-1{fill:#fff;}.cls-2{fill:none;stroke:#45cfdd;stroke-miterlimit:10;}.cls-3{fill:#003875;}.cls-4{fill:#45cfdd;}</style></defs><title>Value_svg_adaptabilidad</title><g id="Capa_2" data-name="Capa 2"><g id="Capa_1-2" data-name="Capa 1"><path class="cls-1" d="M540,1080.74c298.23,0,540-241.93,540-540.37S838.23,0,540,0,0,241.93,0,540.37,241.77,1080.74,540,1080.74Z"/><path class="cls-2" d="M981.92,642.85c56.52-244.23-95.51-488.08-339.57-544.64S154.6,193.78,98.08,438s95.5,488.08,339.56,544.65S925.39,887.09,981.92,642.85Z"/><path class="cls-3" d="M233.94,382.82l-2.77,2a16.38,16.38,0,0,0-5.32-4.47,16.81,16.81,0,0,0-6.91-1.49,15.79,15.79,0,0,0-7.66,2,13.71,13.71,0,0,0-5.43,5.33,14.62,14.62,0,0,0-1.91,7.45,13.91,13.91,0,0,0,4.25,10.64,15.33,15.33,0,0,0,10.64,4.15,14.94,14.94,0,0,0,6.67-1.41,15.1,15.1,0,0,0,5.35-4.23l2.77,2.13a17,17,0,0,1-6.49,5,20.5,20.5,0,0,1-8.51,1.82A17.76,17.76,0,0,1,200,393.46a16.59,16.59,0,0,1,5.32-12.66,18.2,18.2,0,0,1,13.19-5.22,19.34,19.34,0,0,1,8.72,1.92A17.43,17.43,0,0,1,233.94,382.82Z"/><path class="cls-3" d="M252.34,384.73A12.33,12.33,0,0,1,262,389a13.11,13.11,0,0,1,3.51,9.16,12.68,12.68,0,0,1-3.72,9.26,13.19,13.19,0,0,1-19,0,13.53,13.53,0,0,1,0-18.42,12.52,12.52,0,0,1,9.57-4.26Zm0,3.2a9,9,0,0,0-3.83.73,9.17,9.17,0,0,0-3.19,2.25,9.93,9.93,0,0,0-2.25,3.36,10,10,0,0,0-.73,4,9.82,9.82,0,0,0,1.38,5.12,9.39,9.39,0,0,0,3.62,3.72,10,10,0,0,0,5,1.28,10.65,10.65,0,0,0,5-1.28,9.87,9.87,0,0,0,3.51-3.72,9.63,9.63,0,0,0,1.38-5.12,10,10,0,0,0-.73-4,9.9,9.9,0,0,0-2.24-3.36,9.31,9.31,0,0,0-3.14-2.24A9.08,9.08,0,0,0,252.34,387.93Z"/><path class="cls-3" d="M271.6,385.37h3.29V390a12.61,12.61,0,0,1,4.37-3.94,10.75,10.75,0,0,1,5.21-1.28,8.74,8.74,0,0,1,8.3,5.33,21.15,21.15,0,0,1,1.06,7.66v13.09h-3.3V398.68a23,23,0,0,0,0-5.86A6.14,6.14,0,0,0,288.4,389a6.53,6.53,0,0,0-4.25-1.27,8.4,8.4,0,0,0-5.32,1.91,10.7,10.7,0,0,0-3.09,4.9,34.79,34.79,0,0,0,0,6.92v9.36h-3.29Z"/><path class="cls-3" d="M303.62,375.9h3.29v9.47h5.22v2.77h-5.22v22.67h-3.29V388.14h-3.94v-2.77h4.47Z"/><path class="cls-3" d="M342.23,385.37v25.44H339v-4.36a14.26,14.26,0,0,1-4.68,3.73,12.19,12.19,0,0,1-5.53,1.27,12.35,12.35,0,0,1-9.26-3.93,13.3,13.3,0,0,1,.11-18.95A13.07,13.07,0,0,1,334.57,386a13.43,13.43,0,0,1,4.47,4v-4.68Zm-13.08,2.45a9,9,0,0,0-5,1.38,9.73,9.73,0,0,0-3.72,3.73,11.58,11.58,0,0,0-1.39,5.22,10.6,10.6,0,0,0,1.39,5.1,11.48,11.48,0,0,0,3.72,3.84,9.93,9.93,0,0,0,10.1,0,9.6,9.6,0,0,0,3.73-3.72,10.65,10.65,0,0,0-8.83-15.55Z"/><path class="cls-3" d="M349.68,385.37h3.19v4.37a13.62,13.62,0,0,1,3.51-3.51,9.88,9.88,0,0,1,8.73-.86,9,9,0,0,1,2.76,2,10.67,10.67,0,0,1,1.81,3.41,12.19,12.19,0,0,1,4-4.57,9.39,9.39,0,0,1,5.32-1.5,8.25,8.25,0,0,1,4.58,1.28,7.9,7.9,0,0,1,3,3.73,17.52,17.52,0,0,1,1.07,7.13v13.94h-2.87V396.87a22.3,22.3,0,0,0-.53-5.64,5.7,5.7,0,0,0-2-2.45,5.8,5.8,0,0,0-3.4-1,7.12,7.12,0,0,0-4.25,1.49A6.71,6.71,0,0,0,371.7,393a22.2,22.2,0,0,0-1,7.77v10h-3.29V398a25.09,25.09,0,0,0-.54-6.17,5.07,5.07,0,0,0-2-2.67,5.81,5.81,0,0,0-3.4-1.06,8.1,8.1,0,0,0-4.26,1.38,8.52,8.52,0,0,0-2.87,3.73,20.29,20.29,0,0,0-1,7.13V411h-3.29Z"/><path class="cls-3" d="M406.7,384.73a12.64,12.64,0,0,1,5.32,1,12.45,12.45,0,0,1,4.36,3.21,13.11,13.11,0,0,1,3.51,9.16,12.68,12.68,0,0,1-3.72,9.26,13.16,13.16,0,0,1-19,0,12.46,12.46,0,0,1-2.81-4.25,12.83,12.83,0,0,1-.92-5,13.12,13.12,0,0,1,3.52-9.16,12.57,12.57,0,0,1,4.41-3.22A12.7,12.7,0,0,1,406.7,384.73Zm0,3.2a9.23,9.23,0,0,0-7,3,10,10,0,0,0-3,7.34,9.82,9.82,0,0,0,1.38,5.12,9.39,9.39,0,0,0,3.62,3.72,9.73,9.73,0,0,0,5,1.28,9.51,9.51,0,0,0,4.89-1.28,9.32,9.32,0,0,0,3.62-3.72A9.77,9.77,0,0,0,416.7,398a10,10,0,0,0-3-7.35,9.21,9.21,0,0,0-7-2.76Z"/><path class="cls-3" d="M438.72,388.14l-2,2.13a7.75,7.75,0,0,0-5.21-2.55,3.87,3.87,0,0,0-2.66,1.06,3.16,3.16,0,0,0-1.17,2.45,3.49,3.49,0,0,0,1,2.34,12,12,0,0,0,3.93,2.77,14,14,0,0,1,4.9,3.62,7,7,0,0,1,1.38,4,7.48,7.48,0,0,1-.57,2.89,7.28,7.28,0,0,1-1.67,2.43,7.72,7.72,0,0,1-5.53,2.13,9.05,9.05,0,0,1-4.15-.95,9.4,9.4,0,0,1-3.4-2.66l2.13-2.34a7.23,7.23,0,0,0,2.34,2,7.06,7.06,0,0,0,3,.85,4.59,4.59,0,0,0,3.3-1.28,3.78,3.78,0,0,0,1.38-3,4.44,4.44,0,0,0-.85-2.56,17.57,17.57,0,0,0-4.15-2.66,12.47,12.47,0,0,1-4.68-3.51,6.43,6.43,0,0,1-1.28-3.94,6.19,6.19,0,0,1,.48-2.62,6.28,6.28,0,0,1,1.54-2.17,6.8,6.8,0,0,1,2.3-1.47,6.91,6.91,0,0,1,2.7-.45,9.86,9.86,0,0,1,7,3.41Z"/><path class="cls-3" d="M482.45,390.59l-2.56,1.7A11.37,11.37,0,0,0,463,390.8a9.71,9.71,0,0,0-3.09,7.24,10.8,10.8,0,0,0,5.32,9,12,12,0,0,0,5.54,1.38,10.56,10.56,0,0,0,9.14-4.47l2.56,1.71a12,12,0,0,1-4.9,4.25,15.87,15.87,0,0,1-6.91,1.49,13.46,13.46,0,0,1-5.4-.89,13.6,13.6,0,0,1-4.6-2.94,12.35,12.35,0,0,1-3-4.25,12.48,12.48,0,0,1-1-5.12,12.81,12.81,0,0,1,1.91-6.81,12.2,12.2,0,0,1,5.11-5,14.77,14.77,0,0,1,7.23-1.71,15,15,0,0,1,4.89.75,12.38,12.38,0,0,1,3.94,2A8.66,8.66,0,0,1,482.45,390.59Z"/><path class="cls-3" d="M500.85,384.73a12.33,12.33,0,0,1,9.68,4.26,13.11,13.11,0,0,1,3.51,9.16,12.68,12.68,0,0,1-3.72,9.26,13.19,13.19,0,0,1-19,0,13.53,13.53,0,0,1,0-18.42,12.52,12.52,0,0,1,9.57-4.26Zm0,3.2a9,9,0,0,0-3.83.73,9.17,9.17,0,0,0-3.19,2.25,9.93,9.93,0,0,0-2.25,3.36,10,10,0,0,0-.73,4,9.82,9.82,0,0,0,1.38,5.12,9.39,9.39,0,0,0,3.62,3.72,10,10,0,0,0,5,1.28,9.56,9.56,0,0,0,8.62-5,10.76,10.76,0,0,0,1.27-5.12,10,10,0,0,0-3-7.34,9.18,9.18,0,0,0-3.13-2.24A9.08,9.08,0,0,0,500.85,387.93Z"/><path class="cls-3" d="M520.11,385.37h3V390a12.67,12.67,0,0,1,4.36-3.94,10.81,10.81,0,0,1,5.22-1.28,8.71,8.71,0,0,1,8.29,5.33,21,21,0,0,1,1.07,7.66v13.09h-3.3V398.68a23,23,0,0,0,0-5.86A6.17,6.17,0,0,0,536.6,389a6.56,6.56,0,0,0-4.26-1.27,8.4,8.4,0,0,0-5.32,1.91,10.7,10.7,0,0,0-3.09,4.9,36.36,36.36,0,0,0,0,6.92v9.36h-3.29Z"/><path class="cls-3" d="M562.13,375.47h3.19v35.34h-3.19Z"/><path class="cls-3" d="M597.55,385.37v25.44h-3.19v-4.36a15,15,0,0,1-4.57,3.73,12.54,12.54,0,0,1-5.64,1.27,12.35,12.35,0,0,1-9.26-3.93,13,13,0,0,1-3.83-9.48,13.34,13.34,0,0,1,1-5.14,13.17,13.17,0,0,1,2.93-4.33,12.45,12.45,0,0,1,4.23-2.87,12.72,12.72,0,0,1,5-1,12.24,12.24,0,0,1,5.64,1.28,13.35,13.35,0,0,1,4.47,4.05v-4.69Zm-13.08,2.45a9.86,9.86,0,0,0-8.62,5.11,10.61,10.61,0,0,0-1.38,5.22,10,10,0,0,0,1.38,5.11,10.72,10.72,0,0,0,3.62,3.83,9.9,9.9,0,0,0,10.64,0,9.64,9.64,0,0,0,3.72-3.72A10.65,10.65,0,0,0,585,387.82Z"/><path class="cls-3" d="M642.77,390.59l-2.56,1.7a11.37,11.37,0,0,0-16.91-1.49,9.71,9.71,0,0,0-3.09,7.24,10.65,10.65,0,0,0,5.32,9,11.74,11.74,0,0,0,5.53,1.38,10.56,10.56,0,0,0,9.15-4.47l2.56,1.71a12.06,12.06,0,0,1-4.9,4.25,16.06,16.06,0,0,1-7,1.49,13.88,13.88,0,0,1-10-3.83,12.85,12.85,0,0,1-2.94-4.27,12.6,12.6,0,0,1-1-5.1,12.81,12.81,0,0,1,1.91-6.81,12.14,12.14,0,0,1,5.11-5,14.77,14.77,0,0,1,7.23-1.71,15,15,0,0,1,4.89.75,13.74,13.74,0,0,1,3.94,2A9.77,9.77,0,0,1,642.77,390.59Z"/><path class="cls-3" d="M674.47,385.37v25.44h-3.3v-4.36a15,15,0,0,1-4.57,3.73,12.54,12.54,0,0,1-5.64,1.27,11.81,11.81,0,0,1-5-1,12,12,0,0,1-4.14-3A13,13,0,0,1,648,398a13,13,0,0,1,3.83-9.47A12.45,12.45,0,0,1,656,385.7a12.72,12.72,0,0,1,5-1A12.24,12.24,0,0,1,666.7,386a13.35,13.35,0,0,1,4.47,4.05v-4.69Zm-13.09,2a9.64,9.64,0,0,0-5.1,1.39,9.35,9.35,0,0,0-3.62,3.73,10.64,10.64,0,0,0,8.62,15.86,10.52,10.52,0,0,0,5.1-1.39,9.73,9.73,0,0,0,3.73-3.72,10.66,10.66,0,0,0-1.6-12.57,10,10,0,0,0-7.13-3.3Z"/><path class="cls-3" d="M681.81,385.37h3.3v4.69a13.35,13.35,0,0,1,4.47-4.05,12.23,12.23,0,0,1,5.63-1.28,12.76,12.76,0,0,1,5,1,12.45,12.45,0,0,1,4.23,2.87A13,13,0,0,1,708.3,398a13,13,0,0,1-3.83,9.48,12.3,12.3,0,0,1-4.15,3,12.12,12.12,0,0,1-5,1,12.54,12.54,0,0,1-5.64-1.27,14.85,14.85,0,0,1-4.57-3.73v13.63h-3.3Zm13.09,2.45a9.86,9.86,0,0,0-3.87.76,10,10,0,0,0-3.26,2.22,10.66,10.66,0,0,0-1.6,12.57,9.64,9.64,0,0,0,3.72,3.72,10.66,10.66,0,0,0,5.11,1.38,10,10,0,0,0,4.89-1.38,10.64,10.64,0,0,0,3.73-3.84,10,10,0,0,0,1.38-5.1,10.61,10.61,0,0,0-1.38-5.22A9.41,9.41,0,0,0,700,389.2a9.81,9.81,0,0,0-5.1-1.81Z"/><path class="cls-3" d="M739.79,385.37v25.44h-3.2v-4.36a15.4,15.4,0,0,1-4.68,3.73,13,13,0,0,1-10.57.29,12.3,12.3,0,0,1-4.21-3,12.92,12.92,0,0,1-2.9-4.35,12.69,12.69,0,0,1-.93-5.13,13,13,0,0,1,3.83-9.47,12.4,12.4,0,0,1,19.46,1.49v-4.69Zm-13.09,2.45a9,9,0,0,0-5,1.39,9.64,9.64,0,0,0-3.72,3.72,10.5,10.5,0,0,0-1.38,5.22,10,10,0,0,0,1.38,5.11,10,10,0,0,0,13.83,3.83,9.39,9.39,0,0,0,3.62-3.72,10.56,10.56,0,0,0-1.6-12.57,9.63,9.63,0,0,0-3.2-2.46,9.75,9.75,0,0,0-3.93-.95Z"/><path class="cls-3" d="M771.81,390.59l-2.55,1.7a11.38,11.38,0,0,0-16.92-1.49,9.66,9.66,0,0,0-3.08,7.24,11,11,0,0,0,1.38,5.21,10.52,10.52,0,0,0,3.94,3.84,11.71,11.71,0,0,0,5.53,1.38,10.59,10.59,0,0,0,9.15-4.47l2.55,1.71a12.74,12.74,0,0,1-4.9,4.25,16,16,0,0,1-7,1.49,13.88,13.88,0,0,1-10-3.83,12.42,12.42,0,0,1-2.73-4.42,12.23,12.23,0,0,1-.67-5.16,13.87,13.87,0,0,1,1.81-6.81,13.45,13.45,0,0,1,5.1-5,16.6,16.6,0,0,1,12.24-1,13.84,13.84,0,0,1,3.93,2A9.66,9.66,0,0,1,771.81,390.59Z"/><path class="cls-3" d="M779.25,374.83a2.91,2.91,0,0,1,1,.23,2.82,2.82,0,0,1,.87.62,2.77,2.77,0,0,1,.7,1.37,2.64,2.64,0,0,1-.17,1.52,2.57,2.57,0,0,1-1,1.18,2.66,2.66,0,0,1-2.93,0,2.67,2.67,0,0,1-1.15-2.7,2.69,2.69,0,0,1,.7-1.37,2.82,2.82,0,0,1,.87-.62A2.86,2.86,0,0,1,779.25,374.83Zm-1.59,10.65h3.19v25.44h-3.19Z"/><path class="cls-3" d="M813.08,375.47v35.34h-2.76v-4.36a15.4,15.4,0,0,1-4.68,3.73,12.61,12.61,0,0,1-14.79-2.66A13,13,0,0,1,787,398a13.13,13.13,0,0,1,8.1-12.32,13.11,13.11,0,0,1,5.09-1,12.49,12.49,0,0,1,5.64,1.28,13.45,13.45,0,0,1,4.47,4.05V375.47Zm-13.4,11.92a9.1,9.1,0,0,0-5,1.39,9.6,9.6,0,0,0-3.72,3.73,11.44,11.44,0,0,0-1.38,5.21,10.26,10.26,0,0,0,10.1,10.33,11.44,11.44,0,0,0,10.64-10,10,10,0,0,0-.73-4,10.22,10.22,0,0,0-2.25-3.37,9.72,9.72,0,0,0-7.66-3.3Z"/><path class="cls-3" d="M845.85,385.37v25.44h-3.62v-4.36a15.4,15.4,0,0,1-4.68,3.73,12.6,12.6,0,0,1-14.78-2.66,12.92,12.92,0,0,1-2.9-4.35,12.69,12.69,0,0,1-.93-5.13,13,13,0,0,1,3.83-9.47,12.4,12.4,0,0,1,19.46,1.49v-4.69Zm-13.09,2.45a9,9,0,0,0-5,1.39,9.66,9.66,0,0,0-3.73,3.72,10.61,10.61,0,0,0-1.38,5.22,10,10,0,0,0,1.38,5.11,10.69,10.69,0,0,0,3.73,3.83,9.93,9.93,0,0,0,10.1,0,9.32,9.32,0,0,0,3.62-3.72,10.56,10.56,0,0,0-1.6-12.57,9.63,9.63,0,0,0-3.2-2.46,9.75,9.75,0,0,0-3.93-.95Z"/><path class="cls-3" d="M878.62,375.47v35.34h-3.3v-4.36a13.8,13.8,0,0,1-4.58,3.73,12.47,12.47,0,0,1-5.63,1.27,12.19,12.19,0,0,1-9.15-3.93,12.92,12.92,0,0,1-2.9-4.35,12.69,12.69,0,0,1-.93-5.13,13,13,0,0,1,3.83-9.47A13.28,13.28,0,0,1,871,386a14.17,14.17,0,0,1,4.36,4.05V375.47Zm-13.09,11.92a9.73,9.73,0,0,0-5.11,1.39,9.39,9.39,0,0,0-3.61,3.73,10.44,10.44,0,0,0-1.38,5.21,10,10,0,0,0,1.38,5.11,10.51,10.51,0,0,0,3.72,3.83,9.69,9.69,0,0,0,10,0,8.86,8.86,0,0,0,3.73-3.72,10.64,10.64,0,0,0-1.6-12.56,9.94,9.94,0,0,0-3.26-2.22A10.08,10.08,0,0,0,865.53,387.39Z"/><path class="cls-3" d="M211.28,447.76V483.2H208v-4.36a14.89,14.89,0,0,1-4.58,3.73,12.74,12.74,0,0,1-14.78-2.66,13.29,13.29,0,0,1-2.89-4.4,13.14,13.14,0,0,1-.94-5.18,13,13,0,0,1,1-5.08,13,13,0,0,1,17.87-6.85,13.1,13.1,0,0,1,4.36,4.05V447.86Zm-13.09,12.35a9.6,9.6,0,0,0-5.11,1.38,9.36,9.36,0,0,0-3.61,3.72,10.12,10.12,0,0,0-1.39,5.12,10.63,10.63,0,0,0,5.11,9,10,10,0,0,0,5,1.28,10.65,10.65,0,0,0,5-1.28,9.64,9.64,0,0,0,3.72-3.72,11,11,0,0,0-1.59-12.57,9.37,9.37,0,0,0-3.25-2.24A9.24,9.24,0,0,0,198.19,460.11Z"/><path class="cls-3" d="M240.11,474.58l2.76,1.49a15.34,15.34,0,0,1-3.19,4.26,12.5,12.5,0,0,1-4,2.56,14.21,14.21,0,0,1-5,.85,11.91,11.91,0,0,1-9.68-4.15,13.49,13.49,0,0,1-3.51-9.16,13,13,0,0,1,3-8.62,12.15,12.15,0,0,1,10-4.9,12.52,12.52,0,0,1,10.63,5,13.84,13.84,0,0,1,2.77,8.72H221a10.63,10.63,0,0,0,2.87,7.24,8.82,8.82,0,0,0,3.1,2.13,8.73,8.73,0,0,0,3.71.64,10.48,10.48,0,0,0,3.72-.64,8.77,8.77,0,0,0,3.09-1.81A13.77,13.77,0,0,0,240.11,474.58Zm0-6.81a10.05,10.05,0,0,0-1.92-4.15,8.91,8.91,0,0,0-3.3-2.56,10.56,10.56,0,0,0-4.36-.95,9.34,9.34,0,0,0-6.49,2.34,12.71,12.71,0,0,0-3,5.32Z"/><path class="cls-3" d="M284.47,474.58l2.76,1.49a15,15,0,0,1-3.19,4.26,13.26,13.26,0,0,1-3.93,2.56,15.31,15.31,0,0,1-5.11.85,11.83,11.83,0,0,1-5.32-.95,12,12,0,0,1-4.36-3.2,13.53,13.53,0,0,1-3.51-9.16,13.06,13.06,0,0,1,3-8.62,12.12,12.12,0,0,1,10.1-4.9,12.55,12.55,0,0,1,10.64,5,14.56,14.56,0,0,1,2.87,8.72h-23a10.58,10.58,0,0,0,2.87,7.24,8.82,8.82,0,0,0,3.1,2.13,8.73,8.73,0,0,0,3.71.64,10.48,10.48,0,0,0,3.72-.64A9.2,9.2,0,0,0,282,478.2,16.47,16.47,0,0,0,284.47,474.58Zm0-6.81a10.05,10.05,0,0,0-1.92-4.15,9,9,0,0,0-3.29-2.56,10.61,10.61,0,0,0-4.37-.95,9.56,9.56,0,0,0-6.49,2.34,11.59,11.59,0,0,0-2.87,5.32Z"/><path class="cls-3" d="M294.15,457.65h3.3v4.27a13.18,13.18,0,0,1,4.36-3.84,10.62,10.62,0,0,1,5.1-1.38,9.16,9.16,0,0,1,5.11,1.49,8.69,8.69,0,0,1,3.3,3.94,22.32,22.32,0,0,1,1,7.66V483.2h-3.2V471.07a24.76,24.76,0,0,0,0-6,6.17,6.17,0,0,0-2.12-3.73,6.65,6.65,0,0,0-4.26-1.27,8.4,8.4,0,0,0-5.32,1.91,10.6,10.6,0,0,0-3.08,4.9,33.34,33.34,0,0,0,0,6.92v9.36H295Z"/><path class="cls-3" d="M333.83,447.76V451a9.91,9.91,0,0,0-3.09-.74,2.54,2.54,0,0,0-1.59,0,1.57,1.57,0,0,0-.85.85,14.77,14.77,0,0,0,0,2.66v3.51h5.32V460H328.3v23.2H325V460.53h-3.4v-2.77H325v-4a8.58,8.58,0,0,1,0-3.84,3.37,3.37,0,0,1,1.7-1.91,4.79,4.79,0,0,1,2.87-.75A14.24,14.24,0,0,1,333.83,447.76Z"/><path class="cls-3" d="M337.13,457.66h3.29v4.26a11.7,11.7,0,0,1,3.2-3.3,6.09,6.09,0,0,1,3.51-1.18,5.81,5.81,0,0,1,2.87,1l-1.7,2.77a4.87,4.87,0,0,0-1.71-.53,4.77,4.77,0,0,0-3.18,1.38,7.82,7.82,0,0,0-2.35,4.15,39.14,39.14,0,0,0-.64,8.84v8.19h-3.29Z"/><path class="cls-3" d="M374.15,474.58l2.76,1.49a13.25,13.25,0,0,1-3.08,4.26,12.78,12.78,0,0,1-4,2.56,15.22,15.22,0,0,1-5,.85,12.15,12.15,0,0,1-9.79-4.15,13.83,13.83,0,0,1-.53-17.78,12.41,12.41,0,0,1,10.1-4.9,12.62,12.62,0,0,1,10.64,5,13.84,13.84,0,0,1,2.77,8.72H355.11a10.63,10.63,0,0,0,2.87,7.24,8.49,8.49,0,0,0,3,2.11,8.6,8.6,0,0,0,3.65.66,11.88,11.88,0,0,0,3.83-.64,9.66,9.66,0,0,0,3.08-1.81A13.51,13.51,0,0,0,374.15,474.58Zm0-6.81a10.05,10.05,0,0,0-1.92-4.15,8,8,0,0,0-3.3-2.56,9.77,9.77,0,0,0-4.25-.95,9.34,9.34,0,0,0-6.49,2.34,11.55,11.55,0,0,0-3,5.32Z"/><path class="cls-3" d="M383.93,457.65h3.2v4.27a14.45,14.45,0,0,1,4.36-3.84,10.57,10.57,0,0,1,5.21-1.38,8.64,8.64,0,0,1,5,1.49,8,8,0,0,1,3.3,3.94,19.55,19.55,0,0,1,1.06,7.66V483.2h-3.3V471.07a34.89,34.89,0,0,0,0-6,6.92,6.92,0,0,0-2.23-3.73,6.43,6.43,0,0,0-4.15-1.27,8.16,8.16,0,0,0-5.32,1.91,9,9,0,0,0-3.08,4.9,31.48,31.48,0,0,0-.53,6.92v9.36h-3.19Z"/><path class="cls-3" d="M416,448.18h3.19v9.48h5.21v2.76h-5.21V483.2H416V460.53h-4.47v-2.77H416Z"/><path class="cls-3" d="M454.68,457.65V483.2h-3.3v-4.36a15,15,0,0,1-4.57,3.73A12.75,12.75,0,0,1,432,479.91a13.29,13.29,0,0,1-2.89-4.4,13.14,13.14,0,0,1-.94-5.18,13,13,0,0,1,1-5.08A12.81,12.81,0,0,1,432,461a12.48,12.48,0,0,1,4.22-2.93,12.63,12.63,0,0,1,5-1,11.88,11.88,0,0,1,5.64,1.38,12.34,12.34,0,0,1,4.47,4.05v-4.69Zm-13.08,2.46a9.58,9.58,0,0,0-5.11,1.38,9.32,9.32,0,0,0-3.62,3.72,10,10,0,0,0-1.38,5.12,10.57,10.57,0,0,0,1.38,5.21,9.67,9.67,0,0,0,8.62,5.11,10.55,10.55,0,0,0,5.1-1.28,9.66,9.66,0,0,0,3.73-3.72,11,11,0,0,0-1.6-12.57,9.37,9.37,0,0,0-3.25-2.24A9.17,9.17,0,0,0,441.6,460.11Z"/><path class="cls-3" d="M460.75,457.66h3.4v4.26a10.56,10.56,0,0,1,3.08-3.3,6.27,6.27,0,0,1,3.52-1.18,5.81,5.81,0,0,1,2.87,1l-1.71,2.77a4.39,4.39,0,0,0-1.7-.53A5,5,0,0,0,467,462a7.8,7.8,0,0,0-2.34,4.15,40.82,40.82,0,0,0,0,8.84v8.19h-3.4Z"/><path class="cls-3" d="M476.38,457.66h3.3v4.26a13.18,13.18,0,0,1,4.36-3.84,10.71,10.71,0,0,1,5.21-1.38,9.13,9.13,0,0,1,5,1.49,8.57,8.57,0,0,1,3.3,3.94,21.44,21.44,0,0,1,1.07,7.66V483.2h-3.3V471.07a24.76,24.76,0,0,0,0-6,6.19,6.19,0,0,0-2.13-3.73,6.61,6.61,0,0,0-4.25-1.27,8.4,8.4,0,0,0-5.32,1.91,10.62,10.62,0,0,0-3.09,4.9,34.79,34.79,0,0,0,0,6.92v9.36h-3.3Z"/><path class="cls-3" d="M517.66,456.91a12.68,12.68,0,0,1,9.68,4.26,13.42,13.42,0,0,1,3.51,9.26,12.81,12.81,0,0,1-.93,5,13,13,0,0,1-2.79,4.25,13.17,13.17,0,0,1-14.7,3,13,13,0,0,1-4.34-3,13.32,13.32,0,0,1-3.73-9.26,13.09,13.09,0,0,1,3.51-9.15,12.68,12.68,0,0,1,9.79-4.37Zm0,3.2a9.39,9.39,0,0,0-3.84.78,9.54,9.54,0,0,0-3.18,2.3,10.66,10.66,0,0,0-1.6,12.46,8.54,8.54,0,0,0,3.62,3.62,9.75,9.75,0,0,0,10,0,10,10,0,0,0,3.62-3.62,10.67,10.67,0,0,0,1.27-5.22,9.76,9.76,0,0,0-.74-3.92,9.89,9.89,0,0,0-2.24-3.32,9.21,9.21,0,0,0-6.91-3.08Z"/><path class="cls-3" d="M549.68,460.42l-2,2.13a7.75,7.75,0,0,0-5.21-2.55,4,4,0,0,0-2.66,1.06,3.26,3.26,0,0,0-.85,1.1,3.34,3.34,0,0,0-.32,1.35,3.46,3.46,0,0,0,1,2.34,12,12,0,0,0,3.94,2.77,14.09,14.09,0,0,1,4.89,3.62,6.8,6.8,0,0,1,1.38,3.94,7,7,0,0,1-.54,2.9,6.92,6.92,0,0,1-1.69,2.42,7.47,7.47,0,0,1-2.53,1.7,7.32,7.32,0,0,1-3,.54,9.46,9.46,0,0,1-7.45-3.62l2-2.34a7.05,7.05,0,0,0,5.32,2.87,4.68,4.68,0,0,0,1.77-.3,4.46,4.46,0,0,0,1.52-1,3.86,3.86,0,0,0,1-1.34,4,4,0,0,0,.37-1.64,3.69,3.69,0,0,0-.86-2.55,16.88,16.88,0,0,0-4.15-2.66,12.76,12.76,0,0,1-4.68-3.52,6.46,6.46,0,0,1-1.27-3.94,6.63,6.63,0,0,1,.5-2.67,7,7,0,0,1,1.53-2.26,6.75,6.75,0,0,1,2.3-1.45,6.67,6.67,0,0,1,2.69-.43A10.65,10.65,0,0,1,549.68,460.42Z"/><path class="cls-3" d="M594.15,457.66V483.2h-3.3v-4.36a14.89,14.89,0,0,1-4.58,3.73,12.74,12.74,0,0,1-14.78-2.66,13.29,13.29,0,0,1-2.89-4.4,14.32,14.32,0,0,1,0-10.26,13,13,0,0,1,2.87-4.29,12.76,12.76,0,0,1,15-2.56,13,13,0,0,1,4.36,4.05v-4.69Zm-13.09,2.45a9.57,9.57,0,0,0-5.1,1.38,9.32,9.32,0,0,0-3.62,3.72,10,10,0,0,0-1.38,5.12,10.57,10.57,0,0,0,1.38,5.21,9.65,9.65,0,0,0,8.72,5.11,10.73,10.73,0,0,0,5-1.27,9.76,9.76,0,0,0,3.73-3.73,11,11,0,0,0-1.6-12.57,9.37,9.37,0,0,0-3.25-2.24A9.18,9.18,0,0,0,581.06,460.11Z"/><path class="cls-3" d="M614.26,447.76h3.29V483.2h-3.29Z"/><path class="cls-3" d="M636.38,456.91a12.58,12.58,0,0,1,5.31,1.07,12.79,12.79,0,0,1,4.38,3.19,13.46,13.46,0,0,1,3.51,9.26,13,13,0,0,1-.94,5,12.81,12.81,0,0,1-2.79,4.25,13.16,13.16,0,0,1-19,0,13.26,13.26,0,0,1-3.72-9.26,13,13,0,0,1,3.51-9.15,12.68,12.68,0,0,1,9.78-4.37Zm0,3.2a9.39,9.39,0,0,0-3.84.78,9.54,9.54,0,0,0-3.18,2.3,10.64,10.64,0,0,0-1.59,12.46,9.17,9.17,0,0,0,3.61,3.62,9.75,9.75,0,0,0,10,0,9.9,9.9,0,0,0,3.62-3.62,10.84,10.84,0,0,0-1.59-12.46,9.88,9.88,0,0,0-3.2-2.27A9.67,9.67,0,0,0,636.38,460.11Z"/><path class="cls-3" d="M668.51,460.42l-2.13,2.13a7.75,7.75,0,0,0-5.21-2.55,4,4,0,0,0-2.66,1.06,3.26,3.26,0,0,0-.85,1.1,3.34,3.34,0,0,0-.32,1.35,3.51,3.51,0,0,0,1,2.34,11.9,11.9,0,0,0,3.93,2.77,15.87,15.87,0,0,1,5,3.62,6.72,6.72,0,0,1,1.28,3.94,6.87,6.87,0,0,1-.55,2.9,7,7,0,0,1-1.68,2.42,7.42,7.42,0,0,1-2.54,1.7,7.32,7.32,0,0,1-3,.54,9.51,9.51,0,0,1-4.13-.95,9.36,9.36,0,0,1-3.31-2.67l2-2.34a7.14,7.14,0,0,0,2.34,2,7.24,7.24,0,0,0,3,.84,5,5,0,0,0,3.4-1.28,4.33,4.33,0,0,0,1.38-3,3.79,3.79,0,0,0-.95-2.55,17.26,17.26,0,0,0-4.15-2.66,13.51,13.51,0,0,1-4.68-3.52,6.41,6.41,0,0,1-1.28-3.94,6.75,6.75,0,0,1,2-4.93,6.8,6.8,0,0,1,2.29-1.45,6.7,6.7,0,0,1,2.69-.43A10.64,10.64,0,0,1,668.51,460.42Z"/><path class="cls-3" d="M712.23,462.87l-2.66,1.6A11.37,11.37,0,0,0,706,461.4a11.42,11.42,0,0,0-9.24-.76,11.69,11.69,0,0,0-4.06,2.44,9.65,9.65,0,0,0-3,7.25,10.41,10.41,0,0,0,5.21,9.05,12.2,12.2,0,0,0,5.54,1.27,10.63,10.63,0,0,0,9.14-4.47l2.66,1.71a12.84,12.84,0,0,1-4.89,4.36,17,17,0,0,1-7,1.49,13.84,13.84,0,0,1-10-3.83,12.43,12.43,0,0,1-4-9.37,12.74,12.74,0,0,1,1.91-6.82,12.2,12.2,0,0,1,5.11-5,14.81,14.81,0,0,1,7.23-1.81,15.33,15.33,0,0,1,4.89.85,12.58,12.58,0,0,1,3.94,2A10,10,0,0,1,712.23,462.87Z"/><path class="cls-3" d="M743.83,457.66V483.2h-3.19v-4.36a15.44,15.44,0,0,1-4.69,3.73,12,12,0,0,1-5.53,1.27,12.62,12.62,0,0,1-5-1,12.76,12.76,0,0,1-4.22-2.93,13.29,13.29,0,0,1-2.89-4.4,13.14,13.14,0,0,1-.94-5.18,13,13,0,0,1,1-5.08,12.95,12.95,0,0,1,17.86-6.85,12.42,12.42,0,0,1,4.47,4.05v-4.69Zm-13.08,2.45a9,9,0,0,0-5,1.38,9.64,9.64,0,0,0-3.72,3.72,10,10,0,0,0-1.38,5.12,10.59,10.59,0,0,0,5.1,9,10,10,0,0,0,5,1.28,10.6,10.6,0,0,0,5.1-1.28,9.32,9.32,0,0,0,3.62-3.72,10.56,10.56,0,0,0-1.6-12.57,9.36,9.36,0,0,0-3.24-2.25A9.08,9.08,0,0,0,730.75,460.11Z"/><path class="cls-3" d="M751.17,457.66h3.3v4.26a12.78,12.78,0,0,1,3.51-3.63,10.73,10.73,0,0,1,5.21-1.49,10.6,10.6,0,0,1,3.51.75,8.31,8.31,0,0,1,2.66,1.92,9,9,0,0,1,1.81,3.51,12.6,12.6,0,0,1,4.15-4.58,9.38,9.38,0,0,1,5.21-1.6,8.63,8.63,0,0,1,4.68,1.39,7.42,7.42,0,0,1,3,3.73,20,20,0,0,1,1,7.13V483.2h-3.3V469.26a21.42,21.42,0,0,0-.53-5.64,5.74,5.74,0,0,0-2-2.45,6.14,6.14,0,0,0-3.41-1,8.1,8.1,0,0,0-4.36,1.39,8.73,8.73,0,0,0-2.87,3.83,25.45,25.45,0,0,0-.85,7.77v10h-3.3V470.11a26,26,0,0,0-.53-6.28,5.3,5.3,0,0,0-2-2.55,5.43,5.43,0,0,0-3.41-1.07,7.8,7.8,0,0,0-4.25,1.39,8.38,8.38,0,0,0-2.88,3.72,19.05,19.05,0,0,0-.95,7V483h-3.3Z"/><path class="cls-3" d="M796.28,483.2V447.86h3.4v14.06a13.86,13.86,0,0,1,4.57-3.84A12.77,12.77,0,0,1,819,460.75a13.06,13.06,0,0,1,2.86,4.35,13.2,13.2,0,0,1,1,5.12,12.82,12.82,0,0,1-3.83,9.47,12.31,12.31,0,0,1-9.26,3.94,10.67,10.67,0,0,1-5.63-1.38,12.93,12.93,0,0,1-4.47-3.94v4.89Zm13.08-2.55a9.4,9.4,0,0,0,8.73-5.11,9.76,9.76,0,0,0,1.38-5.11,10.85,10.85,0,0,0-1.38-5.22,10.69,10.69,0,0,0-3.73-3.83,10,10,0,0,0-4.89-1.38,10.66,10.66,0,0,0-5.11,1.38,9.73,9.73,0,0,0-3.72,3.73,11,11,0,0,0,1.59,12.56,9.53,9.53,0,0,0,7.13,2.88Z"/><path class="cls-3" d="M829.89,447.12a2.55,2.55,0,0,1,1.05.23,2.67,2.67,0,0,1,.87.62,2.57,2.57,0,0,1,.57.88,2.43,2.43,0,0,1,.17,1,2.23,2.23,0,0,1-.17,1,2.62,2.62,0,0,1-.57.83,2.77,2.77,0,0,1-.87.64,2.54,2.54,0,0,1-3-.64,2.33,2.33,0,0,1-.57-.83,2.39,2.39,0,0,1-.18-1,2.79,2.79,0,0,1,.17-1A2.59,2.59,0,0,1,828,448a2.57,2.57,0,0,1,.87-.62A2.5,2.5,0,0,1,829.89,447.12Zm-1.59,10.64h3.19V483.2H828.3Z"/><path class="cls-3" d="M850.32,456.91a12.93,12.93,0,0,1,9.79,4.26,13.63,13.63,0,0,1,0,18.52,12.49,12.49,0,0,1-9.58,4.05,12.82,12.82,0,0,1-5.22-1,12.68,12.68,0,0,1-4.35-3,13.62,13.62,0,0,1,0-18.41,12.35,12.35,0,0,1,9.36-4.37Zm0,3.2a9.71,9.71,0,0,0-3.83.81,9.49,9.49,0,0,0-3.19,2.27,10.87,10.87,0,0,0-1.6,12.46,9.82,9.82,0,0,0,3.62,3.62,9.75,9.75,0,0,0,10,0,8.54,8.54,0,0,0,3.62-3.62,10.66,10.66,0,0,0-1.6-12.46,9.28,9.28,0,0,0-7-3.08Z"/><path class="cls-3" d="M882.45,460.42l-2.13,2.13a7.44,7.44,0,0,0-2.3-1.79,7.22,7.22,0,0,0-2.81-.76,4.24,4.24,0,0,0-2.76,1.06,3.12,3.12,0,0,0-.8,1.11,3.09,3.09,0,0,0-.27,1.34,4,4,0,0,0,.86,2.34,13,13,0,0,0,3.93,2.77,14.6,14.6,0,0,1,5,3.62,6.72,6.72,0,0,1,1.28,3.94,7.39,7.39,0,0,1-2.13,5.32,7.56,7.56,0,0,1-2.54,1.68,7.69,7.69,0,0,1-3,.56,10,10,0,0,1-4.25-1,10.76,10.76,0,0,1-3.3-2.66l2-2.34a7.23,7.23,0,0,0,5.32,2.87,4.79,4.79,0,0,0,3.41-1.28,4,4,0,0,0,1.38-3,3.8,3.8,0,0,0-1-2.55,14.16,14.16,0,0,0-4-2.66,11.78,11.78,0,0,1-4.68-3.52,6.76,6.76,0,0,1,3.05-10.3,6.89,6.89,0,0,1,2.69-.45A10.65,10.65,0,0,1,882.45,460.42Z"/><path class="cls-3" d="M891.49,476.71l3.19,1.49L889.89,487l-2.34-1Z"/><path class="cls-3" d="M211.38,547.08l2.77,1.49a15,15,0,0,1-3.19,4.26,13.81,13.81,0,0,1-3.94,2.55,14.82,14.82,0,0,1-5.11.85,11.87,11.87,0,0,1-9.68-4.15,13.94,13.94,0,0,1-.53-17.88,13.55,13.55,0,0,1,21.28.21,13.54,13.54,0,0,1,2.87,8.62H193a10.65,10.65,0,0,0,2.76,7.35,9.41,9.41,0,0,0,6.81,2.77,10.8,10.8,0,0,0,3.73-.64,9.2,9.2,0,0,0,3.19-1.81A14,14,0,0,0,211.38,547.08Zm0-6.81a10.61,10.61,0,0,0-1.91-4.26,10,10,0,0,0-3.3-2.45,10.77,10.77,0,0,0-4.36-1,9.28,9.28,0,0,0-6.39,2.34,10.64,10.64,0,0,0-3,5.33Z"/><path class="cls-3" d="M221.06,529.83h3.3v4.58a15.34,15.34,0,0,1,4.36-3.94,10.79,10.79,0,0,1,5.22-1.28,9.18,9.18,0,0,1,5,1.49,8.66,8.66,0,0,1,3.29,3.94,21.34,21.34,0,0,1,1.07,7.56v13.1H240V543.14a23.86,23.86,0,0,0,0-5.85,6,6,0,0,0-2.13-3.73,6.56,6.56,0,0,0-4.25-1.28,8.41,8.41,0,0,0-5.32,1.92,9.86,9.86,0,0,0-3.09,4.9,34.79,34.79,0,0,0,0,6.92v9.26h-3.3Z"/><path class="cls-3" d="M253.08,520.47h3.3v9.36h5.22v2.88h-5.22v22.57h-3.3V532.71h-4.46v-2.88h4.46Z"/><path class="cls-3" d="M287.87,547.08l2.77,1.49a14.64,14.64,0,0,1-3.09,4.26,14.31,14.31,0,0,1-4,2.55,14.72,14.72,0,0,1-5,.85,12.1,12.1,0,0,1-9.79-4.15,13.56,13.56,0,0,1-3.51-9.15,14.14,14.14,0,0,1,3-8.73,12.29,12.29,0,0,1,10.64-4.79,12.68,12.68,0,0,1,10.64,5,13.53,13.53,0,0,1,2.76,8.62H269.36a10.65,10.65,0,0,0,2.87,7.35,9.14,9.14,0,0,0,6.71,2.77,12.21,12.21,0,0,0,3.83-.64,9.77,9.77,0,0,0,3.08-1.81A13.7,13.7,0,0,0,287.87,547.08Zm0-6.81A10.61,10.61,0,0,0,286,536a9.06,9.06,0,0,0-3.3-2.45,9.94,9.94,0,0,0-4.26-1,9.43,9.43,0,0,0-6.49,2.34,10.64,10.64,0,0,0-3,5.33Z"/><path class="cls-3" d="M297.55,529.83h3.3v4.58a16.71,16.71,0,0,1,4.36-3.94,10.79,10.79,0,0,1,5.22-1.28,8.83,8.83,0,0,1,5,1.49,8,8,0,0,1,3.29,3.94,19.28,19.28,0,0,1,1.07,7.56v13.1h-3.3V543.14a33.62,33.62,0,0,0,0-5.85,6.08,6.08,0,0,0-6.38-5,8,8,0,0,0-5.32,1.92,8.68,8.68,0,0,0-3.09,4.9,32,32,0,0,0,0,6.92v9.26h-3.3Z"/><path class="cls-3" d="M352.23,520v35.24h-3.29v-4.37a14,14,0,0,1-4.58,3.83,12.8,12.8,0,0,1-14.89-2.66,13.73,13.73,0,0,1-3.73-9.58,12.91,12.91,0,0,1,3.83-9.36,12.37,12.37,0,0,1,9.26-3.95,10.72,10.72,0,0,1,5.64,1.39,13.11,13.11,0,0,1,4.47,3.94V520Zm-13.08,12.35A10.25,10.25,0,0,0,329,542.61a10.65,10.65,0,0,0,1.38,5.21,9.48,9.48,0,0,0,3.62,3.73,9.89,9.89,0,0,0,10.11,0,8.67,8.67,0,0,0,3.72-3.62,10.66,10.66,0,0,0,1.28-5.21,10,10,0,0,0-2.87-7.35,9.48,9.48,0,0,0-7.13-3Z"/><path class="cls-3" d="M360.74,519.4a2.71,2.71,0,0,1,1.52.43,2.66,2.66,0,0,1,1,1.21,2.6,2.6,0,0,1,.15,1.56,2.7,2.7,0,0,1-.76,1.38,2.62,2.62,0,0,1-.87.64,2.5,2.5,0,0,1-1.05.22,2.54,2.54,0,0,1-1.05-.22,2.58,2.58,0,0,1-.86-.64,2.66,2.66,0,0,1-.61-2.94,2.66,2.66,0,0,1,1-1.21A2.7,2.7,0,0,1,360.74,519.4Zm-1.59,10.65h3.19v25.44h-3.19Z"/><path class="cls-3" d="M390.64,547.08l2.66,1.49a14.64,14.64,0,0,1-3.09,4.26,12.7,12.7,0,0,1-4.18,2.61,12.57,12.57,0,0,1-4.86.79,11.87,11.87,0,0,1-9.68-4.15A13.94,13.94,0,0,1,371,534.2a12,12,0,0,1,10-4.79,12.46,12.46,0,0,1,5.94,1.18,12.63,12.63,0,0,1,4.7,3.82,13.53,13.53,0,0,1,2.76,8.62H371.49a10.65,10.65,0,0,0,2.87,7.35,9.08,9.08,0,0,0,3.07,2.08,9.23,9.23,0,0,0,3.63.69,10.6,10.6,0,0,0,3.83-.64A9.82,9.82,0,0,0,388,550.7,16.56,16.56,0,0,0,390.64,547.08Zm0-6.81a14.49,14.49,0,0,0-1.92-4.26,10.55,10.55,0,0,0-3.4-2.45,9.65,9.65,0,0,0-4.26-1,9.39,9.39,0,0,0-6.48,2.34,12,12,0,0,0-3,5.33Z"/><path class="cls-3" d="M400.32,529.83h3.19v4.58a16.55,16.55,0,0,1,4.36-3.94,10.79,10.79,0,0,1,5.22-1.28,9.32,9.32,0,0,1,5.1,1.49,7.74,7.74,0,0,1,3.19,3.94,19.28,19.28,0,0,1,1.07,7.56v13.1h-3.3V543.14a33.62,33.62,0,0,0,0-5.85,6.37,6.37,0,0,0-2.13-3.73,6.94,6.94,0,0,0-4.25-1.28,8.2,8.2,0,0,0-5.32,1.92,9.25,9.25,0,0,0-3.09,4.9,32.05,32.05,0,0,0-.53,6.92v9.26h-3.19Z"/><path class="cls-3" d="M454.89,520v35.24h-3.3v-4.37a12.69,12.69,0,0,1-19.36,1.17,13.3,13.3,0,0,1-3.83-9.58,13,13,0,0,1,1-5.07,13.13,13.13,0,0,1,2.87-4.3,12.54,12.54,0,0,1,4.21-3,12.37,12.37,0,0,1,5.05-1,11.6,11.6,0,0,1,5.74,1.39,13.49,13.49,0,0,1,4.36,3.94V520Zm-13.08,12.35a9.67,9.67,0,0,0-5.11,1.38,9.48,9.48,0,0,0-3.62,3.73,9.76,9.76,0,0,0-1.38,5.11,10.76,10.76,0,0,0,1.38,5.21,9.69,9.69,0,0,0,3.73,3.73,9.08,9.08,0,0,0,5,1.39,9.6,9.6,0,0,0,5-1.39,8.72,8.72,0,0,0,3.72-3.62,10.56,10.56,0,0,0,1.28-5.21,9.92,9.92,0,0,0-2.88-7.35,9.36,9.36,0,0,0-3.24-2.25A9.56,9.56,0,0,0,441.81,532.39Z"/><path class="cls-3" d="M474.36,529.2a12.71,12.71,0,0,1,9.68,4.25,13.39,13.39,0,0,1,3.51,9.27,12.79,12.79,0,0,1-.93,5,13,13,0,0,1-2.79,4.26,13.16,13.16,0,0,1-19,0,12.89,12.89,0,0,1-3.73-9.26,13.45,13.45,0,0,1,3.52-9.27,13,13,0,0,1,4.43-3.19A12.76,12.76,0,0,1,474.36,529.2Zm0,3.19a9.22,9.22,0,0,0-6.91,3.09,9.72,9.72,0,0,0-2.26,3.3,9.84,9.84,0,0,0-.72,3.94,9.74,9.74,0,0,0,1.38,5.21,8.93,8.93,0,0,0,3.51,3.62,10.68,10.68,0,0,0,5,1.28,9.93,9.93,0,0,0,5-1.28,8.49,8.49,0,0,0,3.62-3.62,10.78,10.78,0,0,0,.66-9.15,9.86,9.86,0,0,0-2.26-3.3,9.11,9.11,0,0,0-3.23-2.32,9.32,9.32,0,0,0-3.89-.77Z"/><path class="cls-3" d="M504.15,529.83h3.4l8.83,19.59,8.41-19.59h3.51l-15.11,34.82h-3.51l4.89-11.29Z"/><path class="cls-3" d="M571.17,529.83v25.45h-3.3v-4.37a14,14,0,0,1-4.57,3.83,12.75,12.75,0,0,1-14.79-2.66,13.3,13.3,0,0,1-3.83-9.58,12.77,12.77,0,0,1,1-5.07,13,13,0,0,1,2.87-4.3,12.44,12.44,0,0,1,4.21-3,12.29,12.29,0,0,1,5-1,10.67,10.67,0,0,1,5.64,1.39,12.93,12.93,0,0,1,4.47,3.94v-4.69Zm-13.08,2.56a9.67,9.67,0,0,0-5.11,1.38,9.41,9.41,0,0,0-3.62,3.73,9.67,9.67,0,0,0-1.38,5.11,10.65,10.65,0,0,0,1.38,5.21,9,9,0,0,0,3.72,3.73,9.14,9.14,0,0,0,5,1.39,9.53,9.53,0,0,0,5-1.39,8.74,8.74,0,0,0,3.73-3.62,10.65,10.65,0,0,0,1.27-5.21,9.68,9.68,0,0,0-.67-4,9.79,9.79,0,0,0-2.2-3.37,9.46,9.46,0,0,0-3.24-2.25A9.56,9.56,0,0,0,558.09,532.39Z"/><path class="cls-3" d="M578.51,529.83h3.3v4.69a13,13,0,0,1,4.46-3.94,10.73,10.73,0,0,1,5.65-1.39,12.29,12.29,0,0,1,5,1,12.44,12.44,0,0,1,4.21,3,13,13,0,0,1,2.87,4.3,12.77,12.77,0,0,1,1,5.07,13.3,13.3,0,0,1-3.83,9.58,12.75,12.75,0,0,1-14.79,2.66,14,14,0,0,1-4.57-3.83v13.74h-3.3Zm13.08,2.56a9.56,9.56,0,0,0-3.88.73,9.46,9.46,0,0,0-3.24,2.25,9.79,9.79,0,0,0-2.2,3.37,10,10,0,0,0-.68,4,10.77,10.77,0,0,0,1.28,5.21,8.74,8.74,0,0,0,3.73,3.62,9.64,9.64,0,0,0,5.1,1.39,10.77,10.77,0,0,0,4.95-1.48,10.07,10.07,0,0,0,5.05-8.85,9.67,9.67,0,0,0-1.38-5.11,9.91,9.91,0,0,0-8.73-5.11Z"/><path class="cls-3" d="M609.89,529.83h3.41v3.73a13.24,13.24,0,0,1,3.08-3.3,7.5,7.5,0,0,1,3.51-1.07,6.92,6.92,0,0,1,2.88.85l-1.7,2.77a4.11,4.11,0,0,0-1.71,0,4.63,4.63,0,0,0-3.19,1.39,8.49,8.49,0,0,0-2.34,4.15,50.19,50.19,0,0,0,0,8.84v8.51h-3.4Z"/><path class="cls-3" d="M646.91,547.08l2.77,1.49a14.45,14.45,0,0,1-3.09,4.26,12.7,12.7,0,0,1-4.18,2.61,12.57,12.57,0,0,1-4.86.79,11.87,11.87,0,0,1-9.68-4.15,13.51,13.51,0,0,1-3.51-9.15,14.1,14.1,0,0,1,2.87-8.73,13.8,13.8,0,0,1,16-3.61,12.55,12.55,0,0,1,4.7,3.82,13.53,13.53,0,0,1,2.76,8.62H627.87a10.65,10.65,0,0,0,2.87,7.35,9.14,9.14,0,0,0,6.71,2.77,11.66,11.66,0,0,0,3.83-.64,9.77,9.77,0,0,0,3.08-1.81A13.7,13.7,0,0,0,646.91,547.08Zm0-6.81A10.61,10.61,0,0,0,645,536a9.06,9.06,0,0,0-3.3-2.45,9.93,9.93,0,0,0-4.25-1,9.44,9.44,0,0,0-6.5,2.34,12.09,12.09,0,0,0-3,5.33Z"/><path class="cls-3" d="M681.38,535.16l-2.66,1.59a10.63,10.63,0,0,0-9.15-4.47,11.21,11.21,0,0,0-7.76,3,10,10,0,0,0-3,7.35,10.54,10.54,0,0,0,1.38,5.21,10,10,0,0,0,3.83,3.73,11.2,11.2,0,0,0,14.68-3.09l2.66,1.71a12.65,12.65,0,0,1-4.89,4.26,15.42,15.42,0,0,1-7,1.59,13.84,13.84,0,0,1-10-3.83,12.68,12.68,0,0,1-4.05-9.37,13.39,13.39,0,0,1,1.92-6.92,14,14,0,0,1,5.11-4.89,15,15,0,0,1,7.23-1.82,19.24,19.24,0,0,1,4.89.75,18,18,0,0,1,4,2A13.63,13.63,0,0,1,681.38,535.16Z"/><path class="cls-3" d="M688.72,519.4a2.52,2.52,0,0,1,1.92.75,2.74,2.74,0,0,1,.72,1.39,2.8,2.8,0,0,1-1.14,2.8,2.76,2.76,0,0,1-1.5.49,2.67,2.67,0,0,1-1.81-.85,2.55,2.55,0,0,1-.63-.86,2.59,2.59,0,0,1-.23-1.06,2.55,2.55,0,0,1,.23-1,2.46,2.46,0,0,1,.63-.86,2.79,2.79,0,0,1,.83-.57A2.54,2.54,0,0,1,688.72,519.4Zm-1.59,10.65h3.29v25.44h-3.29Z"/><path class="cls-3" d="M722.55,529.83v25.45h-3.19v-4.37a14.2,14.2,0,0,1-4.68,3.83,12.07,12.07,0,0,1-5.53,1.28,12.65,12.65,0,0,1-9.26-3.94,13.3,13.3,0,0,1-3.83-9.58,12.77,12.77,0,0,1,1-5.07,13,13,0,0,1,2.87-4.29,12.76,12.76,0,0,1,4.27-3,12.9,12.9,0,0,1,5.09-1,11.42,11.42,0,0,1,5.64,1.39,12.93,12.93,0,0,1,4.47,3.94v-4.69Zm-13.08,2.56a9,9,0,0,0-5,1.38,9.76,9.76,0,0,0-3.73,3.73,10.63,10.63,0,0,0-1.38,5.11,11.69,11.69,0,0,0,1.38,5.21,9.62,9.62,0,0,0,3.73,3.73,9.45,9.45,0,0,0,5,1.39,9.67,9.67,0,0,0,5.1-1.39,8.49,8.49,0,0,0,3.62-3.62,10.67,10.67,0,0,0-1.59-12.56,9.39,9.39,0,0,0-7.13-3Z"/><path class="cls-3" d="M729.89,529.83h3.3v4.58a15.21,15.21,0,0,1,4.36-3.94,10.77,10.77,0,0,1,5.21-1.28,9.1,9.1,0,0,1,5,1.49,8.66,8.66,0,0,1,3.29,3.94,21.34,21.34,0,0,1,1.07,7.56v13.1h-3.3V543.14a35.71,35.71,0,0,0,0-5.85,6.06,6.06,0,0,0-6.49-5A8.41,8.41,0,0,0,737,534.2a9.93,9.93,0,0,0-3.09,4.9,34.79,34.79,0,0,0,0,6.92v9.26h-3.29Z"/><path class="cls-3" d="M784.47,520v35.24h-3.2v-4.37a13.85,13.85,0,0,1-4.57,3.83,12.79,12.79,0,0,1-5.64,1.28,12.65,12.65,0,0,1-9.25-3.94A13.3,13.3,0,0,1,758,542.5a12.56,12.56,0,0,1,1-5.1,13.11,13.11,0,0,1,12.21-8.21,11.44,11.44,0,0,1,5.64,1.39,13,13,0,0,1,4.46,3.94V520Zm-13.09,12.35a9,9,0,0,0-5,1.38,9.73,9.73,0,0,0-3.72,3.73,10.59,10.59,0,0,0-1.28,5.11,11.4,11.4,0,0,0,1.28,5.21,10.63,10.63,0,0,0,3.72,3.73,9.5,9.5,0,0,0,5,1.39,9.68,9.68,0,0,0,5.11-1.39,8.67,8.67,0,0,0,3.72-3.62,10.56,10.56,0,0,0,1.28-5.21,9.82,9.82,0,0,0-2.88-7.35,9.59,9.59,0,0,0-3.3-2.25A9.44,9.44,0,0,0,771.38,532.39Z"/><path class="cls-3" d="M803.94,529.19a13.25,13.25,0,0,1,5.34,1.09,13,13,0,0,1,4.44,3.17A13.28,13.28,0,0,1,809.34,555a13.41,13.41,0,0,1-14.77-3,13.64,13.64,0,0,1,0-18.53,13.2,13.2,0,0,1,9.37-4.26Zm0,3.2a9.42,9.42,0,0,0-7,3.08,10.41,10.41,0,0,0-1.59,12.46,9.18,9.18,0,0,0,3.61,3.62,10.69,10.69,0,0,0,5,1.25,10.58,10.58,0,0,0,5-1.25,9.07,9.07,0,0,0,3.62-3.62,10.77,10.77,0,0,0,1.28-5.21,10.11,10.11,0,0,0-.7-3.92,10.36,10.36,0,0,0-2.17-3.33,9.75,9.75,0,0,0-3.2-2.26A9.5,9.5,0,0,0,803.94,532.39Z"/><path class="cls-3" d="M836.06,520h3.2v35.24h-3.2Z"/><path class="cls-3" d="M871.38,529.83v25.45h-3.19v-4.37a14,14,0,0,1-4.57,3.83,13.07,13.07,0,0,1-10.68.27,12.72,12.72,0,0,1-4.22-2.93,13.3,13.3,0,0,1-3.83-9.58,13.07,13.07,0,0,1,3.94-9.37,12.44,12.44,0,0,1,4.21-3,12.3,12.3,0,0,1,5.05-1,10.66,10.66,0,0,1,5.63,1.39,12.93,12.93,0,0,1,4.47,3.94v-4.69Zm-13.08,2.56a9.89,9.89,0,0,0-8.62,5.11,9.67,9.67,0,0,0-1.38,5.11,10.54,10.54,0,0,0,1.38,5.21,9.35,9.35,0,0,0,3.62,3.73,9.57,9.57,0,0,0,5,1.39,9.73,9.73,0,0,0,5.11-1.39,8.78,8.78,0,0,0,3.72-3.62,10.65,10.65,0,0,0,1.27-5.21,10,10,0,0,0-.67-4,9.79,9.79,0,0,0-2.2-3.37,9.69,9.69,0,0,0-3.3-2.25A9.5,9.5,0,0,0,858.3,532.39Z"/><path class="cls-3" d="M891.59,532.71l-2.12,2.13a7.33,7.33,0,0,0-2.3-1.8,7.22,7.22,0,0,0-2.81-.76,3.6,3.6,0,0,0-1.49.25,3.69,3.69,0,0,0-1.28.82,3.13,3.13,0,0,0-.85,1.09,3.19,3.19,0,0,0-.31,1.36,3.48,3.48,0,0,0,1,2.34,13.68,13.68,0,0,0,3.94,2.66,14.78,14.78,0,0,1,5,3.72,6.51,6.51,0,0,1,1.27,3.94,7,7,0,0,1-.54,2.9,7.55,7.55,0,0,1-7.11,4.66,9.93,9.93,0,0,1-4.26-.95,10.67,10.67,0,0,1-3.3-2.67l2-2.34a7.23,7.23,0,0,0,2.36,2,7.14,7.14,0,0,0,3,.8,4.79,4.79,0,0,0,3.41-1.28,4,4,0,0,0,1-1.29,4,4,0,0,0,.39-1.59,3.82,3.82,0,0,0-1-2.55,12.24,12.24,0,0,0-4-2.66,16.42,16.42,0,0,1-4.79-3.51,7.53,7.53,0,0,1-1.17-3.94,6.64,6.64,0,0,1,1.91-4.9,7.11,7.11,0,0,1,5-1.92A10.63,10.63,0,0,1,891.59,532.71Z"/><path class="cls-3" d="M266.38,602.12h3.3v4.68a12,12,0,0,1,4.47-3.94,10.68,10.68,0,0,1,5.64-1.38,12.31,12.31,0,0,1,9.25,3.94,12.91,12.91,0,0,1,3.83,9.36,13.27,13.27,0,0,1-.95,5.18,13.06,13.06,0,0,1-2.88,4.41,12.52,12.52,0,0,1-9.15,3.83,12,12,0,0,1-10.21-5v13.73h-3.3Zm13.09,2.55a9.44,9.44,0,0,0-7.13,3,9.9,9.9,0,0,0-2.87,7.35,10.63,10.63,0,0,0,1.27,5.21,9.35,9.35,0,0,0,3.73,3.62,9.67,9.67,0,0,0,5.1,1.39,9,9,0,0,0,4.9-1.39,9.22,9.22,0,0,0,3.72-3.83,10.63,10.63,0,0,0,1.38-5.11,9.58,9.58,0,0,0-1.38-5.11,10.67,10.67,0,0,0-3.72-3.83A10,10,0,0,0,279.47,604.67Z"/><path class="cls-3" d="M321,619.15l2.76,1.49a16.85,16.85,0,0,1-3.19,4.26,11.72,11.72,0,0,1-3.93,2.45,12.93,12.93,0,0,1-5.11.85,11.9,11.9,0,0,1-9.68-4.05,13.94,13.94,0,0,1-.53-17.88,12.1,12.1,0,0,1,10.63-4.79,12.42,12.42,0,0,1,10.64,4.9,13.83,13.83,0,0,1,2.88,8.73H302.55a9.9,9.9,0,0,0,2.77,7.23,9,9,0,0,0,6.81,2.88,10.7,10.7,0,0,0,3.72-.64,11.44,11.44,0,0,0,3.19-1.81A16.53,16.53,0,0,0,321,619.15Zm0-6.81a10.69,10.69,0,0,0-1.92-4.26,7.59,7.59,0,0,0-3.3-2.45A9.46,9.46,0,0,0,305.11,607a10.66,10.66,0,0,0-3,5.33Z"/><path class="cls-3" d="M328.83,602.12h3.4v3.72a11.54,11.54,0,0,1,3.09-3.29,5.79,5.79,0,0,1,6.38-.22L340,605.1a4.06,4.06,0,0,0-1.7,0,4.66,4.66,0,0,0-3.19,1.38,8.58,8.58,0,0,0-2.24,4.15,37.63,37.63,0,0,0-.64,8.73V628h-3.4Z"/><path class="cls-3" d="M357.34,604.89l-2.13,2.23a7.73,7.73,0,0,0-5.1-2.55,3.68,3.68,0,0,0-2.77,1.06,3.19,3.19,0,0,0-.86,1.1,3.29,3.29,0,0,0-.31,1.35,3.51,3.51,0,0,0,1,2.34,12.09,12.09,0,0,0,3.93,2.66,17.73,17.73,0,0,1,5,3.62,7.08,7.08,0,0,1,1.28,4,7.22,7.22,0,0,1-2.23,5.32,7.48,7.48,0,0,1-2.54,1.65,7.31,7.31,0,0,1-3,.48,9.46,9.46,0,0,1-4.15-1,8.88,8.88,0,0,1-3.3-2.55l2-2.35a7.26,7.26,0,0,0,5.32,2.77,5,5,0,0,0,3.4-1.28,4.13,4.13,0,0,0,1-1.34,4.2,4.2,0,0,0,.39-1.64,3.79,3.79,0,0,0-1-2.44,16.72,16.72,0,0,0-4.15-2.77,13.61,13.61,0,0,1-4.68-3.52,6.14,6.14,0,0,1-1.17-3.93,6.47,6.47,0,0,1,1.91-4.79,7,7,0,0,1,5-1.92A10.63,10.63,0,0,1,357.34,604.89Z"/><path class="cls-3" d="M363.51,602.12h3.19v4.68a12,12,0,0,1,4.47-3.94,11.33,11.33,0,0,1,5.64-1.38,12.27,12.27,0,0,1,9.25,3.94,13,13,0,0,1,3.94,9.36,13.9,13.9,0,0,1-3.83,9.59,12.64,12.64,0,0,1-9.26,3.83,13.21,13.21,0,0,1-5.53-1.17,14.46,14.46,0,0,1-4.68-3.83v13.73h-3.19Zm13.09,2.55a9.85,9.85,0,0,0-3.94.73,9.69,9.69,0,0,0-3.3,2.25,9.9,9.9,0,0,0-2.87,7.35,10.53,10.53,0,0,0,1.28,5.21,9.26,9.26,0,0,0,3.72,3.62,9.68,9.68,0,0,0,5.11,1.39,9.27,9.27,0,0,0,5-1.39,8.92,8.92,0,0,0,3.62-3.83,9.65,9.65,0,0,0-8.94-15.33Z"/><path class="cls-3" d="M416.7,619.15l2.77,1.49a14.77,14.77,0,0,1-3.09,4.26,12.3,12.3,0,0,1-4,2.45,12.58,12.58,0,0,1-5,.85,12.13,12.13,0,0,1-9.79-4.05,13.62,13.62,0,0,1-3.51-9.26,14.18,14.18,0,0,1,3-8.62,12.31,12.31,0,0,1,10.11-4.79,12.74,12.74,0,0,1,5.92,1.14,12.61,12.61,0,0,1,4.71,3.76,13.77,13.77,0,0,1,2.77,8.73H397.66a9.95,9.95,0,0,0,2.87,7.23,9,9,0,0,0,3,2.17,8.85,8.85,0,0,0,3.66.71,11.84,11.84,0,0,0,3.83-.64,12.46,12.46,0,0,0,3.09-1.81A13.7,13.7,0,0,0,416.7,619.15Zm0-6.81a10.81,10.81,0,0,0-1.91-4.26,7.19,7.19,0,0,0-3.3-2.45,8.68,8.68,0,0,0-4.26-1.06,9.49,9.49,0,0,0-6.49,2.44,10.64,10.64,0,0,0-3,5.33Z"/><path class="cls-3" d="M451.59,607.44l-2.66,1.6a12,12,0,0,0-13.33-3.78,10.64,10.64,0,0,0-3.58,2.29,9.82,9.82,0,0,0-2.23,3.31,10,10,0,0,0-.75,3.92,10.67,10.67,0,0,0,1.38,5.33,9.88,9.88,0,0,0,3.84,3.72,11.18,11.18,0,0,0,14.67-3.08l2.66,1.7a12.2,12.2,0,0,1-5,4.26,14.8,14.8,0,0,1-6.92,1.49,13.78,13.78,0,0,1-5.39-.91,14,14,0,0,1-4.61-2.92,12.5,12.5,0,0,1-4-9.26,13.26,13.26,0,0,1,1.91-6.92,11.91,11.91,0,0,1,5.11-4.9,14.86,14.86,0,0,1,7.23-1.81,15.37,15.37,0,0,1,4.9.74,12.46,12.46,0,0,1,3.93,2A11.65,11.65,0,0,1,451.59,607.44Z"/><path class="cls-3" d="M460.64,592.64h3.3v9.48h5.21V605h-5.21v22.57h-3.3V605h-4.47v-2.87h4.47Z"/><path class="cls-3" d="M475.21,591.69a2.63,2.63,0,0,1,1.52.42,2.66,2.66,0,0,1,1,1.21,2.66,2.66,0,0,1-.61,2.94,2.49,2.49,0,0,1-.87.64,2.51,2.51,0,0,1-2.1,0,2.45,2.45,0,0,1-.86-.64,2.66,2.66,0,0,1-.61-2.94,2.66,2.66,0,0,1,1-1.21A2.62,2.62,0,0,1,475.21,591.69Zm-1.59,10.64h3.19v25.44h-3.19Z"/><path class="cls-3" d="M481.28,602.12h3.4l8.62,18.52,8.4-18.52h3.51l-11.7,25.44H493Z"/><path class="cls-3" d="M535.53,602.12v25.44h-3.3V623.2a12.92,12.92,0,0,1-4.57,3.83A14,14,0,0,1,522,628.2a12.52,12.52,0,0,1-9.15-3.83,13.35,13.35,0,0,1-3.83-9.59,12.81,12.81,0,0,1,1-5.07,13,13,0,0,1,2.87-4.29,12.42,12.42,0,0,1,4.21-3,12.29,12.29,0,0,1,5-1,11.49,11.49,0,0,1,5.74,1.38,12.5,12.5,0,0,1,4.36,3.94v-4.68Zm-13.08,2.55a9.4,9.4,0,0,0-8.73,5.11,10.69,10.69,0,0,0,0,10.65,9.3,9.3,0,0,0,3.73,3.83,9,9,0,0,0,5,1.38,10.59,10.59,0,0,0,5.1-1.38,9.14,9.14,0,0,0,3.62-3.62,10.65,10.65,0,0,0,1.28-5.22,10,10,0,0,0-2.87-7.34,9.33,9.33,0,0,0-3.19-2.49A9.44,9.44,0,0,0,522.45,604.67Z"/><path class="cls-3" d="M555.64,604.89l-2.13,2.23a7.23,7.23,0,0,0-2.29-1.79,7.31,7.31,0,0,0-2.82-.76,3.4,3.4,0,0,0-1.44.25,3.57,3.57,0,0,0-1.22.81,2.86,2.86,0,0,0-1.16,2.45,3.46,3.46,0,0,0,.95,2.34,12.14,12.14,0,0,0,3.94,2.66,15.42,15.42,0,0,1,4.89,3.62,7.33,7.33,0,0,1-3.39,11,7.26,7.26,0,0,1-3,.48,9.19,9.19,0,0,1-4.15-1,10.53,10.53,0,0,1-3.4-2.55l2.12-2.35a7,7,0,0,0,2.36,2,7.14,7.14,0,0,0,3,.8,4.52,4.52,0,0,0,1.78-.31,4.59,4.59,0,0,0,1.52-1,3.81,3.81,0,0,0,1-1.32,3.64,3.64,0,0,0,.34-1.66,4.22,4.22,0,0,0-.85-2.44,16.72,16.72,0,0,0-4.15-2.77,12.65,12.65,0,0,1-4.68-3.52,6.69,6.69,0,0,1,.75-8.72,6.68,6.68,0,0,1,2.3-1.48,6.9,6.9,0,0,1,2.7-.44A10.6,10.6,0,0,1,555.64,604.89Z"/><path class="cls-3" d="M596.17,619.15l2.77,1.49a17.31,17.31,0,0,1-3.2,4.26,12.66,12.66,0,0,1-9,3.3,11.9,11.9,0,0,1-9.68-4.05,14,14,0,0,1,0-17.88,12.14,12.14,0,0,1,4.42-3.62,12,12,0,0,1,5.58-1.17,12.45,12.45,0,0,1,10.64,4.9,13.84,13.84,0,0,1,2.76,8.73H577.55a10.62,10.62,0,0,0,2.88,7.23,8.9,8.9,0,0,0,6.81,2.88,10.78,10.78,0,0,0,3.72-.64,10.63,10.63,0,0,0,3.08-1.81A13.74,13.74,0,0,0,596.17,619.15Zm0-6.81a10.69,10.69,0,0,0-1.92-4.26,8.3,8.3,0,0,0-3.29-2.45,9.07,9.07,0,0,0-4.36-1.06,9.45,9.45,0,0,0-6.49,2.44,12,12,0,0,0-3,5.33Z"/><path class="cls-3" d="M603,602.12h3.94l6.7,9.37,6.7-9.37h3.93l-8.61,12,9.68,13.41h-3.94l-7.76-10.65L606,627.56H602l9.68-13.41Z"/><path class="cls-3" d="M628.83,602.12h3.3v4.68a12,12,0,0,1,4.47-3.94,10.65,10.65,0,0,1,5.63-1.38,12.31,12.31,0,0,1,9.26,3.94,12.69,12.69,0,0,1,2.87,4.29,13,13,0,0,1,1,5.07,13.35,13.35,0,0,1-3.83,9.59,12.42,12.42,0,0,1-9.15,3.83,12,12,0,0,1-10.64-5v13.73h-3.3Zm13.08,2.55a9.6,9.6,0,0,0-3.88.73,9.5,9.5,0,0,0-3.24,2.25,9.9,9.9,0,0,0-2.87,7.35,10.63,10.63,0,0,0,1.27,5.21,9.38,9.38,0,0,0,3.72,3.62,9.7,9.7,0,0,0,5.11,1.39,9,9,0,0,0,4.9-1.39,8.66,8.66,0,0,0,3.72-3.83,9.62,9.62,0,0,0-8.73-15.33Z"/><path class="cls-3" d="M661.38,602.12h3.3V614a25.83,25.83,0,0,0,0,6,6.83,6.83,0,0,0,2.66,3.73,8.65,8.65,0,0,0,4.79,1.38,7.91,7.91,0,0,0,4.57-1.38,7,7,0,0,0,2.66-3.41,25.45,25.45,0,0,0,.54-6.28V602.12h3.29v12.56a19.26,19.26,0,0,1-1.27,7.88,8.67,8.67,0,0,1-3.62,4.15,11.3,11.3,0,0,1-6.17,1.49,11.57,11.57,0,0,1-6.28-1.49,9.52,9.52,0,0,1-3.72-4.15,22.62,22.62,0,0,1-1.17-8.2Z"/><path class="cls-3" d="M712,619.15l2.77,1.49a17.31,17.31,0,0,1-3.2,4.26,13,13,0,0,1-9,3.3,11.9,11.9,0,0,1-9.68-4.05,14,14,0,0,1,0-17.88,12.14,12.14,0,0,1,4.42-3.62,12,12,0,0,1,5.58-1.17,12.45,12.45,0,0,1,10.64,4.9,13.85,13.85,0,0,1,2.77,8.73H693.4a10.62,10.62,0,0,0,2.88,7.23,8.78,8.78,0,0,0,6.7,2.88,11.62,11.62,0,0,0,3.83-.64,10.63,10.63,0,0,0,3.08-1.81A13.47,13.47,0,0,0,712,619.15Zm0-6.81a12.32,12.32,0,0,0-1.91-4.26,8.41,8.41,0,0,0-3.3-2.45,9.07,9.07,0,0,0-4.36-1.06A9.45,9.45,0,0,0,696,607a12,12,0,0,0-3,5.33Z"/><path class="cls-3" d="M734.47,604.89l-2.13,2.23a7.38,7.38,0,0,0-5.11-2.55,3.59,3.59,0,0,0-1.49.24,3.65,3.65,0,0,0-1.27.82,3,3,0,0,0-.81,1.1,3.16,3.16,0,0,0-.26,1.35,4,4,0,0,0,.85,2.34,13.68,13.68,0,0,0,3.94,2.66,16.43,16.43,0,0,1,5,3.62,7.08,7.08,0,0,1,1.28,4,7.26,7.26,0,0,1-.53,2.94,7.13,7.13,0,0,1-1.66,2.47,7.2,7.2,0,0,1-5.47,2,9.79,9.79,0,0,1-4.26-1,9.64,9.64,0,0,1-3.29-2.55l2-2.35a7.41,7.41,0,0,0,2.36,1.95,7.49,7.49,0,0,0,3,.82,4.77,4.77,0,0,0,3.4-1.28,3.51,3.51,0,0,0,.86-1.23,3.69,3.69,0,0,0,0-3,3.51,3.51,0,0,0-.86-1.23,13.65,13.65,0,0,0-4-2.77,11.78,11.78,0,0,1-4.68-3.52,6.7,6.7,0,0,1,.74-8.72,6.72,6.72,0,0,1,2.31-1.48,6.85,6.85,0,0,1,2.69-.44,10.37,10.37,0,0,1,4.06,1A10.51,10.51,0,0,1,734.47,604.89Z"/><path class="cls-3" d="M743.09,592.64h3.4v9.48h5.21V605h-5.21v22.57h-3.3V605h-4.47v-2.87h4.47Z"/><path class="cls-3" d="M781.81,602.12v25.44H778.4V623.2a13.18,13.18,0,0,1-4.68,3.83,13.49,13.49,0,0,1-5.53,1.17,12.71,12.71,0,0,1-5-1,12.88,12.88,0,0,1-4.24-2.87,13.29,13.29,0,0,1-3.82-9.59,13.89,13.89,0,0,1,8.14-12.32,12.36,12.36,0,0,1,5-1,11.35,11.35,0,0,1,5.64,1.38,12,12,0,0,1,4.46,3.94v-4.68Zm-13.09,2.55a10,10,0,0,0-5,1.28A10.65,10.65,0,0,0,760,620a9.85,9.85,0,0,0,3.72,3.83,9.32,9.32,0,0,0,5,1.39,9.68,9.68,0,0,0,5.11-1.39,9.26,9.26,0,0,0,3.72-3.62,10.53,10.53,0,0,0,1.28-5.21,9.94,9.94,0,0,0-.67-4,10.13,10.13,0,0,0-2.2-3.38,9.7,9.7,0,0,0-7.24-3Z"/><path class="cls-3" d="M802,604.89l-2.13,2.23a7.73,7.73,0,0,0-5.1-2.55,3.68,3.68,0,0,0-2.77,1.06,3.32,3.32,0,0,0-.86,1.1,3.14,3.14,0,0,0-.31,1.35,3.51,3.51,0,0,0,1,2.34,12,12,0,0,0,3.94,2.66,16.39,16.39,0,0,1,5,3.62,7,7,0,0,1,1.28,4,7.12,7.12,0,0,1-2.23,5.32,7.3,7.3,0,0,1-5.43,2.13,9.83,9.83,0,0,1-4.26-1,8.93,8.93,0,0,1-3.29-2.55l2-2.35a7.44,7.44,0,0,0,2.37,1.95,7.28,7.28,0,0,0,2.95.82,5,5,0,0,0,3.4-1.28,4.13,4.13,0,0,0,1-1.34,4,4,0,0,0,.38-1.64,3.68,3.68,0,0,0-.95-2.44,16.72,16.72,0,0,0-4.15-2.77,13.51,13.51,0,0,1-4.68-3.52,6.14,6.14,0,0,1-1.17-3.93,6.44,6.44,0,0,1,.46-2.6,6.59,6.59,0,0,1,1.45-2.19,7,7,0,0,1,5-1.92A10.63,10.63,0,0,1,802,604.89Z"/><path class="cls-3" d="M811.06,621.6l3.09,1.49-4.68,8.83-2.34-.95Z"/><path class="cls-3" d="M300.64,674.83h3.3v4.68a13.52,13.52,0,0,1,4.46-4,13,13,0,0,1,14.9,2.67,12.66,12.66,0,0,1,3.83,9.37A12.93,12.93,0,0,1,323.3,697a12.15,12.15,0,0,1-9.15,3.94,12.49,12.49,0,0,1-5.64-1.28,13.52,13.52,0,0,1-4.57-3.72v13.73h-3.3Zm13.08,2.55a9.57,9.57,0,0,0-3.85.71,9.88,9.88,0,0,0-3.28,2.17A11.17,11.17,0,0,0,305,692.93a9.36,9.36,0,0,0,3.72,3.61,9.68,9.68,0,0,0,5.11,1.39,8.91,8.91,0,0,0,4.89-1.39,9.88,9.88,0,0,0,3.73-3.83A10.72,10.72,0,0,0,313.72,677Z"/><path class="cls-3" d="M331.6,674.83H335v3.72a11.57,11.57,0,0,1,3.09-3.3,6.15,6.15,0,0,1,3.51-1.06,6.64,6.64,0,0,1,2.87.85l-1.7,2.77a3.8,3.8,0,0,0-1.71,0,4.87,4.87,0,0,0-3.19,1.28,9.58,9.58,0,0,0-2.34,4.25,49,49,0,0,0,0,8.73v8.63H331.6Z"/><path class="cls-3" d="M359.68,673.76a12.58,12.58,0,0,1,9.79,4.26,13.11,13.11,0,0,1,3.51,9.16,13.46,13.46,0,0,1-3.72,9.37,12.39,12.39,0,0,1-9.58,3.94,12.67,12.67,0,0,1-9.57-3.94,13.33,13.33,0,0,1-3.62-9.37A13.11,13.11,0,0,1,350,678a12.33,12.33,0,0,1,9.68-4.26Zm0,3.2a9.65,9.65,0,0,0-3.82.76,9.36,9.36,0,0,0-3.2,2.22,10.86,10.86,0,0,0-1.6,12.45,10.52,10.52,0,0,0,3.62,3.73,10.62,10.62,0,0,0,10,0,9.41,9.41,0,0,0,3.62-3.73,9.76,9.76,0,0,0,1.38-5.11,10.63,10.63,0,0,0-3-7.34,9.17,9.17,0,0,0-3.19-2.25A9.33,9.33,0,0,0,359.68,677Z"/><path class="cls-3" d="M379,674.83h3.3v4.68a13.46,13.46,0,0,1,4.47-4,13,13,0,0,1,14.89,2.67,12.66,12.66,0,0,1,3.83,9.37,13.07,13.07,0,0,1-.93,5.13,12.87,12.87,0,0,1-2.9,4.34,12.14,12.14,0,0,1-4.15,2.94,12.27,12.27,0,0,1-5,1,12.48,12.48,0,0,1-5.63-1.28,13.55,13.55,0,0,1-4.58-3.72v13.73H379Zm13.09,2.55a9.78,9.78,0,0,0-7.13,2.88,11.17,11.17,0,0,0-1.59,12.67,9.3,9.3,0,0,0,3.72,3.61,9.68,9.68,0,0,0,5.11,1.39,8.93,8.93,0,0,0,4.89-1.39,9.78,9.78,0,0,0,3.72-3.83A10.72,10.72,0,0,0,392.13,677Z"/><path class="cls-3" d="M423.72,673.76a12.45,12.45,0,0,1,5.32,1A12.3,12.3,0,0,1,433.4,678a13.12,13.12,0,0,1,3.52,9.16,13.37,13.37,0,0,1-3.62,9.37,12.71,12.71,0,0,1-9.58,3.94,12.47,12.47,0,0,1-5.22-.92,12.31,12.31,0,0,1-4.35-3,13.41,13.41,0,0,1-3.72-9.37,13.07,13.07,0,0,1,3.51-9.16,12.54,12.54,0,0,1,9.78-4.26Zm0,3.2a9.33,9.33,0,0,0-3.83.73,9.17,9.17,0,0,0-3.19,2.25,10,10,0,0,0-3,7.34,9.68,9.68,0,0,0,1.39,5.11,9.39,9.39,0,0,0,3.61,3.73,10.06,10.06,0,0,0,5,1.28,9.88,9.88,0,0,0,9.9-10.12,10.74,10.74,0,0,0-2.87-7.34,9.61,9.61,0,0,0-7-3Z"/><path class="cls-3" d="M443,674.83h3.3v4.57a12.5,12.5,0,0,1,4.36-3.94,10.63,10.63,0,0,1,5.21-1.27,8.66,8.66,0,0,1,5,1.38,9.86,9.86,0,0,1,3.3,3.94,19.93,19.93,0,0,1,1.06,7.66v13.1h-3.29V688.14a35.83,35.83,0,0,0,0-5.86,6.84,6.84,0,0,0-2.24-3.83,6.5,6.5,0,0,0-4.15-1.28,7.54,7.54,0,0,0-5.32,2,8.45,8.45,0,0,0-3.08,4.79,32.16,32.16,0,0,0-.54,6.92v9.37H443.3Z"/><path class="cls-3" d="M473.3,664.18a2.85,2.85,0,0,1,2.55,1.61,2.53,2.53,0,0,1,0,2.11,2.58,2.58,0,0,1-.64.86,2.43,2.43,0,0,1-.88.57,2.6,2.6,0,0,1-1,.18,2.52,2.52,0,0,1-1-.19,2.39,2.39,0,0,1-.83-.56,2.55,2.55,0,0,1-.87-1.92,2.55,2.55,0,0,1,.23-1.05,3.17,3.17,0,0,1,1.47-1.43A2.51,2.51,0,0,1,473.3,664.18Zm-1.6,10.65H475v25.44h-3.3Z"/><path class="cls-3" d="M503.19,691.44l2.77,1.38a14,14,0,0,1-3.09,4.36,13.18,13.18,0,0,1-4,2.45,12.73,12.73,0,0,1-5,.86,12.51,12.51,0,0,1-5.34-.94,12.36,12.36,0,0,1-4.45-3.11,14,14,0,0,1-.53-17.89,12.31,12.31,0,0,1,10.11-4.79,12.66,12.66,0,0,1,10.63,4.9,13.79,13.79,0,0,1,2.77,8.73H484.15a9.94,9.94,0,0,0,2.77,7.24,9.17,9.17,0,0,0,6.81,2.87,11.82,11.82,0,0,0,3.82-.64,12.74,12.74,0,0,0,3.09-1.8A16.32,16.32,0,0,0,503.19,691.44Zm0-6.92a10.67,10.67,0,0,0-1.91-4.16,8.86,8.86,0,0,0-3.3-2.55,10.61,10.61,0,0,0-4.36-1,9.39,9.39,0,0,0-6.39,2.45,10.62,10.62,0,0,0-3,5.22Z"/><path class="cls-3" d="M512.44,674.83h3.3v4.57a12.61,12.61,0,0,1,4.37-3.94,10.63,10.63,0,0,1,5.21-1.27,8.85,8.85,0,0,1,5,1.38,9.86,9.86,0,0,1,3.3,3.94,19.93,19.93,0,0,1,1.06,7.66v13.1h-3.3V688.14a33.73,33.73,0,0,0,0-5.86,6.77,6.77,0,0,0-2.23-3.83,6.52,6.52,0,0,0-4.15-1.28,7.54,7.54,0,0,0-5.32,2,9.14,9.14,0,0,0-3.19,4.79,44.41,44.41,0,0,0,0,6.92v9.37h-4Z"/><path class="cls-3" d="M567.45,664.18v35.24h-3.19v-4.37a13.68,13.68,0,0,1-4.58,3.73,12.69,12.69,0,0,1-5.64,1.28,12.27,12.27,0,0,1-5.28-.9,12.42,12.42,0,0,1-4.4-3,12.93,12.93,0,0,1-3.83-9.47,13.4,13.4,0,0,1,13.19-13.31,12.23,12.23,0,0,1,5.64,1.27,13.45,13.45,0,0,1,4.47,4V664.18Zm-13.09,12.35a10.23,10.23,0,0,0-8.64,15.33,10.53,10.53,0,0,0,3.64,3.83,9.6,9.6,0,0,0,5,1.39,9.7,9.7,0,0,0,5.11-1.39,9.32,9.32,0,0,0,3.72-3.62,11.17,11.17,0,0,0-1.59-12.67,10,10,0,0,0-7.24-2.44Z"/><path class="cls-3" d="M586.91,673.76a12.84,12.84,0,0,1,5.37,1A12.68,12.68,0,0,1,596.7,678a13.1,13.1,0,0,1,3.51,9.15,13.42,13.42,0,0,1-3.72,9.38,13.63,13.63,0,0,1-19.15,0,13.42,13.42,0,0,1-3.72-9.38,13.06,13.06,0,0,1,3.51-9.15,12.68,12.68,0,0,1,4.42-3.21A12.82,12.82,0,0,1,586.91,673.76Zm0,3.2a9.65,9.65,0,0,0-3.82.76,9.55,9.55,0,0,0-3.2,2.22,10.83,10.83,0,0,0-1.59,12.45,9.44,9.44,0,0,0,8.61,5,10.69,10.69,0,0,0,5-1.25,9.39,9.39,0,0,0,3.61-3.73,10.39,10.39,0,0,0-1.59-12.45,9.61,9.61,0,0,0-7-3Z"/><path class="cls-3" d="M619.47,674.83h3.29v4.57a12.61,12.61,0,0,1,4.37-3.94,10.63,10.63,0,0,1,5.21-1.27,8.83,8.83,0,0,1,5,1.38,9.86,9.86,0,0,1,3.3,3.94,22.12,22.12,0,0,1,1.06,7.66v13.1h-3.3V688.14a31.86,31.86,0,0,0,0-5.86,6.77,6.77,0,0,0-2.23-3.83,6.52,6.52,0,0,0-4.15-1.28,7.54,7.54,0,0,0-5.32,2,9.14,9.14,0,0,0-3.19,4.79,34.79,34.79,0,0,0,0,6.92v9.37h-3.3Z"/><path class="cls-3" d="M648.3,674.83h3.3v11.92a24.76,24.76,0,0,0,0,6,6.7,6.7,0,0,0,2.66,3.73,8.29,8.29,0,0,0,4.68,1.28,8.17,8.17,0,0,0,4.68-1.28,6.94,6.94,0,0,0,2.66-3.51,25.56,25.56,0,0,0,0-6.18V674.83h3.4v12.45a19.45,19.45,0,0,1-1.28,8,9.12,9.12,0,0,1-3.62,4.15,11.28,11.28,0,0,1-6.17,1.49,11.47,11.47,0,0,1-6.27-1.49,10.1,10.1,0,0,1-3.73-4.15,22.83,22.83,0,0,1-1.16-8.2Z"/><path class="cls-3" d="M699.15,691.44l2.76,1.38a13.77,13.77,0,0,1-3.08,4.36,12,12,0,0,1-4,2.45,15.19,15.19,0,0,1-10.3-.08,12.23,12.23,0,0,1-4.38-3.11,13.9,13.9,0,0,1-3.51-9.27,13.53,13.53,0,0,1,3-8.62,12.09,12.09,0,0,1,10-4.79,12.42,12.42,0,0,1,10.64,4.9,13.85,13.85,0,0,1,2.77,8.73H680.11a10.65,10.65,0,0,0,2.87,7.24,8.84,8.84,0,0,0,3,2.16,8.69,8.69,0,0,0,3.66.71,11.37,11.37,0,0,0,3.83-.64,12.5,12.5,0,0,0,3.08-1.8A16,16,0,0,0,699.15,691.44Zm0-6.92a12.66,12.66,0,0,0-1.81-4.16,9.23,9.23,0,0,0-3.41-2.55,9.93,9.93,0,0,0-4.25-1,9.5,9.5,0,0,0-6.49,2.45,11.69,11.69,0,0,0-3,5.22Z"/><path class="cls-3" d="M706.49,674.83H710l8.51,18.52,8.4-18.52h3.51l-11.59,25.44h-.64Z"/><path class="cls-3" d="M760.74,674.83v25.44h-3.61v-4.36a13.65,13.65,0,0,1-4.58,3.72,13.24,13.24,0,0,1-10.68.3,12.33,12.33,0,0,1-4.21-3,12.82,12.82,0,0,1-3.83-9.47A13.4,13.4,0,0,1,747,674.19a12.68,12.68,0,0,1,5.64,1.27,13.46,13.46,0,0,1,4.47,4v-4.68Zm-13.08,2.55a9.7,9.7,0,0,0-8.72,5.11,10.65,10.65,0,0,0,3.72,14,9.28,9.28,0,0,0,5,1.39,9.62,9.62,0,0,0,5.1-1.39,9.39,9.39,0,0,0,3.73-3.61,11.17,11.17,0,0,0-1.6-12.68,10,10,0,0,0-3.27-2.39,9.87,9.87,0,0,0-4-.9Z"/><path class="cls-3" d="M781,677.17l-2.13,2.23a7.58,7.58,0,0,0-5.11-2.55,3.66,3.66,0,0,0-1.49.25,3.56,3.56,0,0,0-1.27.82,3,3,0,0,0-.86,1.09,3.14,3.14,0,0,0-.31,1.35,3.68,3.68,0,0,0,1,2.35,14.2,14.2,0,0,0,3.93,2.66,14.47,14.47,0,0,1,5,3.62,6.86,6.86,0,0,1,1.28,4,7,7,0,0,1-.56,2.9,7.16,7.16,0,0,1-1.68,2.43,7.78,7.78,0,0,1-5.42,2.13,9.84,9.84,0,0,1-4.26-1,9,9,0,0,1-3.3-2.66l2-2.34a7.13,7.13,0,0,0,2.35,2,7.22,7.22,0,0,0,3,.86,4.82,4.82,0,0,0,3.41-1.28,4.28,4.28,0,0,0,1-1.35,4,4,0,0,0,.38-1.63,3.52,3.52,0,0,0-1-2.45,14.29,14.29,0,0,0-4.15-2.77,13.61,13.61,0,0,1-4.68-3.51,7.17,7.17,0,0,1-1.18-3.94,6.43,6.43,0,0,1,1.92-4.79,7.07,7.07,0,0,1,5-1.92A10.66,10.66,0,0,1,781,677.17Z"/><path class="cls-3" d="M242.13,746.69v25.44h-3.3v-4.37a13.8,13.8,0,0,1-4.58,3.73,12.48,12.48,0,0,1-5.63,1.28,12.24,12.24,0,0,1-9.15-3.94,13.84,13.84,0,0,1-2.88-14.6,13.11,13.11,0,0,1,2.88-4.35,13.26,13.26,0,0,1,15-2.55,14.14,14.14,0,0,1,4.36,4v-4.68ZM229,749.13a10.6,10.6,0,0,0-5.1,1.39,9.35,9.35,0,0,0-3.62,3.73,10.54,10.54,0,0,0-1.38,5.21,9.58,9.58,0,0,0,1.38,5.11,10.14,10.14,0,1,0,15.85-12.45,9.82,9.82,0,0,0-7.13-2.77Z"/><path class="cls-3" d="M248.94,736.89h3.29v35.24h-3.29Z"/><path class="cls-3" d="M261.92,737.21h3.29v9.48h5.11v2.66h-5.11V772h-3.29V749.35h-4.79v-2.77h4.47Z"/><path class="cls-3" d="M296.7,763.72l2.77,1.38a18,18,0,0,1-3.19,4.37,11.68,11.68,0,0,1-3.94,2.44,15.07,15.07,0,0,1-5.11.86,12.3,12.3,0,0,1-9.68-4,14,14,0,0,1-3.51-9.26,13.56,13.56,0,0,1,3-8.62,12.13,12.13,0,0,1,4.47-3.63,11.94,11.94,0,0,1,5.64-1.16,12.48,12.48,0,0,1,5.93,1.11,12.66,12.66,0,0,1,4.71,3.78,13.91,13.91,0,0,1,2.87,8.74H277.77a10,10,0,0,0,2.76,7.23A9.57,9.57,0,0,0,291.17,769a9.2,9.2,0,0,0,3.19-1.81A18.34,18.34,0,0,0,296.7,763.72Zm0-6.92a10.63,10.63,0,0,0-1.91-4.15,8.8,8.8,0,0,0-3.3-2.56,10.77,10.77,0,0,0-4.36-1,9.22,9.22,0,0,0-6.39,2.45,10,10,0,0,0-3,5.22Z"/><path class="cls-3" d="M305.11,746.69h3.4v3.72a11.57,11.57,0,0,1,3.09-3.3,6.35,6.35,0,0,1,3.51-1.06,5.13,5.13,0,0,1,2.87.85l-1.7,2.77a3.8,3.8,0,0,0-1.71,0,5.12,5.12,0,0,0-3.19,1.27A9.83,9.83,0,0,0,309,755.1a50.08,50.08,0,0,0,0,8.83v8.62h-3.4Z"/><path class="cls-3" d="M321,746.69h3.3v4.57a12.47,12.47,0,0,1,4.36-3.93,10.53,10.53,0,0,1,5.21-1.28,8.83,8.83,0,0,1,5,1.38,9.17,9.17,0,0,1,3.3,3.94,19.6,19.6,0,0,1,1.06,7.67v13.09h-3.3V760a31.75,31.75,0,0,0,0-5.85,6.74,6.74,0,0,0-2.23-3.83,6.4,6.4,0,0,0-4.15-1.28,8,8,0,0,0-5.32,1.91,10,10,0,0,0-3.19,4.9,44.41,44.41,0,0,0,0,6.92v9.37h-4Z"/><path class="cls-3" d="M375.32,746.69v25.44h-3.19v-4.37a15.37,15.37,0,0,1-4.68,3.73,12.11,12.11,0,0,1-5.54,1.28,12.29,12.29,0,0,1-5-1,12.16,12.16,0,0,1-4.21-2.95,12.93,12.93,0,0,1-3.83-9.48,13.07,13.07,0,0,1,3.83-9.47,13.26,13.26,0,0,1,15-2.55,13.51,13.51,0,0,1,4.47,4v-4.68Zm-13.09,2.44a10.73,10.73,0,0,0-5,1.39,9.6,9.6,0,0,0-3.72,3.73,10.2,10.2,0,0,0,13.83,14.15,10.09,10.09,0,0,0,5-8.84,10.59,10.59,0,0,0-3-7.44,9.67,9.67,0,0,0-7.13-2.77Z"/><path class="cls-3" d="M385.53,737.21h3.3v9.48H394v2.66h-5.21V772h-3.3V749.35h-4.47v-2.77h4.47Z"/><path class="cls-3" d="M400,736.14a2.73,2.73,0,0,1,1.6.4,2.67,2.67,0,0,1,1,1.25,2.64,2.64,0,0,1-.74,3,2.39,2.39,0,0,1-.87.57,2.48,2.48,0,0,1-1,.17,2.25,2.25,0,0,1-1-.17,2.33,2.33,0,0,1-.82-.57,2.5,2.5,0,0,1-.86-1.92,2.54,2.54,0,0,1,.22-1,2.58,2.58,0,0,1,.64-.86,2.47,2.47,0,0,1,.81-.62A2.53,2.53,0,0,1,400,736.14Zm-1.6,10.65h3.3v25.45h-3.3Z"/><path class="cls-3" d="M406.06,746.69h3.51l8.52,18.52,8.4-18.52H430l-11.6,25.44h-.64Z"/><path class="cls-3" d="M460.32,746.69v25.44h-3.19v-4.37a15,15,0,0,1-4.58,3.73,12.49,12.49,0,0,1-5.64,1.28,12.29,12.29,0,0,1-5-1,12.16,12.16,0,0,1-4.21-2.95,12.82,12.82,0,0,1-3.83-9.48,12.69,12.69,0,0,1,3.94-9.47,13,13,0,0,1,14.89-2.55,13.32,13.32,0,0,1,4.47,4v-4.68Zm-13.09,2.44a10.29,10.29,0,0,0-8.72,5.12,11.4,11.4,0,0,0-1.28,5.21,9.76,9.76,0,0,0,1.38,5.11,10.66,10.66,0,0,0,3.63,3.83,9.87,9.87,0,0,0,10.1,0,10.14,10.14,0,0,0-5.11-19Z"/><path class="cls-3" d="M480.53,749.35l-2.13,2.13a7.53,7.53,0,0,0-5.1-2.56,4.24,4.24,0,0,0-2.77,1.07,3.33,3.33,0,0,0-.83,1.1,3.3,3.3,0,0,0,.62,3.79,14.1,14.1,0,0,0,3.94,2.66,14.79,14.79,0,0,1,5,3.62,6.77,6.77,0,0,1,1.28,4.05,7.33,7.33,0,0,1-2.23,5.32,7.61,7.61,0,0,1-2.5,1.61,7.35,7.35,0,0,1-2.93.52,9.93,9.93,0,0,1-4.25-1,8.9,8.9,0,0,1-3.3-2.66l2-2.34a7.25,7.25,0,0,0,2.35,2,7,7,0,0,0,3,.85,4.79,4.79,0,0,0,3.4-1.27,4.28,4.28,0,0,0,1-1.35,4.24,4.24,0,0,0,.39-1.63,3.34,3.34,0,0,0-.24-1.33,3.41,3.41,0,0,0-.72-1.12,12.75,12.75,0,0,0-4.15-2.77,13.71,13.71,0,0,1-4.68-3.51,7.18,7.18,0,0,1-1.17-3.94,6.44,6.44,0,0,1,.46-2.6,6.58,6.58,0,0,1,1.45-2.2,7,7,0,0,1,5-1.91A10.63,10.63,0,0,1,480.53,749.35Z"/><path class="cls-3" d="M499.57,746.69h3.3v4.68a13.32,13.32,0,0,1,4.47-4,12.14,12.14,0,0,1,5.64-1.28,12.53,12.53,0,0,1,5,1,12.73,12.73,0,0,1,4.24,2.87,13.24,13.24,0,0,1,2.87,4.35,13,13,0,0,1,.95,5.12,12.87,12.87,0,0,1-3.82,9.48,12.19,12.19,0,0,1-9.16,3.94,12.48,12.48,0,0,1-5.63-1.28,14.89,14.89,0,0,1-4.58-3.73v13.52h-3.3Zm12.87,2.66a9.88,9.88,0,0,0-3.86.76,9.74,9.74,0,0,0-3.26,2.22,11.19,11.19,0,0,0-1.6,12.66,10.44,10.44,0,0,0,8.83,5,10.1,10.1,0,0,0,8.62-5.22,9.63,9.63,0,0,0,1.91-4.79,10.57,10.57,0,0,0-1.38-5.21,9.32,9.32,0,0,0-3.61-3.73A10.6,10.6,0,0,0,512.44,749.35Z"/><path class="cls-3" d="M557.55,746.69v25.44h-3.19v-4.37a15.26,15.26,0,0,1-4.68,3.73,12.07,12.07,0,0,1-5.53,1.28,12.41,12.41,0,0,1-9.26-3.94,12.93,12.93,0,0,1-3.83-9.48,13.07,13.07,0,0,1,3.83-9.47,12.8,12.8,0,0,1,9.36-3.83,12.49,12.49,0,0,1,5.64,1.28,13.32,13.32,0,0,1,4.47,4v-4.68Zm-13.19,2.66a10.61,10.61,0,0,0-5,1.38,9.6,9.6,0,0,0-3.72,3.73,11.58,11.58,0,0,0-1.39,5.22,10.73,10.73,0,0,0,5.11,8.94,9.95,9.95,0,0,0,10.11,0,10.31,10.31,0,0,0,3.94-3.56A10,10,0,0,0,552,752.54a9.65,9.65,0,0,0-7.66-3.19Z"/><path class="cls-3" d="M563.72,746.69H567v3.72a10.69,10.69,0,0,1,3.19-3.3,5.86,5.86,0,0,1,3.41-1.06,5,5,0,0,1,2.87.85l-1.7,2.77a3.49,3.49,0,0,0-1.7,0,4.67,4.67,0,0,0-3.09,1.27,8.78,8.78,0,0,0-2.34,4.16,39,39,0,0,0-.64,8.83v8.62h-3.3Z"/><path class="cls-3" d="M604.68,746.69v25.44h-3.19v-4.37a15.26,15.26,0,0,1-4.68,3.73,12.55,12.55,0,0,1-5.64,1.28,12.29,12.29,0,0,1-9.15-3.94,12.93,12.93,0,0,1-3.83-9.48,13.17,13.17,0,0,1,18.83-12,14.4,14.4,0,0,1,4.47,4v-4.68Zm-13.09,2.44a10.63,10.63,0,0,0-5.1,1.39,9.41,9.41,0,0,0-3.62,3.73,10.54,10.54,0,0,0-1.38,5.21,9.76,9.76,0,0,0,1.38,5.11,10.69,10.69,0,0,0,3.73,3.83,10.55,10.55,0,0,0,5,1.39,11.55,11.55,0,0,0,5.11-1.39,9.75,9.75,0,0,0,3.62-3.62,10.76,10.76,0,0,0,1.28-5.22,10.63,10.63,0,0,0-2.88-7.44,9.36,9.36,0,0,0-3.28-2.12,9.52,9.52,0,0,0-3.85-.65Z"/><path class="cls-3" d="M650,751.9l-2.66,1.71a10.7,10.7,0,0,0-9.15-4.48,10.71,10.71,0,0,0-4.19.7,10.6,10.6,0,0,0-3.57,2.29,9.51,9.51,0,0,0-3,7.23,10.38,10.38,0,0,0,5.21,9,12.15,12.15,0,0,0,5.53,1.39,10.66,10.66,0,0,0,9.15-4.47L650,767a13.56,13.56,0,0,1-4.89,4.26,17,17,0,0,1-7,1.49,13.88,13.88,0,0,1-10-3.83,12.48,12.48,0,0,1-4-9.37,12.92,12.92,0,0,1,1.92-6.82,13.53,13.53,0,0,1,5.1-5,14.83,14.83,0,0,1,7.24-1.7,15.31,15.31,0,0,1,4.89.74,14.2,14.2,0,0,1,4,2A15,15,0,0,1,650,751.9Z"/><path class="cls-3" d="M655.85,746.69h3.3V758.5a25.68,25.68,0,0,0,0,6.07,6.48,6.48,0,0,0,2.66,3.62,9,9,0,0,0,9.36,0,7.24,7.24,0,0,0,2.66-3.51,24.11,24.11,0,0,0,.53-6.28V746.58h3.3V759a19.6,19.6,0,0,1-1.28,8,9.63,9.63,0,0,1-3.61,4.15,12.32,12.32,0,0,1-6.17,1.49,12.47,12.47,0,0,1-6.28-1.49,10.74,10.74,0,0,1-3.73-4.26,22.22,22.22,0,0,1-1.17-8.09Z"/><path class="cls-3" d="M685.32,746.69h3.3v4.36a13.47,13.47,0,0,1,3.51-3.51,9.17,9.17,0,0,1,5.21-1.49,9.57,9.57,0,0,1,3.51.64,7.33,7.33,0,0,1,2.66,2,9.27,9.27,0,0,1,1.91,3.41,12.16,12.16,0,0,1,4.05-4.58,10.52,10.52,0,0,1,5.21-1.49,8.25,8.25,0,0,1,4.68,1.28,7.85,7.85,0,0,1,3,3.72,20.08,20.08,0,0,1,1.06,7.13v14H720v-14a22.3,22.3,0,0,0-.53-5.64,5.74,5.74,0,0,0-2-2.45,5.9,5.9,0,0,0-2.87-.74,7.35,7.35,0,0,0-4.37,1.38,8.44,8.44,0,0,0-2.87,3.73,26.42,26.42,0,0,0-.85,7.77v10h-3.3v-13a25.93,25.93,0,0,0-.53-6.28,5.11,5.11,0,0,0-2-2.66,6,6,0,0,0-3.41-1,7.92,7.92,0,0,0-4.25,1.27,8.44,8.44,0,0,0-2.87,3.73,19.84,19.84,0,0,0-1,7.13v10.65h-3.3Z"/><path class="cls-3" d="M730.32,746.69h3.3v4.68a13.32,13.32,0,0,1,4.47-4,11.67,11.67,0,0,1,5.53-1.28A13.41,13.41,0,0,1,753,768.83a12.41,12.41,0,0,1-9.26,3.94,12.07,12.07,0,0,1-5.53-1.28,13.86,13.86,0,0,1-4.57-3.73v13.52h-3.3Zm13.08,2.44a9.64,9.64,0,0,0-7.12,3,9.9,9.9,0,0,0-2.27,3.41,9.75,9.75,0,0,0-.71,4,10.09,10.09,0,0,0,5,8.84,9.87,9.87,0,0,0,10.1,0,11.67,11.67,0,0,0,3.73-3.83,10.66,10.66,0,0,0,1.38-5.11,11.56,11.56,0,0,0-1.38-5.21,9.69,9.69,0,0,0-3.73-3.73,10.46,10.46,0,0,0-5-1.17Z"/><path class="cls-3" d="M762.45,736.89h3.19v35.24h-3.19Z"/><path class="cls-3" d="M773.62,736.15a2.5,2.5,0,0,1,1,.23,2.44,2.44,0,0,1,.87.62,2.55,2.55,0,0,1,.7,1.36,2.66,2.66,0,0,1-.16,1.53,2.66,2.66,0,0,1-4.9,0,2.75,2.75,0,0,1-.17-1.53,2.7,2.7,0,0,1,.7-1.36,2.67,2.67,0,0,1,1.92-.85ZM772,746.79h3.3v25.45H772Z"/><path class="cls-3" d="M780.85,746.69h3.3v3.72a13.33,13.33,0,0,1,3.19-3.3,5.81,5.81,0,0,1,3.4-1.06,5.49,5.49,0,0,1,3,.85l-1.7,2.77a4.25,4.25,0,0,0-1.81,0,4.64,4.64,0,0,0-3.08,1.27,8.78,8.78,0,0,0-2.34,4.16,39,39,0,0,0-.64,8.83v8.62h-3.3Z"/><path class="cls-3" d="M809.26,736.89h3.29v35.24h-3.29Z"/><path class="cls-3" d="M844.68,746.69v25.44h-3.3v-4.37a15,15,0,0,1-4.57,3.73,12.55,12.55,0,0,1-5.64,1.28,12.24,12.24,0,0,1-9.15-3.94,12.93,12.93,0,0,1-3.83-9.48,13.07,13.07,0,0,1,3.83-9.47,12.68,12.68,0,0,1,9.25-3.83,11.73,11.73,0,0,1,5.64,1.28,13.32,13.32,0,0,1,4.47,4v-4.68Zm-13.08,2.66a10.63,10.63,0,0,0-5.11,1.38,9.41,9.41,0,0,0-3.62,3.73,10.61,10.61,0,0,0-1.38,5.22,9.66,9.66,0,0,0,1.38,5.1,10,10,0,0,0,3.72,3.84,9.9,9.9,0,0,0,15-8.84,10.6,10.6,0,0,0-2.87-7.45,9.74,9.74,0,0,0-3.26-2.22A9.84,9.84,0,0,0,831.6,749.35Z"/><path class="cls-3" d="M864.79,749.35l-2.13,2.13a7.34,7.34,0,0,0-5.11-2.56,4.2,4.2,0,0,0-2.76,1.07,3.36,3.36,0,0,0-.79,1.11,3.41,3.41,0,0,0-.28,1.33,3.79,3.79,0,0,0,1,2.46,12.71,12.71,0,0,0,3.94,2.65,15.3,15.3,0,0,1,4.89,3.63,6.86,6.86,0,0,1,1.28,4,7.69,7.69,0,0,1-2.13,5.32,7.78,7.78,0,0,1-5.53,2.13,10,10,0,0,1-4.26-1,9.06,9.06,0,0,1-3.3-2.66l2.13-2.34a7,7,0,0,0,2.33,2,6.79,6.79,0,0,0,3,.82,4.76,4.76,0,0,0,3.3-1.27,3.93,3.93,0,0,0,.53-5.43,14.29,14.29,0,0,0-4.15-2.77,12.65,12.65,0,0,1-4.68-3.51,6.58,6.58,0,0,1-1.28-3.94,6.25,6.25,0,0,1,2-4.8,6.86,6.86,0,0,1,5-1.91,9.86,9.86,0,0,1,7,3.41Z"/><path class="cls-3" d="M274.89,835.9l2.77,1.48a13.21,13.21,0,0,1-3.09,4.27,12.47,12.47,0,0,1-4,2.55,14.88,14.88,0,0,1-5,.85,12.1,12.1,0,0,1-9.79-4.15,13.56,13.56,0,0,1-3.51-9.16,13.83,13.83,0,0,1,3-8.62,12.48,12.48,0,0,1,4.7-3.79,12.16,12.16,0,0,1,5.94-1.1,12.56,12.56,0,0,1,5.94,1.19,12.7,12.7,0,0,1,4.7,3.81,13.91,13.91,0,0,1,2.77,8.73H256.38a10.66,10.66,0,0,0,2.88,7.24,8.82,8.82,0,0,0,6.7,2.87,12.22,12.22,0,0,0,3.83-.74,9.8,9.8,0,0,0,3.08-1.82A13.22,13.22,0,0,0,274.89,835.9Zm0-6.82a10,10,0,0,0-1.91-4.15,8.78,8.78,0,0,0-3.3-2.55,10.61,10.61,0,0,0-4.36-1,8.9,8.9,0,0,0-6.38,2.45,10.53,10.53,0,0,0-3,5.21Z"/><path class="cls-3" d="M281.7,819h3.94l6.81,9.26,6.7-9.26h3.93l-8.72,12,9.79,13.41h-4.47L292,833.77l-7.77,10.64h-3.83L290,831Z"/><path class="cls-3" d="M307.66,819H311v4.9a12.31,12.31,0,0,1,4.46-4,11.9,11.9,0,0,1,5.54-1.38,13.3,13.3,0,0,1,13.19,13.3,13,13,0,0,1-3.83,9.59,12.54,12.54,0,0,1-4.21,2.95,12.95,12.95,0,0,1-10.58-.29,15.12,15.12,0,0,1-4.57-3.73v13.63h-3.3Zm13.08,2.45a9.39,9.39,0,0,0-3.88.72,9.17,9.17,0,0,0-3.24,2.26,10.63,10.63,0,0,0-3,7.34A9.58,9.58,0,0,0,312,837a9.41,9.41,0,0,0,3.62,3.73,11.54,11.54,0,0,0,5.1,1.38,10.37,10.37,0,0,0,8.73-15.54,9.76,9.76,0,0,0-3.73-3.73,9,9,0,0,0-4.78-1.38Z"/><path class="cls-3" d="M361.7,835.9l2.77,1.49a15.64,15.64,0,0,1-3.19,4.26,12.62,12.62,0,0,1-4,2.55,13.72,13.72,0,0,1-5,.85,11.87,11.87,0,0,1-9.69-4.15,13.56,13.56,0,0,1-3.51-9.16,13.33,13.33,0,0,1,3-8.62,12.27,12.27,0,0,1,4.4-3.66,12.09,12.09,0,0,1,5.6-1.23,12.51,12.51,0,0,1,10.64,5,13.84,13.84,0,0,1,2.76,8.73H342.23a10.66,10.66,0,0,0,2.88,7.24,9.07,9.07,0,0,0,3.09,2.17,8.75,8.75,0,0,0,3.71.7,10.59,10.59,0,0,0,3.73-.74,8.67,8.67,0,0,0,3.08-1.82A13.46,13.46,0,0,0,361.7,835.9Zm0-6.82a10,10,0,0,0-1.91-4.15,9.78,9.78,0,0,0-3.3-2.55,10.61,10.61,0,0,0-4.36-1,8.83,8.83,0,0,0-3.49.57,8.7,8.7,0,0,0-3,1.88,11.6,11.6,0,0,0-3,5.21Z"/><path class="cls-3" d="M396.06,823.87l-2.66,1.59a11.16,11.16,0,0,0-16.8-1.38,9.3,9.3,0,0,0-3.09,7.24,10.22,10.22,0,0,0,5.32,9,11.43,11.43,0,0,0,5.42,1.38,10.63,10.63,0,0,0,9.15-4.47l2.66,1.71a13.54,13.54,0,0,1-4.89,4.25,16.2,16.2,0,0,1-7,1.49,13.73,13.73,0,0,1-10-3.83,12.21,12.21,0,0,1-3-4.26,12.39,12.39,0,0,1-1-5.11,12.55,12.55,0,0,1,1.81-6.81,13.45,13.45,0,0,1,5.1-5,15,15,0,0,1,12.13-1,14.25,14.25,0,0,1,4.05,2A9.73,9.73,0,0,1,396.06,823.87Z"/><path class="cls-3" d="M405.21,809.5h3.3V819h5.11v2.77h-5.11v22.67h-3.3V821.74h-4.47V819h4.47Z"/><path class="cls-3" d="M443.93,819v25.44h-3.29v-4.36a15.16,15.16,0,0,1-4.58,3.73,12.62,12.62,0,0,1-5.64,1.27,12.05,12.05,0,0,1-9.14-3.94,13.64,13.64,0,0,1,0-19,12.83,12.83,0,0,1,4.21-2.93,12.67,12.67,0,0,1,5-1,11.82,11.82,0,0,1,5.64,1.38,12.48,12.48,0,0,1,4.47,4V819Zm-13.08,2.45a9.78,9.78,0,0,0-5.11,1.38,9.39,9.39,0,0,0-3.61,3.73,10.08,10.08,0,0,0-1.39,5.11,10.65,10.65,0,0,0,1.39,5.22,10.12,10.12,0,0,0,8.62,5.21,10.62,10.62,0,0,0,5.1-1.38,9.83,9.83,0,0,0,3.73-3.73A11,11,0,0,0,438,824.4a9.49,9.49,0,0,0-3.25-2.25A9.24,9.24,0,0,0,430.85,821.42Z"/><path class="cls-3" d="M454.15,809.5h3.19V819h5.21v2.77h-5.21v22.67h-3.19V821.74h-4.47V819h4.47Z"/><path class="cls-3" d="M468.62,808.43a2.5,2.5,0,0,1,1,.23,2.82,2.82,0,0,1,.87.62,2.75,2.75,0,0,1,.58.88,2.81,2.81,0,0,1,.17,1,2.36,2.36,0,0,1-.75,1.81,2.58,2.58,0,0,1-.86.64,2.56,2.56,0,0,1-3-.64,2.58,2.58,0,0,1-.57-.82,2.25,2.25,0,0,1-.17-1,2.45,2.45,0,0,1,.17-1,2.57,2.57,0,0,1,.57-.88,2.82,2.82,0,0,1,.87-.62A2.55,2.55,0,0,1,468.62,808.43ZM467,819.08h3.19v25.44H467Z"/><path class="cls-3" d="M474.68,819h3.41l8.61,18.52L495.11,819h3.51L487,844.41h-.64Z"/><path class="cls-3" d="M528.94,819v25.44h-3.19v-4.36a15.57,15.57,0,0,1-4.69,3.73,12.16,12.16,0,0,1-5.53,1.27,12.27,12.27,0,0,1-9.25-3.94,13.41,13.41,0,0,1,9.25-22.88,12.63,12.63,0,0,1,5.75,1.38,12.48,12.48,0,0,1,4.47,4V819Zm-13.09,2.45a9,9,0,0,0-5,1.38,9.73,9.73,0,0,0-3.72,3.73,10.67,10.67,0,0,0-1.39,5.11,11.78,11.78,0,0,0,1.39,5.22A10,10,0,0,0,521,840.69a9.39,9.39,0,0,0,3.61-3.73,9.58,9.58,0,0,0,1.39-5.22,10.07,10.07,0,0,0-.73-4A10.18,10.18,0,0,0,523,824.4a9.26,9.26,0,0,0-3.24-2.26A9.44,9.44,0,0,0,515.85,821.42Z"/><path class="cls-3" d="M549,821.74l-2,2.13a7.76,7.76,0,0,0-5.21-2.56,3.93,3.93,0,0,0-2.66,1.07,3.16,3.16,0,0,0-.85,1.1,3.3,3.3,0,0,0-.32,1.34,3.53,3.53,0,0,0,.95,2.35,12.19,12.19,0,0,0,3.94,2.77,15.72,15.72,0,0,1,5,3.62,6.72,6.72,0,0,1,1.28,4,6.81,6.81,0,0,1-.56,2.85,6.93,6.93,0,0,1-1.68,2.37,7.47,7.47,0,0,1-5.53,2.23,9.42,9.42,0,0,1-7.44-3.62l2-2.34a7.14,7.14,0,0,0,2.34,2,7.05,7.05,0,0,0,3,.84,4.54,4.54,0,0,0,1.78-.3,4.69,4.69,0,0,0,1.52-1,3.78,3.78,0,0,0,1.38-3,3.78,3.78,0,0,0-.85-2.56,17.26,17.26,0,0,0-4.15-2.66,12.65,12.65,0,0,1-4.68-3.51A6.45,6.45,0,0,1,535,825a6.58,6.58,0,0,1,2-4.79,6.94,6.94,0,0,1,2.3-1.52,6.75,6.75,0,0,1,2.7-.5A10.62,10.62,0,0,1,549,821.74Z"/><path class="cls-3" d="M593.51,809.07v35.34h-3.19v-4.36a15.4,15.4,0,0,1-4.68,3.73,13.05,13.05,0,0,1-10.58.29,12.33,12.33,0,0,1-4.21-3,13.64,13.64,0,0,1,0-19,13.11,13.11,0,0,1,9.36-3.93,12.59,12.59,0,0,1,5.64,1.38,12.4,12.4,0,0,1,4.47,4V809.07Zm-13.08,12.35a9,9,0,0,0-5,1.38,9.8,9.8,0,0,0-3.72,3.73,10.33,10.33,0,0,0,0,10.3,10.78,10.78,0,0,0,3.73,3.86,9.95,9.95,0,0,0,10.11,0,9.9,9.9,0,0,0,5-9,10,10,0,0,0-3-7.34,9.17,9.17,0,0,0-3.24-2.26A9.39,9.39,0,0,0,580.43,821.42Z"/><path class="cls-3" d="M622.34,835.9l2.77,1.49a15.1,15.1,0,0,1-3.09,4.26,13.88,13.88,0,0,1-4,2.55,15,15,0,0,1-5,.85,12.1,12.1,0,0,1-9.79-4.15,13.56,13.56,0,0,1-3.51-9.16,13.33,13.33,0,0,1,3-8.62,12.33,12.33,0,0,1,10.1-4.89,12.64,12.64,0,0,1,10.64,5,13.79,13.79,0,0,1,2.77,8.73H603.3a10.69,10.69,0,0,0,2.76,7.24,9.26,9.26,0,0,0,3.11,2.14,9.05,9.05,0,0,0,3.7.73,12.22,12.22,0,0,0,3.83-.74,9.85,9.85,0,0,0,3.09-1.82A13.65,13.65,0,0,0,622.34,835.9Zm0-6.82a10.16,10.16,0,0,0-1.91-4.15,8.86,8.86,0,0,0-3.3-2.55,10.62,10.62,0,0,0-4.37-1,8.91,8.91,0,0,0-6.38,2.45,10.59,10.59,0,0,0-3,5.21Z"/><path class="cls-3" d="M645.32,819h3.29v4.9A13.31,13.31,0,0,1,653,820a10.62,10.62,0,0,1,5.1-1.38,9.24,9.24,0,0,1,5.11,1.49,8.63,8.63,0,0,1,3.3,3.94,22.07,22.07,0,0,1,1,7.66v13.1h-3.19V832.7a22.91,22.91,0,0,0,0-5.85,6.17,6.17,0,0,0-2.12-3.84,6.76,6.76,0,0,0-4.26-1.27,8.4,8.4,0,0,0-5.32,1.91,9.67,9.67,0,0,0-3.08,4.9,34.79,34.79,0,0,0,0,6.92v9.37h-3.3Z"/><path class="cls-3" d="M674,819h3.3v11.82a23.89,23.89,0,0,0,.53,6,6,6,0,0,0,1,2.13,6.32,6.32,0,0,0,1.7,1.6,7.73,7.73,0,0,0,4.68,1.38,8.29,8.29,0,0,0,4.68-1.28,7,7,0,0,0,2.56-3.51,20.43,20.43,0,0,0,.53-6.28V819h3.4v12.46a18.57,18.57,0,0,1-1.27,7.87,9.69,9.69,0,0,1-3.73,4.26,13.52,13.52,0,0,1-12.34,0,9.67,9.67,0,0,1-3.72-4.26,19.59,19.59,0,0,1-1.28-8.09Z"/><path class="cls-3" d="M725.21,835.9l2.77,1.49a13.43,13.43,0,0,1-3.09,4.26,13.62,13.62,0,0,1-4,2.55,15,15,0,0,1-5,.85,12.1,12.1,0,0,1-9.79-4.15,13.56,13.56,0,0,1-3.51-9.16,13.83,13.83,0,0,1,3-8.62,12.33,12.33,0,0,1,10.11-4.89,12.52,12.52,0,0,1,5.93,1.19,12.66,12.66,0,0,1,4.71,3.81A13.84,13.84,0,0,1,729,832H706.17a10.69,10.69,0,0,0,2.76,7.24,9.26,9.26,0,0,0,3.11,2.14,9.07,9.07,0,0,0,3.71.73,12.16,12.16,0,0,0,3.82-.74,9.85,9.85,0,0,0,3.09-1.82A13.65,13.65,0,0,0,725.21,835.9Zm0-6.82a10,10,0,0,0-1.91-4.15,8.78,8.78,0,0,0-3.3-2.55,10.61,10.61,0,0,0-4.36-1,8.88,8.88,0,0,0-6.38,2.45,10.53,10.53,0,0,0-3,5.21Z"/><path class="cls-3" d="M747.55,821.74l-2.13,2.13a7.79,7.79,0,0,0-5.1-2.56,4.3,4.3,0,0,0-2.77,1.07,3.42,3.42,0,0,0-.85,1.1,3.3,3.3,0,0,0-.32,1.34,3.54,3.54,0,0,0,1,2.35,12,12,0,0,0,3.93,2.77,15.87,15.87,0,0,1,5,3.62,6.78,6.78,0,0,1,1.27,4,7,7,0,0,1-.55,2.85,7.07,7.07,0,0,1-1.68,2.37,7.47,7.47,0,0,1-5.53,2.23,9.46,9.46,0,0,1-4.15-1,9.08,9.08,0,0,1-3.3-2.66l2-2.34a7.1,7.1,0,0,0,5.32,2.87,4.94,4.94,0,0,0,3.4-1.27,4.13,4.13,0,0,0,1-1.35,4.19,4.19,0,0,0,.39-1.63,3.89,3.89,0,0,0-1-2.56,17.26,17.26,0,0,0-4.15-2.66,13.71,13.71,0,0,1-4.68-3.51,6.44,6.44,0,0,1-1.17-3.94,6.61,6.61,0,0,1,.46-2.6,6.33,6.33,0,0,1,1.46-2.19,6.87,6.87,0,0,1,5-2A10.6,10.6,0,0,1,747.55,821.74Z"/><path class="cls-3" d="M756.17,809.5h3.3V819h5.11v2.77h-5.11v22.67h-3.3V821.74H751.7V819h4.47Z"/><path class="cls-3" d="M768.3,819h3.3v3.73a11.69,11.69,0,0,1,3.19-3.31,5.86,5.86,0,0,1,3.4-1.16,5.68,5.68,0,0,1,3,.95l-1.7,2.77a3.83,3.83,0,0,0-4.9.85,8.22,8.22,0,0,0-2.34,4.15,38.53,38.53,0,0,0-.63,8.84v8.62h-3.3Z"/><path class="cls-3" d="M796,818.23a13.06,13.06,0,0,1,9.78,4.25,13.62,13.62,0,0,1,3.52,9.26,13.34,13.34,0,0,1-3.73,9.27,13.11,13.11,0,0,1-19.15,0,13.29,13.29,0,0,1-3.72-9.27,13.09,13.09,0,0,1,3.51-9.15,12.71,12.71,0,0,1,4.41-3.27A12.46,12.46,0,0,1,796,818.23Zm0,3.29a9.22,9.22,0,0,0-3.84.74,9.13,9.13,0,0,0-3.18,2.25,10.38,10.38,0,0,0-1.6,12.45,9.89,9.89,0,0,0,2.56,2.94A10,10,0,0,0,804.58,837a10.86,10.86,0,0,0-1.6-12.45,9.55,9.55,0,0,0-3.2-2.22A9.66,9.66,0,0,0,796,821.52Z"/><path class="cls-3" d="M828.08,821.74,826,823.87a7.76,7.76,0,0,0-5.11-2.56,4.25,4.25,0,0,0-2.76,1.07,3.38,3.38,0,0,0-.86,1.09,3.76,3.76,0,0,0-.32,1.35,3.54,3.54,0,0,0,1,2.35,12,12,0,0,0,3.94,2.77,14.56,14.56,0,0,1,5,3.62,6.78,6.78,0,0,1,1.27,4,7,7,0,0,1-.55,2.85,7.07,7.07,0,0,1-1.68,2.37,7.51,7.51,0,0,1-2.48,1.68,7.4,7.4,0,0,1-3,.55,9.93,9.93,0,0,1-4.25-1,9.17,9.17,0,0,1-3.3-2.66l2-2.34a7.25,7.25,0,0,0,2.35,2,7.06,7.06,0,0,0,3,.85,5,5,0,0,0,3.41-1.27,4.28,4.28,0,0,0,1-1.35,4.41,4.41,0,0,0,.38-1.63,3.84,3.84,0,0,0-1-2.56,17.26,17.26,0,0,0-4.15-2.66,13.8,13.8,0,0,1-4.68-3.51A6.44,6.44,0,0,1,814,825a6.61,6.61,0,0,1,.46-2.6,6.47,6.47,0,0,1,1.46-2.19,7.11,7.11,0,0,1,5-2A10.57,10.57,0,0,1,828.08,821.74Z"/><path class="cls-3" d="M473.51,896.47l-2.55,1.6a10.75,10.75,0,0,0-4-3.41A11.46,11.46,0,0,0,454,896.58a9.93,9.93,0,0,0-2.3,3.35,9.76,9.76,0,0,0-.78,4,10.56,10.56,0,0,0,1.49,5.22,10.7,10.7,0,0,0,3.82,3.83,12.11,12.11,0,0,0,5.54,1.28,10.66,10.66,0,0,0,9.15-4.47l2.55,1.7a10.66,10.66,0,0,1-4.89,4.26,14.59,14.59,0,0,1-6.92,1.59,13.58,13.58,0,0,1-5.39-.88,13.83,13.83,0,0,1-4.61-3,12.68,12.68,0,0,1-4-9.37,13.25,13.25,0,0,1,1.91-6.91,12.56,12.56,0,0,1,5.11-4.9,14.87,14.87,0,0,1,7.24-1.81,18.93,18.93,0,0,1,4.89.74,17.26,17.26,0,0,1,3.94,2A11.6,11.6,0,0,1,473.51,896.47Z"/><path class="cls-3" d="M479.36,881.35h3.3v35.24h-3.3Z"/><path class="cls-3" d="M490.53,880.71a3.11,3.11,0,0,1,1.92.75,2.59,2.59,0,0,1,.58.88,2.66,2.66,0,0,1,0,2.07,2.59,2.59,0,0,1-.58.88,2.78,2.78,0,0,1-.88.59,2.64,2.64,0,0,1-1,.2,2.67,2.67,0,0,1-1-.2,2.85,2.85,0,0,1-.87-.59,2.66,2.66,0,0,1,.4-4.15A2.68,2.68,0,0,1,490.53,880.71Zm-1.59,10.65h3.29V916.8h-3.29Z"/><path class="cls-3" d="M520.42,908.18l2.77,1.49a15,15,0,0,1-3.19,4.26,13.91,13.91,0,0,1-3.93,2.55,14.9,14.9,0,0,1-5.11.85,11.83,11.83,0,0,1-9.68-4.15,13.92,13.92,0,0,1,0-17.88,12.1,12.1,0,0,1,4.47-3.62,14.82,14.82,0,0,1,11.57,0,12.48,12.48,0,0,1,4.7,3.82,13.6,13.6,0,0,1,2.88,8.62H502a10.66,10.66,0,0,0,2.77,7.35,9.37,9.37,0,0,0,6.81,2.77,10.74,10.74,0,0,0,3.72-.64,9.2,9.2,0,0,0,3.19-1.81A13.36,13.36,0,0,0,520.42,908.18Zm0-6.81a10.47,10.47,0,0,0-1.91-4.26,10,10,0,0,0-3.3-2.45,10.73,10.73,0,0,0-4.36-1,9.23,9.23,0,0,0-6.38,2.34,10.66,10.66,0,0,0-3,5.33Z"/><path class="cls-3" d="M530.1,891.15h3.62v4.57a15.47,15.47,0,0,1,4.36-3.94,10.67,10.67,0,0,1,5.22-1.27,9.18,9.18,0,0,1,5,1.49,8.56,8.56,0,0,1,3.29,3.94,21.28,21.28,0,0,1,1.07,7.56v13.09h-3.3V904.46a23.94,23.94,0,0,0,0-5.86,6.17,6.17,0,0,0-2.12-3.73A6.64,6.64,0,0,0,543,893.6a8.4,8.4,0,0,0-5.32,1.91,9.91,9.91,0,0,0-3.09,4.9,34.79,34.79,0,0,0,0,6.92v9.26h-3.29Z"/><path class="cls-3" d="M562.13,881.78h3.51v9.37h5.21V894h-5.21v22.57h-3.3V894h-4.47v-2.87h4.47Z"/><path class="cls-3" d="M596.91,908.18l2.77,1.49a14.6,14.6,0,0,1-3.08,4.26,12.49,12.49,0,0,1-9.05,3.4,12.07,12.07,0,0,1-9.78-4.15,13.46,13.46,0,0,1-3.51-9.15,14.13,14.13,0,0,1,3-8.73,12.48,12.48,0,0,1,4.48-3.61,12.32,12.32,0,0,1,5.63-1.18,12.68,12.68,0,0,1,10.64,5,13.6,13.6,0,0,1,2.77,8.62H577.87a10.7,10.7,0,0,0,2.87,7.35,9.28,9.28,0,0,0,3.07,2.08,9.07,9.07,0,0,0,3.64.69,12.21,12.21,0,0,0,3.83-.64,9.77,9.77,0,0,0,3.08-1.81A13.7,13.7,0,0,0,596.91,908.18Zm0-6.81a10.61,10.61,0,0,0-1.91-4.26,9,9,0,0,0-3.3-2.45,9.93,9.93,0,0,0-4.25-1A9.35,9.35,0,0,0,581,896a10.59,10.59,0,0,0-3,5.33Z"/><path class="cls-3" d="M619.47,894l-2.13,2.13a7.54,7.54,0,0,0-5.1-2.55,3.78,3.78,0,0,0-1.5.24,3.65,3.65,0,0,0-1.27.82,3.16,3.16,0,0,0-1.17,2.45,3.52,3.52,0,0,0,1,2.34,12.24,12.24,0,0,0,3.94,2.66,14.58,14.58,0,0,1,5,3.73,6.56,6.56,0,0,1,1.28,3.94,7,7,0,0,1-2.24,5.32,7.3,7.3,0,0,1-5.42,2.23,9.82,9.82,0,0,1-4.26-1,10.75,10.75,0,0,1-3.29-2.66l2-2.34a7.07,7.07,0,0,0,2.35,2,7.15,7.15,0,0,0,3,.8A5.26,5.26,0,0,0,615,913a4.33,4.33,0,0,0,1.38-3,3.75,3.75,0,0,0-1-2.55,13,13,0,0,0-4.14-2.67,13.49,13.49,0,0,1-4.69-3.51,7.15,7.15,0,0,1-1.16-3.94,6.52,6.52,0,0,1,.44-2.65,6.69,6.69,0,0,1,1.47-2.25,7,7,0,0,1,5-1.91A10.6,10.6,0,0,1,619.47,894Z"/><path class="cls-3" d="M628.83,911.48a2.79,2.79,0,0,1,2,.85,2.86,2.86,0,0,1,.85,2,3.18,3.18,0,0,1-.85,2.13,2.68,2.68,0,0,1-.92.64,2.6,2.6,0,0,1-1.1.21,2.8,2.8,0,0,1-2-.85,3.18,3.18,0,0,1-.85-2.13,2.87,2.87,0,0,1,2.87-2.87Z"/><path class="cls-4" d="M232.55,276.89l31.17,71.22h-8.83L246,326.82H219.25l-8.93,21.29h-8.83Zm0,18.1-10.64,25.12h21.28Z"/><path class="cls-4" d="M270.74,348.11V279.66h13.09a93.34,93.34,0,0,1,20.64,1.49,27,27,0,0,1,10.64,4.9,29.18,29.18,0,0,1,8.93,11.6,45.64,45.64,0,0,1,0,32.47,28.41,28.41,0,0,1-8.93,11.61,27,27,0,0,1-10.64,4.89,74,74,0,0,1-17.87,1.49H270.74Zm8.2-7.66h5.21a91.86,91.86,0,0,0,17.45-1.07,18.44,18.44,0,0,0,8.08-3.83,21.27,21.27,0,0,0,6.49-9.05,38.72,38.72,0,0,0,0-25.33,22.16,22.16,0,0,0-6.49-8.95,19.81,19.81,0,0,0-8.19-3.94,91.48,91.48,0,0,0-17.34-1.06h-5.21Z"/><path class="cls-4" d="M360.1,276.89l31.17,71.22h-8.83l-8.93-21.29h-26.7l-8.94,21.29H329Zm0,18.1-10.63,25.12h21.81Z"/><path class="cls-4" d="M406.06,317.45v30.66h-8V279.66h14.37a55.64,55.64,0,0,1,10.63.75,17,17,0,0,1,6.17,2.66,15.15,15.15,0,0,1,5.11,6.39,22.37,22.37,0,0,1,0,18.09,15.15,15.15,0,0,1-5.11,6.39,15.33,15.33,0,0,1-6.17,2.66,52.6,52.6,0,0,1-10.63.85Zm0-7.45h4.15a28.08,28.08,0,0,0,14.05-2.45,9.48,9.48,0,0,0,3.61-8.62,10.62,10.62,0,0,0-3.72-9.16,25.38,25.38,0,0,0-13.94-2.66h-4.15Z"/><path class="cls-4" d="M459.26,348.11V287.43H439.89v-7.77H486.7v7.77H467.45v60.68Z"/><path class="cls-4" d="M510.11,276.89l31.17,71.22h-8.83l-8.94-21.29h-26.7L488,348.11h-8.83Zm0,18.1-10.64,25.12h21.81Z"/><path class="cls-4" d="M548.3,348.11V279.66h14.25a57.36,57.36,0,0,1,10.64.75,16.88,16.88,0,0,1,6.17,2.66,16.14,16.14,0,0,1,5,6.28,18.21,18.21,0,0,1,1.81,8.3,15.15,15.15,0,0,1-2.55,9.05,13.41,13.41,0,0,1-7.56,5.11,14.6,14.6,0,0,1,9.58,5.43,18.26,18.26,0,0,1,3.51,11.39,19.72,19.72,0,0,1-1.49,7.88,16.64,16.64,0,0,1-4.15,6.39,15.25,15.25,0,0,1-7.13,4A57.22,57.22,0,0,1,562,348.11Zm8-61.42v23h6.27a22.22,22.22,0,0,0,12.34-2.55,9.89,9.89,0,0,0,2.81-3.83,10,10,0,0,0,.71-4.69,11.29,11.29,0,0,0-3.3-9.26,21.26,21.26,0,0,0-12.56-2.66Zm0,29.38V341h6.27a68,68,0,0,0,9.47,0,12.12,12.12,0,0,0,4.58-1.81,10.6,10.6,0,0,0,3.29-4.15,13.58,13.58,0,0,0,1.18-6,14.31,14.31,0,0,0-1.39-6.5,10.63,10.63,0,0,0-4.26-4.25,10.35,10.35,0,0,0-3.72-1.39,35.71,35.71,0,0,0-6.7,0h-8.72Z"/><path class="cls-4" d="M602.23,348.11V279.66h8.2v68.45Z"/><path class="cls-4" d="M626.91,348.11V279.66h8.19v60.68h26.28v7.77Z"/><path class="cls-4" d="M670.64,348.11V279.66h8.19v68.45Z"/><path class="cls-4" d="M695.43,348.11V279.66h13.08A92.32,92.32,0,0,1,729,281.15a26.28,26.28,0,0,1,10.64,4.9,29.29,29.29,0,0,1,8.94,11.6,40.8,40.8,0,0,1,3.08,16.29,42.45,42.45,0,0,1-3,16.18,27.79,27.79,0,0,1-9,11.61A26.72,26.72,0,0,1,729,346.62a72.06,72.06,0,0,1-17.76,1.49Zm8.19-7.66h5.21a91.81,91.81,0,0,0,17.45-1.07,18.94,18.94,0,0,0,8.08-3.83,21.23,21.23,0,0,0,6.38-9.05,37,37,0,0,0,0-25.33,21.24,21.24,0,0,0-6.38-8.95,20.44,20.44,0,0,0-8.19-3.94,93.16,93.16,0,0,0-17.34-1.06h-4.89Z"/><path class="cls-4" d="M784.79,276.89l31.06,71.22H807l-8.83-21.29H771.38l-8.83,21.29h-8.83Zm0,18.1-10.64,25.12H796Z"/><path class="cls-4" d="M823,348.11V279.66h13.08a91.27,91.27,0,0,1,20.54,1.49,27.46,27.46,0,0,1,10.63,4.9,30.12,30.12,0,0,1,8.94,11.6,45.64,45.64,0,0,1,0,32.47A28,28,0,0,1,857,346.62a74,74,0,0,1-17.87,1.49H823Zm8.19-7.66h5.21a91.81,91.81,0,0,0,17.45-1.07,18.39,18.39,0,0,0,8.08-3.83,21.27,21.27,0,0,0,6.49-9.05,38.72,38.72,0,0,0,0-25.33,22.07,22.07,0,0,0-6.49-8.95,20.38,20.38,0,0,0-8.19-3.94,93.16,93.16,0,0,0-17.34-1.06H831.6Z"/></g></g></svg>