<svg xmlns="http://www.w3.org/2000/svg" viewBox="0 0 1080 1080.75"><defs><style>.cls-1{fill:#fff;}.cls-2{fill:none;stroke:#004394;stroke-miterlimit:10;}.cls-3{fill:#003875;}.cls-4{fill:#004394;}</style></defs><title>Value_svg_coherencia</title><g id="Capa_2" data-name="Capa 2"><g id="Capa_1-2" data-name="Capa 1"><path class="cls-1" d="M540,1080.75c298.24,0,540-241.93,540-540.38S838.24,0,540,0,0,241.93,0,540.37,241.77,1080.75,540,1080.75Z"/><path class="cls-2" d="M981,646.32c58.61-243.74-91.33-488.88-334.9-547.53S157.54,190.18,98.92,433.92,190.25,922.8,433.83,981.45,922.37,890.06,981,646.32Z"/><path class="cls-3" d="M262.13,401V365.79h.74l23.41,26.93V365.79h3.51V401H289L265.75,374.3V401Z"/><path class="cls-3" d="M297.34,374.94h3.4v12.14a27.67,27.67,0,0,0,0,6.17,6.67,6.67,0,0,0,2.77,3.73,8,8,0,0,0,4.79,1.38,8.32,8.32,0,0,0,4.78-1.28,7.45,7.45,0,0,0,2.66-3.62,24.33,24.33,0,0,0,0-6.38V374.94h3.41v12.78a19.71,19.71,0,0,1-1.28,8.08,9.7,9.7,0,0,1-3.72,4.27,11.79,11.79,0,0,1-6.38,1.59,11.52,11.52,0,0,1-6.28-1.59,9.39,9.39,0,0,1-3.83-4.27,20.39,20.39,0,0,1-1.28-8.3Z"/><path class="cls-3" d="M349.57,392.93l2.77,1.38a18.36,18.36,0,0,1-3.19,4.48,13.55,13.55,0,0,1-4.15,2.55,15.06,15.06,0,0,1-5.11.85A12.22,12.22,0,0,1,330,398a14.39,14.39,0,0,1-.64-18.31,12.55,12.55,0,0,1,10.64-4.9,13,13,0,0,1,10.64,5,13.86,13.86,0,0,1,2.87,8.94h-23.4a10.6,10.6,0,0,0,2.87,7.45,9.43,9.43,0,0,0,6.91,2.87,10,10,0,0,0,3.94-.74,9.11,9.11,0,0,0,3.19-1.81A19.38,19.38,0,0,0,349.57,392.93Zm0-7a13.6,13.6,0,0,0-2-4.37,8.38,8.38,0,0,0-3.4-2.55,10.45,10.45,0,0,0-4.36-1,9.67,9.67,0,0,0-6.6,2.45,10.55,10.55,0,0,0-3.08,5.43Z"/><path class="cls-3" d="M372.45,377.81l-2.24,2.24a7.74,7.74,0,0,0-5.21-2.66,4.29,4.29,0,0,0-2.77,1.06,3.66,3.66,0,0,0-1.17,2.56,3.82,3.82,0,0,0,1,2.45,15.08,15.08,0,0,0,4,2.76,13.34,13.34,0,0,1,5,3.73,6.21,6.21,0,0,1,1.39,4.05,7.45,7.45,0,0,1-2.24,5.43,7.73,7.73,0,0,1-5.63,2.23,10.62,10.62,0,0,1-4.37-1,9.1,9.1,0,0,1-3.3-2.77l2-2.34a7.48,7.48,0,0,0,2.45,2.06,7.56,7.56,0,0,0,3.09.82,5,5,0,0,0,3.4-1.28,4,4,0,0,0,1.39-3.09,3.85,3.85,0,0,0-1-2.55,16.72,16.72,0,0,0-4.15-2.77,13.2,13.2,0,0,1-4.79-3.51,6.83,6.83,0,0,1-1.27-4,6.66,6.66,0,0,1,2-5,7,7,0,0,1,2.35-1.48,6.81,6.81,0,0,1,2.76-.44A10.66,10.66,0,0,1,372.45,377.81Z"/><path class="cls-3" d="M381.49,365.25h3.3v9.69h5.31v2.87h-5.31V401h-3.3V377.81h-4.57v-2.87h4.57Z"/><path class="cls-3" d="M393.62,374.94H397v3.83a12.86,12.86,0,0,1,3.3-3.4,6,6,0,0,1,3.51-1.07,6.75,6.75,0,0,1,3,.85L405,378a4.12,4.12,0,0,0-1.7-.53,4.73,4.73,0,0,0-3.19,1.38,8.65,8.65,0,0,0-2.45,4.26,41,41,0,0,0-.64,9.05V401h-3.4Z"/><path class="cls-3" d="M421.91,374.3a13.19,13.19,0,0,1,5.48,1.09,13,13,0,0,1,4.52,3.28,14,14,0,0,1,0,18.95,12.86,12.86,0,0,1-9.78,4,13.09,13.09,0,0,1-5.32-1,13.25,13.25,0,0,1-4.47-3.06,14,14,0,0,1-3.72-9.59,13.59,13.59,0,0,1,3.51-9.36,13,13,0,0,1,9.78-4.37Zm0,3.3a9.48,9.48,0,0,0-3.89.77,9.2,9.2,0,0,0-3.23,2.32,10,10,0,0,0-3,7.45,10.65,10.65,0,0,0,1.6,4.79,11.54,11.54,0,0,0,3.72,3.83,10.07,10.07,0,0,0,13.93-3.83,11.2,11.2,0,0,0,1.39-5.21,10.69,10.69,0,0,0-3.09-7.46,9.29,9.29,0,0,0-7.45-2.66Z"/><path class="cls-3" d="M454.79,377.81l-2.23,2.24a7.79,7.79,0,0,0-5.22-2.66,4.24,4.24,0,0,0-2.76,1.06,3.59,3.59,0,0,0-.85,1.16,3.43,3.43,0,0,0,.63,3.85,15.08,15.08,0,0,0,4,2.76,15.09,15.09,0,0,1,5.11,3.73,6.84,6.84,0,0,1,1.28,4.05,7.42,7.42,0,0,1-.55,2.94,7.55,7.55,0,0,1-1.68,2.49,7.83,7.83,0,0,1-2.6,1.69,7.56,7.56,0,0,1-3,.54,9.64,9.64,0,0,1-4.25-1,8.64,8.64,0,0,1-3.4-2.77l2-2.34a7.67,7.67,0,0,0,2.46,2,7.83,7.83,0,0,0,3.07.85,5,5,0,0,0,3.4-1.28,4,4,0,0,0,1.39-3.09,3.85,3.85,0,0,0-1-2.55,16.72,16.72,0,0,0-4.15-2.77,13.2,13.2,0,0,1-4.79-3.51,7.38,7.38,0,0,1-.79-6.76,6.61,6.61,0,0,1,1.54-2.29,6.94,6.94,0,0,1,5.1-1.92A10.66,10.66,0,0,1,454.79,377.81Z"/><path class="cls-3" d="M499.47,380.37l-2.66,1.6a11.26,11.26,0,0,0-9.36-4.47,10.52,10.52,0,0,0-7.87,3,10,10,0,0,0-3.2,7.45,10.72,10.72,0,0,0,1.49,5.32,10.09,10.09,0,0,0,3.94,3.94,10.57,10.57,0,0,0,5.64,1.38,11.38,11.38,0,0,0,9.36-4.57l2.66,1.7a11.76,11.76,0,0,1-5,4.37,15.72,15.72,0,0,1-7.13,1.59,14.15,14.15,0,0,1-5.73-.86,14.31,14.31,0,0,1-4.91-3.08,12.76,12.76,0,0,1-4-9.58,13.93,13.93,0,0,1,1.91-7,13.08,13.08,0,0,1,5.22-5,16.59,16.59,0,0,1,12.44-1.06,13.08,13.08,0,0,1,4,2.12A10.7,10.7,0,0,1,499.47,380.37Z"/><path class="cls-3" d="M518.19,374.3a13,13,0,0,1,10,4.37A13.59,13.59,0,0,1,531.7,388a14.12,14.12,0,0,1-3.72,9.59,13.63,13.63,0,0,1-19.58-18.95,13,13,0,0,1,9.79-4.37Zm0,3.3a9.6,9.6,0,0,0-4,.77,9.48,9.48,0,0,0-3.28,2.32,10.63,10.63,0,0,0-3,7.45,11.23,11.23,0,0,0,1.38,5.22,10.75,10.75,0,0,0,3.72,3.83,10.84,10.84,0,0,0,10.22,0,11.64,11.64,0,0,0,3.72-3.83,10.67,10.67,0,0,0,1.28-5.22,10.17,10.17,0,0,0-.71-4,10,10,0,0,0-2.27-3.41,9.29,9.29,0,0,0-3.23-2.32A9.5,9.5,0,0,0,518.19,377.6Z"/><path class="cls-3" d="M537.45,364.93h3.61V401h-3.29Z"/><path class="cls-3" d="M573.62,374.94V401h-3.3v-4.47a14.2,14.2,0,0,1-4.68,3.83,13.3,13.3,0,0,1-5.75,1.28,12.84,12.84,0,0,1-9.46-4,13.82,13.82,0,0,1,.1-19.38A12.69,12.69,0,0,1,560,374.3a11.55,11.55,0,0,1,5.75,1.38,11.82,11.82,0,0,1,4.57,4.05v-4.79Zm-13.4,2.56a10.63,10.63,0,0,0-5.11,1.38,9.85,9.85,0,0,0-3.72,3.83,10.09,10.09,0,0,0,0,10.65,10.66,10.66,0,0,0,3.72,3.94,9.76,9.76,0,0,0,5.11,1.38,10.53,10.53,0,0,0,5.2-1.38,10.64,10.64,0,0,0,3.84-3.73,11.31,11.31,0,0,0,1.27-5.32,10.58,10.58,0,0,0-3-7.56,9.5,9.5,0,0,0-3.32-2.39A9.74,9.74,0,0,0,560.22,377.5Z"/><path class="cls-3" d="M581.38,401V364.93h3.3v14.48a14.23,14.23,0,0,1,4.68-3.83,13.3,13.3,0,0,1,5.75-1.28,12.85,12.85,0,0,1,5.15,1,12.72,12.72,0,0,1,4.31,3,13.28,13.28,0,0,1,2.9,4.45,13.6,13.6,0,0,1,.94,5.23,13.1,13.1,0,0,1-3.94,9.59,12.64,12.64,0,0,1-9.47,4,11.49,11.49,0,0,1-5.74-1.38,13.61,13.61,0,0,1-4.58-4V401Zm13.41-2.55a10.6,10.6,0,0,0,5.1-1.39,9.48,9.48,0,0,0,3.73-3.93,10.77,10.77,0,0,0,0-10.55,9.94,9.94,0,0,0-3.73-3.83,9.81,9.81,0,0,0-5.1-1.49,10.73,10.73,0,0,0-5.21,1.49,8.94,8.94,0,0,0-3.73,3.73,9.94,9.94,0,0,0-1.38,5.32,10.6,10.6,0,0,0,3,7.56,9.93,9.93,0,0,0,7.34,3.09Z"/><path class="cls-3" d="M626.81,374.3a13.09,13.09,0,0,1,10,4.37,14,14,0,0,1,0,18.95,12.9,12.9,0,0,1-9.79,4,13,13,0,0,1-9.78-4,14.08,14.08,0,0,1-3.73-9.59,13.63,13.63,0,0,1,3.51-9.36,13,13,0,0,1,9.79-4.37Zm0,3.3a9.5,9.5,0,0,0-3.9.77,9.29,9.29,0,0,0-3.23,2.32,10,10,0,0,0-3,7.45,10.67,10.67,0,0,0,1.28,5.22,11.64,11.64,0,0,0,3.72,3.83,10.84,10.84,0,0,0,10.22,0,10.75,10.75,0,0,0,3.72-3.83,11.2,11.2,0,0,0,1.38-5.22,10.66,10.66,0,0,0-3.08-7.45,9.27,9.27,0,0,0-7.13-3.09Z"/><path class="cls-3" d="M645.32,374.94h3.4v3.83a14.32,14.32,0,0,1,3.19-3.4,6.5,6.5,0,0,1,3.62-1.07,6.38,6.38,0,0,1,2.88.85L656.7,378a4.57,4.57,0,0,0-1.81-.53,5.28,5.28,0,0,0-3.19,1.38,8.67,8.67,0,0,0-2.34,4.26,41,41,0,0,0-.64,9.05V401h-3.4Z"/><path class="cls-3" d="M687.23,374.94V401h-3.3v-4.47a14.46,14.46,0,0,1-4.78,3.83,12.52,12.52,0,0,1-5.64,1.28,12.64,12.64,0,0,1-9.47-4,13.08,13.08,0,0,1-3-4.44,12.94,12.94,0,0,1-1-5.25,13.77,13.77,0,0,1,3.93-9.69,12.93,12.93,0,0,1,9.47-3.94,12,12,0,0,1,5.85,1.38,13.48,13.48,0,0,1,4.57,4.05v-4.79Zm-13.4,2.56A10.38,10.38,0,0,0,663.51,388a11.7,11.7,0,0,0,1.38,5.22,10.72,10.72,0,0,0,3.83,3.94,9.58,9.58,0,0,0,5.11,1.38,10.5,10.5,0,0,0,5.13-1.4,10.71,10.71,0,0,0,2.21-16.59,10,10,0,0,0-7.34-3.08Z"/><path class="cls-3" d="M720.64,364.93V401h-3.3v-4.47a14.1,14.1,0,0,1-4.68,3.83,13.09,13.09,0,0,1-15.11-2.76,13.23,13.23,0,0,1-3-4.44,12.94,12.94,0,0,1-1-5.25,13.26,13.26,0,0,1,3.93-9.69,12.58,12.58,0,0,1,4.32-3,12.86,12.86,0,0,1,5.15-1,12.24,12.24,0,0,1,5.85,1.38,12.43,12.43,0,0,1,4.47,4.05v-14.8Zm-13.3,12.57a10,10,0,0,0-8.93,5.21,10.68,10.68,0,0,0,0,10.54,10.54,10.54,0,0,0,3.82,3.94,9,9,0,0,0,5,1.38,9.76,9.76,0,0,0,5.21-1.38,10,10,0,0,0,3.83-3.73,11.31,11.31,0,0,0,1.27-5.32,10.65,10.65,0,0,0-3-7.56,9.66,9.66,0,0,0-7.24-3.08Z"/><path class="cls-3" d="M740.53,374.3a13.25,13.25,0,0,1,5.48,1.09,13.11,13.11,0,0,1,4.52,3.28,14,14,0,0,1,0,18.95,12.9,12.9,0,0,1-9.79,4,13.12,13.12,0,0,1-5.32-1,13.31,13.31,0,0,1-4.46-3.06,14.08,14.08,0,0,1-3.73-9.59,13.64,13.64,0,0,1,3.52-9.36,13,13,0,0,1,9.78-4.37Zm0,3.3a9.5,9.5,0,0,0-3.9.77,9.29,9.29,0,0,0-3.23,2.32,10.19,10.19,0,0,0-2.27,3.41,10,10,0,0,0-.7,4,10.67,10.67,0,0,0,1.27,5.22,11.64,11.64,0,0,0,3.72,3.83,10.08,10.08,0,0,0,13.94-3.83,11.08,11.08,0,0,0,1.38-5.22,10.61,10.61,0,0,0-3.08-7.45,9.19,9.19,0,0,0-3.22-2.33A9.4,9.4,0,0,0,740.53,377.6Z"/><path class="cls-3" d="M759,374.94h3.4v3.83a14.36,14.36,0,0,1,3.2-3.4,6.44,6.44,0,0,1,3.61-1.07,6.34,6.34,0,0,1,2.88.85L770.42,378a4.57,4.57,0,0,0-1.8-.53,5.26,5.26,0,0,0-3.19,1.38,8.61,8.61,0,0,0-2.35,4.26,41.58,41.58,0,0,0-.64,9.05V401H759Z"/><path class="cls-3" d="M796.91,392.93l2.77,1.38a14.21,14.21,0,0,1-3.19,4.48,14.45,14.45,0,0,1-4,2.55,15.35,15.35,0,0,1-5.11.85,12.46,12.46,0,0,1-10-4.15,14.18,14.18,0,0,1,0-18.31,12.29,12.29,0,0,1,10.64-4.9,13.25,13.25,0,0,1,5.91,1.24,13.06,13.06,0,0,1,4.73,3.77,15.24,15.24,0,0,1,2.87,8.94H778.08a10.66,10.66,0,0,0,2.88,7.45,9.1,9.1,0,0,0,6.91,2.87,9.64,9.64,0,0,0,3.83-.74,9.11,9.11,0,0,0,3.19-1.81A19.14,19.14,0,0,0,796.91,392.93Zm0-7a11.72,11.72,0,0,0-1.91-4.37,9.23,9.23,0,0,0-3.41-2.55,10.56,10.56,0,0,0-4.46-1,9.89,9.89,0,0,0-6.6,2.45,10.64,10.64,0,0,0-3,5.43Z"/><path class="cls-3" d="M819.89,377.81l-2.12,2.24a8,8,0,0,0-5.32-2.66,4.45,4.45,0,0,0-2.77,1.06,3.49,3.49,0,0,0-.21,5,14.93,14.93,0,0,0,4,2.76,14.19,14.19,0,0,1,5.11,3.73,6.83,6.83,0,0,1,1.27,4.05,7.39,7.39,0,0,1-2.23,5.43,7.69,7.69,0,0,1-2.59,1.69,7.59,7.59,0,0,1-3.05.54,9.75,9.75,0,0,1-4.25-1,8.6,8.6,0,0,1-3.41-2.77l2.13-2.34a7.26,7.26,0,0,0,2.4,2,7.42,7.42,0,0,0,3,.84,5,5,0,0,0,3.41-1.28,4.07,4.07,0,0,0,1-1.39,3.81,3.81,0,0,0,.34-1.7,4.27,4.27,0,0,0-.85-2.55,18.07,18.07,0,0,0-4.25-2.77,13.12,13.12,0,0,1-4.79-3.51,6.84,6.84,0,0,1-1.28-4,6.62,6.62,0,0,1,.49-2.71,6.73,6.73,0,0,1,1.53-2.29,7.26,7.26,0,0,1,5.11-1.92A10.64,10.64,0,0,1,819.89,377.81Z"/><path class="cls-3" d="M331.17,447.22v26H328.3v-4.47a16.7,16.7,0,0,1-4.79,3.94,13.11,13.11,0,0,1-15.11-2.77,13.37,13.37,0,0,1-3.93-9.69,12.91,12.91,0,0,1,1-5.25,13.82,13.82,0,0,1,12.23-8.8,11.9,11.9,0,0,1,5.85,1.38,13.7,13.7,0,0,1,4.58,4V446.8Zm-13.4,2.56a9.77,9.77,0,0,0-5.22,1.38,11.83,11.83,0,0,0-3.72,3.83,10.52,10.52,0,0,0,8.94,15.87,11.61,11.61,0,0,0,5.21-1.39,9.78,9.78,0,0,0,3.72-3.83,9.66,9.66,0,0,0,1.39-5.32,10.7,10.7,0,0,0-3-7.45,10,10,0,0,0-7.45-3.09Z"/><path class="cls-3" d="M351.7,450.1l-2.13,2.23a7.34,7.34,0,0,0-2.33-1.85,7.62,7.62,0,0,0-2.88-.81,4.56,4.56,0,0,0-2.87,1.07,3.64,3.64,0,0,0-.8,1.17,3.42,3.42,0,0,0-.26,1.38,3.94,3.94,0,0,0,.95,2.45,14.39,14.39,0,0,0,3.94,2.66,14.4,14.4,0,0,1,5.11,3.73,7.63,7.63,0,0,1-3.55,11.29,7.76,7.76,0,0,1-3.05.53,8.77,8.77,0,0,1-4.25-1.07,9.35,9.35,0,0,1-3.41-2.66l2.13-2.34a7.35,7.35,0,0,0,2.4,2,7.27,7.27,0,0,0,3,.84,4.79,4.79,0,0,0,3.41-1.28,4,4,0,0,0,1.09-1.37,4.24,4.24,0,0,0,.4-1.71,3.89,3.89,0,0,0-1-2.56,16,16,0,0,0-4.26-2.77,13.09,13.09,0,0,1-4.78-3.62,6.59,6.59,0,0,1-1.28-4,6.84,6.84,0,0,1,.52-2.65,6.73,6.73,0,0,1,1.5-2.25,7.2,7.2,0,0,1,5.11-1.91A10.64,10.64,0,0,1,351.7,450.1Z"/><path class="cls-3" d="M357.23,447.22h3v12.14a26.61,26.61,0,0,0,0,6.18,6.52,6.52,0,0,0,2.77,3.72,7.7,7.7,0,0,0,4.78,1.38,8.13,8.13,0,0,0,4.79-1.38,6.79,6.79,0,0,0,2.66-3.51,25,25,0,0,0,.53-6.39V447.22h3.41V460a19.76,19.76,0,0,1-1.28,8.09,9.37,9.37,0,0,1-3.83,4.26,11.25,11.25,0,0,1-6.28,1.6,11.82,11.82,0,0,1-6.38-1.6,9.13,9.13,0,0,1-3.72-4.26,21.38,21.38,0,0,1-1.28-8.31Z"/><path class="cls-3" d="M387.34,447.22h3.4v4.48a13.17,13.17,0,0,1,3.62-3.63,9.35,9.35,0,0,1,5.32-1.48,7.89,7.89,0,0,1,3.51.74,5.79,5.79,0,0,1,2.77,1.92,10.61,10.61,0,0,1,1.91,3.51,12.6,12.6,0,0,1,4.15-4.58,10.63,10.63,0,0,1,5.43-1.59,8.17,8.17,0,0,1,4.79,1.38,8,8,0,0,1,3,3.73,18.5,18.5,0,0,1,1.07,7.34V473.2h-3.41V459a17.71,17.71,0,0,0-.63-5.75,5.36,5.36,0,0,0-2-2.55,6,6,0,0,0-3.4-1,7.2,7.2,0,0,0-4.47,1.49,8.22,8.22,0,0,0-3,3.83,23.72,23.72,0,0,0-1,8v10.64h-3.29V460.42a27.23,27.23,0,0,0,0-6.38,5.8,5.8,0,0,0-2.13-2.66,6.17,6.17,0,0,0-3.41-1.07,8,8,0,0,0-4.47,1.47,8.07,8.07,0,0,0-2.87,3.75,20.21,20.21,0,0,0-1,7.24v10.64h-3.41Z"/><path class="cls-3" d="M455.21,464.58l2.77,1.49a14.29,14.29,0,0,1-3.19,4.47,12.21,12.21,0,0,1-4,2.44,13.9,13.9,0,0,1-5.22,1,12.37,12.37,0,0,1-5.44-1,12.17,12.17,0,0,1-4.45-3.29,13.66,13.66,0,0,1-3.62-9.37,13.94,13.94,0,0,1,3.09-8.84,12.22,12.22,0,0,1,10.64-4.89,12.75,12.75,0,0,1,10.63,5,13.61,13.61,0,0,1,2.88,8.94H435.85a10.67,10.67,0,0,0,3,7.35,8.85,8.85,0,0,0,6.92,3,9.64,9.64,0,0,0,3.82-.75,9.15,9.15,0,0,0,3.2-1.81A17.31,17.31,0,0,0,455.21,464.58Zm0-6.92a10.6,10.6,0,0,0-2-4.37,8.82,8.82,0,0,0-3.29-2.55,10.64,10.64,0,0,0-4.47-1,9.67,9.67,0,0,0-6.6,2.45,10.58,10.58,0,0,0-3,5.43Z"/><path class="cls-3" d="M465.11,447.22h3.29v4.69a15.72,15.72,0,0,1,4.47-4.05,11.46,11.46,0,0,1,5.32-1.27,8.75,8.75,0,0,1,5.21,1.48,8.57,8.57,0,0,1,3.3,3.94,21.3,21.3,0,0,1,1.07,7.88V473.2h-3.3V460.85a26.79,26.79,0,0,0,0-6.07,5.89,5.89,0,0,0-2.24-3.83,6.68,6.68,0,0,0-4.25-1.28,8,8,0,0,0-5.43,2,9.34,9.34,0,0,0-3.19,4.89,34.08,34.08,0,0,0,0,7.14v9.47h-3.29Z"/><path class="cls-3" d="M508,437.22h3.4v36H508Z"/><path class="cls-3" d="M544.15,447.22v26h-3.09v-4.47a16.14,16.14,0,0,1-4.68,3.94,13.09,13.09,0,0,1-15.1-2.77,13.32,13.32,0,0,1-3.94-9.69,13.07,13.07,0,0,1,3.94-9.68,12.74,12.74,0,0,1,4.12-3.13,12.55,12.55,0,0,1,5-1.24,12.18,12.18,0,0,1,5.85,1.38,12.42,12.42,0,0,1,4.47,4V446.8Zm-13.3,2.56a9.74,9.74,0,0,0-5.21,1.38,11.73,11.73,0,0,0-3.72,3.83,10.7,10.7,0,0,0,0,10.55,10.66,10.66,0,0,0,8.93,5.32,10.67,10.67,0,0,0,5.11-1.39,9.48,9.48,0,0,0,3.83-3.83,11.36,11.36,0,0,0-1.6-12.77,9.84,9.84,0,0,0-3.54-2.4,10,10,0,0,0-4.22-.69Z"/><path class="cls-3" d="M564.79,450.1l-2.13,2.23a7.62,7.62,0,0,0-5.21-2.66,4.61,4.61,0,0,0-2.88,1.07,3.6,3.6,0,0,0-.84,1.16,3.49,3.49,0,0,0-.32,1.39,3.88,3.88,0,0,0,1,2.45,15.05,15.05,0,0,0,4,2.66,15.36,15.36,0,0,1,5.11,3.73A7.62,7.62,0,0,1,560,473.41a7.77,7.77,0,0,1-3.05.54,8.78,8.78,0,0,1-4.26-1.07,8.56,8.56,0,0,1-3.41-2.66l2.14-2.34a7.3,7.3,0,0,0,5.42,2.87,5,5,0,0,0,3.4-1.28,3.85,3.85,0,0,0,1-1.39,3.94,3.94,0,0,0,.35-1.69,4.38,4.38,0,0,0-.86-2.56,16,16,0,0,0-4.25-2.77,13.21,13.21,0,0,1-4.79-3.62,6.59,6.59,0,0,1-1.28-4,6.46,6.46,0,0,1,.49-2.67,6.25,6.25,0,0,1,1.54-2.23,7.18,7.18,0,0,1,5.1-1.91A10.66,10.66,0,0,1,564.79,450.1Z"/><path class="cls-3" d="M584.36,447.22h3.3V452a12.54,12.54,0,0,1,4.57-4,11.53,11.53,0,0,1,5.75-1.38,12.69,12.69,0,0,1,9.47,3.94,13.09,13.09,0,0,1,3,4.43,12.91,12.91,0,0,1,1,5.25,13.26,13.26,0,0,1-3.93,9.69,13.11,13.11,0,0,1-15.11,2.77,16.14,16.14,0,0,1-4.68-3.94v14h-3.3Zm13.3,2.56a9.71,9.71,0,0,0-7.24,3.09,10,10,0,0,0-3,7.45,10.52,10.52,0,0,0,1.28,5.32,9.39,9.39,0,0,0,3.82,3.83,11.21,11.21,0,0,0,5.22,1.39,10.25,10.25,0,0,0,8.83-5.32,10.65,10.65,0,0,0-3.73-14.38A9.74,9.74,0,0,0,597.66,449.78Z"/><path class="cls-3" d="M630,446.16a12.63,12.63,0,0,1,9.89,4.37,12.81,12.81,0,0,1,2.74,4.32,13,13,0,0,1,.88,5,13.17,13.17,0,0,1-1,5.12,13.56,13.56,0,0,1-22.33,4.36,13.73,13.73,0,0,1,0-18.84,12.51,12.51,0,0,1,9.79-4.37Zm0,3.19a9.74,9.74,0,0,0-3.88.81,9.86,9.86,0,0,0-3.25,2.28,10.84,10.84,0,0,0-1.59,12.78,9.43,9.43,0,0,0,3.61,3.72,9.7,9.7,0,0,0,5.11,1.39,9.08,9.08,0,0,0,5.1-1.39,9,9,0,0,0,3.73-3.72,10.87,10.87,0,0,0-1.6-12.78,9.82,9.82,0,0,0-3.4-2.07,10,10,0,0,0-3.93-.59Z"/><path class="cls-3" d="M662.77,450.1l-2.13,2.23a7.9,7.9,0,0,0-5.32-2.66,4.24,4.24,0,0,0-2.77,1.07,3.6,3.6,0,0,0-.84,1.16,3.68,3.68,0,0,0-.33,1.39,4,4,0,0,0,1,2.45,15.05,15.05,0,0,0,4,2.66,16.66,16.66,0,0,1,5.11,3.73,7.57,7.57,0,0,1-1,9.58,7.69,7.69,0,0,1-5.64,2.24,8.77,8.77,0,0,1-4.25-1.07,8.63,8.63,0,0,1-3.41-2.66l2.13-2.34a7.45,7.45,0,0,0,2.4,2,7.31,7.31,0,0,0,3,.84,5,5,0,0,0,3.4-1.28,3.85,3.85,0,0,0,1-1.39,3.79,3.79,0,0,0,.34-1.69,4.3,4.3,0,0,0-.85-2.56,18.07,18.07,0,0,0-4.25-2.77,13.21,13.21,0,0,1-4.79-3.62,6.52,6.52,0,0,1-1.27-4,6.14,6.14,0,0,1,.48-2.67,6.25,6.25,0,0,1,1.54-2.23,7.18,7.18,0,0,1,5.1-1.91A10.66,10.66,0,0,1,662.77,450.1Z"/><path class="cls-3" d="M671.6,437.54h3.29v9.68h5.32v2.88h-5.32v23.1H671.6V450.1H667v-2.88h4.58Z"/><path class="cls-3" d="M684.79,447.22h3.4v12.14a27.76,27.76,0,0,0,0,6.18,7,7,0,0,0,2.77,3.72,8.13,8.13,0,0,0,4.79,1.38,7.7,7.7,0,0,0,4.78-1.38,6.23,6.23,0,0,0,2.66-3.51,20.75,20.75,0,0,0,0-6.39V447.22h3.41V460a19.76,19.76,0,0,1-1.28,8.09,8.56,8.56,0,0,1-3.72,4.26,13.32,13.32,0,0,1-12.66,0,9.37,9.37,0,0,1-3.83-4.26,21.2,21.2,0,0,1-1.28-8.31Z"/><path class="cls-3" d="M713.72,447.22h3.41v3.84a12.56,12.56,0,0,1,3.29-3.41,5.89,5.89,0,0,1,3.52-1.06,6.69,6.69,0,0,1,3,.85l-1.81,2.87a4.5,4.5,0,0,0-1.7-.53,5.3,5.3,0,0,0-3.3,1.38,9.54,9.54,0,0,0-2.35,4.26,40.36,40.36,0,0,0-.63,9.05v8.73h-3.41Z"/><path class="cls-3" d="M755.64,447.22v26h-3.3v-4.47a16.28,16.28,0,0,1-4.68,3.94,13.44,13.44,0,0,1-5.75,1.28,12.9,12.9,0,0,1-9.46-4.05,13.61,13.61,0,0,1-3.83-9.69,13.11,13.11,0,0,1,3.93-9.68,12.63,12.63,0,0,1,4.32-3,12.81,12.81,0,0,1,5.15-1,11.53,11.53,0,0,1,5.75,1.38,12.54,12.54,0,0,1,4.57,4v-4.8Zm-13.4,2.56a9.76,9.76,0,0,0-5.11,1.38A10,10,0,0,0,733.4,455a10.14,10.14,0,0,0,0,10.65,9.45,9.45,0,0,0,3.73,3.94,10.63,10.63,0,0,0,5.11,1.38,11.07,11.07,0,0,0,5.21-1.38,10,10,0,0,0,5.1-9.16,10.35,10.35,0,0,0-10.31-10.64Z"/><path class="cls-3" d="M776.28,450.1,774,452.33a7.36,7.36,0,0,0-5.21-2.66,4.2,4.2,0,0,0-2.76,1.07,3.48,3.48,0,0,0-.85,1.16,3.68,3.68,0,0,0-.33,1.39,4,4,0,0,0,1,2.45,13.76,13.76,0,0,0,4,2.66,14.58,14.58,0,0,1,5,3.73,6.7,6.7,0,0,1,1.39,4.15,7.47,7.47,0,0,1-.55,3,7.39,7.39,0,0,1-1.69,2.48A7.69,7.69,0,0,1,768.4,474a9.19,9.19,0,0,1-4.36-1.07,8.87,8.87,0,0,1-3.29-2.66l2-2.34a7.42,7.42,0,0,0,2.39,2,7.31,7.31,0,0,0,3,.84,5.08,5.08,0,0,0,3.51-1.28,3.85,3.85,0,0,0,1-1.39,3.79,3.79,0,0,0,.34-1.69,3.83,3.83,0,0,0-1-2.56,17,17,0,0,0-4.15-2.77,11.56,11.56,0,0,1-4.79-3.62,6.58,6.58,0,0,1-1.27-4,6.31,6.31,0,0,1,2-4.9,6.88,6.88,0,0,1,5.1-1.91A10.66,10.66,0,0,1,776.28,450.1Z"/><path class="cls-3" d="M289.57,536.86l2.88,1.49a16.16,16.16,0,0,1-3.19,4.37,12.19,12.19,0,0,1-4.15,2.55A13.59,13.59,0,0,1,270,542a14.05,14.05,0,0,1-3.51-9.37,13.79,13.79,0,0,1,3-8.83,12.45,12.45,0,0,1,10.64-4.9,12.64,12.64,0,0,1,10.63,5,13.52,13.52,0,0,1,2.88,8.84H270.21a10.66,10.66,0,0,0,2.88,7.45,9.3,9.3,0,0,0,6.91,3,10.69,10.69,0,0,0,3.83-.74,9.36,9.36,0,0,0,3.19-1.81A12.37,12.37,0,0,0,289.57,536.86Zm0-7a11.19,11.19,0,0,0-1.91-4.25,9.3,9.3,0,0,0-3.4-2.56,10.63,10.63,0,0,0-4.47-.95,9.12,9.12,0,0,0-6.49,2.44,11.18,11.18,0,0,0-3.09,5.32Z"/><path class="cls-3" d="M296.38,519.51h3.94l6.91,9.47,6.92-9.47h3.94l-8.62,11.81,10,13.74h-4l-8-10.65-7.88,10.65h-3.93l9.79-13.74Z"/><path class="cls-3" d="M323.09,519.51h3.29v4.79a15.4,15.4,0,0,1,4.58-4.15,13.4,13.4,0,0,1,15.21,2.66,12.81,12.81,0,0,1,3,4.38,13.07,13.07,0,0,1,1,5.2,13.7,13.7,0,0,1-3.83,9.79,12.69,12.69,0,0,1-9.47,3.94,13.43,13.43,0,0,1-5.75-1.27,14.36,14.36,0,0,1-4.68-3.84v14h-3.29Zm13.4,2.56a9.37,9.37,0,0,0-4,.69,9.51,9.51,0,0,0-3.35,2.28,11.33,11.33,0,0,0-1.7,12.89,9.85,9.85,0,0,0,3.83,3.72,10.52,10.52,0,0,0,5.21,1.49,9.75,9.75,0,0,0,5.11-1.49,10.67,10.67,0,0,0,3.72-3.83,10.75,10.75,0,0,0,0-10.54,9.28,9.28,0,0,0-3.72-3.83A9.6,9.6,0,0,0,336.49,522.07Z"/><path class="cls-3" d="M356,519.51h3.3v11.81a23.72,23.72,0,0,0,0,6.07,6.66,6.66,0,0,0,2.76,3.83,7.72,7.72,0,0,0,4.79,1.39,8,8,0,0,0,4.79-1.39,6.81,6.81,0,0,0,2.66-3.51,26.27,26.27,0,0,0,0-6.39V519.19h3.4V532a20,20,0,0,1-1.28,8.1,10.61,10.61,0,0,1-3.72,4.25,11.75,11.75,0,0,1-6.38,1.49,11.12,11.12,0,0,1-6.28-1.49,9.9,9.9,0,0,1-3.83-4.25,21.38,21.38,0,0,1-1.28-8.31Z"/><path class="cls-3" d="M408,536.86l2.87,1.49a16.16,16.16,0,0,1-3.19,4.37,11.35,11.35,0,0,1-4.15,2.55,13.58,13.58,0,0,1-15.1-3.3,14.43,14.43,0,0,1-.54-18.2,12.45,12.45,0,0,1,10.64-4.9,12.68,12.68,0,0,1,10.64,5,13.51,13.51,0,0,1,2.87,8.84h-23.4a10.6,10.6,0,0,0,2.87,7.45,9.55,9.55,0,0,0,6.92,3,12.27,12.27,0,0,0,3.93-.74,12.12,12.12,0,0,0,3.19-1.81A14.68,14.68,0,0,0,408,536.86Zm0-7a11.37,11.37,0,0,0-1.92-4.25,9.22,9.22,0,0,0-3.4-2.56,10.6,10.6,0,0,0-4.36-.95,9.23,9.23,0,0,0-6.6,2.44,11.24,11.24,0,0,0-3.08,5.32Z"/><path class="cls-3" d="M431.07,522.38l-2.24,2.13a7.75,7.75,0,0,0-5.21-2.55,3.59,3.59,0,0,0-1.49.24,3.69,3.69,0,0,0-1.28.82,3.16,3.16,0,0,0-.88,1.14,3.32,3.32,0,0,0-.29,1.42,3.53,3.53,0,0,0,1,2.34,11.62,11.62,0,0,0,4,2.77,14.78,14.78,0,0,1,5,3.72,6.53,6.53,0,0,1,1.39,4.16,7.4,7.4,0,0,1-2.24,5.42,7.58,7.58,0,0,1-5.64,2.13,10.45,10.45,0,0,1-4.36-1,9,9,0,0,1-3.3-2.66l2-2.44a7.24,7.24,0,0,0,5.43,3,4.73,4.73,0,0,0,1.9-.33,4.8,4.8,0,0,0,1.61-1.06,4.13,4.13,0,0,0,1-1.34,4.27,4.27,0,0,0,.38-1.64,3.79,3.79,0,0,0-.95-2.55,14.42,14.42,0,0,0-4.15-2.77,12.91,12.91,0,0,1-4.9-3.62,7.52,7.52,0,0,1-1.17-4.05,6.45,6.45,0,0,1,.48-2.67,6.37,6.37,0,0,1,1.55-2.22,6.82,6.82,0,0,1,2.35-1.49,7,7,0,0,1,2.75-.43A10.66,10.66,0,0,1,431.07,522.38Z"/><path class="cls-3" d="M439.89,510h3.3v9.69h5.32v2.87h-5.32V545.7h-3.3V522.59h-4.57v-2.87h4.57Z"/><path class="cls-3" d="M479.47,519.51v26h-3.3V541a14.76,14.76,0,0,1-4.79,3.84,12.67,12.67,0,0,1-5.74,1.27,12.37,12.37,0,0,1-5.3-1A12.65,12.65,0,0,1,456,542a13.34,13.34,0,0,1-3.94-9.8,13.51,13.51,0,0,1,6.66-11.07,13.48,13.48,0,0,1,12.92-.42,15.11,15.11,0,0,1,4.57,4.15V520Zm-13.4,2.56a9.75,9.75,0,0,0-5.22,1.38,9.85,9.85,0,0,0-3.72,3.83A10.52,10.52,0,0,0,461,541.65a9.72,9.72,0,0,0,5.11,1.49,10.55,10.55,0,0,0,5.21-1.49,9,9,0,0,0,3.72-3.72A11,11,0,0,0,473.4,525a10,10,0,0,0-6.81-3Z"/><path class="cls-3" d="M500,522.38l-2.13,2.13a7.75,7.75,0,0,0-5.21-2.55,4,4,0,0,0-2.87,1.06,3.74,3.74,0,0,0-.85,1.16,3.31,3.31,0,0,0,.63,3.74,13.09,13.09,0,0,0,4.05,2.77,14.25,14.25,0,0,1,5.1,3.72,7.1,7.1,0,0,1,1.28,4.16,7.43,7.43,0,0,1-4.87,7.1,7.31,7.31,0,0,1-3,.45,9.94,9.94,0,0,1-4.26-1,9.11,9.11,0,0,1-3.4-2.66l2.13-2.44a7.15,7.15,0,0,0,5.42,3,4.36,4.36,0,0,0,1.85-.32,4.5,4.5,0,0,0,1.56-1.06,4,4,0,0,0,1.07-1.32,3.84,3.84,0,0,0,.41-1.66,3.79,3.79,0,0,0-1-2.55,13.79,13.79,0,0,0-4.26-2.77,13.32,13.32,0,0,1-4.79-3.62,6.83,6.83,0,0,1-1.27-4.05,6.18,6.18,0,0,1,.55-2.75,6.43,6.43,0,0,1,1.68-2.25,7.26,7.26,0,0,1,5.11-1.92A10.64,10.64,0,0,1,500,522.38Z"/><path class="cls-3" d="M544.68,524.94,542,526.53a10.62,10.62,0,0,0-9.36-4.57,10.43,10.43,0,0,0-4.25.72,10.8,10.8,0,0,0-3.62,2.36,9.87,9.87,0,0,0-2.36,3.39,9.77,9.77,0,0,0-.73,4.07,10.67,10.67,0,0,0,1.39,5.32,9.66,9.66,0,0,0,3.93,3.83,11.68,11.68,0,0,0,15-3.08l2.66,1.7a11.74,11.74,0,0,1-5,4.36,15.11,15.11,0,0,1-7.12,1.49,14,14,0,0,1-10.64-3.83,12.43,12.43,0,0,1-3-4.36,12.64,12.64,0,0,1-1-5.22,13.38,13.38,0,0,1,1.92-7,12.37,12.37,0,0,1,5.21-5,14.36,14.36,0,0,1,7.45-1.81,15.85,15.85,0,0,1,9,2.77A10.58,10.58,0,0,1,544.68,524.94Z"/><path class="cls-3" d="M563.4,518.87a12.94,12.94,0,0,1,10,4.26A13.5,13.5,0,0,1,577,532.6a13.17,13.17,0,0,1-1,5.12,13.36,13.36,0,0,1-2.86,4.36,12.59,12.59,0,0,1-9.79,4,12.32,12.32,0,0,1-5.29-.94,12.45,12.45,0,0,1-4.39-3.1,13.75,13.75,0,0,1,0-18.85,12.5,12.5,0,0,1,4.36-3.26A12.36,12.36,0,0,1,563.4,518.87Zm0,3.2a9.73,9.73,0,0,0-7.12,3.08,10.65,10.65,0,0,0-1.6,12.78,9.39,9.39,0,0,0,3.62,3.72,10.13,10.13,0,0,0,10.21,0,8.9,8.9,0,0,0,3.72-3.72,10.85,10.85,0,0,0-1.59-12.78,10,10,0,0,0-7.24-3.08Z"/><path class="cls-3" d="M583.62,519.51h3.29v4.68a14.28,14.28,0,0,1,4.47-4,11.47,11.47,0,0,1,5.32-1.28,8.59,8.59,0,0,1,8.51,5.43,20.7,20.7,0,0,1,1.07,7.77v13.42H603V533.14a25.68,25.68,0,0,0,0-6.07,5.9,5.9,0,0,0-2.23-3.84,6.77,6.77,0,0,0-4.26-1.27,8.45,8.45,0,0,0-5.43,1.91,9.8,9.8,0,0,0-3.19,5,34,34,0,0,0,0,7.13v9.48h-4.25Z"/><path class="cls-3" d="M625.32,519.51h3.4v3.83a12.37,12.37,0,0,1,3.2-3.41,6.51,6.51,0,0,1,3.61-1.06,5.82,5.82,0,0,1,3,.85l-1.81,2.77H635a4.79,4.79,0,0,0-3.3,1.38,8.72,8.72,0,0,0-2.34,4.26,41,41,0,0,0-.64,9v8.73h-3.4Z"/><path class="cls-3" d="M663.19,536.86l2.87,1.49a14.1,14.1,0,0,1-3.29,4.37,10.68,10.68,0,0,1-4,2.55,13.58,13.58,0,0,1-15.1-3.3A14.15,14.15,0,0,1,640,532.6a13.91,13.91,0,0,1,3.09-8.83,12.19,12.19,0,0,1,10.64-4.9,12.75,12.75,0,0,1,10.63,5,15,15,0,0,1,2.88,8.84H643.83a10,10,0,0,0,2.87,7.45,9.43,9.43,0,0,0,3.14,2.23,9.28,9.28,0,0,0,3.78.75,12.28,12.28,0,0,0,3.83-.74,9.36,9.36,0,0,0,3.19-1.81A17.23,17.23,0,0,0,663.19,536.86Zm0-7a11.32,11.32,0,0,0-1.91-4.26,9.25,9.25,0,0,0-3.41-2.56,10.56,10.56,0,0,0-4.47-.95,9.42,9.42,0,0,0-6.59,2.44,10.66,10.66,0,0,0-3,5.33Z"/><path class="cls-3" d="M672.66,510H676v36h-3.3Z"/><path class="cls-3" d="M708.83,519.51v26h-3.3V541a13.56,13.56,0,0,1-4.79,3.84,12.47,12.47,0,0,1-5.63,1.27,12.69,12.69,0,0,1-9.47-3.94,13.7,13.7,0,0,1-3.94-9.79,13.4,13.4,0,0,1,1-5.19,13.26,13.26,0,0,1,2.93-4.39,13,13,0,0,1,4.38-3,12.81,12.81,0,0,1,5.19-1,12.59,12.59,0,0,1,5.75,1.28,14,14,0,0,1,4.57,4.15v-4.79Zm-13.41,2.56a10.57,10.57,0,0,0-8.93,15.86,10.73,10.73,0,0,0,3.83,3.83,9.81,9.81,0,0,0,5.1,1.49,10.76,10.76,0,0,0,5.22-1.28,8.92,8.92,0,0,0,3.72-3.73,9.84,9.84,0,0,0,1.39-5.32,10.7,10.7,0,0,0-3-7.56,10.12,10.12,0,0,0-3.33-2.42A9.76,9.76,0,0,0,695.42,522.07Z"/><path class="cls-3" d="M741.6,524.94l-2.66,1.59A11.92,11.92,0,0,0,721.6,525a10.43,10.43,0,0,0-1.6,12.78,9.11,9.11,0,0,0,3.94,3.83,10.62,10.62,0,0,0,5.64,1.49,11.57,11.57,0,0,0,9.36-4.57l2.66,1.7a13.14,13.14,0,0,1-5,4.36,15.6,15.6,0,0,1-7.24,1.49,14.44,14.44,0,0,1-10.63-3.83,13.06,13.06,0,0,1-4.05-9.58,13.38,13.38,0,0,1,1.92-7,13,13,0,0,1,5.32-5,14.52,14.52,0,0,1,7.44-1.81,16,16,0,0,1,5,.74,13.28,13.28,0,0,1,4,2A12.68,12.68,0,0,1,741.6,524.94Z"/><path class="cls-3" d="M749.15,508.75a2.66,2.66,0,0,1,2.78,3.29,3.55,3.55,0,0,1-1.73,2,2.51,2.51,0,0,1-2.1,0,2.62,2.62,0,0,1-.87-.64,2.77,2.77,0,0,1-.72-1.4,2.82,2.82,0,0,1,.16-1.57,2.82,2.82,0,0,1,2.48-1.72Zm-1.7,10.65h3.4v26h-3.4Z"/><path class="cls-3" d="M770.11,518.87a13,13,0,0,1,10,4.26,14,14,0,0,1,3.51,9.47,13.64,13.64,0,0,1-3.73,9.48,12.65,12.65,0,0,1-4.45,3.09,13.48,13.48,0,0,1-15.12-3.09,13.36,13.36,0,0,1-2.86-4.36,13.17,13.17,0,0,1-1-5.12,13.72,13.72,0,0,1,3.62-9.37,12.66,12.66,0,0,1,10-4.36Zm0,3.2a9.92,9.92,0,0,0-3.94.8,10,10,0,0,0-3.3,2.28,10.65,10.65,0,0,0-3,7.45,11.55,11.55,0,0,0,1.38,5.33,9.64,9.64,0,0,0,3.72,3.72,11.11,11.11,0,0,0,10.11.32,9.39,9.39,0,0,0,3.61-3.73,10.62,10.62,0,0,0-1.59-12.77,9.8,9.8,0,0,0-7-3.4Zm1.59-14.81h5.22l-7.13,7.35h-3.3Z"/><path class="cls-3" d="M789.79,519.51h3.4v4.68a12.22,12.22,0,0,1,4.47-4,11.2,11.2,0,0,1,5.32-1.28,9.21,9.21,0,0,1,5.11,1.38,9.77,9.77,0,0,1,3.4,4,22.75,22.75,0,0,1,1.06,7.77v13.42h-3.4V533.14a36.19,36.19,0,0,0,0-6.07,6.88,6.88,0,0,0-2.23-3.84,7.08,7.08,0,0,0-4.36-1.27,8.43,8.43,0,0,0-5.43,1.91,9.67,9.67,0,0,0-3.19,5,35.39,35.39,0,0,0,0,7.13v9.48h-3.41Z"/><path class="cls-3" d="M243.19,581.68h3.41v36.09h-3.41Z"/><path class="cls-3" d="M265.32,591.05a12.82,12.82,0,0,1,9.79,4.15,13.28,13.28,0,0,1,3.61,9.37,13.49,13.49,0,0,1-3.83,9.58,12.76,12.76,0,0,1-4.4,3.07,12.58,12.58,0,0,1-5.28,1,12.86,12.86,0,0,1-9.78-4,14,14,0,0,1,0-18.95,13,13,0,0,1,9.89-4.15Zm0,3.3a9.75,9.75,0,0,0-7.23,3.08,10.87,10.87,0,0,0-1.6,12.78,9,9,0,0,0,3.72,3.73,10.92,10.92,0,0,0,10.22,0,9.39,9.39,0,0,0,3.61-3.73,10.85,10.85,0,0,0-1.59-12.78,9.86,9.86,0,0,0-3.25-2.28A9.73,9.73,0,0,0,265.32,594.35Zm1.6-14.8H272l-7,7.35h-3.3Z"/><path class="cls-3" d="M307,591.79h3.3v20.66a24.6,24.6,0,0,1-1,8.09,10,10,0,0,1-4.57,5.42,13.91,13.91,0,0,1-7.77,2,17,17,0,0,1-6-1,11.53,11.53,0,0,1-4.36-2.56,14.93,14.93,0,0,1-3.08-4.68h3.61a9.48,9.48,0,0,0,3.83,3.83,12.14,12.14,0,0,0,5.85,1.28,11.93,11.93,0,0,0,5.75-1.28,7.33,7.33,0,0,0,3.3-3.19,13.65,13.65,0,0,0,1.06-6.28v-1.39a12.91,12.91,0,0,1-4.57,3.73,14.11,14.11,0,0,1-5.85,1.28,13.74,13.74,0,0,1-6.71-1.81,12.51,12.51,0,0,1-4.89-4.79,12.65,12.65,0,0,1-1.7-6.6,12.21,12.21,0,0,1,1.81-6.71,12.91,12.91,0,0,1,4.89-5,13.7,13.7,0,0,1,6.7-1.81,11.92,11.92,0,0,1,5.43,1.28,14.8,14.8,0,0,1,4.89,3.93Zm-9.89,2.56a10.67,10.67,0,0,0-5.22,1.27,9.57,9.57,0,0,0-3.83,3.84,10.71,10.71,0,0,0-1.38,5.21,9.68,9.68,0,0,0,6.59,9.44,9.43,9.43,0,0,0,4,.46,9.67,9.67,0,0,0,4-.59,10,10,0,0,0,3.43-2.17,9.64,9.64,0,0,0,2.87-7.24,10.64,10.64,0,0,0-1.38-5.32,9.92,9.92,0,0,0-3.62-3.63,10.72,10.72,0,0,0-5.11-1.27Z"/><path class="cls-3" d="M319.15,581a2.3,2.3,0,0,1,1.06.2,2.36,2.36,0,0,1,.85.65,2.69,2.69,0,0,1,0,3.83,2.68,2.68,0,0,1-1.91.8,2.67,2.67,0,0,1-2.64-2.19,2.8,2.8,0,0,1,.16-1.57,2.7,2.7,0,0,1,1-1.23A2.85,2.85,0,0,1,319.15,581Zm-1.7,10.65h3.29v26h-3.08Z"/><path class="cls-3" d="M353,597.12l-2.66,1.7a11.48,11.48,0,0,0-17.24-1.49,9.79,9.79,0,0,0-3.19,7.34,10.69,10.69,0,0,0,1.49,5.43,9.84,9.84,0,0,0,3.94,3.84,12,12,0,0,0,15-3.2l2.66,1.81a13.25,13.25,0,0,1-5,4.37,17,17,0,0,1-7.13,1.48,13.68,13.68,0,0,1-5.74-.82,14,14,0,0,1-4.9-3.11,12.33,12.33,0,0,1-3.1-4.29,12.49,12.49,0,0,1-1.05-5.19,13.46,13.46,0,0,1,1.92-7,14.91,14.91,0,0,1,5.21-5.11,15.78,15.78,0,0,1,12.45-1,13.1,13.1,0,0,1,4,2A10.72,10.72,0,0,1,353,597.12Z"/><path class="cls-3" d="M385.32,591.79v26H382V613.3a14.35,14.35,0,0,1-4.68,3.83,13.28,13.28,0,0,1-5.74,1.27,12.73,12.73,0,0,1-9.47-3.93,14,14,0,0,1-3.94-9.8,13.15,13.15,0,0,1,4-9.58A12.57,12.57,0,0,1,382,596.58v-4.79Zm-13.41,2.56a9.8,9.8,0,0,0-8.93,5.21,11.24,11.24,0,0,0-1.39,5.22,10.8,10.8,0,0,0,1.49,5.22,9.51,9.51,0,0,0,3.73,3.94,9.75,9.75,0,0,0,5.1,1.38,10.72,10.72,0,0,0,5.22-1.38,10,10,0,0,0,3.83-3.73,11.44,11.44,0,0,0,1.28-5.32,10.65,10.65,0,0,0-3-7.56,9.73,9.73,0,0,0-7.34-3Z"/><path class="cls-3" d="M403.62,591.79h3.51l8.94,20,8.61-20h3.62l-15.53,35.35h-3.51l5-11.5Z"/><path class="cls-3" d="M472,591.79v26h-3.3V613.3a14.35,14.35,0,0,1-4.68,3.83,13.74,13.74,0,0,1-10.84.3,12.76,12.76,0,0,1-4.27-3,13.53,13.53,0,0,1-3.93-9.8,13.06,13.06,0,0,1,1-5.2,13.3,13.3,0,0,1,3-4.38,13,13,0,0,1,4.32-3,12.84,12.84,0,0,1,5.15-1,13.56,13.56,0,0,1,5.86,1.38,12.67,12.67,0,0,1,4.46,4.15v-4.79Zm-13.3,2.56a10.66,10.66,0,0,0-5.1,19.8,9.45,9.45,0,0,0,5.1,1.38,9.67,9.67,0,0,0,5.11-1.38,8.63,8.63,0,0,0,3.83-3.73A11.24,11.24,0,0,0,469,605.1a10.69,10.69,0,0,0-3-7.56,10,10,0,0,0-7.35-3.19Z"/><path class="cls-3" d="M505.53,581.68v36.09h-3.3V613.3a14.25,14.25,0,0,1-4.68,3.83,13.21,13.21,0,0,1-5.74,1.27,12.73,12.73,0,0,1-9.47-3.93,13.82,13.82,0,0,1-3.83-9.8,12.89,12.89,0,0,1,1-5.2,13.08,13.08,0,0,1,3-4.38,13,13,0,0,1,15.21-2.66,12.17,12.17,0,0,1,4.57,4.15v-14.9Zm-13.4,12.67a10.69,10.69,0,0,0-5.11,1.27,9.54,9.54,0,0,0-3.72,3.94A11,11,0,0,0,487,614.15a9.67,9.67,0,0,0,5.11,1.38,10.6,10.6,0,0,0,5.21-1.38,9.3,9.3,0,0,0,3.83-3.73,11.2,11.2,0,0,0,1.28-5.32,10.7,10.7,0,0,0-3-7.56,9.56,9.56,0,0,0-7.34-3.19Z"/><path class="cls-3" d="M535,609.14l2.87,1.49a14.26,14.26,0,0,1-3.29,4.37,12.35,12.35,0,0,1-4.05,2.55,14.8,14.8,0,0,1-5.1.85,12.54,12.54,0,0,1-10-4.15,14.43,14.43,0,0,1-3.62-9.47,13.62,13.62,0,0,1,3.09-8.73,12.31,12.31,0,0,1,10.63-5,12.74,12.74,0,0,1,10.64,5.11A14.91,14.91,0,0,1,539,605h-23.4a10,10,0,0,0,2.87,7.46,9.66,9.66,0,0,0,3.16,2.16,9.49,9.49,0,0,0,3.76.71,10.83,10.83,0,0,0,7-2.45A16.76,16.76,0,0,0,535,609.14Zm0-7a10.67,10.67,0,0,0-1.91-4.26,10.61,10.61,0,0,0-7.88-3.62,9.5,9.5,0,0,0-6.49,2.45,11.25,11.25,0,0,0-3.08,5.43Z"/><path class="cls-3" d="M570.11,597.12l-2.56,1.7a10.53,10.53,0,0,0-4.12-3.54,13.56,13.56,0,0,0-9.6-.31,10.6,10.6,0,0,0-3.62,2.36,10.18,10.18,0,0,0-2.3,3.35,9.93,9.93,0,0,0-.78,4,10.61,10.61,0,0,0,1.38,5.43,10,10,0,0,0,4,3.84,10.71,10.71,0,0,0,5.64,1.38,11.45,11.45,0,0,0,5.24-1.15,11.31,11.31,0,0,0,4.12-3.43l2.56,1.81a12.46,12.46,0,0,1-5,4.36A16.54,16.54,0,0,1,558,618.4a13.85,13.85,0,0,1-5.74-.83,14.08,14.08,0,0,1-4.9-3.1,12.64,12.64,0,0,1-4-9.48,13.36,13.36,0,0,1,1.91-7,14.11,14.11,0,0,1,5.21-5.11,15.74,15.74,0,0,1,7.45-1.81,15.06,15.06,0,0,1,4.89.85,13.72,13.72,0,0,1,4.16,2A11.44,11.44,0,0,1,570.11,597.12Z"/><path class="cls-3" d="M576.17,591.79h3.3v12.14a24.66,24.66,0,0,0,0,6.07,6.74,6.74,0,0,0,2.76,3.83,8.52,8.52,0,0,0,4.79,1.38,9,9,0,0,0,4.79-1.38,7.29,7.29,0,0,0,2.66-3.51,25.88,25.88,0,0,0,.53-6.39V591.79h3.4v12.78a20,20,0,0,1-1.27,8.09,9.84,9.84,0,0,1-3.83,4.25A12,12,0,0,1,587,618.4a12.66,12.66,0,0,1-6.38-1.49,9.33,9.33,0,0,1-3.73-4.36,20.58,20.58,0,0,1-1.27-8.3Z"/><path class="cls-3" d="M632.23,591.79v26h-3.29V613.3a14.39,14.39,0,0,1-4.69,3.83,13.21,13.21,0,0,1-5.74,1.27,12.57,12.57,0,0,1-5.14-1,12.76,12.76,0,0,1-4.33-3,13.87,13.87,0,0,1-3.83-9.8,13.3,13.3,0,0,1,19.15-12.24,12.27,12.27,0,0,1,4.58,4.15v-4.79Zm-13.4,2.56a10.72,10.72,0,0,0-5.11,1.27,9.54,9.54,0,0,0-3.72,3.94,9.92,9.92,0,0,0,0,10.65,9.42,9.42,0,0,0,3.72,3.94,9.67,9.67,0,0,0,5.11,1.38,10.57,10.57,0,0,0,5.21-1.38,10,10,0,0,0,3.83-3.73,11.2,11.2,0,0,0,1.28-5.32,10.7,10.7,0,0,0-3-7.56,9.79,9.79,0,0,0-7.34-3.19Z"/><path class="cls-3" d="M665.75,581.68v36.09h-3.3V613.3a13.83,13.83,0,0,1-4.79,3.83,13.3,13.3,0,0,1-15.11-2.66,13.86,13.86,0,0,1,0-19.38,13.3,13.3,0,0,1,4.32-3,13,13,0,0,1,5.15-1.05,12.78,12.78,0,0,1,5.85,1.38,14,14,0,0,1,4.58,4.15v-14.9Zm-13.41,12.67a9.79,9.79,0,0,0-8.93,5.21,10.65,10.65,0,0,0-1.39,5.22,11.09,11.09,0,0,0,1.39,5.22,10.77,10.77,0,0,0,3.82,3.94,9.78,9.78,0,0,0,5.11,1.38,10.68,10.68,0,0,0,5.21-1.38,9,9,0,0,0,3.73-3.73,11,11,0,0,0-1.6-12.88,10,10,0,0,0-7.34-3Z"/><path class="cls-3" d="M699.15,591.79v26h-3.3V613.3a14.35,14.35,0,0,1-4.68,3.83,12.93,12.93,0,0,1-15.1-2.66,13.68,13.68,0,0,1-3-4.5,13.33,13.33,0,0,1-1-5.3,12.89,12.89,0,0,1,1-5.2,13.18,13.18,0,0,1,3-4.38,12.84,12.84,0,0,1,9.46-4,13.48,13.48,0,0,1,5.85,1.38,12.62,12.62,0,0,1,4.47,4.15v-4.79Zm-13.3,2.56a10.56,10.56,0,0,0-8.93,15.86,10.49,10.49,0,0,0,3.83,3.94,9,9,0,0,0,5,1.38,9.75,9.75,0,0,0,5.22-1.38,8.63,8.63,0,0,0,3.83-3.73,11.31,11.31,0,0,0,1.27-5.32,10.65,10.65,0,0,0-3-7.56,9.57,9.57,0,0,0-7.24-3.19Z"/><path class="cls-3" d="M742.13,609.14l2.87,1.49a16,16,0,0,1-3.19,4.37,14.21,14.21,0,0,1-4.15,2.55,14.82,14.82,0,0,1-5.11.85,12.58,12.58,0,0,1-10-4.15,14.43,14.43,0,0,1-3.51-9.47,13.56,13.56,0,0,1,3-8.73,12.58,12.58,0,0,1,10.64-5,12.74,12.74,0,0,1,10.64,5.11,14.91,14.91,0,0,1,2.87,8.83h-23.4a10.63,10.63,0,0,0,2.87,7.46,9.33,9.33,0,0,0,6.91,2.87,10.6,10.6,0,0,0,3.83-.64,11.5,11.5,0,0,0,3.2-1.81A14.44,14.44,0,0,0,742.13,609.14Zm0-7a10,10,0,0,0-9.79-7.88,9.48,9.48,0,0,0-6.49,2.45,12.09,12.09,0,0,0-3.08,5.43Z"/><path class="cls-3" d="M752,591.79h3.41v4.58a12.93,12.93,0,0,1,4.47-3.94,10.54,10.54,0,0,1,5.21-1.38,9.33,9.33,0,0,1,5.21,1.49,8.19,8.19,0,0,1,3.3,4,20,20,0,0,1,1.17,7.77v13.42h-3.4V605.84a37.06,37.06,0,0,0,0-6,7.56,7.56,0,0,0-2.24-3.93,7,7,0,0,0-4.36-1.28,8,8,0,0,0-5.43,2,9.71,9.71,0,0,0-3.19,5,35.9,35.9,0,0,0,0,7v9.58h-3.4Z"/><path class="cls-3" d="M808.51,594.56l-2.13,2.23a7.79,7.79,0,0,0-5.21-2.55,4.06,4.06,0,0,0-2.87,1.07,3.22,3.22,0,0,0-.85,1.09,3.34,3.34,0,0,0-.32,1.35,3.69,3.69,0,0,0,1,2.45,14.74,14.74,0,0,0,4,2.77,14.49,14.49,0,0,1,5.11,3.72,6.83,6.83,0,0,1,1.27,4,7.44,7.44,0,0,1-.55,3,7.51,7.51,0,0,1-1.68,2.48,7.74,7.74,0,0,1-2.59,1.71,7.41,7.41,0,0,1-3.05.52,9.82,9.82,0,0,1-4.26-.95,10.74,10.74,0,0,1-3.4-2.66l2.13-2.45a7.3,7.3,0,0,0,5.42,2.87,4.83,4.83,0,0,0,3.41-1.27,4.06,4.06,0,0,0,1.07-1.33,4,4,0,0,0,.42-1.65,3.87,3.87,0,0,0-1-2.56,13.79,13.79,0,0,0-4.26-2.77,14.39,14.39,0,0,1-4.78-3.62,6.76,6.76,0,0,1-1.28-4,6.28,6.28,0,0,1,2-4.9,6.93,6.93,0,0,1,5.11-2A10.62,10.62,0,0,1,808.51,594.56Z"/><path class="cls-3" d="M814,591.79h3.62v12.14a25.26,25.26,0,0,0,.53,6.07,7,7,0,0,0,2.66,3.83,9.19,9.19,0,0,0,4.9,1.38,8.46,8.46,0,0,0,4.68-1.38,6.85,6.85,0,0,0,2.76-3.51,26.27,26.27,0,0,0,0-6.39V591.79h3.41v12.78a20.12,20.12,0,0,1-1.28,8.09,9.84,9.84,0,0,1-3.83,4.25,12,12,0,0,1-6.28,1.49,12.66,12.66,0,0,1-6.38-1.49,8.82,8.82,0,0,1-3.72-4.36,20.42,20.42,0,0,1-1.28-8.3Z"/><path class="cls-3" d="M217.87,654v3.3a8.4,8.4,0,0,0-3.19-.85,3.56,3.56,0,0,0-1.59,0s-.75,0-.86,1a14.77,14.77,0,0,0,0,2.66v3.51h5.43v3h-5.43v23.11h-3.4V666.52h-3.4v-3h3.4v-4a10.87,10.87,0,0,1,0-3.94,3.69,3.69,0,0,1,1.7-1.91,5.58,5.58,0,0,1,3-.75A14.28,14.28,0,0,1,217.87,654Z"/><path class="cls-3" d="M234.89,663.33a13.6,13.6,0,0,1,13.51,13.74,13.66,13.66,0,0,1-3.83,9.57,13.49,13.49,0,0,1-4.46,3,13.63,13.63,0,0,1-10.54,0,13.49,13.49,0,0,1-4.46-3,13.66,13.66,0,0,1-3.83-9.57,13.28,13.28,0,0,1,3.61-9.37,12.87,12.87,0,0,1,10-4.37Zm0,3.3a9.32,9.32,0,0,0-7.12,3.09,10,10,0,0,0-3,7.45,10.81,10.81,0,0,0,5,9.05,10.82,10.82,0,0,0,10.21,0,9.21,9.21,0,0,0,3.72-3.83,9.9,9.9,0,0,0,1.39-5.22,10,10,0,0,0-3-7.45,9.64,9.64,0,0,0-7.34-3.09Z"/><path class="cls-3" d="M253.83,664h3.4v3.83a12.9,12.9,0,0,1,3.3-3.41,6.84,6.84,0,0,1,3.51-1.06,6.75,6.75,0,0,1,3,.85l-1.81,2.88a3.75,3.75,0,0,0-1.7,0,5,5,0,0,0-3.3,1.28,9.42,9.42,0,0,0-2.34,4.36,40,40,0,0,0-.64,8.94v8.84h-3.4Z"/><path class="cls-3" d="M269.25,664h3.41v4.58a14.83,14.83,0,0,1,3.51-3.73,10.69,10.69,0,0,1,5.43-1.49,7.9,7.9,0,0,1,3.51.75,6.9,6.9,0,0,1,2.76,2,8.94,8.94,0,0,1,1.92,3.51,11.18,11.18,0,0,1,4.15-4.68,10.61,10.61,0,0,1,5.42-1.6,7.61,7.61,0,0,1,4.68,1.39,7.45,7.45,0,0,1,3.09,3.83,18.19,18.19,0,0,1,1.06,7.24v14.26h-3.4V675.79a17.72,17.72,0,0,0-.64-5.75,5.16,5.16,0,0,0-2-2.45,6.14,6.14,0,0,0-3.51-1,7.21,7.21,0,0,0-4.37,1.38,8.23,8.23,0,0,0-3,3.84,23.44,23.44,0,0,0-1,8v10.65H287V677.17a20.24,20.24,0,0,0-.64-6.39,5.21,5.21,0,0,0-2-2.77,6,6,0,0,0-3.4-1,7.1,7.1,0,0,0-4.36,1.38,7.36,7.36,0,0,0-3,3.73,21.11,21.11,0,0,0-1,7.24v10.64h-3.41Z"/><path class="cls-3" d="M341.06,664v26.08h-3.29v-4.47a14.2,14.2,0,0,1-4.68,3.83A13.06,13.06,0,0,1,318,686.64a13.74,13.74,0,0,1,0-19.26,12.88,12.88,0,0,1,4.31-3,13.06,13.06,0,0,1,5.16-1,12,12,0,0,1,5.85,1.39,12.3,12.3,0,0,1,4.47,4V664Zm-12.76,2.55a10.66,10.66,0,0,0-8.94,16,10.57,10.57,0,0,0,3.83,3.94,9.14,9.14,0,0,0,5.11,1.39,9.64,9.64,0,0,0,5.1-1.39,9.22,9.22,0,0,0,3.83-3.72,11.24,11.24,0,0,0,1.28-5.33,10.69,10.69,0,0,0-2.87-7.56,10,10,0,0,0-7.34-3.3Z"/><path class="cls-3" d="M388.08,654v36.09h-3.29v-4.47a14.2,14.2,0,0,1-4.68,3.83A13.07,13.07,0,0,1,365,686.64a13.74,13.74,0,0,1,0-19.26,12.88,12.88,0,0,1,4.31-3,13.06,13.06,0,0,1,5.16-1,12,12,0,0,1,5.85,1.39,12.3,12.3,0,0,1,4.47,4V654Zm-13.29,12.56a10.69,10.69,0,0,0-5.21,1.39,10.53,10.53,0,0,0-3.73,3.94,10.81,10.81,0,0,0,3.83,14.58,9.5,9.5,0,0,0,5.11,1.39,9.64,9.64,0,0,0,5.1-1.39,9.22,9.22,0,0,0,3.83-3.72,11.27,11.27,0,0,0,1.28-5.33,10.69,10.69,0,0,0-2.87-7.56,10,10,0,0,0-3.32-2.42A10.17,10.17,0,0,0,374.79,666.52Z"/><path class="cls-3" d="M417.55,681.43l2.88,1.49a17.83,17.83,0,0,1-3.2,4.36,13,13,0,0,1-9.25,3.41,12.63,12.63,0,0,1-10-4.15,14.34,14.34,0,0,1-3.51-9.47,14,14,0,0,1,3-8.84,12.36,12.36,0,0,1,4.7-3.78,12.53,12.53,0,0,1,5.94-1.12,13,13,0,0,1,10.64,5,14.09,14.09,0,0,1,2.87,8.94H398.19a10.68,10.68,0,0,0,2.88,7.45A9.29,9.29,0,0,0,408,687.6a12,12,0,0,0,3.94-.64,16.14,16.14,0,0,0,3.19-1.91A13.64,13.64,0,0,0,417.55,681.43Zm0-7a10.67,10.67,0,0,0-1.91-4.26,10.81,10.81,0,0,0-3.41-2.66,10.69,10.69,0,0,0-4.35-1,9.73,9.73,0,0,0-6.6,2.45,10.72,10.72,0,0,0-3.09,5.43Z"/><path class="cls-3" d="M441.07,664h3.4v4.79a12.51,12.51,0,0,1,4.57-4,11.43,11.43,0,0,1,5.75-1.39,13.74,13.74,0,0,1,9.47,23.31,13.07,13.07,0,0,1-15.11,2.77,14.1,14.1,0,0,1-4.68-3.83v13.95h-3.4Zm13.4,2.55a9.94,9.94,0,0,0-4,.79,9.83,9.83,0,0,0-3.35,2.3,10.7,10.7,0,0,0-2.88,7.56,11.44,11.44,0,0,0,1.28,5.32,9.24,9.24,0,0,0,3.83,3.73,9.77,9.77,0,0,0,5.22,1.38,9.34,9.34,0,0,0,5-1.38,10.83,10.83,0,0,0,3.84-3.94,10.18,10.18,0,0,0-8.94-15.76Z"/><path class="cls-3" d="M496.28,681.43l2.87,1.49a17.54,17.54,0,0,1-3.19,4.36,13.07,13.07,0,0,1-9.26,3.41,12.22,12.22,0,0,1-9.89-4.15,14.39,14.39,0,0,1-.64-18.31,12.52,12.52,0,0,1,10.64-4.9,13,13,0,0,1,10.64,5,14.08,14.08,0,0,1,2.87,8.95h-23.4a10.62,10.62,0,0,0,2.87,7.45,9.39,9.39,0,0,0,3.16,2.15,9.48,9.48,0,0,0,3.75.72,12,12,0,0,0,3.94-.64,16.14,16.14,0,0,0,3.19-1.91A13.92,13.92,0,0,0,496.28,681.43Zm0-7a10.69,10.69,0,0,0-1.92-4.26,10.89,10.89,0,0,0-3.4-2.66,10.77,10.77,0,0,0-4.36-1A9.77,9.77,0,0,0,480,669a10.63,10.63,0,0,0-3.08,5.43Z"/><path class="cls-3" d="M506.28,664h2.87v4.68a13.72,13.72,0,0,1,4.47-3.93,10.65,10.65,0,0,1,5.32-1.39,9.23,9.23,0,0,1,5.1,1.49,8.44,8.44,0,0,1,3.41,4,22.71,22.71,0,0,1,1.06,7.77v13.41h-3.4V677.59a34.77,34.77,0,0,0,0-6,7.1,7.1,0,0,0-2.24-3.94,6.68,6.68,0,0,0-4.25-1.28,8.08,8.08,0,0,0-5.53,2,8.46,8.46,0,0,0-3.09,5,33,33,0,0,0,0,7v9.58h-3.3Z"/><path class="cls-3" d="M549.15,666.85,547,669.08a8,8,0,0,0-5.21-2.66,4.08,4.08,0,0,0-2.87,1.17,3.13,3.13,0,0,0-.86,1.09,3.22,3.22,0,0,0-.31,1.36,3.77,3.77,0,0,0,1,2.45,14.91,14.91,0,0,0,4,2.76,13.11,13.11,0,0,1,5.1,3.73,6.76,6.76,0,0,1,1.28,4,7.34,7.34,0,0,1-2.23,5.43,7.59,7.59,0,0,1-5.64,2.24,10,10,0,0,1-4.26-1,8.73,8.73,0,0,1-3.4-2.77l2.12-2.34a7.43,7.43,0,0,0,2.4,2,7.32,7.32,0,0,0,3,.85,4.84,4.84,0,0,0,3.41-1.28,3.83,3.83,0,0,0,1-1.39,4,4,0,0,0,.35-1.7,3.69,3.69,0,0,0-.86-2.55,18.72,18.72,0,0,0-4.25-2.77,13.2,13.2,0,0,1-4.79-3.51,6.83,6.83,0,0,1-1.27-4,6.61,6.61,0,0,1,.48-2.71,6.84,6.84,0,0,1,1.54-2.3,7.29,7.29,0,0,1,5.11-1.91A10.63,10.63,0,0,1,549.15,666.85Z"/><path class="cls-3" d="M581,664v26.08h-3.3v-4.47a14.1,14.1,0,0,1-4.68,3.83,13.42,13.42,0,0,1-18.11-7.22,13.54,13.54,0,0,1-.94-5.23,13.4,13.4,0,0,1,13.41-13.63,11.46,11.46,0,0,1,5.75,1.39,11.72,11.72,0,0,1,4.57,4V664Zm-13.3,2.55a10.78,10.78,0,0,0-5.21,19.91,9.64,9.64,0,0,0,5.1,1.39,9.9,9.9,0,0,0,5.22-1.39,9.33,9.33,0,0,0,3.83-3.72,11.35,11.35,0,0,0,1.27-5.33,10.61,10.61,0,0,0-3-7.56,9.62,9.62,0,0,0-3.26-2.42A9.73,9.73,0,0,0,567.66,666.52Z"/><path class="cls-3" d="M587.24,664h3.4v3.83a12.6,12.6,0,0,1,3.3-3.41,6.81,6.81,0,0,1,3.51-1.06,7.1,7.1,0,0,1,3,.85l-1.81,2.88a3.75,3.75,0,0,0-1.7,0,5,5,0,0,0-3.3,1.28,9.24,9.24,0,0,0-2.34,4.36,38.84,38.84,0,0,0-.64,8.94v8.84h-3.4Z"/><path class="cls-3" d="M613.94,664h3.61l8.94,20.12L635.1,664h3.63l-15.54,35.56h-3.51l5-11.5Z"/><path class="cls-3" d="M656.6,664H660v4.79a12.22,12.22,0,0,1,4.47-4,12,12,0,0,1,5.85-1.39,13,13,0,0,1,9.47,4,13.74,13.74,0,0,1,0,19.26,12.84,12.84,0,0,1-9.47,4.05,12.55,12.55,0,0,1-5.64-1.28,13.36,13.36,0,0,1-4.68-3.83v13.95h-3.4Zm13.4,2.55a10.08,10.08,0,0,0-7.34,3.09,11,11,0,0,0-1.59,12.88,9.66,9.66,0,0,0,3.72,3.73A10.57,10.57,0,0,0,670,687.6a9.61,9.61,0,0,0,5.1-1.38,10.69,10.69,0,0,0-5.1-19.91Z"/><path class="cls-3" d="M688.72,664h3.41v3.83a10.72,10.72,0,0,1,3.19-3.41,7.49,7.49,0,0,1,3.51-1.06,6.75,6.75,0,0,1,3,.85l-1.7,2.88a4.25,4.25,0,0,0-1.81,0,4.83,4.83,0,0,0-3.19,1.28,9.34,9.34,0,0,0-2.45,4.36,51.33,51.33,0,0,0,0,8.94v8.84h-3.41Z"/><path class="cls-3" d="M717,663.33a13,13,0,0,1,9.9,4.37,13.28,13.28,0,0,1,3.61,9.37,13.7,13.7,0,0,1-3.83,9.57,13.49,13.49,0,0,1-4.46,3,13.52,13.52,0,0,1-18.84-12.57A13.34,13.34,0,0,1,707,667.7a12.83,12.83,0,0,1,10-4.37Zm0,3.3a9.36,9.36,0,0,0-7.13,3.09,10.09,10.09,0,0,0-3,7.45,9.9,9.9,0,0,0,1.39,5.22,9.73,9.73,0,0,0,3.62,3.83,10.82,10.82,0,0,0,10.21,0,9.21,9.21,0,0,0,3.72-3.83,11.08,11.08,0,0,0,.67-9.26,10,10,0,0,0-2.26-3.41,9.64,9.64,0,0,0-7.35-3.09Z"/><path class="cls-3" d="M761.92,669.72l-2.66,1.7a11.69,11.69,0,0,0-3.68-3.1,11.88,11.88,0,0,0-9.38-.88,12.24,12.24,0,0,0-4.18,2.38,10.62,10.62,0,0,0,2.24,16.72,11.29,11.29,0,0,0,5.63,1.38,11.08,11.08,0,0,0,5.25-1.13,11.24,11.24,0,0,0,4.12-3.44l2.66,1.8a11.59,11.59,0,0,1-5,4.26,15.53,15.53,0,0,1-7.12,1.6,13.85,13.85,0,0,1-10.64-3.94,12.32,12.32,0,0,1-4-9.48,14.29,14.29,0,0,1,1.81-7,13.55,13.55,0,0,1,5.32-5.11,15.49,15.49,0,0,1,16.48,1.06A11.74,11.74,0,0,1,761.92,669.72Z"/><path class="cls-3" d="M790.21,681.43l2.88,1.49a17.58,17.58,0,0,1-3.2,4.36,13,13,0,0,1-9.25,3.41,12.63,12.63,0,0,1-10-4.15,14.34,14.34,0,0,1-3.51-9.47,14,14,0,0,1,3-8.84,12.31,12.31,0,0,1,4.71-3.78,12.45,12.45,0,0,1,5.92-1.12,13,13,0,0,1,10.64,5,14,14,0,0,1,2.87,8.94h-23.4a10.67,10.67,0,0,0,2.87,7.45,9.33,9.33,0,0,0,6.92,2.87,11.9,11.9,0,0,0,3.93-.64,15.93,15.93,0,0,0,3.2-1.91A13.64,13.64,0,0,0,790.21,681.43Zm0-7a10.67,10.67,0,0,0-1.91-4.26,9.9,9.9,0,0,0-7.77-3.62,9.79,9.79,0,0,0-6.6,2.45,10.71,10.71,0,0,0-3.08,5.43Z"/><path class="cls-3" d="M826.17,654v36.09h-3.3v-4.47a14.67,14.67,0,0,1-4.78,3.83A13.07,13.07,0,0,1,803,686.64a13.73,13.73,0,0,1,9.47-23.31,11.8,11.8,0,0,1,5.85,1.39,13.44,13.44,0,0,1,4.57,4V654Zm-13.4,12.56a10.75,10.75,0,0,0-5.22,1.39,10.86,10.86,0,0,0,.11,18.52,9.68,9.68,0,0,0,5.11,1.39,10.58,10.58,0,0,0,5.21-1.39,9.64,9.64,0,0,0,3.72-3.72,11.29,11.29,0,0,0,1.39-5.33,10.7,10.7,0,0,0-3-7.56,10,10,0,0,0-3.33-2.42A10.09,10.09,0,0,0,812.77,666.52Z"/><path class="cls-3" d="M855.53,681.43l2.87,1.49a17.54,17.54,0,0,1-3.19,4.36,13.39,13.39,0,0,1-4.15,2.56,15.25,15.25,0,0,1-5.1.85,12.18,12.18,0,0,1-5.43-.93,12.31,12.31,0,0,1-4.47-3.22,14.42,14.42,0,0,1-.64-18.31,12.74,12.74,0,0,1,4.72-3.77,12.58,12.58,0,0,1,5.92-1.13,13,13,0,0,1,10.64,5,14.09,14.09,0,0,1,2.88,8.95H836.17a10.71,10.71,0,0,0,2.87,7.45A9.44,9.44,0,0,0,846,687.6a12.09,12.09,0,0,0,3.94-.64,15.79,15.79,0,0,0,3.18-1.91A13.68,13.68,0,0,0,855.53,681.43Zm0-7a10.67,10.67,0,0,0-1.91-4.26,9.83,9.83,0,0,0-3.41-2.66,10.73,10.73,0,0,0-4.36-1,9.73,9.73,0,0,0-6.59,2.45,10.72,10.72,0,0,0-3.09,5.43Z"/><path class="cls-3" d="M864.26,664h3.4v3.83a14.56,14.56,0,0,1,3.19-3.41,7.49,7.49,0,0,1,3.51-1.06,6.75,6.75,0,0,1,3,.85l-1.7,2.88a4.25,4.25,0,0,0-1.81,0,5,5,0,0,0-3.19,1.28,8.44,8.44,0,0,0-2.34,4.36,39.4,39.4,0,0,0-.64,8.94v8.84h-3.4Z"/><path class="cls-3" d="M260.21,741.68l-2.66,1.6a10.74,10.74,0,0,0-4.1-3.46,10.59,10.59,0,0,0-5.26-1,10.66,10.66,0,0,0-7.87,3,10,10,0,0,0-3.19,7.45,10.59,10.59,0,0,0,1.49,5.32,10,10,0,0,0,3.93,3.94,12.6,12.6,0,0,0,5.64,1.39,11.46,11.46,0,0,0,5.24-1.16,11.19,11.19,0,0,0,4.12-3.42l2.66,1.7a11.64,11.64,0,0,1-5,4.37,15.55,15.55,0,0,1-7.12,1.59A13.76,13.76,0,0,1,237.45,759a12.68,12.68,0,0,1-4.15-9.58,13.6,13.6,0,0,1,7.13-12,16.59,16.59,0,0,1,12.44-1.06,13.33,13.33,0,0,1,4.05,2.13A10.65,10.65,0,0,1,260.21,741.68Z"/><path class="cls-3" d="M278.94,735.62a13,13,0,0,1,5.47,1.08,13.28,13.28,0,0,1,4.53,3.28,13.63,13.63,0,0,1-19.58,18.95,14.27,14.27,0,0,1,0-18.95,13,13,0,0,1,9.58-4.36Zm0,3.29a9.23,9.23,0,0,0-7.13,3.09,10.67,10.67,0,0,0-3.09,7.46,11.2,11.2,0,0,0,1.39,5.21,10.63,10.63,0,0,0,13.83,3.46,10.69,10.69,0,0,0,3.83-3.46,11.19,11.19,0,0,0,1.38-5.21,10.63,10.63,0,0,0-3.09-7.46,9.41,9.41,0,0,0-7.12-3.09Z"/><path class="cls-3" d="M298.72,736.25H302v4.69a15.72,15.72,0,0,1,4.47-4.05,11.19,11.19,0,0,1,5.32-1.27,9.15,9.15,0,0,1,5.1,1.49,8.69,8.69,0,0,1,3.41,3.93,23.38,23.38,0,0,1,1.06,7.88v13.41h-3.72V749.88a34.89,34.89,0,0,0,0-6,6.07,6.07,0,0,0-6.49-5.22,8.09,8.09,0,0,0-5.53,2,8.63,8.63,0,0,0-3.09,4.89,35.39,35.39,0,0,0,0,7.13v9.58h-3.3Z"/><path class="cls-3" d="M341.6,726.25h3.3v36.08h-3.3Z"/><path class="cls-3" d="M364.15,735.62a13,13,0,0,1,5.47,1.08,13.28,13.28,0,0,1,4.53,3.28,14,14,0,0,1,0,18.95,12.9,12.9,0,0,1-9.79,4,13,13,0,0,1-9.78-4,14.06,14.06,0,0,1-3.73-9.58,13.34,13.34,0,0,1,3.62-9.37,12.82,12.82,0,0,1,9.68-4.36Zm0,3.29A9.46,9.46,0,0,0,357,742a10,10,0,0,0-3,7.46,9.91,9.91,0,0,0,5,8.94,9.76,9.76,0,0,0,5.11,1.38,9.21,9.21,0,0,0,5.11-1.38,9.73,9.73,0,0,0,3.72-3.73,10.66,10.66,0,0,0-1.7-12.67,9.45,9.45,0,0,0-3.23-2.33A9.33,9.33,0,0,0,364.15,738.91Z"/><path class="cls-3" d="M397,739.13l-2.13,2.23a7.75,7.75,0,0,0-2.39-1.86,7.85,7.85,0,0,0-2.92-.8,4.26,4.26,0,0,0-2.77,1.07,3.46,3.46,0,0,0-.84,1.16,3.38,3.38,0,0,0-.33,1.39,4,4,0,0,0,.95,2.45,13.06,13.06,0,0,0,4.05,2.66,16.85,16.85,0,0,1,5.11,3.83,6.83,6.83,0,0,1,1.27,4,7.3,7.3,0,0,1-.55,3,7.62,7.62,0,0,1-1.68,2.48,7.87,7.87,0,0,1-2.59,1.7,7.76,7.76,0,0,1-3.05.53,9.44,9.44,0,0,1-4.25-1,9.86,9.86,0,0,1-3.41-2.77l2.13-2.35a7.33,7.33,0,0,0,2.39,2,7.47,7.47,0,0,0,3,.84,5,5,0,0,0,3.41-1.28,4,4,0,0,0,1.38-3.09,3.82,3.82,0,0,0-1-2.55,16.81,16.81,0,0,0-4.15-2.77,12.11,12.11,0,0,1-4.79-3.62,6.92,6.92,0,0,1,.75-8.94,6.93,6.93,0,0,1,2.36-1.48,6.78,6.78,0,0,1,2.75-.43A10.6,10.6,0,0,1,397,739.13Z"/><path class="cls-3" d="M414,736.25h3.51l8.73,19,8.61-19h3.62l-11.92,26.08H426Z"/><path class="cls-3" d="M469.47,736.25v26.08H466.6v-4.46a14.39,14.39,0,0,1-4.69,3.83,13.32,13.32,0,0,1-15.21-2.77,13.47,13.47,0,0,1-3.83-9.69,13.37,13.37,0,0,1,3.94-9.69,12.74,12.74,0,0,1,4.32-3,12.45,12.45,0,0,1,5.15-1A11.39,11.39,0,0,1,462,737a11.82,11.82,0,0,1,4.58,4v-4.79Zm-13.3,2.56a10.57,10.57,0,0,0-5.21,1.38,9.81,9.81,0,0,0-3.72,3.84,10.67,10.67,0,0,0,0,10.53A10.51,10.51,0,0,0,451,758.5a10.63,10.63,0,0,0,14.15-3.72,11.31,11.31,0,0,0,1.27-5.32,10.61,10.61,0,0,0-3-7.56,9.67,9.67,0,0,0-7.45-3.09Z"/><path class="cls-3" d="M476.49,726.25h3.4v36.08h-3.4Z"/><path class="cls-3" d="M499.15,735.62A12.88,12.88,0,0,1,509,740a13.34,13.34,0,0,1,3.62,9.37,13.74,13.74,0,0,1-3.83,9.58,12.65,12.65,0,0,1-9.68,4,12.9,12.9,0,0,1-9.79-4,13.79,13.79,0,0,1-3.83-9.58,13.84,13.84,0,0,1,8.14-12.65A13.05,13.05,0,0,1,499.15,735.62Zm0,3.29a9.48,9.48,0,0,0-7.23,3.09,10.65,10.65,0,0,0-1.6,12.67A8.92,8.92,0,0,0,494,758.4a9.21,9.21,0,0,0,5.11,1.38,9.76,9.76,0,0,0,5.11-1.38,9.39,9.39,0,0,0,3.61-3.73,10.63,10.63,0,0,0,1.31-6.6,10.74,10.74,0,0,0-2.9-6.07,9.46,9.46,0,0,0-7.13-3.09Z"/><path class="cls-3" d="M517.56,736.25H521v3.84a12.45,12.45,0,0,1,3.3-3.41,5.84,5.84,0,0,1,3.51-1.06,6.49,6.49,0,0,1,3,.85l-1.81,2.87a4.39,4.39,0,0,0-1.7-.53,4.78,4.78,0,0,0-3.19,1.38,8.8,8.8,0,0,0-2.44,4.26,40.41,40.41,0,0,0-.64,9v8.83h-3.4Z"/><path class="cls-3" d="M555.43,753.61l2.87,1.49a18.78,18.78,0,0,1-3.19,4.47,13.08,13.08,0,0,1-9.26,3.4,12.66,12.66,0,0,1-10-4.15,14.48,14.48,0,0,1-3.51-9.47,13.87,13.87,0,0,1,3-8.84A12.41,12.41,0,0,1,546,735.62a12.89,12.89,0,0,1,10.63,5,13.79,13.79,0,0,1,2.88,8.94H536.06a11.37,11.37,0,0,0,2.88,7.45,9.23,9.23,0,0,0,3.15,2.16,9.33,9.33,0,0,0,3.76.72,10,10,0,0,0,3.94-.75,11.59,11.59,0,0,0,3.19-1.81A14.63,14.63,0,0,0,555.43,753.61Zm0-6.92a10.86,10.86,0,0,0-1.92-4.37,9.27,9.27,0,0,0-3.4-2.55,10.62,10.62,0,0,0-4.37-1,9.65,9.65,0,0,0-6.59,2.45,10.68,10.68,0,0,0-3.09,5.43Z"/><path class="cls-3" d="M578.4,739.13l-2.13,2.23a7.57,7.57,0,0,0-5.2-2.66,4.26,4.26,0,0,0-2.77,1.07,3.12,3.12,0,0,0-.89,1.14,3.26,3.26,0,0,0-.28,1.41,4,4,0,0,0,1,2.45,11.88,11.88,0,0,0,4,2.66,14.76,14.76,0,0,1,5,3.83,6.26,6.26,0,0,1,1.38,4,7.3,7.3,0,0,1-.55,3,7.49,7.49,0,0,1-1.69,2.48,7.66,7.66,0,0,1-2.59,1.68,7.91,7.91,0,0,1-3,.55,9.55,9.55,0,0,1-7.77-3.72L565,756.9a7.26,7.26,0,0,0,2.4,2,7.42,7.42,0,0,0,3,.84,5.11,5.11,0,0,0,3.51-1.28,4.37,4.37,0,0,0,1-1.4,4.48,4.48,0,0,0,.38-1.69,3.82,3.82,0,0,0-1-2.55,16.12,16.12,0,0,0-4.25-2.77,12,12,0,0,1-4.79-3.62,6.55,6.55,0,0,1-1.28-3.93,6.73,6.73,0,0,1,7.13-6.92A10.57,10.57,0,0,1,578.4,739.13Z"/><path class="cls-3" d="M623.83,726.25v36.08h-3.3v-4.46a14.25,14.25,0,0,1-4.68,3.83,13.42,13.42,0,0,1-19-12.46,13.26,13.26,0,0,1,3.94-9.69,12.82,12.82,0,0,1,4.31-3,12.68,12.68,0,0,1,5.15-1,12,12,0,0,1,5.85,1.38,12.4,12.4,0,0,1,4.47,4V726.25Zm-13.3,12.56a10.57,10.57,0,0,0-5.21,1.38A11.67,11.67,0,0,0,601.6,744a10.4,10.4,0,0,0,14,14.47,9.85,9.85,0,0,0,3.83-3.72,11.31,11.31,0,0,0,1.27-5.32,10.59,10.59,0,0,0-2.87-7.56,9.81,9.81,0,0,0-3.35-2.31A9.93,9.93,0,0,0,610.53,738.81Z"/><path class="cls-3" d="M653.3,753.61l2.87,1.49a18.5,18.5,0,0,1-3.19,4.47,13,13,0,0,1-9.26,3.4,12.66,12.66,0,0,1-10-4.15,14.48,14.48,0,0,1-3.51-9.47,13.87,13.87,0,0,1,3-8.84,12.41,12.41,0,0,1,10.64-4.89,12.93,12.93,0,0,1,10.64,5,13.84,13.84,0,0,1,2.87,8.94h-23.4a11.41,11.41,0,0,0,2.87,7.45,9.39,9.39,0,0,0,6.91,2.88,10,10,0,0,0,3.94-.75,11.59,11.59,0,0,0,3.19-1.81A14.63,14.63,0,0,0,653.3,753.61Zm0-6.92a10.73,10.73,0,0,0-1.92-4.37,9.19,9.19,0,0,0-3.4-2.55,10.61,10.61,0,0,0-4.36-1,9.67,9.67,0,0,0-6.6,2.45,10.59,10.59,0,0,0-3.08,5.43Z"/><path class="cls-3" d="M673.94,726.25v3.3a8,8,0,0,0-3.09-.85,2.61,2.61,0,0,0-1.7,0,1.41,1.41,0,0,0-.47.34,1.58,1.58,0,0,0-.28.51,12.83,12.83,0,0,0,0,2.77v3.51h5.43v2.87h-5.11v23.21h-3.4V738.7h-3.4v-2.87h3.4v-4.05a11.77,11.77,0,0,1,.53-4,4.48,4.48,0,0,1,1.81-1.92,6.14,6.14,0,0,1,3-.64A14.15,14.15,0,0,1,673.94,726.25Z"/><path class="cls-3" d="M679.36,725.61a2.45,2.45,0,0,1,1,.17,2.57,2.57,0,0,1,.88.57,2.79,2.79,0,0,1,.63.93,2.74,2.74,0,0,1,.22,1.1,2.67,2.67,0,0,1-.23,1,2.71,2.71,0,0,1-.62.87,2.89,2.89,0,0,1-1.92.73,2.84,2.84,0,0,1-1.91-.73,2.59,2.59,0,0,1-.63-.87,2.66,2.66,0,0,1-.22-1,2.73,2.73,0,0,1,.21-1.1,3,3,0,0,1,.64-.93,2.57,2.57,0,0,1,.88-.57A2.43,2.43,0,0,1,679.36,725.61Zm-1.7,10.64h3.4v26.08h-3.4Z"/><path class="cls-3" d="M688.4,736.25h3.41v4.69a14.17,14.17,0,0,1,4.36-4.05,11.43,11.43,0,0,1,5.32-1.27,9.33,9.33,0,0,1,5.21,1.49A9.08,9.08,0,0,1,710,741a21.29,21.29,0,0,1,1.06,7.88v13.41h-3.29V749.88a24.76,24.76,0,0,0,0-6,6,6,0,0,0-.72-2.19,5.93,5.93,0,0,0-1.52-1.75,6.6,6.6,0,0,0-4.25-1.28,8,8,0,0,0-5.43,2,9.38,9.38,0,0,0-3.19,4.89,36.92,36.92,0,0,0,0,7.13v9.58h-3.41Z"/><path class="cls-3" d="M719.47,725.61a2.43,2.43,0,0,1,1,.17,2.48,2.48,0,0,1,.88.57,3.15,3.15,0,0,1,.58,3.06,2.62,2.62,0,0,1-1.46,1.46,2.79,2.79,0,0,1-1,.17,2.9,2.9,0,0,1-1.09-.17,2.75,2.75,0,0,1-.93-.58,2.62,2.62,0,0,1-.75-1.91,2.65,2.65,0,0,1,.75-2,2.79,2.79,0,0,1,2-.74Zm-1.71,10.64h3.3v26.08h-3.3Z"/><path class="cls-3" d="M753.83,726.25v36.08h-3.3v-4.46a13.7,13.7,0,0,1-4.78,3.83,12.9,12.9,0,0,1-15.11-2.77,13.07,13.07,0,0,1-3.94-9.69,13.78,13.78,0,0,1,3.94-9.69,13.09,13.09,0,0,1,4.33-2.94,12.72,12.72,0,0,1,5.14-1A11.48,11.48,0,0,1,746,737a13.44,13.44,0,0,1,4.57,4V726.25Zm-13.4,12.56a10.36,10.36,0,0,0-8.94,5.22,10.52,10.52,0,0,0,8.94,15.86,11.61,11.61,0,0,0,5.21-1.39,10.77,10.77,0,0,0,2.13-16.6,10,10,0,0,0-7.13-3.09Z"/><path class="cls-3" d="M773.94,735.62a13,13,0,0,1,9.89,4.36,13.34,13.34,0,0,1,3.62,9.37,13.74,13.74,0,0,1-3.83,9.58,13.71,13.71,0,0,1-19.47,0,13.74,13.74,0,0,1-3.83-9.58,13.34,13.34,0,0,1,3.62-9.37,12.87,12.87,0,0,1,10-4.36Zm0,3.29a9.46,9.46,0,0,0-7.13,3.09,10.65,10.65,0,0,0-1.6,12.67,9.41,9.41,0,0,0,3.62,3.73,9.76,9.76,0,0,0,5.11,1.38,9.18,9.18,0,0,0,5.1-1.38,8.86,8.86,0,0,0,3.72-3.73A10.63,10.63,0,0,0,781.17,742a9.6,9.6,0,0,0-7.34-3.09Z"/><path class="cls-3" d="M807,739.13l-2.13,2.23a7.45,7.45,0,0,0-2.38-1.87,7.57,7.57,0,0,0-2.94-.79,4.27,4.27,0,0,0-2.76,1.07,3.46,3.46,0,0,0-.84,1.16,3.54,3.54,0,0,0-.33,1.39,3.93,3.93,0,0,0,1,2.45,13.13,13.13,0,0,0,4,2.66,16.69,16.69,0,0,1,5.1,3.83,6.77,6.77,0,0,1,1.28,4,7.34,7.34,0,0,1-2.23,5.43,7.87,7.87,0,0,1-2.59,1.7,7.76,7.76,0,0,1-3.05.53,10,10,0,0,1-4.26-1,9.83,9.83,0,0,1-3.4-2.77l2.13-2.35a7.26,7.26,0,0,0,2.4,2,7.42,7.42,0,0,0,3,.84,5,5,0,0,0,3.41-1.28,4,4,0,0,0,1-1.38,4.18,4.18,0,0,0,.34-1.71,4.36,4.36,0,0,0-.85-2.55,18.13,18.13,0,0,0-4.26-2.77,12,12,0,0,1-4.78-3.62,6.49,6.49,0,0,1-1.28-3.93,6.66,6.66,0,0,1,2-5,7.2,7.2,0,0,1,5.11-1.91A10.62,10.62,0,0,1,807,739.13Z"/><path class="cls-3" d="M823.4,736.25h3.52l8.93,20,8.62-20h3.62l-15.54,35.56H829l5-11.5Z"/><path class="cls-3" d="M325.64,798.53H329v36h-3.4Z"/><path class="cls-3" d="M361.81,808.11v26h-3.3v-4.47a14.35,14.35,0,0,1-4.68,3.83,11.5,11.5,0,0,1-5.75,1.38,12.62,12.62,0,0,1-9.36-4,13.28,13.28,0,0,1-3.93-9.8,12.89,12.89,0,0,1,1-5.2,13.3,13.3,0,0,1,3-4.38,12.79,12.79,0,0,1,9.47-3.94,13.45,13.45,0,0,1,5.85,1.28,13.66,13.66,0,0,1,4.47,4.15v-4.79Zm-13.3,2.56a9.74,9.74,0,0,0-5.21,1.38,11.64,11.64,0,0,0-3.72,3.83,10.4,10.4,0,0,0,14,14.48,9.48,9.48,0,0,0,3.83-3.83,11.5,11.5,0,0,0-1.6-12.88,10.66,10.66,0,0,0-7.34-2.56Z"/><path class="cls-3" d="M382.45,811.41l-2.13,2.24a7.55,7.55,0,0,0-2.34-1.86,7.38,7.38,0,0,0-2.87-.8,4,4,0,0,0-2.88,1.06,3.71,3.71,0,0,0-.84,1.16,3.77,3.77,0,0,0-.33,1.39,3.54,3.54,0,0,0,1,2.35,13,13,0,0,0,4.05,2.77,15.26,15.26,0,0,1,5.1,3.72,7.63,7.63,0,0,1-6.6,11.82,8.76,8.76,0,0,1-4.25-1.06,8.65,8.65,0,0,1-3.41-2.67l2.13-2.34a7.33,7.33,0,0,0,2.4,2,7.16,7.16,0,0,0,3,.84,5,5,0,0,0,3.4-1.27,3.94,3.94,0,0,0,1-1.39,3.81,3.81,0,0,0,.34-1.7,4.32,4.32,0,0,0-.85-2.56,15.93,15.93,0,0,0-4.25-2.76,13.43,13.43,0,0,1-4.79-3.62,6.53,6.53,0,0,1-1.27-4,6.22,6.22,0,0,1,.48-2.66,6.29,6.29,0,0,1,1.54-2.24,7.24,7.24,0,0,1,5.1-1.91A10.66,10.66,0,0,1,382.45,811.41Z"/><path class="cls-3" d="M402,808.11h3.3v4.79a14,14,0,0,1,4.58-4.15,13.41,13.41,0,0,1,15.21,2.66,13.2,13.2,0,0,1,3,4.38,12.89,12.89,0,0,1,1,5.2,13.38,13.38,0,0,1-3.93,9.8,12.72,12.72,0,0,1-9.37,4,11.49,11.49,0,0,1-5.74-1.38,14.35,14.35,0,0,1-4.68-3.83v14H402Zm13.3,2.56a10,10,0,0,0-7.23,3,11.34,11.34,0,0,0-1.71,12.88,9.48,9.48,0,0,0,3.83,3.83,11.21,11.21,0,0,0,5.22,1.39,10.52,10.52,0,0,0,10.21-10.65,10.85,10.85,0,0,0-1.38-5.22,11.87,11.87,0,0,0-3.73-3.83,9.86,9.86,0,0,0-5.21-1Z"/><path class="cls-3" d="M434,808.11h3.41v3.83a14.32,14.32,0,0,1,3.19-3.4,6.44,6.44,0,0,1,3.61-1.07,5.25,5.25,0,0,1,2.88.85l-1.7,2.88a4.66,4.66,0,0,0-1.82-.53,5.32,5.32,0,0,0-3.18,1.38,8.57,8.57,0,0,0-2.35,4.26,40.36,40.36,0,0,0-.63,9.05v8.73H434Z"/><path class="cls-3" d="M476,808.11v26h-3.3v-4.47a13.64,13.64,0,0,1-4.79,3.83,11.3,11.3,0,0,1-5.64,1.38,12.6,12.6,0,0,1-9.46-4,13.84,13.84,0,0,1,0-19.38,13,13,0,0,1,9.46-3.94,13.18,13.18,0,0,1,5.86,1.28,15.24,15.24,0,0,1,4.57,4.15v-4.79Zm-13.41,2.56a9.34,9.34,0,0,0-5.1,1.38,10.42,10.42,0,0,0-5.22,9.05,11.64,11.64,0,0,0,1.39,5.32,10.23,10.23,0,0,0,8.93,5.33,11.62,11.62,0,0,0,5.22-1.39,10,10,0,0,0,3.72-3.83,9.68,9.68,0,0,0,1.38-5.32,9.54,9.54,0,0,0-10.32-10.12Zm2-14.8h5.22l-7.13,7.45h-3.3Z"/><path class="cls-3" d="M509.15,814l-2.66,1.6a11.43,11.43,0,0,0-4.13-3.43,11.29,11.29,0,0,0-5.23-1.15,11.2,11.2,0,0,0-8,3.08,10.53,10.53,0,0,0,2.34,16.72,12,12,0,0,0,5.64,1.38,11.61,11.61,0,0,0,9.36-4.58l2.66,1.71a13.23,13.23,0,0,1-5,4.36,16,16,0,0,1-7.23,1.6,14.55,14.55,0,0,1-10.64-3.94,13.08,13.08,0,0,1-3-4.37,13.3,13.3,0,0,1-1-5.21,13.81,13.81,0,0,1,1.92-7,13.19,13.19,0,0,1,5.21-5,14.58,14.58,0,0,1,7.45-1.81,16,16,0,0,1,5,.74,17.39,17.39,0,0,1,4,2A12.33,12.33,0,0,1,509.15,814Z"/><path class="cls-3" d="M518,798.85h3.4v9.26h5.32V811h-5.32v23.1H518V811h-4.47v-2.88H518Z"/><path class="cls-3" d="M532.87,797.47a2.83,2.83,0,0,1,1.93.84,2.89,2.89,0,0,1,.84,1.92,3.13,3.13,0,0,1-.85,2,2.88,2.88,0,0,1-3.83,0,3,3,0,0,1-.85-2,2.88,2.88,0,0,1,2.76-2.76Zm-1.7,10.64h3.41v26h-3.41Z"/><path class="cls-3" d="M566.7,814l-2.66,1.6a11.15,11.15,0,0,0-9.36-4.58,10.67,10.67,0,0,0-7.87,3.08,9.81,9.81,0,0,0-3.19,7.45,10.52,10.52,0,0,0,1.49,5.33,9.93,9.93,0,0,0,3.93,3.94,12.72,12.72,0,0,0,5.64,1.38,11.55,11.55,0,0,0,5.23-1.16,11.42,11.42,0,0,0,4.13-3.42l2.66,1.71a12.4,12.4,0,0,1-5,4.36,15.57,15.57,0,0,1-7.13,1.6,14.31,14.31,0,0,1-5.72-.87,14.14,14.14,0,0,1-4.91-3.07,12.65,12.65,0,0,1-3.05-4.36,12.48,12.48,0,0,1-1-5.22,13.41,13.41,0,0,1,1.8-7,13.92,13.92,0,0,1,5.22-5,14.87,14.87,0,0,1,7.44-1.81,15.39,15.39,0,0,1,5,.74,16,16,0,0,1,4,2A9.48,9.48,0,0,1,566.7,814Z"/><path class="cls-3" d="M599,808.11v26h-3.3v-4.47a14.25,14.25,0,0,1-4.68,3.83,12,12,0,0,1-5.74,1.38,12.72,12.72,0,0,1-5.16-1,13.06,13.06,0,0,1-4.31-3A13.59,13.59,0,0,1,572,821a12.89,12.89,0,0,1,1-5.2,13.08,13.08,0,0,1,3-4.38,13.4,13.4,0,0,1,15.21-2.66,13.09,13.09,0,0,1,4.57,4.15v-4.79Zm-13.4,2.56a9.58,9.58,0,0,0-5.11,1.38,9.92,9.92,0,0,0-3.72,3.83,10.14,10.14,0,0,0,0,10.65,9.86,9.86,0,0,0,8.83,5.32,11.19,11.19,0,0,0,5.21-1.38,10.65,10.65,0,0,0,3.83-3.83,11.33,11.33,0,0,0-1.7-12.89,10.07,10.07,0,0,0-7.34-2.66Z"/><path class="cls-3" d="M619.68,811.41l-2.23,2.24a7.26,7.26,0,0,0-5.22-2.66,3.82,3.82,0,0,0-1.49.24,3.65,3.65,0,0,0-1.27.82,3.56,3.56,0,0,0-.84,1.16,3.42,3.42,0,0,0-.33,1.4,3.53,3.53,0,0,0,1,2.34,12.93,12.93,0,0,0,4,2.77,16.59,16.59,0,0,1,5.11,3.72,7.56,7.56,0,0,1-1,9.58,7.69,7.69,0,0,1-5.64,2.24,10.69,10.69,0,0,1-4.22-1.06,10.54,10.54,0,0,1-3.44-2.67l2-2.34a7.78,7.78,0,0,0,2.46,2,7.65,7.65,0,0,0,3.07.84,5,5,0,0,0,3.41-1.27,4.07,4.07,0,0,0,1-1.39,4,4,0,0,0,.34-1.7,3.84,3.84,0,0,0-1-2.56,16.77,16.77,0,0,0-4.15-2.76,13.31,13.31,0,0,1-4.78-3.62,6.6,6.6,0,0,1-1.28-4,6.44,6.44,0,0,1,2-4.9,7.08,7.08,0,0,1,2.36-1.48,6.93,6.93,0,0,1,2.75-.43A10.66,10.66,0,0,1,619.68,811.41Z"/><path class="cls-3" d="M665.11,798.53v36h-3.3V830a14.6,14.6,0,0,1-4.79,3.83,11.5,11.5,0,0,1-5.74,1.39,12.68,12.68,0,0,1-9.37-4,13.61,13.61,0,0,1,15.32-22,15.15,15.15,0,0,1,4.58,4.15v-14.8ZM651.7,811.09a9.14,9.14,0,0,0-5.11,1.39,10.44,10.44,0,0,0-5.21,9,10.39,10.39,0,0,0,10.32,10.65,11.64,11.64,0,0,0,5.22-1.38,10,10,0,0,0,3.72-3.84,9.74,9.74,0,0,0,1.38-5.32,10.19,10.19,0,0,0-10.32-10.54Z"/><path class="cls-3" d="M694.57,825.89l2.77,1.49a18.58,18.58,0,0,1-3.19,4.47,12.14,12.14,0,0,1-4,2.45,13.92,13.92,0,0,1-5.22,1,12,12,0,0,1-5.44-1A12.08,12.08,0,0,1,675,831a13.66,13.66,0,0,1-3.62-9.37,13.41,13.41,0,0,1,3.09-8.83,12.22,12.22,0,0,1,10.64-4.9,12.68,12.68,0,0,1,10.64,5,13.7,13.7,0,0,1,2.87,9H675.21a10.61,10.61,0,0,0,2.88,7.34,9.07,9.07,0,0,0,6.91,3,10,10,0,0,0,3.94-.74,9.46,9.46,0,0,0,3.19-1.81A17.62,17.62,0,0,0,694.57,825.89Zm0-7a13.14,13.14,0,0,0-2-4.26,8.57,8.57,0,0,0-3.4-2.55,10.77,10.77,0,0,0-4.36-1,9.29,9.29,0,0,0-6.6,2.45,11.26,11.26,0,0,0-3.09,5.32Z"/><path class="cls-3" d="M717.45,798.53h3.4v36h-3.4Z"/><path class="cls-3" d="M753.83,808.11v26h-3.3v-4.47a13.7,13.7,0,0,1-4.78,3.83,11.35,11.35,0,0,1-5.64,1.38,12.6,12.6,0,0,1-9.47-4,13.84,13.84,0,0,1,0-19.38A13.58,13.58,0,0,1,746,808.75a15.24,15.24,0,0,1,4.57,4.15v-4.79Zm-13.4,2.56a9.49,9.49,0,0,0-5.11,1.38,10.73,10.73,0,0,0-3.83,3.83,10.55,10.55,0,0,0,8.94,16,11.6,11.6,0,0,0,5.21-1.38,9.92,9.92,0,0,0,3.72-3.83,9.63,9.63,0,0,0,1.38-5.33,9.68,9.68,0,0,0-10.42-10.22Z"/><path class="cls-3" d="M394,880.08a12.94,12.94,0,0,1,5.48,1.09,13.08,13.08,0,0,1,4.52,3.27,14.06,14.06,0,0,1,3.62,9.47,13.17,13.17,0,0,1-1,5.12,13.36,13.36,0,0,1-2.86,4.36,13.5,13.5,0,0,1-19.57,0,13.19,13.19,0,0,1-2.82-4.36,13.37,13.37,0,0,1-.91-5.12,13.54,13.54,0,0,1,3.51-9.36,12.88,12.88,0,0,1,4.5-3.37A12.71,12.71,0,0,1,394,880.08Zm0,3.3a9.49,9.49,0,0,0-7.12,3.08,10.68,10.68,0,0,0-3,7.45,11.73,11.73,0,0,0,1.28,5.33,9.66,9.66,0,0,0,3.73,3.72,10.07,10.07,0,0,0,10.21,0,9.64,9.64,0,0,0,3.72-3.72,11.52,11.52,0,0,0,1.38-5.33,10.63,10.63,0,0,0-3.08-7.45,9.63,9.63,0,0,0-3.24-2.3A9.43,9.43,0,0,0,394,883.38Z"/><path class="cls-3" d="M412.55,880.82H416v3.73a13.33,13.33,0,0,1,3.19-3.3,6.5,6.5,0,0,1,3.62-1.17,5.62,5.62,0,0,1,2.87,1l-1.71,2.76a4.54,4.54,0,0,0-1.8,0,4.61,4.61,0,0,0-3.19,1.39,8.48,8.48,0,0,0-2.34,4.26,39.7,39.7,0,0,0-.64,9v8.73h-3.41Z"/><path class="cls-3" d="M451,880.82h3.29v20.76a24.5,24.5,0,0,1-.95,8,10.69,10.69,0,0,1-4.58,5.53A14.75,14.75,0,0,1,441,917a18.19,18.19,0,0,1-6.07-1,12,12,0,0,1-4.25-2.55,15.12,15.12,0,0,1-3.09-4.69h3.62a9.48,9.48,0,0,0,3.83,3.83,11.69,11.69,0,0,0,5.74,1.28,12.15,12.15,0,0,0,5.86-1.28,7.38,7.38,0,0,0,3.3-3.19,13.39,13.39,0,0,0,1.06-6.28V901.9a12.07,12.07,0,0,1-4.69,3.62,13.22,13.22,0,0,1-5.74,1.28,13.65,13.65,0,0,1-11.59-6.6,12.73,12.73,0,0,1-1.71-6.6,13.36,13.36,0,0,1,1.71-6.71,14.18,14.18,0,0,1,11.7-6.81,12,12,0,0,1,5.42,1.27,14.77,14.77,0,0,1,4.9,3.94Zm-9.89,2.56a10.51,10.51,0,0,0-5.32,1.38,10,10,0,0,0-3.84,3.72,11.67,11.67,0,0,0-1.38,5.33,9.22,9.22,0,0,0,2.87,7,10.6,10.6,0,0,0,7.45,2.77,9.78,9.78,0,0,0,4-.61,9.91,9.91,0,0,0,3.44-2.16,9.49,9.49,0,0,0,2.76-7.23,10.67,10.67,0,0,0-1.27-5.22,9.32,9.32,0,0,0-3.62-3.72A10.6,10.6,0,0,0,441.07,883.38Z"/><path class="cls-3" d="M487.87,880.82v26h-3.29v-4.47a14.26,14.26,0,0,1-4.69,3.83,13.22,13.22,0,0,1-5.74,1.28,12.79,12.79,0,0,1-9.47-3.94,13.64,13.64,0,0,1-3.83-9.8A13.3,13.3,0,0,1,480,881.46a13.12,13.12,0,0,1,4.58,4.15v-4.79Zm-13.4,2.56a9.67,9.67,0,0,0-5.11,1.38,8.61,8.61,0,0,0-3.72,3.83,10.75,10.75,0,0,0,0,10.54,9.85,9.85,0,0,0,3.72,3.83,9.68,9.68,0,0,0,5.11,1.39,10.47,10.47,0,0,0,5.21-1.39,9.21,9.21,0,0,0,3.83-3.72,11.31,11.31,0,0,0-1.7-12.88,9.58,9.58,0,0,0-3.59-2.4,9.48,9.48,0,0,0-4.28-.58Z"/><path class="cls-3" d="M494.89,880.82h3.62v4.69a14.43,14.43,0,0,1,4.47-4,11.24,11.24,0,0,1,5.32-1.38,9.82,9.82,0,0,1,5.21,1.49,9.43,9.43,0,0,1,3.3,4,20.52,20.52,0,0,1,1.06,7.77V906.8h-3.3V894.45a32.39,32.39,0,0,0,0-6.07,6.25,6.25,0,0,0-6.48-5.21,8.46,8.46,0,0,0-5.43,2,9.65,9.65,0,0,0-3.19,5,32.69,32.69,0,0,0,0,7.13v9.48h-3.3Z"/><path class="cls-3" d="M525.85,870.07a2.84,2.84,0,0,1,2,.85,2.78,2.78,0,0,1-2,4.69,2.86,2.86,0,0,1-1-.23,2.59,2.59,0,0,1-.87-.63,2.85,2.85,0,0,1,0-3.83,2.57,2.57,0,0,1,.87-.62A2.5,2.5,0,0,1,525.85,870.07Zm-1.59,10.65h3.29v26h-3.29Z"/><path class="cls-3" d="M532.34,880.82H551.7l-14.89,23.1H551v3H531l14.78-23.1h-13.4Z"/><path class="cls-3" d="M581.17,880.82v26h-3.3v-4.47a14.12,14.12,0,0,1-4.68,3.83,13.63,13.63,0,0,1-10.84.3,12.52,12.52,0,0,1-4.26-3,13.24,13.24,0,0,1-3.94-9.8,13.93,13.93,0,0,1,8.25-12.59,12.67,12.67,0,0,1,5.15-1,11.85,11.85,0,0,1,10.32,5.53v-4.79Zm-13.3,2.56a9.74,9.74,0,0,0-5.21,1.38,9.21,9.21,0,0,0-3.72,3.83A10.53,10.53,0,0,0,562.76,903a9.05,9.05,0,0,0,5,1.39A9.86,9.86,0,0,0,573,903a8.56,8.56,0,0,0,3.83-3.72,11.31,11.31,0,0,0-1.7-12.88,9.65,9.65,0,0,0-3.3-2.27A9.5,9.5,0,0,0,567.87,883.38Z"/><path class="cls-3" d="M613.94,886.14l-2.66,1.71a11.73,11.73,0,0,0-13.09-4,11.59,11.59,0,0,0-4.14,2.48,9.43,9.43,0,0,0-2.36,3.39,9.72,9.72,0,0,0-.73,4.06,10.64,10.64,0,0,0,1.38,5.32,9.62,9.62,0,0,0,3.94,3.83,12.12,12.12,0,0,0,15-3.08l2.66,1.7a11.82,11.82,0,0,1-5,4.37,15.4,15.4,0,0,1-7.13,1.49,14.27,14.27,0,0,1-5.72-.81,14.07,14.07,0,0,1-4.92-3,12.62,12.62,0,0,1-4-9.58,14.26,14.26,0,0,1,1.81-7,13.36,13.36,0,0,1,5.32-5,14.18,14.18,0,0,1,7.34-1.91,17,17,0,0,1,9.14,2.87A11.57,11.57,0,0,1,613.94,886.14Z"/><path class="cls-3" d="M621.59,870.07a2.77,2.77,0,0,1,2,4.73,2.8,2.8,0,0,1-2,.81,3.09,3.09,0,0,1-2-.86,2.88,2.88,0,0,1,0-3.83A3.12,3.12,0,0,1,621.59,870.07Zm-1.7,10.65h3.3v26h-3.3Z"/><path class="cls-3" d="M642.45,880.08a12.86,12.86,0,0,1,5.47,1.09,13.12,13.12,0,0,1,4.53,3.27,13.51,13.51,0,0,1,3.61,9.47,13.17,13.17,0,0,1-1,5.12,13.33,13.33,0,0,1-2.85,4.36,12.55,12.55,0,0,1-9.79,4.05,12.36,12.36,0,0,1-9.68-4.05,13.58,13.58,0,0,1-.22-18.84,12.52,12.52,0,0,1,4.44-3.36A12.37,12.37,0,0,1,642.45,880.08Zm0,3.3a9.81,9.81,0,0,0-3.89.8,10.08,10.08,0,0,0-3.24,2.28,10.65,10.65,0,0,0-1.6,12.78,9.32,9.32,0,0,0,3.62,3.72,10.09,10.09,0,0,0,10.22,0,9.7,9.7,0,0,0,3.72-3.72,10.87,10.87,0,0,0-1.6-12.78,10,10,0,0,0-7.23-3.08Zm1.7-14.8h5.11l-7,7.34h-3.3Z"/><path class="cls-3" d="M662.23,880.82h3.3v4.69a14.32,14.32,0,0,1,4.47-4,11.24,11.24,0,0,1,5.32-1.38,9.62,9.62,0,0,1,5.21,1.49,9.43,9.43,0,0,1,3.3,4,20.72,20.72,0,0,1,1.07,7.77V906.8h-3.3V894.45a25.68,25.68,0,0,0,0-6.07,5.87,5.87,0,0,0-2.24-3.83,6.73,6.73,0,0,0-4.25-1.38,8.46,8.46,0,0,0-5.43,2,9.65,9.65,0,0,0-3.19,5,34,34,0,0,0,0,7.13v9.48h-3.3Z"/><path class="cls-3" d="M695.75,901.58a2.72,2.72,0,0,1,2.12.85,2.92,2.92,0,0,1,.64,1,3,3,0,0,1-.64,3.18,2.81,2.81,0,0,1-1,.65,2.85,2.85,0,0,1-1.15.2,2.38,2.38,0,0,1-1.12-.18,2.51,2.51,0,0,1-.91-.67,2.71,2.71,0,0,1-1-2,2.64,2.64,0,0,1,.24-1.17,2.73,2.73,0,0,1,.72-1,2.42,2.42,0,0,1,.91-.68A2.51,2.51,0,0,1,695.75,901.58Z"/><path class="cls-4" d="M280.21,263.69A35.12,35.12,0,0,0,268.62,255,31.8,31.8,0,0,0,255,252.09a30.47,30.47,0,0,0-28.3,19.37,33.22,33.22,0,0,0-2.23,12.35,35.69,35.69,0,0,0,1.38,9.8,28.91,28.91,0,0,0,3.83,8.19,32.68,32.68,0,0,0,11.28,10,30.63,30.63,0,0,0,14.47,3.51,30.22,30.22,0,0,0,13.4-3.08,33.44,33.44,0,0,0,11.38-8.95v12a43.25,43.25,0,0,1-12.12,6.18,44.63,44.63,0,0,1-13.52,2.13,39.42,39.42,0,0,1-11.7-1.81,40.33,40.33,0,0,1-10.64-5.22,38.58,38.58,0,0,1-17-32.68,42.53,42.53,0,0,1,2.88-16A40.89,40.89,0,0,1,227,254.86a38.67,38.67,0,0,1,13-8.41,42.59,42.59,0,0,1,15.43-2.77,40.12,40.12,0,0,1,12.76,2,45.11,45.11,0,0,1,12.13,6.18Z"/><path class="cls-4" d="M373.41,283.71a39,39,0,0,1-3,15.33,37.83,37.83,0,0,1-8.72,12.88,42.61,42.61,0,0,1-13.29,8.62,41.21,41.21,0,0,1-44.26-8.62A38,38,0,0,1,295.21,299a39.13,39.13,0,0,1-3-15.33,40,40,0,0,1,3-15.44,37.94,37.94,0,0,1,8.94-12.88,39.2,39.2,0,0,1,13.19-8.62,40.15,40.15,0,0,1,15.53-3,41.24,41.24,0,0,1,28.83,11.6,37.73,37.73,0,0,1,8.72,12.88A39.11,39.11,0,0,1,373.41,283.71Zm-40.54,31.4a31.87,31.87,0,0,0,11.81-2.34,34.09,34.09,0,0,0,10.64-6.92,32,32,0,0,0,6.81-10.11,32.61,32.61,0,0,0,2.23-12A31.2,31.2,0,0,0,362,271.57a28.89,28.89,0,0,0-17.34-17.46,31.08,31.08,0,0,0-34,6.81,32.43,32.43,0,0,0-6.81,34.28,30,30,0,0,0,17.45,17.57A31.79,31.79,0,0,0,332.87,315.11Z"/><path class="cls-4" d="M388.3,321.61V245.49h8.94v29.27h40.42V245.49h9.25v76.12h-9.25V283.39H397.24v38.22Z"/><path class="cls-4" d="M465.11,321.61V245.49h40.1v8.3H474.15v22h31.06v8.41H474.15v29.17h31.06v8.41Z"/><path class="cls-4" d="M520.53,321.61V245.49H538.4a55,55,0,0,1,10.64.85,16.33,16.33,0,0,1,6.28,3,17,17,0,0,1,5.21,7,24.88,24.88,0,0,1,1.92,9.9,18.62,18.62,0,0,1-5.22,14.16,21.26,21.26,0,0,1-15.31,4.89h-.86l29.05,36.31H558.62L530.43,285.3h-1.28v36.31Zm8.83-68.46V278.6h6.92a25.46,25.46,0,0,0,14.15-2.77,11.36,11.36,0,0,0,3.61-9.48,12.53,12.53,0,0,0-.61-5.76,12.7,12.7,0,0,0-3.11-4.88,24.17,24.17,0,0,0-14-2.88Z"/><path class="cls-4" d="M577.45,321.61V245.49h40.1v8.3H586.49v22h31.06v8.41H586.49v29.17h31.06v8.41Z"/><path class="cls-4" d="M632.87,321.61v-79.1l55.64,60.78v-57.8h8.62v79.1l-55.64-60.15v57.17Z"/><path class="cls-4" d="M777,263.69a35.51,35.51,0,0,0-11.7-8.73,31.8,31.8,0,0,0-13.62-2.87,30.38,30.38,0,0,0-11.81,2.45,29.24,29.24,0,0,0-9.89,6.81,31.38,31.38,0,0,0-6.59,10.11,35.39,35.39,0,0,0-2.13,12.35,36,36,0,0,0,1.27,9.8,26.28,26.28,0,0,0,3.94,8.19,31.94,31.94,0,0,0,10.64,10,31.39,31.39,0,0,0,28,0,34.53,34.53,0,0,0,11.38-8.94v12a45.82,45.82,0,0,1-12.23,6.17,44,44,0,0,1-13.41,2.13A40.14,40.14,0,0,1,739,321.39a39.69,39.69,0,0,1-10.64-5.21,40.92,40.92,0,0,1-14.15-48.65,37.79,37.79,0,0,1,8.94-13.1A38.52,38.52,0,0,1,736.06,246a42.59,42.59,0,0,1,15.43-2.77,40.14,40.14,0,0,1,12.77,2,45.82,45.82,0,0,1,12.23,6.17Z"/><path class="cls-4" d="M792.55,321.61V245.49h9.05v76.12Z"/><path class="cls-4" d="M844,242.51l34.58,79.1h-9.79l-9.89-23.32H829.26l-9.9,23.32h-9.89Zm0,20-12.12,28h24.15Z"/></g></g></svg>