<svg xmlns="http://www.w3.org/2000/svg" viewBox="0 0 1080 1080.74"><defs><style>.cls-1{fill:#fff;}.cls-2{fill:none;stroke:#004394;stroke-miterlimit:10;}.cls-3{fill:#003875;}.cls-4{fill:#004394;}</style></defs><title>Value_svg_integridad</title><g id="Capa_2" data-name="Capa 2"><g id="Capa_1-2" data-name="Capa 1"><path class="cls-1" d="M540,1080.74c298.23,0,540-241.93,540-540.37S838.23,0,540,0,0,241.93,0,540.37,241.77,1080.74,540,1080.74Z"/><path class="cls-2" d="M860.68,861.38c177.15-177.26,177.15-464.68,0-641.95s-464.36-177.27-641.51,0-177.15,464.69,0,642S683.54,1038.66,860.68,861.38Z"/><path class="cls-3" d="M314.36,419.12h7.55a49.18,49.18,0,0,1,8.83.53,10.65,10.65,0,0,1,5.43,3.3,9.82,9.82,0,0,1,2,6.39,9.49,9.49,0,0,1-2,6.28,10.6,10.6,0,0,1-5.53,3.3,49.34,49.34,0,0,1-9.79.64h-2.66v17.78h-3.83Zm3.83,3.73v12.66h6.38a17.73,17.73,0,0,0,5.75-.74,5.75,5.75,0,0,0,2.87-2.34,6.49,6.49,0,0,0-2.66-9.37,17.86,17.86,0,0,0-5.64-.64Z"/><path class="cls-3" d="M343.83,429h3.62v4.15a14,14,0,0,1,3.51-3.62,6.5,6.5,0,0,1,7.12-.21l-1.91,3a4.73,4.73,0,0,0-1.91,0,4.79,4.79,0,0,0-1.91.38,4.7,4.7,0,0,0-1.61,1.11,8.65,8.65,0,0,0-2.55,4.58,38.77,38.77,0,0,0-.74,9.79v9.58h-3.73Z"/><path class="cls-3" d="M374.58,428.38a14,14,0,0,1,10.63,4.68,14.48,14.48,0,0,1,3.94,10.65,14.82,14.82,0,0,1-1,5.74,14.51,14.51,0,0,1-3.15,4.9,13.77,13.77,0,0,1-10.64,4.48,14,14,0,0,1-10.63-4.48,16.35,16.35,0,0,1-.22-21.29,14,14,0,0,1,11.07-4.68Zm0,3.51a10.59,10.59,0,0,0-4.23.85,10.72,10.72,0,0,0-3.54,2.45,11.62,11.62,0,0,0-3.3,8.2A11.48,11.48,0,0,0,365,449a10.49,10.49,0,0,0,9.58,5.54,11.42,11.42,0,0,0,5.63-1.38,10.65,10.65,0,0,0,3.94-4.16,11.59,11.59,0,0,0,1.49-5.64,10.66,10.66,0,0,0-.76-4.46,10.85,10.85,0,0,0-2.54-3.74,10.66,10.66,0,0,0-7.76-3.3Z"/><path class="cls-3" d="M423.51,435.51l-2.87,1.71a12.22,12.22,0,0,0-10.64-4.9,11.91,11.91,0,0,0-8.62,3.3,11.54,11.54,0,0,0,2.45,18.1,13.21,13.21,0,0,0,16.81-3.41l2.87,1.81a13.84,13.84,0,0,1-5.42,4.79,16.88,16.88,0,0,1-7.77,1.7,15.79,15.79,0,0,1-11.17-4.26,13.7,13.7,0,0,1-4.36-10.64,14.9,14.9,0,0,1,7.66-13.09,17,17,0,0,1,8.08-1.92,15.4,15.4,0,0,1,5.43.85,13.38,13.38,0,0,1,4.46,2.24A10.69,10.69,0,0,1,423.51,435.51Z"/><path class="cls-3" d="M453.83,448l3.08,1.59a16.42,16.42,0,0,1-3.51,4.79,13.42,13.42,0,0,1-4.46,2.77,15.18,15.18,0,0,1-5.54,1,13.57,13.57,0,0,1-5.83-1.09,13.39,13.39,0,0,1-4.8-3.49,15.18,15.18,0,0,1-3.83-10.64,14.69,14.69,0,0,1,3.3-9.58,13.1,13.1,0,0,1,4.92-4.06A13.32,13.32,0,0,1,443.4,428a14.13,14.13,0,0,1,6.4,1.33,13.93,13.93,0,0,1,5.09,4.1,15.28,15.28,0,0,1,3.19,9.69H432.55a11.28,11.28,0,0,0,3.09,8.09,10.62,10.62,0,0,0,7.55,3.09,12.86,12.86,0,0,0,7.66-2.66A17,17,0,0,0,453.83,448Zm0-7.67a10.6,10.6,0,0,0-2-4.39,10.48,10.48,0,0,0-3.74-3.06,12.82,12.82,0,0,0-4.89-1.06,10.59,10.59,0,0,0-7.13,2.66,12.47,12.47,0,0,0-3.29,5.85Z"/><path class="cls-3" d="M493.3,418.16v39.18h-3.62v-4.9a14.74,14.74,0,0,1-5.11,4.26,15.56,15.56,0,0,1-6.27,1.38,15,15,0,0,1-10.64-25.65,13.88,13.88,0,0,1,10.64-4.26,13.22,13.22,0,0,1,6.27,1.38,15.34,15.34,0,0,1,5,4.47V418Zm-14.58,13.73a11.47,11.47,0,0,0-5.64,1.39,11.85,11.85,0,0,0-5.53,10,10.68,10.68,0,0,0,1.49,5.65,11.54,11.54,0,0,0,4.15,4.26,11.34,11.34,0,0,0,15.32-4.05,12.46,12.46,0,0,0-1.81-14.06,10.69,10.69,0,0,0-8-3.19Z"/><path class="cls-3" d="M525.32,448l3,1.59a16.74,16.74,0,0,1-3.41,4.79,16.15,16.15,0,0,1-4.47,2.77,15.66,15.66,0,0,1-5.63,1,13.19,13.19,0,0,1-10.64-4.58,15.42,15.42,0,0,1-.64-19.8,13.19,13.19,0,0,1,10.64-5.32,14,14,0,0,1,11.59,5.43,15.35,15.35,0,0,1,3.09,9.69h-25a11.85,11.85,0,0,0,3.19,8.09,10.49,10.49,0,0,0,3.47,2.29,10.75,10.75,0,0,0,4.08.8,11.82,11.82,0,0,0,4.16-.75,10.61,10.61,0,0,0,3.5-1.92A20.23,20.23,0,0,0,525.32,448Zm0-7.67a14.19,14.19,0,0,0-2.13-4.58,10.67,10.67,0,0,0-3.72-2.87,12.19,12.19,0,0,0-4.79-1.06,10.59,10.59,0,0,0-7.13,2.66,12.57,12.57,0,0,0-3.3,5.85Z"/><path class="cls-3" d="M536.06,429h3.62v4.9a13.79,13.79,0,0,1,3.93-3.94,10.72,10.72,0,0,1,5.75-1.6,9.87,9.87,0,0,1,3.94.75,8.86,8.86,0,0,1,3,2.13,10.77,10.77,0,0,1,2,3.83,14,14,0,0,1,4.57-5,10.65,10.65,0,0,1,5.85-1.7,8.51,8.51,0,0,1,8.51,5.54,22.26,22.26,0,0,1,1.07,8v15.44h-3.73V441.9a20.17,20.17,0,0,0-.64-6.28,6.12,6.12,0,0,0-2.23-2.77,6.85,6.85,0,0,0-3.72-1,8.52,8.52,0,0,0-4.79,1.48,8.82,8.82,0,0,0-3.19,4.16,24.76,24.76,0,0,0-1.06,8.73v10.64h-3.62V442.43a24.45,24.45,0,0,0-.64-6.92,5.74,5.74,0,0,0-2.24-3,6.38,6.38,0,0,0-3.72-1.06,8.68,8.68,0,0,0-4.78,1.49,9.25,9.25,0,0,0-3.2,4,21.5,21.5,0,0,0-1.06,7.88v12h-3.62Z"/><path class="cls-3" d="M599.36,428.38A13.53,13.53,0,0,1,610,433.06a14.53,14.53,0,0,1,3.93,10.65,14.64,14.64,0,0,1-4.14,10.64,13.61,13.61,0,0,1-4.83,3.42,13.46,13.46,0,0,1-5.81,1.06,13.77,13.77,0,0,1-10.64-4.48,14.51,14.51,0,0,1-3.15-4.9,14.82,14.82,0,0,1-1-5.74,14.48,14.48,0,0,1,3.94-10.65,14,14,0,0,1,11.06-4.68Zm0,3.51a10.64,10.64,0,0,0-4.28.83,10.49,10.49,0,0,0-3.59,2.47,11.47,11.47,0,0,0-3.19,8.2,10.55,10.55,0,0,0,1.49,5.64,10.7,10.7,0,0,0,3.93,4.16,11.43,11.43,0,0,0,5.64,1.38,10.51,10.51,0,0,0,9.58-5.54,11.43,11.43,0,0,0,1.38-5.64,11.55,11.55,0,0,0-3.19-8.2,10.76,10.76,0,0,0-3.55-2.45A10.54,10.54,0,0,0,599.36,431.89Z"/><path class="cls-3" d="M634.68,432.11l-2.34,2.45a8.1,8.1,0,0,0-2.59-2,7.84,7.84,0,0,0-3.15-.79,4.22,4.22,0,0,0-3,1.06,3.71,3.71,0,0,0-.94,1.25,3.63,3.63,0,0,0-.34,1.52,3.85,3.85,0,0,0,1.06,2.66,14.19,14.19,0,0,0,4.37,3,16.87,16.87,0,0,1,5.53,4.05,7.23,7.23,0,0,1,1.38,4.47,7.77,7.77,0,0,1-.6,3.19,7.69,7.69,0,0,1-1.85,2.66,8.23,8.23,0,0,1-6.06,2.45,11.5,11.5,0,0,1-4.68-1.06,10.68,10.68,0,0,1-3.72-3l2.34-2.56a7.59,7.59,0,0,0,2.57,2.21,7.82,7.82,0,0,0,3.28.88,5.17,5.17,0,0,0,3.72-1.38,4.17,4.17,0,0,0,1.17-1.47,4.35,4.35,0,0,0,.43-1.83,4.46,4.46,0,0,0-1.07-2.77,16.45,16.45,0,0,0-4.57-3,16,16,0,0,1-5.21-3.94,7.16,7.16,0,0,1-1.39-4.37,7.06,7.06,0,0,1,.55-2.9,6.92,6.92,0,0,1,1.69-2.42,7.32,7.32,0,0,1,5.53-2.13,11.31,11.31,0,0,1,4.31,1.07A11.19,11.19,0,0,1,634.68,432.11Z"/><path class="cls-3" d="M656,457.34V418.16h3.62v15.76a15.09,15.09,0,0,1,5.1-4.15,14.56,14.56,0,0,1,16.49,2.87,15.15,15.15,0,0,1,4.26,10.64,14.93,14.93,0,0,1-1,5.76,14.78,14.78,0,0,1-3.21,4.89,14.26,14.26,0,0,1-10.64,4.36,13.14,13.14,0,0,1-6.27-1.49,14,14,0,0,1-5-4.47v5.22Zm14.57-2.77a10.63,10.63,0,0,0,5.53-1.49,11.39,11.39,0,0,0,4.15-4.26,11.59,11.59,0,0,0,1.49-5.64,12,12,0,0,0-1.49-5.75,11.39,11.39,0,0,0-4.15-4.26,11.34,11.34,0,0,0-15.32,4.05,12.5,12.5,0,0,0,1.81,14,10.75,10.75,0,0,0,3.84,2.58,10.49,10.49,0,0,0,4.57.72Z"/><path class="cls-3" d="M720.64,429v28.32H717v-4.9a14.89,14.89,0,0,1-5.1,4.26,15.68,15.68,0,0,1-6.28,1.38A14,14,0,0,1,695,453.71a15.91,15.91,0,0,1-3.24-16.41,14.14,14.14,0,0,1,3.24-4.87,13.88,13.88,0,0,1,10.64-4.26,13.28,13.28,0,0,1,6.28,1.38,15.27,15.27,0,0,1,5,4.47V428.8Zm-14.58,2.87a11.38,11.38,0,0,0-5.63,1.39,11.77,11.77,0,0,0-4.06,4.29,11.91,11.91,0,0,0-1.48,5.71,12.12,12.12,0,0,0,1.49,5.65,11.46,11.46,0,0,0,4.15,4.26,11.21,11.21,0,0,0,11.17,0,10.63,10.63,0,0,0,4.15-4.05A12.46,12.46,0,0,0,714,435.08a10.69,10.69,0,0,0-8-3.19Z"/><path class="cls-3" d="M728.3,429H732V461.6a8.52,8.52,0,0,1-1.27,5.21,4.36,4.36,0,0,1-1.57,1.22,4.23,4.23,0,0,1-1.95.38,12.85,12.85,0,0,1-4.15-.85v-3.3a5.28,5.28,0,0,0,2.56.74,2.33,2.33,0,0,0,1.29-.26,2.29,2.29,0,0,0,.94-.91,7.65,7.65,0,0,0,0-3.3Zm1.81-11.6a2.78,2.78,0,0,1,1.14.21,3.06,3.06,0,0,1,1,.64,2.81,2.81,0,0,1,.65,1,2.7,2.7,0,0,1,.19,1.16,2.81,2.81,0,0,1-.19,1.15,3.12,3.12,0,0,1-.64,1,2.88,2.88,0,0,1-2.14.83,2.72,2.72,0,0,1-2.13-.85,3,3,0,0,1-.64-1,3.43,3.43,0,0,1,0-2.31,3,3,0,0,1,.65-1,2.92,2.92,0,0,1,1-.64A2.86,2.86,0,0,1,730.11,417.42Z"/><path class="cls-3" d="M753,428.38a13.92,13.92,0,0,1,10.63,4.68,16.34,16.34,0,0,1-.21,21.29,14.56,14.56,0,0,1-21.27,0A14.6,14.6,0,0,1,738,443.71a14.29,14.29,0,0,1,.88-5.72,14.72,14.72,0,0,1,3-4.93A14,14,0,0,1,753,428.38Zm0,3.51a10.64,10.64,0,0,0-4.28.83,10.49,10.49,0,0,0-3.59,2.47A11.84,11.84,0,0,0,743.4,449a10.92,10.92,0,0,0,19.15,0,11.38,11.38,0,0,0,1.49-5.64,11.58,11.58,0,0,0-3.3-8.2,10.66,10.66,0,0,0-7.76-3.3Z"/><path class="cls-3" d="M220.85,520.68l3.09,1.6a19,19,0,0,1-3.51,4.79,13.71,13.71,0,0,1-4.47,2.76,15,15,0,0,1-5.53,1,13.83,13.83,0,0,1-5.82-1.13,14,14,0,0,1-4.82-3.44A15.22,15.22,0,0,1,196,515.57a14.81,14.81,0,0,1,3.29-9.58,13.32,13.32,0,0,1,11.18-5.43,14,14,0,0,1,6.4,1.38,14.25,14.25,0,0,1,5.09,4.15,15.17,15.17,0,0,1,3.19,9.69H199.68a10.48,10.48,0,0,0,.71,4.32,10.71,10.71,0,0,0,2.38,3.67,10,10,0,0,0,7.55,3.19,10.7,10.7,0,0,0,4.15-.74,11.42,11.42,0,0,0,3.51-2A14.25,14.25,0,0,0,220.85,520.68Zm0-7.67a11,11,0,0,0-2.13-4.68,10.64,10.64,0,0,0-3.61-2.77,11.35,11.35,0,0,0-4.9-1.06,10.59,10.59,0,0,0-7.13,2.66,11.93,11.93,0,0,0-3.29,5.85Z"/><path class="cls-3" d="M245.85,504.39l-2.34,2.45a8.31,8.31,0,0,0-5.64-2.88,4.5,4.5,0,0,0-3.08,1.18,3.58,3.58,0,0,0-.94,1.24,3.76,3.76,0,0,0,.72,4.18,14,14,0,0,0,4.37,3,17,17,0,0,1,5.53,4.05,7.25,7.25,0,0,1,1.38,4.47,7.79,7.79,0,0,1-2.45,5.86,8.28,8.28,0,0,1-2.78,1.84,8.38,8.38,0,0,1-3.28.61,12,12,0,0,1-4.68-1.07,11.22,11.22,0,0,1-3.72-3l2.34-2.56a8,8,0,0,0,5.85,3.09,5.24,5.24,0,0,0,2-.31,5.13,5.13,0,0,0,1.72-1.07A4.17,4.17,0,0,0,242,524a4.31,4.31,0,0,0,.43-1.83,4,4,0,0,0-1.07-2.77,13.2,13.2,0,0,0-4.57-3,15.87,15.87,0,0,1-5.21-3.94,7.84,7.84,0,0,1-1.39-4.37,7.16,7.16,0,0,1,2.24-5.42,7.74,7.74,0,0,1,5.53-2.13A11.46,11.46,0,0,1,245.85,504.39Z"/><path class="cls-3" d="M255.43,490.87h3.72v10.65h5.74v3.19h-5.74v25.12h-3.72V504.71h-4.9v-3.19h4.9Z"/><path class="cls-3" d="M298.51,501.3v28.32h-3.62v-4.9a13.28,13.28,0,0,1-5.1,4.15,13.61,13.61,0,0,1-6.28,1.5A14.12,14.12,0,0,1,272.87,526a15.22,15.22,0,0,1,0-21.29,14.87,14.87,0,0,1,17-2.88,15,15,0,0,1,4.9,4.48v-5.22Zm-14.57,2.77a11.7,11.7,0,0,0-5.64,1.49,11.87,11.87,0,0,0-4,4.26,11.56,11.56,0,0,0,0,11.39,12.18,12.18,0,0,0,4.15,4.26,10.63,10.63,0,0,0,5.53,1.49,11.58,11.58,0,0,0,5.63-1.49,10.56,10.56,0,0,0,4.15-4.05,11.91,11.91,0,0,0,1.39-5.85,11.55,11.55,0,0,0-3.19-8.2,10.68,10.68,0,0,0-8.3-3.3Zm2.23-16h5.53l-7.66,8h-3.51Z"/><path class="cls-3" d="M306.7,501.3h3.62v5.11a15.37,15.37,0,0,1,4.79-4.36,12,12,0,0,1,5.74-1.49,9.9,9.9,0,0,1,5.64,1.6,9.53,9.53,0,0,1,3.62,4.36,21.43,21.43,0,0,1,1.17,8.51v14.59h-3.62V516.1a28.17,28.17,0,0,0,0-6.49,7.22,7.22,0,0,0-2.34-4.26,7.46,7.46,0,0,0-4.68-1.39,9.32,9.32,0,0,0-6,2.13,10.71,10.71,0,0,0-3.4,5.43,31.84,31.84,0,0,0-.54,7.67v10.64h-3.61Z"/><path class="cls-3" d="M367.34,490.45v39.17h-3.61v-4.9a13.38,13.38,0,0,1-5.11,4.15A14,14,0,0,1,342.13,526a14.71,14.71,0,0,1-4.26-10.64,14.93,14.93,0,0,1,1.08-5.64,14.7,14.7,0,0,1,13.5-9.16,13.17,13.17,0,0,1,6.27,1.49,14.34,14.34,0,0,1,5,4.47V490.45Zm-14.57,13.62a11.48,11.48,0,0,0-5.64,1.49,11.75,11.75,0,0,0-5.53,9.9,11.61,11.61,0,0,0,5.63,10,10.69,10.69,0,0,0,5.54,1.49,12.14,12.14,0,0,0,5.64-1.49,10.71,10.71,0,0,0,4.14-4,12,12,0,0,0,1.39-5.86,11.52,11.52,0,0,0-3.2-8.2,10.59,10.59,0,0,0-3.63-2.5A10.79,10.79,0,0,0,352.77,504.07Z"/><path class="cls-3" d="M403.73,501.3v28.32h-3.09v-4.9a13.31,13.31,0,0,1-5.11,4.15A14,14,0,0,1,379,526a15.22,15.22,0,0,1,0-21.29,14.87,14.87,0,0,1,17-2.88,15,15,0,0,1,4.9,4.48v-5.22Zm-14.58,2.77a10.71,10.71,0,0,0-9.68,5.75,11.63,11.63,0,0,0,0,11.39,12.26,12.26,0,0,0,4.15,4.26,10.63,10.63,0,0,0,5.53,1.49,11.65,11.65,0,0,0,5.64-1.49,10.7,10.7,0,0,0,4.15-4.05,11.9,11.9,0,0,0,1.38-5.85,11.51,11.51,0,0,0-3.19-8.2,10.6,10.6,0,0,0-8-3.3Z"/><path class="cls-3" d="M410.53,501.3h3.72v4.15a11.58,11.58,0,0,1,3.52-3.62,6.4,6.4,0,0,1,3.82-1.27,6.82,6.82,0,0,1,3.2,1l-1.92,3.08a4.73,4.73,0,0,0-1.91,0,5.13,5.13,0,0,0-3.51,1.49,9.76,9.76,0,0,0-2.56,4.58,47.93,47.93,0,0,0-.64,9.79v9.59h-3.72Z"/><path class="cls-3" d="M451.7,520.68l3,1.6a18.71,18.71,0,0,1-3.4,4.79,16.36,16.36,0,0,1-4.47,2.76,15.5,15.5,0,0,1-5.64,1,13.55,13.55,0,0,1-10.64-4.57,15.47,15.47,0,0,1-.64-19.81A13.32,13.32,0,0,1,441.06,501a14.09,14.09,0,0,1,11.6,5.54,15.17,15.17,0,0,1,3.09,9.69H430.32a11.47,11.47,0,0,0,3.19,8,9.84,9.84,0,0,0,7.55,3.19,11.29,11.29,0,0,0,4.15-.74,11.17,11.17,0,0,0,3.51-2A16.56,16.56,0,0,0,451.7,520.68Zm0-7.67a14.7,14.7,0,0,0-2.13-4.68,11.29,11.29,0,0,0-3.72-2.77,11.06,11.06,0,0,0-11.92,1.6,11.93,11.93,0,0,0-3.29,5.85Z"/><path class="cls-3" d="M476.7,504.39l-2.34,2.45a8.68,8.68,0,0,0-5.74-2.88,4.21,4.21,0,0,0-1.61.29,4,4,0,0,0-1.37.89,3.58,3.58,0,0,0-.94,1.24,3.82,3.82,0,0,0-.34,1.52,4.34,4.34,0,0,0,1,2.67,16.75,16.75,0,0,0,4.47,3,16.24,16.24,0,0,1,5.42,4.05,7.16,7.16,0,0,1,1.49,4.47,8.08,8.08,0,0,1-.62,3.18,8.17,8.17,0,0,1-1.82,2.68,8.54,8.54,0,0,1-6.17,2.45,10.71,10.71,0,0,1-8.3-4l2.23-2.55a8.35,8.35,0,0,0,2.65,2.18,8.13,8.13,0,0,0,3.31.9,5.18,5.18,0,0,0,3.72-1.38,4.1,4.1,0,0,0,1.13-1.48,4.2,4.2,0,0,0,.36-1.82,4.39,4.39,0,0,0-.95-2.77,14.6,14.6,0,0,0-4.58-3,14.84,14.84,0,0,1-5.21-3.94,7.52,7.52,0,0,1,.85-9.79,7.44,7.44,0,0,1,2.55-1.62,7.58,7.58,0,0,1,3-.51A11.69,11.69,0,0,1,476.7,504.39Z"/><path class="cls-3" d="M526.06,490.45v39.17h-3.61v-4.9a13.38,13.38,0,0,1-5.11,4.15,13.58,13.58,0,0,1-6.28,1.5,14.12,14.12,0,0,1-5.78-1,13.86,13.86,0,0,1-4.85-3.32,15.1,15.1,0,0,1-4.26-10.64,14.71,14.71,0,0,1,4.26-10.65,14.13,14.13,0,0,1,4.85-3.3,15.2,15.2,0,0,1,12.17.42,15,15,0,0,1,4.89,4.48V490.23Zm-14.57,13.62a10.63,10.63,0,0,0-5.53,1.49,11.39,11.39,0,0,0-4.15,4.26,11.63,11.63,0,0,0,0,11.39,12.26,12.26,0,0,0,4.15,4.26,10.63,10.63,0,0,0,5.53,1.49,11.62,11.62,0,0,0,5.64-1.49,10.65,10.65,0,0,0,4.14-4,11.87,11.87,0,0,0,1.39-5.86,11.51,11.51,0,0,0-3.19-8.2,10.6,10.6,0,0,0-8-3.3Z"/><path class="cls-3" d="M558.09,520.68l3.08,1.6a21.39,21.39,0,0,1-3.51,4.79,13.6,13.6,0,0,1-4.47,2.76,14.92,14.92,0,0,1-5.53,1A13.64,13.64,0,0,1,537,526.22a15.47,15.47,0,0,1-.64-19.81A13.68,13.68,0,0,1,547.66,501a14,14,0,0,1,11.49,5.54,15.16,15.16,0,0,1,3.08,9.69H536.91a10.74,10.74,0,0,0,.71,4.31,10.61,10.61,0,0,0,2.38,3.67,9.93,9.93,0,0,0,7.55,3.19,12,12,0,0,0,7.66-2.76A17.42,17.42,0,0,0,558.09,520.68Zm0-7.67a12.84,12.84,0,0,0-2.13-4.68,11.43,11.43,0,0,0-3.73-2.77,11,11,0,0,0-11.91,1.6A11.94,11.94,0,0,0,537,513Z"/><path class="cls-3" d="M583.61,490.45h3.62v16a15.63,15.63,0,0,1,4.9-4.36,11.54,11.54,0,0,1,5.74-1.49,9.78,9.78,0,0,1,5.53,1.6,9.53,9.53,0,0,1,3.62,4.36,21.43,21.43,0,0,1,1.17,8.51v14.59h-3.62V516.1a41.36,41.36,0,0,0,0-6.49,8,8,0,0,0-2.44-4.26,7.46,7.46,0,0,0-4.68-1.39,9.49,9.49,0,0,0-6,2.13,10.66,10.66,0,0,0-3.41,5.43,39.31,39.31,0,0,0,0,7.67v10.64h-3.61Z"/><path class="cls-3" d="M629.36,500.56A13.94,13.94,0,0,1,640,505.35,14.55,14.55,0,0,1,643.94,516a14.66,14.66,0,0,1-4.16,10.64A13.73,13.73,0,0,1,635,530a14.64,14.64,0,0,1-16.45-3.4,15,15,0,0,1-4-10.64,14.84,14.84,0,0,1,3.83-10.65,13.85,13.85,0,0,1,11.06-4.79Zm0,3.62a10.7,10.7,0,0,0-4.22.84,10.4,10.4,0,0,0-3.54,2.46,11.72,11.72,0,0,0-1.81,13.84,10.93,10.93,0,0,0,19.14,0,11.5,11.5,0,0,0,1.49-5.75,10.65,10.65,0,0,0-.77-4.4,10.78,10.78,0,0,0-2.52-3.69,10.54,10.54,0,0,0-3.55-2.46A10.7,10.7,0,0,0,629.36,504.18Z"/><path class="cls-3" d="M650.85,501.3h3.62v5.11a15.6,15.6,0,0,1,4.89-4.36,11.55,11.55,0,0,1,5.75-1.49,9.73,9.73,0,0,1,9.25,6,23.86,23.86,0,0,1,1.17,8.51v14.59h-3.72V516.1a41.36,41.36,0,0,0,0-6.49,7.34,7.34,0,0,0-2.45-4.26,7.25,7.25,0,0,0-4.68-1.39,9.53,9.53,0,0,0-6,2.13,10.71,10.71,0,0,0-3.4,5.43,38.61,38.61,0,0,0-.53,7.67v10.64h-3.62Z"/><path class="cls-3" d="M707,520.68l3.08,1.6a18.24,18.24,0,0,1-3.4,4.79,16.46,16.46,0,0,1-4.46,2.76,15.55,15.55,0,0,1-5.65,1A13.51,13.51,0,0,1,686,526.22a15.47,15.47,0,0,1-.64-19.81A13.29,13.29,0,0,1,696.49,501a14,14,0,0,1,11.59,5.54,15.11,15.11,0,0,1,3.09,9.69H685.74a11.53,11.53,0,0,0,3.2,8,9.68,9.68,0,0,0,7.44,3.19,11.45,11.45,0,0,0,4.26-.74,10.58,10.58,0,0,0,3.4-2A14.68,14.68,0,0,0,707,520.68Zm0-7.67a9.45,9.45,0,0,0-1.87-4.5,9.35,9.35,0,0,0-3.88-2.95,11.19,11.19,0,0,0-12,1.6A12.87,12.87,0,0,0,686,513Z"/><path class="cls-3" d="M732,504.39l-2.34,2.45A8.28,8.28,0,0,0,724,504a4.68,4.68,0,0,0-3.08,1.18,3.58,3.58,0,0,0-.94,1.24,3.82,3.82,0,0,0-.34,1.52,4.47,4.47,0,0,0,1.06,2.66,15.57,15.57,0,0,0,4.36,3,15.67,15.67,0,0,1,5.54,4.05,7.29,7.29,0,0,1,1.49,4.47,8.27,8.27,0,0,1-.63,3.18,8.17,8.17,0,0,1-1.82,2.68,8.74,8.74,0,0,1-6.17,2.45,12,12,0,0,1-4.68-1.07,9.88,9.88,0,0,1-3.62-3l2.24-2.56a8.09,8.09,0,0,0,5.95,3.09,5.46,5.46,0,0,0,3.73-1.38,4.6,4.6,0,0,0,1.08-1.5,4.51,4.51,0,0,0,.41-1.8,4.4,4.4,0,0,0-1-2.77,15.79,15.79,0,0,0-4.58-3,15,15,0,0,1-5.21-3.94,7.13,7.13,0,0,1-1.38-4.37,7.55,7.55,0,0,1,2.13-5.42,8,8,0,0,1,5.63-2.13,11.27,11.27,0,0,1,7.77,3.83Z"/><path class="cls-3" d="M741.7,490.87h3.62v10.65h5.74v3.19h-5.74v25.12H741.7V504.71h-5v-3.19h5Z"/><path class="cls-3" d="M757.77,489.7a2.78,2.78,0,0,1,1.14.21,3,3,0,0,1,0,5.54,2.78,2.78,0,0,1-1.14.21,2.88,2.88,0,0,1-2-.85,2.8,2.8,0,0,1-.7-1,2.82,2.82,0,0,1,0-2.32,2.8,2.8,0,0,1,.7-1A2.84,2.84,0,0,1,757.77,489.7ZM756,501.3h3.72v28.32H756Z"/><path class="cls-3" d="M795.42,490.45v39.17h-3.61v-4.9a13.31,13.31,0,0,1-5.11,4.15A14,14,0,0,1,770.21,526a14.75,14.75,0,0,1-3.2-4.89,15.76,15.76,0,0,1,0-11.39,14.58,14.58,0,0,1,7.88-8,14.63,14.63,0,0,1,5.61-1.16,13.21,13.21,0,0,1,6.28,1.49,14.22,14.22,0,0,1,5,4.47V490.45Zm-14.57,13.62a11.76,11.76,0,0,0-5.64,1.49,11.81,11.81,0,0,0-5.53,9.9,11.59,11.59,0,0,0,5.64,10,10.65,10.65,0,0,0,5.53,1.49,12.11,12.11,0,0,0,5.64-1.49,10.67,10.67,0,0,0,4.15-4,12,12,0,0,0,1.38-5.86,11.47,11.47,0,0,0-3.19-8.2,10.6,10.6,0,0,0-8-3.3Z"/><path class="cls-3" d="M831.81,501.3v28.32h-3.62v-4.9a13.31,13.31,0,0,1-5.11,4.15A14,14,0,0,1,806.6,526a15.22,15.22,0,0,1,0-21.29,14.13,14.13,0,0,1,4.85-3.3,15.2,15.2,0,0,1,12.17.42,15.08,15.08,0,0,1,4.89,4.48v-5.22Zm-14.58,2.77a10.71,10.71,0,0,0-9.68,5.75,11.63,11.63,0,0,0,0,11.39,12.35,12.35,0,0,0,4.15,4.26,10.68,10.68,0,0,0,5.53,1.49,11.59,11.59,0,0,0,5.64-1.49,10.63,10.63,0,0,0,4.15-4.05,11.9,11.9,0,0,0,1.38-5.85,11.47,11.47,0,0,0-3.19-8.2,10.53,10.53,0,0,0-3.64-2.5A10.73,10.73,0,0,0,817.23,504.07Z"/><path class="cls-3" d="M868.72,490.45v39.17h-3.61v-4.9a13.38,13.38,0,0,1-5.11,4.15,13.55,13.55,0,0,1-6.28,1.5,14.2,14.2,0,0,1-5.79-1,14,14,0,0,1-4.84-3.32,15.1,15.1,0,0,1-4.26-10.64,14.71,14.71,0,0,1,4.26-10.65,14.13,14.13,0,0,1,4.85-3.3,15.2,15.2,0,0,1,12.17.42,15.08,15.08,0,0,1,4.89,4.48V490.23Zm-14.57,13.62a10.63,10.63,0,0,0-5.53,1.49,11.39,11.39,0,0,0-4.15,4.26,11.63,11.63,0,0,0,0,11.39,12.26,12.26,0,0,0,4.15,4.26,10.63,10.63,0,0,0,5.53,1.49,11.62,11.62,0,0,0,5.64-1.49,10.65,10.65,0,0,0,4.14-4,11.87,11.87,0,0,0,1.39-5.86,11.51,11.51,0,0,0-3.19-8.2,10.6,10.6,0,0,0-3.89-2.61,10.71,10.71,0,0,0-4.62-.69Z"/><path class="cls-3" d="M880,522.59l3.51,1.6-5.21,9.9L875.64,533Z"/><path class="cls-3" d="M196.6,573.91h3.93L210,594.56l9.79-20.65h3.93l-13,28.31h-.63Z"/><path class="cls-3" d="M252.55,592.54l3.09,1.59a14.59,14.59,0,0,1-3.51,4.69,13.07,13.07,0,0,1-4.36,2.87,15.72,15.72,0,0,1-5.64.85,13.8,13.8,0,0,1-10.64-4.47,15.63,15.63,0,0,1-3.83-10.65,15.18,15.18,0,0,1,3.3-9.68,13.46,13.46,0,0,1,11.17-5.32A13.76,13.76,0,0,1,253.72,578a15.11,15.11,0,0,1,3.09,9.69H231.38a10.69,10.69,0,0,0,3.19,8A10,10,0,0,0,238,598a9.82,9.82,0,0,0,4.07.79,11.7,11.7,0,0,0,4.26-.75,12,12,0,0,0,3.4-2A16.15,16.15,0,0,0,252.55,592.54Zm0-7.67a11.08,11.08,0,0,0-2.12-4.68,9.65,9.65,0,0,0-3.62-2.77,11.13,11.13,0,0,0-12,1.6,12.8,12.8,0,0,0-3.3,5.85Z"/><path class="cls-3" d="M262.34,573.91h3.72v4.15a13.28,13.28,0,0,1,3.51-3.73,7.07,7.07,0,0,1,3.83-1.17,6.82,6.82,0,0,1,3.2,1l-1.92,3.09a5.11,5.11,0,0,0-1.91,0,5.6,5.6,0,0,0-3.51,1.49,10.61,10.61,0,0,0-2.56,4.68,48,48,0,0,0-.64,9.8v9.58h-3.72Z"/><path class="cls-3" d="M307.55,562.62V601.9H304V597a17.19,17.19,0,0,1-5.21,4.15,13.18,13.18,0,0,1-6.17,1.38A13.56,13.56,0,0,1,282,598.28a14.59,14.59,0,0,1-3.21-4.88,14.82,14.82,0,0,1,13.53-20.56,13.73,13.73,0,0,1,6.28,1.49,14.13,14.13,0,0,1,5,4.47V562.62Zm-14.46,13.73a11.49,11.49,0,0,0-5.64,1.5A10.56,10.56,0,0,0,283.4,582a11.83,11.83,0,0,0,4.05,15.75,11.65,11.65,0,0,0,5.53,1.49,12,12,0,0,0,5.74-1.49,11.28,11.28,0,0,0,4-4,12.35,12.35,0,0,0,1.49-5.86,11.49,11.49,0,0,0-6.89-10.67A10.7,10.7,0,0,0,293.09,576.35Z"/><path class="cls-3" d="M343.93,573.91v28.31h-3.51v-4.89a17,17,0,0,1-5.21,4.15,13.18,13.18,0,0,1-6.17,1.38,13.64,13.64,0,0,1-10.64-4.25,15.39,15.39,0,0,1-3.17-16.28,14.69,14.69,0,0,1,13.49-9.17,13.42,13.42,0,0,1,6.28,1.49,14,14,0,0,1,5,4.47v-5.21Zm-14.46,2.77a11.47,11.47,0,0,0-5.64,1.48,11.64,11.64,0,0,0,.11,19.91,10.54,10.54,0,0,0,5.53,1.49,11.92,11.92,0,0,0,5.63-1.49,11.28,11.28,0,0,0,4-4,12.24,12.24,0,0,0,1.49-5.86,11.29,11.29,0,0,0-.77-4.42,11.13,11.13,0,0,0-2.42-3.77,10.6,10.6,0,0,0-8-3.63Z"/><path class="cls-3" d="M380.32,562.62V601.9h-3.51V597a18.29,18.29,0,0,1-5.11,4.15,13.88,13.88,0,0,1-6.28,1.38,13.56,13.56,0,0,1-10.63-4.26,14.59,14.59,0,0,1-3.21-4.88,15.76,15.76,0,0,1,0-11.39,14.46,14.46,0,0,1,3.15-4.79,14.71,14.71,0,0,1,4.73-3.22,14.87,14.87,0,0,1,5.62-1.16,13.29,13.29,0,0,1,6.27,1.49,14,14,0,0,1,5,4.47V562.62Zm-14.47,13.73a11.49,11.49,0,0,0-5.64,1.5,10.61,10.61,0,0,0-4,4.15,11.82,11.82,0,0,0,0,11.49,11.24,11.24,0,0,0,4.15,4.26,10.56,10.56,0,0,0,5.53,1.49,12,12,0,0,0,5.64-1.49,10.59,10.59,0,0,0,4-4,12.24,12.24,0,0,0,1.49-5.86,11.32,11.32,0,0,0-.76-4.42,11.45,11.45,0,0,0-2.43-3.78,10.7,10.7,0,0,0-8-3.3Z"/><path class="cls-3" d="M400.64,573.91h3.83l9.68,21.29,9.47-21.29h3.83l-16.81,38.64h-3.83L412.23,600Z"/><path class="cls-3" d="M445.21,573.91h3.73v4.15a13,13,0,0,1,3.51-3.73,7,7,0,0,1,3.82-1.17,6.82,6.82,0,0,1,3.2,1l-1.92,3.09a5.11,5.11,0,0,0-1.91,0,5.6,5.6,0,0,0-3.51,1.49,10.71,10.71,0,0,0-2.56,4.68,47.32,47.32,0,0,0-.63,9.8v9.58h-3.73Z"/><path class="cls-3" d="M486.38,592.54l3.09,1.59a18.75,18.75,0,0,1-3.51,4.69,12.52,12.52,0,0,1-4.47,2.87,14.86,14.86,0,0,1-5.53.85,13.5,13.5,0,0,1-10.64-4.47,15.54,15.54,0,0,1-.64-19.91,14.68,14.68,0,0,1,22.77,0,15.16,15.16,0,0,1,3.08,9.69H464.47a11.48,11.48,0,0,0,3.19,8,10.21,10.21,0,0,0,3.43,2.41,10.07,10.07,0,0,0,4.12.78,12.1,12.1,0,0,0,7.66-2.77A19.34,19.34,0,0,0,486.38,592.54Zm0-7.67a12.65,12.65,0,0,0-2.12-4.68,10,10,0,0,0-3.73-2.77,10.72,10.72,0,0,0-4.79-1.07,10.61,10.61,0,0,0-7.12,2.67,11.82,11.82,0,0,0-3.3,5.85Z"/><path class="cls-3" d="M511.38,576.67,509,579.12a8.48,8.48,0,0,0-5.74-2.87,4.33,4.33,0,0,0-3,1.17,3.58,3.58,0,0,0-.94,1.24,3.52,3.52,0,0,0-.34,1.53,3.62,3.62,0,0,0,1.07,2.55,12.33,12.33,0,0,0,4.36,3,18.31,18.31,0,0,1,5.53,4.15,7.09,7.09,0,0,1,1.38,4.37,8,8,0,0,1-.62,3.24,8.19,8.19,0,0,1-7.89,5.06,10.68,10.68,0,0,1-4.68-1.06,9.13,9.13,0,0,1-3.72-2.87l2.34-2.67a7.82,7.82,0,0,0,5.85,3.19,5.14,5.14,0,0,0,3.72-1.38,4.13,4.13,0,0,0,1.1-1.29,4.06,4.06,0,0,0,.49-1.62,4.13,4.13,0,0,0-1.06-3.15,16,16,0,0,0-4.57-3.09,14.61,14.61,0,0,1-5.21-3.83,7.53,7.53,0,0,1,6.38-11.93A11.69,11.69,0,0,1,511.38,576.67Z"/><path class="cls-3" d="M517.66,573.91h3.61v5.21a14.07,14.07,0,0,1,5-4.47,13.22,13.22,0,0,1,6.17-1.49,14.73,14.73,0,0,1,15,15,15.1,15.1,0,0,1-4.25,10.65,13.91,13.91,0,0,1-10.64,4.25,13.45,13.45,0,0,1-6.17-1.38,15.9,15.9,0,0,1-5.11-4.15v15.22h-3.61Zm14.57,2.76a10.6,10.6,0,0,0-4.34.81,10.45,10.45,0,0,0-3.63,2.5,11.15,11.15,0,0,0-2.43,3.77,11.29,11.29,0,0,0-.77,4.42,12.09,12.09,0,0,0,1.39,5.86,10.71,10.71,0,0,0,4.14,4,11.65,11.65,0,0,0,5.64,1.49,11.35,11.35,0,0,0,5.54-1.49,12.39,12.39,0,0,0,4.06-4.3,12.25,12.25,0,0,0,1.57-5.71,11.28,11.28,0,0,0-5.63-9.9,10.79,10.79,0,0,0-5.32-1.81Z"/><path class="cls-3" d="M577.87,592.54l3.09,1.59a18.78,18.78,0,0,1-3.52,4.69,12.26,12.26,0,0,1-4.46,2.87,14.89,14.89,0,0,1-5.53.85,13.59,13.59,0,0,1-10.64-4.47,15.54,15.54,0,0,1-.64-19.91,14.69,14.69,0,0,1,22.77,0,15.15,15.15,0,0,1,3.19,9.69H556.7a10.48,10.48,0,0,0,.71,4.32,10.83,10.83,0,0,0,2.37,3.67,10.35,10.35,0,0,0,3.44,2.41,10,10,0,0,0,4.12.78,10.53,10.53,0,0,0,4.15-.75,11.19,11.19,0,0,0,3.51-2A16.22,16.22,0,0,0,577.87,592.54Zm0-7.67a12.67,12.67,0,0,0-2.13-4.68,10.52,10.52,0,0,0-3.61-2.77,11.36,11.36,0,0,0-4.9-1.07,10.61,10.61,0,0,0-7.12,2.67,11.82,11.82,0,0,0-3.3,5.85Z"/><path class="cls-3" d="M592.13,563.26h3.61v10.65h5.86V577h-5.86v25.23h-3.61V577h-4.89v-3.08h4.89Z"/><path class="cls-3" d="M620.1,572.84a13.72,13.72,0,0,1,10.64,4.79,14.39,14.39,0,0,1,3.06,4.92,18,18,0,0,1-.12,11.47,14.51,14.51,0,0,1-3.15,4.9,15,15,0,0,1-16.4,3.28,15.2,15.2,0,0,1-4.88-3.28,14.66,14.66,0,0,1-3.15-4.9,14.82,14.82,0,0,1-1-5.74,14.53,14.53,0,0,1,.89-5.73,14.37,14.37,0,0,1,3-4.92,13.85,13.85,0,0,1,11.06-4.79Zm0,3.62a10.66,10.66,0,0,0-7.76,3.3,11.48,11.48,0,0,0-3.3,8.09,10.69,10.69,0,0,0,1.6,5.75,9.51,9.51,0,0,0,3.93,4,10.49,10.49,0,0,0,5.53,1.49,11.41,11.41,0,0,0,5.65-1.49,10.52,10.52,0,0,0,3.93-4,10.66,10.66,0,0,0,1.49-5.75,11.37,11.37,0,0,0-3.19-8.09,10.6,10.6,0,0,0-8-3.3Z"/><path class="cls-3" d="M645.32,596.15a3.33,3.33,0,0,1,2.22,1,3.14,3.14,0,0,1,.72,3.5,3.18,3.18,0,0,1-.71,1.07,3.39,3.39,0,0,1-4.47,0,3.25,3.25,0,0,1-1-2.34,3.27,3.27,0,0,1,1-2.23A3.35,3.35,0,0,1,645.32,596.15Z"/><path class="cls-3" d="M671.59,601.9V563.26h.86l25.42,29.38V563.26h3.73v38.32h-.86l-25.21-29v29Z"/><path class="cls-3" d="M709.89,573.91h3.62v13.2a29.13,29.13,0,0,0,0,6.6,7,7,0,0,0,3,4.15,9.9,9.9,0,0,0,10.64,0A7.38,7.38,0,0,0,730,594a24.75,24.75,0,0,0,.53-6.92v-13.2h3.73v13.84a21.3,21.3,0,0,1-1.39,8.83,10.64,10.64,0,0,1-4,4.69,13.62,13.62,0,0,1-6.91,1.59,13.87,13.87,0,0,1-6.92-1.59,10.64,10.64,0,0,1-4-4.69,22.14,22.14,0,0,1-1.39-9.05Z"/><path class="cls-3" d="M766.49,592.54l3,1.59a16.28,16.28,0,0,1-3.41,4.69,14.43,14.43,0,0,1-4.47,2.87,15.63,15.63,0,0,1-5.63.85,13.23,13.23,0,0,1-5.83-1,13.38,13.38,0,0,1-4.81-3.44,15.54,15.54,0,0,1-.64-19.91,13.54,13.54,0,0,1,11.17-5.32,13.84,13.84,0,0,1,11.6,5.54,15.12,15.12,0,0,1,3.08,9.68H745.11a11.48,11.48,0,0,0,3.19,8,9.84,9.84,0,0,0,7.55,3.19,12,12,0,0,0,7.66-2.76A20,20,0,0,0,766.49,592.54Zm0-7.67a14.7,14.7,0,0,0-2.13-4.68,10,10,0,0,0-3.72-2.77A11,11,0,0,0,748.72,579a12,12,0,0,0-3.3,5.86Z"/><path class="cls-3" d="M791.49,576.68l-2.34,2.44a8.72,8.72,0,0,0-5.75-2.87,4,4,0,0,0-1.6.29,4.13,4.13,0,0,0-1.37.88,3.61,3.61,0,0,0-.95,1.24,3.66,3.66,0,0,0-.33,1.53,4,4,0,0,0,1,2.55,14.82,14.82,0,0,0,4.36,3,15.81,15.81,0,0,1,5.53,4.15,7.28,7.28,0,0,1,1.49,4.37,8.28,8.28,0,0,1-.61,3.23A8.17,8.17,0,0,1,789,600.2a8.39,8.39,0,0,1-6.17,2.34,9.54,9.54,0,0,1-4.57-1.06,9,9,0,0,1-3.73-2.87l2.24-2.67a7.93,7.93,0,0,0,6,3.19,5.14,5.14,0,0,0,3.72-1.38,4.46,4.46,0,0,0,.53-6.06,18.12,18.12,0,0,0-4.57-3.09,13.76,13.76,0,0,1-5.22-3.83,7.78,7.78,0,0,1-1.35-5.06,7.67,7.67,0,0,1,2.21-4.74,7.75,7.75,0,0,1,2.55-1.62,7.58,7.58,0,0,1,3-.51A11.7,11.7,0,0,1,791.49,576.68Z"/><path class="cls-3" d="M801.07,563.26h3.82v10.65h5.75V577h-5.75v25.23h-3.61V577h-5v-3.08h5Z"/><path class="cls-3" d="M814.57,573.91h3.73v4.15a14.74,14.74,0,0,1,3.4-3.73,7.72,7.72,0,0,1,3.94-1.17,6.82,6.82,0,0,1,3.19,1l-1.91,3.09a5.16,5.16,0,0,0-1.92,0,5.6,5.6,0,0,0-3.51,1.49,10.6,10.6,0,0,0-2.55,4.68,46.65,46.65,0,0,0-.64,9.8v9.58h-3.73Z"/><path class="cls-3" d="M860.11,573.91v28.31h-3.62v-4.89a15.82,15.82,0,0,1-5.11,4.15,14.56,14.56,0,0,1-16.49-2.87,14.94,14.94,0,0,1,4.71-24.29,14.63,14.63,0,0,1,5.61-1.16,13.47,13.47,0,0,1,11.28,6v-5.21Zm-14.58,2.77a11.75,11.75,0,0,0-5.64,1.48,10.77,10.77,0,0,0-4,4.16,10.6,10.6,0,0,0-1.49,5.74,11.62,11.62,0,0,0,1.5,5.76,11.48,11.48,0,0,0,4.14,4.25,10.56,10.56,0,0,0,5.53,1.49,12,12,0,0,0,5.64-1.49,10.74,10.74,0,0,0,4.15-4,12.19,12.19,0,0,0,1.38-5.86,11.33,11.33,0,0,0-3.19-8.19,10.6,10.6,0,0,0-8-3.63Z"/><path class="cls-3" d="M882.45,576.67l-2.35,2.45a8.27,8.27,0,0,0-5.63-2.87,4.46,4.46,0,0,0-3.09,1.17,3.58,3.58,0,0,0-.94,1.24,3.66,3.66,0,0,0-.33,1.53,3.61,3.61,0,0,0,1.06,2.55,12.33,12.33,0,0,0,4.36,3,16.85,16.85,0,0,1,5.53,4.15,7.16,7.16,0,0,1,1.39,4.37,7.77,7.77,0,0,1-2.45,6,8.16,8.16,0,0,1-6.07,2.34,10.71,10.71,0,0,1-4.68-1.06,9.13,9.13,0,0,1-3.72-2.87l2.34-2.67a7.82,7.82,0,0,0,5.85,3.19,5,5,0,0,0,3.72-1.38,4.22,4.22,0,0,0,1.18-1.47,4.27,4.27,0,0,0,.42-1.83,3.76,3.76,0,0,0-.24-1.49,3.86,3.86,0,0,0-.82-1.27,14.69,14.69,0,0,0-4.58-3.09,14.57,14.57,0,0,1-4.68-4.05,8,8,0,0,1-1.38-4.47,7.08,7.08,0,0,1,2.23-5.32,7.74,7.74,0,0,1,5.54-2.13A11.5,11.5,0,0,1,882.45,576.67Z"/><path class="cls-3" d="M279.57,645.87v28.21H276v-4.36a15.82,15.82,0,0,1-5.11,4.15,13.88,13.88,0,0,1-6.28,1.38,13.57,13.57,0,0,1-10.63-4.36,14.25,14.25,0,0,1-4.26-10.65,14.7,14.7,0,0,1,1-5.75,14.53,14.53,0,0,1,3.21-4.89,14.87,14.87,0,0,1,17-2.88,13.8,13.8,0,0,1,4.89,4.47V646ZM265,648.64a11.65,11.65,0,0,0-5.64,1.49,10.67,10.67,0,0,0-4,4.15,11.84,11.84,0,0,0,0,11.5,11.66,11.66,0,0,0,9.68,5.75,11.74,11.74,0,0,0,5.64-1.5,10.62,10.62,0,0,0,4.15-4.15A11.87,11.87,0,0,0,273,651.94a10.74,10.74,0,0,0-3.61-2.62,10.62,10.62,0,0,0-4.37-.89Z"/><path class="cls-3" d="M315.53,651.73l-2.87,1.8a12.77,12.77,0,0,0-18.72-1.7,11.37,11.37,0,0,0-1.81,13.95,10.54,10.54,0,0,0,4.25,4.25,13.17,13.17,0,0,0,6.17,1.5,12.38,12.38,0,0,0,5.67-1.27,12.16,12.16,0,0,0,4.44-3.74l2.87,1.92a12.32,12.32,0,0,1-5.42,4.68,16.47,16.47,0,0,1-7.77,1.71,15,15,0,0,1-10.64-4.26,13.72,13.72,0,0,1-4.47-10.65,14.87,14.87,0,0,1,2.13-7.66,13.84,13.84,0,0,1,5.64-5.43,16,16,0,0,1,8.08-2,19.24,19.24,0,0,1,5.43.85,13.07,13.07,0,0,1,4.36,2.23A12.14,12.14,0,0,1,315.53,651.73Z"/><path class="cls-3" d="M349.58,651.73l-2.88,1.8a12.15,12.15,0,0,0-10.64-5,12.46,12.46,0,0,0-8.61,3.3A11.48,11.48,0,0,0,330,670a14.13,14.13,0,0,0,12,.32,12.5,12.5,0,0,0,4.7-3.83l2.88,1.92a13.58,13.58,0,0,1-5.43,4.68,17.12,17.12,0,0,1-7.77,1.71,15.4,15.4,0,0,1-10.63-4.26,13.49,13.49,0,0,1-4.37-10.65,14.91,14.91,0,0,1,2-7.66,14.57,14.57,0,0,1,5.64-5.43,16,16,0,0,1,8.09-2,17.8,17.8,0,0,1,5.42.85,13.59,13.59,0,0,1,4.47,2.23A14.16,14.16,0,0,1,349.58,651.73Z"/><path class="cls-3" d="M358.08,634.16a3.3,3.3,0,0,1,3.09,3.09,2.48,2.48,0,0,1-.26,1.11,2.42,2.42,0,0,1-.7.91,2.5,2.5,0,0,1-.95.72,2.66,2.66,0,0,1-1.18.24,3.26,3.26,0,0,1-2-1,3.19,3.19,0,0,1-.95-2,2.52,2.52,0,0,1,.23-1.18,2.69,2.69,0,0,1,.72-1,2.59,2.59,0,0,1,.91-.7A2.55,2.55,0,0,1,358.08,634.16Zm-1.8,11.71H360v28.21h-3.72Z"/><path class="cls-3" d="M380.53,645.13a14.67,14.67,0,0,1,14.58,15.32A15,15,0,0,1,391,671.1a14.91,14.91,0,0,1-21.28,0,15.35,15.35,0,0,1-4-10.65,14.76,14.76,0,0,1,3.83-10.11,13.88,13.88,0,0,1,11.06-5.21Zm0,3.51a10.43,10.43,0,0,0-4.23.9,10.61,10.61,0,0,0-3.53,2.5,11.37,11.37,0,0,0-3.3,8.1,12,12,0,0,0,1.49,5.74,11.2,11.2,0,0,0,4,4,11,11,0,0,0,15.11-4,12.27,12.27,0,0,0,1.49-5.74,11.5,11.5,0,0,0-11.07-11.71Z"/><path class="cls-3" d="M402,645.87h3.62v5a15.29,15.29,0,0,1,4.89-4.26,10.84,10.84,0,0,1,5.75-1.49,9.69,9.69,0,0,1,9.25,6,23.86,23.86,0,0,1,1.17,8.51v14.48h-3.62V660.67a38.28,38.28,0,0,0,0-6.6,6.8,6.8,0,0,0-7.12-5.64,9,9,0,0,0-6,2.23,10.61,10.61,0,0,0-3.4,5.43,37.71,37.71,0,0,0,0,7.66V674.4H403Z"/><path class="cls-3" d="M458.3,664.72l3,1.59a15.3,15.3,0,0,1-3.41,4.79,14.08,14.08,0,0,1-4.47,2.77,15.66,15.66,0,0,1-5.63,1,13.38,13.38,0,0,1-10.64-4.47,15.54,15.54,0,0,1-.64-19.91,13.51,13.51,0,0,1,11.17-5.33,13.91,13.91,0,0,1,11.6,5.54,15,15,0,0,1,3.08,9.58H436.81a11.83,11.83,0,0,0,3.19,8.09,9.65,9.65,0,0,0,3.38,2.41,9.77,9.77,0,0,0,4.06.79,14,14,0,0,0,4.26-.75,11.19,11.19,0,0,0,3.51-2A21.22,21.22,0,0,0,458.3,664.72Zm0-7.56a13.75,13.75,0,0,0-2.13-4.69,9.88,9.88,0,0,0-3.72-2.77,11.06,11.06,0,0,0-11.92,1.6,11.55,11.55,0,0,0-3.3,5.86Z"/><path class="cls-3" d="M483.3,649l-2.45,2.44a8.47,8.47,0,0,0-2.57-2.07,8.24,8.24,0,0,0-3.17-.9A4.68,4.68,0,0,0,472,649.6a3.79,3.79,0,0,0-1.17,2.77,4.25,4.25,0,0,0,1,2.55,17.38,17.38,0,0,0,4.36,3A17,17,0,0,1,481.7,662a7.73,7.73,0,0,1,1.49,4.47,8.29,8.29,0,0,1-.63,3.22,7.86,7.86,0,0,1-4.67,4.52,8.32,8.32,0,0,1-3.32.56,10.68,10.68,0,0,1-4.68-1.06,9.82,9.82,0,0,1-3.61-2.88l2.23-2.66a8,8,0,0,0,6,3.19,5.73,5.73,0,0,0,3.72-1.38,4.87,4.87,0,0,0,1.08-1.5,4.68,4.68,0,0,0,.41-1.8,4.13,4.13,0,0,0-1-2.77,18.21,18.21,0,0,0-4.57-3.09,12.58,12.58,0,0,1-5.21-3.94,6.9,6.9,0,0,1-1.39-4.36,7.39,7.39,0,0,1,2.13-5.32,8.12,8.12,0,0,1,5.64-2.13A11.68,11.68,0,0,1,483.3,649Z"/><path class="cls-3" d="M518.61,649l-2.33,2.45a8.33,8.33,0,0,0-5.64-2.88,4.58,4.58,0,0,0-3.09,1.17,3.62,3.62,0,0,0-.94,1.25,3.5,3.5,0,0,0-.33,1.52,3.85,3.85,0,0,0,1.06,2.56,14,14,0,0,0,4.36,3,17,17,0,0,1,5.53,4,7.62,7.62,0,0,1,1.38,4.47,8,8,0,0,1-2.44,6,8.27,8.27,0,0,1-6.06,2.34,11.11,11.11,0,0,1-8.41-3.94l2.34-2.66a7.91,7.91,0,0,0,2.57,2.24,7.72,7.72,0,0,0,3.28.95,6.09,6.09,0,0,0,3.83-1.39,4.52,4.52,0,0,0,1.08-1.49,4.68,4.68,0,0,0,.41-1.8,3.68,3.68,0,0,0-1.06-2.77,14.69,14.69,0,0,0-4.58-3.09,13.57,13.57,0,0,1-5.21-3.94,7.57,7.57,0,0,1-1.38-4.36,6.87,6.87,0,0,1,.55-2.9,7.07,7.07,0,0,1,1.68-2.43,7.83,7.83,0,0,1,5.54-2.13A11.47,11.47,0,0,1,518.61,649Z"/><path class="cls-3" d="M548.83,664.72l3.09,1.59a14.11,14.11,0,0,1-3.52,4.79,12.56,12.56,0,0,1-4.36,2.77,15.66,15.66,0,0,1-5.63,1,13.86,13.86,0,0,1-10.64-4.47,15.82,15.82,0,0,1-3.84-10.65,15.26,15.26,0,0,1,3.3-9.58,13.5,13.5,0,0,1,11.18-5.32A13.93,13.93,0,0,1,550,650.34a15,15,0,0,1,3.08,9.58H527.66a11.72,11.72,0,0,0,3.08,8.09,10.63,10.63,0,0,0,7.56,3.2,14.33,14.33,0,0,0,4.25-.75,12,12,0,0,0,3.41-2A15.48,15.48,0,0,0,548.83,664.72Zm0-7.56a10.73,10.73,0,0,0-2.13-4.69,8.78,8.78,0,0,0-3.61-2.77,11.25,11.25,0,0,0-12,1.6,12.29,12.29,0,0,0-3.29,5.86Z"/><path class="cls-3" d="M573,645.87h3.72V650a15,15,0,0,1,3.51-3.72,7.66,7.66,0,0,1,3.83-1.18,6.21,6.21,0,0,1,3.19,1l-1.81,3.09a4.45,4.45,0,0,0-5.42,1,9.14,9.14,0,0,0-2.56,4.68,38.77,38.77,0,0,0-.74,9.79v9.48H573Z"/><path class="cls-3" d="M592.13,634.16a3.26,3.26,0,0,1,2.12,1,3.31,3.31,0,0,1,1,2.13,2.61,2.61,0,0,1-.25,1.11,2.55,2.55,0,0,1-.71.91,2.5,2.5,0,0,1-1,.72,2.64,2.64,0,0,1-1.17.24,3.31,3.31,0,0,1-3-3,2.52,2.52,0,0,1,.23-1.18,2.61,2.61,0,0,1,.73-1,2.47,2.47,0,0,1,.9-.7A2.56,2.56,0,0,1,592.13,634.16Zm-1.71,11.71H594v28.21h-3.62Z"/><path class="cls-3" d="M625.42,645.87H629v22.57a24.64,24.64,0,0,1-1.06,8.62,10.69,10.69,0,0,1-4.89,6.07,16.86,16.86,0,0,1-8.52,2,21.33,21.33,0,0,1-6.59-.95,13.45,13.45,0,0,1-4.68-2.77,18.4,18.4,0,0,1-3.41-5.12h4a9.82,9.82,0,0,0,4.16,4.16,12.39,12.39,0,0,0,6.27,1.38,12.77,12.77,0,0,0,6.28-1.38,8.29,8.29,0,0,0,3.61-3.52,14.85,14.85,0,0,0,1.17-6.81v-1.38a13.61,13.61,0,0,1-5,3.94,14.82,14.82,0,0,1-6.39,1.38,14.33,14.33,0,0,1-7.23-1.92,12.5,12.5,0,0,1-5.32-5.21,13.78,13.78,0,0,1-1.92-7.13A14.58,14.58,0,0,1,620.1,646.4a16.19,16.19,0,0,1,5.32,4.37Zm-10.63,2.77a11.82,11.82,0,0,0-5.75,1.49,9.89,9.89,0,0,0-4.15,4.15,11.06,11.06,0,0,0,1.6,13.41,11.22,11.22,0,0,0,3.74,2.31,11.09,11.09,0,0,0,4.34.67,10.37,10.37,0,0,0,11.07-11,10.6,10.6,0,0,0-1.39-5.64,9.93,9.93,0,0,0-3.93-3.94,10.57,10.57,0,0,0-5.64-1.7Z"/><path class="cls-3" d="M660.64,664.72l3.09,1.59a17.45,17.45,0,0,1-3.52,4.79,14.15,14.15,0,0,1-4.46,2.77,15.18,15.18,0,0,1-5.54,1,13.5,13.5,0,0,1-10.64-4.47,15.56,15.56,0,0,1-.63-19.91,14.67,14.67,0,0,1,22.76,0,15,15,0,0,1,3.09,9.58H639.36a11.85,11.85,0,0,0,3.19,8.09,10.11,10.11,0,0,0,3.44,2.41,9.88,9.88,0,0,0,4.12.78,14.32,14.32,0,0,0,4.15-.74,11.39,11.39,0,0,0,3.51-2A18.43,18.43,0,0,0,660.64,664.72Zm0-7.56a12,12,0,0,0-2.13-4.69,9.11,9.11,0,0,0-3.72-2.77,11.06,11.06,0,0,0-11.92,1.6,11.62,11.62,0,0,0-3.3,5.86Z"/><path class="cls-3" d="M671.38,645.87H675v5a15.43,15.43,0,0,1,4.9-4.26,10.78,10.78,0,0,1,5.74-1.49,9.72,9.72,0,0,1,9.25,6,23.86,23.86,0,0,1,1.17,8.51v14.48h-3.61V660.67a40.4,40.4,0,0,0,0-6.6,7.34,7.34,0,0,0-2.45-4.15,7.18,7.18,0,0,0-4.68-1.49,8.6,8.6,0,0,0-5.85,2.23,10.67,10.67,0,0,0-3.51,5.43,39.21,39.21,0,0,0,0,7.66V674.4h-3.62Z"/><path class="cls-3" d="M718.83,674.08V634.9h3.62v15.76a15.76,15.76,0,0,1,5.1-4.15,14.3,14.3,0,0,1,16.81,3,15,15,0,0,1,3.28,4.88,15,15,0,0,1,0,11.53,15,15,0,0,1-3.28,4.88,13.55,13.55,0,0,1-4.84,3.35,13.71,13.71,0,0,1-5.8,1,12.81,12.81,0,0,1-6.27-1.49,14.55,14.55,0,0,1-4.89-4.37v5.11Zm14.47-2.77a10.89,10.89,0,0,0,9.68-5.64,11.82,11.82,0,0,0-4-15.75,11.17,11.17,0,0,0-11.18,0,10.53,10.53,0,0,0-4.14,4.15,11.55,11.55,0,0,0-1.49,5.75,11.2,11.2,0,0,0,.81,4.43,11.33,11.33,0,0,0,2.49,3.76,10.51,10.51,0,0,0,3.59,2.48A10.63,10.63,0,0,0,733.3,671.31Z"/><path class="cls-3" d="M783,645.87v28.21h-3.62v-4.36a15.89,15.89,0,0,1-5.1,4.15,13.48,13.48,0,0,1-6.17,1.38,13.7,13.7,0,0,1-10.64-4.36,15.61,15.61,0,0,1-3.08-16.28,14.7,14.7,0,0,1,7.89-8,14.62,14.62,0,0,1,5.61-1.15,13.42,13.42,0,0,1,6.28,1.49A13,13,0,0,1,779,651.4v-5.21Zm-14.47,2.77a11.45,11.45,0,0,0-.11,22.89A11.39,11.39,0,0,0,774,670a10.49,10.49,0,0,0,4.15-4.15,11.54,11.54,0,0,0,1.49-5.74,11.34,11.34,0,0,0-11.17-11.71Z"/><path class="cls-3" d="M790.74,645.87h3.52v32.47a8.36,8.36,0,0,1-1.28,5.22,4.55,4.55,0,0,1-1.63,1.21,4.65,4.65,0,0,1-2,.38,10.63,10.63,0,0,1-4.15-.85V681a5.79,5.79,0,0,0,2.66.75,2.45,2.45,0,0,0,1.28-.28,2.27,2.27,0,0,0,1-.89,7.35,7.35,0,0,0,0-3.3Zm1.81-11.71a3,3,0,0,1,1.17.25,3.34,3.34,0,0,1,1.6,1.69,3,3,0,0,1-.64,3.17,2.77,2.77,0,0,1-1,.7,2.81,2.81,0,0,1-1.17.26,2.64,2.64,0,0,1-1.17-.24,3.94,3.94,0,0,1-1.61-1.63,2.65,2.65,0,0,1-.19-1.11,2.46,2.46,0,0,1,.17-1.17,2.52,2.52,0,0,1,.68-1,2.63,2.63,0,0,1,1-.73A2.78,2.78,0,0,1,792.55,634.16Z"/><path class="cls-3" d="M815.53,645.13a14.64,14.64,0,0,1,14.57,15.32A14.91,14.91,0,0,1,826,671.1a14.21,14.21,0,0,1-10.64,4.37,14.31,14.31,0,0,1-10.64-4.37,15.35,15.35,0,0,1-4-10.65,14.76,14.76,0,0,1,3.83-10.11,14.07,14.07,0,0,1,4.93-3.89A13.93,13.93,0,0,1,815.53,645.13Zm0,3.51a10.51,10.51,0,0,0-4.24.9,10.82,10.82,0,0,0-3.53,2.5,11.42,11.42,0,0,0-3.29,8.1,12,12,0,0,0,1.49,5.74,11.2,11.2,0,0,0,4,4,11.06,11.06,0,0,0,15.11-4,12.14,12.14,0,0,0,1.48-5.74,10.5,10.5,0,0,0-.78-4.4,11.48,11.48,0,0,0-10.28-7.31Z"/><path class="cls-3" d="M209.15,718.15h3.62v4.79a14.61,14.61,0,0,1,4.89-4.36,12.82,12.82,0,0,1,6.28-1.49,13.66,13.66,0,0,1,10.63,4.37,14,14,0,0,1,4.26,10.64,14.25,14.25,0,0,1-4.26,10.65,13.45,13.45,0,0,1-4.83,3.36,13.72,13.72,0,0,1-5.8,1,13.55,13.55,0,0,1-6.17-1.38,15.6,15.6,0,0,1-5.11-4.16v15.12h-3.51Zm14.47,2.77a10.68,10.68,0,0,0-7.87,3.3,11.38,11.38,0,0,0-2.49,3.76,11.25,11.25,0,0,0-.81,4.44,11.6,11.6,0,0,0,1.49,5.75A11,11,0,0,0,233.3,738a11.26,11.26,0,0,0-10.11-17Z"/><path class="cls-3" d="M243.51,718.15h3.72v4.05a16.51,16.51,0,0,1,3.51-3.62,7.68,7.68,0,0,1,3.83-1.17,6.73,6.73,0,0,1,3.3,1L256,721.45a4.5,4.5,0,0,0-5.43,1A8.64,8.64,0,0,0,248,727.1a37.47,37.47,0,0,0-.75,9.68v9.59h-3.72Z"/><path class="cls-3" d="M262.34,706.44a2.87,2.87,0,0,1,1.12.26,2.67,2.67,0,0,1,.9.7,2.65,2.65,0,0,1,1,2.13,3.29,3.29,0,0,1-3,3,2.78,2.78,0,0,1-1.17-.23,2.86,2.86,0,0,1-1-.72,2.7,2.7,0,0,1-.65-.92,2.49,2.49,0,0,1-.2-1.11,2.55,2.55,0,0,1,.18-1.16,2.6,2.6,0,0,1,.67-1,2.73,2.73,0,0,1,1-.72A2.64,2.64,0,0,1,262.34,706.44Zm-1.81,11.71h3.62v28.22h-3.62Z"/><path class="cls-3" d="M271.6,718.15h3.61V723a16.39,16.39,0,0,1,4.79-4.37,12.15,12.15,0,0,1,5.85-1.38,10,10,0,0,1,9.26,6,23.68,23.68,0,0,1,1.06,8.41v14.58h-3.62V732.63a41.36,41.36,0,0,0,0-6.49,7,7,0,0,0-2.44-4.15,7.39,7.39,0,0,0-4.68-1.49,9,9,0,0,0-6,2.23,10,10,0,0,0-3.41,5.32,41.38,41.38,0,0,0-.53,7.78v10.64h-3.62Z"/><path class="cls-3" d="M331.49,724l-3,1.81a12,12,0,0,0-10.64-5,11.54,11.54,0,0,0-4.65.75,11.75,11.75,0,0,0-4,2.55,10.63,10.63,0,0,0-3.4,8.09,11.46,11.46,0,0,0,1.6,5.85,10.61,10.61,0,0,0,4.25,4.15,14.17,14.17,0,0,0,12.13.46,12.18,12.18,0,0,0,4.68-3.86l3,1.91a13.25,13.25,0,0,1-5.53,4.69,16.46,16.46,0,0,1-7.77,1.7,15.21,15.21,0,0,1-10.64-4.26,13.9,13.9,0,0,1-4.47-10.64A15.37,15.37,0,0,1,310.85,719a17.21,17.21,0,0,1,8.09-1.91,15.16,15.16,0,0,1,5.42.85,14.44,14.44,0,0,1,4.47,2.24A10.54,10.54,0,0,1,331.49,724Z"/><path class="cls-3" d="M339.68,706.44a2.66,2.66,0,0,1,1.18.24,2.79,2.79,0,0,1,.95.72,2.63,2.63,0,0,1,.68,1,2.69,2.69,0,0,1,.17,1.16,2.49,2.49,0,0,1-.2,1.11,2.7,2.7,0,0,1-.65.92,2.92,2.92,0,0,1-.95.72,2.79,2.79,0,0,1-1.18.23,3,3,0,0,1-1.17-.25,3,3,0,0,1-1-.7,2.92,2.92,0,0,1-.85-2,3.25,3.25,0,0,1,.21-1.15,3.08,3.08,0,0,1,.64-1,2.86,2.86,0,0,1,1-.7A3,3,0,0,1,339.68,706.44Zm-1.81,11.71h3.62v28.22h-3.62Z"/><path class="cls-3" d="M349.15,718.15h3.62v4.79a13.92,13.92,0,0,1,5-4.36,12,12,0,0,1,6.17-1.49,13.66,13.66,0,0,1,10.64,4.37,14,14,0,0,1,4.25,10.64,14.6,14.6,0,0,1-4.15,10.65,14.18,14.18,0,0,1-4.85,3.32,14,14,0,0,1-5.79,1,13.58,13.58,0,0,1-6.17-1.38,15.66,15.66,0,0,1-5.1-4.16v15.12h-3.62Zm14.58,2.77a10.66,10.66,0,0,0-8,3.3,10.61,10.61,0,0,0-3.2,8.2,11.54,11.54,0,0,0,1.39,5.75,11.33,11.33,0,0,0,20.95-5.85,12.08,12.08,0,0,0-1.49-5.76,11.2,11.2,0,0,0-9.67-5.64Z"/><path class="cls-3" d="M386.59,706.44a2.66,2.66,0,0,1,1.18.24,3.7,3.7,0,0,1,1.63,1.69,2.55,2.55,0,0,1,.18,1.16,2.64,2.64,0,0,1-.2,1.11,2.7,2.7,0,0,1-.65.92,2.86,2.86,0,0,1-1,.72,2.79,2.79,0,0,1-1.18.23,3.29,3.29,0,0,1-3-3,2.63,2.63,0,0,1,.23-1.17,2.86,2.86,0,0,1,.72-1,2.71,2.71,0,0,1,.91-.7A2.86,2.86,0,0,1,386.59,706.44Zm-1.8,11.71h3.72v28.22h-3.72Z"/><path class="cls-3" d="M409.36,717.41A14.29,14.29,0,0,1,420,722.09a15.05,15.05,0,0,1,3.94,10.65,14.49,14.49,0,0,1-4.15,10.65,14,14,0,0,1-4.83,3.39,13.79,13.79,0,0,1-5.81,1.07,13.93,13.93,0,0,1-10.64-4.46,15.34,15.34,0,0,1,0-20.55,14.24,14.24,0,0,1,10.85-5.43Zm0,3.51a10.63,10.63,0,0,0-7.76,3.41,10.51,10.51,0,0,0-2.52,3.69,10.66,10.66,0,0,0-.78,4.4,12,12,0,0,0,1.49,5.75,11.33,11.33,0,0,0,4,4,10.77,10.77,0,0,0,14.68-4,12,12,0,0,0,1.49-5.75,11.51,11.51,0,0,0-10.64-11.5Z"/><path class="cls-3" d="M445.11,721.24l-2.35,2.34a9,9,0,0,0-5.74-2.76,4.08,4.08,0,0,0-1.66.26,4.15,4.15,0,0,0-1.43.91,3.79,3.79,0,0,0-1.16,2.66,4.22,4.22,0,0,0,1,2.66,17.74,17.74,0,0,0,4.36,3,15.85,15.85,0,0,1,5.54,4.05,7.55,7.55,0,0,1,1.49,4.47,8.08,8.08,0,0,1-.62,3.18,7.81,7.81,0,0,1-1.83,2.67,8.7,8.7,0,0,1-6.17,2.45,10.68,10.68,0,0,1-4.68-1.06,9.9,9.9,0,0,1-3.62-3l2.23-2.55a8,8,0,0,0,6,3.19,5.3,5.3,0,0,0,3.73-1.49,4.44,4.44,0,0,0,1.1-1.48,4.58,4.58,0,0,0,.39-1.82,4.65,4.65,0,0,0-1-2.77,18.47,18.47,0,0,0-4.58-3,13.84,13.84,0,0,1-5.21-3.94,7.15,7.15,0,0,1-1.38-4.37,7,7,0,0,1,2.23-5.32,7.26,7.26,0,0,1,2.54-1.66,7.09,7.09,0,0,1,3-.47A11.71,11.71,0,0,1,445.11,721.24Z"/><path class="cls-3" d="M494.47,707.19v39.18h-3.62v-4.8a15.79,15.79,0,0,1-5.1,4.16,13.68,13.68,0,0,1-6.28,1.38,14,14,0,0,1-5.79-1,14.18,14.18,0,0,1-4.85-3.32,14.42,14.42,0,0,1-3.24-4.88,14.07,14.07,0,0,1-1-5.77,14.37,14.37,0,0,1,1-5.76,14.68,14.68,0,0,1,3.23-4.89,13.92,13.92,0,0,1,10.64-4.36,12.87,12.87,0,0,1,6.38,1.49,14.61,14.61,0,0,1,4.89,4.36V706.87Zm-14.58,13.73a10.92,10.92,0,0,0-9.68,5.64,11.65,11.65,0,0,0,0,11.4,11.36,11.36,0,0,0,4.15,4.25,11.36,11.36,0,0,0,15.32-4,11.64,11.64,0,0,0,1.39-5.75,10.76,10.76,0,0,0-.72-4.45,11,11,0,0,0-10.46-7.05Z"/><path class="cls-3" d="M526.49,737l3.09,1.6a17.6,17.6,0,0,1-3.52,4.79,12.16,12.16,0,0,1-4.46,2.76,15,15,0,0,1-5.53,1,13.28,13.28,0,0,1-10.64-4.58,14.88,14.88,0,0,1-3.94-10.64,15.34,15.34,0,0,1,3.3-9.58,14.77,14.77,0,0,1,22.76,0,15.54,15.54,0,0,1,3.09,9.68H505.21a11.83,11.83,0,0,0,3.19,8.09,10,10,0,0,0,7.56,3.2,11.62,11.62,0,0,0,4.15-.86,9.2,9.2,0,0,0,3.51-1.91A21.05,21.05,0,0,0,526.49,737Zm0-7.56a11.87,11.87,0,0,0-2.13-4.68,8.94,8.94,0,0,0-3.72-2.77,10.51,10.51,0,0,0-11.92,1.59,11.53,11.53,0,0,0-3.29,5.86Z"/><path class="cls-3" d="M575.75,737l3.08,1.6a14,14,0,0,1-3.51,4.79,12.63,12.63,0,0,1-4.36,2.76,15.53,15.53,0,0,1-5.64,1,13.64,13.64,0,0,1-5.84-1.09,13.47,13.47,0,0,1-4.8-3.49,15.18,15.18,0,0,1-3.83-10.64,14.82,14.82,0,0,1,3.3-9.58,13.42,13.42,0,0,1,4.7-3.9,13.6,13.6,0,0,1,5.94-1.43,14.13,14.13,0,0,1,11.59,5.43,15.57,15.57,0,0,1,3.09,9.69H554a11.7,11.7,0,0,0,3.09,8.09,10.6,10.6,0,0,0,3.45,2.36,10.89,10.89,0,0,0,4.1.84,11.73,11.73,0,0,0,4.26-.86,9.69,9.69,0,0,0,3.4-1.91A17.47,17.47,0,0,0,575.75,737Zm0-7.56a10.69,10.69,0,0,0-2.13-4.68A8.66,8.66,0,0,0,570,722a11.24,11.24,0,0,0-4.79-1.17,10.62,10.62,0,0,0-7.23,2.76,12.39,12.39,0,0,0-3.3,5.86ZM567,704.85h5.64l-7.66,8h-3.62Z"/><path class="cls-3" d="M589.68,707.62h3.72v10.64h5.75v3.09H593.4v25.12h-3.72V721.35h-4.89v-3.09h4.89Z"/><path class="cls-3" d="M605.85,706.44a3,3,0,0,1,1.17.26,2.86,2.86,0,0,1,1,.7,3.08,3.08,0,0,1,.64,1,3.25,3.25,0,0,1,.21,1.15,2.88,2.88,0,0,1-.85,2,2.91,2.91,0,0,1-1,.69,2.82,2.82,0,0,1-2.32,0,2.91,2.91,0,0,1-1-.69,3,3,0,0,1-.85-2,3.25,3.25,0,0,1,.21-1.15,3.08,3.08,0,0,1,.64-1,2.86,2.86,0,0,1,1-.7A3,3,0,0,1,605.85,706.44ZM604,718.15h3.62v28.22H604Z"/><path class="cls-3" d="M642.66,724l-2.87,1.81a12.87,12.87,0,0,0-9-5,12.75,12.75,0,0,0-5.24.61,12.9,12.9,0,0,0-4.55,2.66,10.6,10.6,0,0,0-3.41,8.09,11.46,11.46,0,0,0,1.6,5.85,10.57,10.57,0,0,0,4.36,4.15,11.65,11.65,0,0,0,6.06,1.6,12.54,12.54,0,0,0,10.64-5l2.88,1.91a13.61,13.61,0,0,1-5.43,4.69,17.1,17.1,0,0,1-7.76,1.7,15.4,15.4,0,0,1-11.18-4.26A14.26,14.26,0,0,1,615.4,738a14.11,14.11,0,0,1-1-5.78,15,15,0,0,1,2-7.67,15.14,15.14,0,0,1,5.75-5.54,16.41,16.41,0,0,1,8-1.91,15.16,15.16,0,0,1,5.42.85,12.55,12.55,0,0,1,4.47,2.24A10.54,10.54,0,0,1,642.66,724Z"/><path class="cls-3" d="M677.77,718.15v28.22h-3.52v-4.8a17.26,17.26,0,0,1-5.21,4.16,13.18,13.18,0,0,1-6.17,1.38,13.72,13.72,0,0,1-5.8-1,13.58,13.58,0,0,1-4.84-3.36,14.42,14.42,0,0,1-3.24-4.88,17.18,17.18,0,0,1,0-11.55,14.06,14.06,0,0,1,3.26-4.86,13.66,13.66,0,0,1,10.64-4.37,12.5,12.5,0,0,1,6.28,1.49,14.87,14.87,0,0,1,5,4.36v-5.1Zm-14.47,2.77a11.51,11.51,0,0,0-5.64,21.29,11.22,11.22,0,0,0,15.32-4,11.6,11.6,0,0,0,1.49-5.75,10.65,10.65,0,0,0-3.3-8.2,10.83,10.83,0,0,0-3.59-2.47A10.67,10.67,0,0,0,663.3,720.92Z"/><path class="cls-3" d="M697.66,718.15h3.83l9.79,21.3,9.36-21.3h3.94l-16.92,38.54h-3.83l5.32-12.45Z"/><path class="cls-3" d="M744.15,746.37V707.19h3.62v15.75a17.5,17.5,0,0,1,5.21-4.15,13.18,13.18,0,0,1,6.17-1.38,13.57,13.57,0,0,1,5.8,1,13.7,13.7,0,0,1,4.84,3.36,15,15,0,0,1,0,21.29,14,14,0,0,1-10.64,4.37,13.7,13.7,0,0,1-6.28-1.49,15,15,0,0,1-5-4.47v5.21Zm14.57-2.77a11.59,11.59,0,0,0,5.64-1.49,10.6,10.6,0,0,0,4-4.15,11.84,11.84,0,0,0,0-11.5,12.18,12.18,0,0,0-4.15-4.26,10,10,0,0,0-5.42-1.49,10.92,10.92,0,0,0-9.79,5.64,11.6,11.6,0,0,0-1.49,5.75,11.34,11.34,0,0,0,3.19,8.2,10.74,10.74,0,0,0,8,3.3Z"/><path class="cls-3" d="M779.79,718.15h3.83v13.2a28.11,28.11,0,0,0,0,6.61,7.77,7.77,0,0,0,3,4.15,9.9,9.9,0,0,0,10.64,0,7.31,7.31,0,0,0,2.87-3.84,25.14,25.14,0,0,0,.54-6.92v-13.2h4.25V732a21.32,21.32,0,0,1-1.38,8.84,9.94,9.94,0,0,1-4,4.58,12.59,12.59,0,0,1-6.92,1.7,12.86,12.86,0,0,1-6.91-1.7,9.68,9.68,0,0,1-4-4.69,21.28,21.28,0,0,1-1.39-8.94Z"/><path class="cls-3" d="M836.81,737l3.08,1.6a17.36,17.36,0,0,1-3.51,4.79,14,14,0,0,1-4.47,2.76,15.44,15.44,0,0,1-5.63,1,13,13,0,0,1-5.85-1.06,13.23,13.23,0,0,1-4.79-3.52,15.42,15.42,0,0,1-.64-19.8,13.58,13.58,0,0,1,11.28-5.32,14,14,0,0,1,10.53,5.53,15.58,15.58,0,0,1,3.08,9.69H814.47a11.74,11.74,0,0,0,3.19,8.09,9.93,9.93,0,0,0,3.43,2.41,10.08,10.08,0,0,0,4.12.79,11.57,11.57,0,0,0,4.15-.86,9.26,9.26,0,0,0,3.51-1.91A20.41,20.41,0,0,0,836.81,737Zm0-7.56a13.7,13.7,0,0,0-2.13-4.68A8.94,8.94,0,0,0,831,722,10.51,10.51,0,0,0,819,723.58a11.55,11.55,0,0,0-3.3,5.86Z"/><path class="cls-3" d="M847.44,718.15h3.62v4.79a15.63,15.63,0,0,1,4.9-4.36,11.39,11.39,0,0,1,5.74-1.38,9.69,9.69,0,0,1,9.26,6,23.31,23.31,0,0,1,1.17,8.41v14.58h-3.41V732.63a37,37,0,0,0,0-6.49,7,7,0,0,0-2.44-4.15,7.23,7.23,0,0,0-4.69-1.49,9,9,0,0,0-6,2.23,9.87,9.87,0,0,0-3.41,5.32,41.38,41.38,0,0,0-.53,7.78v10.64h-4.26Z"/><path class="cls-3" d="M285.21,790.33h3.62V812.9a25.29,25.29,0,0,1-1.06,8.73,11.29,11.29,0,0,1-4.9,6,16.77,16.77,0,0,1-8.51,2.13,18.26,18.26,0,0,1-6.59-1.07,11.7,11.7,0,0,1-4.68-2.76,16.19,16.19,0,0,1-3.41-5h4a10.71,10.71,0,0,0,4.15,4.16,14,14,0,0,0,6.28,1.27,12.66,12.66,0,0,0,6.28-1.38,7.56,7.56,0,0,0,3.61-3.41,15.14,15.14,0,0,0,1.17-6.81v-1.49a14.06,14.06,0,0,1-5,4,14.78,14.78,0,0,1-6.38,1.38,14.33,14.33,0,0,1-7.23-1.92,13.14,13.14,0,0,1-5.32-5.21,14.17,14.17,0,0,1-1.92-7.24,14.47,14.47,0,0,1,1.92-7.24,15.49,15.49,0,0,1,5.42-5.43,14.82,14.82,0,0,1,7.24-1.92,14,14,0,0,1,5.95,1.28,17.32,17.32,0,0,1,5.32,4.26Zm-10.64,2.88a11.09,11.09,0,0,0-11.38,11.28,10.64,10.64,0,0,0,3.09,7.67,11.28,11.28,0,0,0,3.73,2.35,11.54,11.54,0,0,0,4.35.73,10.65,10.65,0,0,0,8.09-3.08,10.66,10.66,0,0,0,3-7.88,11.51,11.51,0,0,0-1.39-5.75,9.93,9.93,0,0,0-3.93-3.94,11.22,11.22,0,0,0-5.64-1.38Z"/><path class="cls-3" d="M310,789.69a13.93,13.93,0,0,1,10.64,4.69,15.35,15.35,0,0,1,0,20.54,14.59,14.59,0,0,1-21.28,0,15.13,15.13,0,0,1,0-20.54A13.93,13.93,0,0,1,310,789.69Zm0,3.52a10.67,10.67,0,0,0-4.24.89,10.85,10.85,0,0,0-3.53,2.51,10.65,10.65,0,0,0-2.51,3.7,10.5,10.5,0,0,0-.78,4.4,11.43,11.43,0,0,0,1.49,5.64,10.93,10.93,0,0,0,19.14,0,11.44,11.44,0,0,0,1.4-7.17,11.57,11.57,0,0,0-3.2-6.57,10.85,10.85,0,0,0-3.53-2.51A10.67,10.67,0,0,0,310,793.21Z"/><path class="cls-3" d="M331.7,818.76V779.58h3.62v15.75a14.67,14.67,0,0,1,5.1-4.15,13.48,13.48,0,0,1,6.17-1.38,13.88,13.88,0,0,1,10.64,4.26,15,15,0,0,1,4.15,10.64,14.65,14.65,0,0,1-4.22,10.42,14.68,14.68,0,0,1-10.35,4.38,13.1,13.1,0,0,1-6.17-1.49,14.13,14.13,0,0,1-5-4.47v5.22ZM346.17,816a11.45,11.45,0,1,0-9.68-17.35,12,12,0,0,0-1.39,5.85,11.51,11.51,0,0,0,.77,4.42,11.29,11.29,0,0,0,2.43,3.78,10.57,10.57,0,0,0,7.87,3.19Z"/><path class="cls-3" d="M368.72,778.73a3,3,0,0,1,1.15.21,3.24,3.24,0,0,1,1.68,1.61,3.07,3.07,0,0,1,.26,1.16,2.74,2.74,0,0,1-1,2.13,2.52,2.52,0,0,1-1,.68,2.59,2.59,0,0,1-1.17.17,2.45,2.45,0,0,1-1.1-.2,2.61,2.61,0,0,1-.92-.65,2.49,2.49,0,0,1-.67-1,2.53,2.53,0,0,1-.18-1.16,2.72,2.72,0,0,1,.19-1.13,2.86,2.86,0,0,1,.61-1,2.82,2.82,0,0,1,1-.65A2.74,2.74,0,0,1,368.72,778.73Zm-1.7,11.6h3.62v28.43H367Z"/><path class="cls-3" d="M402.13,809.28l3.08,1.6a14,14,0,0,1-3.51,4.79,14.43,14.43,0,0,1-4.36,2.77,15.45,15.45,0,0,1-5.64.95,13.28,13.28,0,0,1-5.83-1.09,13.6,13.6,0,0,1-4.81-3.48,15.26,15.26,0,0,1-3.82-10.65,14.75,14.75,0,0,1,3.29-9.58,13.28,13.28,0,0,1,4.93-4.05,13.06,13.06,0,0,1,6.24-1.27,14.09,14.09,0,0,1,11.6,5.43,15.27,15.27,0,0,1,3.08,9.68H381a11.76,11.76,0,0,0,3.08,8.1,10.75,10.75,0,0,0,3.47,2.29,10.6,10.6,0,0,0,4.09.79,12.09,12.09,0,0,0,7.65-2.66A17.06,17.06,0,0,0,402.13,809.28Zm0-7.66A10.66,10.66,0,0,0,400,797a10,10,0,0,0-3.62-2.88,12.73,12.73,0,0,0-4.78-1.06,10.65,10.65,0,0,0-7.24,2.66,13.47,13.47,0,0,0-3.3,5.86Z"/><path class="cls-3" d="M411.28,790.33H415v4.15a12.45,12.45,0,0,1,3.51-3.61,6.19,6.19,0,0,1,3.83-1.18,6.79,6.79,0,0,1,3.19,1l-1.91,3a4.77,4.77,0,0,0-1.92,0,5.13,5.13,0,0,0-3.51,1.49,10.55,10.55,0,0,0-2.55,4.58,48,48,0,0,0-.64,9.8v9.58h-3.72Z"/><path class="cls-3" d="M428.94,790.33h3.61v5.11a15.74,15.74,0,0,1,4.9-4.36,11.5,11.5,0,0,1,5.74-1.39,9.85,9.85,0,0,1,9.26,5.86,24.34,24.34,0,0,1,1.17,8.52v14.69h-3.73V805.23a41.36,41.36,0,0,0,0-6.49,7.29,7.29,0,0,0-2.45-4.26,7.87,7.87,0,0,0-4.68-1.38,9.06,9.06,0,0,0-5.95,2.23,9.88,9.88,0,0,0-3.4,5.33,40.47,40.47,0,0,0-.54,7.77v10.65h-3.62Z"/><path class="cls-3" d="M475.1,789.69a13.65,13.65,0,0,1,5.85,1.15,13.51,13.51,0,0,1,4.79,3.54,15.1,15.1,0,0,1,0,20.54,14.76,14.76,0,0,1-21.27,0,15.1,15.1,0,0,1,0-20.54,13.92,13.92,0,0,1,10.63-4.69Zm0,3.52a10.61,10.61,0,0,0-7.76,3.4,11.37,11.37,0,0,0-3.19,8.09,11.67,11.67,0,0,0,5.42,9.8,12,12,0,0,0,11.17,0,9.91,9.91,0,0,0,3.94-4.15,10.68,10.68,0,0,0,1.49-5.65,11.37,11.37,0,0,0-3.19-8.09,10.75,10.75,0,0,0-3.58-2.53A10.6,10.6,0,0,0,475.1,793.21Z"/><path class="cls-3" d="M538.93,796.29,536,798a11.89,11.89,0,0,0-10.11-4.9,11.65,11.65,0,0,0-8.62,3.3,10.67,10.67,0,0,0-3.4,8.09,11.72,11.72,0,0,0,1.6,5.86,10,10,0,0,0,4.25,4.15A13.1,13.1,0,0,0,536,811.09l3,1.92a13.94,13.94,0,0,1-5.53,4.68,16.3,16.3,0,0,1-7.76,1.7A15.44,15.44,0,0,1,515,815.14a13.85,13.85,0,0,1-4.47-10.65,15.32,15.32,0,0,1,7.77-13.1,17.2,17.2,0,0,1,8.08-1.91,15.17,15.17,0,0,1,5.43.85,12.91,12.91,0,0,1,4.36,2.24A10.44,10.44,0,0,1,538.93,796.29Z"/><path class="cls-3" d="M558.72,789.69a13.93,13.93,0,0,1,10.64,4.69,15.33,15.33,0,0,1,0,20.54,14.59,14.59,0,0,1-21.28,0,15.13,15.13,0,0,1,0-20.54,14.13,14.13,0,0,1,4.81-3.51A14,14,0,0,1,558.72,789.69Zm0,3.52a11.22,11.22,0,0,0-11.06,11.5,11.54,11.54,0,0,0,1.49,5.64,10.93,10.93,0,0,0,19.15,0,11.53,11.53,0,0,0-1.81-13.74,10.61,10.61,0,0,0-7.77-3.4Z"/><path class="cls-3" d="M578.83,790.33h3.62v4.15a16,16,0,0,1,3.51-3.61,6.46,6.46,0,0,1,7.12,0l-1.91,3a4.73,4.73,0,0,0-1.91,0,5.05,5.05,0,0,0-3.51,1.48,8.68,8.68,0,0,0-2.56,4.58,45.37,45.37,0,0,0-.74,9.8v9.58h-3.62Z"/><path class="cls-3" d="M596.17,790.33h3.72v5.22a16.11,16.11,0,0,1,4.9-4.47,13.62,13.62,0,0,1,6.27-1.39A14,14,0,0,1,621.7,794a15.22,15.22,0,0,1,0,21.29,13.57,13.57,0,0,1-10.64,4.37A13.83,13.83,0,0,1,599.79,814V829.4h-3.73Zm14.57,2.88a11,11,0,0,0-11.17,11.5,11.64,11.64,0,0,0,1.49,5.74,11.1,11.1,0,0,0,9.79,5.54,10,10,0,0,0,5.43-1.49,11.54,11.54,0,0,0,4.15-4.26,12,12,0,0,0,1.48-5.64,11.09,11.09,0,0,0-11.17-11.39Z"/><path class="cls-3" d="M645.85,789.69a13.62,13.62,0,0,1,10.64,4.69,15.1,15.1,0,0,1,0,20.54,14.76,14.76,0,0,1-21.28,0,15.13,15.13,0,0,1,0-20.54,13.93,13.93,0,0,1,10.64-4.69Zm0,3.52a10.57,10.57,0,0,0-7.76,3.4,11.32,11.32,0,0,0-3.2,8.09,11.65,11.65,0,0,0,5.43,9.8,12,12,0,0,0,11.17,0,9.89,9.89,0,0,0,3.93-4.15,10.69,10.69,0,0,0,1.5-5.65,11.32,11.32,0,0,0-3.2-8.09,10.63,10.63,0,0,0-8.4-3.4Z"/><path class="cls-3" d="M665.85,790.33h3.72v4.15a16.08,16.08,0,0,1,3.52-3.61,6.61,6.61,0,0,1,3.82-1.18,7,7,0,0,1,3.3,1l-1.91,3a4.77,4.77,0,0,0-1.92,0,5,5,0,0,0-1.91.38,5,5,0,0,0-1.6,1.11,8.66,8.66,0,0,0-2.55,4.58,39.28,39.28,0,0,0-.75,9.8v9.58h-3.72Z"/><path class="cls-3" d="M711.38,790.33v28.43h-3.51v-4.9a16.15,16.15,0,0,1-5.21,4.26,14.63,14.63,0,0,1-6.17,1.38,13.7,13.7,0,0,1-10.64-4.36,15.22,15.22,0,0,1,0-21.29,13.88,13.88,0,0,1,10.64-4.26,13.46,13.46,0,0,1,6.27,1.38,16.49,16.49,0,0,1,5,4.47v-5.21Zm-14.46,2.88a11.18,11.18,0,0,0-9.69,17,10.73,10.73,0,0,0,9.58,5.75,10.6,10.6,0,0,0,5.74-1.49,10.71,10.71,0,0,0,4.05-4,11.54,11.54,0,0,0,1.48-5.75,10.42,10.42,0,0,0-.75-4.45A12.09,12.09,0,0,0,701.2,794,10.49,10.49,0,0,0,696.92,793.21Z"/><path class="cls-3" d="M722.77,779.9h3.61v10.64h5.75v3.2h-5.75v25h-3.61V793.63h-5v-3.19h5Z"/><path class="cls-3" d="M738.83,778.73a3,3,0,0,1,2.13.85,2.91,2.91,0,0,1,.69,1,2.73,2.73,0,0,1,.26,1.16,2.5,2.5,0,0,1-.23,1.17,2.62,2.62,0,0,1-.72,1,2.68,2.68,0,0,1-1,.68,2.61,2.61,0,0,1-1.17.17,2.42,2.42,0,0,1-1.1-.2,2.52,2.52,0,0,1-.92-.65,2.63,2.63,0,0,1-.68-1,2.53,2.53,0,0,1-.17-1.16,2.72,2.72,0,0,1,.19-1.13,2.58,2.58,0,0,1,.61-1,2.88,2.88,0,0,1,.94-.65A2.79,2.79,0,0,1,738.83,778.73Zm-1.7,11.6h3.93v28.43h-3.61Z"/><path class="cls-3" d="M745.64,790.33h3.83L758.93,811l9.37-20.66h3.93l-13,28.43h-.64Z"/><path class="cls-3" d="M791.17,789.69a13.5,13.5,0,0,1,10.64,4.69,15.13,15.13,0,0,1,0,20.54,14.76,14.76,0,0,1-21.28,0,15.13,15.13,0,0,1,0-20.54,13.93,13.93,0,0,1,10.64-4.69Zm0,3.52a10.52,10.52,0,0,0-4.29.87,10.65,10.65,0,0,0-3.58,2.53,11.34,11.34,0,0,0-2.41,3.73,11.22,11.22,0,0,0-.78,4.36,10.59,10.59,0,0,0,1.49,5.65,10.74,10.74,0,0,0,3.93,4.15,12,12,0,0,0,11.17,0,10,10,0,0,0,3.94-4.15,10.68,10.68,0,0,0,1.49-5.65,11.32,11.32,0,0,0-3.2-8.09,10.57,10.57,0,0,0-7.76-3.4Z"/><path class="cls-3" d="M816.6,812.9a3.35,3.35,0,0,1,3,2,3.32,3.32,0,0,1-.71,3.53,3.2,3.2,0,0,1-4.51,0,3.25,3.25,0,0,1,2.26-5.56Z"/><path class="cls-4" d="M219.79,364.29V280.94h10v83.35Z"/><path class="cls-4" d="M249.89,364.29V277.64l61,66.64V280.94h9.47v86.55l-61-65.79v62.59Z"/><path class="cls-4" d="M354.79,364.29V290.41H331.17v-9.47h57v9.47H364.78v73.88Z"/><path class="cls-4" d="M399.25,364.29V280.94h43.94V290h-34v23.95h34v9.16h-34V355h34v9.26Z"/><path class="cls-4" d="M505.74,321.28H540.1v2.77a42.64,42.64,0,0,1-10.63,31.09,41.11,41.11,0,0,1-30.54,11.39,48.19,48.19,0,0,1-11.16-1.28,41.16,41.16,0,0,1-9.79-3.62A39.33,39.33,0,0,1,462.13,346a44.89,44.89,0,0,1-5.53-22.57,49.7,49.7,0,0,1,3.29-18.73,40,40,0,0,1,10.64-14.8,35.93,35.93,0,0,1,13.09-8.09A47.49,47.49,0,0,1,500.11,279a46.58,46.58,0,0,1,20.74,4.37,36.86,36.86,0,0,1,14.68,13.09l-8.3,6.71A30.42,30.42,0,0,0,516,291.8a32,32,0,0,0-15.53-3.73,30.14,30.14,0,0,0-23.52,9.79,36.08,36.08,0,0,0-9.15,25.55A33.61,33.61,0,0,0,477,347.9a31,31,0,0,0,23.41,9.58,30.05,30.05,0,0,0,21.27-7.56,29,29,0,0,0,9.26-19.8H507.13Z"/><path class="cls-4" d="M554.79,364.29V280.94h19.57a56.79,56.79,0,0,1,12.34,1,18.36,18.36,0,0,1,6.81,3.19,18.85,18.85,0,0,1,5.75,7.77,27.19,27.19,0,0,1,2,10.65,20.5,20.5,0,0,1-5.64,15.65,24.15,24.15,0,0,1-16.81,5.32h-1.7L609,364.19H596.38l-30.32-39.71h-1.49v39.71Zm9.68-75.05v28h7.66a28.7,28.7,0,0,0,15.53-3,12.66,12.66,0,0,0,3.83-10.65,13.35,13.35,0,0,0-4-11.17,25.8,25.8,0,0,0-15.32-3.3Z"/><path class="cls-4" d="M617.34,364.29V280.94h9.89v83.35Z"/><path class="cls-4" d="M647.34,364.29V280.94h16a119,119,0,0,1,25,1.81,33.44,33.44,0,0,1,12.76,6,34.86,34.86,0,0,1,10.64,14.16,50.1,50.1,0,0,1,3.72,19.8,49.16,49.16,0,0,1-3.61,19.69,35.19,35.19,0,0,1-10.64,14.16,33.77,33.77,0,0,1-12.45,6,95,95,0,0,1-21.28,1.81h-20.1Zm10-9.37h6.38A117.45,117.45,0,0,0,685,353.65a24,24,0,0,0,9.79-4.58,28.12,28.12,0,0,0,7.87-10.65,46.19,46.19,0,0,0,0-30.87,27.36,27.36,0,0,0-7.87-10.64,24.3,24.3,0,0,0-10-4.69,106.8,106.8,0,0,0-21.28-1.38h-6.38Z"/><path class="cls-4" d="M756.17,277.64,794,364.29H783.4l-10.63-25.54H740.21l-10.64,25.54H718.94Zm0,21.93-13.3,30.66h26.6Z"/><path class="cls-4" d="M802.66,364.29V280.94h16a119.72,119.72,0,0,1,25,1.81,33.44,33.44,0,0,1,12.76,6A34.86,34.86,0,0,1,867,302.87a50.1,50.1,0,0,1,3.72,19.8A49.05,49.05,0,0,1,867,342.36a34.79,34.79,0,0,1-10.64,14.16,33.8,33.8,0,0,1-12.44,6,96.2,96.2,0,0,1-21.28,1.81h-20Zm10-9.37h6.28a118.25,118.25,0,0,0,21.27-1.27,24.55,24.55,0,0,0,9.79-4.58,26.79,26.79,0,0,0,7.77-10.65A41.45,41.45,0,0,0,860.43,323a42.77,42.77,0,0,0-2.56-15.44A28.25,28.25,0,0,0,850,296.91a24.88,24.88,0,0,0-10-4.69,106.75,106.75,0,0,0-21.27-1.38h-6.28Z"/></g></g></svg>