<svg width="202" height="164" viewBox="0 0 202 164" fill="none" xmlns="http://www.w3.org/2000/svg">
<path d="M95.5055 86.9832L95.3033 96.6459L197.083 100.144L197.369 88.6068L95.5055 86.9832Z" fill="white" fill-opacity="0.8"/>
<path d="M53.7971 123.7C71.8384 128.235 90.145 117.289 94.6861 99.2516C99.2271 81.2143 88.283 62.9162 70.2418 58.3816C52.2005 53.8469 33.8939 64.793 29.3529 82.8302C24.8118 100.867 35.7559 119.166 53.7971 123.7Z" fill="white" fill-opacity="0.8"/>
<path d="M33.757 102.473C32.0689 98.2861 31.3308 93.7764 31.5957 89.2691C31.8606 84.7618 33.122 80.369 35.2891 76.4071C37.4561 72.4451 40.4749 69.0127 44.128 66.3568C47.7811 63.701 51.9777 61.8879 56.4154 61.0481C60.8532 60.2082 65.4217 60.3626 69.7921 61.5C74.1624 62.6375 78.2258 64.7297 81.6897 67.626C85.1535 70.5223 87.9316 74.1507 89.8238 78.2498C91.7161 82.3488 92.6754 86.8167 92.6327 91.3315L91.4322 91.3187C91.5047 87.448 90.7979 83.6025 89.3538 80.0108C87.1794 74.629 83.4578 70.0129 78.6594 66.7457C73.8609 63.4784 68.2009 61.7068 62.3947 61.6547C56.5885 61.6026 50.8966 63.2723 46.0384 66.4529C41.1802 69.6334 37.3737 74.182 35.1 79.5239C32.8263 84.8658 32.1874 90.7611 33.264 96.4649C34.3406 102.169 37.0845 107.425 41.1489 111.569C45.2132 115.714 50.4156 118.561 56.0986 119.75C61.7816 120.939 67.6901 120.417 73.0775 118.25L73.5185 119.342C66.0062 122.37 57.5996 122.295 50.1446 119.132C42.6896 115.97 36.7957 109.978 33.757 102.473V102.473Z" fill="white"/>
<path d="M28.1267 104.748C25.7034 98.7603 24.9075 92.2379 25.8195 85.8422C26.7316 79.4466 29.3192 73.4054 33.32 68.3313C37.3208 63.2573 42.5924 59.3308 48.6002 56.9501C54.608 54.5695 61.1383 53.8193 67.5287 54.7758L67.3311 55.9509C61.9388 55.1347 56.4305 55.5737 51.2351 57.2338C46.0396 58.8938 41.2971 61.7302 37.3769 65.5219C33.4566 69.3136 30.4644 73.9585 28.6332 79.0948C26.8019 84.2312 26.1811 89.7204 26.8189 95.1351C27.4568 100.55 29.3362 105.744 32.3108 110.313C35.2854 114.882 39.2749 118.703 43.9687 121.479C48.6625 124.254 53.934 125.908 59.3728 126.313C64.8115 126.718 70.2708 125.863 75.3255 123.814L75.7751 124.927C66.7765 128.549 56.7096 128.46 47.7789 124.678C38.8483 120.896 31.7817 113.729 28.1267 104.748V104.748Z" fill="white"/>
</svg>
