<svg width="319" height="328" viewBox="0 0 319 328" fill="none" xmlns="http://www.w3.org/2000/svg">
<path d="M122.626 157.808L122.669 172.247L263.87 172.305L264.141 159.167L122.626 157.808Z" fill="white" fill-opacity="0.9"/>
<path d="M286.269 194.828C302.257 198.516 318.213 188.546 321.908 172.559C325.602 156.572 315.636 140.622 299.647 136.934C283.658 133.246 267.702 143.217 264.008 159.204C260.314 175.191 270.28 191.141 286.269 194.828Z" fill="white" fill-opacity="0.9"/>
<path d="M72.1373 206.866C94.6356 212.055 117.088 198.025 122.287 175.529C127.485 153.033 113.461 130.589 90.9626 125.4C68.4643 120.21 46.0116 134.24 40.8132 156.737C35.6147 179.233 49.639 201.676 72.1373 206.866Z" fill="white" fill-opacity="0.9"/>
<path d="M49.2729 186.284C46.4126 182.043 44.436 177.269 43.4609 172.247C42.4858 167.225 42.5322 162.057 43.5972 157.053C44.6623 152.048 46.7243 147.309 49.6602 143.117C52.5962 138.926 56.346 135.368 60.6861 132.656C65.0262 129.944 69.8677 128.134 74.9219 127.332C79.9762 126.531 85.1398 126.755 90.1048 127.992C95.0697 129.228 99.7345 131.452 103.821 134.53C107.907 137.608 111.332 141.477 113.89 145.907C116.564 150.159 118.361 154.902 119.177 159.858L117.696 160.103C116.922 155.339 115.202 150.778 112.637 146.69C108.798 140.547 103.223 135.68 96.6161 132.705C90.0096 129.731 82.6686 128.782 75.5213 129.979C68.374 131.176 61.7415 134.466 56.4625 139.431C51.1835 144.396 47.4951 150.814 45.8637 157.874C44.2323 164.934 44.7312 172.318 47.2973 179.093C49.8634 185.867 54.3815 191.728 60.2802 195.935C66.1789 200.141 73.1932 202.503 80.4363 202.723C87.6793 202.943 94.8257 201.011 100.972 197.17L101.754 198.423C93.1792 203.76 82.8381 205.479 72.9995 203.203C63.161 200.928 54.6282 194.843 49.2729 186.284V186.284Z" fill="white"/>
<path d="M42.8309 190.31C38.5775 183.475 36.2068 175.637 35.9589 167.59C35.7111 159.542 37.5949 151.572 41.4195 144.485C45.2441 137.399 50.8738 131.448 57.738 127.236C64.6023 123.024 72.4574 120.701 80.5076 120.501L80.5659 121.988C73.7687 122.16 67.1021 123.898 61.0847 127.065C55.0672 130.232 49.861 134.744 45.8709 140.25C41.8808 145.756 39.2142 152.108 38.0786 158.811C36.9431 165.514 37.369 172.388 39.3234 178.898C41.2778 185.409 44.7079 191.38 49.3471 196.349C53.9862 201.317 59.7094 205.148 66.0716 207.544C72.4338 209.94 79.2635 210.836 86.0297 210.163C92.7959 209.49 99.3163 207.266 105.084 203.664L105.879 204.936C100.777 208.116 95.0995 210.261 89.1697 211.247C83.2398 212.234 77.1742 212.042 71.3193 210.684C65.4643 209.326 59.9348 206.827 55.0467 203.331C50.1585 199.836 46.0076 195.411 42.8309 190.31V190.31Z" fill="white"/>
</svg>
