<svg width="330" height="221" viewBox="0 0 330 221" fill="none" xmlns="http://www.w3.org/2000/svg">
<path d="M110.059 106.564L110.255 121.339L251.531 123.172L251.744 110.04L110.059 106.564Z" fill="white" fill-opacity="0.9"/>
<path d="M287.674 89.5264C271.736 85.6175 255.644 95.3649 251.73 111.298C247.817 127.231 257.565 143.316 273.503 147.225C289.441 151.134 305.533 141.386 309.447 125.453C313.36 109.52 303.612 93.4354 287.674 89.5264Z" fill="white" fill-opacity="0.9"/>
<path d="M79.1946 73.8111C56.7676 68.3106 34.1229 82.0266 28.6162 104.447C23.1094 126.867 36.826 149.501 59.253 155.001C81.68 160.502 104.325 146.786 109.832 124.366C115.338 101.946 101.622 79.3115 79.1946 73.8111Z" fill="white" fill-opacity="0.9"/>
<path d="M307.468 111.294C308.464 114.846 308.736 118.562 308.27 122.221C307.803 125.881 306.607 129.41 304.752 132.6C302.897 135.789 300.421 138.575 297.47 140.791C294.519 143.007 291.153 144.608 287.572 145.501C283.992 146.394 280.268 146.56 276.622 145.989C272.976 145.417 269.482 144.121 266.347 142.175C263.211 140.23 260.499 137.676 258.368 134.663C256.238 131.651 254.735 128.242 253.946 124.638C253.056 121.121 252.88 117.46 253.428 113.873L254.491 114.036C253.647 119.659 254.633 125.403 257.306 130.422C259.978 135.44 264.195 139.465 269.332 141.903C274.47 144.342 280.256 145.063 285.836 143.961C291.416 142.859 296.494 139.992 300.319 135.784C304.144 131.576 306.514 126.249 307.078 120.592C307.643 114.934 306.372 109.246 303.454 104.366C300.535 99.487 296.124 95.6757 290.872 93.4957C285.619 91.3156 279.804 90.8824 274.286 92.2599L273.996 91.0954C281.114 89.3522 288.632 90.4987 294.906 94.2842C301.179 98.0697 305.696 104.186 307.468 111.294Z" fill="white"/>
<path d="M312.756 109.975C314.165 115.634 314.053 121.564 312.431 127.165C310.808 132.767 307.733 137.84 303.518 141.872C299.302 145.903 294.095 148.748 288.425 150.12C282.755 151.491 276.824 151.34 271.232 149.681L271.546 148.651C276.269 150.058 281.253 150.355 286.109 149.52C290.966 148.685 295.565 146.74 299.546 143.836C303.528 140.933 306.785 137.15 309.064 132.781C311.343 128.413 312.582 123.578 312.685 118.653C312.787 113.727 311.75 108.845 309.655 104.387C307.559 99.9284 304.462 96.0141 300.605 92.9492C296.747 89.8843 292.234 87.7516 287.416 86.7172C282.598 85.6828 277.605 85.7748 272.828 86.9859L272.566 85.9334C281.086 83.7966 290.105 85.1287 297.641 89.637C305.177 94.1452 310.614 101.461 312.756 109.975Z" fill="white"/>
</svg>
