<svg width="213" height="281" viewBox="0 0 213 281" fill="none" xmlns="http://www.w3.org/2000/svg">
<path d="M73.8183 182.197L86.086 189.811L160.961 70.0963L149.962 62.905L73.8183 182.197Z" fill="white" fill-opacity="0.9"/>
<path d="M191.931 63.0373C203.531 51.4325 203.531 32.6173 191.931 21.0125C180.331 9.40768 161.523 9.40766 149.923 21.0125C138.323 32.6173 138.323 51.4325 149.923 63.0373C161.523 74.6422 180.331 74.6422 191.931 63.0373Z" fill="white" fill-opacity="0.9"/>
<path d="M88.6667 251.01C104.99 234.68 104.99 208.204 88.6667 191.875C72.3436 175.545 45.8787 175.545 29.5556 191.875C13.2325 208.204 13.2325 234.68 29.5556 251.01C45.8787 267.339 72.3436 267.339 88.6667 251.01Z" fill="white" fill-opacity="0.9"/>
<path d="M59.0965 259.493C53.984 259.672 48.8879 258.818 44.1122 256.984C39.3365 255.149 34.9788 252.372 31.2991 248.816C27.6194 245.261 24.6929 241.001 22.6942 236.29C20.6955 231.579 19.6654 226.514 19.6654 221.396C19.6654 216.278 20.6955 211.213 22.6942 206.502C24.6929 201.791 27.6194 197.531 31.2991 193.976C34.9788 190.42 39.3365 187.643 44.1122 185.808C48.8879 183.974 53.984 183.12 59.0965 183.298C64.1191 183.284 69.094 184.273 73.7293 186.208L73.1523 187.593C68.702 185.725 63.9228 184.767 59.0965 184.776C51.8522 184.776 44.7706 186.925 38.7471 190.952C32.7237 194.978 28.029 200.701 25.2567 207.396C22.4844 214.092 21.7591 221.46 23.1724 228.568C24.5857 235.676 28.0742 242.205 33.1967 247.329C38.3192 252.454 44.8457 255.944 51.9508 257.358C59.0559 258.772 66.4206 258.046 73.1135 255.273C79.8063 252.499 85.5269 247.803 89.5516 241.777C93.5763 235.751 95.7245 228.666 95.7245 221.419H97.2016C97.1833 231.519 93.1613 241.2 86.0179 248.338C78.8744 255.475 69.1928 259.487 59.0965 259.493V259.493Z" fill="white"/>
<path d="M59.0966 267.09C51.0463 267.075 43.143 264.932 36.1872 260.878C29.2314 256.823 23.4703 251.002 19.4873 244.003C15.5044 237.005 13.4412 229.077 13.5068 221.024C13.5723 212.971 15.7642 205.078 19.8606 198.145L21.1531 198.884C17.697 204.739 15.6375 211.313 15.1348 218.095C14.6321 224.876 15.6997 231.683 18.2545 237.984C20.8094 244.286 24.7827 249.913 29.8654 254.428C34.9482 258.943 41.0035 262.224 47.5604 264.017C54.1173 265.81 60.9992 266.065 67.6709 264.764C74.3426 263.462 80.6244 260.639 86.0277 256.513C91.4311 252.387 95.8104 247.071 98.8252 240.976C101.84 234.881 103.409 228.173 103.41 221.373H104.91C104.904 227.384 103.714 233.336 101.408 238.887C99.1025 244.439 95.7258 249.481 91.4713 253.727C87.2168 257.972 82.1678 261.338 76.6129 263.631C71.0579 265.923 65.1058 267.099 59.0966 267.09V267.09Z" fill="white"/>
</svg>
