<svg width="512" height="554" viewBox="0 0 512 554" fill="none" xmlns="http://www.w3.org/2000/svg">
<path d="M256.072 81.8621C215.319 81.8696 175.86 96.1811 144.566 122.304C113.272 148.428 92.1257 184.708 84.81 224.826C77.4943 264.945 84.4723 306.36 104.529 341.86C124.586 377.361 156.451 404.696 194.575 419.107V512.354C194.575 515.068 195.652 517.67 197.569 519.589C199.487 521.508 202.088 522.587 204.8 522.587H215.025V543.052C215.025 545.766 216.103 548.368 218.021 550.287C219.938 552.206 222.539 553.284 225.251 553.284H286.749C289.461 553.284 292.062 552.206 293.979 550.287C295.897 548.368 296.974 545.766 296.974 543.052V522.587H307.2C309.912 522.587 312.513 521.508 314.431 519.589C316.348 517.67 317.425 515.068 317.425 512.354V419.107C355.538 404.701 387.395 377.377 407.453 341.892C427.511 306.407 434.5 265.006 427.203 224.897C419.906 184.787 398.786 148.508 367.517 122.374C336.249 96.2388 296.812 81.9033 256.072 81.8621V81.8621ZM286.749 501.977C285.394 501.977 284.052 502.246 282.802 502.77C281.552 503.293 280.418 504.059 279.467 505.025C278.515 505.991 277.765 507.136 277.26 508.394C276.755 509.652 276.504 510.998 276.523 512.354V532.819H235.477V512.354C235.496 510.998 235.246 509.652 234.74 508.394C234.235 507.136 233.485 505.991 232.533 505.025C231.582 504.059 230.448 503.293 229.198 502.77C227.948 502.246 226.606 501.977 225.251 501.977H215.025V450.814H296.974V501.977H286.749ZM304.031 402.101C301.992 402.766 300.212 404.056 298.946 405.789C297.679 407.522 296.989 409.61 296.974 411.757V430.349H215.025V411.757C215.032 409.605 214.351 407.506 213.081 405.769C211.812 404.032 210.02 402.746 207.969 402.101C173.259 390.672 143.754 367.24 124.749 336.009C105.744 304.779 98.482 267.793 104.265 231.688C110.049 195.583 128.5 162.722 156.307 139.001C184.115 115.279 219.459 102.249 256 102.249C292.54 102.249 327.885 115.279 355.693 139.001C383.5 162.722 401.951 195.583 407.735 231.688C413.518 267.793 406.256 304.779 387.25 336.009C368.245 367.24 338.741 390.672 304.031 402.101V402.101Z" fill="#0F4C96"/>
<path d="M256.072 61.3971C257.408 61.3973 258.731 61.1317 259.964 60.6157C261.196 60.0997 262.314 59.3436 263.252 58.3915C264.19 57.4393 264.93 56.3101 265.428 55.0695C265.926 53.8288 266.173 52.5014 266.154 51.1645V10.2337C266.173 8.89676 265.926 7.56937 265.428 6.32869C264.93 5.088 264.19 3.95881 263.252 3.00668C262.314 2.05455 261.196 1.29857 259.964 0.782586C258.731 0.2666 257.408 0.000878667 256.072 0.00101511C254.717 -0.0180833 253.372 0.232481 252.115 0.738164C250.858 1.24385 249.713 1.99454 248.749 2.94664C247.784 3.89874 247.018 5.03329 246.495 6.28426C245.972 7.53524 245.703 8.8777 245.703 10.2337V51.1645C245.703 52.5205 245.972 53.8629 246.495 55.1139C247.018 56.3649 247.784 57.4994 248.749 58.4515C249.713 59.4036 250.858 60.1543 252.115 60.66C253.372 61.1657 254.717 61.4162 256.072 61.3971V61.3971Z" fill="#0F4C96"/>
<path d="M501.774 246.161H460.872C459.529 246.161 458.2 246.426 456.959 246.94C455.718 247.454 454.591 248.208 453.641 249.158C452.692 250.108 451.939 251.236 451.425 252.478C450.911 253.719 450.647 255.05 450.647 256.394C450.647 257.737 450.911 259.068 451.425 260.309C451.939 261.551 452.692 262.679 453.641 263.629C454.591 264.579 455.718 265.333 456.959 265.847C458.2 266.362 459.529 266.626 460.872 266.626H501.774C504.486 266.626 507.087 265.548 509.005 263.629C510.922 261.71 512 259.107 512 256.394C512 253.68 510.922 251.077 509.005 249.158C507.087 247.239 504.486 246.161 501.774 246.161V246.161Z" fill="#0F4C96"/>
<path d="M51.2717 246.161H10.2254C8.88258 246.161 7.55299 246.426 6.31238 246.94C5.07176 247.454 3.94441 248.208 2.99488 249.158C2.04535 250.108 1.29227 251.236 0.778389 252.478C0.264507 253.719 0 255.05 0 256.394C0 257.737 0.264507 259.068 0.778389 260.309C1.29227 261.551 2.04535 262.679 2.99488 263.629C3.94441 264.579 5.07176 265.333 6.31238 265.847C7.55299 266.362 8.88258 266.626 10.2254 266.626H51.2717C53.9837 266.626 56.5845 265.548 58.5022 263.629C60.4199 261.71 61.4971 259.107 61.4971 256.394C61.4971 253.68 60.4199 251.077 58.5022 249.158C56.5845 247.239 53.9837 246.161 51.2717 246.161V246.161Z" fill="#0F4C96"/>
<path d="M422.561 74.9445L393.757 103.769C391.857 105.685 390.792 108.275 390.792 110.975C390.792 113.674 391.857 116.264 393.757 118.181C394.696 119.14 395.816 119.901 397.052 120.421C398.289 120.941 399.617 121.209 400.958 121.209C402.299 121.209 403.627 120.941 404.864 120.421C406.1 119.901 407.22 119.14 408.159 118.181L436.964 89.3566C438.598 87.3951 439.441 84.8927 439.326 82.3413C439.21 79.7898 438.146 77.3736 436.341 75.5675C434.536 73.7615 432.122 72.6962 429.572 72.5809C427.022 72.4656 424.522 73.3088 422.561 74.9445V74.9445Z" fill="#0F4C96"/>
<path d="M103.985 393.886L75.1804 422.71C74.2224 423.65 73.4615 424.771 72.9419 426.008C72.4223 427.246 72.1543 428.574 72.1543 429.916C72.1543 431.259 72.4223 432.587 72.9419 433.825C73.4615 435.062 74.2224 436.183 75.1804 437.122C76.1142 438.087 77.2338 438.853 78.4715 439.373C79.7091 439.894 81.0391 440.157 82.3814 440.149C83.7226 440.149 85.0505 439.882 86.287 439.362C87.5235 438.842 88.6437 438.081 89.5825 437.122L118.387 408.298C120.021 406.337 120.864 403.834 120.749 401.283C120.634 398.731 119.569 396.315 117.764 394.509C115.959 392.703 113.545 391.638 110.995 391.522C108.446 391.407 105.945 392.25 103.985 393.886V393.886Z" fill="#0F4C96"/>
<path d="M408.016 393.886C406.056 392.25 403.555 391.407 401.005 391.522C398.455 391.638 396.041 392.703 394.236 394.509C392.431 396.315 391.367 398.731 391.252 401.283C391.136 403.834 391.979 406.337 393.614 408.298L422.418 437.122C424.378 438.758 426.879 439.601 429.428 439.486C431.978 439.371 434.393 438.305 436.198 436.499C438.002 434.693 439.067 432.277 439.182 429.726C439.297 427.174 438.455 424.672 436.82 422.71L408.016 393.886Z" fill="#0F4C96"/>
<path d="M103.985 118.469C104.919 119.434 106.039 120.2 107.276 120.72C108.514 121.24 109.844 121.504 111.186 121.496C112.527 121.496 113.855 121.229 115.092 120.709C116.328 120.189 117.449 119.428 118.387 118.469C120.287 116.553 121.353 113.963 121.353 111.263C121.353 108.564 120.287 105.974 118.387 104.057L89.5829 75.2328C88.6442 74.2741 87.5238 73.5124 86.2873 72.9925C85.0508 72.4726 83.723 72.2048 82.3817 72.2048C81.0404 72.2048 79.7126 72.4726 78.4761 72.9925C77.2396 73.5124 76.1192 74.2741 75.1806 75.2328C73.2808 77.1493 72.2151 79.7394 72.2151 82.4389C72.2151 85.1383 73.2808 87.7284 75.1806 89.645L103.985 118.469Z" fill="#0F4C96"/>
</svg>
