<svg width="512" height="547" viewBox="0 0 512 547" fill="none" xmlns="http://www.w3.org/2000/svg">
<path d="M19.9855 400.474C17.3389 400.503 14.7146 399.987 12.2758 398.958C9.837 397.929 7.6358 396.409 5.80898 394.492C2.3832 389.811 0.383092 384.239 0.0497399 378.447C-0.283613 372.655 1.064 366.89 3.93015 361.846L61.8319 218.445C69.8828 192.206 84.803 168.6 105.045 150.077C122.125 136.745 182.076 163.067 203.768 177.253L194.032 192.465C166.533 174.348 123.15 161.358 115.464 164.605C98.2675 181.205 85.5722 201.909 78.5706 224.769L20.6686 368.17C16.5694 378.255 18.1067 380.989 18.6191 381.502C18.8458 381.657 19.1135 381.739 19.3877 381.739C19.6618 381.739 19.9296 381.657 20.1563 381.502C25.5788 380.165 30.3567 376.957 33.6497 372.443C45.1137 358.356 54.8079 342.915 62.5152 326.466C65.1831 319.442 69.6617 313.25 75.4961 308.52C81.8713 304.851 89.1575 303.073 96.5046 303.392C108.57 303.368 120.62 304.282 132.544 306.127L129.811 323.219C118.852 321.493 107.768 320.693 96.6756 320.826C92.874 320.464 89.0441 321.112 85.5733 322.706C82.7053 325.525 80.5405 328.979 79.2537 332.79C70.8377 351.101 60.2269 368.319 47.6553 384.066C41.151 392.655 31.5068 398.31 20.8396 399.791L19.9855 400.474Z" fill="#0F4C96"/>
<path d="M192.666 460.808C190.647 460.79 188.692 460.096 187.113 458.838C185.533 457.58 184.419 455.829 183.948 453.864C183.476 451.899 183.675 449.834 184.512 447.995C185.349 446.156 186.776 444.65 188.567 443.716C262.363 404.183 327.365 350.059 379.626 284.628C431.888 219.196 470.321 143.822 492.594 63.0787C494.156 57.8143 494.46 52.2561 493.481 46.8526C492.502 41.4491 490.268 36.3517 486.958 31.9713L486.104 30.9457C481.294 25.4379 474.984 21.4534 467.946 19.4801C460.907 17.5068 453.447 17.6305 446.478 19.8359C288.999 68.3771 149.112 220.837 114.097 382.527C113.528 384.834 112.091 386.832 110.087 388.105C108.083 389.378 105.665 389.829 103.337 389.364C102.162 389.145 101.044 388.685 100.053 388.015C99.063 387.345 98.221 386.477 97.5801 385.467C96.9392 384.457 96.5131 383.326 96.3281 382.144C96.1431 380.961 96.2032 379.754 96.5048 378.596C132.886 211.095 277.896 52.9944 441.183 2.57315C451.567 -0.721059 462.695 -0.855236 473.155 2.18769C483.616 5.23061 492.938 11.3136 499.939 19.6651L500.964 21.0324C506.075 27.6279 509.546 35.3451 511.09 43.5473C512.635 51.7495 512.208 60.2016 509.845 68.2062C461.85 238.1 344.851 384.578 196.595 459.954C195.381 460.575 194.028 460.869 192.666 460.808Z" fill="#0F4C96"/>
<path d="M199.156 546.44C195.218 546.466 191.358 545.337 188.054 543.192C185.69 541.69 183.685 539.687 182.18 537.324C180.675 534.961 179.707 532.297 179.343 529.519C178.978 524.233 179.665 518.928 181.366 513.91C183.066 508.893 185.746 504.264 189.25 500.291C201.553 484.957 215.791 471.283 231.608 459.613C235.269 457.386 238.367 454.345 240.661 450.725C241.593 447.023 241.593 443.146 240.661 439.444C239.636 434.146 238.27 429.018 236.732 423.72L253.813 418.763C255.35 424.574 256.716 430.214 257.912 435.855C260.044 442.933 260.044 450.483 257.912 457.562C254.616 464.089 249.594 469.586 243.394 473.457C228.694 484.448 215.388 497.19 203.768 511.401C199.965 515.587 197.732 520.963 197.448 526.613C197.491 526.887 197.588 527.149 197.735 527.384C197.882 527.619 198.075 527.822 198.302 527.98C198.302 527.98 202.06 529.348 211.112 523.195L339.726 437.735C360.735 426.138 378.387 409.298 390.966 388.852C384.136 365.436 371.909 343.951 355.269 326.124L368.933 314.502C379.352 326.808 416.757 377.058 407.022 396.714C393.053 420.168 373.137 439.508 349.291 452.776L220.677 538.236C214.468 543.033 206.981 545.887 199.156 546.44V546.44Z" fill="#0F4C96"/>
<path d="M398.994 155.205C393.709 154.881 388.571 153.331 383.986 150.679C379.402 148.027 375.496 144.344 372.578 139.922C369.66 135.5 367.809 130.46 367.172 125.199C366.534 119.939 367.128 114.602 368.905 109.61C370.683 104.618 373.596 100.108 377.414 96.4366C381.232 92.7649 385.852 90.0317 390.907 88.4529C395.962 86.8742 401.314 86.4931 406.542 87.3398C411.769 88.1865 416.728 90.2378 421.028 93.3316C427.041 97.6591 431.486 103.825 433.693 110.901C435.9 117.976 435.748 125.578 433.262 132.56C430.776 139.542 426.089 145.526 419.908 149.61C413.727 153.695 406.387 155.658 398.994 155.205V155.205ZM398.994 96.75C395.488 96.7285 392.022 97.5016 388.857 99.0113C385.692 100.521 382.91 102.728 380.718 105.467C377.774 109.086 375.969 113.497 375.53 118.143C375.092 122.788 376.041 127.46 378.256 131.566C380.472 135.672 383.854 139.028 387.977 141.21C392.099 143.392 396.775 144.301 401.414 143.822C406.052 143.344 410.445 141.499 414.036 138.522C417.626 135.544 420.254 131.568 421.586 127.096C422.917 122.624 422.894 117.857 421.517 113.399C420.141 108.94 417.474 104.99 413.854 102.049V102.049C409.725 98.4657 404.459 96.4668 398.994 96.4082V96.75Z" fill="#0F4C96"/>
<path d="M94.2844 496.873C88.9698 496.888 83.8231 495.01 79.7662 491.574C75.3139 487.975 72.3709 482.838 71.5172 477.174C70.6635 471.511 71.9612 465.733 75.1545 460.98L206.672 262.029C211.835 254.174 219.355 248.159 228.15 244.851C236.946 241.543 246.563 241.112 255.619 243.619C264.674 246.127 272.702 251.444 278.547 258.807C284.391 266.169 287.751 275.196 288.144 284.591C288.486 290.616 287.569 296.646 285.452 302.296C283.334 307.946 280.063 313.093 275.846 317.407L111.023 489.523C108.894 491.842 106.306 493.692 103.425 494.957C100.544 496.222 97.431 496.875 94.2844 496.873ZM110.169 440.469L90.1851 470.893C89.5097 471.967 89.2417 473.247 89.4298 474.502C89.6179 475.756 90.2494 476.902 91.2099 477.73C92.1592 478.619 93.411 479.114 94.7113 479.114C96.0117 479.114 97.2634 478.619 98.2128 477.73L263.036 305.443C266.853 301.474 269.338 296.414 270.146 290.966C270.955 285.518 270.047 279.953 267.548 275.045C265.049 270.138 261.084 266.132 256.204 263.585C251.324 261.038 245.771 260.076 240.32 260.833C236.593 261.338 233.019 262.637 229.837 264.642C226.655 266.647 223.939 269.311 221.873 272.455L110.169 440.469Z" fill="#0F4C96"/>
</svg>
