<svg width="512" height="510" viewBox="0 0 512 510" fill="none" xmlns="http://www.w3.org/2000/svg">
<path d="M500.039 488.584H11.961C10.4649 488.394 8.94566 488.525 7.50409 488.969C6.06253 489.412 4.73166 490.157 3.60022 491.155C2.46877 492.153 1.56262 493.38 0.941872 494.756C0.321126 496.131 0 497.623 0 499.132C0 500.641 0.321126 502.133 0.941872 503.508C1.56262 504.884 2.46877 506.111 3.60022 507.109C4.73166 508.107 6.06253 508.852 7.50409 509.295C8.94566 509.738 10.4649 509.87 11.961 509.68H500.039C501.535 509.87 503.055 509.738 504.496 509.295C505.938 508.852 507.268 508.107 508.4 507.109C509.531 506.111 510.438 504.884 511.058 503.508C511.679 502.133 512 500.641 512 499.132C512 497.623 511.679 496.131 511.058 494.756C510.438 493.38 509.531 492.153 508.4 491.155C507.268 490.157 505.938 489.412 504.496 488.969C503.055 488.525 501.535 488.394 500.039 488.584V488.584Z" fill="#0F4C96"/>
<path d="M96.7927 360.996H33.042C30.2376 361.039 27.5605 362.174 25.5773 364.158C23.594 366.143 22.4606 368.822 22.4171 371.628V498.541C22.4171 501.361 23.5366 504.065 25.5292 506.059C27.5217 508.053 30.2241 509.174 33.042 509.174H96.7927C99.6106 509.174 102.313 508.053 104.306 506.059C106.298 504.065 107.418 501.361 107.418 498.541V371.122C107.418 368.302 106.298 365.597 104.306 363.603C102.313 361.609 99.6106 360.49 96.7927 360.49V360.996ZM86.1675 488.584H43.6672V382.26H86.1675V488.584Z" fill="#0F4C96"/>
<path d="M224.124 254.84H160.373C157.555 254.84 154.853 255.961 152.86 257.955C150.868 259.949 149.749 262.653 149.749 265.473V498.541C149.749 501.361 150.868 504.065 152.86 506.059C154.853 508.053 157.555 509.174 160.373 509.174H224.124C226.942 509.174 229.644 508.053 231.637 506.059C233.629 504.065 234.749 501.361 234.749 498.541V265.473C234.749 262.653 233.629 259.949 231.637 257.955C229.644 255.961 226.942 254.84 224.124 254.84ZM213.499 488.584H170.999V276.105H213.499V488.584Z" fill="#0F4C96"/>
<path d="M351.457 297.369H287.2C284.382 297.369 281.68 298.49 279.687 300.484C277.694 302.478 276.575 305.182 276.575 308.002V498.541C276.575 501.361 277.694 504.065 279.687 506.059C281.68 508.053 284.382 509.174 287.2 509.174H350.782C353.6 509.174 356.303 508.053 358.295 506.059C360.288 504.065 361.407 501.361 361.407 498.541V308.002C361.407 305.182 360.288 302.478 358.295 300.484C356.303 298.49 353.6 297.369 350.782 297.369H351.457ZM340.831 488.584H298.331V318.634H340.831V488.584Z" fill="#0F4C96"/>
<path d="M478.789 169.95H415.207C412.389 169.95 409.687 171.07 407.694 173.064C405.702 175.058 404.582 177.762 404.582 180.582V498.541C404.582 501.361 405.702 504.065 407.694 506.059C409.687 508.053 412.389 509.174 415.207 509.174H478.789C480.198 509.196 481.598 508.937 482.906 508.413C484.215 507.889 485.406 507.109 486.411 506.12C487.416 505.13 488.213 503.95 488.758 502.649C489.302 501.348 489.583 499.952 489.582 498.541V180.582C489.582 177.762 488.463 175.058 486.47 173.064C484.478 171.07 481.775 169.95 478.957 169.95H478.789ZM468.164 488.584H425.832V191.215H468.164V488.584Z" fill="#0F4C96"/>
<path d="M64.9187 191.215C56.5057 191.215 48.2819 193.713 41.2891 198.394C34.2964 203.075 28.849 209.727 25.6373 217.508C22.4255 225.289 21.594 233.849 23.2476 242.104C24.9012 250.358 28.9657 257.936 34.9263 263.877C40.887 269.818 48.4757 273.855 56.731 275.477C64.9864 277.099 73.5369 276.232 81.2998 272.987C89.0628 269.742 95.6887 264.265 100.338 257.249C104.988 250.233 107.452 241.994 107.419 233.575C107.374 222.325 102.877 211.551 94.9115 203.612C86.946 195.673 76.1613 191.215 64.9187 191.215V191.215ZM64.9187 254.84C60.7158 254.84 56.6071 253.593 53.1125 251.256C49.6179 248.92 46.8943 245.599 45.2859 241.713C43.6776 237.828 43.2567 233.552 44.0767 229.427C44.8966 225.302 46.9205 221.513 49.8924 218.539C52.8643 215.565 56.6507 213.54 60.7729 212.719C64.895 211.899 69.1677 212.32 73.0507 213.93C76.9337 215.539 80.2523 218.264 82.5873 221.761C84.9223 225.258 86.1688 229.369 86.1688 233.575C86.1688 239.215 83.9299 244.624 79.9447 248.611C75.9595 252.599 70.5546 254.84 64.9187 254.84Z" fill="#0F4C96"/>
<path d="M192.249 84.8905C183.843 84.8905 175.626 87.3851 168.637 92.0583C161.648 96.7315 156.2 103.373 152.984 111.145C149.767 118.916 148.925 127.467 150.565 135.717C152.205 143.967 156.253 151.545 162.197 157.493C168.14 163.441 175.713 167.491 183.957 169.132C192.202 170.773 200.747 169.931 208.513 166.712C216.279 163.493 222.916 158.042 227.586 151.048C232.256 144.054 234.749 135.832 234.749 127.42C234.749 116.141 230.271 105.323 222.301 97.3473C214.331 89.3714 203.52 84.8905 192.249 84.8905V84.8905ZM192.249 148.685C188.046 148.685 183.937 147.438 180.443 145.101C176.948 142.765 174.225 139.444 172.616 135.558C171.008 131.672 170.587 127.397 171.407 123.272C172.227 119.147 174.251 115.358 177.223 112.384C180.195 109.41 183.981 107.384 188.103 106.564C192.225 105.743 196.498 106.165 200.381 107.774C204.264 109.384 207.582 112.109 209.917 115.606C212.252 119.103 213.499 123.215 213.499 127.42C213.455 133.047 211.202 138.43 207.226 142.408C203.25 146.386 197.871 148.641 192.249 148.685V148.685Z" fill="#0F4C96"/>
<path d="M319.582 127.251C311.176 127.251 302.959 129.745 295.97 134.418C288.981 139.091 283.533 145.734 280.317 153.505C277.1 161.276 276.258 169.828 277.898 178.078C279.538 186.328 283.586 193.906 289.53 199.854C295.473 205.802 303.046 209.852 311.29 211.493C319.535 213.134 328.08 212.292 335.846 209.073C343.612 205.854 350.25 200.403 354.92 193.409C359.59 186.415 362.082 178.192 362.082 169.78C362.104 164.189 361.02 158.649 358.892 153.479C356.764 148.309 353.635 143.611 349.684 139.658C345.733 135.704 341.039 132.572 335.872 130.442C330.706 128.313 325.169 127.228 319.582 127.251V127.251ZM319.582 191.045C313.946 191.045 308.541 188.805 304.556 184.817C300.571 180.829 298.332 175.42 298.332 169.78C298.332 164.141 300.571 158.732 304.556 154.744C308.541 150.756 313.946 148.516 319.582 148.516C325.218 148.516 330.623 150.756 334.608 154.744C338.593 158.732 340.832 164.141 340.832 169.78C340.832 175.42 338.593 180.829 334.608 184.817C330.623 188.805 325.218 191.045 319.582 191.045V191.045Z" fill="#0F4C96"/>
<path d="M446.914 0C438.53 0.033558 430.343 2.54784 423.384 7.22649C416.424 11.9051 411.003 18.5392 407.802 26.2937C404.602 34.0482 403.765 42.5769 405.396 50.8064C407.028 59.0358 411.056 66.5982 416.973 72.5425C422.889 78.4867 430.431 82.5469 438.648 84.2122C446.866 85.8775 455.392 85.0734 463.153 81.9012C470.915 78.729 477.566 73.3304 482.269 66.3847C486.972 59.439 489.516 51.2567 489.583 42.8671C489.583 31.5876 485.105 20.7698 477.135 12.794C469.165 4.81823 458.354 0.337864 447.083 0.337864L446.914 0ZM446.914 63.7941C442.711 63.7941 438.603 62.547 435.108 60.2104C431.614 57.8738 428.89 54.5529 427.281 50.6673C425.673 46.7817 425.252 42.506 426.072 38.3811C426.892 34.2561 428.916 30.4671 431.888 27.4932C434.86 24.5193 438.646 22.4938 442.768 21.6733C446.89 20.8528 451.163 21.2741 455.046 22.8836C458.929 24.4931 462.248 27.2183 464.583 30.7153C466.918 34.2122 468.164 38.324 468.164 42.5297C468.164 48.1695 465.926 53.5778 461.94 57.5657C457.955 61.5536 452.55 63.7941 446.914 63.7941V63.7941Z" fill="#0F4C96"/>
<path d="M432.073 57.5501C431.098 56.5447 429.932 55.7453 428.643 55.1994C427.353 54.6536 425.968 54.3723 424.568 54.3723C423.168 54.3723 421.783 54.6536 420.493 55.1994C419.204 55.7453 418.038 56.5447 417.063 57.5501L334.592 139.909C332.645 141.923 331.556 144.617 331.556 147.419C331.556 150.222 332.645 152.915 334.592 154.93C336.646 156.869 339.358 157.955 342.182 157.967C343.557 157.974 344.921 157.709 346.195 157.188C347.468 156.667 348.626 155.9 349.602 154.93L432.073 72.5707C434.02 70.5563 435.109 67.8632 435.109 65.0604C435.109 62.2576 434.02 59.5645 432.073 57.5501V57.5501Z" fill="#0F4C96"/>
<path d="M293.946 145.478L226.486 125.901C223.805 125.197 220.955 125.57 218.545 126.939C216.134 128.309 214.354 130.567 213.584 133.231C212.814 135.896 213.114 138.756 214.422 141.201C215.73 143.647 217.941 145.485 220.583 146.322L288.887 165.899H291.754C294.06 165.903 296.303 165.144 298.133 163.74C299.963 162.336 301.278 160.365 301.873 158.136C302.282 156.806 302.418 155.408 302.272 154.024C302.126 152.641 301.701 151.302 301.023 150.087C300.345 148.872 299.428 147.808 298.328 146.958C297.228 146.107 295.967 145.489 294.621 145.14L293.946 145.478Z" fill="#0F4C96"/>
<path d="M175.722 140.584C173.967 138.405 171.425 137.006 168.647 136.69C165.869 136.374 163.078 137.167 160.88 138.897L80.7705 202.86C79.057 204.246 77.8162 206.13 77.22 208.252C76.6237 210.374 76.7016 212.63 77.4426 214.706C78.1835 216.782 79.5511 218.576 81.356 219.84C83.1608 221.104 85.3137 221.776 87.5167 221.762C89.9036 221.69 92.2062 220.862 94.0941 219.399L174.035 155.605C175.137 154.734 176.056 153.653 176.739 152.424C177.421 151.195 177.853 149.843 178.01 148.447C178.167 147.05 178.045 145.636 177.653 144.286C177.26 142.936 176.603 141.679 175.722 140.584V140.584Z" fill="#0F4C96"/>
</svg>
