<svg width="512" height="513" viewBox="0 0 512 513" fill="none" xmlns="http://www.w3.org/2000/svg">
<path d="M273.098 119.611H221.804C219.557 119.611 217.403 120.505 215.814 122.094C214.226 123.684 213.333 125.84 213.333 128.088V179.417C213.333 181.666 214.226 183.822 215.814 185.411C217.403 187.001 219.557 187.894 221.804 187.894H273.098C275.345 187.894 277.499 187.001 279.088 185.411C280.676 183.822 281.569 181.666 281.569 179.417V128.088C281.569 125.84 280.676 123.684 279.088 122.094C277.499 120.505 275.345 119.611 273.098 119.611V119.611ZM264.471 170.784H230.431V136.878H264.471V170.784Z" fill="#0F4C96"/>
<path d="M273.098 34.2195H221.804C219.557 34.2195 217.403 35.1125 215.814 36.7021C214.226 38.2918 213.333 40.4478 213.333 42.6959V94.0259C213.333 96.274 214.226 98.43 215.814 100.02C217.403 101.609 219.557 102.502 221.804 102.502H273.098C275.345 102.502 277.499 101.609 279.088 100.02C280.676 98.43 281.569 96.274 281.569 94.0259V42.6959C281.569 40.4478 280.676 38.2918 279.088 36.7021C277.499 35.1125 275.345 34.2195 273.098 34.2195ZM264.471 85.3923H230.431V51.3294H264.471V85.3923Z" fill="#0F4C96"/>
<path d="M187.764 119.611H136.47C134.224 119.611 132.069 120.505 130.481 122.094C128.892 123.684 128 125.84 128 128.088V179.417C128 181.666 128.892 183.822 130.481 185.411C132.069 187.001 134.224 187.894 136.47 187.894H187.764C190.011 187.894 192.166 187.001 193.754 185.411C195.343 183.822 196.235 181.666 196.235 179.417V128.088C196.235 126.975 196.016 125.872 195.59 124.844C195.165 123.816 194.541 122.881 193.754 122.094C192.968 121.307 192.034 120.683 191.006 120.257C189.978 119.831 188.877 119.611 187.764 119.611V119.611ZM179.137 170.784H144.784V136.878H178.823L179.137 170.784Z" fill="#0F4C96"/>
<path d="M187.764 34.2195H136.47C134.224 34.2195 132.069 35.1125 130.481 36.7021C128.892 38.2918 128 40.4478 128 42.6959V94.0259C128 96.274 128.892 98.43 130.481 100.02C132.069 101.609 134.224 102.502 136.47 102.502H187.764C188.877 102.502 189.978 102.283 191.006 101.857C192.034 101.431 192.968 100.807 193.754 100.02C194.541 99.2325 195.165 98.2981 195.59 97.2697C196.016 96.2413 196.235 95.139 196.235 94.0259V42.6959C196.235 40.4478 195.343 38.2918 193.754 36.7021C192.166 35.1125 190.011 34.2195 187.764 34.2195ZM179.137 85.3923H144.784V51.3294H178.823L179.137 85.3923Z" fill="#0F4C96"/>
<path d="M187.764 205.004H136.47C134.224 205.004 132.069 205.898 130.481 207.487C128.892 209.077 128 211.233 128 213.481V264.811C128 267.059 128.892 269.215 130.481 270.805C132.069 272.394 134.224 273.287 136.47 273.287H187.764C188.877 273.287 189.978 273.068 191.006 272.642C192.034 272.216 192.968 271.592 193.754 270.805C194.541 270.017 195.165 269.083 195.59 268.054C196.016 267.026 196.235 265.924 196.235 264.811V213.481C196.235 212.368 196.016 211.266 195.59 210.237C195.165 209.209 194.541 208.274 193.754 207.487C192.968 206.7 192.034 206.076 191.006 205.65C189.978 205.224 188.877 205.004 187.764 205.004V205.004ZM179.137 256.177H144.784V222.114H178.823L179.137 256.177Z" fill="#0F4C96"/>
<path d="M187.764 290.396H136.47C134.224 290.396 132.069 291.289 130.481 292.879C128.892 294.468 128 296.625 128 298.873V350.202C128 352.45 128.892 354.606 130.481 356.196C132.069 357.785 134.224 358.678 136.47 358.678H187.764C188.877 358.678 189.978 358.459 191.006 358.033C192.034 357.607 192.968 356.983 193.754 356.196C194.541 355.408 195.165 354.474 195.59 353.446C196.016 352.417 196.235 351.315 196.235 350.202V298.873C196.235 297.76 196.016 296.657 195.59 295.629C195.165 294.601 194.541 293.666 193.754 292.879C192.968 292.092 192.034 291.467 191.006 291.042C189.978 290.616 188.877 290.396 187.764 290.396V290.396ZM179.137 340.941H144.784V306.878H178.823L179.137 340.941Z" fill="#0F4C96"/>
<path d="M349.805 392.899H401.099C403.36 392.858 405.515 391.93 407.099 390.316C408.683 388.701 409.57 386.529 409.57 384.266V333.093C409.57 330.83 408.683 328.658 407.099 327.043C405.515 325.429 403.36 324.501 401.099 324.46H349.805C347.544 324.501 345.39 325.429 343.806 327.043C342.221 328.658 341.334 330.83 341.334 333.093V384.266C341.334 386.529 342.221 388.701 343.806 390.316C345.39 391.93 347.544 392.858 349.805 392.899V392.899ZM358.433 341.57H392.472V375.789H358.433V341.57Z" fill="#0F4C96"/>
<path d="M349.805 307.506H401.099C403.36 307.465 405.515 306.537 407.099 304.923C408.683 303.308 409.57 301.136 409.57 298.873V247.7C409.57 245.437 408.683 243.265 407.099 241.65C405.515 240.035 403.36 239.108 401.099 239.066H349.805C347.544 239.108 345.39 240.035 343.806 241.65C342.221 243.265 341.334 245.437 341.334 247.7V298.873C341.334 301.136 342.221 303.308 343.806 304.923C345.39 306.537 347.544 307.465 349.805 307.506V307.506ZM358.433 256.176H392.472V290.396H358.433V256.176Z" fill="#0F4C96"/>
<path d="M336.471 187.894H387.608C389.869 187.894 392.04 187.006 393.654 185.421C395.268 183.835 396.195 181.68 396.236 179.417V128.088C396.195 125.825 395.268 123.67 393.654 122.084C392.04 120.499 389.869 119.611 387.608 119.611H336.471C334.21 119.611 332.039 120.499 330.425 122.084C328.812 123.67 327.884 125.825 327.843 128.088V179.417C327.884 181.68 328.812 183.835 330.425 185.421C332.039 187.006 334.21 187.894 336.471 187.894V187.894ZM344.942 136.721H379.138V170.784H344.942V136.721Z" fill="#0F4C96"/>
<path d="M349.805 478.134H401.099C403.346 478.134 405.5 477.241 407.089 475.651C408.678 474.062 409.57 471.906 409.57 469.657V418.485C409.57 416.222 408.683 414.05 407.099 412.435C405.515 410.82 403.36 409.893 401.099 409.852H349.805C347.544 409.893 345.39 410.82 343.806 412.435C342.221 414.05 341.334 416.222 341.334 418.485V469.657C341.334 471.906 342.227 474.062 343.815 475.651C345.404 477.241 347.559 478.134 349.805 478.134V478.134ZM358.433 426.961H392.472V461.181H358.433V426.961Z" fill="#0F4C96"/>
<path d="M264.47 392.899H315.765C318.025 392.858 320.18 391.93 321.764 390.316C323.348 388.701 324.236 386.529 324.235 384.266V333.093C324.236 330.83 323.348 328.658 321.764 327.043C320.18 325.429 318.025 324.501 315.765 324.46H264.47C262.209 324.501 260.055 325.429 258.471 327.043C256.887 328.658 255.999 330.83 256 333.093V384.266C255.999 386.529 256.887 388.701 258.471 390.316C260.055 391.93 262.209 392.858 264.47 392.899V392.899ZM273.098 341.57H307.137V375.789H273.098V341.57Z" fill="#0F4C96"/>
<path d="M263.224 306.932H314.518C316.779 306.891 318.933 305.963 320.517 304.348C322.102 302.734 322.989 300.561 322.989 298.299V247.126C322.989 244.863 322.102 242.691 320.517 241.076C318.933 239.461 316.779 238.533 314.518 238.492H263.224C260.963 238.533 258.808 239.461 257.224 241.076C255.64 242.691 254.753 244.863 254.753 247.126V298.299C254.753 300.561 255.64 302.734 257.224 304.348C258.808 305.963 260.963 306.891 263.224 306.932V306.932ZM271.851 255.602H305.89V289.822H271.851V255.602Z" fill="#0F4C96"/>
<path d="M264.47 512.354H315.765C318.011 512.354 320.166 511.461 321.754 509.872C323.343 508.282 324.235 506.126 324.235 503.878V418.485C324.236 416.222 323.348 414.05 321.764 412.435C320.18 410.82 318.025 409.893 315.765 409.852H264.47C262.209 409.893 260.055 410.82 258.471 412.435C256.887 414.05 255.999 416.222 256 418.485V503.878C256 506.126 256.892 508.282 258.481 509.872C260.069 511.461 262.224 512.354 264.47 512.354ZM273.098 426.961H307.137V495.244H273.098V426.961Z" fill="#0F4C96"/>
<path d="M503.372 495.245H452.235V212.696C452.235 210.448 451.343 208.292 449.754 206.702C448.166 205.113 446.011 204.22 443.765 204.22H324.235V8.63347C324.236 6.37068 323.348 4.1981 321.764 2.58345C320.18 0.968811 318.026 0.0411415 315.765 0H93.804C91.5431 0.0411415 89.3887 0.968811 87.8046 2.58345C86.2204 4.1981 85.333 6.37068 85.3334 8.63347V495.245H8.6275C6.33935 495.245 4.14494 496.154 2.52697 497.773C0.909014 499.392 0 501.588 0 503.878C0.0411131 506.14 0.968261 508.296 2.58179 509.882C4.19531 511.467 6.36628 512.355 8.6275 512.354H503.372C505.634 512.355 507.805 511.467 509.418 509.882C511.032 508.296 511.959 506.14 512 503.878C512 501.588 511.091 499.392 509.473 497.773C507.855 496.154 505.661 495.245 503.372 495.245ZM213.333 212.696V495.245H102.431V17.1098H306.353V205.475H221.02C218.99 205.662 217.096 206.573 215.685 208.044C214.273 209.514 213.438 211.445 213.333 213.481V212.696ZM435.137 495.245H230.431V222.114H435.137V495.245Z" fill="#0F4C96"/>
<path d="M185.726 409.852H134.589C132.328 409.893 130.173 410.82 128.589 412.435C127.005 414.05 126.118 416.222 126.118 418.485V503.878C126.118 506.126 127.011 508.282 128.599 509.872C130.188 511.461 132.342 512.354 134.589 512.354H185.726C187.987 512.355 190.158 511.467 191.772 509.881C193.385 508.296 194.313 506.14 194.354 503.878V418.485C194.354 417.351 194.13 416.229 193.697 415.181C193.263 414.134 192.628 413.182 191.827 412.38C191.026 411.578 190.074 410.943 189.028 410.509C187.981 410.075 186.859 409.852 185.726 409.852ZM177.099 495.244H143.216V425.549H177.099V495.244Z" fill="#0F4C96"/>
<path d="M414.903 82.2529H306.824V205.004H432.314V100.148C432.316 95.4822 430.497 91.0004 427.244 87.6577C423.992 84.315 419.563 82.3757 414.903 82.2529V82.2529ZM412.863 203.278H324.236V102.502H412.863V203.278Z" fill="#0F4C96"/>
</svg>
