<svg id="Capa_1" data-name="Capa 1" xmlns="http://www.w3.org/2000/svg" xmlns:xlink="http://www.w3.org/1999/xlink" viewBox="0 0 1920 1173.33"><defs><style>.cls-1{fill:url(#Degradado_sin_nombre_13);}.cls-2{fill:none;stroke:#fff;stroke-miterlimit:10;stroke-width:8px;opacity:0.3;}.cls-3{fill:#eff9fd;}.cls-4{fill:#d3edf9;}.cls-5{fill:url(#Degradado_sin_nombre_9);}.cls-10,.cls-6{fill:#5e9aca;}.cls-6,.cls-8{isolation:isolate;}.cls-7,.cls-8{fill:#90d2ef;}.cls-8{opacity:0.6;}.cls-9{fill:url(#Degradado_sin_nombre_9-2);}.cls-11{fill:#5788ca;}.cls-12{fill:#2075b6;}.cls-13{fill:#2062b6;}.cls-14{fill:#fff;}</style><linearGradient id="Degradado_sin_nombre_13" x1="960" y1="1160.54" x2="960" y2="17.66" gradientUnits="userSpaceOnUse"><stop offset="0" stop-color="#0c2f64"/><stop offset="0.03" stop-color="#0c3168"/><stop offset="0.26" stop-color="#0d4183"/><stop offset="0.5" stop-color="#0e4c96"/><stop offset="0.74" stop-color="#0e53a1"/><stop offset="1" stop-color="#0e55a5"/></linearGradient><linearGradient id="Degradado_sin_nombre_9" x1="-1248.39" y1="1396.47" x2="-1248.39" y2="1570.09" gradientTransform="matrix(0, -1, -1, 0, 2809.53, -344.78)" gradientUnits="userSpaceOnUse"><stop offset="0" stop-color="#fff"/><stop offset="0.05" stop-color="#e6f5fb"/><stop offset="0.12" stop-color="#cbeaf8"/><stop offset="0.2" stop-color="#b5e1f4"/><stop offset="0.29" stop-color="#a4daf2"/><stop offset="0.4" stop-color="#99d6f0"/><stop offset="0.56" stop-color="#92d3ef"/><stop offset="1" stop-color="#90d2ef"/></linearGradient><linearGradient id="Degradado_sin_nombre_9-2" x1="-2136.05" y1="809.67" x2="-2136.05" y2="983.29" gradientTransform="matrix(0, -1, -1, 0, 1550.24, -1516.74)" xlink:href="#Degradado_sin_nombre_9"/></defs><title>Svh_quisomos_30</title><path class="cls-1" d="M1920,.67s-483,177-1053,177S0,19.67,0,19.67v1154H1920Z"/><path class="cls-2" d="M1924.49,265.54a344.67,344.67,0,0,1-65.78,72c-146.8,121-363.92,100.14-485-46.66a343,343,0,0,1-73.67-160.2"/><path class="cls-2" d="M-.28,216c117.24,22.22,219.36,105.43,260,226.59,60,178.53-36.17,371.86-214.7,431.82-16.41,5.51-29.94,9.7-46.49,12.64"/><rect class="cls-3" x="824.25" y="810.27" width="267.8" height="30.86" transform="translate(-223.35 1277.25) rotate(-61.67)"/><rect class="cls-4" x="1009.18" y="875.66" width="267.84" height="20.48" transform="translate(-9.69 1759.15) rotate(-74.92)"/><rect class="cls-5" x="1229.67" y="897.76" width="178.62" height="14.93" transform="translate(226.38 2073.72) rotate(-81.38)"/><polygon class="cls-6" points="1610.21 1003.38 1602.9 1005.11 1585.82 914.94 1593.15 913.21 1610.21 1003.38"/><circle class="cls-3" cx="1035.95" cy="679.93" r="45.52" transform="translate(-54.15 1269.15) rotate(-61.67)"/><circle class="cls-3" cx="886.51" cy="957.12" r="45.53"/><circle class="cls-4" cx="1106.89" cy="1014.77" r="38.37"/><circle class="cls-4" cx="1177.92" cy="751.18" r="54" transform="translate(-35.8 1443.02) rotate(-62.21)"/><circle class="cls-7" cx="1308.23" cy="989.39" r="36.58"/><circle class="cls-8" cx="1467.96" cy="964.8" r="33.3"/><circle class="cls-6" cx="1584.9" cy="895.44" r="20.84"/><polygon class="cls-6" points="332.68 502.38 327.32 497.1 394.28 434.43 399.68 439.68 332.68 502.38"/><circle class="cls-6" cx="410.26" cy="423.19" r="20.84"/><rect class="cls-4" x="666.57" y="701.85" width="267.84" height="20.48" transform="translate(-227.33 1014.49) rotate(-58.05)"/><rect class="cls-9" x="559.22" y="611.85" width="178.39" height="14.91" transform="translate(-177.53 968.29) rotate(-66.59)"/><circle class="cls-4" cx="872.54" cy="599.21" r="38.37" transform="translate(-168.14 792.48) rotate(-45)"/><circle class="cls-4" cx="728.09" cy="830.89" r="54"/><circle class="cls-7" cx="614.43" cy="697.72" r="43.5" transform="translate(-313.4 638.82) rotate(-45)"/><circle class="cls-8" cx="508.99" cy="562.46" r="33.3"/><rect class="cls-10" x="1265.07" y="552.44" width="138.17" height="15.92" transform="translate(734.42 1877.34) rotate(-88.3)"/><rect class="cls-10" x="1229.65" y="506.32" width="10.58" height="138.17" transform="translate(-90.2 258.92) rotate(-11.55)"/><rect class="cls-11" x="1136.55" y="543.57" width="7.69" height="92.01" transform="translate(-126.19 380.15) rotate(-17.95)"/><circle class="cls-10" cx="1331.97" cy="645.65" r="23.5"/><circle class="cls-10" cx="1336.8" cy="483.3" r="23.5"/><circle class="cls-10" cx="1221.83" cy="507.63" r="19.8"/><circle class="cls-10" cx="1250.03" cy="645.62" r="27.85"/><circle class="cls-11" cx="1154" cy="631.51" r="22.42"/><circle class="cls-12" cx="1066.9" cy="614.19" r="17.17"/><polygon class="cls-13" points="1684.6 610.49 1680.93 609.3 1697.3 564.9 1701 566.1 1684.6 610.49"/><circle class="cls-13" cx="1679.86" cy="619.38" r="10.76"/><rect class="cls-10" x="1364.03" y="571.13" width="138.17" height="10.58" transform="translate(726.3 1949.92) rotate(-84.68)"/><rect class="cls-11" x="1520.85" y="538.05" width="7.69" height="92.01" transform="translate(-30.4 86.56) rotate(-3.22)"/><circle class="cls-10" cx="1425.98" cy="645.11" r="19.8"/><circle class="cls-10" cx="1439.04" cy="504.85" r="27.85"/><circle class="cls-11" cx="1522.22" cy="539.98" r="22.42"/><circle class="cls-12" cx="1602.13" cy="577.99" r="17.17"/><rect class="cls-10" x="411.37" y="976.51" width="138.17" height="15.92" transform="translate(-573.69 1282.45) rotate(-79.77)"/><rect class="cls-10" x="317.41" y="943.99" width="138.17" height="10.58" transform="translate(-638.18 925.56) rotate(-66.52)"/><rect class="cls-11" x="250.85" y="912.1" width="92.01" height="7.69" transform="translate(-645.26 717.19) rotate(-60.13)"/><circle class="cls-10" cx="495.93" cy="900.66" r="23.5"/><circle class="cls-10" cx="467.06" cy="1060.54" r="23.5"/><circle class="cls-10" cx="359.61" cy="1012.95" r="19.8"/><circle class="cls-10" cx="415.72" cy="883.76" r="27.85"/><circle class="cls-11" cx="318.85" cy="877.73" r="22.42"/><circle class="cls-12" cx="230.09" cy="876.69" r="17.17" transform="translate(-648.82 1098.17) rotate(-89.44)"/><polygon class="cls-13" points="833.68 1007.94 829.84 1008.33 836.69 1055.14 840.54 1054.75 833.68 1007.94"/><circle class="cls-13" cx="830.85" cy="998.25" r="10.76"/><rect class="cls-10" x="511.42" y="984.08" width="138.17" height="10.58" transform="translate(-469.11 1452.13) rotate(-83.39)"/><rect class="cls-11" x="628.56" y="999.29" width="92.4" height="7.73" transform="translate(-468.89 1395.19) rotate(-75)"/><circle class="cls-10" cx="587.79" cy="920.64" r="19.8" transform="matrix(0.16, -0.99, 0.99, 0.16, -415.11, 1353.37)"/><circle class="cls-10" cx="571.57" cy="1060.54" r="27.85"/><circle class="cls-11" cx="660.21" cy="1043.36" r="22.42"/><circle class="cls-12" cx="746.26" cy="1022.7" r="17.17"/><path class="cls-14" d="M508.87,593a30.33,30.33,0,1,1,11.65-58.35l-.47,1.1a28.79,28.79,0,0,0-11.18-2.23,29.16,29.16,0,1,0,29,29.31v-.15h1.19A30.35,30.35,0,0,1,508.87,593Z"/><path class="cls-7" d="M508.87,599a36.32,36.32,0,0,1-31.31-54.83l1,.6a35.19,35.19,0,1,0,65.6,17.89h1.19A36.4,36.4,0,0,1,508.9,599Z"/><path class="cls-14" d="M1468,995.27a30.33,30.33,0,1,1,11.63-58.35l-.45,1.1A29.16,29.16,0,1,0,1497,964.86h1.19A30.35,30.35,0,0,1,1468,995.27Z"/><path class="cls-7" d="M1468,1001.32a36.37,36.37,0,0,1-31.34-54.86l1,.6a35.18,35.18,0,1,0,65.59,17.88h1.16a36.4,36.4,0,0,1-36.43,36.38Z"/><path class="cls-14" d="M614.44,737.09a39.45,39.45,0,1,1,15.15-75.88l-.59,1.43a37.36,37.36,0,0,0-14.56-3,37.93,37.93,0,1,0,37.93,38h1.52A39.48,39.48,0,0,1,614.44,737.09Z"/><path class="cls-7" d="M614.44,744.93a47.31,47.31,0,0,1-40.78-71.35l1.31.81a45.77,45.77,0,1,0,85.15,23.25h1.55A47.34,47.34,0,0,1,614.44,744.93Z"/><path class="cls-14" d="M1308.23,1023.15a33.73,33.73,0,1,1,12.94-64.91l-.5,1.22a32.42,32.42,0,1,0,19.94,29.81h1.32a33.77,33.77,0,0,1-33.64,33.88Z"/><path class="cls-7" d="M1308.23,1029.79a40.43,40.43,0,0,1-34.82-61l1.13.69a39.09,39.09,0,1,0,72.78,19.85h1.31A40.45,40.45,0,0,1,1308.23,1029.79Z"/><path class="cls-14" d="M728.07,880a49.22,49.22,0,1,1-3.42-98.39q1.71-.06,3.42,0A48.7,48.7,0,0,1,747,785.39l-.75,1.79a46.77,46.77,0,0,0-18.16-3.64,47.32,47.32,0,1,0,47.32,47.32h1.91A49.26,49.26,0,0,1,728.07,880Z"/><path class="cls-4" d="M728.07,889.84a59,59,0,0,1-50.68-89l1.67,1a57.1,57.1,0,1,0,106.26,29h1.94a59.1,59.1,0,0,1-59.16,59Z"/><path class="cls-14" d="M886.4,1000.28a42.7,42.7,0,1,1,16.4-82.15l-.66,1.55a41.13,41.13,0,1,0,25.28,38.05h1.67A42.75,42.75,0,0,1,886.4,1000.28Z"/><path class="cls-3" d="M886.4,1008.92a51.17,51.17,0,0,1-44.1-77.22l1.43.83a49.52,49.52,0,1,0,92.19,25.2h1.67A51.24,51.24,0,0,1,886.4,1008.92Z"/><path class="cls-14" d="M1107.36,1050.67a35.63,35.63,0,0,1-2.06-71.23c.69,0,1.38,0,2.06,0a35,35,0,0,1,13.66,2.71l-.54,1.28a34.24,34.24,0,1,0,21.11,31.61h1.55A35.77,35.77,0,0,1,1107.36,1050.67Z"/><path class="cls-4" d="M1107.36,1057.7a42.73,42.73,0,0,1-36.79-64.43l1.19.72a41.32,41.32,0,1,0,76.9,20.87h1.4A42.78,42.78,0,0,1,1107.36,1057.7Z"/><path class="cls-14" d="M354.27,563.53V542.21h11.24v2.33H356.8v6h8.71v2.36H356.8V561h8.71v2.35Z"/><path class="cls-14" d="M370.19,563.53V552.08h-2.56V550.2h2.56v-3.84a8.29,8.29,0,0,1,.72-4.5,3.39,3.39,0,0,1,3-1.05h1l.93.24v2.36a4.7,4.7,0,0,0-.87-.36,2.84,2.84,0,0,0-.92,0,1.43,1.43,0,0,0-1.37.65,7.3,7.3,0,0,0-.27,3.08v3.54H376v1.88h-3.49v11.45Z"/><path class="cls-14" d="M377.77,543.79a1.55,1.55,0,0,1,.5-1.16,1.63,1.63,0,0,1,1.2-.51,1.66,1.66,0,0,1,1.63,1.7h0a1.67,1.67,0,0,1-2.83,1.17A1.6,1.6,0,0,1,377.77,543.79Zm.56,19.74V550.2h2.3v13.33Z"/><path class="cls-14" d="M395.66,560.37V563a7.73,7.73,0,0,1-2.06.8,10.88,10.88,0,0,1-2.42.27,6.6,6.6,0,0,1-5-2,7.09,7.09,0,0,1-1.87-5.13,7.22,7.22,0,0,1,1.93-5.25,6.72,6.72,0,0,1,5-2,9.77,9.77,0,0,1,2.15.24,8.43,8.43,0,0,1,2,.68v2.45a6.93,6.93,0,0,0-1.82-.87,6,6,0,0,0-1.88-.3,4.9,4.9,0,0,0-3.61,1.4,5.18,5.18,0,0,0-1.34,3.73,4.7,4.7,0,0,0,1.34,3.43,4.65,4.65,0,0,0,3.43,1.4,5.8,5.8,0,0,0,2-.24A10.05,10.05,0,0,0,395.66,560.37Z"/><path class="cls-14" d="M398.4,543.79a1.51,1.51,0,0,1,.48-1.16,1.61,1.61,0,0,1,1.19-.51,1.74,1.74,0,0,1,1.67,1.7,1.76,1.76,0,0,1-.48,1.17,1.67,1.67,0,0,1-3-1.2Zm.53,19.74V550.2h2.3v13.33Z"/><path class="cls-14" d="M417.93,557.21H407.37v.21a5,5,0,0,0,1.23,3.46,4.15,4.15,0,0,0,3.19,1.31,4.23,4.23,0,0,0,2.41-.72,6.23,6.23,0,0,0,1.91-2.17l1.73,1.16a6.72,6.72,0,0,1-6.17,3.64,6.41,6.41,0,0,1-5-2,7.42,7.42,0,0,1-1.88-5.28,7.12,7.12,0,0,1,1.88-5.12,6.12,6.12,0,0,1,4.77-2,6,6,0,0,1,4.68,1.91,7.29,7.29,0,0,1,1.73,5.15Zm-2.3-1.85a4,4,0,0,0-1.16-2.71,4.19,4.19,0,0,0-3-.95,4,4,0,0,0-2.78,1,4.15,4.15,0,0,0-1.28,2.68Z"/><path class="cls-14" d="M421.36,563.53V550.2h2.23v2.06a5.56,5.56,0,0,1,2.06-1.91,6,6,0,0,1,2.8-.59,5.2,5.2,0,0,1,3.7,1.25,4.61,4.61,0,0,1,1.37,3.46v8.94h-2.38v-7.69a4.31,4.31,0,0,0-.87-3,3.25,3.25,0,0,0-2.62-1,4.88,4.88,0,0,0-1.85.36,4.12,4.12,0,0,0-1.4,1.08,3.34,3.34,0,0,0-.6,1.19,10,10,0,0,0-.18,2.32v6.89Z"/><path class="cls-14" d="M438.32,552.08h-2.44V550.2h2.44v-5.36h2.33v5.36h2.44v1.88h-2.44v11.45h-2.33Z"/><path class="cls-14" d="M457.58,557.21H447v.21a5,5,0,0,0,1.22,3.46,4.51,4.51,0,0,0,5.61.59,6.2,6.2,0,0,0,1.9-2.17l1.73,1.16a6.71,6.71,0,0,1-6.08,3.64,6.4,6.4,0,0,1-4.92-2,7.47,7.47,0,0,1-1.88-5.28,7.16,7.16,0,0,1,1.88-5.12,6.14,6.14,0,0,1,4.77-2,6,6,0,0,1,4.68,1.91,7.29,7.29,0,0,1,1.73,5.15Zm-2.44-1.85a3.84,3.84,0,0,0-1.16-2.71,4.22,4.22,0,0,0-3-.95,4,4,0,0,0-2.56,1,4.05,4.05,0,0,0-1.28,2.68Z"/><path class="cls-14" d="M432.45,712.08V690.79h11.24v2.29H435v6.11h8.71v2.36H435v8.17h8.71v2.36Z"/><path class="cls-14" d="M466.32,712.08v-7.85a4.54,4.54,0,0,0-.84-3,3,3,0,0,0-2.5-1,4.15,4.15,0,0,0-1.7.39,3.69,3.69,0,0,0-1.31,1,3.49,3.49,0,0,0-.57,1.22,11.1,11.1,0,0,0-.18,2.3v6.89h-2.17v-7.85a4.72,4.72,0,0,0-.84-3,3,3,0,0,0-2.5-1,4.15,4.15,0,0,0-1.7.39,3.43,3.43,0,0,0-1.34,1,3.77,3.77,0,0,0-.54,1.19,10.13,10.13,0,0,0-.18,2.33v6.88h-2.18V698.84H450v2a5.69,5.69,0,0,1,2-1.87,5.32,5.32,0,0,1,2.65-.63,5,5,0,0,1,2.74.69,4.28,4.28,0,0,1,1.7,2,5.94,5.94,0,0,1,2.06-2,5.26,5.26,0,0,1,2.71-.66,4.69,4.69,0,0,1,3.46,1.25,4.61,4.61,0,0,1,1.26,3.46V712Z"/><path class="cls-14" d="M473.06,718.58V698.84h2.2v2.5a5.82,5.82,0,0,1,2.06-2.23,5.3,5.3,0,0,1,3-.75,6,6,0,0,1,4.62,1.94,8.92,8.92,0,0,1,0,10.46,5.69,5.69,0,0,1-4.59,1.94,5.38,5.38,0,0,1-3-.74,5.55,5.55,0,0,1-2-2.24v8.94Zm2.17-13.12a5.1,5.1,0,0,0,1.26,3.6,4.23,4.23,0,0,0,3.28,1.35,4.14,4.14,0,0,0,3-1.23,4.8,4.8,0,0,0,1.13-3.43,6,6,0,0,0-1.13-3.87,3.92,3.92,0,0,0-3.19-1.4,4.19,4.19,0,0,0-3.28,1.34,5.26,5.26,0,0,0-1,3.64Z"/><path class="cls-14" d="M502.49,698.84v13.29h-2.21v-2.41a5.91,5.91,0,0,1-2,2.24,5.27,5.27,0,0,1-2.8.74,5.92,5.92,0,0,1-4.62-2,8.72,8.72,0,0,1,0-10.43,5.69,5.69,0,0,1,4.56-1.94,5.47,5.47,0,0,1,3,.75,5.19,5.19,0,0,1,2,2.23v-2.5Zm-2.21,6.77a5.4,5.4,0,0,0-1.16-3.79,4.15,4.15,0,0,0-3.22-1.37,4,4,0,0,0-3.19,1.28,5,5,0,0,0-1.17,3.52,5.44,5.44,0,0,0,1.17,3.72,4.7,4.7,0,0,0,6.47,0,5.16,5.16,0,0,0,1.1-3.42Zm-6-9,3-5.07h3l-4.14,5.07Z"/><path class="cls-14" d="M507.41,700.66h-2.33v-1.82h2.44v-5.4h2.33v5.4h2.45v1.88h-2.45v11.41h-2.33Z"/><path class="cls-14" d="M514.35,692.34a1.68,1.68,0,0,1,2.84-1.17,1.71,1.71,0,1,1-2.48,2.36A1.56,1.56,0,0,1,514.35,692.34Zm.54,19.74V698.84h2.3v13.29Z"/><path class="cls-14" d="M532.21,708.91v2.66a7,7,0,0,1-2,.8,10,10,0,0,1-2.44.27,6.57,6.57,0,0,1-5-1.94,8,8,0,0,1,0-10.37,6.54,6.54,0,0,1,5-2,10,10,0,0,1,2.18.21,10.58,10.58,0,0,1,2,.68v2.45a9.13,9.13,0,0,0-1.78-.86,6.92,6.92,0,0,0-1.91-.3,4.74,4.74,0,0,0-3.58,1.4,5.16,5.16,0,0,0-1.37,3.76,4.61,4.61,0,0,0,1.37,3.42,4.53,4.53,0,0,0,3.4,1.38,6.38,6.38,0,0,0,2-.36A8.13,8.13,0,0,0,532.21,708.91Z"/><path class="cls-14" d="M534.3,705.46a7,7,0,0,1,2.12-5.1,7.13,7.13,0,0,1,2.35-1.55,7.39,7.39,0,0,1,7.9,1.58,6.56,6.56,0,0,1,1.58,2.32,7.21,7.21,0,0,1,.54,2.75,7,7,0,0,1-.54,2.74,6.4,6.4,0,0,1-1.58,2.3,7.28,7.28,0,0,1-7.9,1.61,7.32,7.32,0,0,1-3.93-3.88A7.12,7.12,0,0,1,534.3,705.46Zm2.41,0a5,5,0,0,0,1.44,3.57,4.55,4.55,0,0,0,3.42,1.47,4.45,4.45,0,0,0,3.37-1.47,5.26,5.26,0,0,0,0-7.15,4.52,4.52,0,0,0-3.37-1.46,4.66,4.66,0,0,0-3.45,1.46A5,5,0,0,0,536.71,705.46Z"/><path class="cls-14" d="M567.9,804.48l3-5.07h3l-4.15,5.07Zm.81,23.43V806.59h2.53v21.32Z"/><path class="cls-14" d="M576.16,827.91V814.58h2.24v2.06a5.38,5.38,0,0,1,2.05-1.91,6,6,0,0,1,2.81-.62,5,5,0,0,1,3.66,1.25,4.54,4.54,0,0,1,1.35,3.49v8.94h-2.33V820a4.47,4.47,0,0,0-.86-3,3.29,3.29,0,0,0-2.63-1,4.55,4.55,0,0,0-1.85.36,3.62,3.62,0,0,0-1.4,1.08,3.09,3.09,0,0,0-.59,1.19,10,10,0,0,0-.18,2.32v6.89Z"/><path class="cls-14" d="M593.13,816.46h-2.45v-1.88h2.45v-5.42h2.32v5.36h2.45v1.88h-2.45v11.45h-2.32Z"/><path class="cls-14" d="M612.42,821.59H601.86v.21a5,5,0,0,0,1.23,3.46,4.19,4.19,0,0,0,3.19,1.31,4.23,4.23,0,0,0,2.41-.72,6.63,6.63,0,0,0,1.91-2.17l1.73,1.16a6.72,6.72,0,0,1-6.17,3.64,6.46,6.46,0,0,1-4.92-2,8.15,8.15,0,0,1,0-10.38,6.28,6.28,0,0,1,4.8-2,6,6,0,0,1,4.68,1.87,7.44,7.44,0,0,1,1.73,5.13ZM610,819.74a3.9,3.9,0,0,0-1.16-2.71,4.61,4.61,0,0,0-5.67,0,4.05,4.05,0,0,0-1.28,2.68Z"/><path class="cls-14" d="M628.22,814.58v13.09a10.63,10.63,0,0,1-.3,3,4.09,4.09,0,0,1-.95,1.67,5.83,5.83,0,0,1-2.27,1.49,8.89,8.89,0,0,1-3,.51,7.15,7.15,0,0,1-4.71-1.4,5,5,0,0,1-1.79-3.91h2.56v.18a2.78,2.78,0,0,0,1.05,2.3,4.46,4.46,0,0,0,3,.83,5.35,5.35,0,0,0,2.33-.44,3.46,3.46,0,0,0,1.49-1.32,3.62,3.62,0,0,0,.44-1.16,14.74,14.74,0,0,0,0-1.88v-2.23a5.48,5.48,0,0,1-2,2.17,5.27,5.27,0,0,1-2.81.78,6,6,0,0,1-4.62-2,7.41,7.41,0,0,1-1.76-5.16,7.58,7.58,0,0,1,1.7-5.19,5.79,5.79,0,0,1,4.56-1.9,5.59,5.59,0,0,1,3,.74,5.12,5.12,0,0,1,2,2.21v-2.48ZM626,821.29a5.31,5.31,0,0,0-1.22-3.64,4.61,4.61,0,0,0-6.41-.09,5,5,0,0,0-1.16,3.55,5.5,5.5,0,0,0,1.16,3.73,4.14,4.14,0,0,0,3.28,1.31,4,4,0,0,0,3.19-1.31A5,5,0,0,0,626,821.29Z"/><path class="cls-14" d="M632.87,827.91V814.58h2v2.78a6.63,6.63,0,0,1,1.94-2.48,4.09,4.09,0,0,1,2.53-.74h.78l.74.2-.74,2-.75-.18a2.36,2.36,0,0,0-.65,0,3,3,0,0,0-2.72,1.28,7,7,0,0,0-.89,3.94v6.5Z"/><path class="cls-14" d="M642.23,821.29a7.31,7.31,0,0,1,.54-2.77,6.88,6.88,0,0,1,1.58-2.33,7.11,7.11,0,0,1,5.13-2.08,7.11,7.11,0,0,1,2.77.53,7.7,7.7,0,0,1,2.36,1.58,6.76,6.76,0,0,1,1.58,2.3,7.13,7.13,0,0,1-4,9.39,6.63,6.63,0,0,1-2.74.57,7.31,7.31,0,0,1-2.77-.54,7.39,7.39,0,0,1-3.94-3.91A7.16,7.16,0,0,1,642.23,821.29Zm2.42,0a4.91,4.91,0,0,0,1.4,3.55,4.61,4.61,0,0,0,3.43,1.49,4.51,4.51,0,0,0,3.4-1.49,5.23,5.23,0,0,0,0-7.13,4.52,4.52,0,0,0-3.4-1.46,4.58,4.58,0,0,0-3.43,1.46A4.94,4.94,0,0,0,644.65,821.29Z"/><path class="cls-14" d="M704.16,955l-8.94-22.16H698l6.26,16.31,6.23-16.31h2.75Z"/><path class="cls-14" d="M714.72,934.38a1.58,1.58,0,0,1,.5-1.19,1.76,1.76,0,0,1,1.17-.48,1.69,1.69,0,0,1,1.67,1.7,1.65,1.65,0,0,1-.48,1.17,1.75,1.75,0,0,1-1.19.47,1.7,1.7,0,0,1-1.17-.47A1.6,1.6,0,0,1,714.72,934.38Zm.53,19.74V940.79h2.33v13.33Z"/><path class="cls-14" d="M721,951.92l2-1.32a4,4,0,0,0,1.4,1.58,3.52,3.52,0,0,0,2,.54,2.57,2.57,0,0,0,1.79-.57,1.68,1.68,0,0,0,.72-1.43,1.55,1.55,0,0,0-.48-1.16,4.24,4.24,0,0,0-1.64-.86l-.39-.15c-3.22-1.11-4.86-2.51-4.86-4.18a3.65,3.65,0,0,1,1.32-3,5,5,0,0,1,3.43-1.13,6,6,0,0,1,3,.68,4,4,0,0,1,1.79,2L729.12,944a3,3,0,0,0-1.23-1.4,2.91,2.91,0,0,0-1.81-.5,2.28,2.28,0,0,0-1.64.56,1.8,1.8,0,0,0-.63,1.43c0,.81.86,1.49,2.62,2.06l.81.24a7.41,7.41,0,0,1,3,1.58,3.38,3.38,0,0,1,.87,2.38,4,4,0,0,1-1.35,3,5.26,5.26,0,0,1-3.51,1.16,6.7,6.7,0,0,1-3.2-.72A5.22,5.22,0,0,1,721,951.92Z"/><path class="cls-14" d="M734.1,934.38a1.62,1.62,0,0,1,.47-1.19,1.74,1.74,0,0,1,1.2-.48,1.74,1.74,0,0,1,1.67,1.7,1.67,1.67,0,0,1-1.67,1.64,1.77,1.77,0,0,1-1.2-.47A1.63,1.63,0,0,1,734.1,934.38Zm.53,19.74V940.79h2.3v13.33Z"/><path class="cls-14" d="M740.63,947.53a7.11,7.11,0,0,1,.53-2.77,6.88,6.88,0,0,1,1.58-2.33,7.31,7.31,0,0,1,2.33-1.55,7.45,7.45,0,0,1,2.8-.53,7.11,7.11,0,0,1,2.77.53,7.7,7.7,0,0,1,2.36,1.58,6.76,6.76,0,0,1,1.58,2.3,7.12,7.12,0,0,1-4,9.39,6.6,6.6,0,0,1-2.74.57,7.31,7.31,0,0,1-2.77-.54,7.52,7.52,0,0,1-2.36-1.58,7.24,7.24,0,0,1-1.58-2.32A7,7,0,0,1,740.63,947.53Zm2.41,0a4.94,4.94,0,0,0,1.4,3.55,4.61,4.61,0,0,0,3.43,1.49,4.49,4.49,0,0,0,3.4-1.49,4.9,4.9,0,0,0,1.4-3.55,5,5,0,0,0-1.4-3.58,4.52,4.52,0,0,0-3.4-1.46,4.6,4.6,0,0,0-3.43,1.46,5.07,5.07,0,0,0-1.37,3.58Z"/><path class="cls-14" d="M758.69,954.15V940.82h2.24v2.06A5.56,5.56,0,0,1,763,941a5.91,5.91,0,0,1,2.8-.62,5.13,5.13,0,0,1,3.67,1.25,4.51,4.51,0,0,1,1.34,3.49V954h-2.33v-7.72a4.47,4.47,0,0,0-.86-3,3.27,3.27,0,0,0-2.62-1,4.49,4.49,0,0,0-1.85.36,3.62,3.62,0,0,0-1.4,1.08,3.11,3.11,0,0,0-.6,1.19,10,10,0,0,0-.18,2.32v6.89Z"/><path class="cls-14" d="M787.71,940.82v13.33H785.5v-2.41a5.88,5.88,0,0,1-2.06,2.2,5.29,5.29,0,0,1-2.77.78,6,6,0,0,1-4.62-2,8.79,8.79,0,0,1-.06-10.47,5.8,5.8,0,0,1,4.56-1.93,5.36,5.36,0,0,1,3,.74,5.48,5.48,0,0,1,2,2.24v-2.51Zm-2.21,6.8a5.36,5.36,0,0,0-1.22-3.64,4.15,4.15,0,0,0-3.22-1.37,4.08,4.08,0,0,0-3.19,1.25,5.07,5.07,0,0,0-1.17,3.55,5.46,5.46,0,0,0,1.17,3.73,4.68,4.68,0,0,0,6.47,0,5.12,5.12,0,0,0,1.16-3.52Z"/><path class="cls-14" d="M792.3,954.15V940.82h2v2.78a6.7,6.7,0,0,1,1.93-2.48,4.1,4.1,0,0,1,2.54-.74h.77l.75.21-.75,2a4.79,4.79,0,0,0-.74-.21,3.64,3.64,0,0,0-.66,0,3,3,0,0,0-2.71,1.32,6.9,6.9,0,0,0-.9,3.9v6.5Z"/><path class="cls-14" d="M802.32,934.38a1.62,1.62,0,0,1,.47-1.19,1.72,1.72,0,0,1,1.2-.48,1.74,1.74,0,0,1,1.67,1.7,1.68,1.68,0,0,1-2.87,1.17A1.63,1.63,0,0,1,802.32,934.38Zm.53,19.74V940.79h2.3v13.33Z"/><path class="cls-14" d="M808.88,947.53a7.11,7.11,0,0,1,.53-2.77,6.88,6.88,0,0,1,1.58-2.33,7.31,7.31,0,0,1,2.33-1.55,7.45,7.45,0,0,1,2.8-.53,7.11,7.11,0,0,1,2.77.53,7.7,7.7,0,0,1,2.36,1.58,6.76,6.76,0,0,1,1.58,2.3,7.12,7.12,0,0,1-4,9.39,6.63,6.63,0,0,1-2.74.57,7.31,7.31,0,0,1-2.77-.54A7.52,7.52,0,0,1,811,952.6a7.24,7.24,0,0,1-1.58-2.32A7,7,0,0,1,808.88,947.53Zm2.41,0a4.94,4.94,0,0,0,1.4,3.55,4.61,4.61,0,0,0,3.43,1.49,4.49,4.49,0,0,0,3.4-1.49,4.94,4.94,0,0,0,1.4-3.55,5,5,0,0,0-1.4-3.58,4.52,4.52,0,0,0-3.4-1.46,4.6,4.6,0,0,0-3.43,1.46A5,5,0,0,0,811.29,947.53Z"/><path class="cls-14" d="M924.86,1023.12V1001.8h11.21v2.32h-8.71v6.12h8.71v2.35h-8.71v10.53Z"/><path class="cls-14" d="M951.6,1009.79v13.33h-2.26v-2.27a6.07,6.07,0,0,1-2.06,2.21,5,5,0,0,1-2.77.77,5.92,5.92,0,0,1-4.62-2,7.44,7.44,0,0,1-1.76-5.21,7.69,7.69,0,0,1,1.7-5.25,5.77,5.77,0,0,1,4.56-1.94,5.68,5.68,0,0,1,3,.75,5.39,5.39,0,0,1,2,2.23v-2.5Zm-2.2,6.8a5.34,5.34,0,0,0-1.22-3.64,4.61,4.61,0,0,0-6.44-.12,5.19,5.19,0,0,0-1.14,3.55,5.39,5.39,0,0,0,1.17,3.72,4.66,4.66,0,0,0,6.47,0,5,5,0,0,0,1.1-3.54Z"/><path class="cls-14" d="M966.39,1020v2.65a7.23,7.23,0,0,1-2,.8,9.93,9.93,0,0,1-2.42.27,6.56,6.56,0,0,1-5-2,7.06,7.06,0,0,1-1.88-5.12,7.27,7.27,0,0,1,1.94-5.25,6.69,6.69,0,0,1,5-2,11.15,11.15,0,0,1,2.15.24,8.69,8.69,0,0,1,2,.69v2.44a7.65,7.65,0,0,0-1.9-.77,6,6,0,0,0-1.88-.3,4.8,4.8,0,0,0-3.61,1.4,5.11,5.11,0,0,0-1.34,3.73,4.7,4.7,0,0,0,4.77,4.83,6.38,6.38,0,0,0,2-.36A8.69,8.69,0,0,0,966.39,1020Z"/><path class="cls-14" d="M969.14,1003.38a1.52,1.52,0,0,1,.47-1.17,1.62,1.62,0,0,1,1.2-.5,1.59,1.59,0,0,1,1.16.5,1.65,1.65,0,0,1,.51,1.2,1.73,1.73,0,0,1-.48,1.16,1.67,1.67,0,0,1-3-1.19Zm.53,19.74v-13.33H972v13.33Z"/><path class="cls-14" d="M976.89,1023.12v-22.57h2.26v22.57Z"/><path class="cls-14" d="M983.57,1003.38a1.73,1.73,0,0,1,1.67-1.67,1.62,1.62,0,0,1,1.19.5,1.64,1.64,0,0,1,.48,1.2,1.59,1.59,0,0,1-.48,1.16,1.61,1.61,0,0,1-1.19.48,1.55,1.55,0,0,1-1.17-.48A1.62,1.62,0,0,1,983.57,1003.38Zm.53,19.74v-13.33h2.3v13.33Z"/><path class="cls-14" d="M991.56,1011.67h-2.45v-1.88h2.45v-5.37h2.32v5.37h2.45v1.88h-2.45v11.45h-2.32Z"/><path class="cls-14" d="M1011.33,1009.79v13.33h-2.21v-2.27a6,6,0,0,1-2,2.21,5.12,5.12,0,0,1-2.8.77,5.92,5.92,0,0,1-4.62-2,7.62,7.62,0,0,1-1.76-5.21,7.74,7.74,0,0,1,1.7-5.25,6.24,6.24,0,0,1,7.48-1.19,5.51,5.51,0,0,1,2,2.23v-2.5Zm-2.21,6.8a5.34,5.34,0,0,0-1.22-3.64,4.55,4.55,0,0,0-6.41,0,5.09,5.09,0,0,0-1.17,3.55,5.44,5.44,0,0,0,1.17,3.72,4.2,4.2,0,0,0,3.28,1.32,4,4,0,0,0,3.19-1.29,5.07,5.07,0,0,0,1.16-3.66Z"/><path class="cls-14" d="M1028.29,1000.55v22.57h-2.21v-2.27a5.88,5.88,0,0,1-2,2.21,5.36,5.36,0,0,1-2.81.77,6,6,0,0,1-4.62-2,7.67,7.67,0,0,1-1.76-5.21,7.55,7.55,0,0,1,1.73-5.22,6.17,6.17,0,0,1,7.46-1.22,5.66,5.66,0,0,1,2,2.23v-11.75Zm-2.21,16a5.26,5.26,0,0,0-1.22-3.61,4.27,4.27,0,0,0-3.28-1.34,4.16,4.16,0,0,0-3.16,1.22,5,5,0,0,0-1.13,3.43,5.92,5.92,0,0,0,1.16,3.84,3.9,3.9,0,0,0,3.16,1.41,4.22,4.22,0,0,0,3.28-1.32,5.1,5.1,0,0,0,1.19-3.63Z"/><path class="cls-14" d="M1031.87,1016.5a7,7,0,0,1,2.12-5.1,6.85,6.85,0,0,1,2.32-1.55,7.46,7.46,0,0,1,2.8-.54,7.36,7.36,0,0,1,2.78.54,7.6,7.6,0,0,1,2.35,1.58,6.72,6.72,0,0,1,1.58,2.29,7.32,7.32,0,0,1,0,5.52,7.11,7.11,0,0,1-1.58,2.3,7.5,7.5,0,0,1-2.38,1.58,6.67,6.67,0,0,1-2.75.56,7.45,7.45,0,0,1-2.8-.53,7.82,7.82,0,0,1-2.32-1.58,7.08,7.08,0,0,1-1.58-2.33A6.8,6.8,0,0,1,1031.87,1016.5Zm2.41,0a5,5,0,0,0,1.41,3.57,4.67,4.67,0,0,0,3.42,1.47,4.56,4.56,0,0,0,3.4-1.47,5.26,5.26,0,0,0,0-7.15,4.43,4.43,0,0,0-3.4-1.46,4.49,4.49,0,0,0-3.42,1.46A5,5,0,0,0,1034.28,1016.5Z"/><path class="cls-14" d="M1049.94,1023.12v-13.33h2v2.77a6.86,6.86,0,0,1,1.93-2.47,4.1,4.1,0,0,1,2.54-.75h.77l.75.21-.75,2.06-.74-.21h-.66a3,3,0,0,0-2.71,1.31,6.93,6.93,0,0,0-.9,3.91v6.5Z"/><path class="cls-14" d="M1170.22,1055.14v-21.32h2.53v21.32Z"/><path class="cls-14" d="M1177.67,1055.14v-13.42h2.24v2.06a5.61,5.61,0,0,1,2-1.91,6.06,6.06,0,0,1,2.81-.63,5.07,5.07,0,0,1,3.66,1.26,4.48,4.48,0,0,1,1.34,3.48v9h-2.32v-7.84a4.53,4.53,0,0,0-.87-3,3.25,3.25,0,0,0-2.62-1,4.21,4.21,0,0,0-1.85.39,3.78,3.78,0,0,0-1.4,1,3.56,3.56,0,0,0-.6,1.2,10.58,10.58,0,0,0-.17,2.32V1055Z"/><path class="cls-14" d="M1194.28,1055.14v-13.42h2.23v2.06a5.72,5.72,0,0,1,2.06-1.91,6,6,0,0,1,2.8-.63,5.16,5.16,0,0,1,3.7,1.26,4.6,4.6,0,0,1,1.31,3.48v9h-2.32v-7.84a4.53,4.53,0,0,0-.87-3,3.25,3.25,0,0,0-2.62-1,4.21,4.21,0,0,0-1.85.39,3.78,3.78,0,0,0-1.4,1,3.39,3.39,0,0,0-.6,1.2,10,10,0,0,0-.18,2.32V1055Z"/><path class="cls-14" d="M1209.81,1048.52a7.16,7.16,0,0,1,4.47-6.65,7.4,7.4,0,0,1,5.55,0,7.21,7.21,0,0,1,2.35,1.58,6.62,6.62,0,0,1,1.58,2.3,7.12,7.12,0,0,1,.54,2.77,7,7,0,0,1-.54,2.74,6.76,6.76,0,0,1-1.58,2.3,7.59,7.59,0,0,1-2.38,1.61,7.42,7.42,0,0,1-5.52,0,7.06,7.06,0,0,1-2.35-1.58,7.23,7.23,0,0,1-1.58-2.33A6.8,6.8,0,0,1,1209.81,1048.52Zm2.42,0a4.93,4.93,0,0,0,1.43,3.58,4.68,4.68,0,0,0,6.61.18l.19-.18a5.29,5.29,0,0,0,0-7.16,4.48,4.48,0,0,0-3.4-1.46,4.58,4.58,0,0,0-3.43,1.46,5,5,0,0,0-1.4,3.58Z"/><path class="cls-14" d="M1232.23,1056l-6.59-14.25h2.57l4,9.3,4-9.3h2.56Z"/><path class="cls-14" d="M1253.64,1041.72v13.33h-2.21v-2.42a5.88,5.88,0,0,1-2,2.21,5.08,5.08,0,0,1-2.81.78,6,6,0,0,1-4.62-2,7.58,7.58,0,0,1-1.76-5.22,7.74,7.74,0,0,1,1.7-5.25,6.27,6.27,0,0,1,7.49-1.19,5.59,5.59,0,0,1,2,2.24v-2.51Zm-2.21,6.8a5.31,5.31,0,0,0-1.22-3.64,4.57,4.57,0,0,0-6.41,0,5.08,5.08,0,0,0-1.16,3.55,5.42,5.42,0,0,0,1.16,3.73,4.26,4.26,0,0,0,3.28,1.31,4,4,0,0,0,3.19-1.28,5,5,0,0,0,1.16-3.58Z"/><path class="cls-14" d="M1270.61,1032.57v22.57h-2.24v-2.42a6,6,0,0,1-2,2.21,5.12,5.12,0,0,1-2.8.77,5.94,5.94,0,0,1-4.62-2,8.67,8.67,0,0,1,0-10.44,6.16,6.16,0,0,1,7.45-1.22,5.54,5.54,0,0,1,2,2.24v-11.75Zm-2.21,16a5.19,5.19,0,0,0-1.22-3.58,4.66,4.66,0,0,0-6.44-.15,5,5,0,0,0-1.14,3.43,6,6,0,0,0,1.17,3.85,3.89,3.89,0,0,0,3.16,1.4,4.26,4.26,0,0,0,3.28-1.31,5.16,5.16,0,0,0,1.16-3.64Z"/><path class="cls-14" d="M1274.33,1048.52a7,7,0,0,1,2.12-5.1,6.94,6.94,0,0,1,2.33-1.55,7.46,7.46,0,0,1,2.8-.54,7.31,7.31,0,0,1,2.77.54,7.52,7.52,0,0,1,2.36,1.58,6.76,6.76,0,0,1,1.58,2.3,7.11,7.11,0,0,1,.53,2.77,7,7,0,0,1-.53,2.74,7,7,0,0,1-1.58,2.3,8.24,8.24,0,0,1-2.39,1.61,7.39,7.39,0,0,1-5.51,0,7,7,0,0,1-2.36-1.58,7.23,7.23,0,0,1-1.58-2.33A7,7,0,0,1,1274.33,1048.52Zm2.42,0a5,5,0,0,0,1.4,3.58,4.58,4.58,0,0,0,3.43,1.46,4.52,4.52,0,0,0,3.4-1.46,5.29,5.29,0,0,0,0-7.16,4.48,4.48,0,0,0-3.4-1.46,4.54,4.54,0,0,0-3.43,1.46,5,5,0,0,0-1.55,3.58Z"/><path class="cls-14" d="M1292.22,1055.14v-13.42h2v3a6.88,6.88,0,0,1,1.94-2.47,4.3,4.3,0,0,1,2.53-.75h.78l.74.21-.74,2.06-.75-.21h-.65a3,3,0,0,0-2.72,1.31,7,7,0,0,0-.89,3.91v6.5Z"/><path class="cls-14" d="M1396.25,1030.84v-21.32h11.24v2.39h-8.71v6h8.71v2.35h-8.71v8.17h8.71v2.36Z"/><path class="cls-14" d="M1410.14,1028.6l1.94-1.31a4.27,4.27,0,0,0,1.4,1.58,3.63,3.63,0,0,0,2,.54,2.77,2.77,0,0,0,1.82-.57,1.77,1.77,0,0,0,.69-1.43,1.48,1.48,0,0,0-.48-1.16,4.21,4.21,0,0,0-1.61-.87l-.39-.15c-3.25-1.1-4.86-2.5-4.86-4.17a3.62,3.62,0,0,1,1.31-3,4.91,4.91,0,0,1,3.4-1.14,6.28,6.28,0,0,1,3,.69,4.11,4.11,0,0,1,1.76,2l-1.85,1.13a3,3,0,0,0-1.19-1.4,3.18,3.18,0,0,0-1.85-.51,2.35,2.35,0,0,0-1.64.57,1.8,1.8,0,0,0-.62,1.43c0,.81.89,1.49,2.65,2.06l.78.24a7,7,0,0,1,3,1.61,3.23,3.23,0,0,1,.83,2.35,3.91,3.91,0,0,1-1.34,3,5.17,5.17,0,0,1-3.52,1.17,6.57,6.57,0,0,1-3.16-.72A5,5,0,0,1,1410.14,1028.6Z"/><path class="cls-14" d="M1433.91,1027.68v2.65a7.43,7.43,0,0,1-2,.81,10.54,10.54,0,0,1-2.44.26,6.46,6.46,0,0,1-5-2,7,7,0,0,1-1.91-5.13,7.21,7.21,0,0,1,2-5.25,6.59,6.59,0,0,1,5-2,11.27,11.27,0,0,1,2.17.24,8.7,8.7,0,0,1,2,.69v2.44a6.29,6.29,0,0,0-1.79-.86,5.87,5.87,0,0,0-1.91-.3,4.66,4.66,0,0,0-3.58,1.4,5.18,5.18,0,0,0-1.37,3.73,4.77,4.77,0,0,0,1.37,3.43,4.65,4.65,0,0,0,3.43,1.4,5.66,5.66,0,0,0,2-.36A8.72,8.72,0,0,0,1433.91,1027.68Z"/><path class="cls-14" d="M1437.13,1030.84v-13.33h2v2.77a6.75,6.75,0,0,1,1.93-2.47,4.08,4.08,0,0,1,2.51-.75h.8l.75.21-.75,2.06a4.79,4.79,0,0,0-.74-.21H1443a3,3,0,0,0-2.68,1.31,6.7,6.7,0,0,0-.93,3.91v6.5Z"/><path class="cls-14" d="M1449.71,1017.51v6.56a6.88,6.88,0,0,0,.84,4,3.34,3.34,0,0,0,3,1.16,3.39,3.39,0,0,0,3-1.13,7.25,7.25,0,0,0,.83-4v-6.56h2.33v7.78a6.28,6.28,0,0,1-1.55,4.56,7.4,7.4,0,0,1-8.95,0,6.28,6.28,0,0,1-1.55-4.56v-7.78Z"/><path class="cls-14" d="M1463.87,1037.34v-19.83H1466V1020a5.61,5.61,0,0,1,2.12-2.15,5.4,5.4,0,0,1,2.8-.78,6,6,0,0,1,4.65,2,7.55,7.55,0,0,1,1.73,5.22,7.74,7.74,0,0,1-1.7,5.25,6,6,0,0,1-4.59,1.93,5.36,5.36,0,0,1-3-.74,5.83,5.83,0,0,1-2-2.24v9Zm2.18-13.12a5.06,5.06,0,0,0,1.25,3.58,4.21,4.21,0,0,0,3.28,1.37,4,4,0,0,0,3.13-1.25,4.94,4.94,0,0,0,1.14-3.43,6,6,0,0,0-1.14-3.85,3.84,3.84,0,0,0-3.19-1.4,4.31,4.31,0,0,0-3.28,1.31,5.42,5.42,0,0,0-1.19,3.67Z"/><path class="cls-14" d="M1483,1017.51v6.56a6.9,6.9,0,0,0,.87,4,3.32,3.32,0,0,0,3,1.16,3.39,3.39,0,0,0,3-1.13,7,7,0,0,0,.84-4v-6.56H1493v7.78a6.27,6.27,0,0,1-1.52,4.56,6.11,6.11,0,0,1-4.56,1.55,5.92,5.92,0,0,1-4.5-1.55,6.18,6.18,0,0,1-1.55-4.56v-7.78Z"/><path class="cls-14" d="M1497.33,1030.84v-22.57h2.32v22.57Z"/><path class="cls-14" d="M1503.35,1024.22a7.16,7.16,0,0,1,4.47-6.65,7.27,7.27,0,0,1,2.8-.54,7.12,7.12,0,0,1,5.1,2.12,6.32,6.32,0,0,1,1.58,2.3,7.3,7.3,0,0,1,0,5.51,6.49,6.49,0,0,1-1.58,2.3,7.18,7.18,0,0,1-2.38,1.58,6.53,6.53,0,0,1-2.72.56,7.26,7.26,0,0,1-2.8-.53,8,8,0,0,1-2.35-1.58,7.08,7.08,0,0,1-1.58-2.33A7,7,0,0,1,1503.35,1024.22Zm2.41,0a5,5,0,0,0,1.44,3.58,4.67,4.67,0,0,0,3.42,1.46,4.6,4.6,0,0,0,3.37-1.46,5.27,5.27,0,0,0,0-7.16,4.44,4.44,0,0,0-3.37-1.46,4.57,4.57,0,0,0-3.45,1.46A5,5,0,0,0,1505.76,1024.22Z"/><path class="cls-14" d="M1520,1028.6l1.94-1.31a4.1,4.1,0,0,0,1.4,1.58,3.6,3.6,0,0,0,2,.54,2.77,2.77,0,0,0,1.82-.57,1.74,1.74,0,0,0,.69-1.43,1.48,1.48,0,0,0-.48-1.16,4,4,0,0,0-1.61-.87l-.39-.15c-3.25-1.1-4.86-2.5-4.86-4.17a3.63,3.63,0,0,1,1.32-3,4.87,4.87,0,0,1,3.39-1.14,6.32,6.32,0,0,1,3,.69,4.21,4.21,0,0,1,1.76,2l-1.85,1.13a3,3,0,0,0-1.2-1.4,3.17,3.17,0,0,0-1.84-.51,2.38,2.38,0,0,0-1.64.57,1.77,1.77,0,0,0-.63,1.43c0,.81.89,1.49,2.65,2.06l.78.24a7,7,0,0,1,3,1.61,3.24,3.24,0,0,1,.84,2.35,4,4,0,0,1-1.35,3,5.15,5.15,0,0,1-3.51,1.17,6.58,6.58,0,0,1-3.17-.72A5.22,5.22,0,0,1,1520,1028.6Z"/><path class="cls-14" d="M1532.45,1024.22a7.28,7.28,0,0,1,7.36-7.19,7.39,7.39,0,0,1,2.66.54,7.21,7.21,0,0,1,2.35,1.58,6.32,6.32,0,0,1,1.58,2.3,7.3,7.3,0,0,1,0,5.51,6.49,6.49,0,0,1-1.58,2.3,7.37,7.37,0,0,1-2.35,1.58,6.66,6.66,0,0,1-2.74.56,7.31,7.31,0,0,1-2.81-.53,8,8,0,0,1-2.35-1.58A7.08,7.08,0,0,1,1533,1027,7,7,0,0,1,1532.45,1024.22Zm2.42,0a4.93,4.93,0,0,0,1.43,3.58,4.67,4.67,0,0,0,3.43,1.46,4.59,4.59,0,0,0,3.36-1.46,5.27,5.27,0,0,0,0-7.16,4.67,4.67,0,0,0-6.61-.18l-.18.18A4.93,4.93,0,0,0,1534.87,1024.22Z"/></svg>