<svg xmlns="http://www.w3.org/2000/svg" viewBox="0 0 1080 1080.75"><defs><style>.cls-1{fill:#fff;}.cls-2{fill:none;stroke:#45cfdd;stroke-miterlimit:10;}.cls-3{fill:#003875;}.cls-4{fill:#45cfdd;}</style></defs><title>Value_svg_responsabilidad</title><g id="Capa_2" data-name="Capa 2"><g id="Capa_1-2" data-name="Capa 1"><path class="cls-1" d="M540,1080.75c298.23,0,540-241.94,540-540.38S838.23,0,540,0,0,241.93,0,540.37,241.77,1080.75,540,1080.75Z"/><path class="cls-2" d="M860.8,861.32C1038,684.06,1038,396.64,860.8,219.37s-464.36-177.27-641.51,0-177.15,464.69,0,642S683.66,1038.6,860.8,861.32Z"/><path class="cls-3" d="M217.55,429.66h21.92v3.72H221v12h17.87v3.73H221v15h17.87v3.73H217.55Z"/><path class="cls-3" d="M245,439.67h3.62V471.6a8.36,8.36,0,0,1-1.28,5.22,4.33,4.33,0,0,1-1.56,1.22,4.22,4.22,0,0,1-1.95.37,13.4,13.4,0,0,1-4.15-.85v-3.3a5.67,5.67,0,0,0,2.66.75,2.61,2.61,0,0,0,1.26-.31,2.52,2.52,0,0,0,1-.86,9.15,9.15,0,0,0,0-3.3ZM246.81,428a2.91,2.91,0,0,1,1.16.25,3.21,3.21,0,0,1,1,.7,3,3,0,0,1,.63,1,3.05,3.05,0,0,1,.22,1.15,3.14,3.14,0,0,1-1.82,2.72,3.11,3.11,0,0,1-1.16.26,2.79,2.79,0,0,1-1.18-.23,2.69,2.69,0,0,1-.95-.73,2.46,2.46,0,0,1-.65-.91,2.49,2.49,0,0,1-.2-1.11,2.71,2.71,0,0,1,.17-1.16,2.63,2.63,0,0,1,.68-1,2.67,2.67,0,0,1,.95-.72A2.52,2.52,0,0,1,246.81,428Z"/><path class="cls-3" d="M280,458.51l3.09,1.6a14.18,14.18,0,0,1-3.51,4.78,12.09,12.09,0,0,1-4.47,2.77,15,15,0,0,1-5.53,1,13.59,13.59,0,0,1-5.84-1.09,13.39,13.39,0,0,1-4.8-3.49,15.18,15.18,0,0,1-3.83-10.64,14.81,14.81,0,0,1,3.29-9.58,13.37,13.37,0,0,1,4.71-3.9,13.56,13.56,0,0,1,5.93-1.43,13.94,13.94,0,0,1,11.49,5.43,15.54,15.54,0,0,1,3.19,9.69h-25.1a11.13,11.13,0,0,0,.73,4.35,11.32,11.32,0,0,0,2.35,3.74,10,10,0,0,0,3.44,2.41,9.85,9.85,0,0,0,4.12.78,13.38,13.38,0,0,0,4.15-.74,11.39,11.39,0,0,0,3.51-2A17.48,17.48,0,0,0,280,458.51Zm0-7.56a10.78,10.78,0,0,0-2.13-4.69,10,10,0,0,0-3.61-2.87,12.91,12.91,0,0,0-4.9-1.06,10.61,10.61,0,0,0-7.13,2.77,12.29,12.29,0,0,0-3.29,5.85Z"/><path class="cls-3" d="M318.19,445.52l-2.87,1.81a12,12,0,0,0-10.64-5,11.41,11.41,0,0,0-4.59.77,11.64,11.64,0,0,0-3.92,2.53,10.42,10.42,0,0,0-2.57,3.68,10.56,10.56,0,0,0-.83,4.41,12.46,12.46,0,0,0,1.49,5.85,10.59,10.59,0,0,0,4.36,4.16,11.79,11.79,0,0,0,6.17,1.59,12.25,12.25,0,0,0,10.64-5l2.87,1.92a12.4,12.4,0,0,1-5.43,4.68,16.66,16.66,0,0,1-7.76,1.7,15,15,0,0,1-10.64-4.26,13.77,13.77,0,0,1-3.4-4.83,14,14,0,0,1-1.07-5.81,16,16,0,0,1,2-7.67,15,15,0,0,1,5.75-5.53,16.72,16.72,0,0,1,8.08-1.92,16.15,16.15,0,0,1,5.43.85,12.91,12.91,0,0,1,4.36,2.24A9.92,9.92,0,0,1,318.19,445.52Z"/><path class="cls-3" d="M324.79,439.67h3.62v13.2a23.63,23.63,0,0,0,.52,6.6,7.77,7.77,0,0,0,3,4.15,9.15,9.15,0,0,0,5.21,1.49,8.8,8.8,0,0,0,5.1-1.49,7,7,0,0,0,3-3.84,29.58,29.58,0,0,0,0-6.91v-13.2h3.73V453.5a21.29,21.29,0,0,1-.32,9.16,10,10,0,0,1-4.05,4.58,14.89,14.89,0,0,1-13.82,0,10.61,10.61,0,0,1-4.15-4.69,23.63,23.63,0,0,1-1.28-8.94Z"/><path class="cls-3" d="M360.74,429.13h3.62v10.64h5.54v3.09h-5.75V468h-3.62V442.86h-5v-3.09h5Z"/><path class="cls-3" d="M403.72,439.67v28.21h-3.61v-5.22a15.69,15.69,0,0,1-5.11,4.15,13.45,13.45,0,0,1-6.17,1.38,13.79,13.79,0,0,1-5.78-1,14,14,0,0,1-4.86-3.32,14.94,14.94,0,0,1-3.21-4.89,14.74,14.74,0,0,1-1-5.76,14.16,14.16,0,0,1,4.36-10.64,13.7,13.7,0,0,1,10.64-4.36,12.7,12.7,0,0,1,6.27,1.49,14.54,14.54,0,0,1,4.9,4.36v-5.11Zm-14.57,2.76a11.23,11.23,0,0,0-9.68,5.64,11.65,11.65,0,0,0,0,11.4,10.72,10.72,0,0,0,14.79,4.26,10.83,10.83,0,0,0,4.15-4.05,11.59,11.59,0,0,0,1.48-5.75,11.16,11.16,0,0,0-.81-4.43,11.32,11.32,0,0,0-2.49-3.77,10.64,10.64,0,0,0-3.39-2.39A10.86,10.86,0,0,0,389.15,442.43Z"/><path class="cls-3" d="M412.45,439.66h3.61v4.8a15.37,15.37,0,0,1,3.94-3.94,10.62,10.62,0,0,1,5.74-1.6,10,10,0,0,1,3.94.74,9,9,0,0,1,3,2.13,12.73,12.73,0,0,1,2,3.84,14,14,0,0,1,4.57-5,10.68,10.68,0,0,1,5.86-1.7,8.5,8.5,0,0,1,5.1,1.49,9,9,0,0,1,3.41,4,25,25,0,0,1,1.06,8v15.44H451V452a20.07,20.07,0,0,0-.64-6.17,5.2,5.2,0,0,0-2.24-2.77,6.15,6.15,0,0,0-3.72-1.06,7.57,7.57,0,0,0-4.78,1.6,8.5,8.5,0,0,0-3.3,4.15,27.24,27.24,0,0,0-1,8.62V467H431.7V452.55a24,24,0,0,0-.64-6.92,5.7,5.7,0,0,0-2.23-3,6.39,6.39,0,0,0-3.73-1.06,8.68,8.68,0,0,0-4.78,1.49,9.52,9.52,0,0,0-3.19,4.15,21.3,21.3,0,0,0-1.07,7.88V467h-3.61Z"/><path class="cls-3" d="M475.21,438.92a13.8,13.8,0,0,1,10.64,4.69,15.1,15.1,0,0,1,0,20.54,14.77,14.77,0,0,1-21.27,0,15.1,15.1,0,0,1,0-20.54,14,14,0,0,1,4.82-3.48A14.18,14.18,0,0,1,475.21,438.92Zm0,3.51a10.59,10.59,0,0,0-7.87,3.41,11.12,11.12,0,0,0-2.4,3.72,11.28,11.28,0,0,0-.79,4.37,10.66,10.66,0,0,0,1.49,5.75,10.52,10.52,0,0,0,3.93,4,11.16,11.16,0,0,0,10.64,0,10.55,10.55,0,0,0,3.94-4,10.66,10.66,0,0,0,1.49-5.75,11.28,11.28,0,0,0-.79-4.37,11.12,11.12,0,0,0-2.4-3.72A10.61,10.61,0,0,0,475.21,442.43Z"/><path class="cls-3" d="M510.85,442.75l-2.34,2.35a8.45,8.45,0,0,0-5.74-2.77,3.91,3.91,0,0,0-1.62.26,4.17,4.17,0,0,0-1.36.91,3.49,3.49,0,0,0-.93,1.19,3.42,3.42,0,0,0-.35,1.47,3.87,3.87,0,0,0,1.06,2.66,14.19,14.19,0,0,0,4.37,3,18.21,18.21,0,0,1,5.53,4,7.49,7.49,0,0,1,1.38,4.48,7.91,7.91,0,0,1-.62,3.18,7.81,7.81,0,0,1-1.83,2.67,8.16,8.16,0,0,1-2.78,1.85,8.34,8.34,0,0,1-3.28.6,10.74,10.74,0,0,1-8.4-4l2.34-2.56a7.82,7.82,0,0,0,5.85,3.19,4.94,4.94,0,0,0,2-.36,5.15,5.15,0,0,0,1.71-1.13,4.08,4.08,0,0,0,1.18-1.46,4.17,4.17,0,0,0,.42-1.84,4.67,4.67,0,0,0-1.07-2.76,16.45,16.45,0,0,0-4.57-3,14.84,14.84,0,0,1-5.21-3.94,7,7,0,0,1-1.39-4.37,7.06,7.06,0,0,1,.55-2.9,6.83,6.83,0,0,1,1.69-2.42,7.32,7.32,0,0,1,5.53-2.13A11.73,11.73,0,0,1,510.85,442.75Z"/><path class="cls-3" d="M532,439.67h3.62v5a16.53,16.53,0,0,1,4.79-4.37,12.11,12.11,0,0,1,5.84-1.38,10,10,0,0,1,9.26,6,23.44,23.44,0,0,1,1.17,8.52v14.48H553V454.46a42.77,42.77,0,0,0,0-6.6,7,7,0,0,0-2.45-4.15,7.43,7.43,0,0,0-4.68-1.49,9,9,0,0,0-6,2.24,9.72,9.72,0,0,0-3.4,5.43,39.21,39.21,0,0,0,0,7.66v10.64h-3.62Z"/><path class="cls-3" d="M563.93,439.67h3.73v13.19a30.43,30.43,0,0,0,0,6.61,8.45,8.45,0,0,0,3,4.15,9.79,9.79,0,0,0,5.32,1.49,8.87,8.87,0,0,0,5.11-1.49,7,7,0,0,0,3-3.84,29.66,29.66,0,0,0,0-6.92V439.67h3.73V453.5a23.34,23.34,0,0,1-1.39,8.84,10.62,10.62,0,0,1-4.15,4.58,12.22,12.22,0,0,1-6.81,1.7,12.6,12.6,0,0,1-6.91-1.7,10.69,10.69,0,0,1-4.15-4.68,23.34,23.34,0,0,1-1.38-8.95Z"/><path class="cls-3" d="M620.53,458.51l3.09,1.6a14.08,14.08,0,0,1-3.52,4.78,12.47,12.47,0,0,1-4.35,2.77,15.53,15.53,0,0,1-5.64,1,13.61,13.61,0,0,1-5.84-1.09,13.39,13.39,0,0,1-4.8-3.49,15.18,15.18,0,0,1-3.83-10.64,14.76,14.76,0,0,1,3.3-9.58,13.42,13.42,0,0,1,4.7-3.9,13.57,13.57,0,0,1,5.94-1.43,14.17,14.17,0,0,1,11.59,5.43,15.5,15.5,0,0,1,3.08,9.69H598.83A11.37,11.37,0,0,0,602,461.7a9.72,9.72,0,0,0,7.45,3.19,14,14,0,0,0,4.25-.74,12.24,12.24,0,0,0,3.41-2A17.43,17.43,0,0,0,620.53,458.51Zm0-7.56a10.76,10.76,0,0,0-2.12-4.69,10.12,10.12,0,0,0-3.62-2.87,12.37,12.37,0,0,0-4.79-1.06,10.57,10.57,0,0,0-7.23,2.77,12.23,12.23,0,0,0-3.3,5.85Z"/><path class="cls-3" d="M645.53,442.75l-2.34,2.35a8.5,8.5,0,0,0-5.64-2.77,4.09,4.09,0,0,0-3.08,1.17,3.49,3.49,0,0,0-.93,1.19,3.57,3.57,0,0,0-.35,1.47,4.56,4.56,0,0,0,1.06,2.66,15.68,15.68,0,0,0,4.37,3,16,16,0,0,1,5.53,4,7.91,7.91,0,0,1-1.07,10.33,8.22,8.22,0,0,1-2.77,1.85,8.42,8.42,0,0,1-3.29.6,10.55,10.55,0,0,1-4.68-1.07,9.85,9.85,0,0,1-3.62-3L631,462a7.85,7.85,0,0,0,5.95,3.19,5.49,5.49,0,0,0,3.73-1.49,4.44,4.44,0,0,0,1.1-1.48,4.38,4.38,0,0,0,.39-1.82,4.1,4.1,0,0,0-1.07-2.76,14.85,14.85,0,0,0-4.57-3,14.84,14.84,0,0,1-5.21-3.94,7.54,7.54,0,0,1-1.39-4.37,7.06,7.06,0,0,1,.55-2.9,6.83,6.83,0,0,1,1.69-2.42,7.32,7.32,0,0,1,5.53-2.13A11.46,11.46,0,0,1,645.53,442.75Z"/><path class="cls-3" d="M655.21,429.13h3.62v10.64h5.74v3.09h-5.74V468h-3.62V442.86h-5v-3.09h5Z"/><path class="cls-3" d="M668.62,439.66h3.72v4a16.29,16.29,0,0,1,3.51-3.62,7.65,7.65,0,0,1,3.83-1.17,6.76,6.76,0,0,1,3.3,1L681.06,443a4.46,4.46,0,0,0-5.42.95,8.61,8.61,0,0,0-2.55,4.69,37.47,37.47,0,0,0-.75,9.68v9.59h-3.72Z"/><path class="cls-3" d="M714.15,439.67v28.21h-3.83v-5.22a17.19,17.19,0,0,1-5.21,4.15,13.11,13.11,0,0,1-6.17,1.38,13.57,13.57,0,0,1-10.64-4.36A14.25,14.25,0,0,1,684,453.18a14.06,14.06,0,0,1,1-5.77,13.87,13.87,0,0,1,3.26-4.87,13.7,13.7,0,0,1,10.64-4.36,12.26,12.26,0,0,1,6.27,1.49,14.67,14.67,0,0,1,5,4.36v-5.11Zm-14.47,2.76a10.67,10.67,0,0,0-5.64,1.49,10.81,10.81,0,0,0-4,4.15,10.67,10.67,0,0,0,0,11.4,9.76,9.76,0,0,0,4,4.25,11.2,11.2,0,0,0,15.32-4,11.6,11.6,0,0,0,1.49-5.75,11.11,11.11,0,0,0-11.17-11.5Z"/><path class="cls-3" d="M736.49,428.7h3.72v39.18h-3.72Z"/><path class="cls-3" d="M775.85,439.67v28.21h-3.51v-5.22a17.19,17.19,0,0,1-5.21,4.15,13.06,13.06,0,0,1-6.17,1.38,13.61,13.61,0,0,1-10.64-4.36,14.35,14.35,0,0,1-4.26-10.65,14.11,14.11,0,0,1,4.26-10.64,13.68,13.68,0,0,1,4.84-3.35,13.52,13.52,0,0,1,5.8-1,12.32,12.32,0,0,1,6.28,1.49,14.73,14.73,0,0,1,5,4.36v-5.11Zm-14.47,2.76a10.61,10.61,0,0,0-5.63,1.49,11.13,11.13,0,0,0-4,15.55,9.72,9.72,0,0,0,4,4.25,11.2,11.2,0,0,0,15.31-4,11.6,11.6,0,0,0,1.49-5.75,10.69,10.69,0,0,0-3.29-8.2,10.77,10.77,0,0,0-3.6-2.47A10.64,10.64,0,0,0,761.38,442.43Z"/><path class="cls-3" d="M784.79,467.88V428.7h3.72v15.76a15.72,15.72,0,0,1,5.11-4.16,13.18,13.18,0,0,1,6.17-1.38,13.36,13.36,0,0,1,10.63,4.36,15,15,0,0,1,0,21.3,14,14,0,0,1-10.63,4.36,13,13,0,0,1-11.17-6v5.21Zm14.57-2.77a11.59,11.59,0,0,0,5.64-1.49,10.67,10.67,0,0,0,4-4.15,11.84,11.84,0,0,0,0-11.5,11.39,11.39,0,0,0-4.15-4.26,10.65,10.65,0,0,0-5.42-1.49,12.16,12.16,0,0,0-5.75,1.49,11.28,11.28,0,0,0-4,4.05,12.17,12.17,0,0,0-1.49,5.85,11.38,11.38,0,0,0,3.19,8.2,10.67,10.67,0,0,0,7.45,3.3Z"/><path class="cls-3" d="M833.72,438.92a14.25,14.25,0,0,1,10.64,4.69,15.33,15.33,0,0,1,0,20.54A14.91,14.91,0,0,1,828,467.46a15.13,15.13,0,0,1-4.87-3.31,14.53,14.53,0,0,1-3.16-4.9,14.29,14.29,0,0,1-1-5.75,15,15,0,0,1,3.93-10.64,14.23,14.23,0,0,1,10.85-3.94Zm0,3.51a10.67,10.67,0,0,0-7.76,3.41,10.74,10.74,0,0,0-2.52,3.69,10.5,10.5,0,0,0-.78,4.4,12,12,0,0,0,1.49,5.75,10.7,10.7,0,0,0,14.68,4,11.25,11.25,0,0,0,4-4,12,12,0,0,0,1.49-5.75,10.5,10.5,0,0,0-.78-4.4,10.85,10.85,0,0,0-2.51-3.69A10.65,10.65,0,0,0,833.72,442.43Z"/><path class="cls-3" d="M853.83,439.66h3.72v4a12.74,12.74,0,0,1,3.51-3.62,7.07,7.07,0,0,1,3.83-1.17,6.82,6.82,0,0,1,3.2,1L866.17,443a5.35,5.35,0,0,0-1.92-.54,5.6,5.6,0,0,0-3.5,1.49,10.59,10.59,0,0,0-2.56,4.69,46.14,46.14,0,0,0-.64,9.68v9.59h-3.72Z"/><path class="cls-3" d="M236,511.84v28.32h-3.62v-4.9a14.72,14.72,0,0,1-5.11,4.26,15.07,15.07,0,0,1-6.17,1.39,14.12,14.12,0,0,1-5.78-1,13.86,13.86,0,0,1-4.85-3.32,14.86,14.86,0,0,1-4.15-10.65,14.25,14.25,0,0,1,4.25-10.64,14,14,0,0,1,4.86-3.27,16,16,0,0,1,12.06.39,15.08,15.08,0,0,1,4.89,4.48v-5.22Zm-14.58,2.77a10.65,10.65,0,0,0-5.53,1.49,11.61,11.61,0,0,0-5.53,10.43,11.28,11.28,0,0,0,21,5.86,11.71,11.71,0,0,0,1.49-5.75,11.33,11.33,0,0,0-.8-4.49,11.16,11.16,0,0,0-2.5-3.81,10.68,10.68,0,0,0-8.51-3.73Z"/><path class="cls-3" d="M271.6,517.8l-2.88,1.71a12.19,12.19,0,0,0-10.63-4.9,12,12,0,0,0-4.64.78,11.87,11.87,0,0,0-4,2.52,11.52,11.52,0,0,0,2.45,18.1,12.27,12.27,0,0,0,6.17,1.49,12.51,12.51,0,0,0,5.93-1.12,12.36,12.36,0,0,0,4.7-3.78l2.88,1.92a14.52,14.52,0,0,1-5.43,4.68,17,17,0,0,1-7.77,1.71,15.9,15.9,0,0,1-10.63-4.26A13.74,13.74,0,0,1,243.41,526a14.55,14.55,0,0,1,2-7.56,14.8,14.8,0,0,1,5.63-5.53,17.13,17.13,0,0,1,8.09-1.92,15.38,15.38,0,0,1,5.42.85,13.33,13.33,0,0,1,4.47,2.24A10.64,10.64,0,0,1,271.6,517.8Z"/><path class="cls-3" d="M291.91,511.2a13.89,13.89,0,0,1,10.64,4.69,15,15,0,0,1,3.94,10.64,14.75,14.75,0,0,1-4.15,10.65,15,15,0,0,1-4.87,3.31,14.93,14.93,0,0,1-11.54,0,14.43,14.43,0,0,1-8.91-14,14.92,14.92,0,0,1,3.83-10.64,13.92,13.92,0,0,1,11.06-4.69Zm0,3.52a10.56,10.56,0,0,0-7.76,3.3,10.65,10.65,0,0,0-3.3,8.19,11.52,11.52,0,0,0,1.49,5.65,10.74,10.74,0,0,0,4,4.15A11.86,11.86,0,0,0,297,536a10.6,10.6,0,0,0,4-4.15,11.41,11.41,0,0,0,1.49-5.65,11.28,11.28,0,0,0-10.64-11.49Z"/><path class="cls-3" d="M312,511.84h3.72v4.05a11.48,11.48,0,0,1,3.52-3.62,6.24,6.24,0,0,1,3.83-1.17,6.75,6.75,0,0,1,3.18,1l-1.91,3a7.19,7.19,0,0,0-5.42,1.49,10.79,10.79,0,0,0-2.56,4.58,48,48,0,0,0-.64,9.8v9.58H312Z"/><path class="cls-3" d="M357.56,501v39.18H354v-4.9a16.15,16.15,0,0,1-5.21,4.26,14.64,14.64,0,0,1-6.17,1.39A13.66,13.66,0,0,1,332,536.54a14.54,14.54,0,0,1-3.23-4.88A15.08,15.08,0,0,1,332,515.25,14,14,0,0,1,342.66,511a13.28,13.28,0,0,1,6.28,1.38,16.58,16.58,0,0,1,5,4.48V501Zm-14.48,13.63a10.24,10.24,0,0,0-8.44,4.24,11.37,11.37,0,0,0-.7,12.69,11.13,11.13,0,0,0,19.36.21,12.14,12.14,0,0,0-1.7-14,11.28,11.28,0,0,0-8.52-3.09Z"/><path class="cls-3" d="M389.57,530.79l3.09,1.6a14.09,14.09,0,0,1-3.51,4.79,14.33,14.33,0,0,1-4.36,2.76,15.54,15.54,0,0,1-5.64,1,13.19,13.19,0,0,1-10.64-4.58,15.47,15.47,0,0,1-.64-19.81,13.26,13.26,0,0,1,10.64-5.32,14.09,14.09,0,0,1,11.6,5.43,15.32,15.32,0,0,1,3.08,9.69h-25a11.85,11.85,0,0,0,3.19,8.09,10.66,10.66,0,0,0,7.45,3.09,11.65,11.65,0,0,0,4.25-.75,10.62,10.62,0,0,0,3.41-1.91A17.35,17.35,0,0,0,389.57,530.79Zm0-7.66a9.88,9.88,0,0,0-5.74-7.46,12.33,12.33,0,0,0-4.79-1.06,10.6,10.6,0,0,0-7.12,2.66,12.54,12.54,0,0,0-3.41,5.86Z"/><path class="cls-3" d="M443.3,511.84v28.32h-3.62v-4.9a14.72,14.72,0,0,1-5.11,4.26,15.05,15.05,0,0,1-6.27,1.39,14.2,14.2,0,0,1-5.79-1,14,14,0,0,1-4.85-3.32,15,15,0,0,1-4.26-10.65,14.33,14.33,0,0,1,1.07-5.78,14.17,14.17,0,0,1,3.3-4.86A13.74,13.74,0,0,1,428.4,511a14.1,14.1,0,0,1,6.39,1.38,16.1,16.1,0,0,1,4.89,4.48v-5.22Zm-14.57,2.77a10.68,10.68,0,0,0-5.65,1.28,11.29,11.29,0,0,0-4.14,4.26,11.56,11.56,0,0,0,0,11.39,11.33,11.33,0,0,0,4.14,4.25,11.34,11.34,0,0,0,15.32-4,12.44,12.44,0,0,0-1.81-14,10.46,10.46,0,0,0-3.61-2.36A10.64,10.64,0,0,0,428.73,514.61Z"/><path class="cls-3" d="M465.64,501h3.62v39.18h-3.62Z"/><path class="cls-3" d="M505,511.84v28.32h-3.62v-4.9a14.69,14.69,0,0,1-5.1,4.26,15.14,15.14,0,0,1-6.17,1.39,14.17,14.17,0,0,1-5.79-1,14,14,0,0,1-4.85-3.32,15,15,0,0,1-4.26-10.65,14.21,14.21,0,0,1,4.37-10.64,14.79,14.79,0,0,1,16.59-2.88,16.26,16.26,0,0,1,4.9,4.48v-5.22Zm-14.57,2.77a10.63,10.63,0,0,0-5.53,1.49,11.54,11.54,0,0,0-4.15,4.26,11.66,11.66,0,0,0-1.5,5.75,12,12,0,0,0,1.5,5.64A11.39,11.39,0,0,0,484.9,536a11.34,11.34,0,0,0,15.31-4,12.46,12.46,0,0,0-1.8-14.05,10.5,10.5,0,0,0-3.65-2.49A10.39,10.39,0,0,0,490.43,514.61Z"/><path class="cls-3" d="M527.34,514.93,525,517.38a8,8,0,0,0-5.64-2.77,4.55,4.55,0,0,0-3.08,1.06,3.71,3.71,0,0,0-.94,1.25,3.82,3.82,0,0,0-.34,1.52,4.47,4.47,0,0,0,1.06,2.66,15.42,15.42,0,0,0,4.36,3,15.76,15.76,0,0,1,5.54,4,7.29,7.29,0,0,1,1.49,4.47,8.08,8.08,0,0,1-.62,3.18,7.81,7.81,0,0,1-1.83,2.67,8.71,8.71,0,0,1-6.17,2.46,12,12,0,0,1-4.68-1.07,9.88,9.88,0,0,1-3.62-3l2.24-2.56a8.19,8.19,0,0,0,6,3.09,5.41,5.41,0,0,0,3.73-1.38,4.6,4.6,0,0,0,1.08-1.5,4.41,4.41,0,0,0-.55-4.57,18.64,18.64,0,0,0-4.15-3.41,14.84,14.84,0,0,1-5.21-3.94,7.11,7.11,0,0,1-1.39-4.36,7.3,7.3,0,0,1,7.66-7.45,10.64,10.64,0,0,1,4.16,1.29A10.75,10.75,0,0,1,527.34,514.93Z"/><path class="cls-3" d="M548.51,511.84h3.72V517a14.2,14.2,0,0,1,4.79-4.36,12,12,0,0,1,5.75-1.39,10,10,0,0,1,5.63,1.6,9.33,9.33,0,0,1,3.62,4.26,24.37,24.37,0,0,1,1.17,8.52v14.58h-3.61V526.53a29.34,29.34,0,0,0,0-6.49,7.4,7.4,0,0,0-2.45-4.26,7.2,7.2,0,0,0-4.68-1.38,8.7,8.7,0,0,0-5.85,2.23,10.08,10.08,0,0,0-3.52,5.32,44,44,0,0,0,0,7.78v10.64h-3.72Z"/><path class="cls-3" d="M604.79,530.79l3.08,1.6a17.56,17.56,0,0,1-3.51,4.79,13.5,13.5,0,0,1-4.47,2.76,14.93,14.93,0,0,1-5.53,1,13.36,13.36,0,0,1-10.63-4.58,15.43,15.43,0,0,1-.64-19.81,13.65,13.65,0,0,1,11.27-5.32,13.94,13.94,0,0,1,11.49,5.43,15.91,15.91,0,0,1,3.19,9.69H583.51a11.85,11.85,0,0,0,3.19,8.09,10.62,10.62,0,0,0,7.55,3.09,11.3,11.3,0,0,0,4.15-.75,10.52,10.52,0,0,0,3.51-1.91A21,21,0,0,0,604.79,530.79Zm0-7.66a11.46,11.46,0,0,0-2.13-4.58,10.7,10.7,0,0,0-3.72-2.88,12.37,12.37,0,0,0-4.79-1.06,10.64,10.64,0,0,0-7.13,2.66,12.45,12.45,0,0,0-3.29,5.86Z"/><path class="cls-3" d="M643,517.8l-2.87,1.71a11.91,11.91,0,0,0-10.64-4.9,11.67,11.67,0,0,0-4.6.78,11.42,11.42,0,0,0-3.91,2.52A11.12,11.12,0,0,0,619,531.75,10.77,10.77,0,0,0,623.4,536a11.81,11.81,0,0,0,6.07,1.49,12.45,12.45,0,0,0,10.64-4.9l2.87,1.92a14.44,14.44,0,0,1-5.43,4.68,17.08,17.08,0,0,1-7.76,1.71,15.86,15.86,0,0,1-11.17-4.26A14.16,14.16,0,0,1,614.26,526a14.55,14.55,0,0,1,2-7.56,14.28,14.28,0,0,1,5.74-5.53,16.33,16.33,0,0,1,8-1.92,15.47,15.47,0,0,1,5.43.85,12.63,12.63,0,0,1,4.47,2.24A10.66,10.66,0,0,1,643,517.8Z"/><path class="cls-3" d="M673.72,530.79l3.09,1.6a14.09,14.09,0,0,1-3.51,4.79,14.38,14.38,0,0,1-4.37,2.76,15.45,15.45,0,0,1-5.63,1,13.57,13.57,0,0,1-10.64-4.58,15.22,15.22,0,0,1-3.83-10.65,14.84,14.84,0,0,1,3.3-9.58,13.15,13.15,0,0,1,10.63-5.32,14.09,14.09,0,0,1,11.6,5.43,15.34,15.34,0,0,1,3.09,9.68H652a11.37,11.37,0,0,0,3.19,8.1,10.67,10.67,0,0,0,7.45,3.08,12.14,12.14,0,0,0,7.66-2.66A16.94,16.94,0,0,0,673.72,530.79Zm0-7.66a10.54,10.54,0,0,0-2.13-4.58,9.82,9.82,0,0,0-3.82-2.66,12.6,12.6,0,0,0-4.79-1.07,10.66,10.66,0,0,0-7.23,2.66,13.42,13.42,0,0,0-3.3,5.86Z"/><path class="cls-3" d="M698.72,514.93l-2.34,2.45a8,8,0,0,0-2.54-2,8.09,8.09,0,0,0-3.09-.81,4.56,4.56,0,0,0-3.09,1.06,3.69,3.69,0,0,0-.93,1.25,3.84,3.84,0,0,0-.35,1.52,4.42,4.42,0,0,0,1.07,2.66,15.28,15.28,0,0,0,4.36,3,15.82,15.82,0,0,1,5.53,4,7.23,7.23,0,0,1,1.38,4.47,7.6,7.6,0,0,1-2.44,5.86,8.42,8.42,0,0,1-6.07,2.45,12.07,12.07,0,0,1-4.68-1.07,9.84,9.84,0,0,1-3.61-3l2.23-2.56a8,8,0,0,0,6,3.09,5.37,5.37,0,0,0,3.72-1.38,4.65,4.65,0,0,0,1.49-3.3,3.94,3.94,0,0,0-1.06-2.77,15,15,0,0,0-4.58-3,16,16,0,0,1-5.21-3.94,8,8,0,0,1-1.39-4.37,7.23,7.23,0,0,1,.55-2.9,7.06,7.06,0,0,1,1.69-2.42,7.38,7.38,0,0,1,2.54-1.65,7.25,7.25,0,0,1,3-.47,11.09,11.09,0,0,1,4.31,1.07A11.2,11.2,0,0,1,698.72,514.93Z"/><path class="cls-3" d="M706.49,500.24a3.41,3.41,0,0,1,2.13.85,3.18,3.18,0,0,1,.85,2.13,3.25,3.25,0,0,1-.21,1.15,3.19,3.19,0,0,1-.64,1,2.85,2.85,0,0,1-2.13.85,2.71,2.71,0,0,1-1.16-.2,2.85,2.85,0,0,1-1.62-1.62,3.55,3.55,0,0,1,0-2.32,2.83,2.83,0,0,1,.66-1,3.13,3.13,0,0,1,1-.64A2.83,2.83,0,0,1,706.49,500.24Zm-1.81,11.6h3.62v28.32h-3.62Z"/><path class="cls-3" d="M744,501v39.18h-3.61v-4.9a14.81,14.81,0,0,1-5.11,4.26,15.14,15.14,0,0,1-6.17,1.39,14.2,14.2,0,0,1-5.79-1,14,14,0,0,1-4.85-3.32,15,15,0,0,1-4.26-10.65,14.31,14.31,0,0,1,4.37-10.64,14.75,14.75,0,0,1,16.59-2.88,16.14,16.14,0,0,1,4.9,4.48V501Zm-14.57,13.63a10.63,10.63,0,0,0-5.53,1.49,11.59,11.59,0,0,0-5.64,10,12,12,0,0,0,1.49,5.64,11.39,11.39,0,0,0,4.15,4.26,10.63,10.63,0,0,0,5.53,1.49,10.76,10.76,0,0,0,5.64-1.49,10.6,10.6,0,0,0,4.14-4,12.46,12.46,0,0,0-1.8-14.05,10.7,10.7,0,0,0-8-3.3Z"/><path class="cls-3" d="M780.42,511.84v28.32h-3.61v-4.9a14.72,14.72,0,0,1-5.11,4.26,15.1,15.1,0,0,1-6.17,1.39,14.2,14.2,0,0,1-5.79-1,14,14,0,0,1-4.85-3.32,15,15,0,0,1-4.25-10.65,14.33,14.33,0,0,1,1.06-5.78,14.17,14.17,0,0,1,3.3-4.86,14.8,14.8,0,0,1,16.59-2.88,16.14,16.14,0,0,1,4.9,4.48v-5.22Zm-14.57,2.77a10.65,10.65,0,0,0-5.53,1.49,11.54,11.54,0,0,0-4.15,4.26,11.65,11.65,0,0,0-1.49,5.75,12.11,12.11,0,0,0,1.49,5.64,11.39,11.39,0,0,0,4.15,4.26,11.34,11.34,0,0,0,15.32-4,12,12,0,0,0-1.81-14.05,10.55,10.55,0,0,0-3.64-2.49A10.41,10.41,0,0,0,765.85,514.61Z"/><path class="cls-3" d="M816.7,501v39.18h-3.62v-4.9a14.69,14.69,0,0,1-5.1,4.26,15.14,15.14,0,0,1-6.17,1.39,14.08,14.08,0,0,1-10.64-4.37,15,15,0,0,1-4.25-10.65,14.16,14.16,0,0,1,4.36-10.64,14.75,14.75,0,0,1,16.59-2.88,15.12,15.12,0,0,1,4.9,4.48V501Zm-14.57,13.63a10.63,10.63,0,0,0-5.53,1.49,11.59,11.59,0,0,0-5.64,10,11.28,11.28,0,0,0,21,5.85,12,12,0,0,0-1.81-14.05,10.68,10.68,0,0,0-7.88-3.3Z"/><path class="cls-3" d="M848.62,530.79l3.08,1.6a15.49,15.49,0,0,1-3.51,4.79,13.66,13.66,0,0,1-4.46,2.76,15,15,0,0,1-5.54,1,13.39,13.39,0,0,1-10.64-4.58,15.31,15.31,0,0,1-3.83-10.65,14.84,14.84,0,0,1,3.3-9.58,13.19,13.19,0,0,1,11.17-5.32,13.94,13.94,0,0,1,11.49,5.43,15.31,15.31,0,0,1,3.19,9.68H827.34a11.32,11.32,0,0,0,3.09,8.1,10.67,10.67,0,0,0,7.55,3.08,12.82,12.82,0,0,0,7.66-2.66A17.32,17.32,0,0,0,848.62,530.79Zm0-7.66a10.53,10.53,0,0,0-5.75-7.46,13.09,13.09,0,0,0-4.89-1.06,10.64,10.64,0,0,0-7.13,2.66,12.56,12.56,0,0,0-3.3,5.86Z"/><path class="cls-3" d="M873.83,514.93l-2.34,2.45a8.1,8.1,0,0,0-2.59-2,8.23,8.23,0,0,0-3.16-.79,4.24,4.24,0,0,0-3,1.06,3.71,3.71,0,0,0-.94,1.25,3.76,3.76,0,0,0,.72,4.18,13.91,13.91,0,0,0,4.37,3,16.87,16.87,0,0,1,5.53,4,7.29,7.29,0,0,1,1.38,4.47,7.61,7.61,0,0,1-.58,3.2,7.52,7.52,0,0,1-1.87,2.66,8.38,8.38,0,0,1-6.06,2.45,11.64,11.64,0,0,1-4.68-1.07,10.71,10.71,0,0,1-3.73-3l2.35-2.56a7.69,7.69,0,0,0,2.59,2.18,7.88,7.88,0,0,0,3.26.91,5.24,5.24,0,0,0,2-.31,5.13,5.13,0,0,0,1.72-1.07,4.28,4.28,0,0,0,1.17-1.47,4.46,4.46,0,0,0,.43-1.83,4,4,0,0,0-1.07-2.77,16.45,16.45,0,0,0-4.57-3,16.12,16.12,0,0,1-5.22-3.94,7.94,7.94,0,0,1-1.38-4.37,7.08,7.08,0,0,1,2.23-5.32,7.52,7.52,0,0,1,2.55-1.65,7.25,7.25,0,0,1,3-.47,11.13,11.13,0,0,1,4.31,1.07A11.31,11.31,0,0,1,873.83,514.93Z"/><path class="cls-3" d="M253.72,573.27v39.17h-3.61v-4.89a14.64,14.64,0,0,1-11.28,5.64,14.08,14.08,0,0,1-10.64-4.37,15.08,15.08,0,0,1-4.25-10.64,14.57,14.57,0,0,1,20.95-13.52,14.88,14.88,0,0,1,4.9,4.47V573.05Zm-14.57,13.62a10.54,10.54,0,0,0-5.53,1.5,12.24,12.24,0,0,0-4.15,4.25,11.6,11.6,0,0,0,4.15,15.65,11.16,11.16,0,0,0,10.64,0,10.65,10.65,0,0,0,4.14-4,12,12,0,0,0,1.39-5.86,11.57,11.57,0,0,0-3.19-8.2,10.67,10.67,0,0,0-7.45-3.3Z"/><path class="cls-3" d="M285.75,603.08l3.08,1.59a21,21,0,0,1-3.51,4.79,13.47,13.47,0,0,1-4.47,2.77,15.12,15.12,0,0,1-5.53,1,13.6,13.6,0,0,1-10.64-4.58A15.55,15.55,0,0,1,260.75,598a15.31,15.31,0,0,1,3.29-9.58A13.54,13.54,0,0,1,275.32,583a14,14,0,0,1,11.49,5.53,15.75,15.75,0,0,1,3.19,9.69H264.36a11.32,11.32,0,0,0,3.09,8.09,10.62,10.62,0,0,0,7.55,3.09,12.1,12.1,0,0,0,7.66-2.77A14.58,14.58,0,0,0,285.75,603.08Zm0-7.67a12.84,12.84,0,0,0-2.13-4.68,11.29,11.29,0,0,0-3.73-2.77A11,11,0,0,0,268,589.55a12,12,0,0,0-3.3,5.86Z"/><path class="cls-3" d="M311.28,584.13h3.61v5.11a16.65,16.65,0,0,1,4.79-4.37,12.23,12.23,0,0,1,5.85-1.49,9.86,9.86,0,0,1,5.53,1.6,9.63,9.63,0,0,1,3.62,4.36,21.1,21.1,0,0,1,1.17,8.52v14.58h-3.62V598.92a28.17,28.17,0,0,0,0-6.49,7.19,7.19,0,0,0-2.34-4.26,7.45,7.45,0,0,0-4.68-1.38,9.41,9.41,0,0,0-5.95,2.12,10.66,10.66,0,0,0-3.41,5.43,39.31,39.31,0,0,0,0,7.67v10.65h-3.62Z"/><path class="cls-3" d="M343.19,584.13h3.62v13.2a31.26,31.26,0,0,0,0,6.7,7.67,7.67,0,0,0,3,4.05,9,9,0,0,0,5.32,1.49,8.7,8.7,0,0,0,5.1-1.39,8.25,8.25,0,0,0,3-3.93,29.66,29.66,0,0,0,0-6.92v-13.2h3.72v13.94a22.59,22.59,0,0,1-1.38,8.73,10.64,10.64,0,0,1-4.15,4.68,13.1,13.1,0,0,1-6.81,1.71,13.75,13.75,0,0,1-6-1.49,10.67,10.67,0,0,1-4.14-4.68,24.09,24.09,0,0,1-1.39-9Z"/><path class="cls-3" d="M399.79,603.08l3.08,1.59a16.42,16.42,0,0,1-3.51,4.79,14.36,14.36,0,0,1-4.36,2.77,15.71,15.71,0,0,1-5.64,1,13.95,13.95,0,0,1-10.64-4.58A15.49,15.49,0,0,1,374.89,598a14.8,14.8,0,0,1,3.3-9.58A13.29,13.29,0,0,1,388.83,583a14.22,14.22,0,0,1,11.6,5.53,15.16,15.16,0,0,1,3.08,9.69H378.4a11.32,11.32,0,0,0,3.09,8.09,10.62,10.62,0,0,0,7.55,3.09,11.51,11.51,0,0,0,7.66-2.77A14.37,14.37,0,0,0,399.79,603.08Zm0-7.67a11.22,11.22,0,0,0-2.13-4.68A11.14,11.14,0,0,0,382,589.55a13,13,0,0,0-3.3,5.86Z"/><path class="cls-3" d="M424.79,587.21l-2.34,2.45a8.32,8.32,0,0,0-5.64-2.87,4.42,4.42,0,0,0-3.08,1.17,3.67,3.67,0,0,0-1.28,2.45,3.87,3.87,0,0,0,1.06,2.66,14,14,0,0,0,4.36,3,16.53,16.53,0,0,1,5.53,4.05,7.11,7.11,0,0,1,1.39,4.36,7.87,7.87,0,0,1-.58,3.25,7.71,7.71,0,0,1-1.87,2.71,8.26,8.26,0,0,1-2.78,1.85,8.39,8.39,0,0,1-3.29.6,12.24,12.24,0,0,1-4.68-1.06,11.36,11.36,0,0,1-3.72-3l2.34-2.55a8,8,0,0,0,5.85,3.09,5.13,5.13,0,0,0,3.73-1.39A4.41,4.41,0,0,0,421,606.5a4.3,4.3,0,0,0,.42-1.83,3.94,3.94,0,0,0-1.06-2.77,13.34,13.34,0,0,0-4.57-3,15.91,15.91,0,0,1-5.22-3.94,7.88,7.88,0,0,1-1.38-4.36,7.26,7.26,0,0,1,.54-3,7.15,7.15,0,0,1,1.69-2.48,7.78,7.78,0,0,1,5.53-2.13,11.29,11.29,0,0,1,4.36,1.29A11.46,11.46,0,0,1,424.79,587.21Z"/><path class="cls-3" d="M434.36,573.69h3.73v10.65h6.27v3.19h-5.75v25.13h-3.72V587.53h-5.42v-3.19h4.89Z"/><path class="cls-3" d="M447.87,584.13h3.73v4.15a11.34,11.34,0,0,1,3.51-3.62,6.92,6.92,0,0,1,3.83-1.28,6.14,6.14,0,0,1,3.19,1l-1.81,3.08a6.12,6.12,0,0,0-1.91,0,4.93,4.93,0,0,0-3.52,1.49,9.19,9.19,0,0,0-2.66,4.58,47.32,47.32,0,0,0-.63,9.8v9.58h-3.73Z"/><path class="cls-3" d="M478.62,583.38a14,14,0,0,1,10.64,4.79,15,15,0,0,1,3.93,10.65,14.46,14.46,0,0,1-1,5.74,14.61,14.61,0,0,1-3.15,4.9,14.89,14.89,0,0,1-21.28,0,14.59,14.59,0,0,1-4-10.64,15,15,0,0,1,3.83-10.65,13.89,13.89,0,0,1,11.07-4.79Zm0,3.62a11.11,11.11,0,0,0-11.07,11.39,11.68,11.68,0,0,0,1.49,5.75,10.67,10.67,0,0,0,4,4.15,11.7,11.7,0,0,0,10.64,0,10.63,10.63,0,0,0,4-4.15,11.68,11.68,0,0,0,1.49-5.75,10.79,10.79,0,0,0-.36-4.23A10.14,10.14,0,0,0,478.62,587Z"/><path class="cls-3" d="M514.26,587.21l-2.34,2.45a8.32,8.32,0,0,0-5.64-2.87,4.68,4.68,0,0,0-3.09,1.17,3.82,3.82,0,0,0-.93,1.25,3.59,3.59,0,0,0-.34,1.52,4.43,4.43,0,0,0,1.06,2.66,15.7,15.7,0,0,0,4.36,3,15.82,15.82,0,0,1,5.53,4,7.28,7.28,0,0,1,1.49,4.37,8.14,8.14,0,0,1-.61,3.23,8.3,8.3,0,0,1-1.83,2.73,8.74,8.74,0,0,1-6.18,2.45,11.94,11.94,0,0,1-4.67-1.07,9.88,9.88,0,0,1-3.62-3l2.23-2.55a8.22,8.22,0,0,0,2.65,2.18,8.31,8.31,0,0,0,3.31.91,5.43,5.43,0,0,0,3.72-1.39,4.5,4.5,0,0,0,1.49-3.3,4.38,4.38,0,0,0-1-2.76,15.88,15.88,0,0,0-4.58-3,14.82,14.82,0,0,1-5.21-3.93,7.16,7.16,0,0,1-1.39-4.37,7.71,7.71,0,0,1,.52-2.93,7.61,7.61,0,0,1,1.61-2.5,8.12,8.12,0,0,1,5.64-2.13,11.33,11.33,0,0,1,7.77,3.83Z"/><path class="cls-3" d="M562.87,590.41,560,592.22a11.91,11.91,0,0,0-10.64-4.9,11.42,11.42,0,0,0-4.59.78,11.61,11.61,0,0,0-3.92,2.52,10.67,10.67,0,0,0-3.4,8.09,12,12,0,0,0,1.49,5.75,11.16,11.16,0,0,0,4.36,4.26,13,13,0,0,0,6.17,1.49,12.16,12.16,0,0,0,10.64-5l2.87,1.92a13.94,13.94,0,0,1-5.43,4.79,18,18,0,0,1-7.76,1.7,15.81,15.81,0,0,1-11.17-4.25,14.8,14.8,0,0,1-2.34-18,13.63,13.63,0,0,1,5.74-5.54,16.8,16.8,0,0,1,8.09-2,19.17,19.17,0,0,1,5.42.85,18.13,18.13,0,0,1,4.36,2.23A12.15,12.15,0,0,1,562.87,590.41Z"/><path class="cls-3" d="M569.36,573.27H573v39.17h-3.62Z"/><path class="cls-3" d="M581.81,572.52a2.88,2.88,0,0,1,1.79.7,2.83,2.83,0,0,1,.95,1.67,2.8,2.8,0,0,1-.32,1.9,2.87,2.87,0,0,1-5.37-1.67,2.89,2.89,0,0,1,.82-1.75A3.18,3.18,0,0,1,581.81,572.52ZM580,584.13h3.62v28.31H580Z"/><path class="cls-3" d="M614.57,603.08l3.09,1.59a21,21,0,0,1-3.51,4.79,16.15,16.15,0,0,1-4.47,2.77,15.46,15.46,0,0,1-5.64,1,13.57,13.57,0,0,1-5.83-1.09,13.39,13.39,0,0,1-4.8-3.49A15,15,0,0,1,589.47,598a14.74,14.74,0,0,1,3.3-9.58A13.5,13.5,0,0,1,604,583a14,14,0,0,1,11.49,5.53,15.11,15.11,0,0,1,3.09,9.69H593.3a11.85,11.85,0,0,0,3.19,8.09,10.62,10.62,0,0,0,7.55,3.09,12.1,12.1,0,0,0,7.66-2.77A16.64,16.64,0,0,0,614.57,603.08Zm0-7.67a12.65,12.65,0,0,0-2.12-4.68,11.29,11.29,0,0,0-3.73-2.77,10.54,10.54,0,0,0-4.78-1.07,10.67,10.67,0,0,0-7.13,2.66,11.9,11.9,0,0,0-3.3,5.86Z"/><path class="cls-3" d="M625.75,584.13h3.61v5.11a15.73,15.73,0,0,1,4.89-4.37,11.6,11.6,0,0,1,5.75-1.49,10.72,10.72,0,0,1,5.64,1.6,10.56,10.56,0,0,1,3.61,4.36,23.69,23.69,0,0,1,1.17,8.52v14.58h-3.93V598.92a37,37,0,0,0,0-6.49,7.4,7.4,0,0,0-2.45-4.26,7.2,7.2,0,0,0-4.68-1.38,9.46,9.46,0,0,0-6,2.12,10.71,10.71,0,0,0-3.4,5.43,39.31,39.31,0,0,0,0,7.67v10.65h-3.62Z"/><path class="cls-3" d="M661.38,573.69H665v10.65h5.74v3.19H665v25.13h-3.62V587.53h-5v-3.19h5Z"/><path class="cls-3" d="M699.68,603.08l3.08,1.59a21,21,0,0,1-3.51,4.79,13.42,13.42,0,0,1-4.46,2.77,15.18,15.18,0,0,1-5.54,1,13.69,13.69,0,0,1-10.63-4.58A15.56,15.56,0,0,1,674.68,598a14.86,14.86,0,0,1,3.41-9.58A13.25,13.25,0,0,1,688.72,583a14,14,0,0,1,11.49,5.53,15.07,15.07,0,0,1,3.19,9.69h-25a11.32,11.32,0,0,0,3.09,8.09,10.62,10.62,0,0,0,7.55,3.09,10.71,10.71,0,0,0,4.15-.75,11.39,11.39,0,0,0,3.51-2A14.5,14.5,0,0,0,699.68,603.08Zm0-7.67a12.67,12.67,0,0,0-2.13-4.68,11.81,11.81,0,0,0-3.62-2.77,11.28,11.28,0,0,0-4.89-1.07,10.65,10.65,0,0,0-7.12,2.66,11.9,11.9,0,0,0-3.3,5.86Z"/><path class="cls-3" d="M725,587.21l-2.34,2.45a8.6,8.6,0,0,0-2.58-2,8.3,8.3,0,0,0-3.17-.85,4.28,4.28,0,0,0-3,1.17,3.7,3.7,0,0,0-1.28,2.77,3.84,3.84,0,0,0,1.07,2.66,14,14,0,0,0,4.35,3,16.78,16.78,0,0,1,5.54,4,7.15,7.15,0,0,1,1.38,4.37,8.41,8.41,0,0,1-8.51,8.41,11.64,11.64,0,0,1-4.68-1.07,10.6,10.6,0,0,1-3.73-3l2.35-2.55a7.9,7.9,0,0,0,2.59,2.18,8.08,8.08,0,0,0,3.25.91,5.27,5.27,0,0,0,2-.32,5.13,5.13,0,0,0,1.72-1.07,4.19,4.19,0,0,0,1.17-1.47,4.13,4.13,0,0,0,.42-1.83,4.48,4.48,0,0,0-1.06-2.77,14.61,14.61,0,0,0-4.57-3,16.12,16.12,0,0,1-5.22-3.93,7.94,7.94,0,0,1-1.38-4.37,7.1,7.1,0,0,1,.55-3,7.27,7.27,0,0,1,1.68-2.48,7.82,7.82,0,0,1,5.54-2.13A11.69,11.69,0,0,1,725,587.21Z"/><path class="cls-3" d="M735,605.42l3.51,1.6-5.21,9.89-2.55-1.06Z"/><path class="cls-3" d="M788.3,590.41l-2.88,1.81a11.88,11.88,0,0,0-10.63-4.9,11.5,11.5,0,0,0-4.6.78,11.71,11.71,0,0,0-3.92,2.52,11.52,11.52,0,0,0-1.91,13.84,11.16,11.16,0,0,0,4.36,4.26,12.83,12.83,0,0,0,6.07,1.49,12.45,12.45,0,0,0,6-1.15,12.27,12.27,0,0,0,4.68-3.86l2.88,1.92a14.82,14.82,0,0,1-5.43,4.79,18,18,0,0,1-7.77,1.7,15.8,15.8,0,0,1-11.16-4.25,14.82,14.82,0,0,1-2.35-18,13.71,13.71,0,0,1,5.75-5.54,16.77,16.77,0,0,1,8.09-2,17.88,17.88,0,0,1,5.32.85,17.41,17.41,0,0,1,4.46,2.23A14.23,14.23,0,0,1,788.3,590.41Z"/><path class="cls-3" d="M808.72,583.38a13.94,13.94,0,0,1,10.64,4.79,14.37,14.37,0,0,1,3,4.92,14.53,14.53,0,0,1,.89,5.73,14.82,14.82,0,0,1-1,5.74,14.81,14.81,0,0,1-27.58,0,14.82,14.82,0,0,1-1-5.74,14.53,14.53,0,0,1,.89-5.73,14.37,14.37,0,0,1,3-4.92,13.69,13.69,0,0,1,11.06-4.79Zm0,3.62a10.54,10.54,0,0,0-4.22.85A10.72,10.72,0,0,0,801,590.3a12.15,12.15,0,0,0-1.81,13.84,10.53,10.53,0,0,0,9.57,5.54,11.44,11.44,0,0,0,5.64-1.39,11.59,11.59,0,0,0,4-4.25,11.73,11.73,0,0,0,1.45-5.65,11.44,11.44,0,0,0-3.19-8.09,10.7,10.7,0,0,0-8-3.3Z"/><path class="cls-3" d="M830.11,584.13h3.61v5.11a15.54,15.54,0,0,1,4.9-4.37,11.54,11.54,0,0,1,5.74-1.49,9.7,9.7,0,0,1,9.26,6,24.14,24.14,0,0,1,1.17,8.52v14.58h-3.62V598.92a37,37,0,0,0,0-6.49,7.34,7.34,0,0,0-2.45-4.26,7.18,7.18,0,0,0-4.68-1.38,9,9,0,0,0-5.85,2.12,10.72,10.72,0,0,0-3.51,5.43,38.66,38.66,0,0,0-.53,7.67v10.65h-3.62Z"/><path class="cls-3" d="M281.7,675.57l3.09,1.71a18.77,18.77,0,0,1-3.51,4.79,13.91,13.91,0,0,1-4.47,2.77,18.24,18.24,0,0,1-5.53.85,13.86,13.86,0,0,1-10.64-4.48,15.6,15.6,0,0,1-3.83-10.64,15.21,15.21,0,0,1,3.3-9.69,13.5,13.5,0,0,1,4.7-3.89,13.3,13.3,0,0,1,5.94-1.43,13.71,13.71,0,0,1,11.48,5.53,15,15,0,0,1,3.2,9.58H260.32a10.65,10.65,0,0,0,3.08,8.1,10.18,10.18,0,0,0,3.44,2.4A10,10,0,0,0,271,682a10.53,10.53,0,0,0,4.15-.75,11.19,11.19,0,0,0,3.51-2A15.25,15.25,0,0,0,281.7,675.57Zm0-7.56a11.19,11.19,0,0,0-2.12-4.68,10.78,10.78,0,0,0-3.62-2.77,11.18,11.18,0,0,0-4.9-1.06,10.6,10.6,0,0,0-7.12,2.66,11.87,11.87,0,0,0-3.3,5.85Z"/><path class="cls-3" d="M304.15,645.44v3.63a9.85,9.85,0,0,0-3.4-.86,3.1,3.1,0,0,0-1.81,0,2.38,2.38,0,0,0-.85,1,13.5,13.5,0,0,0,0,3V656h5.85v3.19h-5.85V684.3h-3.62V659.6h-3.72v-3.19h3.72v-4.47a10.54,10.54,0,0,1,0-4.26,4.06,4.06,0,0,1,1.91-2.13,6,6,0,0,1,3.2-.74A17.67,17.67,0,0,1,304.15,645.44Z"/><path class="cls-3" d="M333,675.57l3.08,1.71a18.74,18.74,0,0,1-3.5,4.79,13.84,13.84,0,0,1-4.48,2.77,18.14,18.14,0,0,1-5.53.85,13.64,13.64,0,0,1-10.63-4.48,15.6,15.6,0,0,1-3.83-10.64,15.2,15.2,0,0,1,3.29-9.69,13.45,13.45,0,0,1,4.71-3.89,13.29,13.29,0,0,1,5.93-1.43,13.71,13.71,0,0,1,11.49,5.53,15,15,0,0,1,3.19,9.58H311.6a10.57,10.57,0,0,0,.68,4.38,10.72,10.72,0,0,0,2.4,3.72,10.07,10.07,0,0,0,7.55,3.19,10.61,10.61,0,0,0,4.16-.75,11.42,11.42,0,0,0,3.51-2A15.49,15.49,0,0,0,333,675.57Zm0-7.56a11.21,11.21,0,0,0-2.13-4.68,10.64,10.64,0,0,0-3.61-2.77,11.24,11.24,0,0,0-4.9-1.06,10.64,10.64,0,0,0-7.13,2.66,11.93,11.93,0,0,0-3.29,5.85Z"/><path class="cls-3" d="M371.17,662.27l-2.87,1.8a12,12,0,0,0-10.64-5,11.59,11.59,0,0,0-4.61.83,11.45,11.45,0,0,0-3.9,2.58,10.4,10.4,0,0,0-2.55,3.63,10.66,10.66,0,0,0-.86,4.35,12.35,12.35,0,0,0,1.49,5.86,12,12,0,0,0,4.37,4.25,12.88,12.88,0,0,0,6.17,1.5,12.48,12.48,0,0,0,10.1-5l2.87,1.92a13.84,13.84,0,0,1-5.42,4.79,17.91,17.91,0,0,1-7.76,1.59,15.4,15.4,0,0,1-10.64-4.25,14,14,0,0,1-4.37-10.65,14.91,14.91,0,0,1,2-7.66,14.12,14.12,0,0,1,5.75-5.43,15.69,15.69,0,0,1,8.09-2,19.22,19.22,0,0,1,5.42.85,18.32,18.32,0,0,1,4.36,2.23A12.27,12.27,0,0,1,371.17,662.27Z"/><path class="cls-3" d="M381.38,645.87H385v10.65h6.17v3.19h-5.74v25.13h-3.62V659.6h-5v-3.19h5Z"/><path class="cls-3" d="M397.45,644.81a2.89,2.89,0,0,1,1.16.19,3,3,0,0,1,1,.64,2.94,2.94,0,0,1,.84,2.15,2.85,2.85,0,0,1-.2,1.15,3,3,0,0,1-.65,1,3.32,3.32,0,0,1-1,.64,3.25,3.25,0,0,1-1.15.21,3.41,3.41,0,0,1-2.13-.85,3.18,3.18,0,0,1-.85-2.13,3,3,0,0,1,.21-1.15,2.93,2.93,0,0,1,1.61-1.63A2.71,2.71,0,0,1,397.45,644.81Zm-1.81,11.6h3.61v28.32h-3.61Z"/><path class="cls-3" d="M404.15,656.41h3.93l9.47,20.65,9.36-20.65h3.94l-13,28.32h-.63Z"/><path class="cls-3" d="M437.55,644.81a2.46,2.46,0,0,1,1.17.17,2.52,2.52,0,0,1,1,.68,2.63,2.63,0,0,1,.73,1,2.79,2.79,0,0,1,.23,1.18,2.89,2.89,0,0,1-.26,1.16,2.8,2.8,0,0,1-.7,1,3.08,3.08,0,0,1-1,.64,3.17,3.17,0,0,1-1.15.21,2.94,2.94,0,0,1-2-.85,2.8,2.8,0,0,1-.7-1,2.89,2.89,0,0,1-.26-1.16,2.66,2.66,0,0,1,.24-1.18,2.5,2.5,0,0,1,.72-1,2.51,2.51,0,0,1,2-.85Zm-1.81,11.6h3.73v28.32h-3.73Z"/><path class="cls-3" d="M475.21,645.44v39.29H471.6v-4.9a15.9,15.9,0,0,1-5.11,4.15,13.5,13.5,0,0,1-6.28,1.38,14,14,0,0,1-10.64-4.25,15.26,15.26,0,0,1,0-21.3,14.9,14.9,0,0,1,17-2.87,13.82,13.82,0,0,1,4.89,4.48V645.23Zm-14.57,13.74a11.59,11.59,0,0,0-5.64,1.49,10.62,10.62,0,0,0-4,4.26,11.58,11.58,0,0,0,4.15,15.64,10.64,10.64,0,0,0,5.53,1.5,11.77,11.77,0,0,0,5.64-1.5,10.53,10.53,0,0,0,4.14-4.15,12.79,12.79,0,0,0,.62-10.17,11.22,11.22,0,0,0-2.42-3.77,10.6,10.6,0,0,0-8-3.3Z"/><path class="cls-3" d="M511.59,656.41v28.32h-3.4v-4.9a15.76,15.76,0,0,1-5.1,4.15,13.55,13.55,0,0,1-6.28,1.38,13.91,13.91,0,0,1-10.64-4.25,15.15,15.15,0,0,1-4.26-10.65,14.71,14.71,0,0,1,4.26-10.64,14.87,14.87,0,0,1,17-2.88,13.85,13.85,0,0,1,4.9,4.48V656.2ZM497,659.18a11,11,0,0,0-9.68,5.75,11.61,11.61,0,0,0,4.15,15.64,10.57,10.57,0,0,0,5.53,1.5,11.77,11.77,0,0,0,5.64-1.5,10.62,10.62,0,0,0,4.15-4.15,11.5,11.5,0,0,0,1.38-5.75,11.17,11.17,0,0,0-.76-4.42,11.41,11.41,0,0,0-2.43-3.77,10.64,10.64,0,0,0-3.4-2.39,10.45,10.45,0,0,0-4.05-.91Z"/><path class="cls-3" d="M548,645.44v39.29h-3.62v-4.9a15.76,15.76,0,0,1-5.1,4.15,13.55,13.55,0,0,1-6.28,1.38,13.91,13.91,0,0,1-10.64-4.25,15.1,15.1,0,0,1-4.25-10.65,14.12,14.12,0,0,1,1-5.78,14.47,14.47,0,0,1,3.31-4.87,13.89,13.89,0,0,1,10.64-4.36,14.14,14.14,0,0,1,6.38,1.49,13.74,13.74,0,0,1,4.89,4.48V645.23ZM533.4,659.18a10.59,10.59,0,0,0-5.53,1.49,10.7,10.7,0,0,0-4.15,4.26,11.61,11.61,0,0,0,4.15,15.64,10.69,10.69,0,0,0,5.53,1.5,11.71,11.71,0,0,0,5.64-1.5,10.49,10.49,0,0,0,4.15-4.15,11.62,11.62,0,0,0,1.39-5.75,11.29,11.29,0,0,0-3.2-8.19,10.56,10.56,0,0,0-8-3.3Z"/><path class="cls-3" d="M559.79,677.7l3.51,1.6-5.21,9.9L555.43,688Z"/><path class="cls-3" d="M613.09,662.27l-2.88,1.8a13.67,13.67,0,0,0-15.29-4.16,12.07,12.07,0,0,0-4,2.57,10.56,10.56,0,0,0-2.56,3.63,10.82,10.82,0,0,0-.85,4.35,11.67,11.67,0,0,0,1.61,5.87,11.5,11.5,0,0,0,4.35,4.24,14.13,14.13,0,0,0,12,.32,12.5,12.5,0,0,0,4.7-3.83l2.88,1.92a14.9,14.9,0,0,1-5.43,4.79,18.37,18.37,0,0,1-7.77,1.59,15.41,15.41,0,0,1-6-1,15.59,15.59,0,0,1-5.16-3.26,13.58,13.58,0,0,1-3.36-4.84,13.43,13.43,0,0,1-1-5.81,14.91,14.91,0,0,1,2-7.66,14.57,14.57,0,0,1,5.64-5.43,16,16,0,0,1,8.09-2,17.8,17.8,0,0,1,5.42.85,19.66,19.66,0,0,1,4.47,2.23A14.2,14.2,0,0,1,613.09,662.27Z"/><path class="cls-3" d="M648.19,656.41v28.32h-3.51v-4.9a17.19,17.19,0,0,1-5.21,4.15,13.08,13.08,0,0,1-6.17,1.38,13.91,13.91,0,0,1-10.64-4.25,15,15,0,0,1-4.15-10.65A14.76,14.76,0,0,1,622.73,660a14.68,14.68,0,0,1,10.36-4.38,13.65,13.65,0,0,1,6.27,1.49,14.07,14.07,0,0,1,5,4.48v-5.22Zm-14.47,2.77a11.54,11.54,0,0,0-5.64,1.49,12.23,12.23,0,0,0-5.63,9.9,12.2,12.2,0,0,0,5.63,10,11.33,11.33,0,0,0,5.54,1.5,12.13,12.13,0,0,0,5.74-1.5,10.56,10.56,0,0,0,4-4.15,11.54,11.54,0,0,0,1.48-5.75,10.69,10.69,0,0,0-3.29-8.19A10.85,10.85,0,0,0,638,660,10.54,10.54,0,0,0,633.72,659.18Z"/><path class="cls-3" d="M655.85,645.44h3.62v39.29h-3.62Z"/><path class="cls-3" d="M668.3,644.81a2.72,2.72,0,0,1,2.13.85,2.49,2.49,0,0,1,.67,1,2.59,2.59,0,0,1,.18,1.17,2.85,2.85,0,0,1-.2,1.15,3,3,0,0,1-.65,1,3.06,3.06,0,0,1-1.54.83,3,3,0,0,1-3.08-1.29,2.92,2.92,0,0,1-.49-1.67,3,3,0,0,1,.21-1.15,2.92,2.92,0,0,1,.64-1,2.79,2.79,0,0,1,1-.66A2.86,2.86,0,0,1,668.3,644.81Zm-1.81,11.6h3.62v28.32h-3.62Z"/><path class="cls-3" d="M705.85,645.44v39.29h-3.51v-4.9a18.29,18.29,0,0,1-5.11,4.15,13.87,13.87,0,0,1-6.27,1.38,13.6,13.6,0,0,1-10.64-4.25,15.37,15.37,0,0,1-3.18-16.28,14.82,14.82,0,0,1,3.15-4.79,14.68,14.68,0,0,1,10.35-4.38,13.45,13.45,0,0,1,6.28,1.49,14,14,0,0,1,5,4.48V645.44Zm-14.47,13.74a11.51,11.51,0,0,0-5.64,1.49,11.81,11.81,0,0,0-5.53,9.9,11.26,11.26,0,0,0,11.17,11.5,12,12,0,0,0,5.64-1.5,10.47,10.47,0,0,0,4-4.15,11.55,11.55,0,0,0,1.49-5.75,11.17,11.17,0,0,0-.76-4.42,11.41,11.41,0,0,0-2.43-3.77,10.6,10.6,0,0,0-8-3.3Z"/><path class="cls-3" d="M742.24,656.41v28.32h-3.52v-4.9a18.24,18.24,0,0,1-5.1,4.15,13.94,13.94,0,0,1-6.28,1.38,13.45,13.45,0,0,1-5.78-1,13.78,13.78,0,0,1-4.86-3.29,15.43,15.43,0,0,1-3.18-16.28,15,15,0,0,1,3.15-4.79A14.68,14.68,0,0,1,727,655.66a13.45,13.45,0,0,1,6.28,1.49,14.07,14.07,0,0,1,5,4.48v-5.22Zm-14.48,2.77a11.47,11.47,0,0,0-5.63,1.49,11.81,11.81,0,0,0-5.53,9.9,10.57,10.57,0,0,0,1.49,5.75,11.33,11.33,0,0,0,4.14,4.25,10.69,10.69,0,0,0,5.53,1.5,12,12,0,0,0,5.65-1.5,11.44,11.44,0,0,0,5.53-9.9,11.29,11.29,0,0,0-3.2-8.19,10.56,10.56,0,0,0-8-3.3Z"/><path class="cls-3" d="M778.73,645.44v39.29h-3.62v-4.9A16.8,16.8,0,0,1,770,684a13.94,13.94,0,0,1-6.28,1.38,13.45,13.45,0,0,1-5.78-1,13.65,13.65,0,0,1-4.85-3.29,14.88,14.88,0,0,1,10.31-25.45,13.41,13.41,0,0,1,11.28,6V645.44Zm-14.58,13.74a11.48,11.48,0,0,0-5.64,1.49,11.81,11.81,0,0,0-5.53,9.9,10.66,10.66,0,0,0,1.49,5.75,11.29,11.29,0,0,0,4.15,4.25,10.64,10.64,0,0,0,5.53,1.5,12,12,0,0,0,5.64-1.5,10.62,10.62,0,0,0,4.15-4.15,11.5,11.5,0,0,0,1.38-5.75,11.36,11.36,0,0,0-.77-4.42,11.22,11.22,0,0,0-2.42-3.77,10.6,10.6,0,0,0-8-3.3Z"/><path class="cls-3" d="M798.62,656.41h3.83l9.68,21.82,9.47-21.82h3.83l-16.81,38.64h-3.83l5.42-12.56Z"/><path class="cls-3" d="M212.13,747.54l3.08,1.59a17.26,17.26,0,0,1-3.51,4.79,12,12,0,0,1-4.47,2.77,15.09,15.09,0,0,1-5.53,1,13.5,13.5,0,0,1-10.64-4.47,15.35,15.35,0,0,1-3.93-10.65,15.85,15.85,0,0,1,3.3-9.58,14.79,14.79,0,0,1,17.67-4,15,15,0,0,1,5.09,4,15.57,15.57,0,0,1,3.09,9.69H190.64a11.85,11.85,0,0,0,3.19,8.09,9.93,9.93,0,0,0,7.55,3.19,14.26,14.26,0,0,0,4.15-.74,11.39,11.39,0,0,0,3.51-2A18.07,18.07,0,0,0,212.13,747.54Zm0-7.56a12.88,12.88,0,0,0-2.13-4.69,9,9,0,0,0-3.72-2.76,11,11,0,0,0-11.92,1.59,11.55,11.55,0,0,0-3.3,5.86Z"/><path class="cls-3" d="M234.57,718.15v3.62a8.36,8.36,0,0,0-3.51-.85,2.9,2.9,0,0,0-1.7,0,2,2,0,0,0-.58.38,1.88,1.88,0,0,0-.38.58,18.53,18.53,0,0,0,0,3v3.94h5.86v3.09H228.4V757h-3.61V731.89H221V728.8h3.72v-4.47a10.65,10.65,0,0,1,.64-4.26,4,4,0,0,1,1.81-2.13,6.55,6.55,0,0,1,3.3-.85A18.52,18.52,0,0,1,234.57,718.15Z"/><path class="cls-3" d="M240.85,717a2.81,2.81,0,0,1,1.17.26,2.86,2.86,0,0,1,1,.7,3.08,3.08,0,0,1,.64,1,3,3,0,0,1,.21,1.15,3.41,3.41,0,0,1-.85,2.13,3.09,3.09,0,0,1-4.26,0,3.41,3.41,0,0,1-.85-2.13,3.05,3.05,0,0,1,.22-1.15,2.89,2.89,0,0,1,.63-1,2.8,2.8,0,0,1,1-.7A2.73,2.73,0,0,1,240.85,717ZM239,728.8h3.19V757H239Z"/><path class="cls-3" d="M277.66,734.55l-2.87,1.81a12.76,12.76,0,0,0-18.73-1.7,10.54,10.54,0,0,0-2.63,3.66,10.85,10.85,0,0,0-.88,4.43,11.27,11.27,0,0,0,1.6,5.85,12,12,0,0,0,4.36,4.26,12.82,12.82,0,0,0,6.06,1.49,12.58,12.58,0,0,0,10.64-5l2.87,1.91a13.59,13.59,0,0,1-5.42,4.69,17.11,17.11,0,0,1-7.77,1.7,15.4,15.4,0,0,1-10.63-4.26,14.12,14.12,0,0,1-4.37-10.64,15,15,0,0,1,2-7.67,15.22,15.22,0,0,1,5.75-5.54,16.41,16.41,0,0,1,8-1.91,17.8,17.8,0,0,1,5.42.85,12.47,12.47,0,0,1,4.47,2.24A14,14,0,0,1,277.66,734.55Z"/><path class="cls-3" d="M312.77,728.8V757h-3.51v-4.79a17.36,17.36,0,0,1-5.22,4.15,15.94,15.94,0,0,1-12,.41,13.28,13.28,0,0,1-4.83-3.39,15,15,0,0,1,0-21.29,14,14,0,0,1,4.86-3.32,13.79,13.79,0,0,1,5.78-1,13.18,13.18,0,0,1,6.28,1.49,14,14,0,0,1,5,4.47v-4.9Zm-14.47,2.77a11.48,11.48,0,0,0-5.64,1.49,11.5,11.5,0,0,0,5.64,21.4,12,12,0,0,0,5.64-1.5,12,12,0,0,0,4.76-14.32,11.22,11.22,0,0,0-2.42-3.77,10.65,10.65,0,0,0-3.63-2.56,10.82,10.82,0,0,0-4.35-.85Z"/><path class="cls-3" d="M348.61,734.55l-2.87,1.81a12.58,12.58,0,0,0-4-3.43A12.75,12.75,0,0,0,327,734.66a11.67,11.67,0,0,0-1.91,13.94,11.88,11.88,0,0,0,4.36,4.26,12.82,12.82,0,0,0,6.06,1.49,12.58,12.58,0,0,0,10.64-5l2.87,1.91a13.65,13.65,0,0,1-5.42,4.69,16.73,16.73,0,0,1-7.77,1.7,15.45,15.45,0,0,1-10.64-4.26,14.26,14.26,0,0,1-3.32-4.86,14.11,14.11,0,0,1-1-5.78,14.87,14.87,0,0,1,2-7.67,15.22,15.22,0,0,1,5.75-5.54,16.82,16.82,0,0,1,8.08-1.91,17.78,17.78,0,0,1,5.32.85,12.55,12.55,0,0,1,4.47,2.24A13.68,13.68,0,0,1,348.61,734.55Z"/><path class="cls-3" d="M356.7,717a3.14,3.14,0,0,1,2.77,1.94,3,3,0,0,1,.21,1.15,2.89,2.89,0,0,1-.19,1.16,3,3,0,0,1-.65,1,2.78,2.78,0,0,1-1,.64,2.71,2.71,0,0,1-1.16.2,3,3,0,0,1-1.15-.21,3.13,3.13,0,0,1-1-.64,2.78,2.78,0,0,1-.64-1,2.83,2.83,0,0,1-.21-1.15,2.63,2.63,0,0,1,.85-2.13,2.74,2.74,0,0,1,2.13-1Zm-1.8,11.71h3.61V756.9H354.9Z"/><path class="cls-3" d="M394.26,728.8V757h-3.09v-4.79a16.88,16.88,0,0,1-5.1,4.15,13.81,13.81,0,0,1-6.28,1.38,13.36,13.36,0,0,1-10.64-4.36,15,15,0,0,1,0-21.29,14,14,0,0,1,10.64-4.36,13.21,13.21,0,0,1,6.28,1.49,14,14,0,0,1,5,4.47v-4.9Zm-14.58,2.77a11.51,11.51,0,0,0-5.64,1.49,10.67,10.67,0,0,0-4,4.15,11.84,11.84,0,0,0,0,11.5,11.66,11.66,0,0,0,9.68,5.75,12,12,0,0,0,5.64-1.5,11.44,11.44,0,0,0,5.53-9.9,11.33,11.33,0,0,0-3.19-8.19,10.65,10.65,0,0,0-3.63-2.56,10.82,10.82,0,0,0-4.35-.85Z"/><path class="cls-3" d="M406,750.09l3.51,1.71-5.21,9.79-2.45-.85Z"/><path class="cls-3" d="M446.06,731.78l-2.34,2.45a8.21,8.21,0,0,0-2.58-2,8.45,8.45,0,0,0-3.16-.86,4.34,4.34,0,0,0-3,1.18,3.58,3.58,0,0,0-.94,1.24,3.66,3.66,0,0,0-.34,1.52,3.87,3.87,0,0,0,1.07,2.56,12.46,12.46,0,0,0,4.36,3,18,18,0,0,1,5.53,4,7.57,7.57,0,0,1,1.38,4.46,8.3,8.3,0,0,1-.63,3.23,8,8,0,0,1-4.6,4.54,8.17,8.17,0,0,1-3.28.54,10.6,10.6,0,0,1-8.4-3.94l2.34-2.66a7.94,7.94,0,0,0,2.57,2.25,7.86,7.86,0,0,0,3.28.94,5.47,5.47,0,0,0,3.72-1.38,4.36,4.36,0,0,0,1.15-1.48,4.44,4.44,0,0,0,.45-1.82,4.81,4.81,0,0,0-1.06-2.88,19.81,19.81,0,0,0-4.58-3,14.61,14.61,0,0,1-5.21-3.83,7.45,7.45,0,0,1-1.39-4.47,7,7,0,0,1,2.24-5.32,7.74,7.74,0,0,1,5.53-2.13A11.67,11.67,0,0,1,446.06,731.78Z"/><path class="cls-3" d="M453.72,717a2.66,2.66,0,0,1,1.18.24,2.58,2.58,0,0,1,1,.72,2.55,2.55,0,0,1,.68,1,2.4,2.4,0,0,1,.17,1.16,2.82,2.82,0,0,1-.2,1.15,2.91,2.91,0,0,1-1.63,1.62,3,3,0,0,1-1.15.21,2.84,2.84,0,0,1-2-.85,3.08,3.08,0,0,1-1-2.13,3.13,3.13,0,0,1,3-3.09Zm-1.81,11.71h3.62V756.9h-3.62Z"/><path class="cls-3" d="M463.08,728.8h3.73v5a13.84,13.84,0,0,1,4.79-4.27,10.6,10.6,0,0,1,5.74-1.49,10.05,10.05,0,0,1,5.64,1.6A9.07,9.07,0,0,1,486.6,734a24.08,24.08,0,0,1,1.17,8.51V757h-3.62V743.6a30.34,30.34,0,0,0,0-6.6,6.81,6.81,0,0,0-2.45-4.16,7.3,7.3,0,0,0-4.68-1.49,8.77,8.77,0,0,0-5.85,2.24,10.76,10.76,0,0,0-3.41,5.43,32.71,32.71,0,0,0,0,7.66v10.65H464Z"/><path class="cls-3" d="M510.32,728.8h3.62V734a14.08,14.08,0,0,1,5-4.48,13.65,13.65,0,0,1,6.27-1.49,14.08,14.08,0,0,1,10.64,4.37,14.71,14.71,0,0,1,4.26,10.64,14.45,14.45,0,0,1-1,5.78,14.31,14.31,0,0,1-3.25,4.87,13.63,13.63,0,0,1-10.64,4.37,13.34,13.34,0,0,1-6.17-1.39,17.19,17.19,0,0,1-5.21-4.15v15.22h-3.62Zm14.58,2.77a10.56,10.56,0,0,0-8,3.3,11.29,11.29,0,0,0-3.2,8.19,11.38,11.38,0,0,0,5.53,9.9,12.2,12.2,0,0,0,5.75,1.5,10.77,10.77,0,0,0,5.43-1.6,10.66,10.66,0,0,0,4.14-4.15,12.07,12.07,0,0,0,1.49-5.75,11.44,11.44,0,0,0-5.53-9.9,11.53,11.53,0,0,0-5.63-1.6Z"/><path class="cls-3" d="M570.43,747.54l3,1.59a15,15,0,0,1-3.4,4.79,14,14,0,0,1-4.47,2.77,15.46,15.46,0,0,1-5.64,1,13.36,13.36,0,0,1-5.82-1,13.5,13.5,0,0,1-4.81-3.44,15.54,15.54,0,0,1-.64-19.91A13.53,13.53,0,0,1,559.25,728a14.06,14.06,0,0,1,11.6,5.43,15.6,15.6,0,0,1,3.09,9.68H548.51a11.87,11.87,0,0,0,3.19,8.1,9.81,9.81,0,0,0,7.45,3.19,14.08,14.08,0,0,0,4.26-.75,10.5,10.5,0,0,0,3.4-2A17.63,17.63,0,0,0,570.43,747.54Zm0-7.56a14.75,14.75,0,0,0-2.13-4.69,9.71,9.71,0,0,0-3.73-2.76,10.57,10.57,0,0,0-4.78-1.07,10.69,10.69,0,0,0-7.13,2.66,11.48,11.48,0,0,0-3.3,5.86Z"/><path class="cls-3" d="M579.79,728.8h3.72V733a12,12,0,0,1,3.51-3.72,7.08,7.08,0,0,1,3.83-1.18,6.87,6.87,0,0,1,3.19,1l-1.91,3.09a5.14,5.14,0,0,0-1.92-.53,5.6,5.6,0,0,0-3.51,1.49,10.7,10.7,0,0,0-2.55,4.68,47.33,47.33,0,0,0-.64,9.8V757h-3.72Z"/><path class="cls-3" d="M625.21,718.15v39.18H621.7v-4.79a17.19,17.19,0,0,1-5.21,4.15,14.16,14.16,0,0,1-16.81-3,15,15,0,0,1,0-21.29,14,14,0,0,1,4.85-3.32,14.2,14.2,0,0,1,5.79-1.05,13.45,13.45,0,0,1,6.28,1.49,14.16,14.16,0,0,1,5,4.48V718.15Zm-14.46,13.74a11.38,11.38,0,0,0-5.64,1.49,11.5,11.5,0,0,0,5.64,21.4,12.07,12.07,0,0,0,5.63-1.49A12,12,0,0,0,621.15,739a11.15,11.15,0,0,0-2.43-3.77,10.59,10.59,0,0,0-7.87-3.73Z"/><path class="cls-3" d="M657.13,747.54l3.08,1.59a13.86,13.86,0,0,1-3.51,4.79,12.51,12.51,0,0,1-4.36,2.77,15.5,15.5,0,0,1-5.64,1,13.8,13.8,0,0,1-10.64-4.47,15.79,15.79,0,0,1-3.83-10.65,15.3,15.3,0,0,1,3.3-9.58,13.53,13.53,0,0,1,10.64-5.32,14.1,14.1,0,0,1,6.45,1.33,14.27,14.27,0,0,1,5.15,4.1,15.6,15.6,0,0,1,3.08,9.69h-25a11.37,11.37,0,0,0,3.19,8.09,9.81,9.81,0,0,0,7.45,3.19,14.39,14.39,0,0,0,4.26-.74,12.37,12.37,0,0,0,3.4-2A15.11,15.11,0,0,0,657.13,747.54Zm0-7.56A11.22,11.22,0,0,0,655,735.3a8.66,8.66,0,0,0-3.62-2.77,11.19,11.19,0,0,0-12,1.59,12.39,12.39,0,0,0-3.3,5.86Z"/><path class="cls-3" d="M666.81,728.8h3.72V733a12,12,0,0,1,3.51-3.72,7.08,7.08,0,0,1,3.83-1.18,6.9,6.9,0,0,1,3.19,1l-1.91,3.09a5.15,5.15,0,0,0-1.91-.53,5.65,5.65,0,0,0-3.52,1.49,10.7,10.7,0,0,0-2.55,4.68,47.33,47.33,0,0,0-.64,9.8V757h-3.72Z"/><path class="cls-3" d="M727.13,718.15v39.18h-3.62v-4.79a15.69,15.69,0,0,1-5.11,4.15,13.88,13.88,0,0,1-6.27,1.39,13.66,13.66,0,0,1-10.64-4.37,14.9,14.9,0,0,1,10.64-25.33,13.18,13.18,0,0,1,6.39,1.55,13.32,13.32,0,0,1,4.88,4.4V718.15Zm-14.58,13.74a11.34,11.34,0,0,0-5.63,1.49,11.42,11.42,0,0,0-5.54,9.9,12.3,12.3,0,0,0,1.49,5.75,11.66,11.66,0,0,0,9.68,5.75,11.81,11.81,0,0,0,5.64-1.49,10.64,10.64,0,0,0,4.15-4.16,11.49,11.49,0,0,0,1.38-5.74,11.23,11.23,0,0,0-3.19-8.2,10.55,10.55,0,0,0-3.59-2.73,10.71,10.71,0,0,0-4.39-1Z"/><path class="cls-3" d="M759.15,747.54l3.08,1.59a17.26,17.26,0,0,1-3.51,4.79,13.91,13.91,0,0,1-4.47,2.77,15.23,15.23,0,0,1-5.63,1A13.38,13.38,0,0,1,738,753.18a15.54,15.54,0,0,1-.64-19.91,13.85,13.85,0,0,1,4.71-3.89A13.56,13.56,0,0,1,748,728a14.06,14.06,0,0,1,11.59,5.43,15.48,15.48,0,0,1,3.09,9.68H737.23a11.84,11.84,0,0,0,3.2,8.1,9.93,9.93,0,0,0,7.55,3.19,14,14,0,0,0,4.15-.75,11.19,11.19,0,0,0,3.51-2A17.6,17.6,0,0,0,759.15,747.54Zm0-7.56a12.72,12.72,0,0,0-2.13-4.69,9,9,0,0,0-3.72-2.76,11,11,0,0,0-11.92,1.59,11.46,11.46,0,0,0-3.29,5.86Z"/><path class="cls-3" d="M781.91,728.8h3.94l9.47,20.55,9.36-20.55h3.94l-13.2,28.1Z"/><path class="cls-3" d="M815.32,717a3.28,3.28,0,0,1,3.08,3.09,2.73,2.73,0,0,1-.26,1.16,2.91,2.91,0,0,1-.69,1,3,3,0,0,1-2.13.85,2.84,2.84,0,0,1-2-.85,2.94,2.94,0,0,1-.7-1,3.07,3.07,0,0,1-.26-1.16,2.62,2.62,0,0,1,1-2.13,2.77,2.77,0,0,1,.9-.7A2.7,2.7,0,0,1,815.32,717Zm-1.81,11.71h3.72V756.9h-3.72Z"/><path class="cls-3" d="M838.94,731.78l-2.34,2.45a8.33,8.33,0,0,0-5.64-2.88,4.69,4.69,0,0,0-3.09,1.18,3.58,3.58,0,0,0-.94,1.24,3.66,3.66,0,0,0-.34,1.52,3.87,3.87,0,0,0,1.07,2.56,13.7,13.7,0,0,0,4.36,3,15.6,15.6,0,0,1,5.53,4,7.65,7.65,0,0,1,1.39,4.46,8.14,8.14,0,0,1-.6,3.24,8,8,0,0,1-1.85,2.73,8.41,8.41,0,0,1-2.79,1.8,8.13,8.13,0,0,1-3.27.54,11,11,0,0,1-8.41-3.94l2.34-2.66a7.85,7.85,0,0,0,6,3.19,6,6,0,0,0,3.72-1.38,4.46,4.46,0,0,0,1.08-1.5,4.87,4.87,0,0,0,.41-1.8,4.18,4.18,0,0,0-1.06-2.88,17.61,17.61,0,0,0-4.58-3,14.61,14.61,0,0,1-5.21-3.83,8.18,8.18,0,0,1-1.38-4.47,7.08,7.08,0,0,1,2.23-5.32,7.74,7.74,0,0,1,5.53-2.13A11.5,11.5,0,0,1,838.94,731.78Z"/><path class="cls-3" d="M848.62,718.15h3.61V728.8H858v3.09h-5.75V757h-3.61V731.89h-5V728.8h5Z"/><path class="cls-3" d="M891.17,728.8V757h-3.62v-4.79a15.76,15.76,0,0,1-5.1,4.15,14.33,14.33,0,0,1-16.49-3,15,15,0,0,1,0-21.29,14.25,14.25,0,0,1,10.63-4.36,14,14,0,0,1,6.39,1.49,13.71,13.71,0,0,1,4.89,4.47v-4.9Zm-14.58,2.77a11.2,11.2,0,0,0-9.67,5.64,11.77,11.77,0,0,0,0,11.5,11.63,11.63,0,0,0,9.67,5.75,11.71,11.71,0,0,0,5.64-1.5,10.49,10.49,0,0,0,4.15-4.15,11.51,11.51,0,0,0,1.39-5.75,11.29,11.29,0,0,0-3.2-8.19,10.64,10.64,0,0,0-7.55-3.41Z"/><path class="cls-3" d="M279.68,819.82l3.09,1.6a17.77,17.77,0,0,1-3.51,4.79,14.26,14.26,0,0,1-10,3.72,13.19,13.19,0,0,1-10.64-4.58,14.87,14.87,0,0,1-3.94-10.64,15.36,15.36,0,0,1,3.3-9.58,13.45,13.45,0,0,1,11.28-5.33,13.94,13.94,0,0,1,11.48,5.43,15.39,15.39,0,0,1,3.09,9.69H258.19a11.83,11.83,0,0,0,3.19,8.09,10,10,0,0,0,7.56,3.2,11.62,11.62,0,0,0,4.15-.86,10.53,10.53,0,0,0,3.51-1.91A20.49,20.49,0,0,0,279.68,819.82Zm0-7.67a12.19,12.19,0,0,0-2.13-4.57,10.58,10.58,0,0,0-3.72-2.88,12.19,12.19,0,0,0-4.79-1.06,10.62,10.62,0,0,0-7.12,2.77,11.5,11.5,0,0,0-3.3,5.74Z"/><path class="cls-3" d="M289.89,790h3.62v39.18h-3.62Z"/><path class="cls-3" d="M316.06,829.19V790h3.62v15.76a14.4,14.4,0,0,1,5.11-4.15,13.46,13.46,0,0,1,6.17-1.39,13.66,13.66,0,0,1,10.64,4.37,14.75,14.75,0,0,1,3.16,4.89,14.49,14.49,0,0,1,1,5.75,14.65,14.65,0,0,1-4.22,10.42A14.68,14.68,0,0,1,331.17,830a13.43,13.43,0,0,1-10.64-6v5.21Zm14.58-2.77a11.45,11.45,0,1,0-9.79-17.35,12.15,12.15,0,0,0-1.38,5.85,11.55,11.55,0,0,0,.76,4.43,11.31,11.31,0,0,0,2.43,3.77,10.6,10.6,0,0,0,8,3.3Z"/><path class="cls-3" d="M375.85,819.82l3.09,1.6a14.22,14.22,0,0,1-3.51,4.79,14.89,14.89,0,0,1-4.36,2.77,15.75,15.75,0,0,1-5.65.95,13.48,13.48,0,0,1-10.63-4.58A15.18,15.18,0,0,1,351,814.71a14.76,14.76,0,0,1,3.3-9.58,13.2,13.2,0,0,1,10.63-5.33,14.17,14.17,0,0,1,11.6,5.43,15.32,15.32,0,0,1,3.08,9.69h-25.1a11.7,11.7,0,0,0,3.09,8.09,10.58,10.58,0,0,0,7.55,3.2,13.18,13.18,0,0,0,7.66-2.77A17.18,17.18,0,0,0,375.85,819.82Zm0-7.67a10.56,10.56,0,0,0-2.13-4.57,9.93,9.93,0,0,0-3.61-2.88,13,13,0,0,0-4.79-1.06,10.66,10.66,0,0,0-7.24,2.77,12.51,12.51,0,0,0-3.29,5.74Z"/><path class="cls-3" d="M386.7,801h3.62v5a15.14,15.14,0,0,1,4.79-4.36,12.08,12.08,0,0,1,5.74-1.39,10,10,0,0,1,5.64,1.6,9.07,9.07,0,0,1,3.62,4.37,21.22,21.22,0,0,1,1.17,8.4v14.59h-3.62V815.67a29.43,29.43,0,0,0,0-6.5,6.92,6.92,0,0,0-2.34-4.15,7.51,7.51,0,0,0-4.68-1.49,8.84,8.84,0,0,0-6,2.24,9.89,9.89,0,0,0-3.41,5.32,33.65,33.65,0,0,0,0,7.77v10.65h-3.61Z"/><path class="cls-3" d="M442.87,819.82l3.09,1.6a14.09,14.09,0,0,1-3.51,4.79A13.91,13.91,0,0,1,438,829a15.15,15.15,0,0,1-5.53.95,13.48,13.48,0,0,1-10.64-4.58A15.18,15.18,0,0,1,418,814.71a14.82,14.82,0,0,1,3.3-9.58,13.2,13.2,0,0,1,10.63-5.33,13.94,13.94,0,0,1,11.49,5.43,15.37,15.37,0,0,1,3.2,9.69H421.49a11.56,11.56,0,0,0,.73,4.36,11.05,11.05,0,0,0,2.36,3.73,9.93,9.93,0,0,0,3.43,2.41,10,10,0,0,0,4.12.79,13.91,13.91,0,0,0,7.66-2.77A17.18,17.18,0,0,0,442.87,819.82Zm0-7.67a10.56,10.56,0,0,0-2.13-4.57,9.93,9.93,0,0,0-3.61-2.88,13.29,13.29,0,0,0-4.89-1.06,10.62,10.62,0,0,0-7.13,2.77,12.45,12.45,0,0,0-3.3,5.74Z"/><path class="cls-3" d="M465.64,790v3.51a10.06,10.06,0,0,0-3.41-.85,4.2,4.2,0,0,0-1.8,0,2.11,2.11,0,0,0-.86,1.07,14.84,14.84,0,0,0,0,3v3.83h5.86v3.09h-5.86v25.12H455V803.64h-3.72v-3.09H455v-4.47a10.67,10.67,0,0,1,0-4.36,3.94,3.94,0,0,1,1.91-2,6.12,6.12,0,0,1,3.2-.85A14.43,14.43,0,0,1,465.64,790Z"/><path class="cls-3" d="M471.6,789.27a3,3,0,0,1,1.15.21,3.3,3.3,0,0,1,1.67,1.6,3.16,3.16,0,0,1,.26,1.17,3.3,3.3,0,0,1-3.08,3.09,2.87,2.87,0,0,1-1.12-.26,2.71,2.71,0,0,1-.91-.7,2.62,2.62,0,0,1-.72-1,2.5,2.5,0,0,1-.23-1.17,2.81,2.81,0,0,1,.26-1.17,3,3,0,0,1,.69-1A2.88,2.88,0,0,1,471.6,789.27ZM469.79,801h3.72v28.21h-3.72Z"/><path class="cls-3" d="M508.19,806.83l-2.87,1.81a11.79,11.79,0,0,0-10.64-5,11.64,11.64,0,0,0-8.51,3.3,10.67,10.67,0,0,0-3.4,8.09,11.61,11.61,0,0,0,1.59,5.86,10,10,0,0,0,4.26,4.15,11.7,11.7,0,0,0,6.17,1.59,12.25,12.25,0,0,0,10.64-5l2.87,1.92a12.35,12.35,0,0,1-5.43,4.68,16.54,16.54,0,0,1-7.76,1.7,15,15,0,0,1-10.64-4.25,13.81,13.81,0,0,1-3.4-4.84A14,14,0,0,1,480,815a15.34,15.34,0,0,1,7.77-13.2,16.72,16.72,0,0,1,8.08-1.92,16,16,0,0,1,5.43.86,13.07,13.07,0,0,1,4.36,2.23A10,10,0,0,1,508.19,806.83Z"/><path class="cls-3" d="M516.7,789.27a3.18,3.18,0,0,1,2.13.85,3.41,3.41,0,0,1,.85,2.13,3,3,0,0,1-.85,2.13,2.83,2.83,0,0,1-1,.69,2.8,2.8,0,0,1-1.17.25,2.72,2.72,0,0,1-1.16-.25,2.78,2.78,0,0,1-1-.69,3,3,0,0,1-.63-1,3.05,3.05,0,0,1-.22-1.15,3.41,3.41,0,0,1,.85-2.13A3.2,3.2,0,0,1,516.7,789.27ZM514.89,801h3.94v28.21h-3.62Z"/><path class="cls-3" d="M539.47,800.23a13.93,13.93,0,0,1,10.64,4.69,15.35,15.35,0,0,1,0,20.54,14.59,14.59,0,0,1-21.28,0,15.13,15.13,0,0,1,0-20.54,14.25,14.25,0,0,1,10.64-4.69Zm0,3.51a10.86,10.86,0,0,0-4.24.9,10.74,10.74,0,0,0-3.53,2.51,10.57,10.57,0,0,0-2.51,3.69,10.73,10.73,0,0,0-.79,4.4,12.27,12.27,0,0,0,1.49,5.75A11,11,0,0,0,545,825a11.2,11.2,0,0,0,4-4,12,12,0,0,0,1.49-5.75,11.29,11.29,0,0,0-.84-4.37,11.57,11.57,0,0,0-2.45-3.72,10.67,10.67,0,0,0-7.77-3.83Z"/><path class="cls-3" d="M603.08,806.83l-2.87,1.81a12.87,12.87,0,0,0-9-5,12.89,12.89,0,0,0-9.79,3.27A10.67,10.67,0,0,0,578,815a11.55,11.55,0,0,0,1.59,5.85,10.72,10.72,0,0,0,4.26,4.16,12.34,12.34,0,0,0,6.17,1.59,12.55,12.55,0,0,0,5.94-1.17,12.68,12.68,0,0,0,4.7-3.83l2.87,1.92a13.71,13.71,0,0,1-5.42,4.68,17,17,0,0,1-7.77,1.7,15.21,15.21,0,0,1-6-1,15.46,15.46,0,0,1-5.16-3.25,13.68,13.68,0,0,1-3.35-4.85,13.86,13.86,0,0,1-1-5.8,14.88,14.88,0,0,1,2-7.67,15.65,15.65,0,0,1,5.64-5.53,17.18,17.18,0,0,1,8.08-1.92,15.41,15.41,0,0,1,5.43.86,13.17,13.17,0,0,1,4.46,2.23A10.62,10.62,0,0,1,603.08,806.83Z"/><path class="cls-3" d="M623.4,800.23A13.89,13.89,0,0,1,634,804.92,15,15,0,0,1,638,815.56a14.49,14.49,0,0,1-4.15,10.65,14.89,14.89,0,0,1-21.28,0,14.57,14.57,0,0,1-3.12-4.91,14.39,14.39,0,0,1-.92-5.74,14.92,14.92,0,0,1,3.83-10.64,14.26,14.26,0,0,1,11.06-4.69Zm0,3.51a10.81,10.81,0,0,0-4.23.9,11.2,11.2,0,0,0-6.83,10.6,12.16,12.16,0,0,0,1.49,5.75,10.75,10.75,0,0,0,18.72,0,12,12,0,0,0,1.49-5.75,10.63,10.63,0,0,0-3.3-8.09,10.71,10.71,0,0,0-3.28-2.66,10.5,10.5,0,0,0-4.06-1.17Z"/><path class="cls-3" d="M644.36,790H648v39.18h-3.62Z"/><path class="cls-3" d="M679.36,819.82l3,1.6a15.14,15.14,0,0,1-3.41,4.79,16.34,16.34,0,0,1-4.46,2.77,15.74,15.74,0,0,1-5.64.95,13.19,13.19,0,0,1-10.64-4.58,15.44,15.44,0,0,1-.64-19.79,13.23,13.23,0,0,1,10.64-5.33,14.09,14.09,0,0,1,11.6,5.43,15.34,15.34,0,0,1,3.08,9.69H657.45a11.8,11.8,0,0,0,3.19,8.09,9.81,9.81,0,0,0,3.37,2.4,9.69,9.69,0,0,0,4.07.79,11.52,11.52,0,0,0,4.26-.85,9.41,9.41,0,0,0,3.4-1.92A20.45,20.45,0,0,0,679.36,819.82Zm0-7.67a14.33,14.33,0,0,0-2.12-4.57,11.41,11.41,0,0,0-3.73-2.88,12.15,12.15,0,0,0-4.79-1.06,10.6,10.6,0,0,0-7.12,2.77,11.5,11.5,0,0,0-3.3,5.74Z"/><path class="cls-3" d="M717.55,806.83l-2.87,1.81a12.12,12.12,0,0,0-4.66-3.89,12,12,0,0,0-6-1.11,11.76,11.76,0,0,0-8.61,3.3A10.64,10.64,0,0,0,692,815a11.46,11.46,0,0,0,1.6,5.85,10.7,10.7,0,0,0,4.25,4.16,12.13,12.13,0,0,0,6.17,1.59,12.51,12.51,0,0,0,10.64-5l2.87,1.92a13.71,13.71,0,0,1-5.42,4.68,17,17,0,0,1-7.87,1.7,15.21,15.21,0,0,1-10.64-4.25,13.81,13.81,0,0,1-3.4-4.84,14,14,0,0,1-1.07-5.81,14.74,14.74,0,0,1,2.13-7.67,15.57,15.57,0,0,1,5.64-5.53,17.18,17.18,0,0,1,8.08-1.92,15.48,15.48,0,0,1,5.43.86,14.7,14.7,0,0,1,4.46,2.23A10.62,10.62,0,0,1,717.55,806.83Z"/><path class="cls-3" d="M727.66,790.44h3.94v10.64h5.85v3.09H731.6v25.12H728V804.17h-4.9v-3.09H728Z"/><path class="cls-3" d="M743.83,789.27a2.86,2.86,0,0,1,1.16.19,3,3,0,0,1,1,.65,2.78,2.78,0,0,1,.64,1,2.87,2.87,0,0,1,.2,1.16,3.25,3.25,0,0,1-.21,1.15,3.19,3.19,0,0,1-.64,1,3.08,3.08,0,0,1-2.13,1,2.68,2.68,0,0,1-1.18-.24,2.79,2.79,0,0,1-.95-.72,2.75,2.75,0,0,1-.68-1,2.69,2.69,0,0,1-.17-1.16,3.08,3.08,0,0,1,.2-1.16,2.9,2.9,0,0,1,.65-1,3,3,0,0,1,2.13-.85ZM742,801h3.62v28.21h-3.4Z"/><path class="cls-3" d="M750.53,801h3.83l9.47,20.54L773.19,801h3.94l-13,28.21h-.64Z"/><path class="cls-3" d="M796.06,800.23a13.89,13.89,0,0,1,10.64,4.69,14.88,14.88,0,0,1,3.83,10.64,14.49,14.49,0,0,1-4.15,10.65,13.59,13.59,0,0,1-10.63,4.47,13.92,13.92,0,0,1-5.81-1.07,13.68,13.68,0,0,1-4.83-3.4,15.11,15.11,0,0,1,0-20.55,14.22,14.22,0,0,1,10.95-5.43Zm0,3.51a10.69,10.69,0,0,0-7.87,3.41A11.55,11.55,0,0,0,790.43,825a11.58,11.58,0,0,0,5.63,1.49,10.63,10.63,0,0,0,5.53-1.49,11.23,11.23,0,0,0,4-4,12.27,12.27,0,0,0,1.49-5.75,11.48,11.48,0,0,0-3.3-8.09,10.67,10.67,0,0,0-7.77-3.83Z"/><path class="cls-3" d="M821.49,823.44a3.21,3.21,0,0,1,1.22.25,3.24,3.24,0,0,1,1,.71,3.1,3.1,0,0,1,1,2.34,3.19,3.19,0,1,1-6.38,0,2.9,2.9,0,0,1,.23-1.27,3,3,0,0,1,.72-1.07,3.22,3.22,0,0,1,1-.71A3.12,3.12,0,0,1,821.49,823.44Z"/><path class="cls-4" d="M190.85,356.2V295.31h14.36a45.34,45.34,0,0,1,8.94.64,15.47,15.47,0,0,1,5,2.34A13.68,13.68,0,0,1,223.3,304a19,19,0,0,1,1.49,7.88,14.89,14.89,0,0,1-.88,6.13,15.07,15.07,0,0,1-3.27,5.26,17.33,17.33,0,0,1-12.24,3.83h-1.27l23.19,29.06H221l-22.24-29.06h-.95V356.2ZM198,301.38v20.44h5.53a19.74,19.74,0,0,0,11.28-2.24,8.83,8.83,0,0,0,2.87-7.56,10.55,10.55,0,0,0-.54-4.46,10.74,10.74,0,0,0-2.33-3.84,20,20,0,0,0-11.28-2.34Z"/><path class="cls-4" d="M236.38,356.2V295.31H268.3v6.6H243.62v17.46h24.89v6.71H243.62V349.5h24.89v6.7Z"/><path class="cls-4" d="M302.87,322.14a20.29,20.29,0,0,1,9.05,6.81,17,17,0,0,1,3,9.9,18,18,0,0,1-5.32,13.52,22.1,22.1,0,0,1-26.27,1.49,18,18,0,0,1-6.49-10.64l6.49-3.2a16.26,16.26,0,0,0,4.47,8.41,10.59,10.59,0,0,0,7.66,2.77,12.44,12.44,0,0,0,8.83-3.09,11.81,11.81,0,0,0,.95-15.22,17.78,17.78,0,0,0-7.12-5.11l-7.34-3.19a21.37,21.37,0,0,1-9.05-6.5,15.32,15.32,0,0,1-3-9.58,13.72,13.72,0,0,1,4.79-10.64,18.45,18.45,0,0,1,12.34-4.26,19.08,19.08,0,0,1,9.47,2.34,16,16,0,0,1,6.28,6.92l-6,3.83a15.44,15.44,0,0,0-4.58-5.32,10,10,0,0,0-5.74-1.71,9.5,9.5,0,0,0-6.7,2.45,8.68,8.68,0,0,0-2.56,6.39,8.27,8.27,0,0,0,2,5.64,14.69,14.69,0,0,0,6.17,4.15Z"/><path class="cls-4" d="M331.59,328.63V356.2h-7V295.31h12.66a44.35,44.35,0,0,1,9.89.75,14.89,14.89,0,0,1,5.53,2.23,13.52,13.52,0,0,1,4.47,5.75,19.84,19.84,0,0,1,0,16.07,14,14,0,0,1-4.47,5.65,15.43,15.43,0,0,1-5.53,2.44,52.81,52.81,0,0,1-9.89.64h-5.65Zm0-6.6h3.63a24.12,24.12,0,0,0,12.55-2.13,8.76,8.76,0,0,0,3.19-7.66,9.41,9.41,0,0,0-3.3-8.2,22.43,22.43,0,0,0-12.44-2.34h-3.63Z"/><path class="cls-4" d="M430,325.65A31.9,31.9,0,0,1,427.55,338a30.29,30.29,0,0,1-7,10.65,31.67,31.67,0,0,1-10.64,6.91,32.86,32.86,0,0,1-42.55-17.24A31.33,31.33,0,0,1,365,326.08a31.83,31.83,0,0,1,2.34-12.35,33.94,33.94,0,0,1,7.13-10.65,32.54,32.54,0,0,1,10.64-6.81,33.58,33.58,0,0,1,12.44-2.45A32.81,32.81,0,0,1,410,296.27a31.86,31.86,0,0,1,10.64,6.81,29.71,29.71,0,0,1,7,10.65A31.8,31.8,0,0,1,430,325.65Zm-32.55,25.12a23.92,23.92,0,0,0,9.47-1.91,25.69,25.69,0,0,0,13.61-13.95,24,24,0,0,0,1.81-9.58,24.85,24.85,0,0,0-7.23-17.88A26.94,26.94,0,0,0,407,302a24.38,24.38,0,0,0-9.57-1.92,24.08,24.08,0,0,0-9.58,1.92,24.33,24.33,0,0,0-8.08,5.43,26.2,26.2,0,0,0-5.43,8.19,27.21,27.21,0,0,0-1.81,9.69A25.15,25.15,0,0,0,388,348.54,23.86,23.86,0,0,0,397.45,350.77Z"/><path class="cls-4" d="M441.81,356.2V292.33L486.28,341v-46.2h6.91V358l-44.47-48.12V356.2Z"/><path class="cls-4" d="M529.47,322.14a20.52,20.52,0,0,1,8.94,6.81,16.4,16.4,0,0,1,3.08,9.9,17.82,17.82,0,0,1-5.43,13.52,22,22,0,0,1-26.16,1.49,18.56,18.56,0,0,1-6.6-10.64l6.6-3.2a16.13,16.13,0,0,0,4.36,8.41,10.59,10.59,0,0,0,7.65,2.77,12.22,12.22,0,0,0,8.83-3.09,10.61,10.61,0,0,0,2.6-3.72,10.73,10.73,0,0,0,.81-4.48,11.41,11.41,0,0,0-2.34-7,17.81,17.81,0,0,0-7.13-5.11l-7.34-3.19a21.28,21.28,0,0,1-9-6.5,15.32,15.32,0,0,1-3-9.58,13.76,13.76,0,0,1,4.79-10.65,18.31,18.31,0,0,1,12.34-4.25,19.07,19.07,0,0,1,9.46,2.34,16,16,0,0,1,6.28,6.92l-6.06,3.83a14.4,14.4,0,0,0-4.57-5.32,9.42,9.42,0,0,0-5.65-1.71,9.51,9.51,0,0,0-6.7,2.45,8.86,8.86,0,0,0-2,2.92,9,9,0,0,0,1.35,9.11,16.42,16.42,0,0,0,6.18,4.15Z"/><path class="cls-4" d="M570.74,292.33l27.66,63.34h-7.87l-7.87-18.73H558.94l-8.19,19.26H543Zm0,16.07-9.68,22.36h19.37Z"/><path class="cls-4" d="M604.68,356.2V295.31h12.66a55.48,55.48,0,0,1,9.89.64,15.9,15.9,0,0,1,5.43,2.34,13.91,13.91,0,0,1,4.58,5.64,17,17,0,0,1,1.59,7.35,13,13,0,0,1-2.34,8.09,12,12,0,0,1-6.7,4.58,12.69,12.69,0,0,1,4.74,1.53,12.54,12.54,0,0,1,3.77,3.26,15.72,15.72,0,0,1,3.19,10.11,17.7,17.7,0,0,1-1.38,7,16.19,16.19,0,0,1-3.62,5.64,14.75,14.75,0,0,1-6.38,3.62,51.69,51.69,0,0,1-12.77,1.06Zm7.13-54.61v20.33h5.53A19.77,19.77,0,0,0,628,319.69a9,9,0,0,0,2.47-3.4,8.83,8.83,0,0,0,.61-4.16,10,10,0,0,0-2.87-8.2,18.71,18.71,0,0,0-10.63-2.34Zm0,26.08v22.15h5.53a53.66,53.66,0,0,0,8.41,0,10.8,10.8,0,0,0,4-1.6,9.21,9.21,0,0,0,3-3.62,12.65,12.65,0,0,0,1.06-5.32,11.93,11.93,0,0,0-1.28-5.75,9.88,9.88,0,0,0-3.72-3.84,14.29,14.29,0,0,0-3.41-1.27,39.39,39.39,0,0,0-5.95,0h-7.66Z"/><path class="cls-4" d="M652.66,356.2V295.31h7.13V356.2Z"/><path class="cls-4" d="M674.58,356.2V295.31h7.23v54h23v6.92Z"/><path class="cls-4" d="M713.4,356.2V295.31H721V356.2Z"/><path class="cls-4" d="M735.43,356.2V295.31H747a88.35,88.35,0,0,1,18.3,1.28,24.62,24.62,0,0,1,9.25,4.36,26.25,26.25,0,0,1,8,10.65,40.68,40.68,0,0,1,0,28.95,25.19,25.19,0,0,1-8,10.65,23,23,0,0,1-9,4.36A64,64,0,0,1,749.68,357H735.43Zm7.23-6.81h4.68a84,84,0,0,0,15.53-1A17.77,17.77,0,0,0,770,345a19.07,19.07,0,0,0,5.74-8,31.83,31.83,0,0,0,1.92-11.39,29.85,29.85,0,0,0-1.92-11.18,18.39,18.39,0,0,0-5.74-8,17.75,17.75,0,0,0-7.23-3.52,83.92,83.92,0,0,0-15.43-1h-5.1Z"/><path class="cls-4" d="M814.89,292.33l27.66,63.34h-7.87l-7.87-18.73H803l-7.56,19.26h-7.87Zm0,16.07-9.68,22.36h19.36Z"/><path class="cls-4" d="M848.62,356.2V295.31h11.59a88.35,88.35,0,0,1,18.3,1.28,24.74,24.74,0,0,1,9.26,4.36,26.32,26.32,0,0,1,8,10.65,40.68,40.68,0,0,1,0,28.95,25.25,25.25,0,0,1-8,10.65,23.07,23.07,0,0,1-9,4.36A64,64,0,0,1,862.87,357H848.62Zm7.23-6.81h4.68a84,84,0,0,0,15.53-1,17.77,17.77,0,0,0,7.13-3.4,19.07,19.07,0,0,0,5.74-8,31.83,31.83,0,0,0,1.92-11.39,29.85,29.85,0,0,0-1.92-11.18,18.39,18.39,0,0,0-5.74-8A17.69,17.69,0,0,0,876,303a83.92,83.92,0,0,0-15.43-1h-4.68Z"/></g></g></svg>