<svg xmlns="http://www.w3.org/2000/svg" viewBox="0 0 1080 1080.75"><defs><style>.cls-1{fill:#fff;}.cls-2{fill:none;stroke:#45cfdd;stroke-miterlimit:10;}.cls-3{fill:#003875;}.cls-4{fill:#45cfdd;}</style></defs><title>Value_svg_objetividad</title><g id="Capa_2" data-name="Capa 2"><g id="Capa_1-2" data-name="Capa 1"><path class="cls-1" d="M540,1080.75c298.23,0,540-241.94,540-540.38S838.23,0,540,0,0,241.93,0,540.37,241.77,1080.75,540,1080.75Z"/><path class="cls-2" d="M980.84,646.43c58.62-243.74-91.33-488.88-334.9-547.53S157.4,190.29,98.79,434s91.33,488.88,334.9,547.53S922.23,890.17,980.84,646.43Z"/><path class="cls-3" d="M273.94,451l17.76,38.22h-4l-6.07-12.57H265.11l-6,12.57h-4.26L273,451ZM273.4,459l-6.49,13.84H280Z"/><path class="cls-3" d="M324.89,466.81,322,468.62a12,12,0,0,0-10.64-5,11.64,11.64,0,0,0-8.51,3.3,10.67,10.67,0,0,0-3.4,8.09,11.37,11.37,0,0,0,1.49,5.86,10.69,10.69,0,0,0,4.36,4.15,11.71,11.71,0,0,0,6.06,1.59,12.51,12.51,0,0,0,10.64-5l2.87,1.92a13.64,13.64,0,0,1-5.42,4.68,16.73,16.73,0,0,1-7.77,1.7,15.45,15.45,0,0,1-11.17-4.25A14.06,14.06,0,0,1,296.17,475a14.87,14.87,0,0,1,2-7.67,15.12,15.12,0,0,1,5.75-5.53,16.47,16.47,0,0,1,8.08-1.92,15.29,15.29,0,0,1,5.32.85,12.63,12.63,0,0,1,4.47,2.24A10.62,10.62,0,0,1,324.89,466.81Z"/><path class="cls-3" d="M335.11,450.42h3.61v10.64h5.75v3.09h-5.75v25.12h-3.61V464.15h-5v-3.09h5Z"/><path class="cls-3" d="M349.47,461h3.62v13.2a28.71,28.71,0,0,0,.53,6.6,7.7,7.7,0,0,0,3,4.15,9.89,9.89,0,0,0,10.63,0,7.39,7.39,0,0,0,2.88-3.83,24.75,24.75,0,0,0,.53-6.92V461h3.72V474.8a21.27,21.27,0,0,1-1.38,8.83,9.85,9.85,0,0,1-4.05,4.58,12.49,12.49,0,0,1-6.91,1.7,12.86,12.86,0,0,1-6.91-1.7,9.68,9.68,0,0,1-4.05-4.68,21.5,21.5,0,0,1-1.38-8.95Z"/><path class="cls-3" d="M410.43,461v28.21h-3.62V484a15.57,15.57,0,0,1-5.11,4.15,13.62,13.62,0,0,1-6.27,1.39,14.08,14.08,0,0,1-10.64-4.37,15.15,15.15,0,0,1,0-21.29,13.79,13.79,0,0,1,10.64-4.36,12.79,12.79,0,0,1,6.38,1.49,14.51,14.51,0,0,1,4.89,4.36v-5.11Zm-14.58,2.77a10.53,10.53,0,0,0-5.53,1.48,10.64,10.64,0,0,0-4.15,4.16,11.63,11.63,0,0,0,0,11.39,11.26,11.26,0,0,0,19.47.21,11.5,11.5,0,0,0,1.38-5.75,10.53,10.53,0,0,0-.71-4.44,10.42,10.42,0,0,0-2.48-3.75,10.62,10.62,0,0,0-3.64-2.5A10.4,10.4,0,0,0,395.85,463.73Z"/><path class="cls-3" d="M418.62,461h3.61v4.79a16.86,16.86,0,0,1,3.83-3.94,11.71,11.71,0,0,1,5.85-1.6,9.13,9.13,0,0,1,3.83.75,8.28,8.28,0,0,1,3.09,2.13,12.56,12.56,0,0,1,2,3.83,14,14,0,0,1,4.57-5,10.68,10.68,0,0,1,5.86-1.7,8.52,8.52,0,0,1,5.1,1.49,8.17,8.17,0,0,1,3.3,4.05,21.43,21.43,0,0,1,1.17,8v15.44h-3.72V473.31a20.11,20.11,0,0,0-.64-6.18,5.24,5.24,0,0,0-2.24-2.77,6.38,6.38,0,0,0-3.72-1.06,8.19,8.19,0,0,0-4.89,1.59,9.05,9.05,0,0,0-3.19,4.16,27,27,0,0,0-1,8.62v10.64h-3.62V473.84a24,24,0,0,0-.64-6.92,5.69,5.69,0,0,0-2.23-3,6.51,6.51,0,0,0-3.83-1.07,8.48,8.48,0,0,0-7.87,5.65,21.25,21.25,0,0,0-1.07,7.87v11.92h-3.61Z"/><path class="cls-3" d="M481.81,460.21a14.26,14.26,0,0,1,5.82,1.21,14.42,14.42,0,0,1,4.82,3.47,15.14,15.14,0,0,1,0,20.55,14.63,14.63,0,0,1-21.28,0,15.34,15.34,0,0,1,0-20.55,14.42,14.42,0,0,1,4.82-3.47A14.19,14.19,0,0,1,481.81,460.21Zm0,3.52a10.67,10.67,0,0,0-4.24.89,10.5,10.5,0,0,0-3.53,2.51,11.31,11.31,0,0,0-2.45,3.72,11.08,11.08,0,0,0-.84,4.37,12.15,12.15,0,0,0,1.48,5.75,11.31,11.31,0,0,0,4,4,10.72,10.72,0,0,0,5.53,1.49,11.59,11.59,0,0,0,5.64-1.49,11.29,11.29,0,0,0,5.42-9.8,10.56,10.56,0,0,0-.78-4.4,10.85,10.85,0,0,0-2.51-3.69,10.65,10.65,0,0,0-7.77-3.4Z"/><path class="cls-3" d="M517.55,464l-2.34,2.35a9,9,0,0,0-5.74-2.77,3.91,3.91,0,0,0-1.62.26,3.79,3.79,0,0,0-1.36.91,3.54,3.54,0,0,0-1.28,2.66,4.29,4.29,0,0,0,1,2.66,16.55,16.55,0,0,0,4.47,3,16.11,16.11,0,0,1,5.42,4.05,7.57,7.57,0,0,1,1.49,4.47,7.91,7.91,0,0,1-.62,3.18,7.81,7.81,0,0,1-1.83,2.67,8.22,8.22,0,0,1-2.83,1.85,8.45,8.45,0,0,1-3.34.6,9.68,9.68,0,0,1-4.57-1.06,10.68,10.68,0,0,1-3.72-3l2.23-2.56a8,8,0,0,0,6,3.2,5.3,5.3,0,0,0,3.72-1.49,4.12,4.12,0,0,0,1.14-1.48,4.08,4.08,0,0,0,.35-1.82,4.54,4.54,0,0,0-1-2.77,16.45,16.45,0,0,0-4.57-3A13.77,13.77,0,0,1,503.3,472a7.34,7.34,0,0,1,.85-9.69,7.23,7.23,0,0,1,2.53-1.66,7.5,7.5,0,0,1,3-.47A11.69,11.69,0,0,1,517.55,464Z"/><path class="cls-3" d="M566.91,450v39.18H563.3V484a15.57,15.57,0,0,1-5.11,4.15,13.62,13.62,0,0,1-6.27,1.39,14.08,14.08,0,0,1-10.64-4.37,15.15,15.15,0,0,1,0-21.29,13.65,13.65,0,0,1,4.84-3.34,13.86,13.86,0,0,1,5.8-1A12.81,12.81,0,0,1,558.3,461a14.51,14.51,0,0,1,4.89,4.36V449.25Zm-14.57,13.74a11.17,11.17,0,0,0-9.68,5.64,11.63,11.63,0,0,0,0,11.39,11.26,11.26,0,0,0,19.47.21,11.5,11.5,0,0,0,1.38-5.75,10.68,10.68,0,0,0-.71-4.44,10.55,10.55,0,0,0-2.48-3.75,10.72,10.72,0,0,0-3.64-2.5A10.43,10.43,0,0,0,552.34,463.73Z"/><path class="cls-3" d="M598.94,479.8l3.08,1.59a17.26,17.26,0,0,1-3.51,4.79A12,12,0,0,1,594,489a14.88,14.88,0,0,1-5.53,1,13.31,13.31,0,0,1-10.64-4.58,15.45,15.45,0,0,1-.64-19.8,14.8,14.8,0,0,1,22.77,0,15.58,15.58,0,0,1,3.08,9.69H577.77a11.13,11.13,0,0,0,.73,4.35,11.32,11.32,0,0,0,2.35,3.74,9.93,9.93,0,0,0,3.43,2.41,10.09,10.09,0,0,0,4.13.79,14.61,14.61,0,0,0,4.14-.75,11.39,11.39,0,0,0,3.51-2A21,21,0,0,0,598.94,479.8Zm0-7.56a11.87,11.87,0,0,0-2.13-4.68,10.62,10.62,0,0,0-3.73-2.88,12.1,12.1,0,0,0-4.78-1.06,10.57,10.57,0,0,0-7.13,2.77,11.45,11.45,0,0,0-3.3,5.85Z"/><path class="cls-3" d="M625,461h3.62v4.79a16.47,16.47,0,0,1,3.83-3.94,11.66,11.66,0,0,1,5.85-1.6,9.19,9.19,0,0,1,3.83.75,8.33,8.33,0,0,1,3.08,2.13,12.56,12.56,0,0,1,2,3.83,13.07,13.07,0,0,1,4.58-5,10.65,10.65,0,0,1,5.85-1.7,8.48,8.48,0,0,1,5.1,1.49,8.12,8.12,0,0,1,3.3,4.05,21,21,0,0,1,1.17,8v15.44h-3.72V473.31a19.8,19.8,0,0,0-.64-6.18,5.22,5.22,0,0,0-2.23-2.77,6.38,6.38,0,0,0-3.72-1.06,8.2,8.2,0,0,0-4.9,1.59,9.05,9.05,0,0,0-3.19,4.16,27.24,27.24,0,0,0-1,8.62v10.64h-3.61V473.84a24.38,24.38,0,0,0-.64-6.92,5.71,5.71,0,0,0-2.24-3,6.49,6.49,0,0,0-3.83-1.07,8.48,8.48,0,0,0-7.87,5.65,21.24,21.24,0,0,0-1.06,7.87v11.92H625Z"/><path class="cls-3" d="M702.45,461v28.21h-3V484a17.19,17.19,0,0,1-5.21,4.15,13.24,13.24,0,0,1-6.17,1.39,13.63,13.63,0,0,1-10.64-4.37,14.31,14.31,0,0,1-3.25-4.87,14.45,14.45,0,0,1-1-5.78,14.11,14.11,0,0,1,4.26-10.64,13.7,13.7,0,0,1,10.64-4.36,12.26,12.26,0,0,1,6.27,1.49,14.78,14.78,0,0,1,5,4.36v-5.11ZM688,463.73a11.18,11.18,0,0,0-9.68,17,9.83,9.83,0,0,0,4,4.26,10.8,10.8,0,0,0,11.28,0,10.76,10.76,0,0,0,4-4,11.68,11.68,0,0,0,1.49-5.75,10.68,10.68,0,0,0-.71-4.44A10.44,10.44,0,0,0,696,467a10.56,10.56,0,0,0-8-3.3Z"/><path class="cls-3" d="M710.64,461h3.61v5a15.74,15.74,0,0,1,4.9-4.36,11.85,11.85,0,0,1,5.74-1.39,10,10,0,0,1,5.64,1.6,9.63,9.63,0,0,1,3.62,4.36,23.44,23.44,0,0,1,1.17,8.52v14.48h-3.93V475.75a40.28,40.28,0,0,0,0-6.59,7.09,7.09,0,0,0-2.45-4.16,7.26,7.26,0,0,0-4.68-1.49,8.75,8.75,0,0,0-5.86,2.24,9.88,9.88,0,0,0-3.51,5.43,40.07,40.07,0,0,0-.53,7.66v10.65h-3.62Z"/><path class="cls-3" d="M766.91,479.8l3.09,1.59a17.26,17.26,0,0,1-3.51,4.79A13.05,13.05,0,0,1,762,489a14.92,14.92,0,0,1-5.53,1,13.31,13.31,0,0,1-10.64-4.58,14.91,14.91,0,0,1-3.94-10.64,15.38,15.38,0,0,1,3.3-9.58,13.73,13.73,0,0,1,11.28-5.33A13.94,13.94,0,0,1,768,465.21a15.58,15.58,0,0,1,3.08,9.69H745.64a11.83,11.83,0,0,0,3.19,8.09,9.93,9.93,0,0,0,7.55,3.19,13.94,13.94,0,0,0,4.15-.74,11.19,11.19,0,0,0,3.51-2A20.4,20.4,0,0,0,766.91,479.8Zm0-7.56a11.85,11.85,0,0,0-2.12-4.68,10.62,10.62,0,0,0-3.73-2.88,12.11,12.11,0,0,0-4.79-1.06,10.57,10.57,0,0,0-7.12,2.77,11.45,11.45,0,0,0-3.3,5.85Z"/><path class="cls-3" d="M776.28,461H780v4a16.29,16.29,0,0,1,3.51-3.62,7.65,7.65,0,0,1,3.83-1.17,6.11,6.11,0,0,1,3.19,1l-1.81,3.09a5.56,5.56,0,0,0-1.91-.53,5.16,5.16,0,0,0-3.51,1.48,9.37,9.37,0,0,0-2.66,4.69,45.53,45.53,0,0,0-.64,9.69v9.58h-3.72Z"/><path class="cls-3" d="M821.81,461v28.21H818.3V484a17.23,17.23,0,0,1-5.22,4.15,13.44,13.44,0,0,1-6.17,1.39,14.08,14.08,0,0,1-10.63-4.37,14.6,14.6,0,0,1-4.15-10.65,14.05,14.05,0,0,1,4.25-10.64A13.7,13.7,0,0,1,807,459.47,12.29,12.29,0,0,1,813.3,461a15,15,0,0,1,5,4.36v-5.11Zm-14.47,2.77a11.18,11.18,0,0,0-9.68,17,9.83,9.83,0,0,0,4,4.26A11.19,11.19,0,0,0,817,481a11.58,11.58,0,0,0,1.49-5.75,10.61,10.61,0,0,0-3.3-8.19,10.58,10.58,0,0,0-7.87-3.3Z"/><path class="cls-3" d="M204.57,521.53a3.41,3.41,0,0,1,2.13.85,3.18,3.18,0,0,1,.85,2.13,2.8,2.8,0,0,1-.21,1.15,3,3,0,0,1-.64,1,2.9,2.9,0,0,1-1,.65,3,3,0,0,1-1.16.2,2.9,2.9,0,0,1-2.13-.84,3,3,0,0,1-.65-1,2.86,2.86,0,0,1-.19-1.16,2.63,2.63,0,0,1,.19-1.15,2.83,2.83,0,0,1,.66-1,3.08,3.08,0,0,1,1-.64A3.16,3.16,0,0,1,204.57,521.53Zm-1.8,11.6h3.61v28.32h-3.61Z"/><path class="cls-3" d="M213.94,533.13h3.61V538a14,14,0,0,1,3.94-3.94,10.59,10.59,0,0,1,5.74-1.59,9.86,9.86,0,0,1,3.94.74,9,9,0,0,1,3,2.13,12.91,12.91,0,0,1,2,3.83,13,13,0,0,1,4.58-5,10.54,10.54,0,0,1,5.85-1.7,9,9,0,0,1,5.1,1.38,10.07,10.07,0,0,1,3.41,4.15,25.08,25.08,0,0,1,1.06,8v15.44h-3.51V546a20.47,20.47,0,0,0-.64-6.28,6.16,6.16,0,0,0-2.23-2.76,6.89,6.89,0,0,0-3.73-1,8.11,8.11,0,0,0-4.78,1.49,8.8,8.8,0,0,0-3.19,4.15,25,25,0,0,0-1.07,8.73V561H233.4V546.55a24.38,24.38,0,0,0-.63-6.92,5.75,5.75,0,0,0-2.24-3,6.31,6.31,0,0,0-3.72-1.07,8.79,8.79,0,0,0-4.79,1.49,8.55,8.55,0,0,0-3.19,4,21.06,21.06,0,0,0-1.06,7.88v12h-3.62Z"/><path class="cls-3" d="M263.83,533.13h3.72v5.22a16.24,16.24,0,0,1,4.9-4.47,13.49,13.49,0,0,1,6.27-1.38,13.91,13.91,0,0,1,10.64,4.25,15.17,15.17,0,0,1,0,21.3,14,14,0,0,1-4.84,3.34,13.86,13.86,0,0,1-5.8,1,13.76,13.76,0,0,1-11.27-5.64V572h-3.73Zm14.57,2.77a11.2,11.2,0,0,0-4.31.86,11,11,0,0,0-3.66,2.44,12.17,12.17,0,0,0-1.71,14.06,11.12,11.12,0,0,0,9.79,5.53,10.1,10.1,0,0,0,5.43-1.49,11.54,11.54,0,0,0,4.15-4.26,12.11,12.11,0,0,0,1.49-5.64,11.8,11.8,0,0,0-5-10.22A11.47,11.47,0,0,0,278.4,535.9Z"/><path class="cls-3" d="M328.3,533.13v28.32h-3.62v-4.9a15.69,15.69,0,0,1-5.11,4.26,15.44,15.44,0,0,1-6.27,1.39,13.85,13.85,0,0,1-10.64-4.37,14.45,14.45,0,0,1-4.26-10.64,14.35,14.35,0,0,1,4.26-10.65,14,14,0,0,1,10.64-4.26,13.34,13.34,0,0,1,6.27,1.38,16.5,16.5,0,0,1,5,4.48v-5.22Zm-14.58,2.77a11.54,11.54,0,0,0-5.64,1.49,11.85,11.85,0,0,0-5.53,10,11.28,11.28,0,0,0,21,5.86,12.46,12.46,0,0,0-1.81-14.06,10.53,10.53,0,0,0-3.64-2.5A10.73,10.73,0,0,0,313.72,535.9Z"/><path class="cls-3" d="M335.11,533.13h3.61v4a14.38,14.38,0,0,1,3.51-3.62,6.47,6.47,0,0,1,7.13,0l-1.91,3a4.77,4.77,0,0,0-1.92,0A5.13,5.13,0,0,0,342,538a8.62,8.62,0,0,0-2.55,4.58,44.66,44.66,0,0,0-.75,9.79V562h-3.61Z"/><path class="cls-3" d="M380.32,539.09l-2.87,1.71a12.22,12.22,0,0,0-10.64-4.9,11.92,11.92,0,0,0-4.65.78,11.67,11.67,0,0,0-4,2.52,11.52,11.52,0,0,0,2.45,18.1,13.21,13.21,0,0,0,16.81-3.41l2.87,1.92a14.44,14.44,0,0,1-5.43,4.68A17.15,17.15,0,0,1,367,562.2a15.71,15.71,0,0,1-10.64-4.26,13.94,13.94,0,0,1-4.47-10.65,15.35,15.35,0,0,1,7.77-13.09,17.22,17.22,0,0,1,8.09-1.92,15.38,15.38,0,0,1,5.42.85,14.89,14.89,0,0,1,4.47,2.24A10.59,10.59,0,0,1,380.32,539.09Z"/><path class="cls-3" d="M388.09,521.53a3.16,3.16,0,0,1,1.14.21,3.08,3.08,0,0,1,1,.64,2.83,2.83,0,0,1,.66,1,2.63,2.63,0,0,1,.19,1.15,2.86,2.86,0,0,1-.19,1.16,3,3,0,0,1-.65,1,2.9,2.9,0,0,1-2.13.84,2.46,2.46,0,0,1-1.11-.2,2.57,2.57,0,0,1-.92-.65,2.79,2.79,0,0,1-.72-.95,2.68,2.68,0,0,1-.24-1.18,3,3,0,0,1,.26-1.17,3,3,0,0,1,.7-1A2.86,2.86,0,0,1,388.09,521.53Zm-1.81,11.6h3.61v28.32h-3.61Z"/><path class="cls-3" d="M425.64,533.13v28.32H422v-4.9a14.72,14.72,0,0,1-5.11,4.26,14.91,14.91,0,0,1-6.17,1.39,14.08,14.08,0,0,1-10.63-4.37,14.78,14.78,0,0,1-3.14-4.91,14.93,14.93,0,0,1-1-5.73,14.29,14.29,0,0,1,4.25-10.65,14.81,14.81,0,0,1,16.6-2.88,15.08,15.08,0,0,1,4.89,4.48v-5.22Zm-14.57,2.77a10.66,10.66,0,0,0-5.54,1.49,11.64,11.64,0,0,0-5.64,10,13.15,13.15,0,0,0,4.34,9.1,10.7,10.7,0,0,0,8.33,2.34,12.37,12.37,0,0,0,8.29-5.58A12.05,12.05,0,0,0,419,539.2a10.53,10.53,0,0,0-3.64-2.5A10.71,10.71,0,0,0,411.07,535.9Z"/><path class="cls-3" d="M433.51,522.28h3.62v39.17h-3.62Z"/><path class="cls-3" d="M448.08,554.42l3.52,1.71-5.32,9.79-2.56-1.06Z"/><path class="cls-3" d="M502.13,522.28v39.17h-3.62v-4.9a14.72,14.72,0,0,1-5.11,4.26,14.94,14.94,0,0,1-6.17,1.39,14.15,14.15,0,0,1-5.78-1.05,14,14,0,0,1-4.86-3.32,15.06,15.06,0,0,1-4.25-10.64,14.26,14.26,0,0,1,4.36-10.65,14.81,14.81,0,0,1,16.6-2.88,15.08,15.08,0,0,1,4.89,4.48V522.28ZM487.56,535.9a10.66,10.66,0,0,0-5.54,1.49,11.64,11.64,0,0,0-5.64,10,12.11,12.11,0,0,0,1.49,5.64A11.54,11.54,0,0,0,482,557.3a11.36,11.36,0,0,0,15.32-4,12.46,12.46,0,0,0-1.81-14.06,10.6,10.6,0,0,0-8-3.3Z"/><path class="cls-3" d="M534.15,552.08l3.08,1.6a17.38,17.38,0,0,1-3.5,4.79,13.91,13.91,0,0,1-4.47,2.77,15.18,15.18,0,0,1-5.54,1,13.39,13.39,0,0,1-5.83-1.08,13.57,13.57,0,0,1-4.81-3.5A15.24,15.24,0,0,1,509.26,547a14.77,14.77,0,0,1,3.29-9.58,13.4,13.4,0,0,1,4.69-3.93,13.23,13.23,0,0,1,6-1.39,13.94,13.94,0,0,1,11.49,5.43,15.34,15.34,0,0,1,3.19,9.69H512.45a11.16,11.16,0,0,0,.73,4.35,11.32,11.32,0,0,0,2.35,3.74,10.56,10.56,0,0,0,7.56,3.08,12.83,12.83,0,0,0,7.65-2.66A16.74,16.74,0,0,0,534.15,552.08Zm0-7.66a10.51,10.51,0,0,0-5.74-7.45,13.11,13.11,0,0,0-4.9-1.07,10.69,10.69,0,0,0-7.13,2.66,12.61,12.61,0,0,0-3.3,5.86Z"/><path class="cls-3" d="M559.15,536.22l-2.34,2.45a7.93,7.93,0,0,0-2.59-2,8.06,8.06,0,0,0-3.16-.8,4.25,4.25,0,0,0-3,1.07,3.78,3.78,0,0,0-.93,1.24,3.66,3.66,0,0,0-.34,1.52,3.85,3.85,0,0,0,1.06,2.67,14.2,14.2,0,0,0,4.36,3,16.74,16.74,0,0,1,5.53,4,7.19,7.19,0,0,1,1.39,4.47,7.61,7.61,0,0,1-.58,3.2,7.52,7.52,0,0,1-1.87,2.66,8.38,8.38,0,0,1-6.06,2.45,11.64,11.64,0,0,1-4.68-1.07,10.62,10.62,0,0,1-3.73-3l2.34-2.55a8.08,8.08,0,0,0,2.59,2.17,7.81,7.81,0,0,0,3.26.91,5.26,5.26,0,0,0,2-.31,5.13,5.13,0,0,0,1.72-1.07,4.41,4.41,0,0,0,1.17-1.47,4.16,4.16,0,0,0,.42-1.83,3.94,3.94,0,0,0-1.06-2.77,14.78,14.78,0,0,0-4.15-3.4,16.25,16.25,0,0,1-5.21-3.94,7.86,7.86,0,0,1-1.38-4.37,7,7,0,0,1,.54-2.9,6.92,6.92,0,0,1,1.69-2.42,7.38,7.38,0,0,1,2.54-1.65,7.26,7.26,0,0,1,3-.48A11.25,11.25,0,0,1,559.15,536.22Z"/><path class="cls-3" d="M566.81,521.53a3.25,3.25,0,0,1,1.15.21,3.19,3.19,0,0,1,1,.64,3,3,0,0,1,.7,1,3,3,0,0,1,.25,1.17,2.54,2.54,0,0,1-.23,1.18,2.67,2.67,0,0,1-.72.95,2.63,2.63,0,0,1-1,.68,2.57,2.57,0,0,1-1.16.17,2.49,2.49,0,0,1-1.11-.2,2.46,2.46,0,0,1-.91-.65,2.62,2.62,0,0,1-1-2.13,3,3,0,0,1,.25-1.17,3,3,0,0,1,.71-1A2.84,2.84,0,0,1,566.81,521.53Zm-1.7,11.6h3.61v28.32h-3.61Z"/><path class="cls-3" d="M576.28,533.13h3.61v5.11a16.35,16.35,0,0,1,4.79-4.36,12,12,0,0,1,5.75-1.38,10,10,0,0,1,5.63,1.59,8.81,8.81,0,0,1,3.62,4.26,21.79,21.79,0,0,1,1.17,8.51v14.59h-3.61V547.83a29.43,29.43,0,0,0,0-6.5,7.26,7.26,0,0,0-2.35-4.26,7.45,7.45,0,0,0-4.68-1.38,8.85,8.85,0,0,0-6,2.23,9.94,9.94,0,0,0-3.4,5.33,39.57,39.57,0,0,0-.53,7.77v10.64H576.7Z"/><path class="cls-3" d="M611.81,522.7h3.72v10.65h5.75v3.19h-5.75v25.12h-3.72V536.54h-4.89v-3.19h4.89Z"/><path class="cls-3" d="M650.53,552.08l3.09,1.6a17.62,17.62,0,0,1-3.51,4.79,16.39,16.39,0,0,1-4.47,2.77,15.12,15.12,0,0,1-5.53,1,13.47,13.47,0,0,1-5.85-1.07,13.32,13.32,0,0,1-4.79-3.51,15.45,15.45,0,0,1-.64-19.8,13.4,13.4,0,0,1,11.28-5.32,13.77,13.77,0,0,1,6.4,1.33,14,14,0,0,1,5.09,4.09,15.3,15.3,0,0,1,3.08,9.69H629.26a11.74,11.74,0,0,0,3.19,8.09,10.58,10.58,0,0,0,7.55,3.09,11.5,11.5,0,0,0,4.15-.74,10.93,10.93,0,0,0,3.51-1.92A20.49,20.49,0,0,0,650.53,552.08Zm0-7.66a11.32,11.32,0,0,0-2.13-4.58,10.44,10.44,0,0,0-3.72-2.87,12.15,12.15,0,0,0-4.78-1.07,10.65,10.65,0,0,0-7.13,2.66,12.43,12.43,0,0,0-3.3,5.86Z"/><path class="cls-3" d="M659.89,533.13h3.73v4a11.45,11.45,0,0,1,3.51-3.62,6.68,6.68,0,0,1,3.83-1.17,6.14,6.14,0,0,1,3.19,1l-1.81,3a5.71,5.71,0,0,0-2,0,4.6,4.6,0,0,0-1.86.39,4.82,4.82,0,0,0-1.55,1.1,9.44,9.44,0,0,0-2.65,4.58,46.51,46.51,0,0,0-.64,9.79v9.58h-3.73Z"/><path class="cls-3" d="M701.06,552.08l3.09,1.6a17.62,17.62,0,0,1-3.51,4.79,13.91,13.91,0,0,1-4.47,2.77,15.16,15.16,0,0,1-5.53,1A13.39,13.39,0,0,1,680,557.62a15.76,15.76,0,0,1-.64-19.8,15,15,0,0,1,17.67-4,13.91,13.91,0,0,1,5.1,4.09,15.4,15.4,0,0,1,3.19,9.69H679.89A11.32,11.32,0,0,0,683,555.7a10.62,10.62,0,0,0,7.55,3.09,12.88,12.88,0,0,0,7.66-2.66A17.4,17.4,0,0,0,701.06,552.08Zm0-7.66a11.57,11.57,0,0,0-2.12-4.58,10.74,10.74,0,0,0-3.62-2.87,13.11,13.11,0,0,0-4.9-1.07,10.67,10.67,0,0,0-7.12,2.66,12.39,12.39,0,0,0-3.3,5.86Z"/><path class="cls-3" d="M726.06,536.22l-2.34,2.45a8,8,0,0,0-2.58-2,8.11,8.11,0,0,0-3.16-.8,4.23,4.23,0,0,0-3,1.07,3.75,3.75,0,0,0-.21,5.43,14.2,14.2,0,0,0,4.36,3,16.74,16.74,0,0,1,5.53,4,7.18,7.18,0,0,1,1.38,4.47,7.6,7.6,0,0,1-.57,3.2,7.78,7.78,0,0,1-1.87,2.66,8.38,8.38,0,0,1-6.07,2.45,11.68,11.68,0,0,1-4.68-1.07,10.68,10.68,0,0,1-3.72-3l2.34-2.55a8,8,0,0,0,2.59,2.17,7.77,7.77,0,0,0,3.26.91,5.24,5.24,0,0,0,2-.31,5,5,0,0,0,1.72-1.07,4.29,4.29,0,0,0,1.6-3.3,3.91,3.91,0,0,0-1.07-2.77,15,15,0,0,0-4.57-3,16,16,0,0,1-5.21-3.94,7.8,7.8,0,0,1-1.38-4.36,6.95,6.95,0,0,1,2.23-5.32A7.24,7.24,0,0,1,715.2,533a7.1,7.1,0,0,1,3-.48,11.13,11.13,0,0,1,4.31,1.07A11.31,11.31,0,0,1,726.06,536.22Z"/><path class="cls-3" d="M760.64,533.13v28.32h-3.51v-4.9a16.19,16.19,0,0,1-5.22,4.26,14.91,14.91,0,0,1-6.17,1.39,14.12,14.12,0,0,1-10.64-4.37A14.9,14.9,0,0,1,731,547.19a14.29,14.29,0,0,1,4.25-10.65,14,14,0,0,1,10.64-4.26,13.71,13.71,0,0,1,6.27,1.38,16.65,16.65,0,0,1,5,4.48v-5.22Zm-14.47,2.77a11.48,11.48,0,0,0-5.64,1.49,11.27,11.27,0,0,0-3.33,3,11.38,11.38,0,0,0-2.19,8.47,11.27,11.27,0,0,0,1.48,4.21,11.12,11.12,0,0,0,19.36.22,12.4,12.4,0,0,0,.7-10.25A11.28,11.28,0,0,0,754,539.2a10.49,10.49,0,0,0-3.59-2.47A10.64,10.64,0,0,0,746.17,535.9Z"/><path class="cls-3" d="M797,522.28v39.17h-3.51v-4.9a16.26,16.26,0,0,1-5.21,4.26,14.64,14.64,0,0,1-6.17,1.39,13.63,13.63,0,0,1-10.64-4.37,14.39,14.39,0,0,1-4.25-10.64,14.19,14.19,0,0,1,4.25-10.65,14,14,0,0,1,10.64-4.26,13.74,13.74,0,0,1,6.27,1.38,16.5,16.5,0,0,1,5,4.48V522.28ZM782.55,535.9a11.06,11.06,0,0,0-9,4.46,11.15,11.15,0,0,0-1.94,4,11.4,11.4,0,0,0,1.23,8.67,11.13,11.13,0,0,0,19.37.22,11.71,11.71,0,0,0,1.48-5.76,11.15,11.15,0,0,0-.79-4.49,11.41,11.41,0,0,0-2.5-3.81,10.68,10.68,0,0,0-7.88-3.3Z"/><path class="cls-3" d="M833.4,533.13v28.32h-3.51v-4.9a16.15,16.15,0,0,1-5.21,4.26,14.64,14.64,0,0,1-6.17,1.39,13.66,13.66,0,0,1-10.64-4.37,14.49,14.49,0,0,1-4.25-10.64,14.39,14.39,0,0,1,14.89-14.91,13.38,13.38,0,0,1,6.28,1.38,16.74,16.74,0,0,1,5,4.48v-5.22Zm-14.46,2.77A11.33,11.33,0,0,0,809.26,553a11.12,11.12,0,0,0,19.36.22,12.19,12.19,0,0,0-1.7-14.06,11.36,11.36,0,0,0-8-3.3Z"/><path class="cls-3" d="M853.3,533.13h3.82l9.79,21.29,9.37-21.29h4L863.4,571.78H859l5.43-12.46Z"/><path class="cls-3" d="M233.62,605.42v28.31H230v-4.89a13.4,13.4,0,0,1-5.11,4.15,14,14,0,0,1-16.49-2.88,15.25,15.25,0,0,1,0-21.29A14.26,14.26,0,0,1,219,604.46a14.18,14.18,0,0,1,6.39,1.49,14.94,14.94,0,0,1,4.89,4.47V605.2ZM219,608.18a10.74,10.74,0,0,0-9.68,5.76,10.62,10.62,0,0,0-1.49,5.64,11.61,11.61,0,0,0,5.64,10,10.66,10.66,0,0,0,5.53,1.5,11.71,11.71,0,0,0,5.64-1.5,10.67,10.67,0,0,0,4.15-4,11.94,11.94,0,0,0,1.38-5.86,11.48,11.48,0,0,0-3.19-8.2,10.7,10.7,0,0,0-8-3.3Z"/><path class="cls-3" d="M269.15,611.7l-2.87,1.81a11.89,11.89,0,0,0-10.11-4.9,11.65,11.65,0,0,0-8.62,3.3A11.52,11.52,0,0,0,250,630a13.25,13.25,0,0,0,6.17,1.49,12,12,0,0,0,10.11-5l2.87,1.91a13.23,13.23,0,0,1-5.43,4.79,17.79,17.79,0,0,1-7.76,1.71,15.45,15.45,0,0,1-10.64-4.26A14,14,0,0,1,240.85,620a14.48,14.48,0,0,1,2.13-7.55,13.34,13.34,0,0,1,5.64-5.54,17,17,0,0,1,8.08-2,16.44,16.44,0,0,1,9.79,3.08A12.46,12.46,0,0,1,269.15,611.7Z"/><path class="cls-3" d="M279.36,595H283v10.65h5.74v3.19H283V634h-3.62V608.82h-5.42v-3.19h5Z"/><path class="cls-3" d="M293.72,605.42h3.62v13.2a30.72,30.72,0,0,0,.53,6.7,7.13,7.13,0,0,0,3,4,8.62,8.62,0,0,0,5.21,1.49,8.83,8.83,0,0,0,5.22-1.38,9.07,9.07,0,0,0,3-3.94,30.79,30.79,0,0,0,0-6.92v-13.2H318v14a22.57,22.57,0,0,1-1.38,8.72,10.72,10.72,0,0,1-4.15,4.69,14.71,14.71,0,0,1-13.73,0,10.72,10.72,0,0,1-4.15-4.69,22.14,22.14,0,0,1-1.38-9.05Z"/><path class="cls-3" d="M354.68,605.42v28.31h-3.62v-4.89A13.37,13.37,0,0,1,346,633a13.53,13.53,0,0,1-6.17,1.49,14,14,0,0,1-10.64-4.37A15,15,0,0,1,325,619.47a14.69,14.69,0,0,1,1.08-5.63,14.46,14.46,0,0,1,3.15-4.79,14.63,14.63,0,0,1,10.34-4.38,13.67,13.67,0,0,1,6.28,1.49,14,14,0,0,1,4.9,4.47v-5.21Zm-14.47,2.76a11.48,11.48,0,0,0-5.63,1.5,12.21,12.21,0,0,0-5.64,9.9,12.22,12.22,0,0,0,5.64,10,11.13,11.13,0,0,0,11.16,0,10.61,10.61,0,0,0,4.15-4,11.88,11.88,0,0,0,1.49-5.86,10.58,10.58,0,0,0-3-8,10.64,10.64,0,0,0-8.19-3.52Z"/><path class="cls-3" d="M362.87,605.42h3.62v5.11a15.74,15.74,0,0,1,4.89-4.37,11.71,11.71,0,0,1,5.75-1.49,9.67,9.67,0,0,1,9.25,6,23.72,23.72,0,0,1,1.17,8.52v14.58h-3.61V620.22a37.13,37.13,0,0,0,0-6.5,7.4,7.4,0,0,0-2.45-4.26,7.26,7.26,0,0,0-4.68-1.38,9,9,0,0,0-5.85,2.13,10.55,10.55,0,0,0-3.51,5.43,39.34,39.34,0,0,0-.54,7.66V634H363.3Z"/><path class="cls-3" d="M423.51,594.56v39.17H419.9v-4.89a14.64,14.64,0,0,1-11.28,5.64A14,14,0,0,1,398,630.11a15.13,15.13,0,0,1-4.26-10.64,14.14,14.14,0,0,1,1.07-5.78,14.42,14.42,0,0,1,3.29-4.87,14.12,14.12,0,0,1,4.86-3.32,14,14,0,0,1,5.78-1A13.57,13.57,0,0,1,415,606a14,14,0,0,1,4.9,4.47V594.34ZM409,608.18a11.64,11.64,0,0,0-11.27,11.4,12.24,12.24,0,0,0,5.63,10,11.17,11.17,0,0,0,11.18,0,10.64,10.64,0,0,0,4.14-4,11.88,11.88,0,0,0,1.49-5.86,10.6,10.6,0,0,0-3.3-8.2,10.68,10.68,0,0,0-7.87-3.3Z"/><path class="cls-3" d="M445.11,604.67A13.86,13.86,0,0,1,451,605.9a14,14,0,0,1,4.8,3.56,14.78,14.78,0,0,1,3.05,4.92,14.34,14.34,0,0,1,.88,5.73,14.7,14.7,0,0,1-4.15,10.64,13.68,13.68,0,0,1-4.83,3.4,14.63,14.63,0,0,1-16.44-3.4,16.35,16.35,0,0,1-.22-21.29,14.08,14.08,0,0,1,5-3.65A13.93,13.93,0,0,1,445.11,604.67Zm0,3.62a10.66,10.66,0,0,0-7.77,3.3,11.72,11.72,0,0,0-1.81,13.84,10.93,10.93,0,0,0,19.15,0,11.58,11.58,0,0,0,1.49-5.75,10.63,10.63,0,0,0-3.3-8.09,10.66,10.66,0,0,0-7.76-3.3Z"/><path class="cls-3" d="M495.53,608.51,493.19,611a8.29,8.29,0,0,0-2.58-2,8.14,8.14,0,0,0-3.16-.86,4.38,4.38,0,0,0-3,1.17,3.62,3.62,0,0,0-.94,1.25,3.74,3.74,0,0,0,.73,4.18,14,14,0,0,0,4.36,3,16.87,16.87,0,0,1,5.53,4.05,7.1,7.1,0,0,1,1.38,4.36,7.81,7.81,0,0,1-2.44,6,8.3,8.3,0,0,1-2.79,1.85,8.19,8.19,0,0,1-3.28.6,11.8,11.8,0,0,1-4.68-1.06,10.71,10.71,0,0,1-3.73-3l2.35-2.56a8,8,0,0,0,5.85,3.09,5.06,5.06,0,0,0,2-.32,5.13,5.13,0,0,0,1.72-1.07,4,4,0,0,0,1.17-1.47,4.28,4.28,0,0,0,.43-1.83,3.94,3.94,0,0,0-1.07-2.76,13.37,13.37,0,0,0-4.57-3,16.23,16.23,0,0,1-5.22-3.93,7.94,7.94,0,0,1-1.38-4.37,7.1,7.1,0,0,1,.55-3,7.25,7.25,0,0,1,1.69-2.48,7.78,7.78,0,0,1,5.53-2.13A11.51,11.51,0,0,1,495.53,608.51Z"/><path class="cls-3" d="M503.19,593.81a3.05,3.05,0,0,1,1.15.22,2.87,2.87,0,0,1,1,.64,2.85,2.85,0,0,1,0,4.25,3,3,0,0,1-2.13.85,2.84,2.84,0,0,1-2-.85,2.8,2.8,0,0,1-.7-1,2.95,2.95,0,0,1,0-2.33,2.8,2.8,0,0,1,.7-1A2.85,2.85,0,0,1,503.19,593.81Zm-1.81,11.61h3.73v28.31h-3.73Z"/><path class="cls-3" d="M512.66,605.42h3.62v5.11a16.62,16.62,0,0,1,4.78-4.37,12.27,12.27,0,0,1,5.75-1.49,10.08,10.08,0,0,1,5.64,1.6,9.56,9.56,0,0,1,3.61,4.36,21.1,21.1,0,0,1,1.17,8.52v14.58h-3.61V620.22a29.43,29.43,0,0,0,0-6.5,7.26,7.26,0,0,0-2.35-4.26,7.44,7.44,0,0,0-4.68-1.38,9.23,9.23,0,0,0-6,2.13,10.65,10.65,0,0,0-3.41,5.43,32.26,32.26,0,0,0-.53,7.66V634h-3.62Z"/><path class="cls-3" d="M559.89,605.42h3.62v5.21a15.05,15.05,0,0,1,4.89-4.47,13.73,13.73,0,0,1,6.28-1.49,14.7,14.7,0,0,1,14.58,14.8,14.93,14.93,0,0,1-1,5.76,14.64,14.64,0,0,1-3.21,4.88A13.91,13.91,0,0,1,568.62,633a13.4,13.4,0,0,1-5.11-4.15v14.8h-3.62Zm14.47,2.76a11.11,11.11,0,0,0-11.17,11.5,12,12,0,0,0,1.49,5.86,10.67,10.67,0,0,0,4.15,4,11.49,11.49,0,0,0,5.64,1.5,11.39,11.39,0,0,0,11.06-11.5,11.81,11.81,0,0,0-5.53-9.9A11.49,11.49,0,0,0,574.36,608.18Z"/><path class="cls-3" d="M594.68,605.42h3.72v4.15a12.74,12.74,0,0,1,3.51-3.62,7,7,0,0,1,3.83-1.28,6.27,6.27,0,0,1,3.2,1l-1.81,3.09a5.16,5.16,0,0,0-1.92,0,4.78,4.78,0,0,0-3.51,1.49,9,9,0,0,0-2.66,4.58,47.88,47.88,0,0,0-.64,9.79v9.58h-3.72Z"/><path class="cls-3" d="M635.64,624.37l3.08,1.59a18.21,18.21,0,0,1-3.51,4.79,13.37,13.37,0,0,1-4.47,2.77,15.09,15.09,0,0,1-5.53,1,13.79,13.79,0,0,1-5.81-1.13,14,14,0,0,1-4.83-3.45,15.43,15.43,0,0,1-3.82-10.64,14.73,14.73,0,0,1,3.29-9.58,13.29,13.29,0,0,1,10.64-5.43,14.07,14.07,0,0,1,11.49,5.53,15.15,15.15,0,0,1,3.19,9.69h-25a11.37,11.37,0,0,0,3.08,8.09,10.62,10.62,0,0,0,7.56,3.09,10.53,10.53,0,0,0,4.15-.75,11.39,11.39,0,0,0,3.51-2A14.54,14.54,0,0,0,635.64,624.37Zm0-7.67a11.22,11.22,0,0,0-2.13-4.68,10.46,10.46,0,0,0-3.62-2.77,11.32,11.32,0,0,0-4.89-1.07,10.65,10.65,0,0,0-7.13,2.67,11.9,11.9,0,0,0-3.3,5.85Z"/><path class="cls-3" d="M646.28,605.42H650V638a8.76,8.76,0,0,1-1.27,5.21,4.28,4.28,0,0,1-3.52,1.6,10.67,10.67,0,0,1-4.15-1v-3.2a6.76,6.76,0,0,0,2.56.75,2.2,2.2,0,0,0,2.23-1.28,7.16,7.16,0,0,0,0-3.19Zm1.81-11.61a3,3,0,0,1,1.14.22,2.78,2.78,0,0,1,1,.64,3.08,3.08,0,0,1,0,4.25,3,3,0,0,1-2.12.85,3,3,0,0,1,0-6Z"/><path class="cls-3" d="M656.92,605.42h3.61v13.2a31.26,31.26,0,0,0,0,6.7,7.13,7.13,0,0,0,3,4,8.62,8.62,0,0,0,5.21,1.49,9.41,9.41,0,0,0,5.22-1.38,8.15,8.15,0,0,0,2.87-3.94,30.31,30.31,0,0,0,.53-6.92v-13.2h3.72v14a20.6,20.6,0,0,1-1.38,8.72,10.71,10.71,0,0,1-4,4.69,13.58,13.58,0,0,1-6.92,1.7,13.77,13.77,0,0,1-6.91-1.7,10.66,10.66,0,0,1-4.15-4.69,24.41,24.41,0,0,1-1.28-9.05Z"/><path class="cls-3" d="M691.06,593.81a2.87,2.87,0,0,1,2.74,2.38,2.87,2.87,0,1,1-4.87-1.52A3.19,3.19,0,0,1,691.06,593.81Zm-1.81,11.61h3.62v28.31h-4Z"/><path class="cls-3" d="M727.87,611.7,725,613.51a12.22,12.22,0,0,0-10.64-4.9,11.91,11.91,0,0,0-8.62,3.3A11.42,11.42,0,0,0,708.3,630a12.79,12.79,0,0,0,6.06,1.49,12.31,12.31,0,0,0,5.95-1.15A12.45,12.45,0,0,0,725,626.5l2.87,1.91a14.7,14.7,0,0,1-5.42,4.79,18.48,18.48,0,0,1-7.77,1.71,15.86,15.86,0,0,1-11.17-4.26A14,14,0,0,1,699.15,620a14.33,14.33,0,0,1,2-7.55,14.05,14.05,0,0,1,5.64-5.54,17,17,0,0,1,8.08-2,17.91,17.91,0,0,1,5.43.85,19.66,19.66,0,0,1,4.47,2.23A14.17,14.17,0,0,1,727.87,611.7Z"/><path class="cls-3" d="M736.07,593.81a3,3,0,0,1,1.14.22,3.27,3.27,0,0,1,1.68,1.6,2.84,2.84,0,0,1,0,2.33,3.06,3.06,0,0,1-2.82,1.81,2.86,2.86,0,0,1-2-.85,3.08,3.08,0,0,1,0-4.25A2.87,2.87,0,0,1,736.07,593.81Zm-1.71,11.61H738v28.31h-3.62Z"/><path class="cls-3" d="M758.83,604.67a14,14,0,0,1,10.64,4.79,14.55,14.55,0,0,1,3.94,10.65,14.7,14.7,0,0,1-4.15,10.64,13.9,13.9,0,0,1-10.64,4.48A14,14,0,0,1,748,630.75a16.37,16.37,0,0,1-.21-21.29,14,14,0,0,1,11.06-4.79Zm0,3.62a10.66,10.66,0,0,0-7.76,3.3,11.68,11.68,0,0,0-1.81,13.84,10.53,10.53,0,0,0,9.57,5.54,11.44,11.44,0,0,0,5.64-1.39,11.75,11.75,0,0,0,5.43-9.9,10.72,10.72,0,0,0-3.3-8.09,10.66,10.66,0,0,0-7.77-3.3Z"/><path class="cls-3" d="M794.57,608.51,792.24,611a8.54,8.54,0,0,0-5.75-2.87,4.38,4.38,0,0,0-3,1.17,3.75,3.75,0,0,0-.94,1.25,3.74,3.74,0,0,0,.73,4.18,14,14,0,0,0,4.36,3,16.11,16.11,0,0,1,5.42,4.05,7.23,7.23,0,0,1,1.49,4.36,8.15,8.15,0,0,1-2.45,6,8.25,8.25,0,0,1-6.16,2.45,10.66,10.66,0,0,1-8.3-4l2.23-2.56a8.2,8.2,0,0,0,2.65,2.18,8.35,8.35,0,0,0,3.31.91,5.23,5.23,0,0,0,3.73-1.39,4.08,4.08,0,0,0,1.16-1.47,4.28,4.28,0,0,0,.43-1.83,4.38,4.38,0,0,0-1.07-2.76,14.47,14.47,0,0,0-4.57-3,16.08,16.08,0,0,1-5.21-3.93,7.87,7.87,0,0,1-.84-7.32,7.25,7.25,0,0,1,1.69-2.48,7.85,7.85,0,0,1,2.55-1.62,7.58,7.58,0,0,1,3-.51A11.7,11.7,0,0,1,794.57,608.51Z"/><path class="cls-3" d="M839.47,624.37l3.08,1.59a18.37,18.37,0,0,1-3.4,4.79,16.15,16.15,0,0,1-4.47,2.77,15.53,15.53,0,0,1-5.64,1,13.57,13.57,0,0,1-5.83-1.09,13.42,13.42,0,0,1-4.81-3.49,15.06,15.06,0,0,1-3.94-10.64,14.85,14.85,0,0,1,3.3-9.58,13.32,13.32,0,0,1,11.18-5.43,14,14,0,0,1,11.59,5.53,15,15,0,0,1,3.08,9.69H818.19a11.32,11.32,0,0,0,3.19,8.09,10.66,10.66,0,0,0,7.45,3.09,11.65,11.65,0,0,0,4.25-.75,12,12,0,0,0,3.41-2A14.54,14.54,0,0,0,839.47,624.37Zm0-7.67a11.22,11.22,0,0,0-2.13-4.68,10.46,10.46,0,0,0-3.62-2.77,11.14,11.14,0,0,0-12,1.6,12.89,12.89,0,0,0-3.3,5.85Z"/><path class="cls-3" d="M850.32,605.42h3.62v5.11a16.49,16.49,0,0,1,4.78-4.37,12.34,12.34,0,0,1,5.85-1.49,9.89,9.89,0,0,1,5.54,1.6,9.56,9.56,0,0,1,3.61,4.36,21.1,21.1,0,0,1,1.17,8.52v14.58h-3.62V620.22a39.19,39.19,0,0,0,0-6.5,7.33,7.33,0,0,0-2.44-4.26,7.45,7.45,0,0,0-4.68-1.38,9.45,9.45,0,0,0-6,2.13,10.63,10.63,0,0,0-3.4,5.43,39.34,39.34,0,0,0-.54,7.66V634h-3.61Z"/><path class="cls-3" d="M270.43,667.16h3.51v10.65h5.74V681h-5.74v25.12h-3.73V680.9h-4.89v-3.2h4.89Z"/><path class="cls-3" d="M298.72,677a13.94,13.94,0,0,1,10.64,4.79,14.88,14.88,0,0,1,3.83,10.64,15.05,15.05,0,0,1-4,10.65,13.92,13.92,0,0,1-10.64,4.36,13.73,13.73,0,0,1-5.8-1,13.9,13.9,0,0,1-4.84-3.35,14.71,14.71,0,0,1-4.15-10.65,14.55,14.55,0,0,1,3.94-10.64,13.9,13.9,0,0,1,5-3.66A13.76,13.76,0,0,1,298.72,677Zm0,3.61a10.64,10.64,0,0,0-7.87,3.31,11.12,11.12,0,0,0-2.4,3.72,11.25,11.25,0,0,0-.79,4.37,10.6,10.6,0,0,0,1.49,5.74,9.91,9.91,0,0,0,4,4,11,11,0,0,0,15.11-4,12.23,12.23,0,0,0,1.49-5.74,11.44,11.44,0,0,0-3.3-8.09,10.6,10.6,0,0,0-3.54-2.46A10.8,10.8,0,0,0,298.72,680.57Z"/><path class="cls-3" d="M348.4,666.73V706h-3.61v-4.9a15.57,15.57,0,0,1-5.11,4.15,14.56,14.56,0,0,1-16.49-2.87,15.22,15.22,0,0,1,0-21.29,14.19,14.19,0,0,1,4.86-3.31,14.47,14.47,0,0,1,5.78-1.06,14.24,14.24,0,0,1,6.38,1.49,13.8,13.8,0,0,1,4.89,4.47V666.52Zm-14.57,13.74a11.59,11.59,0,0,0-5.64,1.49,10.62,10.62,0,0,0-4,4.26,11.48,11.48,0,0,0-1.49,5.64,11.59,11.59,0,0,0,5.64,10,10.63,10.63,0,0,0,5.53,1.49,11.76,11.76,0,0,0,5.64-1.49,10.71,10.71,0,0,0,4.15-4.16,12.88,12.88,0,0,0,.62-10.16,11.35,11.35,0,0,0-2.43-3.78,10.6,10.6,0,0,0-8-3.3Z"/><path class="cls-3" d="M369.68,677a14,14,0,0,1,10.64,4.79,16.37,16.37,0,0,1-.21,21.29,14.07,14.07,0,0,1-4.85,3.33A14.69,14.69,0,0,1,358.83,703a16.68,16.68,0,0,1-3.27-16.37,14.55,14.55,0,0,1,3.06-4.92A13.85,13.85,0,0,1,369.68,677Zm0,3.61a10.64,10.64,0,0,0-4.28.83,10.51,10.51,0,0,0-3.59,2.48,11.3,11.3,0,0,0-2.41,3.72,11.42,11.42,0,0,0-.78,4.37,12.11,12.11,0,0,0,1.48,5.74,9.94,9.94,0,0,0,4,4,11.06,11.06,0,0,0,15.11-4,12.11,12.11,0,0,0,1.48-5.74,11.37,11.37,0,0,0-3.29-8.09,10.66,10.66,0,0,0-7.77-3.31Z"/><path class="cls-3" d="M405.64,680.79l-2.34,2.45a8.31,8.31,0,0,0-5.64-2.88,4.58,4.58,0,0,0-3.09,1.17,3.75,3.75,0,0,0-.94,1.25,3.64,3.64,0,0,0,.73,4.08,12.55,12.55,0,0,0,4.36,3,16.85,16.85,0,0,1,5.54,4.15,7.18,7.18,0,0,1,1.38,4.36,7.81,7.81,0,0,1-2.45,6,8.23,8.23,0,0,1-2.79,1.79,8.11,8.11,0,0,1-3.27.55,10.66,10.66,0,0,1-4.68-1.07,8.92,8.92,0,0,1-3.72-2.87l2.33-2.66a8.12,8.12,0,0,0,2.57,2.24,7.77,7.77,0,0,0,3.29,1,5.24,5.24,0,0,0,2-.31,5.4,5.4,0,0,0,1.72-1.07,4.41,4.41,0,0,0,1.17-1.47,4.31,4.31,0,0,0,.43-1.83,3.85,3.85,0,0,0-.25-1.5,3.65,3.65,0,0,0-.82-1.27,14.57,14.57,0,0,0-4.58-3.09,14.57,14.57,0,0,1-5.2-3.83,8,8,0,0,1-1.39-4.47,6.87,6.87,0,0,1,.55-2.9,7,7,0,0,1,1.69-2.43,7.74,7.74,0,0,1,5.53-2.12A11.46,11.46,0,0,1,405.64,680.79Z"/><path class="cls-3" d="M426.28,666.73h3.61V706h-3.61Z"/><path class="cls-3" d="M450.85,677a14,14,0,0,1,10.64,4.79,16.37,16.37,0,0,1-.21,21.29A15.11,15.11,0,0,1,440,703a14.71,14.71,0,0,1-4.15-10.65,15,15,0,0,1,3.94-10.64A13.85,13.85,0,0,1,450.85,677Zm0,3.61a10.66,10.66,0,0,0-7.77,3.31,10.66,10.66,0,0,0-3.29,8.09,12.11,12.11,0,0,0,1.48,5.74,9.94,9.94,0,0,0,4.05,4,11.06,11.06,0,0,0,15.11-4,12.23,12.23,0,0,0,1.49-5.74,11.54,11.54,0,0,0-.85-4.38,11.26,11.26,0,0,0-2.45-3.71,10.62,10.62,0,0,0-7.77-3.31Z"/><path class="cls-3" d="M486.7,680.79l-2.34,2.45a8.3,8.3,0,0,0-5.63-2.88,4.73,4.73,0,0,0-3.09,1.17,3.62,3.62,0,0,0-.21,5.33,13.48,13.48,0,0,0,4.36,3,15.75,15.75,0,0,1,5.53,4.15,7.12,7.12,0,0,1,1.38,4.36,7.71,7.71,0,0,1-.58,3.25,8,8,0,0,1-1.86,2.72,8.27,8.27,0,0,1-6.07,2.34,10.69,10.69,0,0,1-4.68-1.07,9.7,9.7,0,0,1-3.72-2.87l2.34-2.66a7.81,7.81,0,0,0,2.61,2.27,8,8,0,0,0,3.35.92,5.42,5.42,0,0,0,3.72-1.38,4.65,4.65,0,0,0,1.49-3.3,3.74,3.74,0,0,0-1.07-2.77,14.65,14.65,0,0,0-4.57-3.09,14.61,14.61,0,0,1-5.21-3.83,8,8,0,0,1-1.39-4.47,7.09,7.09,0,0,1,2.24-5.33,7.77,7.77,0,0,1,5.53-2.12A11.46,11.46,0,0,1,486.7,680.79Z"/><path class="cls-3" d="M535.85,677.7V706h-3.61v-4.9a15.77,15.77,0,0,1-5.11,4.15,13.53,13.53,0,0,1-6.28,1.39,14,14,0,0,1-10.64-4.26A15.09,15.09,0,0,1,506,691.76,14.31,14.31,0,0,1,507,686a14.17,14.17,0,0,1,3.3-4.86,13.74,13.74,0,0,1,4.84-3.34,13.9,13.9,0,0,1,5.8-1,14.27,14.27,0,0,1,6.38,1.49,13.92,13.92,0,0,1,4.9,4.47v-5.21Zm-14.58,2.77a10.59,10.59,0,0,0-5.53,1.49,11.62,11.62,0,0,0-4.14,15.65,11.66,11.66,0,0,0,4.14,4.26,11.16,11.16,0,0,0,10.64,0,10.58,10.58,0,0,0,4.15-4.16,11.39,11.39,0,0,0,1.38-5.74,11.27,11.27,0,0,0-3.19-8.2,10.62,10.62,0,0,0-7.45-3.3Z"/><path class="cls-3" d="M558.19,680.79l-2.34,2.45a8.31,8.31,0,0,0-5.64-2.88,4.66,4.66,0,0,0-3.08,1.18,3.52,3.52,0,0,0-1,1.24,3.65,3.65,0,0,0-.33,1.52,4.19,4.19,0,0,0,1.06,2.56,13.63,13.63,0,0,0,4.37,3,15.58,15.58,0,0,1,5.53,4.15,7.23,7.23,0,0,1,1.49,4.36,8.29,8.29,0,0,1-.62,3.23,8.19,8.19,0,0,1-1.83,2.74,8.65,8.65,0,0,1-6.17,2.34,10.69,10.69,0,0,1-4.68-1.07,8.69,8.69,0,0,1-3.62-2.87l2.23-2.66a8.18,8.18,0,0,0,2.63,2.26,8,8,0,0,0,3.33.93,5.43,5.43,0,0,0,3.73-1.38,4.46,4.46,0,0,0,1.08-1.5,4.68,4.68,0,0,0,.41-1.8,4.21,4.21,0,0,0-1-2.77,18.12,18.12,0,0,0-4.57-3.09,13.76,13.76,0,0,1-5.22-3.83,7.25,7.25,0,0,1-1.38-4.47,7.32,7.32,0,0,1,2.13-5.33,8,8,0,0,1,5.63-2.12,11.27,11.27,0,0,1,7.77,3.83Z"/><path class="cls-3" d="M564.26,677.7h3.61v13.2a24,24,0,0,0,.53,6.6,7,7,0,0,0,3,4.15,9.12,9.12,0,0,0,5.22,1.49,8,8,0,0,0,5.1-1.49,7,7,0,0,0,3-3.83,29.71,29.71,0,0,0,.53-6.92V677.7h3.72v13.84a21.34,21.34,0,0,1-1.38,8.84,10.62,10.62,0,0,1-4,4.68,15.74,15.74,0,0,1-13.83,0,10.7,10.7,0,0,1-4.15-4.68,24.4,24.4,0,0,1-1.27-9Z"/><path class="cls-3" d="M597,677.7h3.62v5.11a14.31,14.31,0,0,1,4.89-4.36,11.57,11.57,0,0,1,5.74-1.49,10.63,10.63,0,0,1,5.65,1.59,10.74,10.74,0,0,1,3.61,4.37,23.86,23.86,0,0,1,1.17,8.51V706H618V692.5a41.49,41.49,0,0,0,0-6.5,7.37,7.37,0,0,0-2.45-4.25,7.26,7.26,0,0,0-4.68-1.39,9,9,0,0,0-6,2.13,10.71,10.71,0,0,0-3.4,5.43,38.61,38.61,0,0,0-.53,7.67v10.64h-3.62Z"/><path class="cls-3" d="M632.66,667.16h3.61v10.65H642V681h-5.75v25.12h-3.61V680.9h-5v-3.2h5Z"/><path class="cls-3" d="M660.85,677a14,14,0,0,1,10.64,4.79,14.92,14.92,0,0,1,3.83,10.64,14.64,14.64,0,0,1-4,10.65A15.11,15.11,0,0,1,650,703a14.71,14.71,0,0,1-4.15-10.65,15,15,0,0,1,3.94-10.64A13.85,13.85,0,0,1,660.85,677Zm0,3.61a10.71,10.71,0,0,0-4.22.85,10.5,10.5,0,0,0-3.54,2.46,10.38,10.38,0,0,0-2.52,3.69,10.5,10.5,0,0,0-.78,4.4,12.11,12.11,0,0,0,1.48,5.74,9.94,9.94,0,0,0,4.05,4,11.06,11.06,0,0,0,15.11-4,12.23,12.23,0,0,0,1.49-5.74,11.44,11.44,0,0,0-3.3-8.09,10.6,10.6,0,0,0-3.54-2.46A10.8,10.8,0,0,0,660.85,680.57Z"/><path class="cls-3" d="M696.49,680.79l-2.34,2.45a8.33,8.33,0,0,0-5.64-2.88,4.7,4.7,0,0,0-3.08,1.17,3.53,3.53,0,0,0-.95,1.25,3.64,3.64,0,0,0,.73,4.08,13.63,13.63,0,0,0,4.37,3,15.75,15.75,0,0,1,5.53,4.15,7.12,7.12,0,0,1,1.38,4.36,8,8,0,0,1-.56,3.23,8.1,8.1,0,0,1-1.78,2.74,8.65,8.65,0,0,1-6.17,2.34,10.69,10.69,0,0,1-4.68-1.07,9.73,9.73,0,0,1-3.73-2.87l2.35-2.66a7.81,7.81,0,0,0,2.61,2.27,8,8,0,0,0,3.34.92,5.44,5.44,0,0,0,3.73-1.38,4.75,4.75,0,0,0,1.08-1.5,4.49,4.49,0,0,0,.4-1.8A3.68,3.68,0,0,0,692,695.8a14.76,14.76,0,0,0-4.57-3.09,14.56,14.56,0,0,1-5.22-3.83,8.1,8.1,0,0,1-1.38-4.47,7,7,0,0,1,2.23-5.33,7.81,7.81,0,0,1,5.54-2.12A11.46,11.46,0,0,1,696.49,680.79Z"/><path class="cls-3" d="M745.85,677.7v38.64H742V701.12a15.63,15.63,0,0,1-5.1,4.15,13.56,13.56,0,0,1-6.28,1.39A14,14,0,0,1,720,702.4a15.43,15.43,0,0,1-3.18-16.28,15,15,0,0,1,3.15-4.79,14.81,14.81,0,0,1,4.74-3.22,14.62,14.62,0,0,1,5.61-1.15,13.29,13.29,0,0,1,6.39,1.55,13.46,13.46,0,0,1,4.89,4.41V677.7Zm-14.57,2.77a11.59,11.59,0,0,0-5.64,1.49,10.71,10.71,0,0,0-4,4.26,11.47,11.47,0,0,0-1.48,5.64,11.61,11.61,0,0,0,5.63,10,10.69,10.69,0,0,0,5.54,1.49,11.76,11.76,0,0,0,5.64-1.49,10.62,10.62,0,0,0,4.14-4.16,11.5,11.5,0,0,0,1.39-5.74,11.33,11.33,0,0,0-3.2-8.2,10.51,10.51,0,0,0-3.59-2.48,10.8,10.8,0,0,0-4.28-.82Z"/><path class="cls-3" d="M753.51,677.7h3.62v13.2a28.66,28.66,0,0,0,.53,6.6,7,7,0,0,0,3,4.15,9.25,9.25,0,0,0,5.21,1.49,8.55,8.55,0,0,0,5.21-1.49,7.39,7.39,0,0,0,2.88-3.83,24.75,24.75,0,0,0,.53-6.92V677.7h3.72v13.84a23.12,23.12,0,0,1-1.28,8.84,10.61,10.61,0,0,1-4.14,4.68,13.57,13.57,0,0,1-6.92,1.6,13.14,13.14,0,0,1-6.81-1.6,9.84,9.84,0,0,1-4.15-4.68,22,22,0,0,1-1.38-9Z"/><path class="cls-3" d="M810.11,696.86l3.08,1.71a21.39,21.39,0,0,1-3.51,4.79,13.6,13.6,0,0,1-4.47,2.76,17.6,17.6,0,0,1-5.53.86A13.55,13.55,0,0,1,789,702.5a15.56,15.56,0,0,1-.64-19.9,14.85,14.85,0,0,1,5.08-4,14.68,14.68,0,0,1,17.69,4,15,15,0,0,1,3.08,9.58H788.83a11.59,11.59,0,0,0,3.19,8.09,9.93,9.93,0,0,0,3.43,2.41,10.25,10.25,0,0,0,4.12.79,12.1,12.1,0,0,0,7.66-2.77A18.28,18.28,0,0,0,810.11,696.86Zm0-7.56a12.84,12.84,0,0,0-2.13-4.68,10.1,10.1,0,0,0-3.73-2.77,11,11,0,0,0-11.91,1.6,12,12,0,0,0-3.3,5.85Z"/><path class="cls-3" d="M264.79,755.84l-2.87,1.81a13,13,0,0,0-4-3.43,12.82,12.82,0,0,0-5-1.53,12.8,12.8,0,0,0-9.74,3.26,10.67,10.67,0,0,0-3.4,8.09,11.35,11.35,0,0,0,1.59,5.85,10.65,10.65,0,0,0,4.26,4.26,12.76,12.76,0,0,0,6.17,1.49,12.29,12.29,0,0,0,10.11-5l2.87,1.92a12.4,12.4,0,0,1-5.43,4.68,16.69,16.69,0,0,1-7.76,1.7A14.94,14.94,0,0,1,241,774.68,13.8,13.8,0,0,1,236.49,764a15.86,15.86,0,0,1,2-7.67,15,15,0,0,1,5.75-5.53,16.72,16.72,0,0,1,8.08-1.92,19.6,19.6,0,0,1,5.43.85,12.91,12.91,0,0,1,4.36,2.24A12.32,12.32,0,0,1,264.79,755.84Z"/><path class="cls-3" d="M285.21,749.24a14.25,14.25,0,0,1,10.64,4.69,15.33,15.33,0,0,1,0,20.65,14.1,14.1,0,0,1-4.84,3.34,13.86,13.86,0,0,1-5.8,1,14.16,14.16,0,0,1-10.64-4.36,15.12,15.12,0,0,1-3.13-4.91,14.83,14.83,0,0,1-1-5.74,14.35,14.35,0,0,1,3.93-10.11,14,14,0,0,1,10.85-4.58Zm0,3.51a10.69,10.69,0,0,0-7.87,3.41,11.21,11.21,0,0,0-3.19,8.09,11.08,11.08,0,0,0,11.06,11.28,10.54,10.54,0,0,0,5.53-1.49,11.28,11.28,0,0,0,4.05-4,12.27,12.27,0,0,0,1.49-5.75,11.48,11.48,0,0,0-3.3-8.09,10.67,10.67,0,0,0-7.77-3.41Z"/><path class="cls-3" d="M305.85,750.09h3.62v4.15a14.78,14.78,0,0,1,3.51-3.72,7.55,7.55,0,0,1,3.83-1.17,6.76,6.76,0,0,1,3.3,1l-1.92,3.08a5.15,5.15,0,0,0-1.91-.53,5.35,5.35,0,0,0-3.51,1.49,9,9,0,0,0-2.56,4.68,45.37,45.37,0,0,0-.74,9.8v9.47h-3.62Z"/><path class="cls-3" d="M321.28,750.09H325v4.15a12,12,0,0,1,3.51-3.72,7,7,0,0,1,3.83-1.17,6.67,6.67,0,0,1,3.19,1l-1.91,3.08a5.14,5.14,0,0,0-1.92-.53,5.66,5.66,0,0,0-3.51,1.49,10.7,10.7,0,0,0-2.55,4.68,47.33,47.33,0,0,0-.64,9.8v9.47h-3.72Z"/><path class="cls-3" d="M362.45,768.83l3.08,1.6a17.77,17.77,0,0,1-3.51,4.79,12.12,12.12,0,0,1-4.47,2.76,14.92,14.92,0,0,1-5.53,1,13.5,13.5,0,0,1-10.64-4.47,15.56,15.56,0,0,1-.63-19.91,14.78,14.78,0,0,1,22.76,0,15.65,15.65,0,0,1,3.09,9.69H341a11.8,11.8,0,0,0,3.19,8.09,9.93,9.93,0,0,0,7.55,3.19,14,14,0,0,0,4.15-.74,11.19,11.19,0,0,0,3.51-2A17.87,17.87,0,0,0,362.45,768.83Zm0-7.56a12.84,12.84,0,0,0-2.13-4.68,9,9,0,0,0-3.73-2.77,11,11,0,0,0-11.91,1.59,11.55,11.55,0,0,0-3.3,5.86Z"/><path class="cls-3" d="M387.45,753.07l-2.35,2.45a8.48,8.48,0,0,0-5.74-2.87,4.35,4.35,0,0,0-3,1.17,3.58,3.58,0,0,0-.94,1.24,3.66,3.66,0,0,0-.33,1.53,3.81,3.81,0,0,0,1.06,2.55,12.33,12.33,0,0,0,4.36,3,18.12,18.12,0,0,1,5.54,4,7.74,7.74,0,0,1,1.38,4.47,8.67,8.67,0,0,1-.63,3.22A8.31,8.31,0,0,1,385,776.6a8.41,8.41,0,0,1-2.79,1.8,8.13,8.13,0,0,1-3.27.54,10.6,10.6,0,0,1-8.41-3.94l2.24-2.66a8,8,0,0,0,2.63,2.24,8.09,8.09,0,0,0,3.32.95,5.69,5.69,0,0,0,3.72-1.38,4.41,4.41,0,0,0,1.16-1.48,4.59,4.59,0,0,0,.44-1.82A4.75,4.75,0,0,0,383,768a19.18,19.18,0,0,0-4.58-3,14.63,14.63,0,0,1-5.21-3.84,7.44,7.44,0,0,1-1.38-4.47,7.22,7.22,0,0,1,.54-2.9,7.06,7.06,0,0,1,1.69-2.42,7.63,7.63,0,0,1,2.56-1.62,7.53,7.53,0,0,1,3-.51A11.75,11.75,0,0,1,387.45,753.07Z"/><path class="cls-3" d="M393.93,750.09h3.62v5.22a13.36,13.36,0,0,1,11.17-6,14.58,14.58,0,0,1,5.61,1.15,14.71,14.71,0,0,1,9,13.65,14.6,14.6,0,0,1-4.15,10.64,13.73,13.73,0,0,1-4.84,3.35,15.66,15.66,0,0,1-12-.37,15.69,15.69,0,0,1-5.11-4.15v15.22h-3.61Zm14.58,2.77a10.6,10.6,0,0,0-8,3.3,11.17,11.17,0,0,0-2.42,3.78,11.29,11.29,0,0,0-.77,4.42,11.49,11.49,0,0,0,1.38,5.74,10.71,10.71,0,0,0,4.15,4.16,11.7,11.7,0,0,0,5.64,1.49,10.71,10.71,0,0,0,5.53-1.6,11.87,11.87,0,0,0,5.64-9.9,12.19,12.19,0,0,0-1.49-5.75,11.26,11.26,0,0,0-9.68-5.64Z"/><path class="cls-3" d="M443.51,749.24a14.25,14.25,0,0,1,10.64,4.69,14.71,14.71,0,1,1-21.28.1,13.94,13.94,0,0,1,4.8-3.56A13.8,13.8,0,0,1,443.51,749.24Zm0,3.51a10.71,10.71,0,0,0-7.77,3.41,10.71,10.71,0,0,0-2.51,3.69,10.5,10.5,0,0,0-.78,4.4,12.15,12.15,0,0,0,1.48,5.75,10.69,10.69,0,0,0,4.05,4,10.77,10.77,0,0,0,14.68-4,12.16,12.16,0,0,0,1.49-5.75,11.51,11.51,0,0,0-10.64-11.5Z"/><path class="cls-3" d="M465.43,750.09H469v5a16.13,16.13,0,0,1,4.79-4.26,10.65,10.65,0,0,1,5.74-1.49,9.94,9.94,0,0,1,5.64,1.59,9.07,9.07,0,0,1,3.62,4.37,21.25,21.25,0,0,1,1.17,8.51V778.3h-3.62V764.89a30.34,30.34,0,0,0,0-6.6,7.21,7.21,0,0,0-2.34-4.15,7.43,7.43,0,0,0-4.68-1.49,8.8,8.8,0,0,0-5.95,2.23,10.66,10.66,0,0,0-3.41,5.43,38.61,38.61,0,0,0-.53,7.67v10.64h-4Z"/><path class="cls-3" d="M525.64,739.45v39.17H522v-4.79a15.69,15.69,0,0,1-5.11,4.15,13.88,13.88,0,0,1-6.27,1.39A13.63,13.63,0,0,1,500,775a14.15,14.15,0,0,1-4.25-10.64A14.64,14.64,0,0,1,500,753.71a14.89,14.89,0,0,1,17-2.87,13.71,13.71,0,0,1,4.89,4.47V739.45Zm-14.58,13.73a11.76,11.76,0,0,0-5.64,1.49,10.67,10.67,0,0,0-4,4.15,11.84,11.84,0,0,0,0,11.5,11.66,11.66,0,0,0,9.68,5.75,11.81,11.81,0,0,0,5.64-1.49,10.68,10.68,0,0,0,4.15-4.15,11.56,11.56,0,0,0,1.38-5.76,11.17,11.17,0,0,0-.76-4.42,11.41,11.41,0,0,0-2.43-3.77,10.52,10.52,0,0,0-3.58-2.73,10.8,10.8,0,0,0-4.4-1Z"/><path class="cls-3" d="M557.66,768.83l3.09,1.6a17.6,17.6,0,0,1-3.52,4.79,13,13,0,0,1-4.46,2.76,15,15,0,0,1-5.54,1,13.51,13.51,0,0,1-5.82-1,13.35,13.35,0,0,1-4.81-3.43,15.3,15.3,0,0,1-3.94-10.65,15.85,15.85,0,0,1,3.3-9.58,14.79,14.79,0,0,1,22.76,0,15.57,15.57,0,0,1,3.09,9.69H536.38a11.83,11.83,0,0,0,3.19,8.09,10,10,0,0,0,7.56,3.2,14.68,14.68,0,0,0,4.15-.75,11.39,11.39,0,0,0,3.51-2A17.94,17.94,0,0,0,557.66,768.83Zm0-7.56a12.84,12.84,0,0,0-2.13-4.68,8.94,8.94,0,0,0-3.72-2.77,11,11,0,0,0-11.92,1.59,11.53,11.53,0,0,0-3.29,5.86Z"/><path class="cls-3" d="M568.4,750.09h3.41v5a15.05,15.05,0,0,1,4.89-4.26,11.28,11.28,0,0,1,11.38.1,9.6,9.6,0,0,1,3.62,4.37,23.86,23.86,0,0,1,1.17,8.51V778.3h-3.61V764.89a40.4,40.4,0,0,0,0-6.6,7.37,7.37,0,0,0-2.45-4.15,7.2,7.2,0,0,0-4.68-1.49,8.58,8.58,0,0,0-5.85,2.23,10.73,10.73,0,0,0-3.52,5.43,40.17,40.17,0,0,0-.53,7.67v10.64h-3.62Z"/><path class="cls-3" d="M643.72,750.09V778.3h-3.61v-4.79a15.77,15.77,0,0,1-5.11,4.15,13.46,13.46,0,0,1-6.17,1.39,13.74,13.74,0,0,1-5.8-1,13.55,13.55,0,0,1-4.84-3.35A14.6,14.6,0,0,1,614,764a14.84,14.84,0,0,1,1.08-5.63,14.69,14.69,0,0,1,13.5-9.17,13.65,13.65,0,0,1,6.27,1.49,12.9,12.9,0,0,1,4.89,4.47v-5.11Zm-14.47,2.77a11.45,11.45,0,0,0-5.63,1.49,11.59,11.59,0,0,0,0,19.8,10.68,10.68,0,0,0,5.53,1.6,11.51,11.51,0,0,0,5.64-1.49,10.62,10.62,0,0,0,4.14-4.16,11.54,11.54,0,0,0,1.49-5.74,10.75,10.75,0,0,0-.75-4.46,10.89,10.89,0,0,0-2.54-3.74,10.69,10.69,0,0,0-7.88-3.41Z"/><path class="cls-3" d="M651.38,739.45H655v39.17h-3.62Z"/><path class="cls-3" d="M705.42,750.09V778.3h-3.51v-4.79a17.07,17.07,0,0,1-5.21,4.15,13.07,13.07,0,0,1-6.17,1.39,13.33,13.33,0,0,1-10.64-4.37,15,15,0,0,1-3.27-16.41,15.17,15.17,0,0,1,3.27-4.88A14,14,0,0,1,690.53,749a13.57,13.57,0,0,1,6.28,1.49,14,14,0,0,1,5,4.47v-4.9ZM691,752.86a11.48,11.48,0,0,0-5.64,1.49,11.59,11.59,0,0,0,0,19.8,10.68,10.68,0,0,0,5.53,1.6,12.23,12.23,0,0,0,5.74-1.49,11.42,11.42,0,0,0,5.54-9.9A11.25,11.25,0,0,0,691,752.75Z"/><path class="cls-3" d="M741.06,755.84l-2.87,1.81a13,13,0,0,0-4-3.43A12.73,12.73,0,0,0,719.47,756,10.55,10.55,0,0,0,716,764a11.54,11.54,0,0,0,6,10.11,14.18,14.18,0,0,0,12,.31,12.45,12.45,0,0,0,4.69-3.82l2.88,1.91a13.61,13.61,0,0,1-5.43,4.69,17.07,17.07,0,0,1-7.76,1.7,15.36,15.36,0,0,1-11.17-4.26,14,14,0,0,1-3.32-4.85,14.2,14.2,0,0,1-1-5.79,14.86,14.86,0,0,1,2-7.67,15,15,0,0,1,5.74-5.53,16.33,16.33,0,0,1,8-1.92,17.8,17.8,0,0,1,5.42.85A12.47,12.47,0,0,1,738.4,752,13.71,13.71,0,0,1,741.06,755.84Z"/><path class="cls-3" d="M751.17,739.45h3.72v10.64h5.75v3.09h-5.75V778.3h-3.72V753.18h-4.89v-3.09h4.89Z"/><path class="cls-3" d="M765.64,750.09h3.62v13.2a29.22,29.22,0,0,0,.52,6.6,7.4,7.4,0,0,0,3,4.15,9.83,9.83,0,0,0,10.63,0,7.39,7.39,0,0,0,2.88-3.83,30.26,30.26,0,0,0,.53-6.92v-13.2h3.72v13.84a21.34,21.34,0,0,1-1.38,8.84,10.58,10.58,0,0,1-4,4.68,13.51,13.51,0,0,1-6.91,1.6,14,14,0,0,1-6.91-1.6,11.58,11.58,0,0,1-4.15-4.68,24.61,24.61,0,0,1-1.28-9Z"/><path class="cls-3" d="M827.13,750.09V778.3h-3.62v-4.79a15.57,15.57,0,0,1-5.11,4.15,13.88,13.88,0,0,1-6.27,1.39,13.66,13.66,0,0,1-10.64-4.37A14.21,14.21,0,0,1,797.23,764a14.71,14.71,0,0,1,4.26-10.65A14.26,14.26,0,0,1,812.13,749a14.14,14.14,0,0,1,6.38,1.49A13.71,13.71,0,0,1,823.4,755v-4.9Zm-14.58,2.77a11.65,11.65,0,0,0-5.64,1.49,10.67,10.67,0,0,0-4,4.15,11.84,11.84,0,0,0,0,11.5,11.66,11.66,0,0,0,9.68,5.75,11.7,11.7,0,0,0,5.64-1.49,10.64,10.64,0,0,0,4.15-4.16,11.39,11.39,0,0,0,1.38-5.74,11.11,11.11,0,0,0-.76-4.42,11.35,11.35,0,0,0-2.43-3.78,10.63,10.63,0,0,0-8.51-3.41Z"/><path class="cls-3" d="M833.4,750.09h3.73v4.15a11.77,11.77,0,0,1,3.51-3.72,6.94,6.94,0,0,1,3.83-1.17,6.71,6.71,0,0,1,3.19,1l-1.91,3.08a5.19,5.19,0,0,0-1.92-.53,5.66,5.66,0,0,0-3.51,1.49,10.6,10.6,0,0,0-2.55,4.68,46.65,46.65,0,0,0-.64,9.8v9.47H833.4Z"/><path class="cls-3" d="M394.79,822.27h3.62v5.11a14.76,14.76,0,0,1,5-4.37,12.32,12.32,0,0,1,6.28-1.49,13.74,13.74,0,0,1,10.64,4.26,14.65,14.65,0,0,1,3.27,4.88,14.44,14.44,0,0,1,1.09,5.77,14.56,14.56,0,0,1-4.26,10.64,14,14,0,0,1-10.63,4.37,13.51,13.51,0,0,1-6.28-1.39,16.64,16.64,0,0,1-5.1-4.15V861h-3.62ZM409.36,825a10.6,10.6,0,0,0-8,3.3,10.64,10.64,0,0,0-3.19,8.2,11.39,11.39,0,0,0,1.39,5.74,11,11,0,0,0,15.31,4.05,11.39,11.39,0,0,0,4.15-4.26,11.56,11.56,0,0,0,0-11.39,13.1,13.1,0,0,0-9.68-6.07Z"/><path class="cls-3" d="M429.68,822.27h3.83v4.05a13.67,13.67,0,0,1,3.41-3.62,7.62,7.62,0,0,1,3.93-1.18,6.79,6.79,0,0,1,3.19,1l-1.91,3.09a3.7,3.7,0,0,0-1.92-.53,5.63,5.63,0,0,0-3.51,1.49,8.67,8.67,0,0,0-2.55,4.68,46.28,46.28,0,0,0-.64,9.69v9.58h-3.72Z"/><path class="cls-3" d="M460.43,821.52a13.5,13.5,0,0,1,10.63,4.69,15.1,15.1,0,0,1,0,20.54,14.9,14.9,0,0,1-4.85,3.35,14.76,14.76,0,0,1-16.42-3.35,15.1,15.1,0,0,1,0-20.54,14.25,14.25,0,0,1,10.64-4.69Zm0,3.52a10.63,10.63,0,0,0-7.88,3.4,11.55,11.55,0,0,0,2.24,17.89,11.15,11.15,0,0,0,11.17,0,11.33,11.33,0,0,0,5.42-9.79,11.26,11.26,0,0,0-3.19-8.1,10.62,10.62,0,0,0-7.76-3.83Z"/><path class="cls-3" d="M493.51,811.3v3.52A10.62,10.62,0,0,0,490,814a3.75,3.75,0,0,0-1.7,0,1.55,1.55,0,0,0-.55.43,1.67,1.67,0,0,0-.3.63,8.77,8.77,0,0,0,0,3v3.83h5.85v3.09h-5.85v25.12h-3.73V824.93h-3.61v-3.09h3.61v-4.47a10.78,10.78,0,0,1,.64-4.36,4.14,4.14,0,0,1,1.81-2,6.58,6.58,0,0,1,3.3-.86A14.53,14.53,0,0,1,493.51,811.3Z"/><path class="cls-3" d="M522.34,841.11l3.09,1.6a17.45,17.45,0,0,1-3.52,4.79,13.76,13.76,0,0,1-4.46,2.77,15.16,15.16,0,0,1-5.53,1,13.28,13.28,0,0,1-10.64-4.58,15.42,15.42,0,0,1-.64-19.8,13.62,13.62,0,0,1,11.28-5.33,14,14,0,0,1,6.39,1.33,14.12,14.12,0,0,1,5.1,4.1,15.33,15.33,0,0,1,3.18,9.69H501.17a11.19,11.19,0,0,0,.74,4.36,11.36,11.36,0,0,0,2.34,3.73,10.07,10.07,0,0,0,3.44,2.41,9.85,9.85,0,0,0,4.12.78,11.4,11.4,0,0,0,4.15-.85,10.71,10.71,0,0,0,3.51-1.91A17.49,17.49,0,0,0,522.34,841.11Zm0-7.66a12.16,12.16,0,0,0-2.13-4.58,10.7,10.7,0,0,0-3.72-2.88,12.33,12.33,0,0,0-4.79-1.06,10.6,10.6,0,0,0-7.12,2.77,11.48,11.48,0,0,0-3.3,5.75Z"/><path class="cls-3" d="M547.34,825.36,545,827.7a8.58,8.58,0,0,0-5.75-2.77,4,4,0,0,0-1.61.27,3.89,3.89,0,0,0-1.36.9,3.5,3.5,0,0,0-.94,1.19,3.41,3.41,0,0,0-.34,1.47,3.84,3.84,0,0,0,1.06,2.66,14.05,14.05,0,0,0,4.37,3,16.7,16.7,0,0,1,5.53,4,7.31,7.31,0,0,1,1.38,4.47,7.61,7.61,0,0,1-.58,3.2,7.39,7.39,0,0,1-1.87,2.65,8.28,8.28,0,0,1-2.78,1.86,8.56,8.56,0,0,1-3.28.6,10.75,10.75,0,0,1-8.41-4.05l2.34-2.56a7.92,7.92,0,0,0,5.86,3.2,5.17,5.17,0,0,0,3.72-1.49,4.19,4.19,0,0,0,1.18-1.46,4.23,4.23,0,0,0,.42-1.84,4.69,4.69,0,0,0-1.07-2.77,16.45,16.45,0,0,0-4.57-3,14.76,14.76,0,0,1-5.22-3.94,7.37,7.37,0,0,1,.85-9.69,7.34,7.34,0,0,1,2.55-1.64,7.44,7.44,0,0,1,3-.49A11.51,11.51,0,0,1,547.34,825.36Z"/><path class="cls-3" d="M555,810.56a3,3,0,0,1,2.13.85,3.08,3.08,0,0,1,1,2.13,3.32,3.32,0,0,1-1,2.13,3.26,3.26,0,0,1-2.12,1,2.7,2.7,0,0,1-1.12-.26,2.47,2.47,0,0,1-.9-.7,2.62,2.62,0,0,1-1-2.13,3.07,3.07,0,0,1,.26-1.16,2.94,2.94,0,0,1,.7-1A2.88,2.88,0,0,1,555,810.56Zm-1.81,11.71h3.72v28.21h-3.72Z"/><path class="cls-3" d="M577.77,821.52a14,14,0,0,1,5.83,1.18,14.13,14.13,0,0,1,4.81,3.51,15.13,15.13,0,0,1,0,20.54,13.9,13.9,0,0,1-10.64,4.48,14.13,14.13,0,0,1-5.81-1.09,13.84,13.84,0,0,1-4.83-3.39,15.33,15.33,0,0,1,0-20.54,14.25,14.25,0,0,1,10.64-4.69Zm0,3.52a10.67,10.67,0,0,0-4.24.89,10.78,10.78,0,0,0-3.53,2.51,11.48,11.48,0,0,0-3.3,8.1,12.27,12.27,0,0,0,1.49,5.74,11.23,11.23,0,0,0,4,4.05,10.75,10.75,0,0,0,14.67-4.05,12.16,12.16,0,0,0,1.5-5.74,13.06,13.06,0,0,0-6.59-10.76,10.8,10.8,0,0,0-4.05-1.17Z"/><path class="cls-3" d="M599.26,822.27h3.61v5a15.82,15.82,0,0,1,4.89-4.36,11.56,11.56,0,0,1,5.75-1.39,10.7,10.7,0,0,1,5.64,1.6,10.52,10.52,0,0,1,3.61,4.37,23.29,23.29,0,0,1,1.18,8.41v14.58h-3.73V837a41.36,41.36,0,0,0,0-6.49,7,7,0,0,0-2.44-4.15,7.21,7.21,0,0,0-4.69-1.49,9,9,0,0,0-6,2.23,9.84,9.84,0,0,0-3.41,5.32,41.28,41.28,0,0,0-.53,7.77V850.8h-3.62Z"/><path class="cls-3" d="M659.89,822.27v28.21h-3.61V845.9a18.29,18.29,0,0,1-5.11,4.15,14.33,14.33,0,0,1-16.49-3,14.25,14.25,0,0,1-4.25-10.64,14.37,14.37,0,0,1,1-5.76,14.58,14.58,0,0,1,3.23-4.89,14,14,0,0,1,4.86-3.27,14.13,14.13,0,0,1,5.78-1A12.29,12.29,0,0,1,651.6,823a14.76,14.76,0,0,1,5,4.37v-5.11ZM645.32,825a10.89,10.89,0,0,0-9.68,5.64,11.56,11.56,0,0,0,0,11.39,11.38,11.38,0,0,0,9.68,5.85,11.82,11.82,0,0,0,9.79-5.64,11.6,11.6,0,0,0,1.38-5.74,10.64,10.64,0,0,0-3.19-8.2,10.55,10.55,0,0,0-3.59-2.73,10.71,10.71,0,0,0-4.39-1Z"/><path class="cls-3" d="M667.55,811.3h3.73v39.18h-3.73Z"/><path class="cls-3" d="M682.66,844.73a3,3,0,0,1,1.22.23,2.82,2.82,0,0,1,1,.73,3,3,0,0,1,1,2.34,3,3,0,0,1-.25,1.22,3,3,0,0,1-.71,1,2.79,2.79,0,0,1-1,.72,2.83,2.83,0,0,1-1.22.24,3.3,3.3,0,0,1-3.19-3.2,2.92,2.92,0,0,1,.23-1.27,3,3,0,0,1,.72-1.07,3.22,3.22,0,0,1,1-.71A3.12,3.12,0,0,1,682.66,844.73Z"/><path class="cls-4" d="M288.83,322.56A42.62,42.62,0,0,1,276,353.44,45.45,45.45,0,0,1,244,366.21a44.87,44.87,0,0,1-31.91-12.77,43.75,43.75,0,0,1-9.68-47.8,42.38,42.38,0,0,1,9.68-14.16,45.34,45.34,0,0,1,14.47-9.37,44.32,44.32,0,0,1,17-3.3,45.23,45.23,0,0,1,17.12,3.3,46.25,46.25,0,0,1,14.47,9.37,43.84,43.84,0,0,1,9.58,14.16A42.71,42.71,0,0,1,288.83,322.56ZM244.36,357a32,32,0,0,0,13-2.66,33.8,33.8,0,0,0,11.17-7.46A35.49,35.49,0,0,0,276,335.66a34.23,34.23,0,0,0,2.55-13.1,35.36,35.36,0,0,0-10-24.48,34.51,34.51,0,0,0-37.34-7.45,31.77,31.77,0,0,0-10.64,7.45,33.77,33.77,0,0,0-7.45,10.64A34.9,34.9,0,0,0,210.53,322a34.23,34.23,0,0,0,2.55,13.1,36.24,36.24,0,0,0,7.45,11.17,34,34,0,0,0,11.17,7.56A33.1,33.1,0,0,0,244.36,357Z"/><path class="cls-4" d="M305.11,364.08V280.73h17.34a71.07,71.07,0,0,1,13.51.85,19,19,0,0,1,7.45,3.3,19.64,19.64,0,0,1,6.17,7.56,23.06,23.06,0,0,1,2.23,10.11,18.4,18.4,0,0,1-3.2,10.65,16.82,16.82,0,0,1-9.14,6.28,17.36,17.36,0,0,1,11.7,6.6,21.24,21.24,0,0,1,4.25,13.84,26.44,26.44,0,0,1-1.8,9.58,22,22,0,0,1-5.11,7.77,19.1,19.1,0,0,1-8.72,4.9,72.63,72.63,0,0,1-17.34,1.49Zm9.57-74.52v27.89h7.77a27,27,0,0,0,14.89-3,12,12,0,0,0,4.36-10.64,13.84,13.84,0,0,0-.85-5.77,13.68,13.68,0,0,0-3.19-4.88,24.91,24.91,0,0,0-15.21-3.3Zm0,35.77v30.34h7.77a71,71,0,0,0,11.38-.64,12.27,12.27,0,0,0,5.64-2.13,12.72,12.72,0,0,0,4-5,18,18,0,0,0,1.49-7.24,16.85,16.85,0,0,0-1.81-7.88,12.16,12.16,0,0,0-5.1-5.21,12.93,12.93,0,0,0-4.69-1.71,38.31,38.31,0,0,0-8.08-.53Z"/><path class="cls-4" d="M386.38,280.73h10.11v64.83a22.28,22.28,0,0,1-4.68,15.54,18.31,18.31,0,0,1-14.26,5,20.4,20.4,0,0,1-9.25-2,24.27,24.27,0,0,1-7.77-6.17l6.6-6.6a22,22,0,0,0,5.64,4.57,11.29,11.29,0,0,0,5.42,1.39,6.5,6.5,0,0,0,6.39-3.41,30.57,30.57,0,0,0,1.8-13.2Z"/><path class="cls-4" d="M415.64,364.08V280.73h43.93v9h-34v23.85h34v9.26h-34v31.94h34v9.26Z"/><path class="cls-4" d="M491,364.08V289.56H467.45v-9.37h57v9.37H501v74.52Z"/><path class="cls-4" d="M535.53,364.08V280.73h10v83.35Z"/><path class="cls-4" d="M589.47,366.85,554.15,280.3h10.64l24.57,63.87,24.26-63.87h10.63Z"/><path class="cls-4" d="M633.3,364.08V280.73h9.89v83.35Z"/><path class="cls-4" d="M663.4,364.08V280.73h16a121,121,0,0,1,25,1.7,33.85,33.85,0,0,1,12.77,6.07,34.45,34.45,0,0,1,10.63,14.05,50.29,50.29,0,0,1,3.73,19.91,49.58,49.58,0,0,1-3.73,19.69,33.83,33.83,0,0,1-10.63,14.05,32,32,0,0,1-12.45,6.07,96.75,96.75,0,0,1-21.28,1.81h-20Zm10-9.37h6.28A105.33,105.33,0,0,0,701,353.33a22.4,22.4,0,0,0,9.89-4.58,26.66,26.66,0,0,0,7.77-10.64,41.51,41.51,0,0,0,2.66-15.44,40.71,40.71,0,0,0-2.66-15.44,26.57,26.57,0,0,0-7.77-10.64,22.52,22.52,0,0,0-10-4.69,106.8,106.8,0,0,0-21.28-1.38H673.3Z"/><path class="cls-4" d="M772.13,277.43l38,86.65H799.47l-10.64-25.65H756.27l-10.63,25.65H735Zm0,21.82L758.93,330h26.5Z"/><path class="cls-4" d="M818.73,364.08V280.73h15.95a121,121,0,0,1,25,1.7,34.23,34.23,0,0,1,23.62,20.12A50.46,50.46,0,0,1,887,322.46a49.75,49.75,0,0,1-3.72,19.69A34.69,34.69,0,0,1,860,362.27a96.75,96.75,0,0,1-21.28,1.81h-20Zm10-9.37H835a106.06,106.06,0,0,0,21.28-1.38,22.4,22.4,0,0,0,9.89-4.58,26.55,26.55,0,0,0,7.76-10.64,41.11,41.11,0,0,0,2.66-15.44,40.33,40.33,0,0,0-2.66-15.44,26.55,26.55,0,0,0-7.76-10.64,22.52,22.52,0,0,0-10-4.69,106.8,106.8,0,0,0-21.28-1.38h-6.27Z"/></g></g></svg>