<svg xmlns="http://www.w3.org/2000/svg" viewBox="0 0 1080 1080.74"><defs><style>.cls-1{fill:#fff;}.cls-2{fill:none;stroke:#004394;stroke-miterlimit:10;}.cls-3{fill:#003875;}.cls-4{fill:#004394;}</style></defs><title>Value_svg_compromiso</title><g id="Capa_2" data-name="Capa 2"><g id="Capa_1-2" data-name="Capa 1"><path class="cls-1" d="M540,1080.74c298.23,0,540-241.93,540-540.37S838.23,0,540,0,0,241.93,0,540.37,241.77,1080.74,540,1080.74Z"/><path class="cls-2" d="M982,642.77c56.53-244.23-95.5-488.07-339.57-544.64S154.65,193.7,98.12,437.93,193.63,926,437.69,982.58,925.44,887,982,642.77Z"/><path class="cls-3" d="M263.83,440.3l17.77,38.75h-4.05l-6.06-12.56H255l-6,12.56h-4.25l18.08-38.21Zm0,8.2-6.49,13.84h13.08Z"/><path class="cls-3" d="M287,450.31h3.62v5.21a13.93,13.93,0,0,1,5-4.46,13.1,13.1,0,0,1,6.17-1.49,13.79,13.79,0,0,1,5.78,1,14,14,0,0,1,4.86,3.32,14.26,14.26,0,0,1,4.36,10.64,14.71,14.71,0,0,1-4.26,10.65,13.68,13.68,0,0,1-4.84,3.35,15.66,15.66,0,0,1-12-.37,15.76,15.76,0,0,1-5.1-4.15v15.22H287Zm14.57,2.77a10.6,10.6,0,0,0-8,3.3,11.15,11.15,0,0,0-2.43,3.77,11.32,11.32,0,0,0-.77,4.42,11.51,11.51,0,0,0,1.39,5.75,10.58,10.58,0,0,0,4.15,4.16,11.81,11.81,0,0,0,5.63,1.49,11.43,11.43,0,0,0,5.54-1.49,11.78,11.78,0,0,0,4.15-15.76,11.43,11.43,0,0,0-4.09-4.11A11.24,11.24,0,0,0,301.59,453.08Z"/><path class="cls-3" d="M336.6,449.57a14,14,0,0,1,5.81,1.2,14.21,14.21,0,0,1,4.82,3.48,14.64,14.64,0,1,1-21.27.11,13.85,13.85,0,0,1,10.64-4.79Zm0,3.51a10.64,10.64,0,0,0-4.24.89,12.62,12.62,0,0,0-6.05,6.2,10.72,10.72,0,0,0-.78,4.4,12.13,12.13,0,0,0,1.49,5.75,11.28,11.28,0,0,0,4,4.05,10.75,10.75,0,0,0,14.68-4.05,12,12,0,0,0,1.49-5.75,10.56,10.56,0,0,0-.78-4.4,11.86,11.86,0,0,0-9.85-7.09Z"/><path class="cls-3" d="M356.7,450.31h3.72v4.15a12.14,12.14,0,0,1,3.51-3.73,7,7,0,0,1,3.83-1.16,6.81,6.81,0,0,1,3.2.95L369,453.61a5.11,5.11,0,0,0-1.91,0,5.6,5.6,0,0,0-3.51,1.49,10.61,10.61,0,0,0-2.56,4.68,48,48,0,0,0-.64,9.8v9.47H356.7Z"/><path class="cls-3" d="M377.23,439.77h3.62v10.65h5.75v3.08h-5.75v25.55h-3.62V453.4h-5v-3.09h5Z"/><path class="cls-3" d="M420.21,450.31v28.74H416.7v-5.32a17.19,17.19,0,0,1-5.21,4.15,13.19,13.19,0,0,1-6.17,1.39,13.34,13.34,0,0,1-5.82-1,13.17,13.17,0,0,1-4.82-3.39,15,15,0,0,1,0-21.29,14,14,0,0,1,4.85-3.32,14.2,14.2,0,0,1,5.79-1.05,13.73,13.73,0,0,1,6.28,1.49,14.15,14.15,0,0,1,5,4.48v-4.9Zm-14.47,2.77a11.37,11.37,0,0,0-5.63,1.49,10.63,10.63,0,0,0-4.05,4.15A11.33,11.33,0,0,0,405.74,476a12.08,12.08,0,0,0,5.64-1.49,11.42,11.42,0,0,0,4.09-4.22,11.28,11.28,0,0,0,1.44-5.69,10.73,10.73,0,0,0-.75-4.45,10.89,10.89,0,0,0-2.54-3.74,10.68,10.68,0,0,0-7.56-3.3Z"/><path class="cls-3" d="M428.4,450.31H432v4.9a12.46,12.46,0,0,1,3.94-3.94,10.13,10.13,0,0,1,9.68-.85,6.79,6.79,0,0,1,3,2.13,9.28,9.28,0,0,1,2,3.83,14.39,14.39,0,0,1,4.57-5.11,10.56,10.56,0,0,1,5.85-1.7,9.49,9.49,0,0,1,5.21,1.49,8.54,8.54,0,0,1,3.3,4.15,21.25,21.25,0,0,1,1.07,7.87v16h-3.73v-16a19.45,19.45,0,0,0-.64-6.17,5.14,5.14,0,0,0-2.23-2.77,6,6,0,0,0-3.72-1.06,8.08,8.08,0,0,0-4.79,1.59,8.82,8.82,0,0,0-3.19,4.16,26.72,26.72,0,0,0-1.07,8.62v10.64h-3.61V464a24.82,24.82,0,0,0-.64-6.92,5.44,5.44,0,0,0-2.23-2.87,6.21,6.21,0,0,0-3.73-1.17,8.26,8.26,0,0,0-4.68,1.49,9.8,9.8,0,0,0-3.3,4.15A21.47,21.47,0,0,0,432,466.6v12.45H428.4Z"/><path class="cls-3" d="M491.7,449.57a14.05,14.05,0,0,1,5.82,1.2,14.31,14.31,0,0,1,4.82,3.48,14.89,14.89,0,0,1,3.83,10.64,15.32,15.32,0,0,1-4.05,10.65A14.79,14.79,0,0,1,480.85,455a13.91,13.91,0,0,1,10.85-5.43Zm0,3.51a11.78,11.78,0,0,0-10.28,7.09,10.56,10.56,0,0,0-.78,4.4,12,12,0,0,0,1.49,5.75,10.72,10.72,0,0,0,14.68,4.05,11.28,11.28,0,0,0,4-4.05,12,12,0,0,0,1.49-5.75,11.52,11.52,0,0,0-.84-4.37,11.29,11.29,0,0,0-2.46-3.71A10.61,10.61,0,0,0,491.7,453.08Z"/><path class="cls-3" d="M527.34,453.4,525,455.85a8.31,8.31,0,0,0-5.64-2.88,4.7,4.7,0,0,0-3.09,1.17,3.81,3.81,0,0,0-.94,1.24,3.66,3.66,0,0,0-.33,1.53,3.81,3.81,0,0,0,1.06,2.56,13.67,13.67,0,0,0,4.36,3,17.2,17.2,0,0,1,5.54,4.05,8.35,8.35,0,0,1,.78,7.71,7.92,7.92,0,0,1-1.85,2.72,8,8,0,0,1-2.79,1.8,8.11,8.11,0,0,1-3.27.55,11.07,11.07,0,0,1-8.4-3.94l2.33-2.66a7.91,7.91,0,0,0,2.62,2.26,7.81,7.81,0,0,0,3.34.93,5.93,5.93,0,0,0,3.72-1.38,4.59,4.59,0,0,0,1.09-1.5,4.49,4.49,0,0,0,.4-1.8,3.7,3.7,0,0,0-.14-1.48,3.79,3.79,0,0,0-.71-1.29,14.53,14.53,0,0,0-4.57-3.09,14.52,14.52,0,0,1-5.21-3.83,8,8,0,0,1-1.39-4.47,7.08,7.08,0,0,1,.55-2.91,6.89,6.89,0,0,1,1.69-2.41,7.68,7.68,0,0,1,5.53-2.13A11.48,11.48,0,0,1,527.34,453.4Z"/><path class="cls-3" d="M548,439.35h3.61v39.7H548Z"/><path class="cls-3" d="M572.55,449.57a14.05,14.05,0,0,1,5.82,1.2,14.21,14.21,0,0,1,4.82,3.48,15.56,15.56,0,0,1,0,20.65,14.79,14.79,0,0,1-21.27-20.54,13.85,13.85,0,0,1,10.63-4.79Zm0,3.51a10.53,10.53,0,0,0-7.76,3.41,10.47,10.47,0,0,0-2.52,3.68,10.72,10.72,0,0,0-.78,4.4,12,12,0,0,0,1.49,5.75,10.75,10.75,0,0,0,18.72,0,12,12,0,0,0,1.49-5.75,11.52,11.52,0,0,0-.84-4.37,11.29,11.29,0,0,0-2.46-3.71A10.61,10.61,0,0,0,572.55,453.08Z"/><path class="cls-3" d="M608.72,450.31h3.62v4.9a12.36,12.36,0,0,1,3.94-3.94,10.53,10.53,0,0,1,5.74-1.7,10.43,10.43,0,0,1,3.93.85,7.57,7.57,0,0,1,3,2.13,9.26,9.26,0,0,1,2,3.83,14.3,14.3,0,0,1,4.57-5.11,10.56,10.56,0,0,1,5.85-1.7,9.85,9.85,0,0,1,5.22,1.49,8.64,8.64,0,0,1,3.29,4.15,21,21,0,0,1,1.06,7.87v16h-3.72v-16a20,20,0,0,0-.63-6.17,5.2,5.2,0,0,0-2.24-2.77,6.15,6.15,0,0,0-3.72-1.06,7.88,7.88,0,0,0-4.79,1.59,8.82,8.82,0,0,0-3.19,4.16,23.94,23.94,0,0,0-1.07,8.62v10.64H628V464a24.82,24.82,0,0,0-.64-6.92,5.45,5.45,0,0,0-2.24-2.87,6.51,6.51,0,0,0-3.72-1.17,8.63,8.63,0,0,0-4.79,1.49,9.47,9.47,0,0,0-3.19,4.15,21.26,21.26,0,0,0-1.06,7.88v12.45h-3.62Z"/><path class="cls-3" d="M682.66,469.15l3,1.6a15.46,15.46,0,0,1-3.41,4.79,14.33,14.33,0,0,1-4.46,2.77,15.82,15.82,0,0,1-5.75.74,13.16,13.16,0,0,1-5.82-1,13.33,13.33,0,0,1-4.82-3.44,15.57,15.57,0,0,1-.64-19.91,13.54,13.54,0,0,1,11.17-5.32,13.93,13.93,0,0,1,6.48,1.34,13.73,13.73,0,0,1,5.12,4.2,15,15,0,0,1,3.09,9.58H661.38a11.85,11.85,0,0,0,3.19,8.09A9.85,9.85,0,0,0,668,475a9.66,9.66,0,0,0,4.07.79,14.27,14.27,0,0,0,4.25-.74,11.33,11.33,0,0,0,3.52-2A18.23,18.23,0,0,0,682.66,469.15Zm0-7.56a14.8,14.8,0,0,0-2.13-4.68,9,9,0,0,0-3.72-2.77,11.06,11.06,0,0,0-11.92,1.6,11.56,11.56,0,0,0-3.3,5.85Z"/><path class="cls-3" d="M693.3,450.31h3.61v31.94a8.24,8.24,0,0,1-1.27,5.21,4.28,4.28,0,0,1-3.51,1.6,10.55,10.55,0,0,1-4.15-.85v-2.77a5.64,5.64,0,0,0,2.66.75,2.47,2.47,0,0,0,2.23-1.18,9.62,9.62,0,0,0,0-3.3Zm1.8-11.71a2.83,2.83,0,0,1,2.13,1,3,3,0,0,1,.85,2.13,3.28,3.28,0,0,1-.85,2.12,3.17,3.17,0,0,1-2.13.86,3,3,0,0,1-1.14-.22,2.93,2.93,0,0,1-1.63-1.61,2.69,2.69,0,0,1-.2-1.15,2.46,2.46,0,0,1,.17-1.17,2.52,2.52,0,0,1,.68-1,2.67,2.67,0,0,1,1.59-1Z"/><path class="cls-3" d="M717.34,449.57a14.08,14.08,0,0,1,5.82,1.2,14.31,14.31,0,0,1,4.82,3.48,14.55,14.55,0,0,1,3.94,10.64,15.19,15.19,0,0,1-1,5.74,14.88,14.88,0,0,1-3.14,4.91,14.9,14.9,0,0,1-21.27,0,15.36,15.36,0,0,1-4-10.65,14.82,14.82,0,0,1,3.84-10.11,14,14,0,0,1,11.06-5.21Zm0,3.51a10.57,10.57,0,0,0-7.77,3.41,11.26,11.26,0,0,0-2.45,3.71,11.15,11.15,0,0,0-.84,4.37,12.12,12.12,0,0,0,1.48,5.75,11.23,11.23,0,0,0,4,4.05,11,11,0,0,0,15.1-4.05,12,12,0,0,0,1.49-5.75,10.56,10.56,0,0,0-.78-4.4,11.2,11.2,0,0,0-10.28-7.09Z"/><path class="cls-3" d="M726.42,443h3.72v4.15a12,12,0,0,1,3.51-3.73,7.07,7.07,0,0,1,3.83-1.17,6.79,6.79,0,0,1,3.19,1l-1.91,3.09a5.16,5.16,0,0,0-1.92,0,5.65,5.65,0,0,0-3.51,1.49,10.7,10.7,0,0,0-2.55,4.68,47.28,47.28,0,0,0-.64,9.8v9.47h-3.72Z"/><path class="cls-3" d="M797.76,439.35v39.7h-3.61v-5.32a15.69,15.69,0,0,1-5.11,4.15,13.46,13.46,0,0,1-6.17,1.39,13.76,13.76,0,0,1-10.64-4.37A14.94,14.94,0,0,1,769,470a14.69,14.69,0,0,1-1-5.75,14.37,14.37,0,0,1,1.06-5.79,14.17,14.17,0,0,1,3.3-4.86,13.64,13.64,0,0,1,16.83-2.55,13.79,13.79,0,0,1,4.45,4.15V439.35Zm-14.57,13.73a11.26,11.26,0,0,0-9.68,5.64,11.7,11.7,0,0,0,4.15,15.76,11.21,11.21,0,0,0,11.17,0,10.71,10.71,0,0,0,4.15-4.16,11.5,11.5,0,0,0,1.38-5.75,11.33,11.33,0,0,0-3.19-8.19,10.72,10.72,0,0,0-3.64-2.5A10.59,10.59,0,0,0,783.19,453.08Z"/><path class="cls-3" d="M829.78,469.15l3.09,1.6a17.41,17.41,0,0,1-3.51,4.79,12.22,12.22,0,0,1-4.47,2.77,15.12,15.12,0,0,1-5.53,1,13.55,13.55,0,0,1-10.64-4.48,15.56,15.56,0,0,1-.64-19.9,14.68,14.68,0,0,1,22.77,0,15,15,0,0,1,3.19,9.58H808.62a11.13,11.13,0,0,0,.73,4.35,11.32,11.32,0,0,0,2.35,3.74,9.93,9.93,0,0,0,7.56,3.19,14.25,14.25,0,0,0,4.14-.74,11.39,11.39,0,0,0,3.51-2A15,15,0,0,0,829.78,469.15Zm0-7.56a12.65,12.65,0,0,0-2.12-4.68,9.3,9.3,0,0,0-3.62-2.77,11.18,11.18,0,0,0-4.9-1.06,10.62,10.62,0,0,0-7.12,2.66,11.49,11.49,0,0,0-3.3,5.85Z"/><path class="cls-3" d="M216.38,528.45l-2.87,1.81a11.91,11.91,0,0,0-4.67-3.89,12,12,0,0,0-6-1.12,11.64,11.64,0,0,0-8.51,3.3,10.69,10.69,0,0,0-3.51,8.1,11.49,11.49,0,0,0,2.45,6.28,10.69,10.69,0,0,0,4.36,4.15,11.71,11.71,0,0,0,6.06,1.59,12.51,12.51,0,0,0,10.64-5l2.87,1.92a13.55,13.55,0,0,1-5.42,4.68A16.61,16.61,0,0,1,204,552a15.24,15.24,0,0,1-6-1,15.4,15.4,0,0,1-5.16-3.25,14.06,14.06,0,0,1-4.36-10.65,14.72,14.72,0,0,1,2-7.66,15.14,15.14,0,0,1,5.75-5.54,16.89,16.89,0,0,1,7.66-2.24,15.24,15.24,0,0,1,5.31.86,12.44,12.44,0,0,1,4.47,2.23A10.59,10.59,0,0,1,216.38,528.45Z"/><path class="cls-3" d="M251.49,522.6v28.21H248V546a17.11,17.11,0,0,1-5.22,4.15,13.18,13.18,0,0,1-6.17,1.38,13.72,13.72,0,0,1-5.8-1,13.48,13.48,0,0,1-4.83-3.37,14.21,14.21,0,0,1-4.26-10.64A14,14,0,0,1,226,525.89a13.81,13.81,0,0,1,4.84-3.35,13.65,13.65,0,0,1,5.79-1,12.27,12.27,0,0,1,6.28,1.49,14.7,14.7,0,0,1,5,4.37v-5.12ZM237,525.36a11.18,11.18,0,0,0-9.68,17,9.78,9.78,0,0,0,4,4.26,11.17,11.17,0,0,0,15.11-3.72,11.71,11.71,0,0,0,1.49-5.75,12,12,0,0,0-6.7-10.82A10.47,10.47,0,0,0,237,525.36Z"/><path class="cls-3" d="M287.87,511.63v39.18h-3.51V546a18.46,18.46,0,0,1-5.11,4.15,14,14,0,0,1-6.27,1.38,13.57,13.57,0,0,1-10.64-4.37,15,15,0,0,1,0-21.29A13.7,13.7,0,0,1,273,521.53a12.23,12.23,0,0,1,6.27,1.49,14.82,14.82,0,0,1,5,4.37V511.63ZM273.4,525.36a10.92,10.92,0,0,0-9.68,5.64,11.63,11.63,0,0,0,0,11.39,9.5,9.5,0,0,0,4.15,4.26,10.71,10.71,0,0,0,5.53,1.6,10.58,10.58,0,0,0,5.64-1.6,9.83,9.83,0,0,0,4-4,11.6,11.6,0,0,0,1.49-5.75,10.68,10.68,0,0,0-3.19-8.2,10.37,10.37,0,0,0-3.64-2.49A10.57,10.57,0,0,0,273.4,525.36Z"/><path class="cls-3" d="M324.25,522.6v28.21H321V546a18.46,18.46,0,0,1-5.11,4.15,14.36,14.36,0,0,1-16.17-3,15,15,0,0,1,0-21.29,13.7,13.7,0,0,1,10.64-4.36,12.23,12.23,0,0,1,6.27,1.49,14.7,14.7,0,0,1,5,4.37v-5.12Zm-14.46,2.76a10.89,10.89,0,0,0-9.68,5.64,11.59,11.59,0,0,0-.43,11.93,10,10,0,0,0,4.15,4.25,10.5,10.5,0,0,0,5.53,1.6,10.61,10.61,0,0,0,5.64-1.6,9.83,9.83,0,0,0,4-4,12.17,12.17,0,0,0-8.72-17.78Z"/><path class="cls-3" d="M346.7,522.6h3.72v13.2a31.56,31.56,0,0,0,0,6.59,8,8,0,0,0,3.09,4.15,9.1,9.1,0,0,0,5.21,1.5,8.77,8.77,0,0,0,5.11-1.5,7,7,0,0,0,3-3.83,30.22,30.22,0,0,0,.53-6.91V522.6h3.72v13.83a21.34,21.34,0,0,1-1.38,8.84,10.74,10.74,0,0,1-4.15,4.58,12.22,12.22,0,0,1-6.81,1.7,12.57,12.57,0,0,1-6.91-1.7,10.66,10.66,0,0,1-4.15-4.69,23.26,23.26,0,0,1-1.38-8.94Z"/><path class="cls-3" d="M379.57,522.6h3.62v5a16.53,16.53,0,0,1,4.79-4.37,12.12,12.12,0,0,1,5.85-1.38,9.86,9.86,0,0,1,5.53,1.6,9,9,0,0,1,3.62,4.36,21.45,21.45,0,0,1,1.17,8.52v14.48h-3.62V537.39a30.34,30.34,0,0,0,0-6.6,6.51,6.51,0,0,0-2.34-4.15,7.45,7.45,0,0,0-4.68-1.49,9,9,0,0,0-6,2.24,9.73,9.73,0,0,0-3.4,5.42,39.38,39.38,0,0,0-.54,7.67v10.64H380Z"/><path class="cls-3" d="M425.32,521.63a14.43,14.43,0,0,1,5.82,1.22,14.28,14.28,0,0,1,4.82,3.47,15.14,15.14,0,0,1,0,20.55,14,14,0,0,1-4.83,3.39,13.8,13.8,0,0,1-5.81,1.08,13.53,13.53,0,0,1-5.82-1.06,13.67,13.67,0,0,1-4.82-3.41,14.66,14.66,0,0,1-3.17-4.9,14.49,14.49,0,0,1-1-5.75,14.92,14.92,0,0,1,3.83-10.64,14.19,14.19,0,0,1,5.06-3.15A14.61,14.61,0,0,1,425.32,521.63Zm0,3.52a10.67,10.67,0,0,0-4.24.89,10.89,10.89,0,0,0-3.53,2.51,11.41,11.41,0,0,0-2.45,3.72,11.54,11.54,0,0,0-.85,4.38,12.16,12.16,0,0,0,1.5,5.74,11.13,11.13,0,0,0,4,4.05,11.34,11.34,0,0,0,15.81-14.19,11,11,0,0,0-10.28-6.89Z"/><path class="cls-3" d="M489.79,511.63v39.18h-3.62V546a15.82,15.82,0,0,1-5.11,4.15,14.58,14.58,0,0,1-20.74-13.63,15,15,0,0,1,9.1-14,13.82,13.82,0,0,1,5.79-1,12.27,12.27,0,0,1,6.28,1.49,13.93,13.93,0,0,1,5,4.37V511.63Zm-14.58,13.73A11.23,11.23,0,0,0,464,536.75a12,12,0,0,0,1.49,5.64,10.57,10.57,0,0,0,4.15,4.26,11.36,11.36,0,0,0,15.32-4,11.55,11.55,0,0,0,1.38-5.75,11,11,0,0,0-11.17-11.5Z"/><path class="cls-3" d="M521.8,541.44l3.09,1.59a17.26,17.26,0,0,1-3.51,4.79,13.91,13.91,0,0,1-4.47,2.77,15.23,15.23,0,0,1-5.63,1A13.19,13.19,0,0,1,500.64,547a15.42,15.42,0,0,1-.64-19.8,15.06,15.06,0,0,1,17.68-4,14,14,0,0,1,5.09,4.1,15.59,15.59,0,0,1,3.08,9.68H500.42a11.79,11.79,0,0,0,3.2,8.09,9.65,9.65,0,0,0,3.43,2.42,9.88,9.88,0,0,0,4.12.78,14.32,14.32,0,0,0,4.15-.74,11.42,11.42,0,0,0,3.51-2A20.62,20.62,0,0,0,521.8,541.44Zm0-7.56a12,12,0,0,0-2.12-4.69,10.67,10.67,0,0,0-3.72-2.87,12.2,12.2,0,0,0-4.79-1.07A10.67,10.67,0,0,0,504,528a11.48,11.48,0,0,0-3.3,5.86Z"/><path class="cls-3" d="M547.23,522.6H551v5a14.32,14.32,0,0,1,4.79-4.37,12,12,0,0,1,5.75-1.38,9.9,9.9,0,0,1,5.64,1.6,9.75,9.75,0,0,1,3.62,4.36,23.44,23.44,0,0,1,1.16,8.52v14.48H568.3V537.39a30.34,30.34,0,0,0,0-6.6,6.62,6.62,0,0,0-2.45-4.15,7.24,7.24,0,0,0-4.68-1.49,8.68,8.68,0,0,0-5.85,2.24,9.73,9.73,0,0,0-3.4,5.42,31.74,31.74,0,0,0,0,7.67v10.64h-3.73Z"/><path class="cls-3" d="M593.09,521.63a14.38,14.38,0,0,1,5.81,1.22,14.19,14.19,0,0,1,4.82,3.47A15,15,0,0,1,607.66,537a14.51,14.51,0,0,1-1,5.76,14.67,14.67,0,0,1-3.17,4.89,14.89,14.89,0,0,1-21.28,0,14.34,14.34,0,0,1-4-10.65A14.89,14.89,0,0,1,582,526.32a14.31,14.31,0,0,1,11.07-4.69Zm0,3.52a10.6,10.6,0,0,0-4.24.89,12.48,12.48,0,0,0-6.05,6.21,10.66,10.66,0,0,0-.78,4.4,12,12,0,0,0,1.49,5.74,10.55,10.55,0,0,0,4,4.05,10.61,10.61,0,0,0,10.64,0,10.55,10.55,0,0,0,4-4.05,12,12,0,0,0,1.49-5.74,11.1,11.1,0,0,0-10.63-11.29Z"/><path class="cls-3" d="M628.72,525.68,626.38,528a8.56,8.56,0,0,0-5.64-2.77,4.29,4.29,0,0,0-1.66.27,4,4,0,0,0-1.42.91,3.38,3.38,0,0,0-.93,1.19,3.57,3.57,0,0,0-.35,1.47,4.45,4.45,0,0,0,1.07,2.66,15.55,15.55,0,0,0,4.36,3,16,16,0,0,1,5.53,4,7.62,7.62,0,0,1,1.49,4.48,8,8,0,0,1-2.45,5.85,8.7,8.7,0,0,1-6.17,2.45,10.82,10.82,0,0,1-4.68-1.06,10,10,0,0,1-3.62-3l2.24-2.56a8,8,0,0,0,2.62,2.26,8.12,8.12,0,0,0,3.33.94,5.55,5.55,0,0,0,3.73-1.5,4.4,4.4,0,0,0,1.49-3.3,4.6,4.6,0,0,0-1-2.76,17.84,17.84,0,0,0-4.68-3,13.15,13.15,0,0,1-5.11-3.93,6.94,6.94,0,0,1-1.38-4.37,7.49,7.49,0,0,1,.52-2.88,7.28,7.28,0,0,1,4.15-4.09,7.26,7.26,0,0,1,3-.48,11.28,11.28,0,0,1,7.87,3.83Z"/><path class="cls-3" d="M648.62,521.63a14.24,14.24,0,0,1,5.82,1.19,13.91,13.91,0,0,1,4.81,3.5,14.8,14.8,0,0,1-4.85,23.89,14.75,14.75,0,0,1-11.56,0,15,15,0,0,1-4.86-3.34,15.11,15.11,0,0,1,0-20.55,14.09,14.09,0,0,1,4.82-3.47A14.36,14.36,0,0,1,648.62,521.63Zm0,3.52a10.64,10.64,0,0,0-4.24.89,10.78,10.78,0,0,0-3.53,2.51,11.26,11.26,0,0,0-3.19,8.1,11,11,0,0,0,16.59,9.79,11.31,11.31,0,0,0,5.43-9.79,11.37,11.37,0,0,0-3.19-8.1,10.63,10.63,0,0,0-8-3.19Z"/><path class="cls-3" d="M673.19,512.05h3.62V522.7h5.85v3.09h-5.75v25.12H673.3V525.68h-5V522.6h5Z"/><path class="cls-3" d="M686.7,522.6h3.72v4a12.64,12.64,0,0,1,3.52-3.62,7,7,0,0,1,3.82-1.17,6.82,6.82,0,0,1,3.2,1L699,525.89a5.34,5.34,0,0,0-1.92-.53,5.66,5.66,0,0,0-3.5,1.49,10.59,10.59,0,0,0-2.56,4.69,46.19,46.19,0,0,0-.64,9.69v9.58H686.7Z"/><path class="cls-3" d="M717.44,521.63a14.36,14.36,0,0,1,5.82,1.22,14.09,14.09,0,0,1,4.82,3.47A15,15,0,0,1,731.92,537a14.7,14.7,0,0,1-1,5.76,14.37,14.37,0,0,1-3.17,4.89,13.48,13.48,0,0,1-4.82,3.42,13.62,13.62,0,0,1-5.81,1.05,13.8,13.8,0,0,1-10.64-4.47,15.11,15.11,0,0,1,0-20.55,14.17,14.17,0,0,1,4.86-3.94A14.35,14.35,0,0,1,717.44,521.63Zm0,3.52a10.63,10.63,0,0,0-7.87,3.4,11.42,11.42,0,0,0-2.4,3.73,11.25,11.25,0,0,0-.79,4.37A11.05,11.05,0,0,0,723,546.44a11.23,11.23,0,0,0,4-4.05,12.15,12.15,0,0,0,1.49-5.74,11.37,11.37,0,0,0-3.3-8.1,10.84,10.84,0,0,0-3.55-2.39,10.7,10.7,0,0,0-4.22-.8Z"/><path class="cls-3" d="M753.08,525.68,750.74,528a8.54,8.54,0,0,0-5.64-2.77,4.1,4.1,0,0,0-1.66.26,4,4,0,0,0-1.42.92,3.49,3.49,0,0,0-.93,1.19,3.57,3.57,0,0,0-.35,1.47,3.84,3.84,0,0,0,1.07,2.66,14,14,0,0,0,4.36,3,17,17,0,0,1,5.53,4,8.37,8.37,0,0,1,.8,7.67,7.53,7.53,0,0,1-1.86,2.66,8.36,8.36,0,0,1-2.78,1.85,8.24,8.24,0,0,1-3.29.6,10.82,10.82,0,0,1-4.68-1.06,11.35,11.35,0,0,1-3.72-3l2.34-2.56a7.82,7.82,0,0,0,2.57,2.25,8,8,0,0,0,3.28.95,5.13,5.13,0,0,0,3.72-1.5,4.13,4.13,0,0,0,1.1-1.29,4.15,4.15,0,0,0,.29-3.31,4,4,0,0,0-.86-1.46,15.06,15.06,0,0,0-4.57-3,14.7,14.7,0,0,1-5.21-3.93,7.46,7.46,0,0,1-1.38-4.37,7,7,0,0,1,2.23-5.32,7.38,7.38,0,0,1,2.54-1.65,7.26,7.26,0,0,1,3-.48A11.46,11.46,0,0,1,753.08,525.68Z"/><path class="cls-3" d="M774.36,522.6h4v5.1a14.54,14.54,0,0,1,4.9-4.36,12.46,12.46,0,0,1,5.74-1.71A13.76,13.76,0,0,1,799.68,526a14.05,14.05,0,0,1,4.25,10.65,14.25,14.25,0,0,1-4.25,10.64,14.87,14.87,0,0,1-16.81,3,15.69,15.69,0,0,1-5.11-4.15v15.12h-3.61Zm14.47,2.76a10.68,10.68,0,0,0-7.88,3.3,10.69,10.69,0,0,0-3.29,8.2,11.7,11.7,0,0,0,1.48,5.75,10.77,10.77,0,0,0,4.16,4,10.48,10.48,0,0,0,5.63,1.6,10.74,10.74,0,0,0,5.54-1.6,9.78,9.78,0,0,0,4-4.26,11.24,11.24,0,0,0-9.47-17Z"/><path class="cls-3" d="M838.72,522.6v28.21H835.1V546a15.89,15.89,0,0,1-5.1,4.15,13.62,13.62,0,0,1-6.28,1.38,14,14,0,0,1-10.64-4.37,14.9,14.9,0,0,1-3.21-4.88,14.74,14.74,0,0,1-1-5.76,14.2,14.2,0,0,1,1-5.76,14.55,14.55,0,0,1,3.22-4.89,14,14,0,0,1,4.85-3.34,13.82,13.82,0,0,1,5.79-1,12.83,12.83,0,0,1,6.39,1.49,14.63,14.63,0,0,1,4.89,4.37v-5.12Zm-14.57,2.76a11.23,11.23,0,0,0-9.68,5.64,11.56,11.56,0,0,0,0,11.39,10.51,10.51,0,0,0,4.15,4.26,10.68,10.68,0,0,0,5.53,1.6,10.48,10.48,0,0,0,5.63-1.6,10.61,10.61,0,0,0,4.15-4,11.46,11.46,0,0,0,1.39-5.75,11,11,0,0,0-11.17-11.5Z"/><path class="cls-3" d="M845.53,522.6h3.72v4a12.74,12.74,0,0,1,3.51-3.62,7.08,7.08,0,0,1,3.84-1.17,6.75,6.75,0,0,1,3.18,1l-1.91,3.08a5.34,5.34,0,0,0-1.91-.53,5.66,5.66,0,0,0-3.51,1.49,10.59,10.59,0,0,0-2.56,4.69,46.87,46.87,0,0,0-.64,9.69v9.58h-3.72Z"/><path class="cls-3" d="M891.06,522.6v28.21h-3.62V546a15.89,15.89,0,0,1-5.1,4.15,13.68,13.68,0,0,1-6.28,1.38,14,14,0,0,1-10.64-4.37,14.71,14.71,0,0,1-4.25-10.64,14.38,14.38,0,0,1,1-5.76,14.55,14.55,0,0,1,3.22-4.89,14,14,0,0,1,4.85-3.34,13.82,13.82,0,0,1,5.79-1,12.83,12.83,0,0,1,6.39,1.49,14.54,14.54,0,0,1,4.89,4.37v-5.12Zm-14.57,2.76a11.23,11.23,0,0,0-9.68,5.64,11.56,11.56,0,0,0,0,11.39,10.57,10.57,0,0,0,4.15,4.26,10.68,10.68,0,0,0,5.53,1.6,10.48,10.48,0,0,0,5.63-1.6,10.7,10.7,0,0,0,4.16-4,11.55,11.55,0,0,0,1.38-5.75,10.68,10.68,0,0,0-3.19-8.2,10.74,10.74,0,0,0-8-3.3Z"/><path class="cls-3" d="M227.66,613.72l3.08,1.6a14,14,0,0,1-3.51,4.79,14.43,14.43,0,0,1-4.36,2.77,15.66,15.66,0,0,1-5.64,1,13.42,13.42,0,0,1-5.83-1.09,13.6,13.6,0,0,1-4.81-3.48,15.26,15.26,0,0,1-3.82-10.65,14.77,14.77,0,0,1,3.29-9.58,13.19,13.19,0,0,1,10.64-5.32,14.09,14.09,0,0,1,11.6,5.43,15.33,15.33,0,0,1,3.08,9.68H206a11.21,11.21,0,0,0,3.19,8.09,9.43,9.43,0,0,0,3.39,2.36,9.67,9.67,0,0,0,4.05.73,11.66,11.66,0,0,0,4.26-.74,12,12,0,0,0,3.4-1.92A17.23,17.23,0,0,0,227.66,613.72Zm0-7.66a10.54,10.54,0,0,0-2.13-4.58,9.88,9.88,0,0,0-3.62-2.88,12.69,12.69,0,0,0-4.78-1.06,10.65,10.65,0,0,0-7.24,2.66,13.41,13.41,0,0,0-3.3,5.86Z"/><path class="cls-3" d="M238,583.91h3.62v39.18H238Z"/><path class="cls-3" d="M291.28,600.73l-2.88,1.7a11.91,11.91,0,0,0-10.64-4.89,11.62,11.62,0,0,0-4.59.77,11.74,11.74,0,0,0-3.92,2.53,10.65,10.65,0,0,0-3.51,8.09,11.58,11.58,0,0,0,6,10,11.71,11.71,0,0,0,6.06,1.5,12.47,12.47,0,0,0,5.93-1.12,12.31,12.31,0,0,0,4.71-3.78l2.88,1.92a14.52,14.52,0,0,1-5.43,4.68,16.85,16.85,0,0,1-7.77,1.7,15.4,15.4,0,0,1-11.17-4.26,14.12,14.12,0,0,1-4.36-10.64,14.75,14.75,0,0,1,2-7.56,14.36,14.36,0,0,1,5.75-5.53,16.31,16.31,0,0,1,8-1.92,15.38,15.38,0,0,1,5.42.85,12.47,12.47,0,0,1,4.47,2.24A10.69,10.69,0,0,1,291.28,600.73Z"/><path class="cls-3" d="M296.91,594.77h3.73v4.15a12.61,12.61,0,0,1,3.51-3.62,6.24,6.24,0,0,1,3.83-1.17,6.82,6.82,0,0,1,3.19,1l-1.92,3a4.73,4.73,0,0,0-1.91,0,5.08,5.08,0,0,0-3.51,1.49,10.55,10.55,0,0,0-2.55,4.58,47.23,47.23,0,0,0-.64,9.79v9.58h-3.73Z"/><path class="cls-3" d="M338.08,613.72l3.09,1.6a17.41,17.41,0,0,1-3.51,4.79,14.26,14.26,0,0,1-10,3.72A13.34,13.34,0,0,1,317,619.26a15,15,0,0,1-3.94-10.65,15.42,15.42,0,0,1,3.3-9.58,13.4,13.4,0,0,1,11.28-5.32,13.75,13.75,0,0,1,6.4,1.33,13.89,13.89,0,0,1,5.09,4.1,15.34,15.34,0,0,1,3.08,9.69H316.81a11.83,11.83,0,0,0,3.19,8.08,9.79,9.79,0,0,0,7.55,3.09,11.5,11.5,0,0,0,4.15-.74,10.74,10.74,0,0,0,3.51-1.92A20,20,0,0,0,338.08,613.72Zm0-7.66a12.14,12.14,0,0,0-2.12-4.58,10.71,10.71,0,0,0-3.73-2.88,11.93,11.93,0,0,0-4.78-1.06,10.62,10.62,0,0,0-7.13,2.66,12.39,12.39,0,0,0-3.3,5.86Z"/><path class="cls-3" d="M376.27,600.73l-2.87,1.7a12.22,12.22,0,0,0-10.64-4.89,11.87,11.87,0,0,0-8.61,3.3,10.67,10.67,0,0,0-3.4,8.09,10.62,10.62,0,0,0,1.59,5.75,9.89,9.89,0,0,0,4.36,4.25,11.71,11.71,0,0,0,6.06,1.5,12.47,12.47,0,0,0,5.93-1.12,12.31,12.31,0,0,0,4.71-3.78l2.87,1.92a14.41,14.41,0,0,1-5.42,4.68,16.85,16.85,0,0,1-7.77,1.7,15.4,15.4,0,0,1-11.17-4.26,13.7,13.7,0,0,1-4.36-10.64,14.75,14.75,0,0,1,2-7.56,14.9,14.9,0,0,1,5.64-5.53,17,17,0,0,1,8.09-1.92,15.38,15.38,0,0,1,5.42.85,13.43,13.43,0,0,1,4.47,2.24A10.56,10.56,0,0,1,376.27,600.73Z"/><path class="cls-3" d="M384.79,583.17a2.86,2.86,0,0,1,1.15.21,3.15,3.15,0,0,1,1,.64,2.94,2.94,0,0,1,.7,1,3.07,3.07,0,0,1,.26,1.16,2.65,2.65,0,0,1-1,2.13,2.49,2.49,0,0,1-1,.67,2.57,2.57,0,0,1-1.16.18,2.49,2.49,0,0,1-1.11-.2,2.57,2.57,0,0,1-.92-.65,2.73,2.73,0,0,1-.72-1,2.48,2.48,0,0,1-.23-1.17,2.73,2.73,0,0,1,.26-1.16,2.91,2.91,0,0,1,.69-1A2.88,2.88,0,0,1,384.79,583.17ZM383,594.77h3.72v28.32H383Z"/><path class="cls-3" d="M393.83,594.77h3.72v4.9a13.57,13.57,0,0,1,3.83-3.94,11.89,11.89,0,0,1,5.85-1.6,9.16,9.16,0,0,1,3.83.75,9.4,9.4,0,0,1,3.09,2.13,16.12,16.12,0,0,1,2,3.83,12.82,12.82,0,0,1,4.47-5,10.63,10.63,0,0,1,5.85-1.71,9.37,9.37,0,0,1,5.21,1.38,9.06,9.06,0,0,1,3.3,4.16,21.43,21.43,0,0,1,1.17,8v15.44h-3.73V607.65a21.1,21.1,0,0,0-.63-6.28,5.45,5.45,0,0,0-2.24-2.66,6.38,6.38,0,0,0-3.72-1.06,8.83,8.83,0,0,0-4.9,1.49,10.47,10.47,0,0,0-3.18,4.15,28.26,28.26,0,0,0-1,8.73v10.64h-3.62v-14a24.42,24.42,0,0,0-.64-6.92,5.77,5.77,0,0,0-2.23-3,6.43,6.43,0,0,0-3.83-1.06,8.6,8.6,0,0,0-4.68,1.49,9,9,0,0,0-3.3,4.15,23.46,23.46,0,0,0-1,7.77v12h-3.72Z"/><path class="cls-3" d="M430.55,777.06a3.05,3.05,0,0,1,1.15.22,3.27,3.27,0,0,1,1.67,1.61,2.73,2.73,0,0,1,.26,1.16,2.65,2.65,0,0,1-1,2.13,2.49,2.49,0,0,1-1,.67,2.55,2.55,0,0,1-1.16.18,2.64,2.64,0,0,1-1.11-.2,2.57,2.57,0,0,1-.91-.65,2.63,2.63,0,0,1-.68-1,2.44,2.44,0,0,1-.17-1.16,2.82,2.82,0,0,1,.8-2.11,3.15,3.15,0,0,1,.95-.65A2.84,2.84,0,0,1,430.55,777.06Zm-1.71,11.61h3.62V817h-3.62Z"/><path class="cls-3" d="M478.19,613.72l3.09,1.6a14.11,14.11,0,0,1-3.52,4.79,14.43,14.43,0,0,1-4.36,2.77,15.65,15.65,0,0,1-5.63,1,13.51,13.51,0,0,1-10.64-4.57,15.22,15.22,0,0,1-3.83-10.65,14.77,14.77,0,0,1,3.29-9.58,13.22,13.22,0,0,1,11.18-5.32,14.09,14.09,0,0,1,11.59,5.43,15.27,15.27,0,0,1,3.08,9.68H457a11.42,11.42,0,0,0,.78,4.37,11.3,11.3,0,0,0,2.41,3.72,9.52,9.52,0,0,0,3.39,2.36,9.75,9.75,0,0,0,4.06.73,11.6,11.6,0,0,0,4.25-.74,11.94,11.94,0,0,0,3.41-1.92A17.33,17.33,0,0,0,478.19,613.72Zm0-7.66a10.54,10.54,0,0,0-2.13-4.58,9.88,9.88,0,0,0-3.62-2.88,12.69,12.69,0,0,0-4.78-1.06,10.61,10.61,0,0,0-7.23,2.66,13.31,13.31,0,0,0-3.3,5.86Z"/><path class="cls-3" d="M489,594.77h3.62v5.11a16.62,16.62,0,0,1,4.78-4.37,12.11,12.11,0,0,1,5.75-1.38,10.05,10.05,0,0,1,5.64,1.6,8.87,8.87,0,0,1,3.62,4.26,22,22,0,0,1,1.16,8.51v14.59H510V609.57a29.43,29.43,0,0,0,0-6.5,7.28,7.28,0,0,0-2.34-4.25,8.06,8.06,0,0,0-4.68-1.39,8.84,8.84,0,0,0-6,2.24,9.88,9.88,0,0,0-3.4,5.32,33.74,33.74,0,0,0-.54,7.77v10.65h-3.61Z"/><path class="cls-3" d="M524.57,584.34h3.73V595h5.42v3.19H528V623.3h-3.73V598h-4.89v-3.2h4.89Z"/><path class="cls-3" d="M552.87,594.13a13.5,13.5,0,0,1,10.64,4.69,14.45,14.45,0,0,1,3.06,4.92,17.94,17.94,0,0,1-.12,11.46,14.8,14.8,0,0,1-3.15,4.91,13.62,13.62,0,0,1-10.64,4.47A13.8,13.8,0,0,1,542,620.11a16.68,16.68,0,0,1-3.27-16.37,14.45,14.45,0,0,1,3.06-4.92,13.78,13.78,0,0,1,5-3.6A14,14,0,0,1,552.87,594.13Zm0,3.52a10.59,10.59,0,0,0-7.87,3.4,11.34,11.34,0,0,0-2.41,3.73,11.22,11.22,0,0,0-.78,4.36,11,11,0,0,0,20.63,5.64,11.49,11.49,0,0,0-1.8-13.73,10.74,10.74,0,0,0-3.53-2.51A10.5,10.5,0,0,0,552.87,597.65Z"/><path class="cls-3" d="M617.23,583.91v39.18h-3.61v-4.9a14.81,14.81,0,0,1-5.11,4.26,15,15,0,0,1-6.17,1.38,14,14,0,0,1-10.64-4.36,14.82,14.82,0,0,1-4.26-10.65,14.61,14.61,0,0,1,1.08-5.77,14.42,14.42,0,0,1,3.29-4.87,13.6,13.6,0,0,1,21.48,1.6V583.91Zm-14.57,13.74a11.23,11.23,0,0,0-9.68,5.64,12,12,0,0,0-1.49,5.75,11.15,11.15,0,0,0,12.66,11.43,10.34,10.34,0,0,0,4.15-1.54,10.51,10.51,0,0,0,4.14-4,12,12,0,0,0-1.8-14A10.64,10.64,0,0,0,607,598.4,10.46,10.46,0,0,0,602.66,597.65Z"/><path class="cls-3" d="M649.25,613.72l3.09,1.6a15.49,15.49,0,0,1-3.51,4.79,13.8,13.8,0,0,1-4.47,2.77,15.12,15.12,0,0,1-5.53,1,13.51,13.51,0,0,1-10.64-4.57,15.22,15.22,0,0,1-3.83-10.65,14.84,14.84,0,0,1,3.3-9.58,13.19,13.19,0,0,1,11.17-5.32,13.94,13.94,0,0,1,11.49,5.43,15.31,15.31,0,0,1,3.19,9.68H628.08a11.28,11.28,0,0,0,3.09,8.09,10.07,10.07,0,0,0,3.44,2.36,10.18,10.18,0,0,0,4.11.73,12.86,12.86,0,0,0,7.66-2.66A17,17,0,0,0,649.25,613.72Zm0-7.66a10.54,10.54,0,0,0-2.13-4.58,9.84,9.84,0,0,0-3.61-2.88,13.29,13.29,0,0,0-4.89-1.06,10.6,10.6,0,0,0-7.13,2.66,12.47,12.47,0,0,0-3.3,5.86Z"/><path class="cls-3" d="M674.78,594.77h3.62v5.11a15.79,15.79,0,0,1,4.9-4.37,11.49,11.49,0,0,1,5.74-1.38A9.85,9.85,0,0,1,698.3,600a24.58,24.58,0,0,1,1.17,8.51v14.59h-3.73V609.57a41.49,41.49,0,0,0,0-6.5,7.39,7.39,0,0,0-2.44-4.25,7.92,7.92,0,0,0-4.68-1.39,9.07,9.07,0,0,0-6,2.24,9.89,9.89,0,0,0-3.41,5.32,42,42,0,0,0,0,7.77v10.65h-3.61Z"/><path class="cls-3" d="M706.7,594.77h3.72V608a24.4,24.4,0,0,0,.54,6.71,7.23,7.23,0,0,0,3,4.15,9.2,9.2,0,0,0,5.22,1.49,8.8,8.8,0,0,0,5.1-1.49,7,7,0,0,0,3-3.83,30.19,30.19,0,0,0,.53-7v-13.2h3.73v14a21.27,21.27,0,0,1-1.38,8.83,9.91,9.91,0,0,1-4.05,4.58,12.79,12.79,0,0,1-6.91,1.7,12.54,12.54,0,0,1-6.92-1.7,10.7,10.7,0,0,1-4.15-4.68,24.22,24.22,0,0,1-1.38-9.05Z"/><path class="cls-3" d="M763.3,613.72l3.08,1.6a14,14,0,0,1-3.51,4.79,14.56,14.56,0,0,1-4.36,2.77,15.74,15.74,0,0,1-5.64,1,13.49,13.49,0,0,1-5.84-1.09,13.66,13.66,0,0,1-4.8-3.48,15.26,15.26,0,0,1-3.83-10.65,14.84,14.84,0,0,1,3.3-9.58,13.23,13.23,0,0,1,4.92-4,13.1,13.1,0,0,1,6.25-1.27,14,14,0,0,1,11.6,5.43,15.33,15.33,0,0,1,3.08,9.68H742.13a11.21,11.21,0,0,0,3.19,8.09,9.48,9.48,0,0,0,3.38,2.36,9.78,9.78,0,0,0,4.06.73,11.66,11.66,0,0,0,4.26-.74,11.89,11.89,0,0,0,3.4-1.92A17.06,17.06,0,0,0,763.3,613.72Zm0-7.66a10.77,10.77,0,0,0-2.13-4.58,9.88,9.88,0,0,0-3.62-2.88,11.94,11.94,0,0,0-4.79-1.06,10.63,10.63,0,0,0-7.23,2.66,13.41,13.41,0,0,0-3.3,5.86Z"/><path class="cls-3" d="M788.3,597.86,786,600.31a8,8,0,0,0-2.54-2,8.09,8.09,0,0,0-3.09-.81,4,4,0,0,0-1.67.27,4.08,4.08,0,0,0-1.42.9,3.37,3.37,0,0,0-1.27,2.66A4.41,4.41,0,0,0,777,604a15.28,15.28,0,0,0,4.36,3,15.73,15.73,0,0,1,5.53,4,7.23,7.23,0,0,1,1.49,4.47,8,8,0,0,1-2.45,5.86,8.73,8.73,0,0,1-6.17,2.44,10.68,10.68,0,0,1-4.68-1.06,9.92,9.92,0,0,1-3.61-3l2.23-2.56a7.87,7.87,0,0,0,6,3.09,5.38,5.38,0,0,0,3.72-1.39,4.49,4.49,0,0,0,1.09-1.49,4.67,4.67,0,0,0,.4-1.8,4.34,4.34,0,0,0-1-2.77,17.4,17.4,0,0,0-4.68-3,14.25,14.25,0,0,1-5.1-3.94,7.16,7.16,0,0,1-1.39-4.37,7.42,7.42,0,0,1,.53-2.87,7.27,7.27,0,0,1,1.6-2.45,7.32,7.32,0,0,1,5.53-2.13A11.6,11.6,0,0,1,788.3,597.86Z"/><path class="cls-3" d="M798,584.34h3.61V595h5.75v3.19h-5.75V623.3H798V598h-5v-3.2h5Z"/><path class="cls-3" d="M811.38,594.77h3.72v4.15a16.33,16.33,0,0,1,3.52-3.62,6.5,6.5,0,0,1,7.12-.21l-1.91,3a4.77,4.77,0,0,0-1.92,0,4.86,4.86,0,0,0-1.91.38,4.8,4.8,0,0,0-1.6,1.11,8.69,8.69,0,0,0-2.55,4.58,39.24,39.24,0,0,0-.75,9.79v9.58h-3.72Z"/><path class="cls-3" d="M842.23,594.13a13.8,13.8,0,0,1,10.64,4.69,14.27,14.27,0,0,1,3,4.92,14.45,14.45,0,0,1,.89,5.72,14.75,14.75,0,0,1-4.15,10.65,14.92,14.92,0,0,1-4.86,3.34,14.79,14.79,0,0,1-20.57-14,14.92,14.92,0,0,1,3.83-10.64,14,14,0,0,1,5.05-3.62A13.84,13.84,0,0,1,842.23,594.13Zm0,3.52a10.42,10.42,0,0,0-4.23.89,10.64,10.64,0,0,0-3.53,2.51,11.47,11.47,0,0,0-1.81,13.73,10.47,10.47,0,0,0,4,4.15,10.59,10.59,0,0,0,5.53,1.39,11.34,11.34,0,0,0,5.64-1.39,10.56,10.56,0,0,0,3.94-4.15,11.92,11.92,0,0,0,.7-10,10.57,10.57,0,0,0-2.51-3.69,10.74,10.74,0,0,0-3.53-2.51A10.5,10.5,0,0,0,842.23,597.65Z"/><path class="cls-3" d="M877.87,597.86l-2.34,2.45a8.31,8.31,0,0,0-5.75-2.77,3.93,3.93,0,0,0-3,1.17,3.42,3.42,0,0,0-1.28,2.66,3.85,3.85,0,0,0,1.06,2.66,14,14,0,0,0,4.37,3,16.24,16.24,0,0,1,5.42,4,7.23,7.23,0,0,1,1.49,4.47,8,8,0,0,1-2.45,5.86,8.29,8.29,0,0,1-6.17,2.44,10,10,0,0,1-4.57-1.06,10.8,10.8,0,0,1-3.73-3l2.56-2.34a7.91,7.91,0,0,0,2.63,2.21,8,8,0,0,0,3.33.88,5.23,5.23,0,0,0,3.72-1.39,4.29,4.29,0,0,0,1.6-3.3,4.49,4.49,0,0,0-1.07-2.77,16.45,16.45,0,0,0-4.57-3,15.87,15.87,0,0,1-5.21-3.94,7.11,7.11,0,0,1-1.39-4.36,7,7,0,0,1,2.24-5.32,7.09,7.09,0,0,1,2.53-1.66,7.16,7.16,0,0,1,3-.47A12,12,0,0,1,877.87,597.86Z"/><path class="cls-3" d="M260.32,672.91l-2.87,1.81a11.91,11.91,0,0,0-10.64-4.9,11.6,11.6,0,0,0-8.51,3.3,12.38,12.38,0,0,0,3.4,18.21,12.87,12.87,0,0,0,6.17,1.49,12.13,12.13,0,0,0,10.11-4.9l2.87,1.81a12.6,12.6,0,0,1-5.43,4.79,18,18,0,0,1-7.76,1.7A15.4,15.4,0,0,1,237,692a13.89,13.89,0,0,1-3.38-4.84,14.05,14.05,0,0,1-1.09-5.8,15.55,15.55,0,0,1,2-7.56,14.36,14.36,0,0,1,5.75-5.53,16.88,16.88,0,0,1,8.08-2,19.6,19.6,0,0,1,5.43.85,18.36,18.36,0,0,1,4.36,2.24A12.47,12.47,0,0,1,260.32,672.91Z"/><path class="cls-3" d="M266.81,656.19h3.62v39.18h-3.62Z"/><path class="cls-3" d="M279.25,655.45a2.87,2.87,0,0,1,2.43,4.27,2.82,2.82,0,0,1-1.45,1.27,2.88,2.88,0,0,1-1.92.08,2.87,2.87,0,0,1-2-3,2.79,2.79,0,0,1,.82-1.74A3.17,3.17,0,0,1,279.25,655.45Zm-1.8,11.6h3.61v28.32h-3.61Z"/><path class="cls-3" d="M312.45,686l3.08,1.59a21.17,21.17,0,0,1-3.51,4.79,13.63,13.63,0,0,1-4.47,2.77,15.12,15.12,0,0,1-5.53,1,13.6,13.6,0,0,1-10.64-4.58,15.45,15.45,0,0,1-.64-19.8,13.72,13.72,0,0,1,5-4.09,13.57,13.57,0,0,1,6.3-1.34,14.07,14.07,0,0,1,11.49,5.53,15.11,15.11,0,0,1,3.09,9.69H291.17a11.83,11.83,0,0,0,3.19,8.09,10.62,10.62,0,0,0,7.55,3.09,11.3,11.3,0,0,0,4.15-.75,10.9,10.9,0,0,0,3.51-2A16.85,16.85,0,0,0,312.45,686Zm0-7.67a12.84,12.84,0,0,0-2.13-4.68,11.29,11.29,0,0,0-3.73-2.77,11,11,0,0,0-11.91,1.59,12,12,0,0,0-3.3,5.86Z"/><path class="cls-3" d="M323.19,667.05h3.62v5.12a15.51,15.51,0,0,1,4.89-4.37,11.58,11.58,0,0,1,5.75-1.49,9.52,9.52,0,0,1,5.63,1.71,9.31,9.31,0,0,1,3.62,4.25,23.91,23.91,0,0,1,1.17,8.52v14.58h-3.62V681.85a37,37,0,0,0,0-6.49,7.33,7.33,0,0,0-2.44-4.26,7.22,7.22,0,0,0-4.68-1.38,9,9,0,0,0-5.85,2.12,10.59,10.59,0,0,0-3.51,5.43,37.81,37.81,0,0,0,0,7.67v10.65h-3.62Z"/><path class="cls-3" d="M358.83,656.62h3.62v10.65h5.74v3.4h-5.74V695.8h-3.62V670.67h-5v-3.19h5Z"/><path class="cls-3" d="M397.45,686l3.08,1.59a16.42,16.42,0,0,1-3.51,4.79,13.63,13.63,0,0,1-4.47,2.77,15.12,15.12,0,0,1-5.53,1,13.91,13.91,0,0,1-10.64-4.58,15.22,15.22,0,0,1-3.83-10.65,14.84,14.84,0,0,1,3.3-9.58A13.29,13.29,0,0,1,387,665.88a14,14,0,0,1,11.49,5.54,15.15,15.15,0,0,1,3.19,9.69H376.27a11.32,11.32,0,0,0,3.09,8.09,10.49,10.49,0,0,0,3.47,2.29,11.31,11.31,0,0,0,8.23,0,11.28,11.28,0,0,0,3.51-2A14.71,14.71,0,0,0,397.45,686Zm0-7.67a11.22,11.22,0,0,0-2.13-4.68,10.65,10.65,0,0,0-3.62-2.77,11.32,11.32,0,0,0-4.89-1.07,10.67,10.67,0,0,0-7.13,2.66,12.88,12.88,0,0,0-3.3,5.86Z"/><path class="cls-3" d="M422.45,670.67l-2.35,2.45a8.18,8.18,0,0,0-2.58-2,8.32,8.32,0,0,0-3.16-.86,4.4,4.4,0,0,0-3,1.17,3.72,3.72,0,0,0-.93,1.25,3.76,3.76,0,0,0-.35,1.52,3.84,3.84,0,0,0,1.07,2.66,14,14,0,0,0,4.36,3,16.73,16.73,0,0,1,5.53,4,7.22,7.22,0,0,1,1.39,4.47,8,8,0,0,1-.6,3.19A8.07,8.07,0,0,1,420,694.2a8.26,8.26,0,0,1-2.78,1.85,8.42,8.42,0,0,1-3.29.6,12.24,12.24,0,0,1-4.68-1.06,10.81,10.81,0,0,1-3.19-3.63l2.34-2.55a8,8,0,0,0,5.85,3.09,5.17,5.17,0,0,0,3.73-1.39,4.22,4.22,0,0,0,1.17-1.47,4.1,4.1,0,0,0,.42-1.83,4,4,0,0,0-1.06-2.77,13.12,13.12,0,0,0-4.58-3,16.36,16.36,0,0,1-5.21-3.94,7.94,7.94,0,0,1-1.38-4.37,7.3,7.3,0,0,1,.55-3,7.62,7.62,0,0,1,1.68-2.48,7.79,7.79,0,0,1,5.54-2.13A11.54,11.54,0,0,1,422.45,670.67Z"/><path class="cls-3" d="M432.55,688.35l3.41,1.7-5.22,9.79-2.55-1.06Z"/><path class="cls-3" d="M485.74,672.91l-2.87,1.81a11.91,11.91,0,0,0-10.64-4.9,11.62,11.62,0,0,0-4.59.78,11.77,11.77,0,0,0-3.92,2.52,10.67,10.67,0,0,0-3.4,8.09,12,12,0,0,0,1.49,5.75,11.16,11.16,0,0,0,4.36,4.26,12.76,12.76,0,0,0,6.17,1.49,12.38,12.38,0,0,0,5.64-1.23,12.22,12.22,0,0,0,4.46-3.67l2.88,1.81a12.54,12.54,0,0,1-5.43,4.79,18.1,18.1,0,0,1-7.76,1.71,15.43,15.43,0,0,1-10.64-4.26A14,14,0,0,1,457,681.21a14.67,14.67,0,0,1,7.76-13.09,16.82,16.82,0,0,1,8.09-2,19.24,19.24,0,0,1,5.43.85,18.9,18.9,0,0,1,4.36,2.23A12.45,12.45,0,0,1,485.74,672.91Z"/><path class="cls-3" d="M506.17,666.31a13.63,13.63,0,0,1,10.64,4.79,14.52,14.52,0,0,1,3.05,4.92,14.34,14.34,0,0,1,.88,5.73,14.63,14.63,0,0,1-1,5.74,14.82,14.82,0,0,1-3.15,4.9A13.62,13.62,0,0,1,506,696.86a13.8,13.8,0,0,1-10.64-4.47,15.56,15.56,0,0,1-.21-21.29,13.72,13.72,0,0,1,5-3.65A14,14,0,0,1,506.17,666.31Zm0,3.62a10.68,10.68,0,0,0-7.87,3.3,11.35,11.35,0,0,0-3.19,8.09,11.61,11.61,0,0,0,1.44,5.65,11.76,11.76,0,0,0,4,4.25,11.33,11.33,0,0,0,5.64,1.38,11.13,11.13,0,0,0,5.53-1.38,10,10,0,0,0,3.94-4.15,10.65,10.65,0,0,0,1.48-5.75,11.34,11.34,0,0,0-3.18-8.09,10.7,10.7,0,0,0-7.77-3.3Z"/><path class="cls-3" d="M527,656.19h3.61v39.18H527Z"/><path class="cls-3" d="M566.38,667.05v28.32h-3.61v-4.9a14.61,14.61,0,0,1-11.28,5.65,14.08,14.08,0,0,1-10.64-4.37,15,15,0,0,1-4.26-10.64,14.58,14.58,0,0,1,21-13.52,13.8,13.8,0,0,1,4.89,4.47v-5.22Zm-14.47,2.77a10.76,10.76,0,0,0-5.64,1.49,12.35,12.35,0,0,0-4.15,4.26,11.89,11.89,0,0,0,4.15,15.65,11.16,11.16,0,0,0,10.64,0,10.63,10.63,0,0,0,4.15-4.05,12.06,12.06,0,0,0-1.8-14A10.68,10.68,0,0,0,551.91,669.82Z"/><path class="cls-3" d="M574.79,695.37V656.19h3.61V672a17.06,17.06,0,0,1,5.11-4.26,15.61,15.61,0,0,1,6.28-1.38,14,14,0,0,1,10.63,4.36,15.22,15.22,0,0,1,0,21.29,14.1,14.1,0,0,1-4.86,3.31,14.28,14.28,0,0,1-5.77,1.06,13.3,13.3,0,0,1-6.28-1.49,15.31,15.31,0,0,1-5-4.47v5.22Zm14.57-2.77a10.44,10.44,0,0,0,5.53-1.49,11.29,11.29,0,0,0,4.15-4.25,11.65,11.65,0,0,0,0-11.4,11.26,11.26,0,0,0-19.46-.21,11.63,11.63,0,0,0-1.39,5.86,11.5,11.5,0,0,0,3.19,8.19,10.72,10.72,0,0,0,3.64,2.5A10.56,10.56,0,0,0,589.36,692.6Z"/><path class="cls-3" d="M624.26,666.31a13.63,13.63,0,0,1,10.63,4.79A14.55,14.55,0,0,1,638,676a18,18,0,0,1-.12,11.47,14.51,14.51,0,0,1-3.15,4.9A13.62,13.62,0,0,1,624,696.86a13.8,13.8,0,0,1-10.64-4.47,14.51,14.51,0,0,1-3.15-4.9,14.82,14.82,0,0,1-1-5.74,14.53,14.53,0,0,1,.89-5.73,14.37,14.37,0,0,1,3.05-4.92,13.76,13.76,0,0,1,5-3.65A13.93,13.93,0,0,1,624.26,666.31Zm0,3.62a10.68,10.68,0,0,0-7.88,3.3,11.4,11.4,0,0,0-3.19,8.09,11.61,11.61,0,0,0,1.44,5.65,11.76,11.76,0,0,0,4,4.25,11.36,11.36,0,0,0,5.65,1.38,10.5,10.5,0,0,0,9.57-5.53A12.15,12.15,0,0,0,632,673.23a10.66,10.66,0,0,0-7.76-3.3Z"/><path class="cls-3" d="M644.25,667.05H648v4.16a13.89,13.89,0,0,1,3.51-3.62,6.26,6.26,0,0,1,7.12,0l-1.91,3.08a5.11,5.11,0,0,0-1.91,0,4.8,4.8,0,0,0-1.91.39,4.56,4.56,0,0,0-1.6,1.11,8.61,8.61,0,0,0-2.56,4.57,38.81,38.81,0,0,0-.74,9.8v9.58h-3.73Z"/><path class="cls-3" d="M689.78,667.05v28.32h-3.51v-4.9a14.36,14.36,0,0,1-5.21,4.16,13.22,13.22,0,0,1-6.17,1.49,13.57,13.57,0,0,1-10.64-4.37,15.08,15.08,0,0,1,0-21.06,14.68,14.68,0,0,1,10.35-4.38,13.33,13.33,0,0,1,6.28,1.49,15.21,15.21,0,0,1,5,4.47v-5.22Zm-14.46,2.77a11.59,11.59,0,0,0-5.64,1.49,11.37,11.37,0,0,0-4,15.65,11,11,0,0,0,9.68,5.75,12,12,0,0,0,5.63-1.49,10.51,10.51,0,0,0,4-4.05,11.71,11.71,0,0,0,1.49-5.85,11.51,11.51,0,0,0-3.19-8.2,11.38,11.38,0,0,0-3.67-2.44A11.16,11.16,0,0,0,675.32,669.82Z"/><path class="cls-3" d="M726.17,656.19v39.18h-3.51v-4.9a15.27,15.27,0,0,1-5.11,4.16,14,14,0,0,1-6.28,1.49,13.54,13.54,0,0,1-10.63-4.37,14.39,14.39,0,0,1-3.23-4.88,15.11,15.11,0,0,1,3.2-16.18,14.71,14.71,0,0,1,4.73-3.22,14.87,14.87,0,0,1,5.62-1.16,13.29,13.29,0,0,1,6.27,1.49,15.21,15.21,0,0,1,5,4.47V656.19ZM711.7,669.82a11.59,11.59,0,0,0-5.64,1.49,10.68,10.68,0,0,0-4,4.26A11.63,11.63,0,0,0,702,687a11.39,11.39,0,0,0,4.15,4.26,10.65,10.65,0,0,0,5.53,1.49,12.11,12.11,0,0,0,5.64-1.49,9.91,9.91,0,0,0,4-4.05,11.71,11.71,0,0,0,1.49-5.85A11,11,0,0,0,716,670.68,11.25,11.25,0,0,0,711.7,669.82Z"/><path class="cls-3" d="M747.87,666.31a13.59,13.59,0,0,1,5.86,1.2,13.73,13.73,0,0,1,4.78,3.59,14.37,14.37,0,0,1,3,4.92,14.53,14.53,0,0,1,.89,5.73,14.79,14.79,0,0,1-20.57,14,14.66,14.66,0,0,1-4.86-3.34,14.51,14.51,0,0,1-3.15-4.9,14.82,14.82,0,0,1-1-5.74,14.44,14.44,0,0,1,3.94-10.65,13.67,13.67,0,0,1,5-3.65A13.91,13.91,0,0,1,747.87,666.31Zm0,3.62a10.47,10.47,0,0,0-4.28.83,10.58,10.58,0,0,0-3.59,2.47,11.4,11.4,0,0,0-3.19,8.09,11.61,11.61,0,0,0,1.44,5.65,11.76,11.76,0,0,0,4,4.25,11.33,11.33,0,0,0,5.64,1.38,11.13,11.13,0,0,0,5.53-1.38,10,10,0,0,0,3.94-4.15,10.66,10.66,0,0,0,1.49-5.75,11.4,11.4,0,0,0-3.19-8.09,10.66,10.66,0,0,0-7.77-3.3Z"/><path class="cls-3" d="M767.77,667.05h3.72v4.16a13.89,13.89,0,0,1,3.51-3.62,6.28,6.28,0,0,1,7.13,0l-1.92,3.08a5.16,5.16,0,0,0-1.92,0,4.79,4.79,0,0,0-1.9.39,4.56,4.56,0,0,0-1.6,1.11,8.61,8.61,0,0,0-2.56,4.57,38.81,38.81,0,0,0-.74,9.8v9.58h-3.72Z"/><path class="cls-3" d="M809,686l3.09,1.59a16.6,16.6,0,0,1-3.51,4.79,14.41,14.41,0,0,1-4.37,2.77,15.67,15.67,0,0,1-5.64,1A13.95,13.95,0,0,1,788,691.54a15.26,15.26,0,0,1-3.82-10.65,14.78,14.78,0,0,1,3.3-9.58,13.28,13.28,0,0,1,11.16-5.43,14.27,14.27,0,0,1,11.6,5.54,15.15,15.15,0,0,1,3.09,9.69H787.87A11.72,11.72,0,0,0,791,689.2a10.55,10.55,0,0,0,3.46,2.29,10.84,10.84,0,0,0,4.09.8,11.65,11.65,0,0,0,4.25-.75,12,12,0,0,0,3.41-2A14.91,14.91,0,0,0,809,686Zm0-7.67a11,11,0,0,0-2.13-4.68,11,11,0,0,0-8.4-3.84,10.65,10.65,0,0,0-7.24,2.66,13.07,13.07,0,0,0-3.3,5.86Z"/><path class="cls-3" d="M834,670.67l-2.34,2.45a8.29,8.29,0,0,0-5.64-2.87,4.67,4.67,0,0,0-3.08,1.17,3.62,3.62,0,0,0-.94,1.25,3.75,3.75,0,0,0-.34,1.52,3.84,3.84,0,0,0,1.07,2.66,15.65,15.65,0,0,0,4.35,3,15.52,15.52,0,0,1,5.54,4,7.21,7.21,0,0,1,1.38,4.47,7.75,7.75,0,0,1-2.45,5.85,8.16,8.16,0,0,1-2.78,1.85,8.37,8.37,0,0,1-3.28.6,12.15,12.15,0,0,1-4.68-1.06,11.39,11.39,0,0,1-3.73-3l2.35-2.55a8,8,0,0,0,2.64,2.19,8.18,8.18,0,0,0,3.31.9,5.47,5.47,0,0,0,3.73-1.39,4.56,4.56,0,0,0,1.08-1.49,4.34,4.34,0,0,0,.4-1.81,3.91,3.91,0,0,0-1.06-2.77,13.34,13.34,0,0,0-4.57-3,16,16,0,0,1-5.22-3.94,7.88,7.88,0,0,1-1.38-4.36,7.3,7.3,0,0,1,2.24-5.43,7.78,7.78,0,0,1,5.53-2.13A11.54,11.54,0,0,1,834,670.67Z"/><path class="cls-3" d="M844.14,688.35l3.52,1.7-5.32,9.79-2.55-1.06Z"/><path class="cls-3" d="M186.7,739.34h3.72v5.22a13.85,13.85,0,0,1,4.9-4.48,13.65,13.65,0,0,1,6.27-1.49A14.68,14.68,0,0,1,211.94,743a14.71,14.71,0,0,1,4.23,10.42A14.71,14.71,0,0,1,211.91,764a13.59,13.59,0,0,1-4.85,3.3,13.44,13.44,0,0,1-5.78.95,13.06,13.06,0,0,1-6.17-1.38,14.4,14.4,0,0,1-5.11-4.15V778h-3.72Zm14.58,2.77a10.61,10.61,0,0,0-4.32.7,10.46,10.46,0,0,0-3.66,2.39,10.61,10.61,0,0,0-3.3,8.19,12.24,12.24,0,0,0,1.49,5.86,11.33,11.33,0,0,0,4,4,12,12,0,0,0,5.75,1.49,10.58,10.58,0,0,0,5.42-1.49,11.29,11.29,0,0,0,4.15-4.25,11.75,11.75,0,0,0-4-15.66A11.43,11.43,0,0,0,201.28,742.11Z"/><path class="cls-3" d="M221.59,739.34h3.62v4.15a11.55,11.55,0,0,1,3.51-3.62,7,7,0,0,1,3.83-1.28,6.11,6.11,0,0,1,3.19,1l-1.81,3.09a6.61,6.61,0,0,0-1.91-.53,5.19,5.19,0,0,0-3.51,1.49,9.9,9.9,0,0,0-2.66,4.68,47.23,47.23,0,0,0-.64,9.79v9.59h-3.72Z"/><path class="cls-3" d="M252.34,738.59A14,14,0,0,1,263,743.38,15,15,0,0,1,266.91,754a14.63,14.63,0,0,1-1,5.74,15,15,0,0,1-3.15,4.91,15.11,15.11,0,0,1-21.28,0,14.65,14.65,0,0,1-3.1-4.92,14.36,14.36,0,0,1-.94-5.73,14.92,14.92,0,0,1,3.83-10.65,13.94,13.94,0,0,1,11.06-4.79Zm0,3.62a11.47,11.47,0,0,0-10.28,7,10.5,10.5,0,0,0-.78,4.4,12,12,0,0,0,1.49,5.74,9.85,9.85,0,0,0,4,4,10.68,10.68,0,0,0,10.64,0,9.91,9.91,0,0,0,4-4,12.15,12.15,0,0,0,1.49-5.74,11.3,11.3,0,0,0-10.64-11.4Z"/><path class="cls-3" d="M271.17,739.34H275L284.47,760l9.36-20.65h3.94l-13,28.32h-.64Z"/><path class="cls-3" d="M327.13,758.29l3,1.6a18.34,18.34,0,0,1-3.41,4.79,16.36,16.36,0,0,1-4.47,2.76,15.42,15.42,0,0,1-5.63.85A13.41,13.41,0,0,1,306,763.83a15.54,15.54,0,0,1-.64-19.91A13.5,13.5,0,0,1,316,738.59a13.8,13.8,0,0,1,11.59,5.54,15.11,15.11,0,0,1,3.09,9.69H305.21a11.52,11.52,0,0,0,3.19,8,10,10,0,0,0,3.38,2.41,9.81,9.81,0,0,0,4.07.78,11.49,11.49,0,0,0,4.26-.74,9.63,9.63,0,0,0,3.4-2A19.63,19.63,0,0,0,327.13,758.29Zm0-7.67a14.7,14.7,0,0,0-2.13-4.68,11.15,11.15,0,0,0-15.64-1.17,11.94,11.94,0,0,0-3.3,5.85Z"/><path class="cls-3" d="M361.7,758.29l3,1.6a18.34,18.34,0,0,1-3.41,4.79,16.31,16.31,0,0,1-4.46,2.76,15.5,15.5,0,0,1-5.64.85,13.16,13.16,0,0,1-5.82-1,13.3,13.3,0,0,1-4.82-3.43,15.54,15.54,0,0,1-.64-19.91,13.5,13.5,0,0,1,10.64-5.33,13.84,13.84,0,0,1,11.6,5.54,15.16,15.16,0,0,1,3.08,9.69H339.79a11.47,11.47,0,0,0,3.19,8,9.68,9.68,0,0,0,7.44,3.19,11.45,11.45,0,0,0,4.26-.74,10.62,10.62,0,0,0,3.41-2A19.58,19.58,0,0,0,361.7,758.29Zm0-7.67a14.7,14.7,0,0,0-2.13-4.68,11.14,11.14,0,0,0-15.63-1.17,11.87,11.87,0,0,0-3.3,5.85Z"/><path class="cls-3" d="M400.64,728.37v39.29H397v-4.9a14.4,14.4,0,0,1-5.11,4.15,13.43,13.43,0,0,1-6.17,1.38A13.91,13.91,0,0,1,375.11,764a15.11,15.11,0,0,1-4.26-10.65,14.58,14.58,0,0,1,21-13.52,13.8,13.8,0,0,1,4.89,4.47v-16Zm-14.58,13.74a10.56,10.56,0,0,0-5.53,1.49,12.15,12.15,0,0,0-4.15,4.25,11.55,11.55,0,0,0-1.49,5.65,11.55,11.55,0,0,0,5.64,10,11.15,11.15,0,0,0,11.17,0,10.54,10.54,0,0,0,4.15-4,12.18,12.18,0,0,0,1.38-5.85,11.23,11.23,0,0,0-3.19-8.2,10.6,10.6,0,0,0-8-3.3Z"/><path class="cls-3" d="M422.23,738.59a13.94,13.94,0,0,1,10.64,4.79A15.05,15.05,0,0,1,436.81,754a14.75,14.75,0,0,1-4.15,10.65,15.11,15.11,0,0,1-21.28,0A14.75,14.75,0,0,1,407.23,754a15.05,15.05,0,0,1,3.94-10.65,14,14,0,0,1,11.06-4.79Zm0,3.62a10.75,10.75,0,0,0-4.22.85,11.09,11.09,0,0,0-6.84,10.55,12,12,0,0,0,1.49,5.74,9.85,9.85,0,0,0,4,4,10.68,10.68,0,0,0,10.64,0,9.85,9.85,0,0,0,4-4,12,12,0,0,0,1.49-5.74,10.66,10.66,0,0,0-.78-4.4,11.56,11.56,0,0,0-9.86-7Z"/><path class="cls-3" d="M442.34,739.34h3.72v4.15a11.48,11.48,0,0,1,3.52-3.62,6.34,6.34,0,0,1,3.82-1.28,6.75,6.75,0,0,1,3.19,1l-1.91,3.09a5.14,5.14,0,0,0-1.92-.53,5.63,5.63,0,0,0-3.51,1.49,10.7,10.7,0,0,0-2.55,4.68,47.23,47.23,0,0,0-.64,9.79v9.59h-3.72Z"/><path class="cls-3" d="M483.51,758.29l3.08,1.6a21.39,21.39,0,0,1-3.51,4.79,15.13,15.13,0,0,1-4.46,2.76,14.94,14.94,0,0,1-5.54.85,13.53,13.53,0,0,1-10.63-4.46,15.22,15.22,0,0,1-3.94-10.65,15.87,15.87,0,0,1,3.3-9.69,14.67,14.67,0,0,1,22.76,0,15.11,15.11,0,0,1,3.09,9.69H462.23a11.56,11.56,0,0,0,3.19,8,10,10,0,0,0,3.44,2.41,9.85,9.85,0,0,0,4.12.78,12.07,12.07,0,0,0,7.66-2.76A19.59,19.59,0,0,0,483.51,758.29Zm0-7.67a12.67,12.67,0,0,0-2.13-4.68,10.07,10.07,0,0,0-3.72-2.77,11.06,11.06,0,0,0-11.92,1.6,11.93,11.93,0,0,0-3.29,5.85Z"/><path class="cls-3" d="M508.51,742.43l-2.34,2.44a8.52,8.52,0,0,0-5.74-2.87,4.21,4.21,0,0,0-1.61.29,4.17,4.17,0,0,0-1.38.88,3.65,3.65,0,0,0-1.27,2.77,4,4,0,0,0,1,2.55,16.19,16.19,0,0,0,4.46,3.09,14.87,14.87,0,0,1,5.43,4,7.23,7.23,0,0,1,1.49,4.36,8.15,8.15,0,0,1-2.45,6,8.29,8.29,0,0,1-6.17,2.34,9.66,9.66,0,0,1-4.57-1.06,8.86,8.86,0,0,1-3.72-2.88l2.23-2.66a8,8,0,0,0,6,3.2,5.23,5.23,0,0,0,3.72-1.39,4.47,4.47,0,0,0,.53-6.07,16.18,16.18,0,0,0-4.58-3.08,14.57,14.57,0,0,1-5.2-3.83,7.65,7.65,0,0,1,.85-9.8,7.59,7.59,0,0,1,2.55-1.62,7.73,7.73,0,0,1,3-.51A11.7,11.7,0,0,1,508.51,742.43Z"/><path class="cls-3" d="M518.51,760.63l3.51,1.6-5.21,9.9L514.15,771Z"/><path class="cls-3" d="M572.55,739.34v28.32h-3.61v-4.9a14.49,14.49,0,0,1-5.11,4.15,13.5,13.5,0,0,1-6.28,1.38A14,14,0,0,1,546.91,764a15.22,15.22,0,0,1,0-21.29,14.89,14.89,0,0,1,17-2.88,14,14,0,0,1,4.89,4.47v-5.21ZM558,742.11a11.59,11.59,0,0,0-5.64,1.49,10.59,10.59,0,0,0-4,4.25,11.59,11.59,0,0,0,4.15,15.65A10.44,10.44,0,0,0,558,765a11.87,11.87,0,0,0,5.64-1.49,10.51,10.51,0,0,0,4.14-4,12.07,12.07,0,0,0,1.39-5.85,11.28,11.28,0,0,0-3.51-8.41,10.81,10.81,0,0,0-3.52-2.33A10.67,10.67,0,0,0,558,742.11Z"/><path class="cls-3" d="M594.89,728.37h3.62v39.29h-3.62Z"/><path class="cls-3" d="M634.25,739.34v28.32h-3.61v-4.9a14.49,14.49,0,0,1-5.11,4.15,13.5,13.5,0,0,1-6.28,1.38A13.91,13.91,0,0,1,608.62,764a15.11,15.11,0,0,1-4.26-10.65,14.75,14.75,0,0,1,1-5.76,14.49,14.49,0,0,1,3.21-4.88,14.1,14.1,0,0,1,4.86-3.31,15.24,15.24,0,0,1,12.16.43,13.8,13.8,0,0,1,4.89,4.47v-5.21Zm-14.57,2.77a10.54,10.54,0,0,0-5.53,1.49,11.59,11.59,0,0,0,0,19.9,10.44,10.44,0,0,0,5.53,1.49,11.62,11.62,0,0,0,5.64-1.49,10.51,10.51,0,0,0,4.14-4,12.07,12.07,0,0,0,1.39-5.85,11.34,11.34,0,0,0-.77-4.43,11.13,11.13,0,0,0-2.42-3.77,10.6,10.6,0,0,0-8-3.3Z"/><path class="cls-3" d="M671.38,742.43,669,744.87a8.52,8.52,0,0,0-5.75-2.87,4.37,4.37,0,0,0-3,1.17,3.53,3.53,0,0,0-1,1.25,3.58,3.58,0,0,0-.33,1.52,3.55,3.55,0,0,0,1.07,2.55,14,14,0,0,0,4.36,3.09,15,15,0,0,1,5.42,4,7.23,7.23,0,0,1,1.49,4.36,8.14,8.14,0,0,1-.63,3.27,8,8,0,0,1-1.88,2.75,8.14,8.14,0,0,1-2.81,1.78,8.24,8.24,0,0,1-3.3.5,9.68,9.68,0,0,1-4.57-1.06,9,9,0,0,1-3.73-2.88l2.24-2.66a7.91,7.91,0,0,0,2.62,2.26,8,8,0,0,0,3.34.94,5.23,5.23,0,0,0,3.72-1.39,4,4,0,0,0,1-1.38,4.17,4.17,0,0,0,0-3.3,4.13,4.13,0,0,0-1-1.39,16.27,16.27,0,0,0-4.57-3.08,14.56,14.56,0,0,1-5.22-3.83,7.67,7.67,0,0,1,.86-9.8A7.59,7.59,0,0,1,660,739.1a7.76,7.76,0,0,1,3-.51,11.93,11.93,0,0,1,4.59,1A11.66,11.66,0,0,1,671.38,742.43Z"/><path class="cls-3" d="M691.17,738.59a14,14,0,0,1,10.64,4.79A15,15,0,0,1,705.64,754a14.64,14.64,0,0,1-4,10.65,15.11,15.11,0,0,1-21.28,0,14.65,14.65,0,0,1-3.15-4.91,14.46,14.46,0,0,1-1-5.74,15,15,0,0,1,3.93-10.65,14,14,0,0,1,11.07-4.79Zm0,3.62a10.66,10.66,0,0,0-7.77,3.3,10.52,10.52,0,0,0-2.51,3.7,10.67,10.67,0,0,0-.79,4.4,12.27,12.27,0,0,0,1.49,5.74,9.88,9.88,0,0,0,4,4,10.68,10.68,0,0,0,10.64,0,9.91,9.91,0,0,0,4-4,12.15,12.15,0,0,0,1.49-5.74,10.76,10.76,0,0,0-3.3-8.1A10.66,10.66,0,0,0,691.17,742.21Z"/><path class="cls-3" d="M740,745.2l-2.88,1.8a12,12,0,0,0-10.1-5,11.66,11.66,0,0,0-8.62,3.41,10.65,10.65,0,0,0-3.4,8,11.39,11.39,0,0,0,1.59,5.86,10.63,10.63,0,0,0,4.26,4.25A13.1,13.1,0,0,0,727,765a12.18,12.18,0,0,0,10.1-5l2.88,1.92a13.38,13.38,0,0,1-5.43,4.79,17.59,17.59,0,0,1-7.76,1.59A15,15,0,0,1,716.17,764a13.63,13.63,0,0,1-4.47-10.65,14.83,14.83,0,0,1,2.13-7.67,13.86,13.86,0,0,1,5.63-5.42,16,16,0,0,1,8.09-2,19.25,19.25,0,0,1,5.43.86,18.51,18.51,0,0,1,4.36,2.23A12.36,12.36,0,0,1,740,745.2Z"/><path class="cls-3" d="M748.3,727.73a2.85,2.85,0,0,1,1.15.2,2.7,2.7,0,0,1,1,.66,3,3,0,0,1,.85,2.13,3,3,0,0,1-3,3,3,3,0,0,1-2.11-.88,2.94,2.94,0,0,1-.87-2.1,2.8,2.8,0,0,1,.21-1.15,2.92,2.92,0,0,1,.64-1,2.7,2.7,0,0,1,1-.66A2.87,2.87,0,0,1,748.3,727.73Zm-1.81,11.61h3.61v28.32h-3.61Z"/><path class="cls-3" d="M781.49,758.29l3.08,1.6a21.39,21.39,0,0,1-3.51,4.79,13.66,13.66,0,0,1-4.46,2.76,14.94,14.94,0,0,1-5.54.85,13.36,13.36,0,0,1-5.82-1,13.57,13.57,0,0,1-4.82-3.42,15.26,15.26,0,0,1-3.93-10.65,15.87,15.87,0,0,1,3.3-9.69,14.67,14.67,0,0,1,22.76,0,15.11,15.11,0,0,1,3.09,9.69H760.21a11.47,11.47,0,0,0,3.19,8,10,10,0,0,0,7.55,3.19,12.07,12.07,0,0,0,7.67-2.76A20.05,20.05,0,0,0,781.49,758.29Zm0-7.67a12.84,12.84,0,0,0-2.13-4.68,10,10,0,0,0-3.73-2.77,11,11,0,0,0-11.91,1.6,11.94,11.94,0,0,0-3.3,5.85Z"/><path class="cls-3" d="M821,728.37v39.29h-3.5v-4.9a15.94,15.94,0,0,1-5.22,4.15,13.06,13.06,0,0,1-6.17,1.38A14,14,0,0,1,795.42,764a15.06,15.06,0,0,1-4.15-10.65A14.71,14.71,0,0,1,795.5,743a14.68,14.68,0,0,1,10.35-4.38,13.73,13.73,0,0,1,6.28,1.49,14,14,0,0,1,5,4.48V728.37Zm-14.46,13.74a11.38,11.38,0,0,0-5.64,1.49,12.17,12.17,0,0,0-5.64,9.9,12.22,12.22,0,0,0,5.64,10,11.29,11.29,0,0,0,5.53,1.49,12,12,0,0,0,5.75-1.49,11.33,11.33,0,0,0,4-4,12.23,12.23,0,0,0,1.49-5.85,11.1,11.1,0,0,0-11.7-11.5Z"/><path class="cls-3" d="M856.81,739.34v28.32h-3.94v-4.9a15.8,15.8,0,0,1-5.21,4.15,13.12,13.12,0,0,1-6.18,1.38,13.46,13.46,0,0,1-5.78-.95,13.67,13.67,0,0,1-4.85-3.3,14.88,14.88,0,0,1,11.38-25.45,13.7,13.7,0,0,1,6.28,1.49,14.07,14.07,0,0,1,5,4.48v-5.22Zm-14.47,2.77a11.38,11.38,0,0,0-5.64,1.49,12.24,12.24,0,0,0-5.64,9.9,12.22,12.22,0,0,0,5.64,10,11.65,11.65,0,0,0,5.53,1.49A12,12,0,0,0,848,763.5a11.33,11.33,0,0,0,4-4,12.24,12.24,0,0,0,1.49-5.86,10.65,10.65,0,0,0-3.3-8.19,10.72,10.72,0,0,0-3.64-2.5,10.59,10.59,0,0,0-4.34-.8Z"/><path class="cls-3" d="M893.19,728.37v39.29h-3.51v-4.9a15.8,15.8,0,0,1-5.21,4.15,13.11,13.11,0,0,1-6.17,1.38,13.46,13.46,0,0,1-5.79-.95,13.67,13.67,0,0,1-4.85-3.3A14.88,14.88,0,0,1,878,738.59a13.38,13.38,0,0,1,6.27,1.49,14,14,0,0,1,5,4.48V728.37Zm-14.47,13.74a11.41,11.41,0,0,0-5.64,1.49,11.63,11.63,0,0,0,.11,19.9,10.47,10.47,0,0,0,5.53,1.49,11.87,11.87,0,0,0,5.64-1.49,10.59,10.59,0,0,0,4-4,12.23,12.23,0,0,0,1.49-5.85,11.23,11.23,0,0,0-3.19-8.2,10.72,10.72,0,0,0-3.64-2.5A10.59,10.59,0,0,0,878.72,742.11Z"/><path class="cls-3" d="M332.76,811.62h3.84l9.78,21.29,9.36-21.29h3.94l-16.92,38.65h-3.83l5.43-12.56Z"/><path class="cls-3" d="M407.23,811.62v28.21h-3.61V835a16.07,16.07,0,0,1-5.11,4.16,13.58,13.58,0,0,1-6.17,1.38,13.73,13.73,0,0,1-5.8-1,13.9,13.9,0,0,1-4.84-3.35,14.75,14.75,0,0,1-4.26-10.65,14.36,14.36,0,0,1,4.37-10.65,13.79,13.79,0,0,1,10.63-4.36,14.15,14.15,0,0,1,6.39,1.49,13.71,13.71,0,0,1,4.89,4.47V811.3Zm-14.57,2.77A11.32,11.32,0,0,0,383,820a11.77,11.77,0,0,0,0,11.5,11.66,11.66,0,0,0,9.68,5.75,11.76,11.76,0,0,0,5.64-1.49,10.75,10.75,0,0,0,4.15-4.15,12.93,12.93,0,0,0,.62-10.18,11.38,11.38,0,0,0-2.44-3.77,10.72,10.72,0,0,0-3.63-2.5A10.59,10.59,0,0,0,392.66,814.39Z"/><path class="cls-3" d="M430.11,811.62h3.61v5a15.19,15.19,0,0,1,4.9-4.26,10.52,10.52,0,0,1,5.74-1.49,10,10,0,0,1,5.64,1.59,9.83,9.83,0,0,1,3.62,4.37,23.65,23.65,0,0,1,1.16,8.52v14.47h-3.61V826.42a40.4,40.4,0,0,0,0-6.6,7.37,7.37,0,0,0-2.45-4.15,7.18,7.18,0,0,0-4.68-1.49,8.72,8.72,0,0,0-5.85,2.23,10.61,10.61,0,0,0-3.51,5.43,38.61,38.61,0,0,0-.53,7.67v10.64h-3.62Z"/><path class="cls-3" d="M462.13,811.62h3.61v13.2a29.22,29.22,0,0,0,0,6.61,7.53,7.53,0,0,0,3,4.15,9.9,9.9,0,0,0,10.64,0,7.31,7.31,0,0,0,2.87-3.84,24.76,24.76,0,0,0,.54-6.92v-13.2h3.72v13.84a21.19,21.19,0,0,1-1.39,8.84,10.67,10.67,0,0,1-4,4.68,13.53,13.53,0,0,1-6.91,1.6,13.77,13.77,0,0,1-6.92-1.6,10.73,10.73,0,0,1-4-4.68,22.33,22.33,0,0,1-1.38-9Z"/><path class="cls-3" d="M518.72,830.36l3.09,1.59a17.47,17.47,0,0,1-3.51,4.79,13.05,13.05,0,0,1-4.47,2.77,15.29,15.29,0,0,1-5.64,1A13.41,13.41,0,0,1,497.55,836a15.32,15.32,0,0,1-3.93-10.64,15.86,15.86,0,0,1,3.3-9.59,13.72,13.72,0,0,1,11.27-5.32,13.94,13.94,0,0,1,11.49,5.43,15.61,15.61,0,0,1,3.09,9.69H497.34a11.79,11.79,0,0,0,3.19,8.09,10.1,10.1,0,0,0,3.43,2.42,9.87,9.87,0,0,0,4.12.77,14.2,14.2,0,0,0,4.15-.74,11.17,11.17,0,0,0,3.51-2A17.84,17.84,0,0,0,518.72,830.36Zm0-7.56a12.94,12.94,0,0,0-2.12-4.69,9.19,9.19,0,0,0-3.73-2.76A11,11,0,0,0,501,817a11.45,11.45,0,0,0-3.3,5.85Z"/><path class="cls-3" d="M543.72,814.71l-2.34,2.45a8.72,8.72,0,0,0-5.74-2.87,4,4,0,0,0-1.61.28,4.13,4.13,0,0,0-1.37.88,3.61,3.61,0,0,0-1.28,2.77,4.28,4.28,0,0,0,1,2.56,14.34,14.34,0,0,0,4.47,3,16.21,16.21,0,0,1,5.42,4,7.76,7.76,0,0,1,1.49,4.48,8.21,8.21,0,0,1-8.62,8.3,9.55,9.55,0,0,1-4.57-1.07,9.87,9.87,0,0,1-3.72-2.87L529,834a7.93,7.93,0,0,0,6,3.19,5.71,5.71,0,0,0,3.72-1.38,4.25,4.25,0,0,0,1.1-1.49,4.37,4.37,0,0,0,.39-1.81,4.69,4.69,0,0,0-1-2.88,22.73,22.73,0,0,0-4.57-3,14.52,14.52,0,0,1-5.21-3.83,7.45,7.45,0,0,1-1.39-4.47,7,7,0,0,1,.55-2.9,6.83,6.83,0,0,1,1.69-2.42,7.44,7.44,0,0,1,2.55-1.62,7.58,7.58,0,0,1,3-.51A11.69,11.69,0,0,1,543.72,814.71Z"/><path class="cls-3" d="M553.3,801.09h3.61v10.64h5.75v3.09h-5.75v25.12H553.3V814.82h-5v-3.09h5Z"/><path class="cls-3" d="M566.81,811.62h3.72v4.15a13.12,13.12,0,0,1,3.4-3.72,7.68,7.68,0,0,1,3.94-1.17,6.89,6.89,0,0,1,3.19,1l-1.91,3.09a5.16,5.16,0,0,0-1.92,0,5.66,5.66,0,0,0-3.51,1.49,9,9,0,0,0-2.55,4.69,46.51,46.51,0,0,0-.64,9.79v9.48h-3.72Z"/><path class="cls-3" d="M597.55,810.88a13.87,13.87,0,0,1,10.64,4.68,14.55,14.55,0,0,1,3.06,4.92,14.7,14.7,0,0,1,.88,5.73,14.94,14.94,0,0,1-1,5.73,14.75,14.75,0,0,1-3.13,4.91,14.8,14.8,0,0,1-25.43-10.64,14.36,14.36,0,0,1,3.94-10.12,14,14,0,0,1,11.06-5.21Zm0,3.51a10.72,10.72,0,0,0-4.29.87,10.54,10.54,0,0,0-3.58,2.54,11.55,11.55,0,0,0,2.23,17.88,11.16,11.16,0,0,0,10.64,0,11.28,11.28,0,0,0,5.43-9.79,11.28,11.28,0,0,0-.79-4.37,11.43,11.43,0,0,0-2.4-3.72A10.63,10.63,0,0,0,597.55,814.39Z"/><path class="cls-3" d="M633.72,811.62h3.73v5.22a13.71,13.71,0,0,1,4.89-4.47,13.54,13.54,0,0,1,6.28-1.49,14.48,14.48,0,0,1,5.61,1.16,14.64,14.64,0,0,1,7.88,8,14.45,14.45,0,0,1,1.08,5.62,14.29,14.29,0,0,1-4.25,10.65,13.58,13.58,0,0,1-4.84,3.36,13.42,13.42,0,0,1-5.8,1,13.06,13.06,0,0,1-6.17-1.38,15.69,15.69,0,0,1-5.11-4.15v15.22H633.3Zm14.58,2.77a10.6,10.6,0,0,0-8,3.3,11.35,11.35,0,0,0-2.43,3.77,11.19,11.19,0,0,0-.76,4.43,11.35,11.35,0,0,0,5.53,9.9,12.15,12.15,0,0,0,5.74,1.49,10.74,10.74,0,0,0,5.43-1.6,10.62,10.62,0,0,0,4.15-4.15,12.27,12.27,0,0,0,1.49-5.75,11.42,11.42,0,0,0-5.54-9.9A11.45,11.45,0,0,0,648.3,814.39Z"/><path class="cls-3" d="M698.19,811.62v28.21h-3.62V835a18.45,18.45,0,0,1-5.1,4.16,14.07,14.07,0,0,1-6.28,1.38,13.28,13.28,0,0,1-5.81-1,13.48,13.48,0,0,1-4.83-3.37,15.1,15.1,0,0,1-3.27-4.89,15,15,0,0,1,3.27-16.41,14.12,14.12,0,0,1,4.86-3.32,14,14,0,0,1,5.78-1,13.21,13.21,0,0,1,6.28,1.49,13.92,13.92,0,0,1,5,4.47V811.3Zm-14.58,2.77a11.47,11.47,0,0,0-5.63,1.49,10.7,10.7,0,0,0-4.05,4.15,11.84,11.84,0,0,0,0,11.5,11.66,11.66,0,0,0,9.68,5.75,12.15,12.15,0,0,0,5.65-1.49,10.74,10.74,0,0,0,4-4.15,11.82,11.82,0,0,0,1.49-5.75,11.29,11.29,0,0,0-3.2-8.2,10.56,10.56,0,0,0-8-3.3Z"/><path class="cls-3" d="M709.36,798.42h5.21l-7.66,8h-3Zm-3.62,13.31h3.72v28.21h-3.72Z"/><path class="cls-3" d="M731.17,814.71l-2.34,2.45a8.25,8.25,0,0,0-5.64-2.87,4.43,4.43,0,0,0-3.09,1.16,3.62,3.62,0,0,0-.94,1.25,3.47,3.47,0,0,0-.33,1.52,3.81,3.81,0,0,0,1.06,2.56,12.55,12.55,0,0,0,4.36,3,15.58,15.58,0,0,1,5.53,4,7.71,7.71,0,0,1,1.39,4.48,8,8,0,0,1-2.45,6,8.41,8.41,0,0,1-2.79,1.8,8.27,8.27,0,0,1-3.27.54,11.11,11.11,0,0,1-8.41-3.94l2.34-2.66a7.89,7.89,0,0,0,2.57,2.24,7.77,7.77,0,0,0,3.29.95,5.55,5.55,0,0,0,3.72-1.38,4.62,4.62,0,0,0,1.15-1.48,4.28,4.28,0,0,0,.44-1.82,4.13,4.13,0,0,0-1.06-2.88,17.36,17.36,0,0,0-4.58-3,14.61,14.61,0,0,1-5.21-3.83,8.26,8.26,0,0,1-1.38-4.47,7,7,0,0,1,2.24-5.32,7.7,7.7,0,0,1,5.53-2.13A11.46,11.46,0,0,1,731.17,814.71Z"/><path class="cls-3" d="M741.6,834.19a3.33,3.33,0,0,1,1.2.2,3.27,3.27,0,0,1,1,.65,3.55,3.55,0,0,1,.71,1.08,3.22,3.22,0,0,1,.25,1.26,3.09,3.09,0,0,1-1,2.24,2.84,2.84,0,0,1-1,.74,2.81,2.81,0,0,1-1.22.22,3.28,3.28,0,0,1-2.23-1,3.33,3.33,0,0,1-1-2.23,3.22,3.22,0,0,1,.25-1.26,3.38,3.38,0,0,1,.71-1.08A3.46,3.46,0,0,1,741.6,834.19Z"/><path class="cls-4" d="M245.32,303.19a35.47,35.47,0,0,0-11.7-8.73A32,32,0,0,0,220,291.58,30.71,30.71,0,0,0,208.19,294,31.09,31.09,0,0,0,191.7,311a34.9,34.9,0,0,0-2.13,12.35,35.57,35.57,0,0,0,1.28,9.79,26.44,26.44,0,0,0,3.94,8.2,32,32,0,0,0,11.17,10,31.37,31.37,0,0,0,28,0,37.16,37.16,0,0,0,11.39-8.95v12a45.46,45.46,0,0,1-12.24,6.18,44.49,44.49,0,0,1-13.4,2.13,40,40,0,0,1-35.21-21.19A42.65,42.65,0,0,1,183.08,307,37.75,37.75,0,0,1,192,293.93a38.36,38.36,0,0,1,12.87-8.41,42.59,42.59,0,0,1,15.43-2.77,40.07,40.07,0,0,1,12.76,2,45.73,45.73,0,0,1,12.24,6.17Z"/><path class="cls-4" d="M338.51,323.2a39.17,39.17,0,0,1-3.09,15.33,37.73,37.73,0,0,1-8.72,12.88A41.15,41.15,0,0,1,282.34,360a40.63,40.63,0,0,1-13.19-8.63,39.07,39.07,0,0,1-12-28.21,39.55,39.55,0,0,1,3.08-15.44A37.69,37.69,0,0,1,269,294.88a40.82,40.82,0,0,1,28.73-11.6,41.25,41.25,0,0,1,15.63,3,40.44,40.44,0,0,1,13.19,8.62,38,38,0,0,1,8.73,12.88A39.41,39.41,0,0,1,338.51,323.2Zm-40.64,31.94a30.68,30.68,0,0,0,22-9.26,32,32,0,0,0,6.81-10.12,30.63,30.63,0,0,0,2.34-12,33.16,33.16,0,0,0-2.34-12.13A30.1,30.1,0,0,0,319.89,301a31.76,31.76,0,0,0-10.64-6.81A30.74,30.74,0,0,0,275.32,301a31.18,31.18,0,0,0-9.15,22.36,29.75,29.75,0,0,0,2.34,11.92,31.9,31.9,0,0,0,6.81,10.65A30.68,30.68,0,0,0,286,352.8a32,32,0,0,0,11.91,1.81Z"/><path class="cls-4" d="M388.72,364.08l-23.61-54.72-9.58,51.74H346.7L362.13,282l26.59,62.92L415.32,282l15.42,79.1h-8.83l-9.68-51.74Z"/><path class="cls-4" d="M451.27,326.93V361.1h-8.83V285h16a66,66,0,0,1,12.24.86,19.33,19.33,0,0,1,6.91,3,16.9,16.9,0,0,1,5.64,7,24.38,24.38,0,0,1,2.13,10.65,23.78,23.78,0,0,1-2.13,10,17.31,17.31,0,0,1-5.64,7.14,20,20,0,0,1-6.81,3,68,68,0,0,1-12.34.85h-7.13Zm0-8.2h4.58A30.44,30.44,0,0,0,471.49,316a10.64,10.64,0,0,0,4-9.47,12,12,0,0,0-4.15-10.65A29.43,29.43,0,0,0,455.85,293h-4.58Z"/><path class="cls-4" d="M496.49,361.1V285h17.87a56.59,56.59,0,0,1,10.64.85,16.31,16.31,0,0,1,6.27,3,16.81,16.81,0,0,1,5.22,7,24.85,24.85,0,0,1,1.81,9.9,18.25,18.25,0,0,1-5.22,14.16,21.25,21.25,0,0,1-15.21,4.9h-1.7l29,36.3H533.83l-27.77-36.3h-1.28v36.3Zm8.83-68.45v25.44h7.13a25.39,25.39,0,0,0,14.14-2.77,11.29,11.29,0,0,0,2.93-4.31,11.48,11.48,0,0,0,.69-5.16,12.68,12.68,0,0,0-3.72-10.65,24.16,24.16,0,0,0-14-2.87Z"/><path class="cls-4" d="M631.17,323.2a39.17,39.17,0,0,1-3.09,15.33,36.32,36.32,0,0,1-8.72,12.88,41.29,41.29,0,0,1-57.56,0,39.11,39.11,0,0,1-11.91-28.21A39.74,39.74,0,0,1,553,307.76a37.81,37.81,0,0,1,8.82-12.88,40.84,40.84,0,0,1,28.73-11.6,41.26,41.26,0,0,1,15.64,3,40.44,40.44,0,0,1,13.19,8.62,36.41,36.41,0,0,1,8.72,12.88A39.2,39.2,0,0,1,631.17,323.2Zm-40.64,31.94a30.17,30.17,0,0,0,22-9.26,32,32,0,0,0,6.81-10.12,30.63,30.63,0,0,0,2.34-12,33.37,33.37,0,0,0-2.34-12.13A30.38,30.38,0,0,0,612.55,301a31.76,31.76,0,0,0-10.64-6.81A30.71,30.71,0,0,0,568,301a31.18,31.18,0,0,0-9.15,22.36,29.75,29.75,0,0,0,2.34,11.92A30.1,30.1,0,0,0,568,345.88a30.79,30.79,0,0,0,10.1,6.92,32.14,32.14,0,0,0,12.45,1.81Z"/><path class="cls-4" d="M681.38,364.08l-23.62-54.72-9.57,51.74h-8.83L654.79,282l26.59,62.92L708,282l15.43,79.1h-8.83l-9.68-51.74Z"/><path class="cls-4" d="M735.21,361.1V285h9V361.1Z"/><path class="cls-4" d="M790.32,319.37a26.31,26.31,0,0,1,11.17,8.41,20.58,20.58,0,0,1,3.72,12.45,22.55,22.55,0,0,1-6.6,16.93A27.4,27.4,0,0,1,765.85,359a22.63,22.63,0,0,1-8.19-13.09l8.19-4.05a19.86,19.86,0,0,0,5.43,10.65,13.74,13.74,0,0,0,9.57,3.62,15.77,15.77,0,0,0,10.64-3.94,13.64,13.64,0,0,0,4.25-10.65,14,14,0,0,0-3-8.83,21.22,21.22,0,0,0-8.83-6.39l-9.25-3.94a26.11,26.11,0,0,1-11.28-8.2,19,19,0,0,1-3.72-11.92,16.93,16.93,0,0,1,6-13.41,22.16,22.16,0,0,1,15.43-5.33,23.1,23.1,0,0,1,11.81,2.88,19.49,19.49,0,0,1,7.87,8.62l-7.45,4.79a18.7,18.7,0,0,0-5.74-6.6,12.1,12.1,0,0,0-7.23-2.13,11.36,11.36,0,0,0-4.47.7,11.24,11.24,0,0,0-3.83,2.39,11.5,11.5,0,0,0-.74,15,21.22,21.22,0,0,0,7.76,5.21Z"/><path class="cls-4" d="M895.42,323.2a39,39,0,0,1-3.08,15.33,38,38,0,0,1-8.72,12.88A41.17,41.17,0,0,1,839.25,360a40.63,40.63,0,0,1-13.19-8.63,39.11,39.11,0,0,1-11.91-28.21,37.72,37.72,0,0,1,3.08-15.43,36.25,36.25,0,0,1,8.83-12.89,41.5,41.5,0,0,1,57.56,0,38.06,38.06,0,0,1,8.72,12.89A39.11,39.11,0,0,1,895.42,323.2Zm-40.64,31.94a32.07,32.07,0,0,0,11.81-2.34,32.9,32.9,0,0,0,10.64-6.92A32,32,0,0,0,884,335.76a32.77,32.77,0,0,0,2.34-12A33.37,33.37,0,0,0,884,311.6a31.92,31.92,0,0,0-16.92-17,30.74,30.74,0,0,0-33.93,6.82A29.7,29.7,0,0,0,826.38,312,31.2,31.2,0,0,0,824,324.16a29.75,29.75,0,0,0,2.34,11.92,30.1,30.1,0,0,0,6.81,10.65,30.57,30.57,0,0,0,10.11,6.92,32.08,32.08,0,0,0,11.17,1Z"/></g></g></svg>